<?xml version="1.0" standalone="no"?>
<!DOCTYPE svg PUBLIC "-//W3C//DTD SVG 1.1//EN" "http://www.w3.org/Graphics/SVG/1.1/DTD/svg11.dtd" >
<svg xmlns="http://www.w3.org/2000/svg" xmlns:xlink="http://www.w3.org/1999/xlink" version="1.1">
<metadata>
Created by FontForge 20190801 at Tue Aug 25 19:02:46 2015
 By Jimmy Wärting
Copyright (c) 2015 by Luzi Type. All rights reserved.
</metadata>
<defs>
<font id="MessinaSans-BoldItalic" horiz-adv-x="620" >
  <font-face 
    font-family="MessinaSans"
    font-weight="700"
    font-style="italic"
    font-stretch="normal"
    units-per-em="1000"
    panose-1="0 0 8 0 0 0 0 0 0 0"
    ascent="800"
    descent="-200"
    x-height="552"
    cap-height="750"
    bbox="-120.001 -398.999 1389 1076"
    underline-thickness="50"
    underline-position="-100"
    slope="-13"
    unicode-range="U+000D-FB04"
  />
<missing-glyph horiz-adv-x="500" 
 />
    <glyph glyph-name="ff" unicode="ff" horiz-adv-x="691" 
d="M765 644l-66 0.00195312c-20 0 -34.5 -4.33301 -43.5 -13s-15.833 -23.667 -20.5 -45l-8 -34h105l-28 -120h-105l-100 -432h-132l99 432h-197l-100 -432h-132l99 432h-80l28 120h80l18 78c11.333 47.333 31 81.166 59 101.499s65 30.5 111 30.5h111l-28 -118h-66
c-20 0 -34.5 -4.33301 -43.5 -13s-15.833 -23.667 -20.5 -45l-8 -34h197l18 78c11.333 47.333 31 81.166 59 101.499s65 30.5 111 30.5h111z" />
    <glyph glyph-name="fi" unicode="fi" horiz-adv-x="627" 
d="M616 553l-127 -552.999h-132l98 432h-186l-100 -432h-132l99 432h-80l28 120h80l18 78c11.333 47.333 31 81.166 59 101.499s65 30.5 111 30.5h111l-28 -118h-66c-20 0 -34.5 -4.33301 -43.5 -13s-15.833 -23.667 -20.5 -45l-8 -34z" />
    <glyph glyph-name="fl" unicode="fl" horiz-adv-x="618" 
d="M357 0l98 432.001h-186l-100 -432h-132l99 432h-80l28 120h80l18 78c11.333 47.333 31 81.166 59 101.499s65 30.5 111 30.5h111l-28 -118h-66c-20 0 -34.5 -4.33301 -43.5 -13s-15.833 -23.667 -20.5 -45l-8 -34l186 1l47 207h133l-174 -760h-132z" />
    <glyph glyph-name="ffi" unicode="ffi" horiz-adv-x="956" 
d="M818 0l-132 0.00195312l99 432h-186l-100 -432h-132l99 432h-197l-100 -432h-132l99 432h-80l28 120h80l18 78c11.333 47.333 31 81.166 59 101.499s65 30.5 111 30.5h111l-28 -118h-66c-20 0 -34.5 -4.33301 -43.5 -13s-15.833 -23.667 -20.5 -45l-8 -34h197l18 78
c11.333 47.333 31 81.166 59 101.499s65 30.5 111 30.5h111l-28 -118h-66c-20 0 -34.5 -4.33301 -43.5 -13s-15.833 -23.667 -20.5 -45l-8 -34h318z" />
    <glyph glyph-name="ffl" unicode="ffl" horiz-adv-x="947" 
d="M686 0l98 432.002h-185l-100 -432h-132l99 432h-197l-100 -432h-132l99 432h-80l28 120h80l18 78c11.333 47.333 31 81.166 59 101.499s65 30.5 111 30.5h111l-28 -118h-66c-20 0 -34.5 -4.33301 -43.5 -13s-15.833 -23.667 -20.5 -45l-8 -34h197l18 78
c11.333 47.333 31 81.166 59 101.499s65 30.5 111 30.5h111l-28 -118h-66c-20 0 -34.5 -4.33301 -43.5 -13s-15.833 -23.667 -20.5 -45l-8 -34h185l48 210h132l-174 -762h-132z" />
    <glyph glyph-name="T_h" unicode="Th" horiz-adv-x="1263" 
d="M339 0h-140l143 620h-232l30 130h604l-30 -130h-232zM1069 562c52 0 91 -15.5 117 -46.5s39 -68.833 39 -113.5c0 -18.667 -1.66699 -34.667 -5 -48l-81 -354h-133l80 348c2 10 3 19 3 27c0 21.333 -6.33301 38 -19 50s-31 18 -55 18
c-33.3369 0 -61.6699 -11.833 -85 -35.5c-23.333 -23.667 -40 -57.5 -50 -101.5l-71 -306h-133l176 762h133l-65 -281c34 54 83.667 81 149 81z" />
    <glyph glyph-name="f_f_j" unicode="ffj" horiz-adv-x="950" 
d="M944 552l-142 -614.998c-12 -52.667 -31.5 -89.667 -58.5 -111s-61.167 -32 -102.5 -32h-98l27 118h46c18.6689 0 32.3359 4 41 12c8.66699 8 15 21.333 19 40l108 468h-186l-100 -432h-132l99 432h-196l-100 -432h-132l99 432h-80l28 120h80l18 78
c11.333 47.333 31 81.166 59 101.499s65 30.5 111 30.5h111l-28 -118h-66c-20 0 -34.5 -4.33301 -43.5 -13s-15.833 -23.667 -20.5 -45l-8 -34h196l18 78c11.333 47.333 31 81.166 59 101.499s65 30.5 111 30.5h111l-28 -118h-66c-20 0 -34.5 -4.33301 -43.5 -13
s-15.833 -23.667 -20.5 -45l-8 -34h318z" />
    <glyph glyph-name="f_f_t" unicode="fft" horiz-adv-x="1032" 
d="M916 432l-55 -238.998c-3.33301 -13.334 -5 -24.667 -5 -34c0 -26.667 14.333 -40 43 -40h71l-27 -119h-98c-40.667 0 -71.667 12.167 -93 36.5s-32 55.5 -32 93.5c0 16 2 32.333 6 49l58 253h-186l-100 -432h-132l99 432h-196l-100 -432h-132l99 432h-80l28 120h80
l18 78c11.333 47.333 31 81.166 59 101.499s65 30.5 111 30.5h111l-28 -118h-66c-20 0 -34.5 -4.33301 -43.5 -13s-15.833 -23.667 -20.5 -45l-8 -34h196l18 78c11.333 47.333 31 81.166 59 101.499s65 30.5 111 30.5h111l-28 -118h-66c-20 0 -34.5 -4.33301 -43.5 -13
s-15.833 -23.667 -20.5 -45l-8 -34h186l31 131l139 37l-38 -168h115l-28 -120h-115z" />
    <glyph glyph-name="f_j" unicode="fj" horiz-adv-x="621" 
d="M615 552l-142.001 -614.999c-12 -52.667 -31.5 -89.667 -58.5 -111s-61.167 -32 -102.5 -32h-98l27 118h46c18.667 0 32.334 4 41.001 12s15 21.333 19 40l108 468h-186l-100 -432h-132l99 432h-80l28 120h80l18 78c11.333 47.333 31 81.166 59 101.499s65 30.5 111 30.5
h111l-28 -118h-66c-20 0 -34.5 -4.33301 -43.5 -13s-15.833 -23.667 -20.5 -45l-8 -34h318z" />
    <glyph glyph-name="f_t" unicode="ft" horiz-adv-x="703" 
d="M587 432l-55 -238.999c-3.33301 -13.334 -5 -24.667 -5 -34c0 -26.667 14.333 -40 43 -40h71l-27 -119h-98c-40.667 0 -71.667 12.167 -93 36.5s-32 55.5 -32 93.5c0 16 2 32.333 6 49l58 253h-186l-100 -432h-132l99 432h-80l28 120h80l18 78
c11.333 47.333 31 81.166 59 101.499s65 30.5 111 30.5h111l-28 -118h-66c-20 0 -34.5 -4.33301 -43.5 -13s-15.833 -23.667 -20.5 -45l-8 -34h186l31 131l139 37l-38 -168h115l-28 -120h-115z" />
    <glyph glyph-name="t_t" unicode="tt" horiz-adv-x="723" 
d="M607 432l-55 -239c-3.33301 -13.334 -5 -24.667 -5 -34c0 -26.667 14.333 -40 43 -40h71l-27 -119h-98c-40.667 0 -71.667 12.167 -93 36.5s-32 55.5 -32 93.5c0 16 2 32.333 6 49l58 253h-196l-55 -239c-3.33301 -13.334 -5 -24.667 -5 -34c0 -26.667 14.333 -40 43 -40
h71l-27 -119h-98c-40.667 0 -71.667 12.167 -93 36.5s-32 55.5 -32 93.5c0 16 2 32.333 6 49l58 253h-96l28 120h96l31 131l139 37l-38 -168h196l31 131l139 37l-38 -168h115l-28 -120h-115z" />
    <glyph glyph-name=".notdef" horiz-adv-x="500" 
 />
    <glyph glyph-name="CR" unicode="&#xd;" horiz-adv-x="520" 
 />
    <glyph glyph-name="space" unicode=" " horiz-adv-x="215" 
 />
    <glyph glyph-name="exclam" unicode="!" horiz-adv-x="310" 
d="M166 0h-150l36 154h150zM118 422l76 328h142l-76 -328l-64 -200h-106z" />
    <glyph glyph-name="quotedbl" unicode="&#x22;" horiz-adv-x="429" 
d="M424 496h-87l42 292h128zM244 496h-87l42 292h128z" />
    <glyph glyph-name="numbersign" unicode="#" horiz-adv-x="683" 
d="M458 459h-131l-35 -151h131zM533 459l-34 -151h141v-63h-156l-56 -245h-76l57 245h-132l-56 -245h-76l57 245h-121v63h135l35 151h-151v63h166l50 218h75l-50 -218h132l50 218h75l-50 -218h111v-63h-126z" />
    <glyph glyph-name="dollar" unicode="$" horiz-adv-x="660" 
d="M331 96c34 0 63.5 9.5 88.5 28.5s37.5 45.167 37.5 78.5c0 25.333 -8.16699 45.5 -24.5 60.5s-43.5 30.5 -81.5 46.5l-63 -208c14 -4 28.333 -6 43 -6zM258 542c0 -23.335 6.49805 -41.835 19.498 -55.5c13 -13.667 34.5 -26.5 64.5 -38.5l61 203
c-5.33301 0.666992 -12.666 1 -21.999 1c-33.333 0 -62.166 -9.66699 -86.499 -29s-36.5 -46.333 -36.5 -81zM447.998 637l-60.999 -205.998c26.667 -10 47.334 -18.167 62.001 -24.5s32.5 -15.833 53.5 -28.5s37 -25.667 48 -39s20.667 -30.5 29 -51.5
s12.5 -44.167 12.5 -69.5c0 -71.333 -26.333 -127.5 -79 -168.5s-115.667 -61.5 -189 -61.5c-24.667 0 -47.334 2.33301 -68.001 7l-39 -131h-50l43 144c-48.667 17.333 -88 46.166 -118 86.499s-45 90.166 -45 149.499v8h136c-1.33301 -10.667 -2 -18 -2 -22
c0 -47.333 21 -84 63 -110l62 209c-27.333 11.333 -49.333 21.5 -66 30.5s-34.5 21.5 -53.5 37.5s-33.167 35.5 -42.5 58.5s-14 49.833 -14 80.5c0 68.667 23.167 123.5 69.5 164.5s108.833 61.5 187.5 61.5c16.667 0 32.667 -1 48 -3l30 100h50l-33 -110
c49.333 -14 88.166 -39.167 116.499 -75.5c28.333 -36.335 44.5 -80.168 48.5 -131.5h-132c-4 43.333 -26.333 75 -67 95z" />
    <glyph glyph-name="percent" unicode="%" horiz-adv-x="1037" 
d="M886 163c0 30.667 -9.33301 55.667 -28 75s-42.667 29 -72 29c-29.3359 0 -53.1689 -9.66699 -71.499 -29c-18.333 -19.333 -27.5 -44.333 -27.5 -75c0 -31.333 9.16699 -56.833 27.5 -76.5s42.166 -29.5 71.499 -29.5s53.333 9.83301 72 29.5s28 45.167 28 76.5z
M596 162c0 56 17.833 101.667 53.5 137s80.5 53 134.5 53c56 0 102.167 -17.5 138.5 -52.5s54.5 -80.833 54.5 -137.5c0 -56 -18.167 -101.833 -54.5 -137.5s-82.5 -53.5 -138.5 -53.5c-53.333 0 -98 18 -134 54s-54 81.667 -54 137zM423 586
c0 30.667 -9.33398 55.667 -28.001 75s-42.667 29 -72 29s-53.166 -9.66699 -71.499 -29s-27.5 -44.333 -27.5 -75c0 -31.333 9.16699 -56.833 27.5 -76.5c18.334 -19.667 42.167 -29.5 71.5 -29.5s53.333 9.83301 72 29.5s28 45.167 28 76.5zM286.999 0h-95l645 750h95z
M132.999 585c0 56 17.833 101.667 53.5 137s80.5 53 134.5 53c56 0 102.167 -17.5 138.5 -52.5s54.5 -80.833 54.5 -137.5c0 -56 -18.167 -101.833 -54.5 -137.5s-82.5 -53.5 -138.5 -53.5c-53.333 0 -98 18 -134 54s-54 81.667 -54 137z" />
    <glyph glyph-name="ampersand" unicode="&#x26;" horiz-adv-x="795" 
d="M174 206c0 -34 13.167 -60.5 39.5 -79.5s58.166 -28.5 95.499 -28.5c52.667 0 95.334 16.333 128.001 49l-140 189c-38 -8 -68 -24.167 -90 -48.5s-33 -51.5 -33 -81.5zM392 645c-25.333 0 -46.501 -7.83301 -63.501 -23.5s-25.5 -36.834 -25.5 -63.501
c0 -25.333 8.66699 -49.666 26 -72.999l33 -44c35.334 5.33301 62.667 19.833 82 43.5s29 49.5 29 77.5c0 23.333 -7.16699 43 -21.5 59s-34.166 24 -59.499 24zM546.999 0l-45.999 62c-52.667 -49.333 -121.334 -74 -206 -74c-68 0 -126.333 18.333 -175 55s-73 88 -73 154
c0 52.667 16.667 98.5 50 137.5s81.666 64.167 144.999 75.5l-9 13c-30.667 44 -46 90 -46 138c0 59.333 20.833 105.666 62.5 138.999s90.5 50 146.5 50c53.333 0 99.5 -15 138.5 -45s58.5 -73 58.5 -129c0 -50 -16 -93.667 -48 -131s-75 -62.666 -129 -75.999l95 -127
c16 28.667 28.667 62.667 38 102l10 42h121l-10 -42c-18.667 -78 -48.667 -142.667 -90 -194l111 -150h-144z" />
    <glyph glyph-name="quotesingle" unicode="'" horiz-adv-x="269" 
d="M234 496h-87l42 292h128z" />
    <glyph glyph-name="parenleft" unicode="(" horiz-adv-x="394" 
d="M37 226c0 142 39 269.001 117 381.001s183.667 201.667 317 269l36 -68c-251.333 -142.667 -377 -336.334 -377 -581.001c0 -158.667 49.333 -282 148 -370l-52 -53c-58 42.667 -104 100.167 -138 172.5s-51 155.5 -51 249.5z" />
    <glyph glyph-name="parenright" unicode=")" horiz-adv-x="394" 
d="M377 454c0 -142 -39 -269.001 -117 -381.001s-183.667 -201.667 -317 -269l-36 68c251.333 142.667 377 336.334 377 581.001c0 158.667 -49.333 282 -148 370l52 53c58 -42.667 104 -100.167 138 -172.5s51 -155.5 51 -249.5z" />
    <glyph glyph-name="asterisk" unicode="*" horiz-adv-x="426" 
d="M350 605l52 -80l-85 -56l-44 86l-70 -86l-70 56l73 80l-92 28l39 92l93 -33l12 101h95l-19 -101l102 29l22 -81z" />
    <glyph glyph-name="plus" unicode="+" horiz-adv-x="520" 
d="M465 257h-174l-42 -184h-73l42 184h-173l16 69h173l43 186h73l-43 -186h174z" />
    <glyph glyph-name="comma" unicode="," horiz-adv-x="256" 
d="M207 150l-29.001 -125.999c-16 -70 -43.5 -120.333 -82.5 -151s-87.833 -48 -146.5 -52l-1 67c40 5.33301 71.333 17.666 94 36.999s38.334 47.333 47.001 84h-69l34 141h153z" />
    <glyph glyph-name="hyphen" unicode="-" horiz-adv-x="429" 
d="M364 257h-308l27 118h308z" />
    <glyph glyph-name="period" unicode="." horiz-adv-x="251" 
d="M147 0h-150l36 154h150z" />
    <glyph glyph-name="slash" unicode="/" horiz-adv-x="486" 
d="M594 830l-544 -922h-115l544 922h115z" />
    <glyph glyph-name="zero" unicode="0" 
d="M278 105c32 0 60.501 13.668 85.501 41.001s44.5 61.833 58.5 103.5s24.5 83.5 31.5 125.5s10.5 81 10.5 117c0 93.333 -27.667 140 -83 140c-31.333 0 -59.5 -13.833 -84.5 -41.5s-44.333 -62.334 -58 -104.001s-23.834 -83.5 -30.501 -125.5s-10 -81 -10 -117
c0 -92.667 26.667 -139 80 -139zM262.001 -11.999c-64 0 -113.501 20.9971 -148.501 62.9971s-52.5 106.333 -52.5 193c0 40 3.5 81.667 10.5 125s19 88 36 134s38 87 63 123s57.333 65.667 97 89s83.5 35 131.5 35c64.667 0 114.5 -21.333 149.5 -64
s52.5 -107.334 52.5 -194.001c0 -41.333 -3.83301 -84.166 -11.5 -128.499s-20.167 -89.166 -37.5 -134.499c-17.335 -45.333 -38.668 -85.666 -63.999 -120.999c-25.333 -35.333 -57.5 -64.166 -96.5 -86.499s-82.167 -33.5 -129.5 -33.5z" />
    <glyph glyph-name="one" unicode="1" 
d="M28 3l28 122h157l102 436c-56 -28 -115.667 -44 -179 -48l31 130c74 10.667 142.333 42 205 94h117l-142 -612h156l-28 -122h-447z" />
    <glyph glyph-name="two" unicode="2" 
d="M557 124l-29.002 -124.003h-524l25 111l195 157c16.667 13.334 39.334 31.167 68.001 53.5s49.167 38.5 61.5 48.5c12.334 10 27.667 23.333 46 40c18.334 16.667 31.167 30.334 38.5 41.001s14 23.334 20 38.001s9 29.334 9 44.001c0 28 -9.16699 49.833 -27.5 65.5
s-43.166 23.5 -74.499 23.5c-38.667 0 -71.834 -11.5 -99.5 -34.5c-27.667 -23 -44.5 -55.5 -50.5 -97.5h-136c12 84.667 45.833 149.167 101.5 193.5s120.5 66.5 194.5 66.5c65.333 0 120 -19 164 -57s66 -89 66 -153c0 -20 -2.33301 -38.833 -7 -56.5
s-12.667 -35.5 -24 -53.5s-22 -33.5 -32 -46.5s-25.5 -28.833 -46.5 -47.5s-38 -33.334 -51 -44c-13 -10.667 -33.333 -26.834 -61 -48.5c-27.667 -21.667 -48.5 -38.167 -62.5 -49.5l-87 -70h323z" />
    <glyph glyph-name="three" unicode="3" 
d="M448 370c33.334 -9.33301 60.166 -26.668 80.499 -52.001s30.5 -58 30.5 -98c0 -68 -27 -123.667 -81 -167s-119 -65 -195 -65c-76.667 0 -137.167 22.333 -181.5 67s-66.5 98.334 -66.5 161.001c0 6.66699 0.666992 16 2 28h138c-2.66699 -8.66699 -4 -19 -4 -31
c0 -29.334 10.5 -54.167 31.5 -74.5s50.5 -30.5 88.5 -30.5s69.167 10 93.5 30s36.5 47 36.5 81c0 58.667 -41.333 88 -124 88h-59l28 120h46c50.667 0 90.834 11.667 120.501 35s44.5 52 44.5 86c0 25.333 -8.33301 45.833 -25 61.5s-41.334 23.5 -74 23.5
c-35.333 0 -67 -12.333 -95 -37s-44 -60 -48 -106h-135c6 80 37 143.333 93 190s120.667 70 194 70c66.667 0 121.167 -17.167 163.5 -51.5s63.5 -79.5 63.5 -135.5c0 -50 -16.5 -93 -49.5 -129s-71.833 -57.333 -116.5 -64z" />
    <glyph glyph-name="four" unicode="4" 
d="M164 266h205l74 314zM306 0l33 144h-351l25 110l421 483h175l-110 -471h100l-27 -124h-101l-33 -142h-132z" />
    <glyph glyph-name="five" unicode="5" horiz-adv-x="622" 
d="M292 613l-52.001 -160.001c34.667 28.667 76.334 43 125.001 43c66.667 0 117.667 -21.833 153 -65.5s53 -96.167 53 -157.5c0 -77.333 -27 -144.166 -81 -200.499s-122.667 -84.5 -206 -84.5c-70 0 -129.167 21 -177.5 63s-72.5 100.667 -72.5 176v17h131
c-0.666992 -4.66699 -1 -11.667 -1 -21c0 -38.667 12.167 -68.167 36.5 -88.5s54.5 -30.5 90.5 -30.5c45.334 0 81.667 15.167 109 45.5s41 66.5 41 108.5c0 33.334 -9.33301 61.167 -28 83.5s-46 33.5 -82 33.5c-41.333 0 -80.333 -14.333 -117 -43h-134l128 405h404
l-28 -124h-292z" />
    <glyph glyph-name="six" unicode="6" 
d="M335 371c-37.333 0 -70.834 -12.333 -100.501 -37s-44.5 -58.667 -44.5 -102c0 -38 11.5 -67.833 34.5 -89.5s51.167 -32.5 84.5 -32.5c36.667 0 69.667 12.667 99 38s44 60.333 44 105c0 38 -11.167 67.167 -33.5 87.5s-50.166 30.5 -83.499 30.5zM398.999 750
c64.667 0 119.168 -18.667 163.501 -56c44.333 -37.334 67.833 -89.667 70.5 -157h-129c-2.66699 32.667 -14.5 57.5 -35.5 74.5s-47.167 25.5 -78.5 25.5c-50 0 -94.833 -20.833 -134.5 -62.5s-63.5 -100.5 -71.5 -176.5c16.667 33.333 41.5 58 74.5 74s68.833 24 107.5 24
c60 0 111 -19.167 153 -57.5s63 -93.833 63 -166.5c0 -80.667 -25.833 -148.167 -77.5 -202.5s-117.5 -81.5 -197.5 -81.5c-80.667 0 -143 29.333 -187 88s-66 139.334 -66 242.001c0 131.333 33.667 236.166 101 314.499s148.666 117.5 243.999 117.5z" />
    <glyph glyph-name="seven" unicode="7" 
d="M640 630l-397 -630h-143l384 607h-398l30 130h550z" />
    <glyph glyph-name="eight" unicode="8" 
d="M280 101c38.667 0 72.667 10.833 102 32.5s44 50.5 44 86.5c0 30.667 -11.333 54.667 -34 72s-50.667 26 -84 26c-38 0 -71.5 -10.833 -100.5 -32.5s-43.5 -50.5 -43.5 -86.5c0 -31.333 11.167 -55.5 33.5 -72.5s49.833 -25.5 82.5 -25.5zM368 634
c-32.667 0 -61.667 -9.66602 -87 -28.999s-38 -44.333 -38 -75c0 -26.667 9.66699 -47.167 29 -61.5c19.334 -14.333 43.667 -21.5 73 -21.5c33.333 0 62.833 9.16699 88.5 27.5s38.5 42.166 38.5 71.499c0 28 -10 49.667 -30 65s-44.667 23 -74 23zM463 384.001
c60 -33.333 90 -84.667 90 -154c0 -76 -27 -135.333 -81 -178s-120 -64 -198 -64c-66 0 -122.167 17.667 -168.5 53s-69.5 86 -69.5 152c0 49.333 14.5 90.833 43.5 124.5s68.833 58.5 119.5 74.5c-25.333 12 -45.666 30.5 -60.999 55.5s-23 52.833 -23 83.5
c0 70.668 25.167 124.835 75.5 162.5c50.333 37.667 111.166 56.5 182.499 56.5c62.667 0 116 -16.667 160 -50s66 -81 66 -143c0 -44.667 -13.167 -82.167 -39.5 -112.5s-58.5 -50.5 -96.5 -60.5z" />
    <glyph glyph-name="nine" unicode="9" 
d="M320 359c37.333 0 70.833 12.333 100.5 37s44.5 58.667 44.5 102c0 38 -11.5 67.833 -34.5 89.5s-51.167 32.5 -84.5 32.5c-36.667 0 -69.667 -12.667 -99 -38s-44 -60.333 -44 -105c0 -38 11.167 -67.167 33.5 -87.5c22.334 -20.333 50.167 -30.5 83.5 -30.5zM354 750
c82.667 0 145.835 -29.333 189.502 -88s65.5 -140 65.5 -244c0 -131.333 -32.333 -235.833 -97 -313.5s-144 -116.5 -238 -116.5c-64.667 0 -119.167 18.667 -163.5 56s-67.833 89.666 -70.5 156.999h129c2.66699 -32.667 14.5 -57.5 35.5 -74.5s47.167 -25.5 78.5 -25.5
c48.667 0 91.667 21 129 63c37.334 42 59.667 101 66.999 177c-16.667 -33.333 -41.667 -58.166 -75 -74.499s-68.333 -24.5 -105 -24.5c-60.667 0 -112.167 20.5 -154.5 61.5s-63.5 98.167 -63.5 171.5c0 80.667 25.667 146.667 77 198s116.666 77 195.999 77z" />
    <glyph glyph-name="colon" unicode=":" horiz-adv-x="261" 
d="M146 0h-150l36 154h150zM244 421h-150l36 154h150z" />
    <glyph glyph-name="semicolon" unicode=";" horiz-adv-x="308" 
d="M229 150l-29.001 -125.999c-16 -70 -43.5 -120.333 -82.5 -151s-87.833 -48 -146.5 -52l-1 67c40 5.33301 71.333 17.666 94 36.999s38.334 47.333 47.001 84h-69l34 141h153zM289.999 420.001h-150l36 154h150z" />
    <glyph glyph-name="less" unicode="&#x3c;" horiz-adv-x="520" 
d="M513 465l-367 -186l266 -181l-43 -61l-313 220l11 51l415 219z" />
    <glyph glyph-name="equal" unicode="=" horiz-adv-x="521" 
d="M25 174l20 78h420l-20 -78h-420zM62 331l18 79h420l-18 -79h-420z" />
    <glyph glyph-name="greater" unicode="&#x3e;" horiz-adv-x="520" 
d="M6 99l367 186l-266 181l43 61l313 -220l-11 -51l-415 -219z" />
    <glyph glyph-name="question" unicode="?" horiz-adv-x="606" 
d="M280 0h-150l34 154h150zM248 540l-134.999 0.00390625c8 75.333 37.667 131.166 89 167.499s114.333 54.5 189 54.5c72 0 128.5 -16.167 169.5 -48.5s61.5 -75.833 61.5 -130.5c0 -22.667 -4 -43.834 -12 -63.501c-8 -19.668 -17 -35.835 -27 -48.501
c-10 -12.667 -24.167 -25.5 -42.5 -38.5s-33.5 -22.5 -45.5 -28.5s-28.333 -13.833 -49 -23.5s-34 -16.167 -40 -19.5c-28 -14.667 -47.333 -29.334 -58 -44c-10.667 -14.667 -18 -32.334 -22 -53l-7 -32h-127l14 56c14 55.333 34 96.5 60 123.5s62 51.167 108 72.5
c3.33496 1.34082 9.66797 4.17383 19 8.5c9.33301 4.33301 15.833 7.33301 19.5 9s9.16699 4.66699 16.5 9s12.5 7.66602 15.5 9.99902s7 5.83301 12 10.5s8.5 9 10.5 13s3.83301 8.83301 5.5 14.5s2.5 11.5 2.5 17.5c0 22.6689 -8.5 39.8359 -25.5 51.5
c-17 11.667 -39.5 17.5 -67.5 17.5c-70.667 0 -115.334 -35 -134.001 -105z" />
    <glyph glyph-name="at" unicode="@" horiz-adv-x="884" 
d="M403 141c37.334 0 68.668 18.5 94 55.5c25.333 37 38 75.5 38 115.5c0 52.667 -24 79 -72 79c-38.667 0 -70.834 -16.667 -96.5 -50c-25.667 -33.333 -38.5 -70 -38.5 -110c0 -25.334 6.16699 -46.667 18.5 -64c12.334 -17.333 31.167 -26 56.5 -26zM542.001 660
c90.667 0 166 -23.8311 226 -71.498s90 -117.167 90 -208.5c0 -83.333 -23.333 -159.666 -70 -228.999s-102.667 -104 -168 -104c-30.667 0 -55.5 7.83301 -74.5 23.5s-28.833 36.834 -29.5 63.501c-14 -28.667 -34.167 -50.834 -60.5 -66.501s-55.5 -23.5 -87.5 -23.5
c-50.667 0 -89.334 16.333 -116 49c-26.667 32.667 -40 72.667 -40 120c0 68 24 130.5 72 187.5s109.667 85.5 185 85.5c26 0 48 -5.66699 66 -17s30.333 -26 37 -44l21 51h120l-114 -297c-5.33301 -14.667 -8 -27.667 -8 -39c0 -27.333 14.667 -41 44 -41
s57.5 15.167 84.5 45.5s48 67.166 63 110.499s22.5 85.666 22.5 126.999c0 72 -24.167 128.833 -72.5 170.5c-48.334 41.667 -112.167 62.5 -191.5 62.5c-60.667 0 -119.167 -12.667 -175.5 -38c-56.333 -25.334 -104.5 -58.667 -144.5 -99.999
c-40 -41.333 -72 -88.833 -96 -142.5s-36 -108.167 -36 -163.5c0 -80.667 24 -142.667 72 -186s108.333 -65 181 -65c44.667 0 88.667 8.33301 132 25l11 -39c-45.333 -23.333 -95.333 -35 -150 -35c-38 0 -74 5.5 -108 16.5s-65.5 27.833 -94.5 50.5
s-52.167 53.834 -69.5 93.501s-26 85.5 -26 137.5c0 65.333 13.667 128.166 41 188.499s63.833 112.666 109.5 156.999s99.5 79.666 161.5 105.999s126.333 39.5 193 39.5z" />
    <glyph glyph-name="A" unicode="A" horiz-adv-x="778" 
d="M510 297l-50 277l-162 -277h212zM533 166h-311l-97 -166h-159l452 750h139l147 -750h-141z" />
    <glyph glyph-name="B" unicode="B" horiz-adv-x="698" 
d="M196 130h162c44.667 0 79.5 11.5 104.5 34.5s37.5 49.5 37.5 79.5c0 24 -8.33301 44.333 -25 61s-40 25 -70 25h-163zM272 449l146 0.000976562c38 0 68 9.66699 90 29s33 41.666 33 66.999c0 20.6689 -8 38.3359 -24 53c-16 14.667 -38.333 22 -67 22h-139zM540 388.001
c32.667 -8.66699 57.501 -26.667 74.501 -54s25.5 -57.333 25.5 -90c0 -64 -26.833 -120.833 -80.5 -170.5s-124.5 -74.5 -212.5 -74.5h-2l-318 1l173 750h282c62 0 110.167 -17.167 144.5 -51.5s51.5 -75.833 51.5 -124.5c0 -40 -11.833 -77.5 -35.5 -112.5
s-57.834 -59.5 -102.501 -73.5z" />
    <glyph glyph-name="C" unicode="C" horiz-adv-x="805" 
d="M413 115c49.334 0 92.1689 13.832 128.502 41.499s60.833 67.5 73.5 119.5h143c-13.333 -89.333 -53 -160.833 -119 -214.5s-144 -80.5 -234 -80.5c-70 0 -130.5 17.333 -181.5 52s-88.333 78.334 -112 131.001s-35.5 110.334 -35.5 173.001
c0 53.333 9.16699 105.333 27.5 156s44 96.5 77 137.5s75.5 74 127.5 99s109.333 37.5 172 37.5c85.333 0 157.333 -22.167 216 -66.5s88 -107.5 88 -189.5v-11h-143c-0.666992 42.667 -15.834 76.167 -45.501 100.5s-68.834 36.5 -117.501 36.5
c-78.667 0 -142 -30 -190 -90s-72 -129 -72 -207c0 -62.667 16.833 -115.834 50.5 -159.501s82.5 -65.5 146.5 -65.5z" />
    <glyph glyph-name="D" unicode="D" horiz-adv-x="756" 
d="M196 131h99c62.667 0 118 15.667 166 47s83.5 69.333 106.5 114s34.5 90.667 34.5 138c0 54.667 -16.167 100 -48.5 136c-32.334 36 -78.834 54 -139.5 54h-106zM199 750l224.998 -0.000976562c102 0 180.5 -30 235.5 -90s82.5 -134.333 82.5 -223
c0 -41.333 -6.16699 -82.666 -18.5 -123.999c-12.3359 -41.333 -31.1689 -80.833 -56.5 -118.5c-25.335 -37.667 -55.668 -71 -91 -100c-35.333 -29 -78.166 -52 -128.499 -69s-104.166 -25.5 -161.499 -25.5h-260z" />
    <glyph glyph-name="E" unicode="E" horiz-adv-x="633" 
d="M694 750l-31 -130h-353l-41 -175h338l-30 -131h-338l-42 -183h372l-30 -131h-511l172 750h494z" />
    <glyph glyph-name="F" unicode="F" horiz-adv-x="615" 
d="M200 750h494l-31 -130h-353l-41 -175h338l-30 -131h-338l-72 -314h-139z" />
    <glyph glyph-name="G" unicode="G" horiz-adv-x="821" 
d="M484 637c-42.667 0 -81.666 -9.66699 -116.999 -29s-64 -44.333 -86 -75s-38.833 -64.334 -50.5 -101c-11.667 -36.667 -17.5 -73.334 -17.5 -110c0 -60 15.167 -109.833 45.5 -149.5c30.334 -39.667 74.167 -59.5 131.5 -59.5c48.667 0 93.667 14.333 135 43
s70.666 67.334 87.999 116.001h-243l30 130h369l-92 -402h-133l16 70c-47.333 -59.333 -112.666 -89 -195.999 -89c-92.667 0 -164.334 32.5 -215.001 97.5s-76 144.5 -76 238.5c0 43.333 5.5 86.166 16.5 128.499s27.833 83 50.5 122s50.167 73.167 82.5 102.5
s71.333 52.833 117 70.5s94.834 26.5 147.501 26.5c87.333 0 160 -22.333 218 -67s87 -107.667 87 -189v-11h-143c-0.666992 42 -15.834 75.333 -45.501 100s-69.5 37 -119.5 37z" />
    <glyph glyph-name="H" unicode="H" horiz-adv-x="754" 
d="M610 0h-139l71 313h-306l-71 -313h-139l173 750h139l-71 -307h306l70 307h140z" />
    <glyph glyph-name="I" unicode="I" horiz-adv-x="319" 
d="M204 750h139l-173 -750h-139z" />
    <glyph glyph-name="J" unicode="J" horiz-adv-x="550" 
d="M171 276l-15.002 -59c-3.33301 -14.667 -5 -26.667 -5 -36c0 -44 24 -66 72 -66c28.667 0 51.334 9 68.001 27s29.667 47.333 39 88l120 520h139l-127 -549c-33.333 -146.667 -115.666 -220 -246.999 -220c-69.333 0 -120.833 17.833 -154.5 53.5
s-50.5 79.167 -50.5 130.5c0 19.333 2.66699 39 8 59l14 52h139z" />
    <glyph glyph-name="K" unicode="K" horiz-adv-x="701" 
d="M429 430l208 -430h-157l-162 335l-94 -80l-59 -255h-139l173 750h139l-66 -285l335 285h197z" />
    <glyph glyph-name="L" unicode="L" horiz-adv-x="594" 
d="M200 750h138l-143 -619h345l-30 -131h-483z" />
    <glyph glyph-name="M" unicode="M" horiz-adv-x="916" 
d="M772 0h-131l111 483l-302 -483h-103l-80 488l-110 -488h-128l171 750h156l84 -544l332 544h171z" />
    <glyph glyph-name="N" unicode="N" horiz-adv-x="752" 
d="M608 0h-128l-197 515l-117 -515h-138l171 750h141l189 -493l112 493h138z" />
    <glyph glyph-name="O" unicode="O" horiz-adv-x="820" 
d="M472 634c-74 0 -135.332 -28.5 -183.999 -85.5s-73 -128.167 -73 -213.5c0 -68 16.667 -121.667 50 -161s79.666 -59 138.999 -59c74 0 135 28.833 183 86.5s72 128.834 72 213.501c0 67.333 -16.333 120.666 -49 159.999s-78.667 59 -138 59zM398.001 -19
c-96.667 0 -174.666 32.501 -233.999 97.501s-89 148.833 -89 251.5c0 78 17 150.333 51 217s82 120.167 144 160.5s130.667 60.5 206 60.5c97.333 0 175.666 -32.667 234.999 -98s89 -149 89 -251c0 -77.333 -17.167 -149.333 -51.5 -216s-82.5 -120.334 -144.5 -161.001
s-130.667 -61 -206 -61z" />
    <glyph glyph-name="P" unicode="P" horiz-adv-x="641" 
d="M262 417h135c40.667 0 72.667 11.667 96 35s35 50.333 35 81c0 26.6689 -7.66699 47.8359 -23 63.5c-15.333 15.667 -38 23.5 -68 23.5h-129zM199 750h253c69.333 0 122.666 -19.167 159.999 -57.5s56 -85.833 56 -142.5c0 -69.333 -26.167 -130.5 -78.5 -183.5
s-124.166 -79.5 -215.499 -79.5h-143l-66 -287h-138z" />
    <glyph glyph-name="Q" unicode="Q" horiz-adv-x="827" 
d="M213 335c0 -69.333 16.834 -123.833 50.501 -163.5s80.5 -59.5 140.5 -59.5c12 0 24 1 36 3l-99 219h139l74 -169c34 27.333 60.333 62.833 79 106.5s28 91.5 28 143.5c0 68 -16.333 122 -49 162s-79.334 60 -140.001 60c-74.667 0 -136.5 -29 -185.5 -87
s-73.5 -129.667 -73.5 -215zM800.001 419c0 -76 -16.999 -147.333 -50.999 -214s-80.333 -119.667 -139 -159l76 -173h-137l-53 121c-30 -8.66699 -62.667 -13 -98 -13c-96.667 0 -174.667 32.5 -234 97.5s-89 148.833 -89 251.5c0 78 17 150.333 51 217
s82 120.167 144 160.5s130.667 60.5 206 60.5c97.333 0 175.666 -32.667 234.999 -98s89 -149 89 -251z" />
    <glyph glyph-name="R" unicode="R" horiz-adv-x="681" 
d="M264 427h136c40 0 71.5 11 94.5 33s34.5 47 34.5 75c0 26 -8.5 46.667 -25.5 62s-41.167 23 -72.5 23h-123zM481 318l136 -318h-150l-126 299h-106l-70 -299h-138l172 750h252c69.333 0 122.833 -19.5 160.5 -58.5s56.5 -86.5 56.5 -142.5
c0 -52 -16.5 -99.833 -49.5 -143.5s-78.833 -72.834 -137.5 -87.5z" />
    <glyph glyph-name="S" unicode="S" horiz-adv-x="646" 
d="M386 768c83.333 0 148.5 -20.9971 195.5 -62.9971s72.167 -96.667 75.5 -164h-141c-0.666992 35.333 -13.834 61.666 -39.501 78.999s-57.167 26 -94.5 26c-34.667 0 -63.834 -8.66699 -87.5 -26c-23.667 -17.333 -35.5 -42.333 -35.5 -75c0 -26.667 9 -47.167 27 -61.5
s50.667 -30.833 98 -49.5c65.334 -24.667 109.667 -45.334 133 -62c52.667 -36.667 79 -88.334 79 -155c0 -74 -27.333 -131.833 -82 -173.5s-120.334 -62.5 -197 -62.5c-79.333 0 -146.833 22.667 -202.5 68s-83.5 109.666 -83.5 192.999v13h140
c-1.33301 -10.667 -2 -18.334 -2 -23.001c0 -42 15.5 -74.5 46.5 -97.5s67.833 -34.5 110.5 -34.5c36 0 66.167 8.66699 90.5 26s36.5 42.333 36.5 75c0 27.333 -9.5 48.5 -28.5 63.5s-51.5 31.833 -97.5 50.5c-19.333 8 -33.666 14 -42.999 18s-22.833 10.333 -40.5 19
s-31 16.5 -40 23.5s-19.667 16.333 -32 28s-21.5 23.667 -27.5 36s-11.333 27 -16 44s-7 35.167 -7 54.5c0 69.333 23.833 125 71.5 167s112.167 63 193.5 63z" />
    <glyph glyph-name="T" unicode="T" horiz-adv-x="665" 
d="M339 0h-140l143 620h-232l30 130h604l-30 -130h-232z" />
    <glyph glyph-name="U" unicode="U" horiz-adv-x="740" 
d="M778 750l-110 -483.999c-22 -95.333 -62.667 -166.5 -122 -213.5s-128 -70.5 -206 -70.5c-77.333 0 -140.5 21.833 -189.5 65.5s-73.5 102.5 -73.5 176.5c0 27.333 3.33301 54.333 10 81l103 445h140l-104 -455c-4.66699 -20.667 -7 -40.334 -7 -59.001
c0 -40.667 11.833 -71 35.5 -91s56.5 -30 98.5 -30c95.333 0 155.333 53.667 180 161l107 474h138z" />
    <glyph glyph-name="V" unicode="V" horiz-adv-x="681" 
d="M381 0h-132l-130 750h143l84 -538l270 538h154z" />
    <glyph glyph-name="W" unicode="W" horiz-adv-x="981" 
d="M732 0h-125l-60 491l-234 -491h-125l-64 750h139l35 -486l227 486h124l59 -488l202 488h150z" />
    <glyph glyph-name="X" unicode="X" horiz-adv-x="751" 
d="M660 0h-153l-109 263l-241 -263h-186l365 393l-154 357h158l99 -253l226 253h175l-339 -378z" />
    <glyph glyph-name="Y" unicode="Y" horiz-adv-x="674" 
d="M414 287l-65 -287h-140l67 297l-157 453h146l104 -318l237 318h167z" />
    <glyph glyph-name="Z" unicode="Z" horiz-adv-x="677" 
d="M32 117l460 503h-362l30 130h552l-27 -116l-463 -503h391l-30 -131h-577z" />
    <glyph glyph-name="bracketleft" unicode="[" horiz-adv-x="332" 
d="M405 773h-107l-198 -865h107l-17 -70h-211l232 1005h211z" />
    <glyph glyph-name="backslash" unicode="\" horiz-adv-x="468" 
d="M260 830l118 -922h-97l-118 922h97z" />
    <glyph glyph-name="bracketright" unicode="]" horiz-adv-x="332" 
d="M-53 -92h107l198 865h-107l17 70h211l-232 -1005h-211z" />
    <glyph glyph-name="asciicircum" unicode="^" horiz-adv-x="510" 
d="M85 467l227 283h105l97 -283h-99l-64 188l-149 -188h-117z" />
    <glyph glyph-name="underscore" unicode="_" 
d="M493 -21l-28 -118h-500l28 118h500z" />
    <glyph glyph-name="grave" unicode="`" horiz-adv-x="214" 
d="M208 650l-81 173l115 41l58 -214h-92z" />
    <glyph glyph-name="a" unicode="a" horiz-adv-x="564" 
d="M364 245l3.99902 15.999c-17.333 -7.33398 -38.333 -12.667 -63 -15.999l-58 -8c-68 -9.33301 -102 -36.333 -102 -81c0 -39.333 23.333 -59 70 -59c74.667 0 124.334 49.333 149.001 148zM326.999 561.999c64.667 0 113.667 -15.002 147 -45.002s50 -68.667 50 -116
c0 -15.333 -2 -31.666 -6 -48.999l-79 -352h-126l18 76c-32.667 -58.667 -83.667 -88 -153 -88c-46.667 0 -85.5 14 -116.5 42s-46.5 67 -46.5 117c0 52 17 92 51 120s79 45.667 135 53l117 15c54 6.66699 81 28.334 81 65.001c0 19.334 -7.5 33.667 -22.5 43
s-33.5 14 -55.5 14c-28 0 -52.5 -7 -73.5 -21s-33.833 -35.667 -38.5 -65h-127c14.667 64 43.167 111.833 85.5 143.5s95.5 47.5 159.5 47.5z" />
    <glyph glyph-name="b" unicode="b" horiz-adv-x="623" 
d="M300 104c48.667 0 87.001 21.001 115.001 63.001s42 91.333 42 148c0 84.667 -33 127 -99 127c-50 0 -90.167 -21.667 -120.5 -65s-45.5 -91.333 -45.5 -144c0 -38.667 9.16699 -69.834 27.5 -93.501s45.166 -35.5 80.499 -35.5zM394.001 562.001
c64.667 0 113.167 -23.166 145.5 -69.499s48.5 -103.5 48.5 -171.5c0 -40.667 -6 -80.334 -18 -119.001s-29 -74.167 -51 -106.5s-51 -58.333 -87 -78s-76 -29.5 -120 -29.5c-46.667 0 -82.5 10.167 -107.5 30.5s-39.5 43.833 -43.5 70.5l-22 -89h-128l176 762h132l-62 -271
c34 47.333 79.667 71 137 71z" />
    <glyph glyph-name="c" unicode="c" horiz-adv-x="565" 
d="M269 111c56.667 0 93.668 31.668 111.001 95.001h133c-11.333 -64.667 -40.833 -117.167 -88.5 -157.5s-103.5 -60.5 -167.5 -60.5c-69.333 0 -122.5 24.5 -159.5 73.5s-55.5 109.167 -55.5 180.5c0 39.334 6.33301 77.667 19 115s30.667 71.5 54 102.5
c23.333 31.001 53.666 55.834 90.999 74.5c37.333 18.667 78.333 28 123 28c61.333 0 111.833 -17 151.5 -51s59.5 -79.333 59.5 -136c0 -6.66797 -0.666992 -17.335 -2 -32h-128c0.666992 3.33301 1 8.33301 1 15c0 25.334 -8.5 45.167 -25.5 59.5s-37.833 21.5 -62.5 21.5
c-45.333 0 -82 -21.167 -110 -63.5s-42 -88.5 -42 -138.5c0 -36.667 8.33301 -66.834 25 -90.501s41 -35.5 73 -35.5z" />
    <glyph glyph-name="d" unicode="d" horiz-adv-x="622" 
d="M266 107c47.333 0 86.333 22.332 117 66.999s46 94 46 148c0 39.334 -9.16699 69.667 -27.5 91s-42.833 32 -73.5 32c-42 0 -78.667 -18.667 -110 -56s-47 -87.666 -47 -150.999c0 -87.333 31.667 -131 95 -131zM487 -0.000976562l-126.001 -0.000976562l21 82
c-33.333 -62.667 -85 -94 -155 -94c-58.667 0 -104.5 23.167 -137.5 69.5s-49.5 103.5 -49.5 171.5c0 39.333 6 78.333 18 117s29 74.334 51 107.001s51.333 59 88 79s77.334 30 122.001 30c76.667 0 125.667 -28 147 -84l66 284h132z" />
    <glyph glyph-name="e" unicode="e" horiz-adv-x="569" 
d="M315 447c-68 0 -112.667 -38 -134 -114h233c0.666992 4.66699 1 11 1 19c0 29.333 -8.5 52.5 -25.5 69.5s-41.833 25.5 -74.5 25.5zM527 236l-363.002 0.00195312c-0.666992 -4 -1 -10 -1 -18c0 -30.667 8.83301 -57.334 26.5 -80.001s45.167 -34 82.5 -34
c55.333 0 91.333 26.333 108 79h130c-19.333 -62.667 -51.833 -110.834 -97.5 -144.501s-96.834 -50.5 -153.5 -50.5c-67.333 0 -120.333 23 -159 69s-58 106.333 -58 181c0 90 26.833 166.5 80.5 229.5s122.834 94.5 207.501 94.5c70.667 0 122.834 -22.167 156.501 -66.5
s50.5 -99.833 50.5 -166.5c0 -33.333 -3.33301 -64.333 -10 -93z" />
    <glyph glyph-name="f" unicode="f" horiz-adv-x="361" 
d="M435 644l-66 0.000976562c-20 0 -34.5 -4.33301 -43.5 -13s-15.833 -23.667 -20.5 -45l-8 -34h105l-28 -120h-105l-100 -432h-132l99 432h-80l28 120h80l18 78c11.333 47.333 31 81.166 59 101.499s65 30.5 111 30.5h111z" />
    <glyph glyph-name="g" unicode="g" horiz-adv-x="616" 
d="M273 135c44 0 81.001 20 111.001 60s45 84.667 45 134c0 34.667 -8.66699 63 -26 85s-43 33 -77 33c-46.667 0 -84.834 -19 -114.501 -57s-44.5 -80.667 -44.5 -128c0 -36 9.16699 -66.167 27.5 -90.5s44.5 -36.5 78.5 -36.5zM614.001 552l-119.999 -524
c-37.333 -164 -128.333 -246 -273 -246c-65.333 0 -118.833 17 -160.5 51s-62.167 85.667 -61.5 155h126c1.33301 -62 34 -93 98 -93c36 0 65.833 11 89.5 33s42.167 57.667 55.5 107l17 64c-28 -54 -76.667 -81 -146 -81c-63.333 0 -112.666 22.167 -147.999 66.5
s-53 98.5 -53 162.5c0 50.667 10.667 99.667 32 147c21.333 47.334 53.666 87.167 96.999 119.5s92.666 48.5 147.999 48.5c42 0 75.667 -8.66699 101 -26c25.333 -17.334 42.333 -40.001 51 -68l19 84h128z" />
    <glyph glyph-name="h" unicode="h" horiz-adv-x="598" 
d="M404 562c52 0 90.999 -15.5 116.999 -46.5s39 -68.833 39 -113.5c0 -18.667 -1.66699 -34.667 -5 -48l-81 -354h-133l80 348c2 10 3 19 3 27c0 21.333 -6.33301 38 -19 50s-31 18 -55 18c-33.333 0 -61.666 -11.833 -84.999 -35.5s-40 -57.5 -50 -101.5l-71 -306h-133
l176 762h133l-65 -281c34 54 83.667 81 149 81z" />
    <glyph glyph-name="i" unicode="i" horiz-adv-x="294" 
d="M18 0l127 552h132l-127 -552h-132zM157 625l34 151h143l-34 -151h-143z" />
    <glyph glyph-name="j" unicode="j" horiz-adv-x="302" 
d="M290 552l-142.001 -615c-12 -52.667 -31.5 -89.667 -58.5 -111s-61.167 -32 -102.5 -32h-98l27 118h46c18.667 0 32.334 4 41.001 12s15 21.333 19 40l136 588h132zM169.999 625l34 151h143l-34 -151h-143z" />
    <glyph glyph-name="k" unicode="k" horiz-adv-x="581" 
d="M358 308l150 -308h-143l-107 222l-76 -64l-36 -158h-132l175 762h132l-94 -409l233 199h183z" />
    <glyph glyph-name="l" unicode="l" horiz-adv-x="273" 
d="M188 762h132l-177 -762h-132z" />
    <glyph glyph-name="m" unicode="m" horiz-adv-x="857" 
d="M670 562c51.333 0 89.833 -13.1689 115.5 -39.502s38.5 -59.833 38.5 -100.5c0 -16 -2 -32 -6 -48l-85 -374h-132l82 358c2 8.66699 3 17.334 3 26.001c0 38.667 -20.667 58 -62 58c-55.333 0 -93 -43.667 -113 -131l-72 -311h-132l82 358c2 8 3 16 3 24
c0 18 -5.16699 32.5 -15.5 43.5s-25.833 16.5 -46.5 16.5c-56.667 0 -94.667 -43.333 -114 -130l-71 -312h-132l126 552h129l-19 -83c9.33301 22.667 26.5 43.834 51.5 63.501s55.167 29.5 90.5 29.5c33.333 0 60.833 -8.83301 82.5 -26.5s34.5 -41.167 38.5 -70.5
c34 64.667 86.667 97 158 97z" />
    <glyph glyph-name="n" unicode="n" horiz-adv-x="599" 
d="M405 562c52 0 90.999 -15.5 116.999 -46.5s39 -68.833 39 -113.5c0 -18.667 -1.66699 -34.667 -5 -48l-81 -354h-133l80 348c2 10 3 19 3 27c0 21.333 -6.33301 38 -19 50s-31 18 -55 18c-33.333 0 -61.666 -11.833 -84.999 -35.5s-40 -57.5 -50 -101.5l-71 -306h-133
l127 552h129l-23 -93c33.334 68.667 86.667 103 160 103z" />
    <glyph glyph-name="o" unicode="o" horiz-adv-x="596" 
d="M428 310c0 84.667 -33.332 127 -99.999 127c-44 0 -81.333 -19.333 -112 -58s-46 -85.667 -46 -141c0 -42.667 9.16699 -74.5 27.5 -95.5s43.166 -31.5 74.499 -31.5c44 0 81 19.167 111 57.5s45 85.5 45 141.5zM334.001 560c66.667 0 121 -21.001 163 -63.001
s63 -101.667 63 -179c0 -93.333 -28 -171.666 -84 -234.999s-126.333 -95 -211 -95c-66 0 -120 21 -162 63s-63 101.667 -63 179c0 93.334 28 171.667 84 235s126 95 210 95z" />
    <glyph glyph-name="p" unicode="p" horiz-adv-x="627" 
d="M307 113c46 0 83.001 20.167 111.001 60.5s42 85.166 42 134.499c0 38 -8.83301 69.833 -26.5 95.5s-43.167 38.5 -76.5 38.5c-40 0 -76.833 -19.167 -110.5 -57.5s-50.5 -88.166 -50.5 -149.499c0 -39.333 10.667 -69.5 32 -90.5s47.666 -31.5 78.999 -31.5z
M391.001 562c65.333 0 115.333 -22.667 150 -68s52 -101.333 52 -168c0 -54 -10.333 -105.5 -31 -154.5s-53.5 -90.5 -98.5 -124.5s-97.833 -51 -158.5 -51c-33.333 0 -63.833 9 -91.5 27s-44.167 41.667 -49.5 71l-69 -300h-132l175 758h130l-17 -69
c36 52.667 82.667 79 140 79z" />
    <glyph glyph-name="q" unicode="q" horiz-adv-x="621" 
d="M270 115c47.334 0 86.167 21.168 116.5 63.501s45.5 89.166 45.5 140.499c0 37.333 -8.83301 67.833 -26.5 91.5s-44.167 35.5 -79.5 35.5c-47.333 0 -84.833 -21 -112.5 -63s-41.5 -89.667 -41.5 -143c0 -38 8 -68.333 24 -91s40.667 -34 74 -34zM443 -205.999h-132
l63 272c-25.333 -46.667 -69 -70 -131 -70c-68 0 -118.833 23.167 -152.5 69.5s-50.5 102.833 -50.5 169.5c0 38 6 76 18 114s29.333 73 52 105s52.167 58 88.5 78s76.5 30 120.5 30c75.334 0 124.667 -29 148 -87l20 77h130z" />
    <glyph glyph-name="r" unicode="r" horiz-adv-x="406" 
d="M421 429h-41.999c-90.667 0 -147.334 -49.333 -170.001 -148l-65 -281h-132l127 552h132l-22 -96c30 68 77.667 102 143 102h59z" />
    <glyph glyph-name="s" unicode="s" horiz-adv-x="516" 
d="M288 562c61.333 0 111.834 -16.3311 151.501 -48.998s59.834 -78 60.501 -136h-130c-1.33301 23.333 -9.33301 41.5 -24 54.5s-35.667 19.5 -63 19.5c-24 0 -43.333 -5 -58 -15s-22 -23.333 -22 -40c0 -12 5 -22.333 15 -31s20.333 -15 31 -19s29.667 -10.667 57 -20
c24 -8 43.5 -15.5 58.5 -22.5s30.833 -16.333 47.5 -28s29.167 -26.334 37.5 -44.001s12.5 -38.167 12.5 -61.5c0 -56 -22.333 -100.333 -67 -133s-97 -49 -157 -49c-60.667 0 -113 17.167 -157 51.5s-66.333 82.166 -67 143.499h133c3.33301 -56 36 -84 98 -84
c56 0 84 18.333 84 55c0 14.667 -5.33301 26 -16 34s-28.334 16.333 -53 25c-2 0.667969 -10.333 3.33496 -25 8c-14.667 4.66699 -24.334 8 -29.001 10s-13.667 5.66699 -27 11c-13.334 5.33301 -22.667 10 -28 14s-13.333 9.5 -24 16.5s-18.334 14.167 -23.001 21.5
c-4.66699 7.33496 -10 15.668 -16 25c-6 9.33301 -10.167 19.833 -12.5 31.5s-3.5 24.167 -3.5 37.5c0 55.334 21 98.167 63 128.5s93 45.5 153 45.5z" />
    <glyph glyph-name="t" unicode="t" horiz-adv-x="395" 
d="M279 432l-55 -239c-3.33301 -13.334 -5 -24.667 -5 -34c0 -26.667 14.333 -40 43 -40h71l-27 -119h-98c-40.667 0 -71.667 12.167 -93 36.5s-32 55.5 -32 93.5c0 16 2 32.333 6 49l58 253h-96l28 120h96l31 131l139 37l-38 -168h115l-28 -120h-115z" />
    <glyph glyph-name="u" unicode="u" horiz-adv-x="590" 
d="M462 0h-126l20 87c-32 -62 -83 -93 -153 -93c-48.667 0 -87 14.167 -115 42.5s-42 65.166 -42 110.499c0 16.667 2 34 6 52l82 353h132l-80 -349c-2 -8 -3 -16.333 -3 -25c0 -19.333 5.66699 -35.166 17 -47.499s29.333 -18.5 54 -18.5c34.667 0 63.167 13.833 85.5 41.5
c22.334 27.667 40.167 69.5 53.5 125.5l64 273h132z" />
    <glyph glyph-name="v" unicode="v" horiz-adv-x="578" 
d="M312 0h-138l-90 552h129l59 -394l219 394h146z" />
    <glyph glyph-name="w" unicode="w" horiz-adv-x="852" 
d="M605 0h-118l-39 326l-174 -326h-119l-66 552h134l34 -335l174 335h122l34 -335l174 335h140z" />
    <glyph glyph-name="x" unicode="x" horiz-adv-x="640" 
d="M556 0h-146l-96 177l-169 -177h-174l277 285l-146 267h152l88 -172l160 172h169l-267 -274z" />
    <glyph glyph-name="y" unicode="y" horiz-adv-x="568" 
d="M627 552l-370.001 -640c-34 -58.667 -83.333 -88 -148 -88h-110l26 118h57c20.667 0 36.834 3.33301 48.501 10s22.834 19.667 33.5 39l31 55l-116 506h133l74 -351l195 351h146z" />
    <glyph glyph-name="z" unicode="z" horiz-adv-x="538" 
d="M471 116l-27 -116h-450l25 110l333 326h-265l27 116h435l-25 -110l-326 -326h273z" />
    <glyph glyph-name="braceleft" unicode="{" horiz-adv-x="375" 
d="M476 798h-33c-31.333 0 -53.833 -4 -67.5 -12s-23.167 -24 -28.5 -48l-64 -280c-8.66699 -38.667 -25.5 -68.834 -50.5 -90.5c-25 -21.668 -53.167 -34.835 -84.5 -39.5c21.333 -6 39.5 -18 54.5 -36s22.5 -40 22.5 -66c0 -9.33301 -1 -19 -3 -29l-60 -259
c-3.33301 -12.667 -5 -25 -5 -37c0 -16.667 5 -27.334 15 -32.001s27.333 -7 52 -7h37l-17 -68h-89c-29.333 0 -53.5 8.33301 -72.5 25s-28.5 42 -28.5 76c0 16.667 2.33301 34 7 52l54 233c4.66699 22 7 37.667 7 47c0 20 -6.66699 34.833 -20 44.5s-38 18.834 -74 27.501
l16 70c47.333 8 80.5 19.667 99.5 35s33.5 44.333 43.5 87l61 265c6 24 14.333 43.833 25 59.5s23.5 27 38.5 34s28.833 11.5 41.5 13.5s28 3 46 3h93z" />
    <glyph glyph-name="bar" unicode="|" horiz-adv-x="231" 
d="M76 -120h-89l229 990h89z" />
    <glyph glyph-name="braceright" unicode="}" horiz-adv-x="375" 
d="M-84 -139l33 -0.00292969c31.333 0 53.833 4 67.5 12s23.167 24 28.5 48l64 280c8.66699 38.667 25.5 68.834 50.5 90.501s53.167 34.834 84.5 39.501c-21.333 6 -39.5 18 -54.5 36s-22.5 40 -22.5 66c0 9.33301 1 19 3 29l60 259c3.33301 12.667 5 25 5 37
c0 16.6729 -5 27.3398 -15 32.001c-10 4.66699 -27.333 7 -52 7h-37l17 68h89c29.333 0 53.5 -8.33301 72.5 -25s28.5 -42 28.5 -76c0 -16.667 -2.33301 -34 -7 -52l-54 -233c-4.66699 -22 -7 -37.667 -7 -47c0 -20 6.66699 -34.833 20 -44.5
c13.333 -9.66797 38 -18.835 74 -27.5l-16 -70c-47.333 -8 -80.5 -19.667 -99.5 -35s-33.5 -44.333 -43.5 -87l-61 -265c-6 -24 -14.333 -43.833 -25 -59.5s-23.5 -27 -38.5 -34s-28.833 -11.5 -41.5 -13.5s-28 -3 -46 -3h-93z" />
    <glyph glyph-name="asciitilde" unicode="~" horiz-adv-x="517" 
d="M425 445l74 -0.000976562c0 -55.333 -11 -98.166 -33 -128.499s-51.333 -45.5 -88 -45.5c-28.667 0 -63.334 12.667 -104 38c-40.667 25.333 -68.667 38 -84 38c-16.667 0 -30.167 -6.5 -40.5 -19.5s-16.833 -28.833 -19.5 -47.5h-74c2.66699 48 16 86.667 40 116
s52.667 44 86 44c26 0 60.167 -12.667 102.5 -38c42.334 -25.333 72.167 -38 89.5 -38c34 0 51 27 51 81z" />
    <glyph glyph-name="exclamdown" unicode="&#xa1;" horiz-adv-x="291" 
d="M174 94l-76 -328h-142l76 328l64 200h106zM126 516h150l-36 -154h-150z" />
    <glyph glyph-name="cent" unicode="&#xa2;" horiz-adv-x="660" 
d="M362 456h-4c-45.333 0 -82.833 -17.333 -112.5 -52s-44.5 -85 -44.5 -151c0 -68.667 19.667 -114.667 59 -138zM572 343l-106 -0.00195312c0 1.33301 0.166992 3.33301 0.5 6s0.5 4.66699 0.5 6c0 42.667 -19.333 72.667 -58 90l-104 -346
c4.66699 -0.666992 11.667 -1 21 -1c34 0 61.333 10 82 30s32.667 46 36 78h108c-7.33398 -65.333 -33.167 -118 -77.499 -158c-44.333 -40 -97.833 -60 -160.5 -60c-14.668 0 -28.335 1 -41.001 3l-38 -127h-50l42 140c-43.333 18.667 -76.333 49.834 -99 93.501
s-34 93.5 -34 149.5c0 52.667 9.5 102.334 28.5 149.001s49.667 86 92 118s92.5 48 150.5 48c12.667 0 22 -0.333008 28 -1l22 72h50l-24 -82c40.667 -12 73 -33.5 97 -64.5s36 -69.167 36 -114.5c0 -6 -0.666992 -15.667 -2 -29z" />
    <glyph glyph-name="sterling" unicode="&#xa3;" horiz-adv-x="660" 
d="M112 71c28.667 0 51.665 16.334 68.998 49.001c-20 30.667 -43 46 -69 46c-13.333 0 -24.666 -4.33301 -33.999 -13s-14 -20.334 -14 -35.001s4.33301 -26.167 13 -34.5s20.334 -12.5 35.001 -12.5zM663.998 579.001h-114.999c0.666992 3.33301 1 7.66602 1 12.999
c0 28.667 -16.333 43 -49 43c-37.333 0 -61 -21.667 -71 -65l-29 -120h149l-11 -50h-150l-12 -49c-27.333 -111.333 -51.666 -185.666 -72.999 -222.999c32 -22 62 -33 90 -33c57.334 0 91.667 38.667 103 116h125c-12 -75.333 -38 -131.333 -78 -168s-87.667 -55 -143 -55
c-59.333 0 -113 23.333 -161 70c-20 -22 -39.667 -39.167 -59 -51.5s-43 -18.5 -71 -18.5c-38 0 -68 12 -90 36s-33 53.333 -33 88c0 36 11.667 66.833 35 92.5s53.666 38.5 90.999 38.5c35.333 0 67.666 -14 96.999 -42c4.66699 12.667 9 26.167 13 40.5s8.5 31 13.5 50
l12.5 47.5l14 61h-99l11 50h100l28 120c14 60.668 39 105.835 75 135.5c36 29.667 79.667 44.5 131 44.5c53.333 0 93 -14 119 -42s39 -61 39 -99c0 -11.333 -1 -21.333 -3 -30z" />
    <glyph glyph-name="Euro" unicode="&#x20ac;" horiz-adv-x="660" 
d="M683 496l-123.997 0.00195312c2 12 3 23.333 3 34c0 36 -10.833 63.833 -32.5 83.5s-51.167 29.5 -88.5 29.5c-46 0 -86.333 -15.5 -121 -46.5s-60.334 -73.167 -77 -126.5h252l-11 -45h-254c-6 -29.333 -9.66699 -64 -11 -104h241l-10 -45h-230
c8.66699 -119.333 58 -179 148 -179c43.333 0 76.5 13.167 99.5 39.5s38.167 65.166 45.5 116.499h127c-12.667 -88 -44.334 -154.167 -95.001 -198.5s-111.334 -66.5 -182 -66.5c-30.667 0 -60.167 4.83301 -88.5 14.5s-55.5 25 -81.5 46s-47.5 51 -64.5 90
s-27.167 84.833 -30.5 137.5h-81l10 45h70c0 31.333 3.33301 66 10 104h-56l11 45h55c22.667 83.333 62.167 150.833 118.5 202.5s126.166 77.5 209.499 77.5c71.333 0 129.166 -19.167 173.499 -57.5c44.333 -38.335 66.5 -91.168 66.5 -158.5
c0 -16.667 -0.666992 -29.334 -2 -38.001z" />
    <glyph glyph-name="yen" unicode="&#xa5;" horiz-adv-x="660" 
d="M406 351h157l-11 -45h-156l-22 -95h156l-10 -45h-156l-38 -166h-122l38 166h-151l10 45h151l21 95h-150l11 45h150l7 33l-127 366h120l85 -266l205 266h135l-295 -366z" />
    <glyph glyph-name="Scaron" unicode="&#x160;" horiz-adv-x="646" 
d="M386 768c83.333 0 148.5 -20.9971 195.5 -62.9971s72.167 -96.667 75.5 -164h-141c-0.666992 35.333 -13.834 61.666 -39.501 78.999s-57.167 26 -94.5 26c-34.667 0 -63.834 -8.66699 -87.5 -26c-23.667 -17.333 -35.5 -42.333 -35.5 -75c0 -26.667 9 -47.167 27 -61.5
s50.667 -30.833 98 -49.5c65.334 -24.667 109.667 -45.334 133 -62c52.667 -36.667 79 -88.334 79 -155c0 -74 -27.333 -131.833 -82 -173.5s-120.334 -62.5 -197 -62.5c-79.333 0 -146.833 22.667 -202.5 68s-83.5 109.666 -83.5 192.999v13h140
c-1.33301 -10.667 -2 -18.334 -2 -23.001c0 -42 15.5 -74.5 46.5 -97.5s67.833 -34.5 110.5 -34.5c36 0 66.167 8.66699 90.5 26s36.5 42.333 36.5 75c0 27.333 -9.5 48.5 -28.5 63.5s-51.5 31.833 -97.5 50.5c-19.333 8 -33.666 14 -42.999 18s-22.833 10.333 -40.5 19
s-31 16.5 -40 23.5s-19.667 16.333 -32 28s-21.5 23.667 -27.5 36s-11.333 27 -16 44s-7 35.167 -7 54.5c0 69.333 23.833 125 71.5 167s112.167 63 193.5 63zM668 1028l-200 -196h-71l-110 196h106l54 -92l95 92h126z" />
    <glyph glyph-name="section" unicode="&#xa7;" horiz-adv-x="547" 
d="M308 307c32 0 56.167 5.83203 72.5 17.499s24.5 26.5 24.5 44.5c0 24.667 -13.667 42.334 -41 53.001s-55.333 16 -84 16c-28 0 -50 -5.66699 -66 -17s-24 -26 -24 -44c0 -22.667 11.667 -40 35 -52s51 -18 83 -18zM342 529.999
c21.333 -4.66699 39.499 -9.00098 54.499 -13.001s30.833 -9.66699 47.5 -17s30 -15.333 40 -24c10 -8.66797 18.333 -19.835 25 -33.5c6.66699 -13.667 10 -29.167 10 -46.5c0 -31.333 -9.33301 -59.333 -28 -84s-42.667 -42 -72 -52c32.667 -23.333 49 -58.333 49 -105
c0 -55.333 -18.167 -98.833 -54.5 -130.5s-86.166 -47.5 -149.499 -47.5s-117.333 16.167 -162 48.5s-69 80.5 -73 144.5h131c0 -20.667 8.83301 -40.5 26.5 -59.5s43.167 -28.5 76.5 -28.5c26 0 47.833 6 65.5 18s26.5 28.333 26.5 49c0 12.667 -4.66699 23.334 -14 32
c-9.33301 8.66699 -18.333 14.334 -27 17.001s-25 7 -49 13c-6.66797 2 -11.668 3.33301 -15 4c-26 6 -47.167 12 -63.5 18s-33.833 14.333 -52.5 25s-32.667 24.667 -42 42s-14 38 -14 62c0 35.333 9.83301 63.5 29.5 84.5s45.167 34.5 76.5 40.5
c-38 24.667 -57 61 -57 109c0 50 19 90.167 57 120.5s85.333 45.5 142 45.5s106 -15 148 -45s65.333 -73.333 70 -130h-123c0.666992 24 -9 42 -29 54s-43.667 18 -71 18c-23.333 0 -43 -4.83301 -59 -14.5s-24 -25.5 -24 -47.5c0 -20.667 7.5 -35 22.5 -43
s42.167 -16 81.5 -24z" />
    <glyph glyph-name="scaron" unicode="&#x161;" horiz-adv-x="516" 
d="M288 562c61.333 0 111.834 -16.3311 151.501 -48.998s59.834 -78 60.501 -136h-130c-1.33301 23.333 -9.33301 41.5 -24 54.5s-35.667 19.5 -63 19.5c-24 0 -43.333 -5 -58 -15s-22 -23.333 -22 -40c0 -12 5 -22.333 15 -31s20.333 -15 31 -19s29.667 -10.667 57 -20
c24 -8 43.5 -15.5 58.5 -22.5s30.833 -16.333 47.5 -28s29.167 -26.334 37.5 -44.001s12.5 -38.167 12.5 -61.5c0 -56 -22.333 -100.333 -67 -133s-97 -49 -157 -49c-60.667 0 -113 17.167 -157 51.5s-66.333 82.166 -67 143.499h133c3.33301 -56 36 -84 98 -84
c56 0 84 18.333 84 55c0 14.667 -5.33301 26 -16 34s-28.334 16.333 -53 25c-2 0.667969 -10.333 3.33496 -25 8c-14.667 4.66699 -24.334 8 -29.001 10s-13.667 5.66699 -27 11c-13.334 5.33301 -22.667 10 -28 14s-13.333 9.5 -24 16.5s-18.334 14.167 -23.001 21.5
c-4.66699 7.33496 -10 15.668 -16 25c-6 9.33301 -10.167 19.833 -12.5 31.5s-3.5 24.167 -3.5 37.5c0 55.334 21 98.167 63 128.5s93 45.5 153 45.5zM571.001 846.002l-200 -196h-71l-110 196h106l54 -92l95 92h126z" />
    <glyph glyph-name="copyright" unicode="&#xa9;" horiz-adv-x="882" 
d="M469 228c27.334 0 50.835 8.16895 70.501 24.502c19.667 16.333 30.167 38.5 31.5 66.5h94c0 -54.667 -18.5 -97.334 -55.5 -128.001s-83.833 -46 -140.5 -46c-63.333 0 -115.5 19.667 -156.5 59s-61.5 98.333 -61.5 177c0 78 21 135.833 63 173.499
c42 37.667 94 56.5 156 56.5c55.333 0 101.166 -15 137.499 -45s54.5 -70.667 54.5 -122h-95c-2.66699 26 -13 46.5 -31 61.5s-40 22.5 -66 22.5c-33.333 0 -61.833 -12 -85.5 -36s-35.5 -61 -35.5 -111c0 -52 11.5 -90.5 34.5 -115.5s51.5 -37.5 85.5 -37.5z
M469.001 33.002c94.667 0 174 32.001 238 96.001s96 146 96 246s-32 182 -96 246s-143.333 96 -238 96s-174.167 -32 -238.5 -96s-96.5 -146 -96.5 -246c0 -100.667 32.167 -182.834 96.5 -246.501s143.833 -95.5 238.5 -95.5zM469.001 762.003
c109.333 0 200.667 -36.333 274 -109s110 -165.334 110 -278.001s-36.667 -205.334 -110 -278.001c-73.334 -72.667 -164.667 -109 -274 -109s-200.833 36.333 -274.5 109s-110.5 165.334 -110.5 278.001s36.833 205.334 110.5 278.001s165.167 109 274.5 109z" />
    <glyph glyph-name="ordfeminine" unicode="&#xaa;" horiz-adv-x="413" 
d="M218 414c28 0 54.5 10 79.5 30s41.167 48.333 48.5 85c-9.33301 -3.34961 -21 -5.68262 -35 -7l-59 -6c-28.667 -2.66699 -50 -8 -64 -16s-21 -21.667 -21 -41c0 -30 17 -45 51 -45zM306 750c47.333 0 83 -10.332 107 -30.999s36 -48.667 36 -84
c0 -13.3359 -1.33301 -25.6689 -4 -37l-57 -258h-90l12 50c-28 -38 -64.667 -57 -110 -57c-30.667 0 -57.5 10.5 -80.5 31.5s-34.5 50.5 -34.5 88.5c0 38.001 12 67.834 36 89.5c24 21.6709 56 34.8379 96 39.5l103 12c15.333 1.33301 26.5 4.66602 33.5 9.99902
s10.5 14.333 10.5 27c0 30 -21 45 -63 45c-45.333 0 -72 -18.333 -80 -55h-89c18.667 86 76.667 129 174 129z" />
    <glyph glyph-name="guillemotleft" unicode="&#xab;" horiz-adv-x="582" 
d="M526 143l-87 -61l-147 227l239 215l64 -79l-170 -149zM276 143l-87 -61l-147 227l239 215l64 -79l-170 -149z" />
    <glyph glyph-name="logicalnot" unicode="&#xac;" horiz-adv-x="521" 
d="M349 112l32 140h-338l18 79h420l-51 -219h-81z" />
    <glyph glyph-name="registered" unicode="&#xae;" horiz-adv-x="573" 
d="M309 536h50.999c14.667 0 25.834 4 33.501 12s11.5 17.333 11.5 28c0 10.6709 -3.66699 19.8379 -11 27.5c-7.33301 7.66699 -18 11.5 -32 11.5h-53v-79zM447.999 577c0 -35.333 -16.333 -60 -49 -74l56 -88h-50l-52 80h-44v-80h-44v242h95c27.333 0 48.833 -8 64.5 -24
s23.5 -34.667 23.5 -56zM346.999 331c55.334 0 101.666 18.667 138.999 56s56 85.333 56 144c0 58 -18.667 105.833 -56 143.5s-83.666 56.5 -138.999 56.5s-101.833 -18.833 -139.5 -56.5s-56.5 -85.5 -56.5 -143.5c0 -58.667 18.833 -106.667 56.5 -144
s84.167 -56 139.5 -56zM346.998 762c65.333 0 119.833 -21.667 163.5 -65c43.667 -43.335 65.5 -98.668 65.5 -166c0 -67.333 -21.833 -122.666 -65.5 -165.999s-98.167 -65 -163.5 -65s-120 21.667 -164 65c-44 43.334 -66 98.667 -66 166s22 122.666 66 165.999
s98.667 65 164 65z" />
    <glyph glyph-name="macron" unicode="&#xaf;" horiz-adv-x="320" 
d="M429 750l-23 -100h-320l23 100h320z" />
    <glyph glyph-name="degree" unicode="&#xb0;" horiz-adv-x="483" 
d="M424 632c0 30.667 -9.33398 55.667 -28.001 75s-42.667 29 -72 29s-53.166 -9.66699 -71.499 -29s-27.5 -44.333 -27.5 -75c0 -31.333 9.16699 -56.833 27.5 -76.5c18.334 -19.667 42.167 -29.5 71.5 -29.5s53.333 9.83301 72 29.5s28 45.167 28 76.5zM133.999 631
c0 56 17.833 101.667 53.5 137s80.5 53 134.5 53c56 0 102.167 -17.5 138.5 -52.5s54.5 -80.833 54.5 -137.5c0 -56 -18.167 -101.833 -54.5 -137.5s-82.5 -53.5 -138.5 -53.5c-53.333 0 -98 18 -134 54s-54 81.667 -54 137z" />
    <glyph glyph-name="plusminus" unicode="&#xb1;" horiz-adv-x="520" 
d="M39 192h420l-16 -69h-420zM536 519l-16 -69h-174l-42 -184h-73l42 184h-173l16 69h173l43 186h73l-43 -186h174z" />
    <glyph glyph-name="Zcaron" unicode="&#x17d;" horiz-adv-x="677" 
d="M32 117l460 503h-362l30 130h552l-27 -116l-463 -503h391l-30 -131h-577zM702 1028l-200 -196h-71l-110 196h106l54 -92l95 92h126z" />
    <glyph glyph-name="paragraph" unicode="&#xb6;" horiz-adv-x="656" 
d="M433 418l47 202.999h-131c-36.667 0 -65 -10.333 -85 -31s-30 -45 -30 -73c0 -29.333 9.5 -53.166 28.5 -71.499s46.167 -27.5 81.5 -27.5h89zM493 -140.001h-63l205 890h63zM368 -140.001h-63l99 429h-92c-70 0 -124.167 22.667 -162.5 68
c-38.333 45.334 -57.5 99.667 -57.5 163c0 62 21.667 115.833 65 161.5s103 68.5 179 68.5h237z" />
    <glyph glyph-name="periodcentered" unicode="&#xb7;" horiz-adv-x="236" 
d="M181 294h-116l28 120h116z" />
    <glyph glyph-name="zcaron" unicode="&#x17e;" horiz-adv-x="538" 
d="M471 116l-27 -116h-450l25 110l333 326h-265l27 116h435l-25 -110l-326 -326h273zM592 846l-200 -196h-71l-110 196h106l54 -92l95 92h126z" />
    <glyph glyph-name="ordmasculine" unicode="&#xba;" horiz-adv-x="479" 
d="M400 560c0 32.667 -7.33301 57.1689 -22 73.502s-34.667 24.5 -60 24.5c-33.333 0 -61 -13 -83 -39s-33 -59 -33 -99c0 -32.668 7.5 -57.335 22.5 -74.001c15 -16.667 34.833 -25 59.5 -25c34 0 61.833 13 83.5 39s32.5 59.333 32.5 99.999zM323 750.002
c49.333 0 90.001 -16.333 122.001 -49s48 -77.667 48 -135c0 -68 -20.667 -124.333 -62 -169s-92 -67 -152 -67c-49.333 0 -89.833 16.333 -121.5 49s-47.5 77.667 -47.5 135c0 68 20.667 124.333 62 169s91.666 67 150.999 67z" />
    <glyph glyph-name="guillemotright" unicode="&#xbb;" horiz-adv-x="584" 
d="M320 465l87 61l147 -227l-239 -215l-64 79l170 149zM70 465l87 61l147 -227l-239 -215l-64 79l170 149z" />
    <glyph glyph-name="OE" unicode="&#x152;" horiz-adv-x="1123" 
d="M215 335c0 -68 16.668 -121.667 50.001 -161s79.666 -59 138.999 -59c74 0 135 28.833 183 86.5s72 128.834 72 213.501c0 67.333 -16.333 120.666 -49 159.999s-78.667 59 -138 59c-74 0 -135.333 -28.5 -184 -85.5s-73 -128.167 -73 -213.5zM1153 620h-405
c30.667 -50.667 47.667 -109 51 -175h298l-30 -131h-279c-15.333 -69.333 -44.333 -130.333 -87 -183h358l-30 -131h-512c-39.333 -12.667 -79 -19 -119 -19c-96.667 0 -174.667 32.5 -234 97.5s-89 148.833 -89 251.5c0 78 17 150.333 51 217s82 120.167 144 160.5
s130.667 60.5 206 60.5c40 0 77.667 -6 113 -18h595z" />
    <glyph glyph-name="oe" unicode="&#x153;" horiz-adv-x="969" 
d="M272 111c44 0 81.001 19.167 111.001 57.5s45 85.5 45 141.5c0 84.667 -33.333 127 -100 127c-44 0 -81.333 -19.333 -112 -58s-46 -85.667 -46 -141c0 -42.667 9.16699 -74.5 27.5 -95.5s43.166 -31.5 74.499 -31.5zM715.001 447c-68 0 -112.667 -38 -134 -114h233
c0.666992 4.66699 1 11 1 19c0 29.333 -8.5 52.5 -25.5 69.5s-41.833 25.5 -74.5 25.5zM927.001 236l-362.999 0.00195312c-0.666992 -4 -1 -10 -1 -18c0 -30.667 8.83301 -57.334 26.5 -80.001s45.167 -34 82.5 -34c55.333 0 91.333 26.333 108 79h130
c-19.333 -62.667 -51.833 -110.834 -97.5 -144.501s-96.834 -50.5 -153.501 -50.5c-85.334 0 -144.667 37.333 -178 112c-55.333 -74.667 -127.333 -112 -216 -112c-66 0 -120 21 -162 63s-63 101.667 -63 179c0 93.334 28 171.667 84 235s126 95 210 95
c88 0 150 -35.667 186 -107c52 72.667 122 109 210 109c70.667 0 122.834 -22.167 156.5 -66.5c33.667 -44.333 50.5 -99.833 50.5 -166.5c0 -33.333 -3.33301 -64.333 -10 -93z" />
    <glyph glyph-name="Ydieresis" unicode="&#x178;" horiz-adv-x="674" 
d="M414 287l-65 -287h-140l67 297l-157 453h146l104 -318l237 318h167zM602 832h-117l28 120h116zM394 832h-116l27 120h117z" />
    <glyph glyph-name="questiondown" unicode="&#xbf;" horiz-adv-x="577" 
d="M313 -23l134.999 -0.00488281c-8 -75.333 -37.667 -131.166 -89 -167.499s-114.333 -54.5 -189 -54.5c-72 0 -128.5 16.167 -169.5 48.5s-61.5 75.833 -61.5 130.5c0 22.667 4 43.834 12 63.501s17 35.834 27 48.501s24.167 25.5 42.5 38.5s33.5 22.5 45.5 28.5
s28.333 13.833 49 23.5s34 16.167 40 19.5c28 14.667 47.333 29.334 58 44c10.667 14.667 18 32.334 22 53.001l7 32h127l-14 -56c-14 -55.333 -34 -96.5 -60 -123.5s-62 -51.167 -108 -72.5c-3.33398 -1.33301 -9.66699 -4.16602 -19 -8.49902s-15.833 -7.33301 -19.5 -9
s-9.16699 -4.66699 -16.5 -9s-12.5 -7.66602 -15.5 -9.99902s-7 -5.83301 -12 -10.5s-8.5 -9 -10.5 -13s-3.83301 -8.83301 -5.5 -14.5s-2.5 -11.5 -2.5 -17.5c0 -22.667 8.5 -39.834 25.5 -51.501s39.5 -17.5 67.5 -17.5c70.667 0 115.334 35 134.001 105zM280.999 516.995
h150l-34 -154h-150z" />
    <glyph glyph-name="Agrave" unicode="&#xc0;" horiz-adv-x="778" 
d="M510 297l-50 277l-162 -277h212zM533 166h-311l-97 -166h-159l452 750h139l147 -750h-141zM428 832l-81 173l115 41l58 -214h-92z" />
    <glyph glyph-name="Aacute" unicode="&#xc1;" horiz-adv-x="778" 
d="M510 297l-50 277l-162 -277h212zM533 166h-311l-97 -166h-159l452 750h139l147 -750h-141zM550 832h-120l192 210l79 -88z" />
    <glyph glyph-name="Acircumflex" unicode="&#xc2;" horiz-adv-x="778" 
d="M510 297l-50 277l-162 -277h212zM533 166h-311l-97 -166h-159l452 750h139l147 -750h-141zM426 832h-126l203 196h71l110 -196h-106l-54 92z" />
    <glyph glyph-name="Atilde" unicode="&#xc3;" horiz-adv-x="778" 
d="M510 297l-50 277l-162 -277h212zM533 166h-311l-97 -166h-159l452 750h139l147 -750h-141zM426 887c-20.667 0 -31.998 -18.333 -33.998 -55h-78c0 49.333 10.333 88.333 31 117s46.667 43 78 43c23.334 0 48.667 -10.333 75.999 -31c27.333 -20.667 45 -31 53 -31
c19.333 0 30.666 19.333 33.999 58h78c-0.666992 -51.335 -11.5 -91.168 -32.5 -119.5c-21 -28.333 -46.5 -42.5 -76.5 -42.5c-17.333 0 -34.5 5 -51.5 15s-32 20.167 -45 30.5s-23.833 15.5 -32.5 15.5z" />
    <glyph glyph-name="Adieresis" unicode="&#xc4;" horiz-adv-x="778" 
d="M510 297l-50 277l-162 -277h212zM533 166h-311l-97 -166h-159l452 750h139l147 -750h-141zM655 832h-117l28 120h116zM447 832h-116l27 120h117z" />
    <glyph glyph-name="Aring" unicode="&#xc5;" horiz-adv-x="778" 
d="M510 297l-50 277l-162 -277h212zM533 166h-311l-97 -166h-159l452 750h139l147 -750h-141zM502 1004c-16 0 -28.667 -4.83301 -38 -14.5s-14 -22.5 -14 -38.5c0 -15.333 4.66699 -28.333 14 -39s22 -16 38 -16s28.833 5.33301 38.5 16s14.5 23.667 14.5 39
c0 16 -4.83301 28.833 -14.5 38.5s-22.5 14.5 -38.5 14.5zM501 827c-35.333 0 -64.5 11.667 -87.5 35s-34.5 53 -34.5 89c0 37.333 11.5 67.5 34.5 90.5s52.167 34.5 87.5 34.5c36.667 0 66.667 -11.5 90 -34.5s35 -53.167 35 -90.5c0 -36 -11.667 -65.667 -35 -89
s-53.333 -35 -90 -35z" />
    <glyph glyph-name="AE" unicode="&#xc6;" horiz-adv-x="1065" 
d="M531 312l71 308h-69l-199 -308h197zM742 620l-41 -175h338l-30 -131h-338l-42 -183h372l-30 -131h-511l42 181h-252l-117 -181h-167l500 750h660l-31 -130h-353z" />
    <glyph glyph-name="Ccedilla" unicode="&#xc7;" horiz-adv-x="805" 
d="M478 637c-78.667 0 -142.002 -30 -190.002 -90s-72 -129 -72 -207c0 -62.667 16.833 -115.834 50.5 -159.501s82.5 -65.5 146.5 -65.5c49.334 0 92.167 13.833 128.5 41.5s60.833 67.5 73.5 119.5h143c-13.333 -89.333 -53 -160.833 -119 -214.5s-144 -80.5 -234 -80.5
c-15.333 0 -26.666 0.333008 -33.999 1l-6 -26c28.667 -1.33301 51.334 -8 68.001 -20s25 -28.333 25 -49c0 -28.667 -11.167 -53.334 -33.5 -74.001s-51.166 -31 -86.499 -31c-50 0 -88.333 13.333 -115 40l46 52c20 -20.667 41.667 -31 65 -31
c14.667 0 26.834 3.66699 36.501 11s14.5 16 14.5 26c0 10.667 -6.5 19.667 -19.5 27s-32.167 11 -57.5 11h-4l26 70c-80.667 16.667 -143.167 57.834 -187.5 123.501s-66.5 140.834 -66.5 225.501c0 53.333 9.16699 105.333 27.5 156s44 96.5 77 137.5s75.5 74 127.5 99
s109.333 37.5 172 37.5c85.333 0 157.333 -22.167 216 -66.5s88 -107.5 88 -189.5v-11h-143c-0.666992 42.667 -15.834 76.167 -45.501 100.5s-68.834 36.5 -117.501 36.5z" />
    <glyph glyph-name="Egrave" unicode="&#xc8;" horiz-adv-x="633" 
d="M694 750l-31 -130h-353l-41 -175h338l-30 -131h-338l-42 -183h372l-30 -131h-511l172 750h494zM434 832l-81 173l115 41l58 -214h-92z" />
    <glyph glyph-name="Eacute" unicode="&#xc9;" horiz-adv-x="633" 
d="M694 750l-31 -130h-353l-41 -175h338l-30 -131h-338l-42 -183h372l-30 -131h-511l172 750h494zM499 832h-120l192 210l79 -88z" />
    <glyph glyph-name="Ecircumflex" unicode="&#xca;" horiz-adv-x="633" 
d="M694 750l-31 -130h-353l-41 -175h338l-30 -131h-338l-42 -183h372l-30 -131h-511l172 750h494zM265 832l203 196h71l110 -196h-106l-54 92l-98 -92h-126z" />
    <glyph glyph-name="Edieresis" unicode="&#xcb;" horiz-adv-x="633" 
d="M694 750l-31 -130h-353l-41 -175h338l-30 -131h-338l-42 -183h372l-30 -131h-511l172 750h494zM606 832h-117l28 120h116zM398 832h-116l27 120h117z" />
    <glyph glyph-name="Igrave" unicode="&#xcc;" horiz-adv-x="293" 
d="M215 750h139l-173 -750h-139zM229 832l-81 173l115 41l58 -214h-92z" />
    <glyph glyph-name="Iacute" unicode="&#xcd;" horiz-adv-x="292" 
d="M214 750h139l-173 -750h-139zM232 832l-81 173l115 41l58 -214h-92z" />
    <glyph glyph-name="Icircumflex" unicode="&#xce;" horiz-adv-x="292" 
d="M214 750h139l-173 -750h-139zM100 832l203 196h71l110 -196h-106l-54 92l-98 -92h-126z" />
    <glyph glyph-name="Idieresis" unicode="&#xcf;" horiz-adv-x="504" 
d="M317 750h139l-173 -750h-139zM547 832h-117l28 120h116zM339 832h-116l27 120h117z" />
    <glyph glyph-name="Eth" unicode="&#xd0;" horiz-adv-x="766" 
d="M206 131h99c62.667 0 118 15.667 166 47s83.5 69.333 106.5 114s34.5 90.667 34.5 138c0 54.667 -16.167 100 -48.5 136c-32.334 36 -78.834 54 -139.5 54h-106l-48 -210h151l-13 -57h-151zM209 750l224.998 -0.000976562c102 0 180.5 -30 235.5 -90
s82.5 -134.333 82.5 -223c0 -41.333 -6.16699 -82.666 -18.5 -123.999c-12.3359 -41.333 -31.1689 -80.833 -56.5 -118.5c-25.335 -37.667 -55.668 -71 -91 -100c-35.333 -29 -78.166 -52 -128.499 -69s-104.166 -25.5 -161.499 -25.5h-260l81 353h-88l13 57h89z" />
    <glyph glyph-name="Ntilde" unicode="&#xd1;" horiz-adv-x="752" 
d="M608 0h-128l-197 515l-117 -515h-138l171 750h141l189 -493l112 493h138zM620 988h78.001c-0.666992 -51.335 -11.5 -91.168 -32.5 -119.5c-21 -28.333 -46.5 -42.5 -76.5 -42.5c-17.333 0 -34.5 5 -51.5 15s-32 20.167 -45 30.5s-23.833 15.5 -32.5 15.5
c-20.667 0 -32 -18.333 -34 -55h-78c0 49.333 10.333 88.333 31 117s46.667 43 78 43c23.334 0 48.667 -10.333 76 -31s45 -31 53 -31c19.333 0 30.666 19.333 33.999 58z" />
    <glyph glyph-name="Ograve" unicode="&#xd2;" horiz-adv-x="820" 
d="M472 634c-74 0 -135.332 -28.5 -183.999 -85.5s-73 -128.167 -73 -213.5c0 -68 16.667 -121.667 50 -161s79.666 -59 138.999 -59c74 0 135 28.833 183 86.5s72 128.834 72 213.501c0 67.333 -16.333 120.666 -49 159.999s-78.667 59 -138 59zM398.001 -19
c-96.667 0 -174.666 32.501 -233.999 97.501s-89 148.833 -89 251.5c0 78 17 150.333 51 217s82 120.167 144 160.5s130.667 60.5 206 60.5c97.333 0 175.666 -32.667 234.999 -98s89 -149 89 -251c0 -77.333 -17.167 -149.333 -51.5 -216s-82.5 -120.334 -144.5 -161.001
s-130.667 -61 -206 -61zM457.002 832.001l-81 173l115 41l58 -214h-92z" />
    <glyph glyph-name="Oacute" unicode="&#xd3;" horiz-adv-x="820" 
d="M472 634c-74 0 -135.332 -28.5 -183.999 -85.5s-73 -128.167 -73 -213.5c0 -68 16.667 -121.667 50 -161s79.666 -59 138.999 -59c74 0 135 28.833 183 86.5s72 128.834 72 213.501c0 67.333 -16.333 120.666 -49 159.999s-78.667 59 -138 59zM398.001 -19
c-96.667 0 -174.666 32.501 -233.999 97.501s-89 148.833 -89 251.5c0 78 17 150.333 51 217s82 120.167 144 160.5s130.667 60.5 206 60.5c97.333 0 175.666 -32.667 234.999 -98s89 -149 89 -251c0 -77.333 -17.167 -149.333 -51.5 -216s-82.5 -120.334 -144.5 -161.001
s-130.667 -61 -206 -61zM467.002 832.001l-81 173l115 41l58 -214h-92z" />
    <glyph glyph-name="Ocircumflex" unicode="&#xd4;" horiz-adv-x="820" 
d="M472 634c-74 0 -135.332 -28.5 -183.999 -85.5s-73 -128.167 -73 -213.5c0 -68 16.667 -121.667 50 -161s79.666 -59 138.999 -59c74 0 135 28.833 183 86.5s72 128.834 72 213.501c0 67.333 -16.333 120.666 -49 159.999s-78.667 59 -138 59zM398.001 -19
c-96.667 0 -174.666 32.501 -233.999 97.501s-89 148.833 -89 251.5c0 78 17 150.333 51 217s82 120.167 144 160.5s130.667 60.5 206 60.5c97.333 0 175.666 -32.667 234.999 -98s89 -149 89 -251c0 -77.333 -17.167 -149.333 -51.5 -216s-82.5 -120.334 -144.5 -161.001
s-130.667 -61 -206 -61zM310.002 832.001l203 196h71l110 -196h-106l-54 92l-98 -92h-126z" />
    <glyph glyph-name="Otilde" unicode="&#xd5;" horiz-adv-x="820" 
d="M472 634c-74 0 -135.332 -28.5 -183.999 -85.5s-73 -128.167 -73 -213.5c0 -68 16.667 -121.667 50 -161s79.666 -59 138.999 -59c74 0 135 28.833 183 86.5s72 128.834 72 213.501c0 67.333 -16.333 120.666 -49 159.999s-78.667 59 -138 59zM398.001 -19
c-96.667 0 -174.666 32.501 -233.999 97.501s-89 148.833 -89 251.5c0 78 17 150.333 51 217s82 120.167 144 160.5s130.667 60.5 206 60.5c97.333 0 175.666 -32.667 234.999 -98s89 -149 89 -251c0 -77.333 -17.167 -149.333 -51.5 -216s-82.5 -120.334 -144.5 -161.001
s-130.667 -61 -206 -61zM623.002 988.001h78.0029c-0.666992 -51.335 -11.334 -91.168 -32.001 -119.5c-20.667 -28.333 -46.334 -42.5 -77.001 -42.5c-17.333 0 -34.5 5 -51.5 15s-32 20.167 -45 30.5s-23.833 15.5 -32.5 15.5c-20.667 0 -32 -18.333 -34 -55h-78
c0 49.333 10.333 88.333 31 117s46.667 43 78 43c23.334 0 48.667 -10.333 76 -31s45 -31 53 -31c19.333 0 30.666 19.333 33.999 58z" />
    <glyph glyph-name="Odieresis" unicode="&#xd6;" horiz-adv-x="820" 
d="M472 634c-74 0 -135.332 -28.5 -183.999 -85.5s-73 -128.167 -73 -213.5c0 -68 16.667 -121.667 50 -161s79.666 -59 138.999 -59c74 0 135 28.833 183 86.5s72 128.834 72 213.501c0 67.333 -16.333 120.666 -49 159.999s-78.667 59 -138 59zM398.001 -19
c-96.667 0 -174.666 32.501 -233.999 97.501s-89 148.833 -89 251.5c0 78 17 150.333 51 217s82 120.167 144 160.5s130.667 60.5 206 60.5c97.333 0 175.666 -32.667 234.999 -98s89 -149 89 -251c0 -77.333 -17.167 -149.333 -51.5 -216s-82.5 -120.334 -144.5 -161.001
s-130.667 -61 -206 -61zM664.002 832.001h-117l28 120h116zM456.002 832.001h-116l27 120h117z" />
    <glyph glyph-name="multiply" unicode="&#xd7;" horiz-adv-x="520" 
d="M312 300l119 -154l-59 -47l-118 154l-189 -154l-44 57l189 154l-113 147l58 47l113 -147l193 157l45 -57z" />
    <glyph glyph-name="Oslash" unicode="&#xd8;" horiz-adv-x="820" 
d="M404 115c74 0 135 28.832 183 86.499s72 128.834 72 213.501c0 53.334 -10.5 98.334 -31.5 135c-21 36.6689 -51.167 61.3359 -90.5 74l-183 -503c16 -4 32.667 -6 50 -6zM215 334.999c0 -95.333 30.667 -160.667 92 -196l180 495h-15c-74 0 -135.333 -28.5 -184 -85.5
s-73 -128.167 -73 -213.5zM618 847.998l-35.001 -95.999c67.333 -22 120.333 -62.667 159 -122s58 -129.666 58 -210.999c0 -77.333 -17.167 -149.333 -51.5 -216s-82.5 -120.334 -144.5 -161.001s-130.667 -61 -206 -61c-31.333 0 -61.666 3.66699 -90.999 11l-32 -88h-53
l38 105c-58 26 -103.333 67.167 -136 123.5s-49 122.166 -49 197.499c0 78 17 150.333 51 217s82 120.167 144 160.5s130.667 60.5 206 60.5c18.667 0 38 -1.66699 58 -5l31 85h53z" />
    <glyph glyph-name="Ugrave" unicode="&#xd9;" horiz-adv-x="740" 
d="M778 750l-110 -483.999c-22 -95.333 -62.667 -166.5 -122 -213.5s-128 -70.5 -206 -70.5c-77.333 0 -140.5 21.833 -189.5 65.5s-73.5 102.5 -73.5 176.5c0 27.333 3.33301 54.333 10 81l103 445h140l-104 -455c-4.66699 -20.667 -7 -40.334 -7 -59.001
c0 -40.667 11.833 -71 35.5 -91s56.5 -30 98.5 -30c95.333 0 155.333 53.667 180 161l107 474h138zM437 832.001l-81 173l115 41l58 -214h-92z" />
    <glyph glyph-name="Uacute" unicode="&#xda;" horiz-adv-x="740" 
d="M778 750l-110 -483.999c-22 -95.333 -62.667 -166.5 -122 -213.5s-128 -70.5 -206 -70.5c-77.333 0 -140.5 21.833 -189.5 65.5s-73.5 102.5 -73.5 176.5c0 27.333 3.33301 54.333 10 81l103 445h140l-104 -455c-4.66699 -20.667 -7 -40.334 -7 -59.001
c0 -40.667 11.833 -71 35.5 -91s56.5 -30 98.5 -30c95.333 0 155.333 53.667 180 161l107 474h138zM527 832.001h-120l192 210l79 -88z" />
    <glyph glyph-name="Ucircumflex" unicode="&#xdb;" horiz-adv-x="740" 
d="M778 750l-110 -483.999c-22 -95.333 -62.667 -166.5 -122 -213.5s-128 -70.5 -206 -70.5c-77.333 0 -140.5 21.833 -189.5 65.5s-73.5 102.5 -73.5 176.5c0 27.333 3.33301 54.333 10 81l103 445h140l-104 -455c-4.66699 -20.667 -7 -40.334 -7 -59.001
c0 -40.667 11.833 -71 35.5 -91s56.5 -30 98.5 -30c95.333 0 155.333 53.667 180 161l107 474h138zM304 832.001l203 196h71l110 -196h-106l-54 92l-98 -92h-126z" />
    <glyph glyph-name="Udieresis" unicode="&#xdc;" horiz-adv-x="740" 
d="M778 750l-110 -483.999c-22 -95.333 -62.667 -166.5 -122 -213.5s-128 -70.5 -206 -70.5c-77.333 0 -140.5 21.833 -189.5 65.5s-73.5 102.5 -73.5 176.5c0 27.333 3.33301 54.333 10 81l103 445h140l-104 -455c-4.66699 -20.667 -7 -40.334 -7 -59.001
c0 -40.667 11.833 -71 35.5 -91s56.5 -30 98.5 -30c95.333 0 155.333 53.667 180 161l107 474h138zM651 832.001h-117l28 120h116zM443 832.001h-116l27 120h117z" />
    <glyph glyph-name="Yacute" unicode="&#xdd;" horiz-adv-x="674" 
d="M414 287l-65 -287h-140l67 297l-157 453h146l104 -318l237 318h167zM466 832h-120l192 210l79 -88z" />
    <glyph glyph-name="Thorn" unicode="&#xde;" horiz-adv-x="641" 
d="M230 277l135 0.000976562c40.667 0 72.667 11.667 96 35s35 50.333 35 81c0 25.334 -7.83301 46.167 -23.5 62.499c-15.667 16.333 -38.167 24.5 -67.5 24.5h-129zM305 610.001h115c69.333 0 122.666 -19.167 159.999 -57.5c37.333 -38.334 56 -85.834 56 -142.5
c0 -69.333 -26.167 -130.5 -78.5 -183.5s-124.166 -79.5 -215.499 -79.5h-143l-34 -147h-138l172 750h138z" />
    <glyph glyph-name="germandbls" unicode="&#xdf;" horiz-adv-x="635" 
d="M470 379c68 -32 102 -84 102 -156c0 -58 -23.667 -109.667 -71 -155s-109 -68 -185 -68h-94l27 116h54c40.667 0 73 9.66699 97 29s36 46 36 80c0 32 -10.667 55.5 -32 70.5s-56 22.5 -104 22.5h-15l28 108c52.667 6 91.667 19.833 117 41.5s38 53.167 38 94.5
c0 24 -8.16699 43.333 -24.5 58s-37.5 22 -63.5 22c-28 0 -52.5 -9 -73.5 -27s-35.833 -45 -44.5 -81l-123 -534h-133l130 558c16 67.333 47.5 118.333 94.5 153s100.167 52 159.5 52c60 0 110.5 -17.333 151.5 -52s61.5 -81.667 61.5 -141c0 -48 -12.667 -89 -38 -123
s-57 -56.667 -95 -68z" />
    <glyph glyph-name="agrave" unicode="&#xe0;" horiz-adv-x="564" 
d="M364 245l3.99902 15.999c-17.333 -7.33398 -38.333 -12.667 -63 -15.999l-58 -8c-68 -9.33301 -102 -36.333 -102 -81c0 -39.333 23.333 -59 70 -59c74.667 0 124.334 49.333 149.001 148zM326.999 561.999c64.667 0 113.667 -15.002 147 -45.002s50 -68.667 50 -116
c0 -15.333 -2 -31.666 -6 -48.999l-79 -352h-126l18 76c-32.667 -58.667 -83.667 -88 -153 -88c-46.667 0 -85.5 14 -116.5 42s-46.5 67 -46.5 117c0 52 17 92 51 120s79 45.667 135 53l117 15c54 6.66699 81 28.334 81 65.001c0 19.334 -7.5 33.667 -22.5 43
s-33.5 14 -55.5 14c-28 0 -52.5 -7 -73.5 -21s-33.833 -35.667 -38.5 -65h-127c14.667 64 43.167 111.833 85.5 143.5s95.5 47.5 159.5 47.5zM323.999 649.997l-81 173l115 41l58 -214h-92z" />
    <glyph glyph-name="aacute" unicode="&#xe1;" horiz-adv-x="564" 
d="M364 245l3.99902 15.999c-17.333 -7.33398 -38.333 -12.667 -63 -15.999l-58 -8c-68 -9.33301 -102 -36.333 -102 -81c0 -39.333 23.333 -59 70 -59c74.667 0 124.334 49.333 149.001 148zM326.999 561.999c64.667 0 113.667 -15.002 147 -45.002s50 -68.667 50 -116
c0 -15.333 -2 -31.666 -6 -48.999l-79 -352h-126l18 76c-32.667 -58.667 -83.667 -88 -153 -88c-46.667 0 -85.5 14 -116.5 42s-46.5 67 -46.5 117c0 52 17 92 51 120s79 45.667 135 53l117 15c54 6.66699 81 28.334 81 65.001c0 19.334 -7.5 33.667 -22.5 43
s-33.5 14 -55.5 14c-28 0 -52.5 -7 -73.5 -21s-33.833 -35.667 -38.5 -65h-127c14.667 64 43.167 111.833 85.5 143.5s95.5 47.5 159.5 47.5zM403.999 649.997h-120l192 210l79 -88z" />
    <glyph glyph-name="acircumflex" unicode="&#xe2;" horiz-adv-x="564" 
d="M364 245l3.99902 15.999c-17.333 -7.33398 -38.333 -12.667 -63 -15.999l-58 -8c-68 -9.33301 -102 -36.333 -102 -81c0 -39.333 23.333 -59 70 -59c74.667 0 124.334 49.333 149.001 148zM326.999 561.999c64.667 0 113.667 -15.002 147 -45.002s50 -68.667 50 -116
c0 -15.333 -2 -31.666 -6 -48.999l-79 -352h-126l18 76c-32.667 -58.667 -83.667 -88 -153 -88c-46.667 0 -85.5 14 -116.5 42s-46.5 67 -46.5 117c0 52 17 92 51 120s79 45.667 135 53l117 15c54 6.66699 81 28.334 81 65.001c0 19.334 -7.5 33.667 -22.5 43
s-33.5 14 -55.5 14c-28 0 -52.5 -7 -73.5 -21s-33.833 -35.667 -38.5 -65h-127c14.667 64 43.167 111.833 85.5 143.5s95.5 47.5 159.5 47.5zM177.999 649.997l203 196h71l110 -196h-106l-54 92l-98 -92h-126z" />
    <glyph glyph-name="atilde" unicode="&#xe3;" horiz-adv-x="564" 
d="M364 245l3.99902 15.999c-17.333 -7.33398 -38.333 -12.667 -63 -15.999l-58 -8c-68 -9.33301 -102 -36.333 -102 -81c0 -39.333 23.333 -59 70 -59c74.667 0 124.334 49.333 149.001 148zM326.999 561.999c64.667 0 113.667 -15.002 147 -45.002s50 -68.667 50 -116
c0 -15.333 -2 -31.666 -6 -48.999l-79 -352h-126l18 76c-32.667 -58.667 -83.667 -88 -153 -88c-46.667 0 -85.5 14 -116.5 42s-46.5 67 -46.5 117c0 52 17 92 51 120s79 45.667 135 53l117 15c54 6.66699 81 28.334 81 65.001c0 19.334 -7.5 33.667 -22.5 43
s-33.5 14 -55.5 14c-28 0 -52.5 -7 -73.5 -21s-33.833 -35.667 -38.5 -65h-127c14.667 64 43.167 111.833 85.5 143.5s95.5 47.5 159.5 47.5zM477.999 805.997h78.001c-0.666992 -51.334 -11.5 -91.167 -32.5 -119.5s-46.5 -42.5 -76.5 -42.5c-17.333 0 -34.5 5 -51.5 15
s-32 20.167 -45 30.5s-23.833 15.5 -32.5 15.5c-20.667 0 -32 -18.333 -34 -55h-78c0 49.333 10.333 88.333 31 117s46.667 43 78 43c23.334 0 48.667 -10.333 76 -31s45 -31 53 -31c19.335 0 30.668 19.333 33.999 58z" />
    <glyph glyph-name="adieresis" unicode="&#xe4;" horiz-adv-x="564" 
d="M364 245l3.99902 15.999c-17.333 -7.33398 -38.333 -12.667 -63 -15.999l-58 -8c-68 -9.33301 -102 -36.333 -102 -81c0 -39.333 23.333 -59 70 -59c74.667 0 124.334 49.333 149.001 148zM326.999 561.999c64.667 0 113.667 -15.002 147 -45.002s50 -68.667 50 -116
c0 -15.333 -2 -31.666 -6 -48.999l-79 -352h-126l18 76c-32.667 -58.667 -83.667 -88 -153 -88c-46.667 0 -85.5 14 -116.5 42s-46.5 67 -46.5 117c0 52 17 92 51 120s79 45.667 135 53l117 15c54 6.66699 81 28.334 81 65.001c0 19.334 -7.5 33.667 -22.5 43
s-33.5 14 -55.5 14c-28 0 -52.5 -7 -73.5 -21s-33.833 -35.667 -38.5 -65h-127c14.667 64 43.167 111.833 85.5 143.5s95.5 47.5 159.5 47.5zM512.999 649.997h-117l28 120h116zM304.999 649.997h-116l27 120h117z" />
    <glyph glyph-name="aring" unicode="&#xe5;" horiz-adv-x="564" 
d="M364 245l3.99902 15.999c-17.333 -7.33398 -38.333 -12.667 -63 -15.999l-58 -8c-68 -9.33301 -102 -36.333 -102 -81c0 -39.333 23.333 -59 70 -59c74.667 0 124.334 49.333 149.001 148zM326.999 561.999c64.667 0 113.667 -15.002 147 -45.002s50 -68.667 50 -116
c0 -15.333 -2 -31.666 -6 -48.999l-79 -352h-126l18 76c-32.667 -58.667 -83.667 -88 -153 -88c-46.667 0 -85.5 14 -116.5 42s-46.5 67 -46.5 117c0 52 17 92 51 120s79 45.667 135 53l117 15c54 6.66699 81 28.334 81 65.001c0 19.334 -7.5 33.667 -22.5 43
s-33.5 14 -55.5 14c-28 0 -52.5 -7 -73.5 -21s-33.833 -35.667 -38.5 -65h-127c14.667 64 43.167 111.833 85.5 143.5s95.5 47.5 159.5 47.5zM439.999 768.997c0 16 -4.83301 28.833 -14.5 38.5s-22.5 14.5 -38.5 14.5s-28.667 -4.83301 -38 -14.5s-14 -22.5 -14 -38.5
c0 -15.333 4.66699 -28.333 14 -39s22 -16 38 -16s28.833 5.33301 38.5 16s14.5 23.667 14.5 39zM263.999 768.997c0 37.333 11.5 67.5 34.5 90.5s52.167 34.5 87.5 34.5c36.667 0 66.667 -11.5 90 -34.5s35 -53.167 35 -90.5c0 -36 -11.667 -65.667 -35 -89
s-53.333 -35 -90 -35c-35.333 0 -64.5 11.667 -87.5 35s-34.5 53 -34.5 89z" />
    <glyph glyph-name="ae" unicode="&#xe6;" horiz-adv-x="905" 
d="M364 245l3.99902 15.999c-17.333 -7.33398 -38.333 -12.667 -63 -15.999l-58 -8c-68 -9.33301 -102 -36.333 -102 -81c0 -39.333 23.333 -59 70 -59c74.667 0 124.334 49.333 149.001 148zM650.999 446.999c-68 0 -112.667 -38 -134 -114h233c0.666992 4.66699 1 11 1 19
c0 29.333 -8.5 52.5 -25.5 69.5s-41.833 25.5 -74.5 25.5zM862.999 235.999h-363c-0.666992 -4 -1 -10 -1 -18c0 -30.667 8.83301 -57.334 26.5 -80.001s45.167 -34 82.5 -34c55.333 0 91.333 26.333 108 79h130c-19.333 -62.667 -51.833 -110.834 -97.5 -144.501
s-96.834 -50.5 -153.501 -50.5c-93.333 0 -156.333 46 -189 138c-25.333 -49.333 -58.5 -84.666 -99.5 -105.999s-83.833 -32 -128.5 -32c-46.667 0 -85.5 14 -116.5 42s-46.5 67 -46.5 117c0 52 17 92 51 120s79 45.667 135 53l117 15c54 6.66699 81 28.334 81 65.001
c0 19.334 -7.5 33.667 -22.5 43s-33.5 14 -55.5 14c-28 0 -52.5 -7 -73.5 -21s-33.833 -35.667 -38.5 -65h-127c14.667 64 43.167 111.833 85.5 143.5s95.5 47.5 159.5 47.5c77.334 0 131.667 -23.667 163 -71c48.667 47.333 107.334 71 176 71
c70.667 0 122.834 -22.167 156.501 -66.5s50.5 -99.833 50.5 -166.5c0 -33.333 -3.33301 -64.333 -10 -93z" />
    <glyph glyph-name="ccedilla" unicode="&#xe7;" horiz-adv-x="565" 
d="M538 343l-128.001 0.00195312c0.666992 3.33301 1 8.33301 1 15c0 25.334 -8.5 45.167 -25.5 59.5s-37.833 21.5 -62.5 21.5c-45.333 0 -82 -21.167 -110 -63.5s-42 -88.5 -42 -138.5c0 -36.667 8.33301 -66.834 25 -90.501s41 -35.5 73 -35.5
c56.667 0 93.667 31.667 111 95h133c-11.333 -64.667 -40.833 -117.167 -88.5 -157.5s-103.5 -60.5 -167.5 -60.5c-10.667 0 -18.667 0.333008 -24 1l-7 -33c28.667 -1.33301 51.334 -8 68.001 -20s25 -28.333 25 -49c0 -28.667 -11.167 -53.334 -33.5 -74.001
s-51.166 -31 -86.499 -31c-50 0 -88.333 13.333 -115 40l46 52c20 -20.667 41.667 -31 65 -31c14.667 0 26.834 3.66699 36.5 11c9.66699 7.33301 14.5 16 14.5 26c0 10.667 -6.33301 19.667 -19 27s-32 11 -58 11h-4l29 78c-49.333 14.667 -87 44.5 -113 89.5
s-39 97.167 -39 156.5c0 39.334 6.33301 77.667 19 115s30.667 71.5 54 102.5c23.333 31.001 53.666 55.834 90.999 74.5c37.333 18.667 78.333 28 123 28c61.333 0 111.833 -17 151.5 -51s59.5 -79.333 59.5 -136c0 -6.66797 -0.666992 -17.335 -2 -32z" />
    <glyph glyph-name="egrave" unicode="&#xe8;" horiz-adv-x="569" 
d="M315 447c-68 0 -112.667 -38 -134 -114h233c0.666992 4.66699 1 11 1 19c0 29.333 -8.5 52.5 -25.5 69.5s-41.833 25.5 -74.5 25.5zM527 236l-363.002 0.00195312c-0.666992 -4 -1 -10 -1 -18c0 -30.667 8.83301 -57.334 26.5 -80.001s45.167 -34 82.5 -34
c55.333 0 91.333 26.333 108 79h130c-19.333 -62.667 -51.833 -110.834 -97.5 -144.501s-96.834 -50.5 -153.5 -50.5c-67.333 0 -120.333 23 -159 69s-58 106.333 -58 181c0 90 26.833 166.5 80.5 229.5s122.834 94.5 207.501 94.5c70.667 0 122.834 -22.167 156.501 -66.5
s50.5 -99.833 50.5 -166.5c0 -33.333 -3.33301 -64.333 -10 -93zM320.998 650.002l-81 173l115 41l58 -214h-92z" />
    <glyph glyph-name="eacute" unicode="&#xe9;" horiz-adv-x="569" 
d="M315 447c-68 0 -112.667 -38 -134 -114h233c0.666992 4.66699 1 11 1 19c0 29.333 -8.5 52.5 -25.5 69.5s-41.833 25.5 -74.5 25.5zM527 236l-363.002 0.00195312c-0.666992 -4 -1 -10 -1 -18c0 -30.667 8.83301 -57.334 26.5 -80.001s45.167 -34 82.5 -34
c55.333 0 91.333 26.333 108 79h130c-19.333 -62.667 -51.833 -110.834 -97.5 -144.501s-96.834 -50.5 -153.5 -50.5c-67.333 0 -120.333 23 -159 69s-58 106.333 -58 181c0 90 26.833 166.5 80.5 229.5s122.834 94.5 207.501 94.5c70.667 0 122.834 -22.167 156.501 -66.5
s50.5 -99.833 50.5 -166.5c0 -33.333 -3.33301 -64.333 -10 -93zM417.998 650.002h-120l192 210l79 -88z" />
    <glyph glyph-name="ecircumflex" unicode="&#xea;" horiz-adv-x="569" 
d="M315 447c-68 0 -112.667 -38 -134 -114h233c0.666992 4.66699 1 11 1 19c0 29.333 -8.5 52.5 -25.5 69.5s-41.833 25.5 -74.5 25.5zM527 236l-363.002 0.00195312c-0.666992 -4 -1 -10 -1 -18c0 -30.667 8.83301 -57.334 26.5 -80.001s45.167 -34 82.5 -34
c55.333 0 91.333 26.333 108 79h130c-19.333 -62.667 -51.833 -110.834 -97.5 -144.501s-96.834 -50.5 -153.5 -50.5c-67.333 0 -120.333 23 -159 69s-58 106.333 -58 181c0 90 26.833 166.5 80.5 229.5s122.834 94.5 207.501 94.5c70.667 0 122.834 -22.167 156.501 -66.5
s50.5 -99.833 50.5 -166.5c0 -33.333 -3.33301 -64.333 -10 -93zM172.998 650.002l203 196h71l110 -196h-106l-54 92l-98 -92h-126z" />
    <glyph glyph-name="edieresis" unicode="&#xeb;" horiz-adv-x="569" 
d="M315 447c-68 0 -112.667 -38 -134 -114h233c0.666992 4.66699 1 11 1 19c0 29.333 -8.5 52.5 -25.5 69.5s-41.833 25.5 -74.5 25.5zM527 236l-363.002 0.00195312c-0.666992 -4 -1 -10 -1 -18c0 -30.667 8.83301 -57.334 26.5 -80.001s45.167 -34 82.5 -34
c55.333 0 91.333 26.333 108 79h130c-19.333 -62.667 -51.833 -110.834 -97.5 -144.501s-96.834 -50.5 -153.5 -50.5c-67.333 0 -120.333 23 -159 69s-58 106.333 -58 181c0 90 26.833 166.5 80.5 229.5s122.834 94.5 207.501 94.5c70.667 0 122.834 -22.167 156.501 -66.5
s50.5 -99.833 50.5 -166.5c0 -33.333 -3.33301 -64.333 -10 -93zM531.998 650.002h-117l28 120h116zM323.998 650.002h-116l27 120h117z" />
    <glyph glyph-name="igrave" unicode="&#xec;" horiz-adv-x="283" 
d="M22 0l127 552h132l-127 -552h-132zM171 650l-81 173l115 41l58 -214h-92z" />
    <glyph glyph-name="iacute" unicode="&#xed;" horiz-adv-x="283" 
d="M22 0l127 552h132l-127 -552h-132zM276 650h-120l192 210l79 -88z" />
    <glyph glyph-name="icircumflex" unicode="&#xee;" horiz-adv-x="283" 
d="M22 0l127 552h132l-127 -552h-132zM46 650l203 196h71l110 -196h-106l-54 92l-98 -92h-126z" />
    <glyph glyph-name="idieresis" unicode="&#xef;" horiz-adv-x="283" 
d="M22 0l127 552h132l-127 -552h-132zM384 650h-117l28 120h116zM176 650h-116l27 120h117z" />
    <glyph glyph-name="eth" unicode="&#xf0;" horiz-adv-x="622" 
d="M300 113c32.667 0 61.167 12.168 85.5 36.501s36.5 56.833 36.5 97.5c0 43.334 -12 76.167 -36 98.5s-53 33.5 -87 33.5c-38.667 0 -71 -12 -97 -36s-39 -58.667 -39 -104c0 -42.667 12.833 -74.334 38.5 -95.001s58.5 -31 98.5 -31zM574 682.001l-40.001 -28.001
c37.333 -54 56 -130.667 56 -230c0 -136 -29.333 -242.667 -88 -320s-132 -116 -220 -116c-70.667 0 -129.5 21.333 -176.5 64s-70.5 100.667 -70.5 174c0 84.667 24.5 150.334 73.5 197.001s107.833 70 176.5 70c38.667 0 74.5 -7.83301 107.5 -23.5
s59.167 -38.167 78.5 -67.5c2 19.333 3 37 3 53c0 58 -10.667 103 -32 135l-69 -48l-34 49l54 38c-14.667 5.33301 -30.667 8 -48 8c-66 0 -106 -30 -120 -90h-134c10.667 63.333 37.834 113 81.501 149s98.5 54 164.5 54c64 0 116.333 -17 157 -51l80 55v-72z" />
    <glyph glyph-name="ntilde" unicode="&#xf1;" horiz-adv-x="599" 
d="M405 562c52 0 90.999 -15.5 116.999 -46.5s39 -68.833 39 -113.5c0 -18.667 -1.66699 -34.667 -5 -48l-81 -354h-133l80 348c2 10 3 19 3 27c0 21.333 -6.33301 38 -19 50s-31 18 -55 18c-33.333 0 -61.666 -11.833 -84.999 -35.5s-40 -57.5 -50 -101.5l-71 -306h-133
l127 552h129l-23 -93c33.334 68.667 86.667 103 160 103zM519.999 806h78.001c-0.666992 -51.334 -11.5 -91.167 -32.5 -119.5s-46.5 -42.5 -76.5 -42.5c-17.333 0 -34.5 5 -51.5 15s-32 20.167 -45 30.5s-23.833 15.5 -32.5 15.5c-20.667 0 -32 -18.333 -34 -55h-78
c0 49.333 10.333 88.333 31 117s46.667 43 78 43c23.334 0 48.667 -10.333 76 -31s45 -31 53 -31c19.333 0 30.666 19.333 33.999 58z" />
    <glyph glyph-name="ograve" unicode="&#xf2;" horiz-adv-x="596" 
d="M428 310c0 84.667 -33.332 127 -99.999 127c-44 0 -81.333 -19.333 -112 -58s-46 -85.667 -46 -141c0 -42.667 9.16699 -74.5 27.5 -95.5s43.166 -31.5 74.499 -31.5c44 0 81 19.167 111 57.5s45 85.5 45 141.5zM334.001 560c66.667 0 121 -21.001 163 -63.001
s63 -101.667 63 -179c0 -93.333 -28 -171.666 -84 -234.999s-126.333 -95 -211 -95c-66 0 -120 21 -162 63s-63 101.667 -63 179c0 93.334 28 171.667 84 235s126 95 210 95zM329.001 649.999l-81 173l115 41l58 -214h-92z" />
    <glyph glyph-name="oacute" unicode="&#xf3;" horiz-adv-x="596" 
d="M428 310c0 84.667 -33.332 127 -99.999 127c-44 0 -81.333 -19.333 -112 -58s-46 -85.667 -46 -141c0 -42.667 9.16699 -74.5 27.5 -95.5s43.166 -31.5 74.499 -31.5c44 0 81 19.167 111 57.5s45 85.5 45 141.5zM334.001 560c66.667 0 121 -21.001 163 -63.001
s63 -101.667 63 -179c0 -93.333 -28 -171.666 -84 -234.999s-126.333 -95 -211 -95c-66 0 -120 21 -162 63s-63 101.667 -63 179c0 93.334 28 171.667 84 235s126 95 210 95zM402.001 649.999h-120l192 210l79 -88z" />
    <glyph glyph-name="ocircumflex" unicode="&#xf4;" horiz-adv-x="596" 
d="M428 310c0 84.667 -33.332 127 -99.999 127c-44 0 -81.333 -19.333 -112 -58s-46 -85.667 -46 -141c0 -42.667 9.16699 -74.5 27.5 -95.5s43.166 -31.5 74.499 -31.5c44 0 81 19.167 111 57.5s45 85.5 45 141.5zM334.001 560c66.667 0 121 -21.001 163 -63.001
s63 -101.667 63 -179c0 -93.333 -28 -171.666 -84 -234.999s-126.333 -95 -211 -95c-66 0 -120 21 -162 63s-63 101.667 -63 179c0 93.334 28 171.667 84 235s126 95 210 95zM175.001 649.999l203 196h71l110 -196h-106l-54 92l-98 -92h-126z" />
    <glyph glyph-name="otilde" unicode="&#xf5;" horiz-adv-x="596" 
d="M428 310c0 84.667 -33.332 127 -99.999 127c-44 0 -81.333 -19.333 -112 -58s-46 -85.667 -46 -141c0 -42.667 9.16699 -74.5 27.5 -95.5s43.166 -31.5 74.499 -31.5c44 0 81 19.167 111 57.5s45 85.5 45 141.5zM334.001 560c66.667 0 121 -21.001 163 -63.001
s63 -101.667 63 -179c0 -93.333 -28 -171.666 -84 -234.999s-126.333 -95 -211 -95c-66 0 -120 21 -162 63s-63 101.667 -63 179c0 93.334 28 171.667 84 235s126 95 210 95zM494.001 805.999h78.0029c-0.666992 -51.334 -11.334 -91.167 -32.001 -119.5
s-46.334 -42.5 -77.001 -42.5c-17.333 0 -34.5 5 -51.5 15s-32 20.167 -45 30.5s-23.833 15.5 -32.5 15.5c-20.667 0 -32 -18.333 -34 -55h-78c0 49.333 10.333 88.333 31 117s46.667 43 78 43c23.334 0 48.667 -10.333 76 -31s45 -31 53 -31
c19.335 0 30.668 19.333 33.999 58z" />
    <glyph glyph-name="odieresis" unicode="&#xf6;" horiz-adv-x="596" 
d="M428 310c0 84.667 -33.332 127 -99.999 127c-44 0 -81.333 -19.333 -112 -58s-46 -85.667 -46 -141c0 -42.667 9.16699 -74.5 27.5 -95.5s43.166 -31.5 74.499 -31.5c44 0 81 19.167 111 57.5s45 85.5 45 141.5zM334.001 560c66.667 0 121 -21.001 163 -63.001
s63 -101.667 63 -179c0 -93.333 -28 -171.666 -84 -234.999s-126.333 -95 -211 -95c-66 0 -120 21 -162 63s-63 101.667 -63 179c0 93.334 28 171.667 84 235s126 95 210 95zM539.001 649.999h-117l28 120h116zM331.001 649.999h-116l27 120h117z" />
    <glyph glyph-name="divide" unicode="&#xf7;" horiz-adv-x="520" 
d="M262 54h-104l25 108h104zM482 321l-14 -59h-420l14 59h420zM347 421h-104l25 108h104z" />
    <glyph glyph-name="oslash" unicode="&#xf8;" horiz-adv-x="596" 
d="M272 111c44 0 81 19.167 111 57.5s45 85.5 45 141.5c0 65.333 -20.333 105.333 -61 120l-115 -317c9.33301 -1.33301 16 -2 20 -2zM170 238c0 -47.333 12 -82 36 -104l110 302c-41.333 -3.33301 -76 -24 -104 -62s-42 -83.333 -42 -136zM437 623l-27 -74.0029
c46 -14 82.5 -40.667 109.5 -80s40.5 -89.666 40.5 -150.999c0 -93.333 -28 -171.666 -84 -234.999s-126.333 -95 -211 -95c-19.333 0 -38 2 -56 6l-33 -90h-53l38 105c-38 17.333 -67.667 44.833 -89 82.5s-32 83.834 -32 138.501c0 93.334 28 171.667 84 235
s126 95 210 95c12 0 21 -0.333008 27 -1l23 64h53z" />
    <glyph glyph-name="ugrave" unicode="&#xf9;" horiz-adv-x="590" 
d="M462 0h-126l20 87c-32 -62 -83 -93 -153 -93c-48.667 0 -87 14.167 -115 42.5s-42 65.166 -42 110.499c0 16.667 2 34 6 52l82 353h132l-80 -349c-2 -8 -3 -16.333 -3 -25c0 -19.333 5.66699 -35.166 17 -47.499s29.333 -18.5 54 -18.5c34.667 0 63.167 13.833 85.5 41.5
c22.334 27.667 40.167 69.5 53.5 125.5l64 273h132zM321 650l-81 173l115 41l58 -214h-92z" />
    <glyph glyph-name="uacute" unicode="&#xfa;" horiz-adv-x="590" 
d="M462 0h-126l20 87c-32 -62 -83 -93 -153 -93c-48.667 0 -87 14.167 -115 42.5s-42 65.166 -42 110.499c0 16.667 2 34 6 52l82 353h132l-80 -349c-2 -8 -3 -16.333 -3 -25c0 -19.333 5.66699 -35.166 17 -47.499s29.333 -18.5 54 -18.5c34.667 0 63.167 13.833 85.5 41.5
c22.334 27.667 40.167 69.5 53.5 125.5l64 273h132zM408 650h-120l192 210l79 -88z" />
    <glyph glyph-name="ucircumflex" unicode="&#xfb;" horiz-adv-x="590" 
d="M462 0h-126l20 87c-32 -62 -83 -93 -153 -93c-48.667 0 -87 14.167 -115 42.5s-42 65.166 -42 110.499c0 16.667 2 34 6 52l82 353h132l-80 -349c-2 -8 -3 -16.333 -3 -25c0 -19.333 5.66699 -35.166 17 -47.499s29.333 -18.5 54 -18.5c34.667 0 63.167 13.833 85.5 41.5
c22.334 27.667 40.167 69.5 53.5 125.5l64 273h132zM192 650l203 196h71l110 -196h-106l-54 92l-98 -92h-126z" />
    <glyph glyph-name="udieresis" unicode="&#xfc;" horiz-adv-x="590" 
d="M462 0h-126l20 87c-32 -62 -83 -93 -153 -93c-48.667 0 -87 14.167 -115 42.5s-42 65.166 -42 110.499c0 16.667 2 34 6 52l82 353h132l-80 -349c-2 -8 -3 -16.333 -3 -25c0 -19.333 5.66699 -35.166 17 -47.499s29.333 -18.5 54 -18.5c34.667 0 63.167 13.833 85.5 41.5
c22.334 27.667 40.167 69.5 53.5 125.5l64 273h132zM537 650h-117l28 120h116zM329 650h-116l27 120h117z" />
    <glyph glyph-name="yacute" unicode="&#xfd;" horiz-adv-x="568" 
d="M627 552l-370.001 -640c-34 -58.667 -83.333 -88 -148 -88h-110l26 118h57c20.667 0 36.834 3.33301 48.501 10s22.834 19.667 33.5 39l31 55l-116 506h133l74 -351l195 351h146zM364.999 650h-120l192 210l79 -88z" />
    <glyph glyph-name="thorn" unicode="&#xfe;" horiz-adv-x="627" 
d="M307 113c46 0 83.001 20.167 111.001 60.5s42 85.166 42 134.499c0 38 -8.83301 69.833 -26.5 95.5s-43.167 38.5 -76.5 38.5c-40 0 -76.833 -19.167 -110.5 -57.5s-50.5 -88.166 -50.5 -149.499c0 -39.333 10.667 -69.5 32 -90.5s47.666 -31.5 78.999 -31.5z
M391.001 562c65.333 0 115.333 -22.667 150 -68s52 -101.333 52 -168c0 -54 -10.333 -105.5 -31 -154.5s-53.5 -90.5 -98.5 -124.5s-97.833 -51 -158.5 -51c-33.333 0 -63.833 9 -91.5 27s-44.167 41.667 -49.5 71l-69 -300h-132l225 968h131l-63 -272
c35.333 48 80.333 72 135 72z" />
    <glyph glyph-name="ydieresis" unicode="&#xff;" horiz-adv-x="568" 
d="M627 552l-370.001 -640c-34 -58.667 -83.333 -88 -148 -88h-110l26 118h57c20.667 0 36.834 3.33301 48.501 10s22.834 19.667 33.5 39l31 55l-116 506h133l74 -351l195 351h146zM516.999 650h-117l28 120h116zM308.999 650h-116l27 120h117z" />
    <glyph glyph-name=".null" horiz-adv-x="20" 
 />
    <glyph glyph-name="nonmarkingreturn" horiz-adv-x="333" 
 />
    <glyph glyph-name="currency" unicode="&#xa4;" horiz-adv-x="660" 
d="M209 290c0 -33.333 10.667 -61 32 -83c21.334 -22 49.667 -33 85 -33c40.667 0 75 12.5 103 37.5s42 58.833 42 101.5c0 32.667 -10.833 60.167 -32.5 82.5s-50.167 33.5 -85.5 33.5c-40.667 0 -74.834 -12.5 -102.5 -37.5c-27.667 -25 -41.5 -58.833 -41.5 -101.5z
M568 322c0 -80.667 -30.999 -144.332 -92.999 -190.999l56 -97l-53 -34l-57 100c-32 -14 -67 -21 -105 -21c-48.667 0 -91.334 14 -128.001 42l-126 -121l-43 41l128 124c-23.333 35.333 -35 73.666 -35 114.999c0 81.334 31.333 145.667 94 193l-58 101l52 33l59 -104
c32 14 67 21 105 21c47.334 0 88.667 -13.333 124 -40l131 126l39 -36l-132 -127c28 -36 42 -77.667 42 -125z" />
    <glyph glyph-name="brokenbar" unicode="&#xa6;" horiz-adv-x="232" 
d="M76 -120h-89l97 417h89zM209 453h-89l96 417h89z" />
    <glyph glyph-name="dieresis" unicode="&#xa8;" horiz-adv-x="325" 
d="M411 650h-117l28 120h116zM203 650h-116l27 120h117z" />
    <glyph glyph-name="acute" unicode="&#xb4;" horiz-adv-x="242" 
d="M206 650h-120l192 210l79 -88z" />
    <glyph glyph-name="cedilla" unicode="&#xb8;" horiz-adv-x="222" 
d="M48 6l-11.0029 -49.999c28.667 -1.33301 51.334 -8 68.001 -20s25 -28.333 25 -49c0 -28.667 -11.167 -53.334 -33.5 -74.001s-51.166 -31 -86.499 -31c-50 0 -88.333 13.333 -115 40l46 52c20 -20.667 41.667 -31 65 -31c14.667 0 26.834 3.66699 36.501 11
s14.5 16 14.5 26c0 10.667 -6.5 19.667 -19.5 27s-32.167 11 -57.5 11h-4l33 88h39z" />
    <glyph glyph-name="onequarter" unicode="&#xbc;" horiz-adv-x="1020" 
d="M828 163l41 174l-151 -174h110zM970 88h-75l-20 -87h-84l20 88h-199l15 65l258 297h94l-66 -288h74zM110 294l16.999 76.001h103l61 265c-30.667 -14.667 -64.667 -23.334 -102 -26.001l19 82c42.667 4.66699 82.334 22.334 119.001 53h70l-86 -374h103l-17 -76h-287z
M317.999 0.000976562h-95l645 750h95z" />
    <glyph glyph-name="onehalf" unicode="&#xbd;" horiz-adv-x="1020" 
d="M973 78l-17.002 -77.001h-322l16 73l117 93c8.66992 7.33301 23.8369 19.333 45.501 36c21.667 16.667 36.167 28 43.5 34s16.833 14.833 28.5 26.5c11.6738 11.667 19.3408 22 23.001 31c3.66699 9 5.5 18.5 5.5 28.5c0 17.333 -6 30.833 -18 40.5
s-27.333 14.5 -46 14.5c-22 0 -41.167 -7.16699 -57.5 -21.5c-16.3389 -14.333 -24.1719 -36.833 -23.499 -67.5h-91c1.33301 56 20.5 97.833 57.5 125.5s78.833 41.5 125.5 41.5c42 0 76.167 -11.333 102.5 -34s39.5 -52.667 39.5 -90c0 -8.66797 -1 -17.335 -3 -26
c-2 -8.66699 -4 -16.5 -6 -23.5s-5.83301 -14.5 -11.5 -22.5s-10.334 -14.833 -14.001 -20.5s-10.167 -12.667 -19.5 -21c-9.34082 -8.33398 -16.1738 -14.667 -20.5 -19c-4.33301 -4.33301 -12.5 -11.166 -24.5 -20.499s-20.5 -15.833 -25.5 -19.5s-14.667 -10.667 -29 -21
s-23.833 -17.5 -28.5 -21.5l-53 -39h206zM90.998 293.999l16.999 76.001h103l61 265c-30.667 -14.667 -64.667 -23.334 -102 -26.001l19 82c42.667 4.66699 82.334 22.334 119.001 53h70l-86 -374h103l-17 -76h-287zM298.997 0h-95l645 750h95z" />
    <glyph glyph-name="threequarters" unicode="&#xbe;" horiz-adv-x="1020" 
d="M777 163l41 174l-151 -174h110zM919 88h-75l-20 -87h-84l20 88h-199l15 65l258 297h94l-66 -288h74zM304 0h-95l645 750h95zM386 520c33.333 -18 49.998 -46.001 49.998 -84.001c0 -42.667 -15.667 -77.834 -47 -105.5c-31.333 -27.667 -70.333 -41.5 -117 -41.5
c-51.333 0 -90.333 13.5 -117 40.5s-40 56.833 -40 89.5c0 4 0.666992 10 2 18h82v-6c0 -19.333 6.33301 -35.5 19 -48.5s30 -19.5 52 -19.5c24.667 0 43.667 6.16699 57 18.5s20 27.833 20 46.5c0 36.667 -23 55 -69 55h-34l18 73h31c28 0 49.333 6.33301 64 19
s22 28.667 22 48c0 14.6719 -5.5 26.3389 -16.5 35.001c-11 8.66699 -26.833 13 -47.5 13c-57.333 0 -88.666 -29.333 -93.999 -88h-85c2.66699 40 14.334 73.167 35.001 99.5s43.5 44.166 68.5 53.499s51.167 14 78.5 14c39.333 0 74 -10.5 104 -31.5s45 -49.5 45 -85.5
c0 -25.3359 -8 -48.6689 -24 -70c-16 -21.335 -35 -35.668 -57 -42.999z" />
    <glyph glyph-name="Amacron" unicode="&#x100;" horiz-adv-x="778" 
d="M510 297l-50 277l-162 -277h212zM533 166h-311l-97 -166h-159l452 750h139l147 -750h-141zM634 832h-320l23 100h320z" />
    <glyph glyph-name="amacron" unicode="&#x101;" horiz-adv-x="564" 
d="M364 245l3.99902 15.999c-17.333 -7.33398 -38.333 -12.667 -63 -15.999l-58 -8c-68 -9.33301 -102 -36.333 -102 -81c0 -39.333 23.333 -59 70 -59c74.667 0 124.334 49.333 149.001 148zM326.999 561.999c64.667 0 113.667 -15.002 147 -45.002s50 -68.667 50 -116
c0 -15.333 -2 -31.666 -6 -48.999l-79 -352h-126l18 76c-32.667 -58.667 -83.667 -88 -153 -88c-46.667 0 -85.5 14 -116.5 42s-46.5 67 -46.5 117c0 52 17 92 51 120s79 45.667 135 53l117 15c54 6.66699 81 28.334 81 65.001c0 19.334 -7.5 33.667 -22.5 43
s-33.5 14 -55.5 14c-28 0 -52.5 -7 -73.5 -21s-33.833 -35.667 -38.5 -65h-127c14.667 64 43.167 111.833 85.5 143.5s95.5 47.5 159.5 47.5zM534.999 749.997l-23 -100h-320l23 100h320z" />
    <glyph glyph-name="Abreve" unicode="&#x102;" horiz-adv-x="778" 
d="M510 297l-50 277l-162 -277h212zM533 166h-311l-97 -166h-159l452 750h139l147 -750h-141zM510 828c-38.667 0 -68.167 9.5 -88.5 28.5s-30.5 42.5 -30.5 70.5s7 55 21 81h81c-8.66699 -20.667 -13 -38.667 -13 -54c0 -28 14 -42 42 -42c20 0 35.167 8.5 45.5 25.5
s15.5 36.167 15.5 57.5v13h87c0.666992 -4 1 -11 1 -21c0 -37.335 -13.5 -73.168 -40.5 -107.5c-27 -34.333 -67.167 -51.5 -120.5 -51.5z" />
    <glyph glyph-name="abreve" unicode="&#x103;" horiz-adv-x="564" 
d="M364 245l3.99902 15.999c-17.333 -7.33398 -38.333 -12.667 -63 -15.999l-58 -8c-68 -9.33301 -102 -36.333 -102 -81c0 -39.333 23.333 -59 70 -59c74.667 0 124.334 49.333 149.001 148zM326.999 561.999c64.667 0 113.667 -15.002 147 -45.002s50 -68.667 50 -116
c0 -15.333 -2 -31.666 -6 -48.999l-79 -352h-126l18 76c-32.667 -58.667 -83.667 -88 -153 -88c-46.667 0 -85.5 14 -116.5 42s-46.5 67 -46.5 117c0 52 17 92 51 120s79 45.667 135 53l117 15c54 6.66699 81 28.334 81 65.001c0 19.334 -7.5 33.667 -22.5 43
s-33.5 14 -55.5 14c-28 0 -52.5 -7 -73.5 -21s-33.833 -35.667 -38.5 -65h-127c14.667 64 43.167 111.833 85.5 143.5s95.5 47.5 159.5 47.5zM458.999 816.997h87c0.666992 -4 1 -11 1 -21c0 -37.335 -13.5 -73.168 -40.5 -107.5c-27 -34.333 -67.167 -51.5 -120.5 -51.5
c-38.667 0 -68.167 9.5 -88.5 28.5s-30.5 42.5 -30.5 70.5s7 55 21 81h81c-8.66699 -20.667 -13 -38.667 -13 -54c0 -28 14 -42 42 -42c20 0 35.167 8.5 45.5 25.5s15.5 36.167 15.5 57.5v13z" />
    <glyph glyph-name="Aogonek" unicode="&#x104;" horiz-adv-x="778" 
d="M510 297l-50 277l-162 -277h212zM577 -59c0 -16 6.83301 -28.501 20.5 -37.501c13.6689 -9 29.8359 -14.5 48.5 -16.5l-14 -63c-34 3.33301 -62.333 14.333 -85 33s-34 41.334 -34 68.001c0 34 16.333 61 49 81l-29 160h-311l-97 -166h-159l452 750h139l147 -750h-94
c-22 -17.333 -33 -37 -33 -59z" />
    <glyph glyph-name="aogonek" unicode="&#x105;" horiz-adv-x="564" 
d="M215 97c74.667 0 124.333 49.332 149 147.999l4 16c-17.333 -7.33398 -38.333 -12.667 -63 -15.999l-58 -8c-68 -9.33301 -102 -36.333 -102 -81c0 -39.333 23.333 -59 70 -59zM326.999 561.999c64.667 0 113.666 -15.0029 146.999 -45.0029s50 -68.667 50 -116
c0 -15.333 -2 -31.666 -6 -48.999l-79 -352h-85c-22 -17.333 -33 -37 -33 -59c0 -16 6.83301 -28.5 20.5 -37.5s29.834 -14.5 48.501 -16.5l-14 -63c-34 3.33301 -62.333 14.333 -85 33s-34 41.334 -34 68.001c0 37.333 19 66 57 86h2l15 65
c-32.667 -58.667 -83.667 -88 -153 -88c-46.667 0 -85.5 14 -116.5 42s-46.5 67 -46.5 117c0 52 17 92 51 120s79 45.667 135 53l117 15c54 6.66699 81 28.334 81 65.001c0 19.334 -7.5 33.667 -22.5 43s-33.5 14 -55.5 14c-28 0 -52.5 -7 -73.5 -21
s-33.833 -35.667 -38.5 -65h-127c14.667 64 43.167 111.833 85.5 143.5s95.5 47.5 159.5 47.5z" />
    <glyph glyph-name="Cacute" unicode="&#x106;" horiz-adv-x="805" 
d="M413 115c49.334 0 92.1689 13.832 128.502 41.499s60.833 67.5 73.5 119.5h143c-13.333 -89.333 -53 -160.833 -119 -214.5s-144 -80.5 -234 -80.5c-70 0 -130.5 17.333 -181.5 52s-88.333 78.334 -112 131.001s-35.5 110.334 -35.5 173.001
c0 53.333 9.16699 105.333 27.5 156s44 96.5 77 137.5s75.5 74 127.5 99s109.333 37.5 172 37.5c85.333 0 157.333 -22.167 216 -66.5s88 -107.5 88 -189.5v-11h-143c-0.666992 42.667 -15.834 76.167 -45.501 100.5s-68.834 36.5 -117.501 36.5
c-78.667 0 -142 -30 -190 -90s-72 -129 -72 -207c0 -62.667 16.833 -115.834 50.5 -159.501s82.5 -65.5 146.5 -65.5zM580.002 831.999h-120l192 210l79 -88z" />
    <glyph glyph-name="cacute" unicode="&#x107;" horiz-adv-x="565" 
d="M269 111c56.667 0 93.668 31.668 111.001 95.001h133c-11.333 -64.667 -40.833 -117.167 -88.5 -157.5s-103.5 -60.5 -167.5 -60.5c-69.333 0 -122.5 24.5 -159.5 73.5s-55.5 109.167 -55.5 180.5c0 39.334 6.33301 77.667 19 115s30.667 71.5 54 102.5
c23.333 31.001 53.666 55.834 90.999 74.5c37.333 18.667 78.333 28 123 28c61.333 0 111.833 -17 151.5 -51s59.5 -79.333 59.5 -136c0 -6.66797 -0.666992 -17.335 -2 -32h-128c0.666992 3.33301 1 8.33301 1 15c0 25.334 -8.5 45.167 -25.5 59.5s-37.833 21.5 -62.5 21.5
c-45.333 0 -82 -21.167 -110 -63.5s-42 -88.5 -42 -138.5c0 -36.667 8.33301 -66.834 25 -90.501s41 -35.5 73 -35.5zM407.001 650.001h-120l192 210l79 -88z" />
    <glyph glyph-name="Ccircumflex" unicode="&#x108;" horiz-adv-x="805" 
d="M413 115c49.334 0 92.1689 13.832 128.502 41.499s60.833 67.5 73.5 119.5h143c-13.333 -89.333 -53 -160.833 -119 -214.5s-144 -80.5 -234 -80.5c-70 0 -130.5 17.333 -181.5 52s-88.333 78.334 -112 131.001s-35.5 110.334 -35.5 173.001
c0 53.333 9.16699 105.333 27.5 156s44 96.5 77 137.5s75.5 74 127.5 99s109.333 37.5 172 37.5c85.333 0 157.333 -22.167 216 -66.5s88 -107.5 88 -189.5v-11h-143c-0.666992 42.667 -15.834 76.167 -45.501 100.5s-68.834 36.5 -117.501 36.5
c-78.667 0 -142 -30 -190 -90s-72 -129 -72 -207c0 -62.667 16.833 -115.834 50.5 -159.501s82.5 -65.5 146.5 -65.5zM345.002 831.999l203 196h71l110 -196h-106l-54 92l-98 -92h-126z" />
    <glyph glyph-name="ccircumflex" unicode="&#x109;" horiz-adv-x="565" 
d="M269 111c56.667 0 93.668 31.668 111.001 95.001h133c-11.333 -64.667 -40.833 -117.167 -88.5 -157.5s-103.5 -60.5 -167.5 -60.5c-69.333 0 -122.5 24.5 -159.5 73.5s-55.5 109.167 -55.5 180.5c0 39.334 6.33301 77.667 19 115s30.667 71.5 54 102.5
c23.333 31.001 53.666 55.834 90.999 74.5c37.333 18.667 78.333 28 123 28c61.333 0 111.833 -17 151.5 -51s59.5 -79.333 59.5 -136c0 -6.66797 -0.666992 -17.335 -2 -32h-128c0.666992 3.33301 1 8.33301 1 15c0 25.334 -8.5 45.167 -25.5 59.5s-37.833 21.5 -62.5 21.5
c-45.333 0 -82 -21.167 -110 -63.5s-42 -88.5 -42 -138.5c0 -36.667 8.33301 -66.834 25 -90.501s41 -35.5 73 -35.5zM179.001 650.001l203 196h71l110 -196h-106l-54 92l-98 -92h-126z" />
    <glyph glyph-name="Cdotaccent" unicode="&#x10a;" horiz-adv-x="805" 
d="M413 115c49.334 0 92.1689 13.832 128.502 41.499s60.833 67.5 73.5 119.5h143c-13.333 -89.333 -53 -160.833 -119 -214.5s-144 -80.5 -234 -80.5c-70 0 -130.5 17.333 -181.5 52s-88.333 78.334 -112 131.001s-35.5 110.334 -35.5 173.001
c0 53.333 9.16699 105.333 27.5 156s44 96.5 77 137.5s75.5 74 127.5 99s109.333 37.5 172 37.5c85.333 0 157.333 -22.167 216 -66.5s88 -107.5 88 -189.5v-11h-143c-0.666992 42.667 -15.834 76.167 -45.501 100.5s-68.834 36.5 -117.501 36.5
c-78.667 0 -142 -30 -190 -90s-72 -129 -72 -207c0 -62.667 16.833 -115.834 50.5 -159.501s82.5 -65.5 146.5 -65.5zM603.002 831.999h-150l36 154h150z" />
    <glyph glyph-name="cdotaccent" unicode="&#x10b;" horiz-adv-x="565" 
d="M269 111c56.667 0 93.668 31.668 111.001 95.001h133c-11.333 -64.667 -40.833 -117.167 -88.5 -157.5s-103.5 -60.5 -167.5 -60.5c-69.333 0 -122.5 24.5 -159.5 73.5s-55.5 109.167 -55.5 180.5c0 39.334 6.33301 77.667 19 115s30.667 71.5 54 102.5
c23.333 31.001 53.666 55.834 90.999 74.5c37.333 18.667 78.333 28 123 28c61.333 0 111.833 -17 151.5 -51s59.5 -79.333 59.5 -136c0 -6.66797 -0.666992 -17.335 -2 -32h-128c0.666992 3.33301 1 8.33301 1 15c0 25.334 -8.5 45.167 -25.5 59.5s-37.833 21.5 -62.5 21.5
c-45.333 0 -82 -21.167 -110 -63.5s-42 -88.5 -42 -138.5c0 -36.667 8.33301 -66.834 25 -90.501s41 -35.5 73 -35.5zM448.001 650.001h-150l36 154h150z" />
    <glyph glyph-name="Ccaron" unicode="&#x10c;" horiz-adv-x="805" 
d="M413 115c49.334 0 92.1689 13.832 128.502 41.499s60.833 67.5 73.5 119.5h143c-13.333 -89.333 -53 -160.833 -119 -214.5s-144 -80.5 -234 -80.5c-70 0 -130.5 17.333 -181.5 52s-88.333 78.334 -112 131.001s-35.5 110.334 -35.5 173.001
c0 53.333 9.16699 105.333 27.5 156s44 96.5 77 137.5s75.5 74 127.5 99s109.333 37.5 172 37.5c85.333 0 157.333 -22.167 216 -66.5s88 -107.5 88 -189.5v-11h-143c-0.666992 42.667 -15.834 76.167 -45.501 100.5s-68.834 36.5 -117.501 36.5
c-78.667 0 -142 -30 -190 -90s-72 -129 -72 -207c0 -62.667 16.833 -115.834 50.5 -159.501s82.5 -65.5 146.5 -65.5zM765.002 1028l-200 -196h-71l-110 196h106l54 -92l95 92h126z" />
    <glyph glyph-name="ccaron" unicode="&#x10d;" horiz-adv-x="565" 
d="M269 111c56.667 0 93.668 31.668 111.001 95.001h133c-11.333 -64.667 -40.833 -117.167 -88.5 -157.5s-103.5 -60.5 -167.5 -60.5c-69.333 0 -122.5 24.5 -159.5 73.5s-55.5 109.167 -55.5 180.5c0 39.334 6.33301 77.667 19 115s30.667 71.5 54 102.5
c23.333 31.001 53.666 55.834 90.999 74.5c37.333 18.667 78.333 28 123 28c61.333 0 111.833 -17 151.5 -51s59.5 -79.333 59.5 -136c0 -6.66797 -0.666992 -17.335 -2 -32h-128c0.666992 3.33301 1 8.33301 1 15c0 25.334 -8.5 45.167 -25.5 59.5s-37.833 21.5 -62.5 21.5
c-45.333 0 -82 -21.167 -110 -63.5s-42 -88.5 -42 -138.5c0 -36.667 8.33301 -66.834 25 -90.501s41 -35.5 73 -35.5zM609.001 846.001l-200 -196h-71l-110 196h106l54 -92l95 92h126z" />
    <glyph glyph-name="Dcaron" unicode="&#x10e;" horiz-adv-x="756" 
d="M196 131h99c62.667 0 118 15.667 166 47s83.5 69.333 106.5 114s34.5 90.667 34.5 138c0 54.667 -16.167 100 -48.5 136c-32.334 36 -78.834 54 -139.5 54h-106zM199 750l224.998 -0.000976562c102 0 180.5 -30 235.5 -90s82.5 -134.333 82.5 -223
c0 -41.333 -6.16699 -82.666 -18.5 -123.999c-12.3359 -41.333 -31.1689 -80.833 -56.5 -118.5c-25.335 -37.667 -55.668 -71 -91 -100c-35.333 -29 -78.166 -52 -128.499 -69s-104.166 -25.5 -161.499 -25.5h-260zM703.998 1028l-200 -196h-71l-110 196h106l54 -92l95 92
h126z" />
    <glyph glyph-name="dcaron" unicode="&#x10f;" horiz-adv-x="865" 
d="M266 107c47.333 0 86.333 22.332 117 66.999s46 94 46 148c0 39.334 -9.16699 69.667 -27.5 91s-42.833 32 -73.5 32c-42 0 -78.667 -18.667 -110 -56s-47 -87.666 -47 -150.999c0 -87.333 31.667 -131 95 -131zM937 761.999l-29.001 -125.999
c-16 -70 -43.5 -120.333 -82.5 -151s-87.833 -48 -146.5 -52l-1 67c40 5.33301 71.333 17.666 94 36.999c22.6699 19.333 38.3369 47.333 47.001 84h-69l34 141h153zM486.999 0l-126.001 -0.000976562l21 82c-33.333 -62.667 -85 -94 -155 -94
c-58.667 0 -104.5 23.167 -137.5 69.5s-49.5 103.5 -49.5 171.5c0 39.333 6 78.333 18 117s29 74.334 51 107.001s51.333 59 88 79s77.334 30 122.001 30c76.667 0 125.667 -28 147 -84l66 284h132z" />
    <glyph glyph-name="Dcroat" unicode="&#x110;" horiz-adv-x="766" 
d="M206 131h99c62.667 0 118 15.667 166 47s83.5 69.333 106.5 114s34.5 90.667 34.5 138c0 54.667 -16.167 100 -48.5 136c-32.334 36 -78.834 54 -139.5 54h-106l-48 -210h151l-13 -57h-151zM209 750l224.998 -0.000976562c102 0 180.5 -30 235.5 -90
s82.5 -134.333 82.5 -223c0 -41.333 -6.16699 -82.666 -18.5 -123.999c-12.3359 -41.333 -31.1689 -80.833 -56.5 -118.5c-25.335 -37.667 -55.668 -71 -91 -100c-35.333 -29 -78.166 -52 -128.499 -69s-104.166 -25.5 -161.499 -25.5h-260l81 353h-88l13 57h89z" />
    <glyph glyph-name="dcroat" unicode="&#x111;" horiz-adv-x="631" 
d="M266 107c47.333 0 86.333 22.332 117 66.999s46 94 46 148c0 39.334 -9.16699 69.667 -27.5 91s-42.833 32 -73.5 32c-42 0 -78.667 -18.667 -110 -56s-47 -87.666 -47 -150.999c0 -87.333 31.667 -131 95 -131zM682 619.999l-51.001 -0.000976562l-144 -620h-126l21 82
c-33.333 -62.667 -85 -94 -155 -94c-58.667 0 -104.5 23.167 -137.5 69.5s-49.5 103.5 -49.5 171.5c0 39.333 6 78.333 18 117s29 74.334 51 107.001s51.333 59 88 79s77.334 30 122.001 30c76.667 0 125.667 -28 147 -84l33 142h-96l13 57h96l20 85h132l-20 -85h51z" />
    <glyph glyph-name="Emacron" unicode="&#x112;" horiz-adv-x="633" 
d="M694 750l-31 -130h-353l-41 -175h338l-30 -131h-338l-42 -183h372l-30 -131h-511l172 750h494zM627 932l-23 -100h-320l23 100h320z" />
    <glyph glyph-name="emacron" unicode="&#x113;" horiz-adv-x="569" 
d="M315 447c-68 0 -112.667 -38 -134 -114h233c0.666992 4.66699 1 11 1 19c0 29.333 -8.5 52.5 -25.5 69.5s-41.833 25.5 -74.5 25.5zM527 236l-363.002 0.00195312c-0.666992 -4 -1 -10 -1 -18c0 -30.667 8.83301 -57.334 26.5 -80.001s45.167 -34 82.5 -34
c55.333 0 91.333 26.333 108 79h130c-19.333 -62.667 -51.833 -110.834 -97.5 -144.501s-96.834 -50.5 -153.5 -50.5c-67.333 0 -120.333 23 -159 69s-58 106.333 -58 181c0 90 26.833 166.5 80.5 229.5s122.834 94.5 207.501 94.5c70.667 0 122.834 -22.167 156.501 -66.5
s50.5 -99.833 50.5 -166.5c0 -33.333 -3.33301 -64.333 -10 -93zM540.998 750.002l-23 -100h-320l23 100h320z" />
    <glyph glyph-name="Ebreve" unicode="&#x114;" horiz-adv-x="633" 
d="M694 750l-31 -130h-353l-41 -175h338l-30 -131h-338l-42 -183h372l-30 -131h-511l172 750h494zM545 1008h87c0.666992 -4 1 -11 1 -21c0 -37.335 -13.5 -73.168 -40.5 -107.5c-27 -34.333 -67.167 -51.5 -120.5 -51.5c-38.667 0 -68.167 9.5 -88.5 28.5
s-30.5 42.5 -30.5 70.5s7 55 21 81h81c-8.66699 -20.667 -13 -38.667 -13 -54c0 -28 14 -42 42 -42c20 0 35.167 8.5 45.5 25.5s15.5 36.167 15.5 57.5v13z" />
    <glyph glyph-name="ebreve" unicode="&#x115;" horiz-adv-x="569" 
d="M315 447c-68 0 -112.667 -38 -134 -114h233c0.666992 4.66699 1 11 1 19c0 29.333 -8.5 52.5 -25.5 69.5s-41.833 25.5 -74.5 25.5zM527 236l-363.002 0.00195312c-0.666992 -4 -1 -10 -1 -18c0 -30.667 8.83301 -57.334 26.5 -80.001s45.167 -34 82.5 -34
c55.333 0 91.333 26.333 108 79h130c-19.333 -62.667 -51.833 -110.834 -97.5 -144.501s-96.834 -50.5 -153.5 -50.5c-67.333 0 -120.333 23 -159 69s-58 106.333 -58 181c0 90 26.833 166.5 80.5 229.5s122.834 94.5 207.501 94.5c70.667 0 122.834 -22.167 156.501 -66.5
s50.5 -99.833 50.5 -166.5c0 -33.333 -3.33301 -64.333 -10 -93zM442.998 817.002h87c0.666992 -4 1 -11 1 -21c0 -37.335 -13.5 -73.168 -40.5 -107.5c-27 -34.333 -67.167 -51.5 -120.5 -51.5c-38.667 0 -68.167 9.5 -88.5 28.5s-30.5 42.5 -30.5 70.5s7 55 21 81h81
c-8.66699 -20.667 -13 -38.667 -13 -54c0 -28 14 -42 42 -42c20 0 35.167 8.5 45.5 25.5s15.5 36.167 15.5 57.5v13z" />
    <glyph glyph-name="Edotaccent" unicode="&#x116;" horiz-adv-x="633" 
d="M694 750l-31 -130h-353l-41 -175h338l-30 -131h-338l-42 -183h372l-30 -131h-511l172 750h494zM553 832h-150l36 154h150z" />
    <glyph glyph-name="edotaccent" unicode="&#x117;" horiz-adv-x="569" 
d="M315 447c-68 0 -112.667 -38 -134 -114h233c0.666992 4.66699 1 11 1 19c0 29.333 -8.5 52.5 -25.5 69.5s-41.833 25.5 -74.5 25.5zM527 236l-363.002 0.00195312c-0.666992 -4 -1 -10 -1 -18c0 -30.667 8.83301 -57.334 26.5 -80.001s45.167 -34 82.5 -34
c55.333 0 91.333 26.333 108 79h130c-19.333 -62.667 -51.833 -110.834 -97.5 -144.501s-96.834 -50.5 -153.5 -50.5c-67.333 0 -120.333 23 -159 69s-58 106.333 -58 181c0 90 26.833 166.5 80.5 229.5s122.834 94.5 207.501 94.5c70.667 0 122.834 -22.167 156.501 -66.5
s50.5 -99.833 50.5 -166.5c0 -33.333 -3.33301 -64.333 -10 -93zM446.998 650.002h-150l36 154h150z" />
    <glyph glyph-name="Eogonek" unicode="&#x118;" horiz-adv-x="633" 
d="M310 620l-41.001 -175.001h338l-30 -131h-338l-42 -183h372l-30 -131h-41c-22 -17.333 -33 -37 -33 -59c0 -16 6.83301 -28.5 20.5 -37.5s29.834 -14.5 48.501 -16.5l-14 -63c-34 3.33301 -62.333 14.333 -85 33s-34 41.334 -34 68.001c0 30 13.333 55 40 75h-413
l172 750h494l-31 -130h-353z" />
    <glyph glyph-name="eogonek" unicode="&#x119;" horiz-adv-x="569" 
d="M315 447c-68 0 -112.667 -38 -134 -114h233c0.666992 4.66699 1 11 1 19c0 29.333 -8.5 52.5 -25.5 69.5s-41.833 25.5 -74.5 25.5zM527 236l-363.001 0.000976562c-0.666992 -4 -1 -10 -1 -18c0 -30.667 8.83301 -57.334 26.5 -80.001s45.167 -34 82.5 -34
c55.333 0 91.333 26.333 108 79h130c-19.333 -62.667 -51.833 -110.834 -97.5 -144.501s-96.834 -50.5 -153.5 -50.5c-10.667 0 -18.334 0.333008 -23.001 1c-14 -14 -21 -30 -21 -48c0 -16 6.83301 -28.5 20.5 -37.5s29.834 -14.5 48.501 -16.5l-14 -63
c-34 3.33301 -62.333 14.333 -85 33s-34 41.334 -34 68.001c0 30 12.667 54.333 38 73c-46.667 14.667 -82.834 43.167 -108.501 85.5s-38.5 93.833 -38.5 154.5c0 90 26.833 166.5 80.5 229.5s122.834 94.5 207.501 94.5c70.667 0 122.834 -22.167 156.501 -66.5
s50.5 -99.833 50.5 -166.5c0 -33.333 -3.33301 -64.333 -10 -93z" />
    <glyph glyph-name="Ecaron" unicode="&#x11a;" horiz-adv-x="633" 
d="M694 750l-31 -130h-353l-41 -175h338l-30 -131h-338l-42 -183h372l-30 -131h-511l172 750h494zM706 1028l-200 -196h-71l-110 196h106l54 -92l95 92h126z" />
    <glyph glyph-name="ecaron" unicode="&#x11b;" horiz-adv-x="569" 
d="M315 447c-68 0 -112.667 -38 -134 -114h233c0.666992 4.66699 1 11 1 19c0 29.333 -8.5 52.5 -25.5 69.5s-41.833 25.5 -74.5 25.5zM527 236l-363.002 0.00195312c-0.666992 -4 -1 -10 -1 -18c0 -30.667 8.83301 -57.334 26.5 -80.001s45.167 -34 82.5 -34
c55.333 0 91.333 26.333 108 79h130c-19.333 -62.667 -51.833 -110.834 -97.5 -144.501s-96.834 -50.5 -153.5 -50.5c-67.333 0 -120.333 23 -159 69s-58 106.333 -58 181c0 90 26.833 166.5 80.5 229.5s122.834 94.5 207.501 94.5c70.667 0 122.834 -22.167 156.501 -66.5
s50.5 -99.833 50.5 -166.5c0 -33.333 -3.33301 -64.333 -10 -93zM611.998 846.002l-200 -196h-71l-110 196h106l54 -92l95 92h126z" />
    <glyph glyph-name="Gcircumflex" unicode="&#x11c;" horiz-adv-x="821" 
d="M484 637c-42.667 0 -81.666 -9.66699 -116.999 -29s-64 -44.333 -86 -75s-38.833 -64.334 -50.5 -101c-11.667 -36.667 -17.5 -73.334 -17.5 -110c0 -60 15.167 -109.833 45.5 -149.5c30.334 -39.667 74.167 -59.5 131.5 -59.5c48.667 0 93.667 14.333 135 43
s70.666 67.334 87.999 116.001h-243l30 130h369l-92 -402h-133l16 70c-47.333 -59.333 -112.666 -89 -195.999 -89c-92.667 0 -164.334 32.5 -215.001 97.5s-76 144.5 -76 238.5c0 43.333 5.5 86.166 16.5 128.499s27.833 83 50.5 122s50.167 73.167 82.5 102.5
s71.333 52.833 117 70.5s94.834 26.5 147.501 26.5c87.333 0 160 -22.333 218 -67s87 -107.667 87 -189v-11h-143c-0.666992 42 -15.834 75.333 -45.501 100s-69.5 37 -119.5 37zM323.001 832l203 196h71l110 -196h-106l-54 92l-98 -92h-126z" />
    <glyph glyph-name="gcircumflex" unicode="&#x11d;" horiz-adv-x="616" 
d="M273 135c44 0 81.001 20 111.001 60s45 84.667 45 134c0 34.667 -8.66699 63 -26 85s-43 33 -77 33c-46.667 0 -84.834 -19 -114.501 -57s-44.5 -80.667 -44.5 -128c0 -36 9.16699 -66.167 27.5 -90.5s44.5 -36.5 78.5 -36.5zM614.001 552l-119.999 -524
c-37.333 -164 -128.333 -246 -273 -246c-65.333 0 -118.833 17 -160.5 51s-62.167 85.667 -61.5 155h126c1.33301 -62 34 -93 98 -93c36 0 65.833 11 89.5 33s42.167 57.667 55.5 107l17 64c-28 -54 -76.667 -81 -146 -81c-63.333 0 -112.666 22.167 -147.999 66.5
s-53 98.5 -53 162.5c0 50.667 10.667 99.667 32 147c21.333 47.334 53.666 87.167 96.999 119.5s92.666 48.5 147.999 48.5c42 0 75.667 -8.66699 101 -26c25.333 -17.334 42.333 -40.001 51 -68l19 84h128zM210.002 650l203 196h71l110 -196h-106l-54 92l-98 -92h-126z" />
    <glyph glyph-name="Gbreve" unicode="&#x11e;" horiz-adv-x="821" 
d="M484 637c-42.667 0 -81.666 -9.66699 -116.999 -29s-64 -44.333 -86 -75s-38.833 -64.334 -50.5 -101c-11.667 -36.667 -17.5 -73.334 -17.5 -110c0 -60 15.167 -109.833 45.5 -149.5c30.334 -39.667 74.167 -59.5 131.5 -59.5c48.667 0 93.667 14.333 135 43
s70.666 67.334 87.999 116.001h-243l30 130h369l-92 -402h-133l16 70c-47.333 -59.333 -112.666 -89 -195.999 -89c-92.667 0 -164.334 32.5 -215.001 97.5s-76 144.5 -76 238.5c0 43.333 5.5 86.166 16.5 128.499s27.833 83 50.5 122s50.167 73.167 82.5 102.5
s71.333 52.833 117 70.5s94.834 26.5 147.501 26.5c87.333 0 160 -22.333 218 -67s87 -107.667 87 -189v-11h-143c-0.666992 42 -15.834 75.333 -45.501 100s-69.5 37 -119.5 37zM630.001 1008h87c0.666992 -4 1 -11 1 -21c0 -37.335 -13.5 -73.168 -40.5 -107.5
c-27 -34.333 -67.167 -51.5 -120.5 -51.5c-38.667 0 -68.167 9.5 -88.5 28.5s-30.5 42.5 -30.5 70.5s7 55 21 81h81c-8.66699 -20.667 -13 -38.667 -13 -54c0 -28 14 -42 42 -42c20 0 35.167 8.5 45.5 25.5s15.5 36.167 15.5 57.5v13z" />
    <glyph glyph-name="gbreve" unicode="&#x11f;" horiz-adv-x="616" 
d="M273 135c44 0 81.001 20 111.001 60s45 84.667 45 134c0 34.667 -8.66699 63 -26 85s-43 33 -77 33c-46.667 0 -84.834 -19 -114.501 -57s-44.5 -80.667 -44.5 -128c0 -36 9.16699 -66.167 27.5 -90.5s44.5 -36.5 78.5 -36.5zM614.001 552l-119.999 -524
c-37.333 -164 -128.333 -246 -273 -246c-65.333 0 -118.833 17 -160.5 51s-62.167 85.667 -61.5 155h126c1.33301 -62 34 -93 98 -93c36 0 65.833 11 89.5 33s42.167 57.667 55.5 107l17 64c-28 -54 -76.667 -81 -146 -81c-63.333 0 -112.666 22.167 -147.999 66.5
s-53 98.5 -53 162.5c0 50.667 10.667 99.667 32 147c21.333 47.334 53.666 87.167 96.999 119.5s92.666 48.5 147.999 48.5c42 0 75.667 -8.66699 101 -26c25.333 -17.334 42.333 -40.001 51 -68l19 84h128zM452.002 817h87c0.666992 -4 1 -11 1 -21
c0 -37.335 -13.5 -73.168 -40.5 -107.5c-27 -34.333 -67.167 -51.5 -120.5 -51.5c-38.667 0 -68.167 9.5 -88.5 28.5s-30.5 42.5 -30.5 70.5s7 55 21 81h81c-8.66699 -20.667 -13 -38.667 -13 -54c0 -28 14 -42 42 -42c20 0 35.167 8.5 45.5 25.5s15.5 36.167 15.5 57.5v13z
" />
    <glyph glyph-name="Gdotaccent" unicode="&#x120;" horiz-adv-x="821" 
d="M484 637c-42.667 0 -81.666 -9.66699 -116.999 -29s-64 -44.333 -86 -75s-38.833 -64.334 -50.5 -101c-11.667 -36.667 -17.5 -73.334 -17.5 -110c0 -60 15.167 -109.833 45.5 -149.5c30.334 -39.667 74.167 -59.5 131.5 -59.5c48.667 0 93.667 14.333 135 43
s70.666 67.334 87.999 116.001h-243l30 130h369l-92 -402h-133l16 70c-47.333 -59.333 -112.666 -89 -195.999 -89c-92.667 0 -164.334 32.5 -215.001 97.5s-76 144.5 -76 238.5c0 43.333 5.5 86.166 16.5 128.499s27.833 83 50.5 122s50.167 73.167 82.5 102.5
s71.333 52.833 117 70.5s94.834 26.5 147.501 26.5c87.333 0 160 -22.333 218 -67s87 -107.667 87 -189v-11h-143c-0.666992 42 -15.834 75.333 -45.501 100s-69.5 37 -119.5 37zM616.001 832h-150l36 154h150z" />
    <glyph glyph-name="gdotaccent" unicode="&#x121;" horiz-adv-x="616" 
d="M273 135c44 0 81.001 20 111.001 60s45 84.667 45 134c0 34.667 -8.66699 63 -26 85s-43 33 -77 33c-46.667 0 -84.834 -19 -114.501 -57s-44.5 -80.667 -44.5 -128c0 -36 9.16699 -66.167 27.5 -90.5s44.5 -36.5 78.5 -36.5zM614.001 552l-119.999 -524
c-37.333 -164 -128.333 -246 -273 -246c-65.333 0 -118.833 17 -160.5 51s-62.167 85.667 -61.5 155h126c1.33301 -62 34 -93 98 -93c36 0 65.833 11 89.5 33s42.167 57.667 55.5 107l17 64c-28 -54 -76.667 -81 -146 -81c-63.333 0 -112.666 22.167 -147.999 66.5
s-53 98.5 -53 162.5c0 50.667 10.667 99.667 32 147c21.333 47.334 53.666 87.167 96.999 119.5s92.666 48.5 147.999 48.5c42 0 75.667 -8.66699 101 -26c25.333 -17.334 42.333 -40.001 51 -68l19 84h128zM455.002 650h-150l36 154h150z" />
    <glyph glyph-name="uni0122" unicode="&#x122;" horiz-adv-x="821" 
d="M429 -70l-29.001 -125.999c-16 -70 -43.5 -120.333 -82.5 -151s-87.833 -48 -146.5 -52l-1 67c40 5.33301 71.333 17.666 94 36.999s38.334 47.333 47.001 84h-69l34 141h153zM483.999 637.001c-42.667 0 -81.666 -9.66699 -116.999 -29s-64 -44.333 -86 -75
s-38.833 -64.334 -50.5 -101c-11.667 -36.667 -17.5 -73.334 -17.5 -110c0 -60 15.167 -109.833 45.5 -149.5c30.334 -39.667 74.167 -59.5 131.5 -59.5c48.667 0 93.667 14.333 135 43s70.666 67.334 87.999 116.001h-243l30 130h369l-92 -402h-133l16 70
c-47.333 -59.333 -112.666 -89 -195.999 -89c-92.667 0 -164.334 32.5 -215.001 97.5s-76 144.5 -76 238.5c0 43.333 5.5 86.166 16.5 128.499s27.833 83 50.5 122s50.167 73.167 82.5 102.5s71.333 52.833 117 70.5s94.834 26.5 147.501 26.5c87.333 0 160 -22.333 218 -67
s87 -107.667 87 -189v-11h-143c-0.666992 42 -15.834 75.333 -45.501 100s-69.5 37 -119.5 37z" />
    <glyph glyph-name="uni0123" unicode="&#x123;" horiz-adv-x="616" 
d="M273 135c44 0 81.001 20 111.001 60s45 84.667 45 134c0 34.667 -8.66699 63 -26 85s-43 33 -77 33c-46.667 0 -84.834 -19 -114.501 -57s-44.5 -80.667 -44.5 -128c0 -36 9.16699 -66.167 27.5 -90.5s44.5 -36.5 78.5 -36.5zM614.001 552l-119.999 -524
c-37.333 -164 -128.333 -246 -273 -246c-65.333 0 -118.833 17 -160.5 51s-62.167 85.667 -61.5 155h126c1.33301 -62 34 -93 98 -93c36 0 65.833 11 89.5 33s42.167 57.667 55.5 107l17 64c-28 -54 -76.667 -81 -146 -81c-63.333 0 -112.666 22.167 -147.999 66.5
s-53 98.5 -53 162.5c0 50.667 10.667 99.667 32 147c21.333 47.334 53.666 87.167 96.999 119.5s92.666 48.5 147.999 48.5c42 0 75.667 -8.66699 101 -26c25.333 -17.334 42.333 -40.001 51 -68l19 84h128zM267.002 626l29 125.999c16 70 43.5 120.333 82.5 151
s87.833 48 146.5 52l1 -67c-40 -5.33984 -71.333 -17.6729 -94 -36.999c-22.667 -19.333 -38.334 -47.333 -47 -84h69l-34 -141h-153z" />
    <glyph glyph-name="Hcircumflex" unicode="&#x124;" horiz-adv-x="754" 
d="M610 0h-139l71 313h-306l-71 -313h-139l173 750h139l-71 -307h306l70 307h140zM304 832l203 196h71l110 -196h-106l-54 92l-98 -92h-126z" />
    <glyph glyph-name="hcircumflex" unicode="&#x125;" horiz-adv-x="598" 
d="M404 562c52 0 90.999 -15.5 116.999 -46.5s39 -68.833 39 -113.5c0 -18.667 -1.66699 -34.667 -5 -48l-81 -354h-133l80 348c2 10 3 19 3 27c0 21.333 -6.33301 38 -19 50s-31 18 -55 18c-33.333 0 -61.666 -11.833 -84.999 -35.5s-40 -57.5 -50 -101.5l-71 -306h-133
l176 762h133l-65 -281c34 54 83.667 81 149 81zM303.999 650l203 196h71l110 -196h-106l-54 92l-98 -92h-126z" />
    <glyph glyph-name="Hbar" unicode="&#x126;" horiz-adv-x="797" 
d="M615 528h-305l-20 -85h306zM840 528h-85l-122 -528h-139l71 313h-306l-71 -313h-139l122 528h-96l11 53h97l39 169h139l-39 -169h305l39 169h140l-39 -169h84z" />
    <glyph glyph-name="hbar" unicode="&#x127;" 
d="M426 562c52 0 90.999 -15.5 116.999 -46.5s39 -68.833 39 -113.5c0 -18.667 -1.66699 -34.667 -5 -48l-81 -354h-133l80 348c2 10 3 19 3 27c0 21.333 -6.33301 38 -19 50s-31 18 -55 18c-33.333 0 -61.666 -11.833 -84.999 -35.5s-40 -57.5 -50 -101.5l-71 -306h-133
l143 620h-65l13 57h65l20 85h133l-20 -85h81l-13 -57h-81l-32 -139c34 54 83.667 81 149 81z" />
    <glyph glyph-name="Itilde" unicode="&#x128;" horiz-adv-x="293" 
d="M215 750h139l-173 -750h-139zM402 988h78c-0.666992 -51.335 -11.5 -91.168 -32.5 -119.5c-21 -28.333 -46.5 -42.5 -76.5 -42.5c-17.333 0 -34.5 5 -51.5 15s-32 20.167 -45 30.5s-23.833 15.5 -32.5 15.5c-20.667 0 -32 -18.333 -34 -55h-78
c0 49.333 10.333 88.333 31 117s46.667 43 78 43c23.334 0 48.667 -10.333 76 -31s45 -31 53 -31c19.334 0 30.667 19.333 34 58z" />
    <glyph glyph-name="itilde" unicode="&#x129;" horiz-adv-x="283" 
d="M22 0l127 552h132l-127 -552h-132zM336 806h78.001c-0.666992 -51.334 -11.5 -91.167 -32.5 -119.5s-46.5 -42.5 -76.5 -42.5c-17.333 0 -34.5 5 -51.5 15s-32 20.167 -45 30.5s-23.833 15.5 -32.5 15.5c-20.667 0 -32 -18.333 -34 -55h-78
c0 49.333 10.333 88.333 31 117s46.667 43 78 43c23.333 0 48.666 -10.333 75.999 -31s45 -31 53 -31c19.334 0 30.667 19.333 34 58z" />
    <glyph glyph-name="Imacron" unicode="&#x12a;" horiz-adv-x="293" 
d="M205 750h139l-173 -750h-139zM456 932l-23 -100h-320l23 100h320z" />
    <glyph glyph-name="imacron" unicode="&#x12b;" horiz-adv-x="283" 
d="M22 0l127 552h132l-127 -552h-132zM408 750l-23 -100h-320l23 100h320z" />
    <glyph glyph-name="Iogonek" unicode="&#x12e;" horiz-adv-x="293" 
d="M181 0l-105.001 -0.000976562c-22 -17.333 -33 -37 -33 -59c0 -16 6.83301 -28.5 20.5 -37.5s29.834 -14.5 48.501 -16.5l-14 -63c-34 3.33301 -62.333 14.333 -85 33s-34 41.334 -34 68.001c0 37.333 19 66 57 86h9l170 739h139z" />
    <glyph glyph-name="iogonek" unicode="&#x12f;" horiz-adv-x="255" 
d="M155 552l131.999 -0.000976562l-127 -552h-86c-22 -17.333 -33 -37 -33 -59c0 -16 6.83301 -28.5 20.5 -37.5s29.834 -14.5 48.501 -16.5l-14 -63c-34 3.33301 -62.333 14.333 -85 33s-34 41.334 -34 68.001c0 34.667 17.667 62.667 53 84zM343.999 775.999l-34 -151
h-143l34 151h143z" />
    <glyph glyph-name="Idotaccent" unicode="&#x130;" horiz-adv-x="337" 
d="M234 750h139l-173 -750h-139zM393 832h-150l36 154h150z" />
    <glyph glyph-name="dotlessi" unicode="&#x131;" horiz-adv-x="294" 
d="M18 0l127 552h132l-127 -552h-132z" />
    <glyph glyph-name="IJ" unicode="&#x132;" horiz-adv-x="869" 
d="M490 276l-15 -59c-3.33301 -14.667 -5 -26.667 -5 -36c0 -44 24 -66 72 -66c28.6689 0 51.3359 9 68 27c16.667 18 29.667 47.333 39 88l120 520h139l-127 -549c-33.334 -146.667 -115.667 -220 -247 -220c-69.333 0 -120.833 17.833 -154.5 53.5
s-50.5 79.167 -50.5 130.5c0 19.333 2.66699 39 8 59l14 52h139zM204 750h139l-173 -750h-139z" />
    <glyph glyph-name="ij" unicode="&#x133;" horiz-adv-x="596" 
d="M584 552l-142.001 -615c-12 -52.667 -31.5 -89.667 -58.5 -111s-61.167 -32 -102.5 -32h-98l27 118h46c18.667 0 32.334 4 41.001 12s15 21.333 19 40l136 588h132zM17.999 0l127 552h132l-127 -552h-132zM463.999 625l34 151h143l-34 -151h-143zM156.999 625l34 151h143
l-34 -151h-143z" />
    <glyph glyph-name="Jcircumflex" unicode="&#x134;" horiz-adv-x="550" 
d="M171 276l-15.002 -59c-3.33301 -14.667 -5 -26.667 -5 -36c0 -44 24 -66 72 -66c28.667 0 51.334 9 68.001 27s29.667 47.333 39 88l120 520h139l-127 -549c-33.333 -146.667 -115.666 -220 -246.999 -220c-69.333 0 -120.833 17.833 -154.5 53.5
s-50.5 79.167 -50.5 130.5c0 19.333 2.66699 39 8 59l14 52h139zM363.998 832l203 196h71l110 -196h-106l-54 92l-98 -92h-126z" />
    <glyph glyph-name="jcircumflex" unicode="&#x135;" horiz-adv-x="280" 
d="M286 552l-142.001 -615c-12 -52.667 -31.5 -89.667 -58.5 -111s-61.167 -32 -102.5 -32h-98l27 118h46c18.667 0 32.334 4 41.001 12s15 21.333 19 40l136 588h132zM64.999 650l203 196h71l110 -196h-106l-54 92l-98 -92h-126z" />
    <glyph glyph-name="uni0136" unicode="&#x136;" horiz-adv-x="701" 
d="M223 -70l153 0.000976562l-29 -126c-16 -70 -43.5 -120.333 -82.5 -151s-87.833 -48 -146.5 -52l-1 67c40 5.33301 71.333 17.666 94 36.999s38.334 47.333 47 84h-69zM429 430.001l208 -430h-157l-162 335l-94 -80l-59 -255h-139l173 750h139l-66 -285l335 285h197z" />
    <glyph glyph-name="uni0137" unicode="&#x137;" horiz-adv-x="581" 
d="M160 -70l153 0.000976562l-29 -126c-16 -70 -43.5 -120.333 -82.5 -151s-87.833 -48 -146.5 -52l-1 67c40 5.33301 71.333 17.666 94 36.999s38.334 47.333 47 84h-69zM358 308.001l150 -308h-143l-107 222l-76 -64l-36 -158h-132l175 762h132l-94 -409l233 199h183z" />
    <glyph glyph-name="kgreenlandic" unicode="&#x138;" horiz-adv-x="581" 
d="M358 308l150 -308h-143l-107 222l-76 -64l-36 -158h-132l127 552h132l-46 -199l233 199h183z" />
    <glyph glyph-name="Lacute" unicode="&#x139;" horiz-adv-x="594" 
d="M200 750h138l-143 -619h345l-30 -131h-483zM344 832h-120l192 210l79 -88z" />
    <glyph glyph-name="lacute" unicode="&#x13a;" horiz-adv-x="384" 
d="M197 762h132l-177 -762h-132zM324 832h-120l192 210l79 -88z" />
    <glyph glyph-name="uni013B" unicode="&#x13b;" horiz-adv-x="594" 
d="M336 -70l-29 -125.999c-16 -70 -43.5 -120.333 -82.5 -151s-87.833 -48 -146.5 -52l-1 67c40 5.33301 71.333 17.666 94 36.999s38.334 47.333 47 84h-69l34 141h153zM200 750.001h138l-143 -619h345l-30 -131h-483z" />
    <glyph glyph-name="uni013C" unicode="&#x13c;" horiz-adv-x="273" 
d="M141 -70l-29.001 -125.999c-16 -70 -43.5 -120.333 -82.5 -151s-87.833 -48 -146.5 -52l-1 67c40 5.33301 71.333 17.666 94 36.999s38.334 47.333 47.001 84h-69l34 141h153zM187.999 762.001h132l-177 -762h-132z" />
    <glyph glyph-name="Lcaron" unicode="&#x13d;" horiz-adv-x="652" 
d="M200 750h138l-143 -619h345l-30 -131h-483zM761 792l-29 -125.999c-16 -70 -43.5 -120.333 -82.5 -151s-87.833 -48 -146.5 -52l-1 67c40 5.33301 71.333 17.666 94 36.999c22.6689 19.333 38.3359 47.333 47 84h-69l34 141h153z" />
    <glyph glyph-name="lcaron" unicode="&#x13e;" horiz-adv-x="513" 
d="M585 762l-29.001 -125.999c-16 -70 -43.5 -120.333 -82.5 -151s-87.833 -48 -146.5 -52l-1 67c40 5.33301 71.333 17.666 94 36.999s38.334 47.333 47.001 84h-69l34 141h153zM187.999 762.001h132l-177 -762h-132z" />
    <glyph glyph-name="Ldot" unicode="&#x13f;" horiz-adv-x="594" 
d="M686 450h-150l36 154h150zM200 750h138l-143 -619h345l-30 -131h-483z" />
    <glyph glyph-name="ldot" unicode="&#x140;" horiz-adv-x="433" 
d="M452 384h-150l36 154h150zM188 762h132l-177 -762h-132z" />
    <glyph glyph-name="Lslash" unicode="&#x141;" horiz-adv-x="705" 
d="M651 131l-30 -131h-483l63 275l-110 -58v62l127 67l93 404h138l-74 -322l135 71v-62l-152 -80l-52 -226h345z" />
    <glyph glyph-name="lslash" unicode="&#x142;" horiz-adv-x="414" 
d="M327 434l48 22v-67l-66 -30l-83 -359h-132l68 292l-76 -34v67l93 42l92 395h132z" />
    <glyph glyph-name="Nacute" unicode="&#x143;" horiz-adv-x="752" 
d="M608 0h-128l-197 515l-117 -515h-138l171 750h141l189 -493l112 493h138zM538 832h-120l192 210l79 -88z" />
    <glyph glyph-name="nacute" unicode="&#x144;" horiz-adv-x="599" 
d="M405 562c52 0 90.999 -15.5 116.999 -46.5s39 -68.833 39 -113.5c0 -18.667 -1.66699 -34.667 -5 -48l-81 -354h-133l80 348c2 10 3 19 3 27c0 21.333 -6.33301 38 -19 50s-31 18 -55 18c-33.333 0 -61.666 -11.833 -84.999 -35.5s-40 -57.5 -50 -101.5l-71 -306h-133
l127 552h129l-23 -93c33.334 68.667 86.667 103 160 103zM483.999 650h-120l192 210l79 -88z" />
    <glyph glyph-name="uni0145" unicode="&#x145;" horiz-adv-x="752" 
d="M385 -70l-29.001 -125.999c-16 -70 -43.5 -120.333 -82.5 -151s-87.833 -48 -146.5 -52l-1 67c40 5.33301 71.333 17.666 94 36.999s38.334 47.333 47.001 84h-69l34 141h153zM607.999 0.000976562h-128l-197 515l-117 -515h-138l171 750h141l189 -493l112 493h138z" />
    <glyph glyph-name="uni0146" unicode="&#x146;" horiz-adv-x="599" 
d="M309 -70l-29 -125.999c-16 -70 -43.5 -120.333 -82.5 -151s-87.833 -48 -146.5 -52l-1 67c40 5.33301 71.333 17.666 94 36.999s38.334 47.333 47 84h-69l34 141h153zM405 562.001c52 0 90.999 -15.5 116.999 -46.5s39 -68.833 39 -113.5
c0 -18.667 -1.66699 -34.667 -5 -48l-81 -354h-133l80 348c2 10 3 19 3 27c0 21.333 -6.33301 38 -19 50s-31 18 -55 18c-33.333 0 -61.666 -11.833 -84.999 -35.5s-40 -57.5 -50 -101.5l-71 -306h-133l127 552h129l-23 -93c33.334 68.667 86.667 103 160 103z" />
    <glyph glyph-name="Ncaron" unicode="&#x147;" horiz-adv-x="752" 
d="M608 0h-128l-197 515l-117 -515h-138l171 750h141l189 -493l112 493h138zM736 1028l-200 -196h-71l-110 196h106l54 -92l95 92h126z" />
    <glyph glyph-name="ncaron" unicode="&#x148;" horiz-adv-x="599" 
d="M405 562c52 0 90.999 -15.5 116.999 -46.5s39 -68.833 39 -113.5c0 -18.667 -1.66699 -34.667 -5 -48l-81 -354h-133l80 348c2 10 3 19 3 27c0 21.333 -6.33301 38 -19 50s-31 18 -55 18c-33.333 0 -61.666 -11.833 -84.999 -35.5s-40 -57.5 -50 -101.5l-71 -306h-133
l127 552h129l-23 -93c33.334 68.667 86.667 103 160 103zM642.999 846l-200 -196h-71l-110 196h106l54 -92l95 92h126z" />
    <glyph glyph-name="napostrophe" unicode="&#x149;" horiz-adv-x="804" 
d="M610 562c52 0 91 -15.5 117 -46.5s39 -68.833 39 -113.5c0 -18.667 -1.66699 -34.667 -5 -48l-81 -354h-133l80 348c2 10 3 19 3 27c0 21.333 -6.33301 38 -19 50s-31 18 -55 18c-33.333 0 -61.666 -11.833 -84.999 -35.5s-40 -57.5 -50 -101.5l-71 -306h-133l127 552
h129l-23 -93c33.333 68.667 86.666 103 159.999 103zM321 762l-29 -125.999c-16 -70 -43.5 -120.333 -82.5 -151s-87.833 -48 -146.5 -52l-1 67c40 5.33301 71.333 17.666 94 36.999s38.334 47.333 47 84h-69l34 141h153z" />
    <glyph glyph-name="Eng" unicode="&#x14a;" horiz-adv-x="751" 
d="M778 750l-186.001 -813c-12 -52.667 -31.5 -89.667 -58.5 -111s-61.167 -32 -102.5 -32h-98l27 118h46c18.667 0 32.334 4 41.001 12s15 21.333 19 40l9 37l-192 514l-117 -515h-138l171 750h141l186 -504l114 504h138z" />
    <glyph glyph-name="eng" unicode="&#x14b;" horiz-adv-x="600" 
d="M405 562c52 0 90.998 -15.5 116.998 -46.5s39 -68.833 39 -113.5c0 -18.667 -1.66699 -34.667 -5 -48l-118 -517c-12 -52.667 -31.5 -89.667 -58.5 -111s-61.167 -32 -102.5 -32h-98l27 118h46c18.667 0 32.334 4 41.001 12s15 21.333 19 40l110 484c2 10 3 19 3 27
c0 21.333 -6.33301 38 -19 50s-31 18 -55 18c-33.333 0 -61.666 -11.833 -84.999 -35.5s-40 -57.5 -50 -101.5l-71 -306h-133l127 552h129l-23 -93c33.334 68.667 86.667 103 160 103z" />
    <glyph glyph-name="Omacron" unicode="&#x14c;" horiz-adv-x="820" 
d="M472 634c-74 0 -135.332 -28.5 -183.999 -85.5s-73 -128.167 -73 -213.5c0 -68 16.667 -121.667 50 -161s79.666 -59 138.999 -59c74 0 135 28.833 183 86.5s72 128.834 72 213.501c0 67.333 -16.333 120.666 -49 159.999s-78.667 59 -138 59zM398.001 -19
c-96.667 0 -174.666 32.501 -233.999 97.501s-89 148.833 -89 251.5c0 78 17 150.333 51 217s82 120.167 144 160.5s130.667 60.5 206 60.5c97.333 0 175.666 -32.667 234.999 -98s89 -149 89 -251c0 -77.333 -17.167 -149.333 -51.5 -216s-82.5 -120.334 -144.5 -161.001
s-130.667 -61 -206 -61zM678.002 932.001l-23 -100h-320l23 100h320z" />
    <glyph glyph-name="omacron" unicode="&#x14d;" horiz-adv-x="596" 
d="M428 310c0 84.667 -33.332 127 -99.999 127c-44 0 -81.333 -19.333 -112 -58s-46 -85.667 -46 -141c0 -42.667 9.16699 -74.5 27.5 -95.5s43.166 -31.5 74.499 -31.5c44 0 81 19.167 111 57.5s45 85.5 45 141.5zM334.001 560c66.667 0 121 -21.001 163 -63.001
s63 -101.667 63 -179c0 -93.333 -28 -171.666 -84 -234.999s-126.333 -95 -211 -95c-66 0 -120 21 -162 63s-63 101.667 -63 179c0 93.334 28 171.667 84 235s126 95 210 95zM542.001 749.999l-23 -100h-320l23 100h320z" />
    <glyph glyph-name="Obreve" unicode="&#x14e;" horiz-adv-x="820" 
d="M472 634c-74 0 -135.332 -28.5 -183.999 -85.5s-73 -128.167 -73 -213.5c0 -68 16.667 -121.667 50 -161s79.666 -59 138.999 -59c74 0 135 28.833 183 86.5s72 128.834 72 213.501c0 67.333 -16.333 120.666 -49 159.999s-78.667 59 -138 59zM398.001 -19
c-96.667 0 -174.666 32.501 -233.999 97.501s-89 148.833 -89 251.5c0 78 17 150.333 51 217s82 120.167 144 160.5s130.667 60.5 206 60.5c97.333 0 175.666 -32.667 234.999 -98s89 -149 89 -251c0 -77.333 -17.167 -149.333 -51.5 -216s-82.5 -120.334 -144.5 -161.001
s-130.667 -61 -206 -61zM585.002 1008l87 -0.000976562c0.666992 -4 1 -11 1 -21c0 -37.335 -13.5 -73.168 -40.5 -107.499c-27 -34.333 -67.167 -51.5 -120.5 -51.5c-38.667 0 -68.167 9.5 -88.5 28.5s-30.5 42.5 -30.5 70.5s7 55 21 81h81
c-8.66699 -20.667 -13 -38.667 -13 -54c0 -28 14 -42 42 -42c20 0 35.167 8.5 45.5 25.5s15.5 36.167 15.5 57.5v13z" />
    <glyph glyph-name="obreve" unicode="&#x14f;" horiz-adv-x="596" 
d="M428 310c0 84.667 -33.332 127 -99.999 127c-44 0 -81.333 -19.333 -112 -58s-46 -85.667 -46 -141c0 -42.667 9.16699 -74.5 27.5 -95.5s43.166 -31.5 74.499 -31.5c44 0 81 19.167 111 57.5s45 85.5 45 141.5zM334.001 560c66.667 0 121 -21.001 163 -63.001
s63 -101.667 63 -179c0 -93.333 -28 -171.666 -84 -234.999s-126.333 -95 -211 -95c-66 0 -120 21 -162 63s-63 101.667 -63 179c0 93.334 28 171.667 84 235s126 95 210 95zM450.001 816.999h87c0.666992 -4 1 -11 1 -21c0 -37.335 -13.5 -73.168 -40.5 -107.5
c-27 -34.333 -67.167 -51.5 -120.5 -51.5c-38.667 0 -68.167 9.5 -88.5 28.5s-30.5 42.5 -30.5 70.5s7 55 21 81h81c-8.66699 -20.667 -13 -38.667 -13 -54c0 -28 14 -42 42 -42c20 0 35.167 8.5 45.5 25.5s15.5 36.167 15.5 57.5v13z" />
    <glyph glyph-name="Ohungarumlaut" unicode="&#x150;" horiz-adv-x="820" 
d="M472 634c-74 0 -135.332 -28.5 -183.999 -85.5s-73 -128.167 -73 -213.5c0 -68 16.667 -121.667 50 -161s79.666 -59 138.999 -59c74 0 135 28.833 183 86.5s72 128.834 72 213.501c0 67.333 -16.333 120.666 -49 159.999s-78.667 59 -138 59zM398.001 -19
c-96.667 0 -174.666 32.501 -233.999 97.501s-89 148.833 -89 251.5c0 78 17 150.333 51 217s82 120.167 144 160.5s130.667 60.5 206 60.5c97.333 0 175.666 -32.667 234.999 -98s89 -149 89 -251c0 -77.333 -17.167 -149.333 -51.5 -216s-82.5 -120.334 -144.5 -161.001
s-130.667 -61 -206 -61zM608.002 1004h104l-99 -172h-91zM448.002 1004h104l-99 -172h-91z" />
    <glyph glyph-name="ohungarumlaut" unicode="&#x151;" horiz-adv-x="596" 
d="M428 310c0 84.667 -33.332 127 -99.999 127c-44 0 -81.333 -19.333 -112 -58s-46 -85.667 -46 -141c0 -42.667 9.16699 -74.5 27.5 -95.5s43.166 -31.5 74.499 -31.5c44 0 81 19.167 111 57.5s45 85.5 45 141.5zM334.001 560c66.667 0 121 -21.001 163 -63.001
s63 -101.667 63 -179c0 -93.333 -28 -171.666 -84 -234.999s-126.333 -95 -211 -95c-66 0 -120 21 -162 63s-63 101.667 -63 179c0 93.334 28 171.667 84 235s126 95 210 95zM488.001 821.999h104l-99 -172h-91zM328.001 821.999h104l-99 -172h-91z" />
    <glyph glyph-name="Racute" unicode="&#x154;" horiz-adv-x="681" 
d="M264 427h136c40 0 71.5 11 94.5 33s34.5 47 34.5 75c0 26 -8.5 46.667 -25.5 62s-41.167 23 -72.5 23h-123zM481 318l136 -318h-150l-126 299h-106l-70 -299h-138l172 750h252c69.333 0 122.833 -19.5 160.5 -58.5s56.5 -86.5 56.5 -142.5
c0 -52 -16.5 -99.833 -49.5 -143.5s-78.833 -72.834 -137.5 -87.5zM482 832h-120l192 210l79 -88z" />
    <glyph glyph-name="racute" unicode="&#x155;" horiz-adv-x="406" 
d="M421 429h-41.999c-90.667 0 -147.334 -49.333 -170.001 -148l-65 -281h-132l127 552h132l-22 -96c30 68 77.667 102 143 102h59zM403.001 650h-120l192 210l79 -88z" />
    <glyph glyph-name="uni0156" unicode="&#x156;" horiz-adv-x="681" 
d="M363 -70l-29 -125.999c-16 -70 -43.5 -120.333 -82.5 -151s-87.833 -48 -146.5 -52l-1 67c40 5.33301 71.333 17.666 94 36.999s38.334 47.333 47 84h-69l34 141h153zM264 427.001h136c40 0 71.5 11 94.5 33s34.5 47 34.5 75c0 26 -8.5 46.667 -25.5 62
s-41.167 23 -72.5 23h-123zM481 318.001l136 -318h-150l-126 299h-106l-70 -299h-138l172 750h252c69.333 0 122.833 -19.5 160.5 -58.5s56.5 -86.5 56.5 -142.5c0 -52 -16.5 -99.833 -49.5 -143.5s-78.833 -72.834 -137.5 -87.5z" />
    <glyph glyph-name="uni0157" unicode="&#x157;" horiz-adv-x="406" 
d="M139 -70l-29.001 -125.999c-16 -70 -43.5 -120.333 -82.5 -151s-87.833 -48 -146.5 -52l-1 67c40 5.33301 71.333 17.666 94 36.999s38.334 47.333 47.001 84h-69l34 141h153zM420.999 429.001h-41.999c-90.667 0 -147.334 -49.333 -170.001 -148l-65 -281h-132l127 552
h132l-22 -96c30 68 77.667 102 143 102h59z" />
    <glyph glyph-name="Rcaron" unicode="&#x158;" horiz-adv-x="681" 
d="M264 427h136c40 0 71.5 11 94.5 33s34.5 47 34.5 75c0 26 -8.5 46.667 -25.5 62s-41.167 23 -72.5 23h-123zM481 318l136 -318h-150l-126 299h-106l-70 -299h-138l172 750h252c69.333 0 122.833 -19.5 160.5 -58.5s56.5 -86.5 56.5 -142.5
c0 -52 -16.5 -99.833 -49.5 -143.5s-78.833 -72.834 -137.5 -87.5zM671 1028l-200 -196h-71l-110 196h106l54 -92l95 92h126z" />
    <glyph glyph-name="rcaron" unicode="&#x159;" horiz-adv-x="406" 
d="M421 429h-41.999c-90.667 0 -147.334 -49.333 -170.001 -148l-65 -281h-132l127 552h132l-22 -96c30 68 77.667 102 143 102h59zM569.001 846l-200 -196h-71l-110 196h106l54 -92l95 92h126z" />
    <glyph glyph-name="Sacute" unicode="&#x15a;" horiz-adv-x="646" 
d="M386 768c83.333 0 148.5 -20.9971 195.5 -62.9971s72.167 -96.667 75.5 -164h-141c-0.666992 35.333 -13.834 61.666 -39.501 78.999s-57.167 26 -94.5 26c-34.667 0 -63.834 -8.66699 -87.5 -26c-23.667 -17.333 -35.5 -42.333 -35.5 -75c0 -26.667 9 -47.167 27 -61.5
s50.667 -30.833 98 -49.5c65.334 -24.667 109.667 -45.334 133 -62c52.667 -36.667 79 -88.334 79 -155c0 -74 -27.333 -131.833 -82 -173.5s-120.334 -62.5 -197 -62.5c-79.333 0 -146.833 22.667 -202.5 68s-83.5 109.666 -83.5 192.999v13h140
c-1.33301 -10.667 -2 -18.334 -2 -23.001c0 -42 15.5 -74.5 46.5 -97.5s67.833 -34.5 110.5 -34.5c36 0 66.167 8.66699 90.5 26s36.5 42.333 36.5 75c0 27.333 -9.5 48.5 -28.5 63.5s-51.5 31.833 -97.5 50.5c-19.333 8 -33.666 14 -42.999 18s-22.833 10.333 -40.5 19
s-31 16.5 -40 23.5s-19.667 16.333 -32 28s-21.5 23.667 -27.5 36s-11.333 27 -16 44s-7 35.167 -7 54.5c0 69.333 23.833 125 71.5 167s112.167 63 193.5 63zM461 832.003h-120l192 210l79 -88z" />
    <glyph glyph-name="sacute" unicode="&#x15b;" horiz-adv-x="516" 
d="M288 562c61.333 0 111.834 -16.3311 151.501 -48.998s59.834 -78 60.501 -136h-130c-1.33301 23.333 -9.33301 41.5 -24 54.5s-35.667 19.5 -63 19.5c-24 0 -43.333 -5 -58 -15s-22 -23.333 -22 -40c0 -12 5 -22.333 15 -31s20.333 -15 31 -19s29.667 -10.667 57 -20
c24 -8 43.5 -15.5 58.5 -22.5s30.833 -16.333 47.5 -28s29.167 -26.334 37.5 -44.001s12.5 -38.167 12.5 -61.5c0 -56 -22.333 -100.333 -67 -133s-97 -49 -157 -49c-60.667 0 -113 17.167 -157 51.5s-66.333 82.166 -67 143.499h133c3.33301 -56 36 -84 98 -84
c56 0 84 18.333 84 55c0 14.667 -5.33301 26 -16 34s-28.334 16.333 -53 25c-2 0.667969 -10.333 3.33496 -25 8c-14.667 4.66699 -24.334 8 -29.001 10s-13.667 5.66699 -27 11c-13.334 5.33301 -22.667 10 -28 14s-13.333 9.5 -24 16.5s-18.334 14.167 -23.001 21.5
c-4.66699 7.33496 -10 15.668 -16 25c-6 9.33301 -10.167 19.833 -12.5 31.5s-3.5 24.167 -3.5 37.5c0 55.334 21 98.167 63 128.5s93 45.5 153 45.5zM388.001 650.002h-120l192 210l79 -88z" />
    <glyph glyph-name="Scircumflex" unicode="&#x15c;" horiz-adv-x="646" 
d="M386 768c83.333 0 148.5 -20.9971 195.5 -62.9971s72.167 -96.667 75.5 -164h-141c-0.666992 35.333 -13.834 61.666 -39.501 78.999s-57.167 26 -94.5 26c-34.667 0 -63.834 -8.66699 -87.5 -26c-23.667 -17.333 -35.5 -42.333 -35.5 -75c0 -26.667 9 -47.167 27 -61.5
s50.667 -30.833 98 -49.5c65.334 -24.667 109.667 -45.334 133 -62c52.667 -36.667 79 -88.334 79 -155c0 -74 -27.333 -131.833 -82 -173.5s-120.334 -62.5 -197 -62.5c-79.333 0 -146.833 22.667 -202.5 68s-83.5 109.666 -83.5 192.999v13h140
c-1.33301 -10.667 -2 -18.334 -2 -23.001c0 -42 15.5 -74.5 46.5 -97.5s67.833 -34.5 110.5 -34.5c36 0 66.167 8.66699 90.5 26s36.5 42.333 36.5 75c0 27.333 -9.5 48.5 -28.5 63.5s-51.5 31.833 -97.5 50.5c-19.333 8 -33.666 14 -42.999 18s-22.833 10.333 -40.5 19
s-31 16.5 -40 23.5s-19.667 16.333 -32 28s-21.5 23.667 -27.5 36s-11.333 27 -16 44s-7 35.167 -7 54.5c0 69.333 23.833 125 71.5 167s112.167 63 193.5 63zM246 832.003l203 196h71l110 -196h-106l-54 92l-98 -92h-126z" />
    <glyph glyph-name="scircumflex" unicode="&#x15d;" horiz-adv-x="516" 
d="M288 562c61.333 0 111.834 -16.3311 151.501 -48.998s59.834 -78 60.501 -136h-130c-1.33301 23.333 -9.33301 41.5 -24 54.5s-35.667 19.5 -63 19.5c-24 0 -43.333 -5 -58 -15s-22 -23.333 -22 -40c0 -12 5 -22.333 15 -31s20.333 -15 31 -19s29.667 -10.667 57 -20
c24 -8 43.5 -15.5 58.5 -22.5s30.833 -16.333 47.5 -28s29.167 -26.334 37.5 -44.001s12.5 -38.167 12.5 -61.5c0 -56 -22.333 -100.333 -67 -133s-97 -49 -157 -49c-60.667 0 -113 17.167 -157 51.5s-66.333 82.166 -67 143.499h133c3.33301 -56 36 -84 98 -84
c56 0 84 18.333 84 55c0 14.667 -5.33301 26 -16 34s-28.334 16.333 -53 25c-2 0.667969 -10.333 3.33496 -25 8c-14.667 4.66699 -24.334 8 -29.001 10s-13.667 5.66699 -27 11c-13.334 5.33301 -22.667 10 -28 14s-13.333 9.5 -24 16.5s-18.334 14.167 -23.001 21.5
c-4.66699 7.33496 -10 15.668 -16 25c-6 9.33301 -10.167 19.833 -12.5 31.5s-3.5 24.167 -3.5 37.5c0 55.334 21 98.167 63 128.5s93 45.5 153 45.5zM161.001 650.002l203 196h71l110 -196h-106l-54 92l-98 -92h-126z" />
    <glyph glyph-name="Scedilla" unicode="&#x15e;" horiz-adv-x="646" 
d="M384 434c65.334 -24.667 109.664 -45.3311 132.997 -61.9971c52.667 -36.667 79 -88.334 79 -155c0 -74 -27.333 -131.833 -82 -173.5s-120.334 -62.5 -197 -62.5c-9.33301 0 -22 0.666992 -38 2l-6 -27c28.667 -1.33301 51.334 -8 68.001 -20s25 -28.333 25 -49
c0 -28.667 -11.167 -53.334 -33.5 -74.001s-51.166 -31 -86.499 -31c-50 0 -88.333 13.333 -115 40l46 52c20 -20.667 41.667 -31 65 -31c14.667 0 26.834 3.66699 36.501 11s14.5 16 14.5 26c0 10.667 -6.5 19.667 -19.5 27s-32.167 11 -57.5 11h-4l27 71
c-61.333 13.333 -111.333 41.5 -150 84.5s-58 98.833 -58 167.5v14h140c-1.33301 -10.667 -2 -18.334 -2 -23.001c0 -42 15.5 -74.5 46.5 -97.5s67.833 -34.5 110.5 -34.5c36 0 66.167 8.66699 90.5 26s36.5 42.333 36.5 75c0 27.333 -9.5 48.5 -28.5 63.5
s-51.5 31.833 -97.5 50.5c-19.333 8 -33.666 14 -42.999 18s-22.833 10.333 -40.5 19s-31 16.5 -40 23.5s-19.667 16.333 -32 28s-21.5 23.667 -27.5 36s-11.333 27 -16 44s-7 35.167 -7 54.5c0 69.333 23.833 125 71.5 167s112.167 63 193.5 63
c83.333 0 148.5 -21 195.5 -63s72.167 -96.667 75.5 -164h-141c-0.666992 35.333 -13.834 61.666 -39.501 78.999s-57.167 26 -94.5 26c-34.667 0 -63.834 -8.66699 -87.5 -26c-23.667 -17.333 -35.5 -42.333 -35.5 -75c0 -26.667 9 -47.167 27 -61.5
s50.667 -30.833 98 -49.5z" />
    <glyph glyph-name="scedilla" unicode="&#x15f;" horiz-adv-x="516" 
d="M306 326c24 -8 43.502 -15.498 58.502 -22.498s30.833 -16.333 47.5 -28s29.167 -26.334 37.5 -44.001s12.5 -38.167 12.5 -61.5c0 -56 -22.333 -100.333 -67 -133s-97 -49 -157 -49l-22 1l-7 -33c28.667 -1.33301 51.334 -8 68.001 -20s25 -28.333 25 -49
c0 -28.667 -11.167 -53.334 -33.5 -74.001c-22.334 -20.667 -51.167 -31 -86.5 -31c-50 0 -88.333 13.333 -115 40l46 52c20 -20.667 41.667 -31 65 -31c14.667 0 26.834 3.66699 36.5 11c9.66699 7.33301 14.5 16 14.5 26c0 10.667 -6.5 19.667 -19.5 27
s-32.167 11 -57.5 11h-4l29 77c-46.667 10 -85.334 31.167 -116.001 63.5s-46.334 73.833 -47.001 124.5h133c3.33301 -56 36 -84 98 -84c56 0 84 18.333 84 55c0 14.667 -5.33301 26 -16 34s-28.334 16.333 -53 25c-2 0.667969 -10.333 3.33496 -25 8
c-14.667 4.66699 -24.334 8 -29.001 10s-13.667 5.66699 -27 11c-13.334 5.33301 -22.667 10 -28 14s-13.333 9.5 -24 16.5s-18.334 14.167 -23.001 21.5c-4.66699 7.33496 -10 15.668 -16 25c-6 9.33301 -10.167 19.833 -12.5 31.5s-3.5 24.167 -3.5 37.5
c0 55.334 21 98.167 63 128.5s93 45.5 153 45.5c61.333 0 111.833 -16.333 151.5 -49s59.834 -78 60.501 -136h-130c-1.33301 23.333 -9.33301 41.5 -24 54.5s-35.667 19.5 -63 19.5c-24 0 -43.333 -5 -58 -15s-22 -23.333 -22 -40c0 -12 5 -22.333 15 -31
s20.333 -15 31 -19s29.667 -10.667 57 -20z" />
    <glyph glyph-name="uni0162" unicode="&#x162;" horiz-adv-x="665" 
d="M744 750l-30.001 -130.001h-232l-143 -620h-89c-22 -17.333 -33 -37 -33 -59c0 -16 6.83301 -28.5 20.5 -37.5s29.834 -14.5 48.501 -16.5l-14 -63c-34 3.33301 -62.333 14.333 -85 33s-34 41.334 -34 68.001c0 33.333 15.667 60 47 80l142 615h-232l30 130h604z" />
    <glyph glyph-name="uni0163" unicode="&#x163;" horiz-adv-x="395" 
d="M279 432l-55.0029 -239.001c-3.33301 -13.334 -5 -24.667 -5 -34c0 -26.667 14.333 -40 43 -40h71l-27 -119h-94l-10 -44c28.667 -1.33301 51.334 -8 68.001 -20s25 -28.333 25 -49c0 -28.667 -11.167 -53.334 -33.5 -74.001s-51.166 -31 -86.499 -31
c-50 0 -88.333 13.333 -115 40l46 52c20 -20.667 41.667 -31 65 -31c14.667 0 26.834 3.66699 36.501 11s14.5 16 14.5 26c0 10.667 -6.33301 19.667 -19 27s-32 11 -58 11h-4l32 86c-29.333 6.66699 -51.5 21.334 -66.5 44.001s-22.5 50.334 -22.5 83.001
c0 18 1.66699 34 5 48l58 253h-96l28 120h96l31 131l139 37l-38 -168h115l-28 -120h-115z" />
    <glyph glyph-name="Tcaron" unicode="&#x164;" horiz-adv-x="665" 
d="M339 0h-140l143 620h-232l30 130h604l-30 -130h-232zM703 1028l-200 -196h-71l-110 196h106l54 -92l95 92h126z" />
    <glyph glyph-name="tcaron" unicode="&#x165;" horiz-adv-x="621" 
d="M279 432l-55 -239c-3.33301 -13.334 -5 -24.667 -5 -34c0 -26.667 14.333 -40 43 -40h71l-27 -119h-98c-40.667 0 -71.667 12.167 -93 36.5s-32 55.5 -32 93.5c0 16 2 32.333 6 49l58 253h-96l28 120h96l31 131l139 37l-38 -168h115l-28 -120h-115zM708 762l-29 -125.999
c-16 -70 -43.5 -120.333 -82.5 -151s-87.833 -48 -146.5 -52l-1 67c40.001 5.33301 71.334 17.666 94 36.999c22.6689 19.333 38.3359 47.333 47 84h-69l34 141h153z" />
    <glyph glyph-name="Tbar" unicode="&#x166;" horiz-adv-x="665" 
d="M482 620l-32 -139h154l-13 -53h-153l-99 -428h-140l99 428h-171l13 53h170l32 139h-232l30 130h604l-30 -130h-232z" />
    <glyph glyph-name="tbar" unicode="&#x167;" horiz-adv-x="417" 
d="M301 432l-18 -80h98l-27 -120h-99l-9 -39c-3.33301 -13.334 -5 -24.667 -5 -34c0 -26.667 14.333 -40 43 -40h71l-27 -119h-98c-40.667 0 -71.667 12.167 -93 36.5s-32 55.5 -32 93.5c0 16 2 32.333 6 49l12 53h-117l27 120h118l18 80h-96l28 120h96l31 131l139 37
l-38 -168h115l-28 -120h-115z" />
    <glyph glyph-name="Utilde" unicode="&#x168;" horiz-adv-x="740" 
d="M778 750l-110 -483.999c-22 -95.333 -62.667 -166.5 -122 -213.5s-128 -70.5 -206 -70.5c-77.333 0 -140.5 21.833 -189.5 65.5s-73.5 102.5 -73.5 176.5c0 27.333 3.33301 54.333 10 81l103 445h140l-104 -455c-4.66699 -20.667 -7 -40.334 -7 -59.001
c0 -40.667 11.833 -71 35.5 -91s56.5 -30 98.5 -30c95.333 0 155.333 53.667 180 161l107 474h138zM607 988.001h78.0029c-0.666992 -51.335 -11.334 -91.168 -32.001 -119.5c-20.667 -28.333 -46.334 -42.5 -77.001 -42.5c-17.333 0 -34.5 5 -51.5 15s-32 20.167 -45 30.5
s-23.833 15.5 -32.5 15.5c-20.667 0 -32 -18.333 -34 -55h-78c0 49.333 10.333 88.333 31 117s46.667 43 78 43c23.334 0 48.667 -10.333 76 -31s45 -31 53 -31c19.333 0 30.666 19.333 33.999 58z" />
    <glyph glyph-name="utilde" unicode="&#x169;" horiz-adv-x="590" 
d="M462 0h-126l20 87c-32 -62 -83 -93 -153 -93c-48.667 0 -87 14.167 -115 42.5s-42 65.166 -42 110.499c0 16.667 2 34 6 52l82 353h132l-80 -349c-2 -8 -3 -16.333 -3 -25c0 -19.333 5.66699 -35.166 17 -47.499s29.333 -18.5 54 -18.5c34.667 0 63.167 13.833 85.5 41.5
c22.334 27.667 40.167 69.5 53.5 125.5l64 273h132zM474 806h78.002c-0.666992 -51.334 -11.334 -91.167 -32.001 -119.5c-20.668 -28.333 -46.335 -42.5 -77.001 -42.5c-17.333 0 -34.5 5 -51.5 15s-32 20.167 -45 30.5s-23.833 15.5 -32.5 15.5
c-20.667 0 -32 -18.333 -34 -55h-78c0 49.333 10.333 88.333 31 117s46.667 43 78 43c23.334 0 48.667 -10.333 76 -31s45 -31 53 -31c19.334 0 30.667 19.333 34 58z" />
    <glyph glyph-name="Umacron" unicode="&#x16a;" horiz-adv-x="740" 
d="M778 750l-110 -483.999c-22 -95.333 -62.667 -166.5 -122 -213.5s-128 -70.5 -206 -70.5c-77.333 0 -140.5 21.833 -189.5 65.5s-73.5 102.5 -73.5 176.5c0 27.333 3.33301 54.333 10 81l103 445h140l-104 -455c-4.66699 -20.667 -7 -40.334 -7 -59.001
c0 -40.667 11.833 -71 35.5 -91s56.5 -30 98.5 -30c95.333 0 155.333 53.667 180 161l107 474h138zM671 932.001l-23 -100h-320l23 100h320z" />
    <glyph glyph-name="umacron" unicode="&#x16b;" horiz-adv-x="590" 
d="M462 0h-126l20 87c-32 -62 -83 -93 -153 -93c-48.667 0 -87 14.167 -115 42.5s-42 65.166 -42 110.499c0 16.667 2 34 6 52l82 353h132l-80 -349c-2 -8 -3 -16.333 -3 -25c0 -19.333 5.66699 -35.166 17 -47.499s29.333 -18.5 54 -18.5c34.667 0 63.167 13.833 85.5 41.5
c22.334 27.667 40.167 69.5 53.5 125.5l64 273h132zM553 750l-23 -100h-320l23 100h320z" />
    <glyph glyph-name="Ubreve" unicode="&#x16c;" horiz-adv-x="740" 
d="M778 750l-110 -483.999c-22 -95.333 -62.667 -166.5 -122 -213.5s-128 -70.5 -206 -70.5c-77.333 0 -140.5 21.833 -189.5 65.5s-73.5 102.5 -73.5 176.5c0 27.333 3.33301 54.333 10 81l103 445h140l-104 -455c-4.66699 -20.667 -7 -40.334 -7 -59.001
c0 -40.667 11.833 -71 35.5 -91s56.5 -30 98.5 -30c95.333 0 155.333 53.667 180 161l107 474h138zM573 1008l87 -0.000976562c0.666992 -4 1 -11 1 -21c0 -37.335 -13.5 -73.168 -40.5 -107.499c-27 -34.333 -67.167 -51.5 -120.5 -51.5c-38.667 0 -68.167 9.5 -88.5 28.5
s-30.5 42.5 -30.5 70.5s7 55 21 81h81c-8.66699 -20.667 -13 -38.667 -13 -54c0 -28 14 -42 42 -42c20 0 35.167 8.5 45.5 25.5s15.5 36.167 15.5 57.5v13z" />
    <glyph glyph-name="ubreve" unicode="&#x16d;" horiz-adv-x="590" 
d="M462 0h-126l20 87c-32 -62 -83 -93 -153 -93c-48.667 0 -87 14.167 -115 42.5s-42 65.166 -42 110.499c0 16.667 2 34 6 52l82 353h132l-80 -349c-2 -8 -3 -16.333 -3 -25c0 -19.333 5.66699 -35.166 17 -47.499s29.333 -18.5 54 -18.5c34.667 0 63.167 13.833 85.5 41.5
c22.334 27.667 40.167 69.5 53.5 125.5l64 273h132zM446 817h87c0.666992 -4 1 -11 1 -21c0 -37.335 -13.5 -73.168 -40.5 -107.5c-27 -34.333 -67.167 -51.5 -120.5 -51.5c-38.667 0 -68.167 9.5 -88.5 28.5s-30.5 42.5 -30.5 70.5s7 55 21 81h81
c-8.66699 -20.667 -13 -38.667 -13 -54c0 -28 14 -42 42 -42c20 0 35.167 8.5 45.5 25.5s15.5 36.167 15.5 57.5v13z" />
    <glyph glyph-name="Uring" unicode="&#x16e;" horiz-adv-x="740" 
d="M778 750l-110 -483.999c-22 -95.333 -62.667 -166.5 -122 -213.5s-128 -70.5 -206 -70.5c-77.333 0 -140.5 21.833 -189.5 65.5s-73.5 102.5 -73.5 176.5c0 27.333 3.33301 54.333 10 81l103 445h140l-104 -455c-4.66699 -20.667 -7 -40.334 -7 -59.001
c0 -40.667 11.833 -71 35.5 -91s56.5 -30 98.5 -30c95.333 0 155.333 53.667 180 161l107 474h138zM552 951.001c0 16 -4.83301 28.833 -14.5 38.5s-22.5 14.5 -38.5 14.5s-28.667 -4.83301 -38 -14.5s-14 -22.5 -14 -38.5c0 -15.333 4.66699 -28.333 14 -39s22 -16 38 -16
s28.833 5.33301 38.5 16s14.5 23.667 14.5 39zM376 951.001c0 37.333 11.5 67.5 34.5 90.5s52.167 34.5 87.5 34.5c36.667 0 66.667 -11.5 90 -34.5s35 -53.167 35 -90.5c0 -36 -11.667 -65.667 -35 -89s-53.333 -35 -90 -35c-35.333 0 -64.5 11.667 -87.5 35
s-34.5 53 -34.5 89z" />
    <glyph glyph-name="uring" unicode="&#x16f;" horiz-adv-x="590" 
d="M462 0h-126l20 87c-32 -62 -83 -93 -153 -93c-48.667 0 -87 14.167 -115 42.5s-42 65.166 -42 110.499c0 16.667 2 34 6 52l82 353h132l-80 -349c-2 -8 -3 -16.333 -3 -25c0 -19.333 5.66699 -35.166 17 -47.499s29.333 -18.5 54 -18.5c34.667 0 63.167 13.833 85.5 41.5
c22.334 27.667 40.167 69.5 53.5 125.5l64 273h132zM434 769c0 16 -4.83301 28.833 -14.5 38.5s-22.5 14.5 -38.5 14.5s-28.667 -4.83301 -38 -14.5s-14 -22.5 -14 -38.5c0 -15.333 4.66699 -28.333 14 -39s22 -16 38 -16s28.833 5.33301 38.5 16s14.5 23.667 14.5 39z
M258 769c0 37.333 11.5 67.5 34.5 90.5s52.167 34.5 87.5 34.5c36.667 0 66.667 -11.5 90 -34.5s35 -53.167 35 -90.5c0 -36 -11.667 -65.667 -35 -89s-53.333 -35 -90 -35c-35.333 0 -64.5 11.667 -87.5 35s-34.5 53 -34.5 89z" />
    <glyph glyph-name="Uhungarumlaut" unicode="&#x170;" horiz-adv-x="740" 
d="M778 750l-110 -483.999c-22 -95.333 -62.667 -166.5 -122 -213.5s-128 -70.5 -206 -70.5c-77.333 0 -140.5 21.833 -189.5 65.5s-73.5 102.5 -73.5 176.5c0 27.333 3.33301 54.333 10 81l103 445h140l-104 -455c-4.66699 -20.667 -7 -40.334 -7 -59.001
c0 -40.667 11.833 -71 35.5 -91s56.5 -30 98.5 -30c95.333 0 155.333 53.667 180 161l107 474h138zM598 1004h104l-99 -172h-91zM438 1004h104l-99 -172h-91z" />
    <glyph glyph-name="uhungarumlaut" unicode="&#x171;" horiz-adv-x="590" 
d="M462 0h-126l20 87c-32 -62 -83 -93 -153 -93c-48.667 0 -87 14.167 -115 42.5s-42 65.166 -42 110.499c0 16.667 2 34 6 52l82 353h132l-80 -349c-2 -8 -3 -16.333 -3 -25c0 -19.333 5.66699 -35.166 17 -47.499s29.333 -18.5 54 -18.5c34.667 0 63.167 13.833 85.5 41.5
c22.334 27.667 40.167 69.5 53.5 125.5l64 273h132zM484 822h104l-99 -172h-91zM324 822h104l-99 -172h-91z" />
    <glyph glyph-name="Uogonek" unicode="&#x172;" horiz-adv-x="740" 
d="M778 750l-110.001 -484c-22 -95.333 -62.667 -166.5 -122 -213.5s-128 -70.5 -206 -70.5h-14c-10 -12 -15 -25.667 -15 -41c0 -16 6.83301 -28.5 20.5 -37.5s29.834 -14.5 48.501 -16.5l-14 -63c-34 3.33301 -62.333 14.333 -85 33s-34 41.334 -34 68.001
c0 24.667 8.66699 45.667 26 63c-59.333 12 -106.833 38.667 -142.5 80s-53.5 93.333 -53.5 156c0 27.333 3.33301 54.333 10 81l103 445h140l-104 -455c-4.66699 -20.667 -7 -40.334 -7 -59.001c0 -40.667 11.833 -71 35.5 -91s56.5 -30 98.5 -30
c95.333 0 155.333 53.667 180 161l107 474h138z" />
    <glyph glyph-name="uogonek" unicode="&#x173;" horiz-adv-x="590" 
d="M462 0l-82.001 -0.000976562c-22 -17.333 -33 -37 -33 -59c0 -16 6.83301 -28.5 20.5 -37.5s29.834 -14.5 48.501 -16.5l-14 -63c-34 3.33301 -62.333 14.333 -85 33s-34 41.334 -34 68.001c0 36.667 18.333 65 55 85l18 77c-32 -62 -83 -93 -153 -93
c-48.667 0 -87 14.167 -115 42.5s-42 65.166 -42 110.499c0 16.667 2 34 6 52l82 353h132l-80 -349c-2 -8 -3 -16.333 -3 -25c0 -19.333 5.66699 -35.166 17 -47.499s29.333 -18.5 54 -18.5c34.667 0 63.167 13.833 85.5 41.5c22.334 27.667 40.167 69.5 53.5 125.5l64 273
h132z" />
    <glyph glyph-name="Wcircumflex" unicode="&#x174;" horiz-adv-x="981" 
d="M732 0h-125l-60 491l-234 -491h-125l-64 750h139l35 -486l227 486h124l59 -488l202 488h150zM427 832l203 196h71l110 -196h-106l-54 92l-98 -92h-126z" />
    <glyph glyph-name="wcircumflex" unicode="&#x175;" horiz-adv-x="852" 
d="M605 0h-118l-39 326l-174 -326h-119l-66 552h134l34 -335l174 335h122l34 -335l174 335h140zM325 650l203 196h71l110 -196h-106l-54 92l-98 -92h-126z" />
    <glyph glyph-name="Ycircumflex" unicode="&#x176;" horiz-adv-x="674" 
d="M414 287l-65 -287h-140l67 297l-157 453h146l104 -318l237 318h167zM245 832l203 196h71l110 -196h-106l-54 92l-98 -92h-126z" />
    <glyph glyph-name="ycircumflex" unicode="&#x177;" horiz-adv-x="568" 
d="M627 552l-370.001 -640c-34 -58.667 -83.333 -88 -148 -88h-110l26 118h57c20.667 0 36.834 3.33301 48.501 10s22.834 19.667 33.5 39l31 55l-116 506h133l74 -351l195 351h146zM169.999 650l203 196h71l110 -196h-106l-54 92l-98 -92h-126z" />
    <glyph glyph-name="Zacute" unicode="&#x179;" horiz-adv-x="677" 
d="M32 117l460 503h-362l30 130h552l-27 -116l-463 -503h391l-30 -131h-577zM475 832h-120l192 210l79 -88z" />
    <glyph glyph-name="zacute" unicode="&#x17a;" horiz-adv-x="538" 
d="M471 116l-27 -116h-450l25 110l333 326h-265l27 116h435l-25 -110l-326 -326h273zM369 650h-120l192 210l79 -88z" />
    <glyph glyph-name="Zdotaccent" unicode="&#x17b;" horiz-adv-x="677" 
d="M32 117l460 503h-362l30 130h552l-27 -116l-463 -503h391l-30 -131h-577zM528 832h-150l36 154h150z" />
    <glyph glyph-name="zdotaccent" unicode="&#x17c;" horiz-adv-x="538" 
d="M471 116l-27 -116h-450l25 110l333 326h-265l27 116h435l-25 -110l-326 -326h273zM415 650h-150l36 154h150z" />
    <glyph glyph-name="longs" unicode="&#x17f;" horiz-adv-x="324" 
d="M435 644l-66 0.000976562c-20 0 -34.5 -4.33301 -43.5 -13s-15.833 -23.667 -20.5 -45l-136 -586h-132l99 432h-80l28 120h80l18 78c11.333 47.333 31 81.166 59 101.499s65 30.5 111 30.5h111z" />
    <glyph glyph-name="florin" unicode="&#x192;" horiz-adv-x="375" 
d="M449 644l-66.001 0.000976562c-20 0 -34.5 -4.33301 -43.5 -13s-15.833 -23.667 -20.5 -45l-8 -34h105l-28 -120h-105l-115 -495c-12 -52.667 -31.5 -89.667 -58.5 -111s-61.167 -32 -102.5 -32h-98l27 118h46c18.667 0 32.334 4 41.001 12s15 21.333 19 40l108 468h-80
l28 120h80l18 78c11.333 47.333 31 81.166 59 101.499s65 30.5 111 30.5h111z" />
    <glyph glyph-name="uni0218" unicode="&#x218;" horiz-adv-x="646" 
d="M366 -70l-29 -125.999c-16 -70 -43.5 -120.333 -82.5 -151s-87.833 -48 -146.5 -52l-1 67c40 5.33301 71.333 17.666 94 36.999s38.334 47.333 47 84h-69l34 141h153zM386 768.001c83.333 0 148.5 -20.9971 195.5 -62.9971s72.167 -96.667 75.5 -164h-141
c-0.666992 35.333 -13.834 61.666 -39.501 78.999s-57.167 26 -94.5 26c-34.667 0 -63.834 -8.66699 -87.5 -26c-23.667 -17.333 -35.5 -42.333 -35.5 -75c0 -26.667 9 -47.167 27 -61.5s50.667 -30.833 98 -49.5c65.334 -24.667 109.667 -45.334 133 -62
c52.667 -36.667 79 -88.334 79 -155c0 -74 -27.333 -131.833 -82 -173.5s-120.334 -62.5 -197 -62.5c-79.333 0 -146.833 22.667 -202.5 68s-83.5 109.666 -83.5 192.999v13h140c-1.33301 -10.667 -2 -18.334 -2 -23.001c0 -42 15.5 -74.5 46.5 -97.5
s67.833 -34.5 110.5 -34.5c36 0 66.167 8.66699 90.5 26s36.5 42.333 36.5 75c0 27.333 -9.5 48.5 -28.5 63.5s-51.5 31.833 -97.5 50.5c-19.333 8 -33.666 14 -42.999 18s-22.833 10.333 -40.5 19s-31 16.5 -40 23.5s-19.667 16.333 -32 28s-21.5 23.667 -27.5 36
s-11.333 27 -16 44s-7 35.167 -7 54.5c0 69.333 23.833 125 71.5 167s112.167 63 193.5 63z" />
    <glyph glyph-name="uni0219" unicode="&#x219;" horiz-adv-x="516" 
d="M305 -70l-29 -125.999c-16 -70 -43.5 -120.333 -82.5 -151s-87.833 -48 -146.5 -52l-1 67c40 5.33301 71.333 17.666 94 36.999s38.334 47.333 47 84h-69l34 141h153zM288 562.001c61.333 0 111.834 -16.3311 151.501 -48.998s59.834 -78 60.501 -136h-130
c-1.33301 23.333 -9.33301 41.5 -24 54.5s-35.667 19.5 -63 19.5c-24 0 -43.333 -5 -58 -15s-22 -23.333 -22 -40c0 -12 5 -22.333 15 -31s20.333 -15 31 -19s29.667 -10.667 57 -20c24 -8 43.5 -15.5 58.5 -22.5s30.833 -16.333 47.5 -28s29.167 -26.334 37.5 -44.001
s12.5 -38.167 12.5 -61.5c0 -56 -22.333 -100.333 -67 -133s-97 -49 -157 -49c-60.667 0 -113 17.167 -157 51.5s-66.333 82.166 -67 143.499h133c3.33301 -56 36 -84 98 -84c56 0 84 18.333 84 55c0 14.667 -5.33301 26 -16 34s-28.334 16.333 -53 25
c-2 0.667969 -10.333 3.33496 -25 8c-14.667 4.66699 -24.334 8 -29.001 10s-13.667 5.66699 -27 11c-13.334 5.33301 -22.667 10 -28 14s-13.333 9.5 -24 16.5s-18.334 14.167 -23.001 21.5c-4.66699 7.33496 -10 15.668 -16 25c-6 9.33301 -10.167 19.833 -12.5 31.5
s-3.5 24.167 -3.5 37.5c0 55.334 21 98.167 63 128.5s93 45.5 153 45.5z" />
    <glyph glyph-name="uni021A" unicode="&#x21a;" horiz-adv-x="665" 
d="M340 -70l-29 -125.999c-16 -70 -43.5 -120.333 -82.5 -151s-87.833 -48 -146.5 -52l-1 67c40 5.33301 71.333 17.666 94 36.999s38.334 47.333 47 84h-69l34 141h153zM339 0.000976562h-140l143 620h-232l30 130h604l-30 -130h-232z" />
    <glyph glyph-name="uni021B" unicode="&#x21b;" horiz-adv-x="395" 
d="M260 -70l-29.001 -125.999c-16 -70 -43.5 -120.333 -82.5 -151s-87.833 -48 -146.5 -52l-1 67c40 5.33301 71.333 17.666 94 36.999s38.334 47.333 47.001 84h-69l34 141h153zM278.999 432.001l-55 -239c-3.33301 -13.334 -5 -24.667 -5 -34c0 -26.667 14.333 -40 43 -40
h71l-27 -119h-98c-40.667 0 -71.667 12.167 -93 36.5s-32 55.5 -32 93.5c0 16 2 32.333 6 49l58 253h-96l28 120h96l31 131l139 37l-38 -168h115l-28 -120h-115z" />
    <glyph glyph-name="circumflex" unicode="&#x2c6;" horiz-adv-x="384" 
d="M86 650l203 196h71l110 -196h-106l-54 92l-98 -92h-126z" />
    <glyph glyph-name="caron" unicode="&#x2c7;" horiz-adv-x="380" 
d="M512 846l-200 -196h-71l-110 196h106l54 -92l95 92h126z" />
    <glyph glyph-name="uni02C9" unicode="&#x2c9;" horiz-adv-x="320" 
d="M471 932l-23 -100h-320l23 100h320z" />
    <glyph glyph-name="breve" unicode="&#x2d8;" horiz-adv-x="274" 
d="M302 817h87c0.666992 -4 1 -11 1 -21c0 -37.335 -13.5 -73.168 -40.5 -107.5c-27 -34.333 -67.167 -51.5 -120.5 -51.5c-38.667 0 -68.167 9.5 -88.5 28.5s-30.5 42.5 -30.5 70.5s7 55 21 81h81c-8.66699 -20.667 -13 -38.667 -13 -54c0 -28 14 -42 42 -42
c20 0 35.167 8.5 45.5 25.5s15.5 36.167 15.5 57.5v13z" />
    <glyph glyph-name="dotaccent" unicode="&#x2d9;" horiz-adv-x="150" 
d="M246 650h-150l36 154h150z" />
    <glyph glyph-name="ring" unicode="&#x2da;" horiz-adv-x="255" 
d="M294 769c0 16 -4.83301 28.833 -14.5 38.5s-22.5 14.5 -38.5 14.5s-28.667 -4.83301 -38 -14.5s-14 -22.5 -14 -38.5c0 -15.333 4.66699 -28.333 14 -39s22 -16 38 -16s28.833 5.33301 38.5 16s14.5 23.667 14.5 39zM118 769c0 37.333 11.5 67.5 34.5 90.5
s52.167 34.5 87.5 34.5c36.667 0 66.667 -11.5 90 -34.5s35 -53.167 35 -90.5c0 -36 -11.667 -65.667 -35 -89s-53.333 -35 -90 -35c-35.333 0 -64.5 11.667 -87.5 35s-34.5 53 -34.5 89z" />
    <glyph glyph-name="ogonek" unicode="&#x2db;" horiz-adv-x="144" 
d="M54 -113l-14.001 -63.001c-34 3.33301 -62.333 14.333 -85 33s-34 41.334 -34 68.001c0 37.333 19 66 57 86h56c-32.667 -20.667 -49 -44 -49 -70c0 -16 6.83301 -28.5 20.5 -37.5s29.834 -14.5 48.501 -16.5z" />
    <glyph glyph-name="tilde" unicode="&#x2dc;" horiz-adv-x="329" 
d="M366 806h78.001c-0.666992 -51.334 -11.5 -91.167 -32.5 -119.5s-46.5 -42.5 -76.5 -42.5c-17.333 0 -34.5 5 -51.5 15s-32 20.167 -45 30.5s-23.833 15.5 -32.5 15.5c-20.667 0 -32 -18.333 -34 -55h-78c0 49.333 10.333 88.333 31 117s46.667 43 78 43
c23.333 0 48.666 -10.333 75.999 -31s45 -31 53 -31c19.335 0 30.668 19.333 34 58z" />
    <glyph glyph-name="hungarumlaut" unicode="&#x2dd;" horiz-adv-x="310" 
d="M332 822h104l-99 -172h-91zM172 822h104l-99 -172h-91z" />
    <glyph glyph-name="Delta" unicode="&#x394;" horiz-adv-x="722" 
d="M544 132l-99 424l-292 -424h391zM-4 129l436 621h96l150 -621l-30 -129h-682z" />
    <glyph glyph-name="Omega" unicode="&#x3a9;" horiz-adv-x="815" 
d="M817 495c0 -76.667 -25.3311 -145.833 -75.998 -207.5s-123.334 -106.834 -218.001 -135.501l-9 -40h153l-26 -112h-251l55 232c69.333 12 124.5 41.667 165.5 89s61.5 100 61.5 158c0 54.667 -18.333 97 -55 127s-81.334 45 -134.001 45c-66 0 -124.167 -22 -174.5 -66
s-75.5 -103.667 -75.5 -179c0 -44.667 10.667 -82.667 32 -114c21.334 -31.333 53.667 -51.666 97 -60.999l-54 -231h-251l26 112h154l11 49c-52 22.667 -91.333 55.667 -118 99c-26.667 43.334 -40 93.667 -40 151c0 74 20.667 138.833 62 194.5s92.333 96.667 153 123
s124.334 39.5 191.001 39.5c89.333 0 165.166 -24 227.499 -72s93.5 -115 93.5 -201z" />
    <glyph glyph-name="mu" unicode="&#x3bc;" horiz-adv-x="654" 
d="M605 552l-92 -400c-2 -9.33301 -3 -17 -3 -23c0 -17.333 8.66699 -26 26 -26h32l-23 -103h-53c-23.333 0 -43 5.5 -59 16.5s-26.333 26.167 -31 45.5c-44 -49.333 -100.667 -74 -170 -74c-38 0 -69.333 11.667 -94 35l-53 -229h-122l175 758h122l-77 -334
c-4 -18 -6 -34 -6 -48c0 -49.333 28.333 -74 85 -74c32 0 62.5 13 91.5 39s48.5 60.667 58.5 104l73 313h120z" />
    <glyph glyph-name="pi" unicode="&#x3c0;" horiz-adv-x="702" 
d="M548 450l-58 -259c-4 -16 -6 -29.333 -6 -40c0 -16 5 -27.5 15 -34.5s26 -10.5 48 -10.5h64l-25 -106h-116c-36.667 0 -67.5 11 -92.5 33s-37.5 52.333 -37.5 91c0 16 1.66699 30.333 5 43l64 277h-108l-102 -444h-140l102 444h-97l26 108h324
c62.667 0 121 5.16699 175 15.5s95.667 23.833 125 40.5l-27 -119c-38.667 -18.667 -85 -31.667 -139 -39z" />
    <glyph glyph-name="uni1E02" unicode="&#x1e02;" horiz-adv-x="698" 
d="M196 130h162c44.667 0 79.5 11.5 104.5 34.5s37.5 49.5 37.5 79.5c0 24 -8.33301 44.333 -25 61s-40 25 -70 25h-163zM272 449l146 0.000976562c38 0 68 9.66699 90 29s33 41.666 33 66.999c0 20.6689 -8 38.3359 -24 53c-16 14.667 -38.333 22 -67 22h-139zM540 388.001
c32.667 -8.66699 57.501 -26.667 74.501 -54s25.5 -57.333 25.5 -90c0 -64 -26.833 -120.833 -80.5 -170.5s-124.5 -74.5 -212.5 -74.5h-2l-318 1l173 750h282c62 0 110.167 -17.167 144.5 -51.5s51.5 -75.833 51.5 -124.5c0 -40 -11.833 -77.5 -35.5 -112.5
s-57.834 -59.5 -102.501 -73.5zM529.001 832.001h-150l36 154h150z" />
    <glyph glyph-name="uni1E03" unicode="&#x1e03;" horiz-adv-x="623" 
d="M300 104c48.667 0 87.001 21.001 115.001 63.001s42 91.333 42 148c0 84.667 -33 127 -99 127c-50 0 -90.167 -21.667 -120.5 -65s-45.5 -91.333 -45.5 -144c0 -38.667 9.16699 -69.834 27.5 -93.501s45.166 -35.5 80.499 -35.5zM394.001 562.001
c64.667 0 113.167 -23.166 145.5 -69.499s48.5 -103.5 48.5 -171.5c0 -40.667 -6 -80.334 -18 -119.001s-29 -74.167 -51 -106.5s-51 -58.333 -87 -78s-76 -29.5 -120 -29.5c-46.667 0 -82.5 10.167 -107.5 30.5s-39.5 43.833 -43.5 70.5l-22 -89h-128l176 762h132l-62 -271
c34 47.333 79.667 71 137 71zM540.001 650.002h-150l36 154h150z" />
    <glyph glyph-name="uni1E0A" unicode="&#x1e0a;" horiz-adv-x="756" 
d="M196 131h99c62.667 0 118 15.667 166 47s83.5 69.333 106.5 114s34.5 90.667 34.5 138c0 54.667 -16.167 100 -48.5 136c-32.334 36 -78.834 54 -139.5 54h-106zM199 750l224.998 -0.000976562c102 0 180.5 -30 235.5 -90s82.5 -134.333 82.5 -223
c0 -41.333 -6.16699 -82.666 -18.5 -123.999c-12.3359 -41.333 -31.1689 -80.833 -56.5 -118.5c-25.335 -37.667 -55.668 -71 -91 -100c-35.333 -29 -78.166 -52 -128.499 -69s-104.166 -25.5 -161.499 -25.5h-260zM508.998 831.999h-150l36 154h150z" />
    <glyph glyph-name="uni1E0B" unicode="&#x1e0b;" horiz-adv-x="622" 
d="M266 107c47.333 0 86.333 22.332 117 66.999s46 94 46 148c0 39.334 -9.16699 69.667 -27.5 91s-42.833 32 -73.5 32c-42 0 -78.667 -18.667 -110 -56s-47 -87.666 -47 -150.999c0 -87.333 31.667 -131 95 -131zM487 -0.000976562l-126.001 -0.000976562l21 82
c-33.333 -62.667 -85 -94 -155 -94c-58.667 0 -104.5 23.167 -137.5 69.5s-49.5 103.5 -49.5 171.5c0 39.333 6 78.333 18 117s29 74.334 51 107.001s51.333 59 88 79s77.334 30 122.001 30c76.667 0 125.667 -28 147 -84l66 284h132zM425.999 649.998h-150l36 154h150z" />
    <glyph glyph-name="uni1E1E" unicode="&#x1e1e;" horiz-adv-x="615" 
d="M200 750h494l-31 -130h-353l-41 -175h338l-30 -131h-338l-72 -314h-139zM529 832h-150l36 154h150z" />
    <glyph glyph-name="uni1E1F" unicode="&#x1e1f;" horiz-adv-x="361" 
d="M164 552l18 78.001c11.333 47.333 31 81.166 59 101.499s65 30.5 111 30.5h111l-28 -118h-66c-20 0 -34.5 -4.33301 -43.5 -13s-15.833 -23.667 -20.5 -45l-8 -34h105l-28 -120h-105l-100 -432h-132l99 432h-80l28 120h80zM505 986.001l-36 -154h-150l36 154h150z" />
    <glyph glyph-name="uni1E40" unicode="&#x1e40;" horiz-adv-x="916" 
d="M772 0h-131l111 483l-302 -483h-103l-80 488l-110 -488h-128l171 750h156l84 -544l332 544h171zM649 832h-150l36 154h150z" />
    <glyph glyph-name="uni1E41" unicode="&#x1e41;" horiz-adv-x="857" 
d="M670 562c51.333 0 89.833 -13.1689 115.5 -39.502s38.5 -59.833 38.5 -100.5c0 -16 -2 -32 -6 -48l-85 -374h-132l82 358c2 8.66699 3 17.334 3 26.001c0 38.667 -20.667 58 -62 58c-55.333 0 -93 -43.667 -113 -131l-72 -311h-132l82 358c2 8 3 16 3 24
c0 18 -5.16699 32.5 -15.5 43.5s-25.833 16.5 -46.5 16.5c-56.667 0 -94.667 -43.333 -114 -130l-71 -312h-132l126 552h129l-19 -83c9.33301 22.667 26.5 43.834 51.5 63.501s55.167 29.5 90.5 29.5c33.333 0 60.833 -8.83301 82.5 -26.5s34.5 -41.167 38.5 -70.5
c34 64.667 86.667 97 158 97zM629 649.998h-150l36 154h150z" />
    <glyph glyph-name="uni1E56" unicode="&#x1e56;" horiz-adv-x="641" 
d="M262 417h135c40.667 0 72.667 11.667 96 35s35 50.333 35 81c0 26.6689 -7.66699 47.8359 -23 63.5c-15.333 15.667 -38 23.5 -68 23.5h-129zM199 750h253c69.333 0 122.666 -19.167 159.999 -57.5s56 -85.833 56 -142.5c0 -69.333 -26.167 -130.5 -78.5 -183.5
s-124.166 -79.5 -215.499 -79.5h-143l-66 -287h-138zM519 832h-150l36 154h150z" />
    <glyph glyph-name="uni1E57" unicode="&#x1e57;" horiz-adv-x="627" 
d="M307 113c46 0 83.001 20.167 111.001 60.5s42 85.166 42 134.499c0 38 -8.83301 69.833 -26.5 95.5s-43.167 38.5 -76.5 38.5c-40 0 -76.833 -19.167 -110.5 -57.5s-50.5 -88.166 -50.5 -149.499c0 -39.333 10.667 -69.5 32 -90.5s47.666 -31.5 78.999 -31.5z
M391.001 562c65.333 0 115.333 -22.667 150 -68s52 -101.333 52 -168c0 -54 -10.333 -105.5 -31 -154.5s-53.5 -90.5 -98.5 -124.5s-97.833 -51 -158.5 -51c-33.333 0 -63.833 9 -91.5 27s-44.167 41.667 -49.5 71l-69 -300h-132l175 758h130l-17 -69
c36 52.667 82.667 79 140 79zM508.001 650h-150l36 154h150z" />
    <glyph glyph-name="uni1E60" unicode="&#x1e60;" horiz-adv-x="646" 
d="M386 768c83.333 0 148.5 -20.9971 195.5 -62.9971s72.167 -96.667 75.5 -164h-141c-0.666992 35.333 -13.834 61.666 -39.501 78.999s-57.167 26 -94.5 26c-34.667 0 -63.834 -8.66699 -87.5 -26c-23.667 -17.333 -35.5 -42.333 -35.5 -75c0 -26.667 9 -47.167 27 -61.5
s50.667 -30.833 98 -49.5c65.334 -24.667 109.667 -45.334 133 -62c52.667 -36.667 79 -88.334 79 -155c0 -74 -27.333 -131.833 -82 -173.5s-120.334 -62.5 -197 -62.5c-79.333 0 -146.833 22.667 -202.5 68s-83.5 109.666 -83.5 192.999v13h140
c-1.33301 -10.667 -2 -18.334 -2 -23.001c0 -42 15.5 -74.5 46.5 -97.5s67.833 -34.5 110.5 -34.5c36 0 66.167 8.66699 90.5 26s36.5 42.333 36.5 75c0 27.333 -9.5 48.5 -28.5 63.5s-51.5 31.833 -97.5 50.5c-19.333 8 -33.666 14 -42.999 18s-22.833 10.333 -40.5 19
s-31 16.5 -40 23.5s-19.667 16.333 -32 28s-21.5 23.667 -27.5 36s-11.333 27 -16 44s-7 35.167 -7 54.5c0 69.333 23.833 125 71.5 167s112.167 63 193.5 63zM496 832.003h-150l36 154h150z" />
    <glyph glyph-name="uni1E61" unicode="&#x1e61;" horiz-adv-x="516" 
d="M288 562c61.333 0 111.834 -16.3311 151.501 -48.998s59.834 -78 60.501 -136h-130c-1.33301 23.333 -9.33301 41.5 -24 54.5s-35.667 19.5 -63 19.5c-24 0 -43.333 -5 -58 -15s-22 -23.333 -22 -40c0 -12 5 -22.333 15 -31s20.333 -15 31 -19s29.667 -10.667 57 -20
c24 -8 43.5 -15.5 58.5 -22.5s30.833 -16.333 47.5 -28s29.167 -26.334 37.5 -44.001s12.5 -38.167 12.5 -61.5c0 -56 -22.333 -100.333 -67 -133s-97 -49 -157 -49c-60.667 0 -113 17.167 -157 51.5s-66.333 82.166 -67 143.499h133c3.33301 -56 36 -84 98 -84
c56 0 84 18.333 84 55c0 14.667 -5.33301 26 -16 34s-28.334 16.333 -53 25c-2 0.667969 -10.333 3.33496 -25 8c-14.667 4.66699 -24.334 8 -29.001 10s-13.667 5.66699 -27 11c-13.334 5.33301 -22.667 10 -28 14s-13.333 9.5 -24 16.5s-18.334 14.167 -23.001 21.5
c-4.66699 7.33496 -10 15.668 -16 25c-6 9.33301 -10.167 19.833 -12.5 31.5s-3.5 24.167 -3.5 37.5c0 55.334 21 98.167 63 128.5s93 45.5 153 45.5zM424.001 650.002h-150l36 154h150z" />
    <glyph glyph-name="uni1E6A" unicode="&#x1e6a;" horiz-adv-x="665" 
d="M339 0h-140l143 620h-232l30 130h604l-30 -130h-232zM535 832h-150l36 154h150z" />
    <glyph glyph-name="uni1E6B" unicode="&#x1e6b;" horiz-adv-x="395" 
d="M279 432l-55 -239c-3.33301 -13.334 -5 -24.667 -5 -34c0 -26.667 14.333 -40 43 -40h71l-27 -119h-98c-40.667 0 -71.667 12.167 -93 36.5s-32 55.5 -32 93.5c0 16 2 32.333 6 49l58 253h-96l28 120h96l31 131l139 37l-38 -168h115l-28 -120h-115zM355 750h-150l36 154
h150z" />
    <glyph glyph-name="Wgrave" unicode="&#x1e80;" horiz-adv-x="981" 
d="M732 0h-125l-60 491l-234 -491h-125l-64 750h139l35 -486l227 486h124l59 -488l202 488h150zM549 832l-81 173l115 41l58 -214h-92z" />
    <glyph glyph-name="wgrave" unicode="&#x1e81;" horiz-adv-x="852" 
d="M605 0h-118l-39 326l-174 -326h-119l-66 552h134l34 -335l174 335h122l34 -335l174 335h140zM454 650l-81 173l115 41l58 -214h-92z" />
    <glyph glyph-name="Wacute" unicode="&#x1e82;" horiz-adv-x="981" 
d="M732 0h-125l-60 491l-234 -491h-125l-64 750h139l35 -486l227 486h124l59 -488l202 488h150zM667 832h-120l192 210l79 -88z" />
    <glyph glyph-name="wacute" unicode="&#x1e83;" horiz-adv-x="852" 
d="M605 0h-118l-39 326l-174 -326h-119l-66 552h134l34 -335l174 335h122l34 -335l174 335h140zM569 650h-120l192 210l79 -88z" />
    <glyph glyph-name="Wdieresis" unicode="&#x1e84;" horiz-adv-x="981" 
d="M732 0h-125l-60 491l-234 -491h-125l-64 750h139l35 -486l227 486h124l59 -488l202 488h150zM774 832h-117l28 120h116zM566 832h-116l27 120h117z" />
    <glyph glyph-name="wdieresis" unicode="&#x1e85;" horiz-adv-x="852" 
d="M605 0h-118l-39 326l-174 -326h-119l-66 552h134l34 -335l174 335h122l34 -335l174 335h140zM665 650h-117l28 120h116zM457 650h-116l27 120h117z" />
    <glyph glyph-name="Ygrave" unicode="&#x1ef2;" horiz-adv-x="674" 
d="M414 287l-65 -287h-140l67 297l-157 453h146l104 -318l237 318h167zM398 832l-81 173l115 41l58 -214h-92z" />
    <glyph glyph-name="ygrave" unicode="&#x1ef3;" horiz-adv-x="568" 
d="M627 552l-370.001 -640c-34 -58.667 -83.333 -88 -148 -88h-110l26 118h57c20.667 0 36.834 3.33301 48.501 10s22.834 19.667 33.5 39l31 55l-116 506h133l74 -351l195 351h146zM303.999 650l-81 173l115 41l58 -214h-92z" />
    <glyph glyph-name="endash" unicode="&#x2013;" horiz-adv-x="621" 
d="M573 325l-29 -118h-500l29 118h500z" />
    <glyph glyph-name="emdash" unicode="&#x2014;" horiz-adv-x="1121" 
d="M1073 325l-28 -118h-1000l28 118h1000z" />
    <glyph glyph-name="quoteleft" unicode="&#x2018;" horiz-adv-x="249" 
d="M55 470l29.001 126c16 70 43.5 120.333 82.5 151s87.833 48 146.5 52l1 -67c-40 -5.33496 -71.333 -17.668 -94 -37c-22.667 -19.333 -38.334 -47.333 -47.001 -84h69l-34 -141h-153z" />
    <glyph glyph-name="quoteright" unicode="&#x2019;" horiz-adv-x="249" 
d="M349 793l-29 -125.999c-16 -70 -43.5 -120.333 -82.5 -151s-87.833 -48 -146.5 -52l-1 67c40 5.33301 71.333 17.666 94 36.999s38.334 47.333 47 84h-69l34 141h153z" />
    <glyph glyph-name="quotesinglbase" unicode="&#x201a;" horiz-adv-x="248" 
d="M199 150l-29.001 -125.999c-16 -70 -43.5 -120.333 -82.5 -151s-87.833 -48 -146.5 -52l-1 67c40 5.33301 71.333 17.666 94 36.999s38.334 47.333 47.001 84h-69l34 141h153z" />
    <glyph glyph-name="quotedblleft" unicode="&#x201c;" horiz-adv-x="486" 
d="M305 470l29.001 126c16 70 43.5 120.333 82.5 151s87.833 48 146.5 52l1 -67c-40 -5.33496 -71.333 -17.668 -94 -37c-22.668 -19.333 -38.335 -47.333 -47.001 -84h69l-34 -141h-153zM75.001 470l29.001 126c16 70 43.5 120.333 82.5 151s87.833 48 146.5 52l1 -67
c-40 -5.33496 -71.333 -17.668 -94 -37c-22.667 -19.333 -38.334 -47.333 -47.001 -84h69l-34 -141h-153z" />
    <glyph glyph-name="quotedblright" unicode="&#x201d;" horiz-adv-x="479" 
d="M588 793l-29.001 -125.999c-16 -70 -43.5 -120.333 -82.5 -151s-87.833 -48 -146.5 -52l-1 67c40 5.33301 71.333 17.666 94 36.999s38.334 47.333 47.001 84h-69l34 141h153zM357.999 793.001l-29 -125.999c-16 -70 -43.5 -120.333 -82.5 -151s-87.833 -48 -146.5 -52
l-1 67c40 5.33301 71.333 17.666 94 36.999s38.334 47.333 47 84h-69l34 141h153z" />
    <glyph glyph-name="quotedblbase" unicode="&#x201e;" horiz-adv-x="478" 
d="M429 150l-29.001 -125.999c-16 -70 -43.5 -120.333 -82.5 -151s-87.833 -48 -146.5 -52l-1 67c40 5.33301 71.333 17.666 94 36.999s38.334 47.333 47.001 84h-69l34 141h153zM198.999 150.001l-29.001 -125.999c-16 -70 -43.5 -120.333 -82.5 -151
s-87.833 -48 -146.5 -52l-1 67c40 5.33301 71.333 17.666 94 36.999s38.334 47.333 47.001 84h-69l34 141h153z" />
    <glyph glyph-name="dagger" unicode="&#x2020;" horiz-adv-x="562" 
d="M84 423l25 109h177l50 218h108l-50 -218h177l-25 -109h-177l-121 -523h-108l121 523h-177z" />
    <glyph glyph-name="daggerdbl" unicode="&#x2021;" horiz-adv-x="564" 
d="M315 187h178l-25 -109h-178l-41 -178h-108l41 178h-178l25 109h178l64 276h-178l25 109h178l41 178h108l-41 -178h178l-25 -109h-178z" />
    <glyph glyph-name="bullet" unicode="&#x2022;" horiz-adv-x="264" 
d="M208 206h-164l39 168h164z" />
    <glyph glyph-name="ellipsis" unicode="&#x2026;" horiz-adv-x="1090" 
d="M926 0h-150l36 154h150zM557 0h-150l36 154h150zM207 0h-150l36 154h150z" />
    <glyph glyph-name="perthousand" unicode="&#x2030;" horiz-adv-x="1449" 
d="M1298 163c0 30.667 -9.33301 55.667 -28 75s-42.667 29 -72 29s-53.166 -9.66699 -71.499 -29s-27.5 -44.333 -27.5 -75c0 -31.333 9.16699 -56.833 27.5 -76.5c18.3418 -19.667 42.1748 -29.5 71.499 -29.5c29.333 0 53.333 9.83301 72 29.5s28 45.167 28 76.5zM886 163
c0 30.667 -9.33301 55.667 -28 75s-42.667 29 -72 29c-29.3359 0 -53.1689 -9.66699 -71.499 -29c-18.333 -19.333 -27.5 -44.333 -27.5 -75c0 -31.333 9.16699 -56.833 27.5 -76.5s42.166 -29.5 71.499 -29.5s53.333 9.83301 72 29.5s28 45.167 28 76.5zM1008 162
c0 56 17.833 101.667 53.5 137s80.5 53 134.5 53c56 0 102.167 -17.5 138.5 -52.5s54.5 -80.833 54.5 -137.5c0 -56 -18.167 -101.833 -54.5 -137.5s-82.5 -53.5 -138.5 -53.5c-53.333 0 -98 18 -134 54s-54 81.667 -54 137zM596 162c0 56 17.833 101.667 53.5 137
s80.5 53 134.5 53c56 0 102.167 -17.5 138.5 -52.5s54.5 -80.833 54.5 -137.5c0 -56 -18.167 -101.833 -54.5 -137.5s-82.5 -53.5 -138.5 -53.5c-53.333 0 -98 18 -134 54s-54 81.667 -54 137zM423 586c0 30.667 -9.33398 55.667 -28.001 75s-42.667 29 -72 29
s-53.166 -9.66699 -71.499 -29s-27.5 -44.333 -27.5 -75c0 -31.333 9.16699 -56.833 27.5 -76.5c18.334 -19.667 42.167 -29.5 71.5 -29.5s53.333 9.83301 72 29.5s28 45.167 28 76.5zM276.999 0h-95l645 750h95zM132.999 585c0 56 17.833 101.667 53.5 137
s80.5 53 134.5 53c56 0 102.167 -17.5 138.5 -52.5s54.5 -80.833 54.5 -137.5c0 -56 -18.167 -101.833 -54.5 -137.5s-82.5 -53.5 -138.5 -53.5c-53.333 0 -98 18 -134 54s-54 81.667 -54 137z" />
    <glyph glyph-name="guilsinglleft" unicode="&#x2039;" horiz-adv-x="336" 
d="M266 143l-87 -61l-147 227l239 215l64 -79l-170 -149z" />
    <glyph glyph-name="guilsinglright" unicode="&#x203a;" horiz-adv-x="330" 
d="M70 465l87 61l147 -227l-239 -215l-64 79l170 149z" />
    <glyph glyph-name="fraction" unicode="&#x2044;" horiz-adv-x="707" 
d="M101 0h-95l645 750h95z" />
    <glyph glyph-name="uni2113" unicode="&#x2113;" horiz-adv-x="390" 
d="M263 514l8.99805 5c40.667 22.667 69.834 45 87.501 67s26.5 46 26.5 72c0 36 -12.667 54 -38 54s-42.666 -19.667 -51.999 -59zM250.998 457l-72 -314c-4 -18 -6 -32.667 -6 -44c0 -24.667 9.33301 -37 28 -37c29.333 0 66.666 30 111.999 90l24 -20
c-62.667 -96 -129 -144 -199 -144c-32 0 -56.833 8.83301 -74.5 26.5s-26.5 40.834 -26.5 69.501c0 12.667 2.33301 28.334 7 47.001l61 264l-66 -35l13 56l64 33l35 148c12.667 55.333 36.834 96.666 72.501 123.999s73.5 41 113.5 41c29.333 0 54.5 -7.83301 75.5 -23.5
s31.5 -40.167 31.5 -73.5c0 -66.667 -45.333 -125.334 -136 -176.001z" />
    <glyph glyph-name="afii61352" unicode="&#x2116;" horiz-adv-x="1208" 
d="M1141 598c0 30.667 -9.33301 55.667 -28 75s-42.667 29 -72 29c-29.3369 0 -53.1699 -9.66699 -71.499 -29c-18.333 -19.333 -27.5 -44.333 -27.5 -75c0 -31.333 9.16699 -56.833 27.5 -76.5s42.166 -29.5 71.499 -29.5s53.333 9.83301 72 29.5s28 45.167 28 76.5zM608 0
h-128l-197 515l-117 -515h-138l171 750h141l189 -493l112 493h138zM851 597c0 56 17.833 101.667 53.5 137s80.5 53 134.5 53c56 0 102.167 -17.5 138.5 -52.5s54.5 -80.833 54.5 -137.5c0 -56 -18.167 -101.833 -54.5 -137.5s-82.5 -53.5 -138.5 -53.5
c-53.333 0 -98 18 -134 54s-54 81.667 -54 137z" />
    <glyph glyph-name="trademark" unicode="&#x2122;" horiz-adv-x="763" 
d="M779 390h-55v253l-96 -253h-52l-96 253v-253h-53v312h92l84 -233l84 233h92v-312zM395 702v-51h-116v-261h-55v261h-116v51h287z" />
    <glyph glyph-name="estimated" unicode="&#x212e;" horiz-adv-x="535" 
d="M384 293l-0.000976562 120c-27.333 37.333 -66 56 -116 56c-29.333 0 -56.666 -6.83301 -81.999 -20.5s-45.333 -32.5 -60 -56.5v-99h258zM274.999 31c84 0 133.667 40 149 120h46c-7.33301 -53.333 -29.5 -93.833 -66.5 -121.5s-81.167 -41.5 -132.5 -41.5
c-64.667 0 -118.5 21.667 -161.5 65s-64.5 108 -64.5 194s21.333 151.667 64 197s95.667 68 159 68c58 0 107 -18.5 147 -55.5s60 -89.833 60 -158.5c0 -22.667 -1 -40 -3 -52h-346v-129c30 -57.333 79.667 -86 149 -86z" />
    <glyph glyph-name="onethird" unicode="&#x2153;" horiz-adv-x="1020" 
d="M904 234c33.333 -18 49.999 -46.001 49.999 -84.001c0 -42.667 -15.667 -77.834 -47 -105.501s-70.333 -41.5 -117 -41.5c-51.333 0 -90.333 13.5 -117 40.5s-40 56.833 -40 89.5c0 4 0.666992 10 2 18h82v-6c0 -19.333 6.33301 -35.5 19 -48.5s30 -19.5 52 -19.5
c24.667 0 43.667 6.16699 57 18.5s20 27.833 20 46.5c0 36.667 -23 55 -69 55h-34l18 73h31c28 0 49.333 6.33301 64 19s22 28.667 22 48c0 14.667 -5.5 26.334 -16.5 35.001s-26.833 13 -47.5 13c-57.3359 0 -88.6689 -29.333 -93.999 -88h-85
c2.66895 40 14.3359 73.167 35 99.5c20.667 26.334 43.5 44.167 68.5 53.5s51.167 14 78.5 14c39.333 0 74 -10.5 104 -31.5s45 -49.5 45 -85.5c0 -25.333 -8 -48.666 -24 -69.999c-16 -21.334 -35 -35.667 -57 -43zM71.999 293.999l16.999 76.001h103l61 265
c-30.667 -14.667 -64.667 -23.334 -102 -26.001l19 82c42.667 4.66699 82.334 22.334 119.001 53h70l-86 -374h103l-17 -76h-287zM289.998 0h-95l645 750h95z" />
    <glyph glyph-name="twothirds" unicode="&#x2154;" horiz-adv-x="1020" 
d="M913 234c33.333 -18 50 -46.001 50 -84.001c0 -42.667 -15.667 -77.834 -47 -105.501s-70.333 -41.5 -117 -41.5c-51.333 0 -90.333 13.5 -117 40.5s-40 56.833 -40 89.5c0 4 0.666992 10 2 18h82v-6c0 -19.333 6.33301 -35.5 19 -48.5s30 -19.5 52 -19.5
c24.667 0 43.667 6.16699 57 18.5s20 27.833 20 46.5c0 36.667 -23 55 -69 55h-34l18 73h31c28 0 49.333 6.33301 64 19s22 28.667 22 48c0 14.667 -5.5 26.334 -16.5 35.001s-26.833 13 -47.5 13c-57.335 0 -88.668 -29.333 -94 -88h-85c2.66699 40 14.334 73.167 35 99.5
c20.667 26.334 43.5 44.167 68.5 53.5s51.167 14 78.5 14c39.333 0 74 -10.5 104 -31.5s45 -49.5 45 -85.5c0 -25.333 -8 -48.666 -24 -69.999c-16 -21.334 -35 -35.667 -57 -43zM304 -0.000976562h-95l645 750h95zM408 371.999l-17.002 -77.001h-322l16 73l117 93
c8.66699 7.33301 23.834 19.333 45.5 36c21.667 16.667 36.167 28 43.5 34s16.833 14.833 28.5 26.5s19.334 22 23.001 31s5.5 18.5 5.5 28.5c0 17.333 -6 30.833 -18 40.5s-27.333 14.5 -46 14.5c-22 0 -41.167 -7.16699 -57.5 -21.5
c-16.334 -14.333 -24.167 -36.833 -23.5 -67.5h-91c1.33301 56 20.5 97.833 57.5 125.5s78.833 41.5 125.5 41.5c42 0 76.167 -11.333 102.5 -34s39.5 -52.667 39.5 -90c0 -8.66699 -1 -17.334 -3 -26.001s-4 -16.5 -6 -23.5s-5.83301 -14.5 -11.5 -22.5
c-5.66992 -8 -10.3369 -14.833 -14 -20.5c-3.66699 -5.66699 -10.167 -12.667 -19.5 -21s-16.166 -14.666 -20.499 -18.999s-12.5 -11.166 -24.5 -20.499s-20.5 -15.833 -25.5 -19.5s-14.667 -10.667 -29 -21s-23.833 -17.5 -28.5 -21.5l-53 -39h206z" />
    <glyph glyph-name="onefifth" unicode="&#x2155;" horiz-adv-x="1020" 
d="M775 384l-30.999 -97.999c18 12.667 39.667 19 65 19c39.333 0 70.166 -12.333 92.499 -37s33.5 -54.667 33.5 -90c0 -45.333 -14.5 -85.833 -43.5 -121.5s-68.833 -53.5 -119.5 -53.5c-42 0 -78.167 12.833 -108.5 38.5c-30.3359 25.667 -45.1689 61.5 -44.5 107.5h79
c0 -24.667 7.16699 -42.667 21.5 -54s31.833 -17 52.5 -17c26.667 0 47.5 8.5 62.5 25.5s22.5 36.5 22.5 58.5c0 19.333 -5.66699 35.666 -17 48.999c-11.3369 13.333 -27.6699 20.333 -49 21h-3c-29.333 0 -54 -11 -74 -33h-69l80 260h246l-19 -75h-177zM88.001 294.001
l16.999 76.001h103l61 265c-30.667 -14.667 -64.667 -23.334 -102 -26.001l19 82c42.667 4.66699 82.334 22.334 119.001 53h70l-86 -374h103l-17 -76h-287zM306 0.00195312h-95l645 750h95z" />
    <glyph glyph-name="twofifths" unicode="&#x2156;" horiz-adv-x="1020" 
d="M787 384l-30.999 -97.999c18 12.667 39.667 19 65 19c39.333 0 70.166 -12.333 92.499 -37s33.5 -54.667 33.5 -90c0 -45.333 -14.5 -85.833 -43.5 -121.5s-68.833 -53.5 -119.5 -53.5c-42 0 -78.167 12.833 -108.5 38.5c-30.3359 25.667 -45.1689 61.5 -44.5 107.5h79
c0 -24.667 7.16699 -42.667 21.5 -54s31.833 -17 52.5 -17c26.667 0 47.5 8.5 62.5 25.5s22.5 36.5 22.5 58.5c0 19.333 -5.66699 35.666 -17 48.999c-11.3369 13.333 -27.6699 20.333 -49 21h-3c-29.333 0 -54 -11 -74 -33h-69l80 260h246l-19 -75h-177z
M318.001 0.000976562h-95l645 750h95zM422.001 372.001l-17.002 -77.001h-322l16 73l117 93c8.66699 7.33301 23.834 19.333 45.5 36c21.667 16.667 36.167 28 43.5 34s16.833 14.833 28.5 26.5s19.334 22 23.001 31s5.5 18.5 5.5 28.5c0 17.333 -6 30.833 -18 40.5
s-27.333 14.5 -46 14.5c-22 0 -41.167 -7.16699 -57.5 -21.5c-16.334 -14.333 -24.167 -36.833 -23.5 -67.5h-91c1.33301 56 20.5 97.833 57.5 125.5s78.833 41.5 125.5 41.5c42 0 76.167 -11.333 102.5 -34s39.5 -52.667 39.5 -90c0 -8.66699 -1 -17.334 -3 -26.001
s-4 -16.5 -6 -23.5s-5.83301 -14.5 -11.5 -22.5c-5.66992 -8 -10.3369 -14.833 -14 -20.5c-3.66699 -5.66699 -10.167 -12.667 -19.5 -21s-16.166 -14.666 -20.499 -18.999s-12.5 -11.166 -24.5 -20.499s-20.5 -15.833 -25.5 -19.5s-14.667 -10.667 -29 -21
s-23.833 -17.5 -28.5 -21.5l-53 -39h206z" />
    <glyph glyph-name="threefifths" unicode="&#x2157;" horiz-adv-x="1020" 
d="M772 384l-30.999 -97.999c18 12.667 39.667 19 65 19c39.333 0 70.166 -12.333 92.499 -37s33.5 -54.667 33.5 -90c0 -45.333 -14.5 -85.833 -43.5 -121.5s-68.833 -53.5 -119.5 -53.5c-42 0 -78.167 12.833 -108.5 38.5c-30.3359 25.667 -45.1689 61.5 -44.5 107.5h79
c0 -24.667 7.16699 -42.667 21.5 -54s31.833 -17 52.5 -17c26.667 0 47.5 8.5 62.5 25.5s22.5 36.5 22.5 58.5c0 19.333 -5.66699 35.666 -17 48.999c-11.3369 13.333 -27.6699 20.333 -49 21h-3c-29.333 0 -54 -11 -74 -33h-69l80 260h246l-19 -75h-177z
M303.001 0.000976562h-95l645 750h95zM383.001 520.001c33.333 -18 49.999 -46.001 49.999 -84.001c0 -42.667 -15.667 -77.834 -47 -105.5c-31.333 -27.667 -70.333 -41.5 -117 -41.5c-51.333 0 -90.333 13.5 -117 40.5s-40 56.833 -40 89.5c0 4 0.666992 10 2 18h82v-6
c0 -19.333 6.33301 -35.5 19 -48.5s30 -19.5 52 -19.5c24.667 0 43.667 6.16699 57 18.5s20 27.833 20 46.5c0 36.667 -23 55 -69 55h-34l18 73h31c28 0 49.333 6.33301 64 19s22 28.667 22 48c0 14.6719 -5.5 26.3389 -16.5 35.001c-11 8.66699 -26.833 13 -47.5 13
c-57.333 0 -88.666 -29.333 -93.999 -88h-85c2.66699 40 14.334 73.167 35 99.5c20.667 26.333 43.5 44.166 68.5 53.499s51.167 14 78.5 14c39.333 0 74 -10.5 104 -31.5s45 -49.5 45 -85.5c0 -25.3359 -8 -48.6689 -24 -70c-16 -21.335 -35 -35.668 -57 -42.999z" />
    <glyph glyph-name="fourfifths" unicode="&#x2158;" horiz-adv-x="1020" 
d="M805 384l-30.999 -97.999c18 12.667 39.667 19 65 19c39.333 0 70.166 -12.333 92.499 -37s33.5 -54.667 33.5 -90c0 -45.333 -14.5 -85.833 -43.5 -121.5s-68.833 -53.5 -119.5 -53.5c-42 0 -78.167 12.833 -108.5 38.5c-30.335 25.667 -45.168 61.5 -44.5 107.5h79
c0 -24.667 7.16699 -42.667 21.5 -54s31.833 -17 52.5 -17c26.667 0 47.5 8.5 62.5 25.5s22.5 36.5 22.5 58.5c0 19.333 -5.66699 35.666 -17 48.999c-11.3369 13.333 -27.6699 20.333 -49 21h-3c-29.333 0 -54 -11 -74 -33h-69l80 260h246l-19 -75h-177zM296.001 457.001
l41 174l-151 -174h110zM438.001 382.001h-75l-20 -87h-84l20 88h-199l15 65l258 297h94l-66 -288h74zM336.001 0.000976562h-95l645 750h95z" />
    <glyph glyph-name="onesixth" unicode="&#x2159;" horiz-adv-x="1020" 
d="M792 76c24.667 0 45.5 7.83301 62.5 23.5s25.5 36.5 25.5 62.5c0 24 -7.33301 42.333 -22 55s-32.667 19 -54 19c-24 0 -44.667 -7.83301 -62 -23.5s-26 -36.5 -26 -62.5c0 -24 7.33301 -42.333 22 -55s32.667 -19 54 -19zM822 310c36.667 0 68.167 -11.834 94.5 -35.501
s39.5 -57.167 39.5 -100.5c0 -47.333 -15.333 -87.833 -46 -121.5s-70.334 -50.5 -119.001 -50.5c-49.335 0 -88.168 17.833 -116.5 53.5c-28.333 35.667 -42.5 80.834 -42.5 135.501c0 30 4.33301 60.5 13 91.5c8.67188 31 21.3389 60.333 38.001 88
c16.667 27.667 39.167 50.167 67.5 67.5s60.5 26 96.5 26c40 0 72.167 -10.833 96.5 -32.5s37.833 -51.834 40.5 -90.5h-76c0 18 -6.16699 31.667 -18.5 41c-12.3369 9.33301 -28.1699 14 -47.5 14c-31.333 0 -58.833 -13.5 -82.5 -40.5s-38.167 -57.5 -43.5 -91.5
c26 30.667 61.333 46 106 46zM71 293.999l16.999 76.001h103l61 265c-30.667 -14.667 -64.667 -23.334 -102 -26.001l19 82c42.667 4.66699 82.334 22.334 119.001 53h70l-86 -374h103l-17 -76h-287zM288.999 0h-95l645 750h95z" />
    <glyph glyph-name="fivesixths" unicode="&#x215a;" horiz-adv-x="1020" 
d="M787 76c24.667 0 45.5 7.83301 62.5 23.5s25.5 36.5 25.5 62.5c0 24 -7.33301 42.333 -22 55s-32.667 19 -54 19c-24 0 -44.667 -7.83301 -62 -23.5s-26 -36.5 -26 -62.5c0 -24 7.33301 -42.333 22 -55s32.667 -19 54 -19zM817 310
c36.667 0 68.168 -11.834 94.501 -35.501s39.5 -57.167 39.5 -100.5c0 -47.333 -15.333 -87.833 -46 -121.5s-70.334 -50.5 -119.001 -50.5c-49.335 0 -88.168 17.833 -116.5 53.5c-28.333 35.667 -42.5 80.834 -42.5 135.501c0 30 4.33301 60.5 13 91.5
c8.66797 31 21.335 60.333 38 88c16.667 27.667 39.167 50.167 67.5 67.5s60.5 26 96.5 26c40 0 72.167 -10.833 96.5 -32.5s37.833 -51.834 40.5 -90.5h-76c0 18 -6.16699 31.667 -18.5 41c-12.3369 9.33301 -28.1699 14 -47.5 14c-31.333 0 -58.833 -13.5 -82.5 -40.5
s-38.167 -57.5 -43.5 -91.5c26 30.667 61.333 46 106 46zM259.001 669.999l-31.002 -97.999c18 12.667 39.667 19 65 19c39.334 0 70.167 -12.333 92.5 -37s33.5 -54.667 33.5 -90c0 -45.333 -14.5 -85.833 -43.5 -121.5s-68.833 -53.5 -119.5 -53.5
c-42 0 -78.167 12.833 -108.5 38.5s-45.166 61.5 -44.499 107.5h79c0 -24.667 7.16699 -42.667 21.5 -54s31.833 -17 52.5 -17c26.667 0 47.5 8.5 62.5 25.5s22.5 36.5 22.5 58.5c0 19.334 -5.66699 35.667 -17 48.999c-11.333 13.333 -27.666 20.333 -48.999 21h-3
c-29.333 0 -54 -11 -74 -33h-69l80 260h246l-19 -75h-177zM283.999 0h-95l645 750h95z" />
    <glyph glyph-name="oneeighth" unicode="&#x215b;" horiz-adv-x="1020" 
d="M715 131c0 -18 6.33301 -31.832 19 -41.499c12.6699 -9.66699 28.3369 -14.5 47.001 -14.5c21.333 0 40.166 6.16699 56.499 18.5s24.5 29.166 24.5 50.499c0 18 -6 31.5 -18 40.5s-27.333 13.5 -46 13.5c-22 0 -41.333 -5.83301 -58 -17.5s-25 -28.167 -25 -49.5z
M895 343.001c0 16.667 -6 29.333 -18 38s-27 13 -45 13c-20 0 -37.333 -5.33301 -52 -16s-22 -25.667 -22 -45c0 -32.667 20.667 -49 62 -49c20.6699 0 38.3369 5 53 15c14.667 10 22 24.667 22 44zM893 240c35.333 -22 53.001 -53.334 53.001 -94.001
c0 -43.333 -17.333 -78 -52 -104s-74.334 -39 -119.001 -39c-39.335 0 -73.168 10.667 -101.5 32c-28.333 21.333 -42.5 51 -42.5 89c0 30 8.83301 55.833 26.5 77.5c17.668 21.667 40.835 35.834 69.5 42.5c-32 19.333 -48 49 -48 89c0 40.667 15.5 72.667 46.5 96
s67.167 35 108.5 35c38.667 0 71.667 -10.167 99 -30.5s41 -49.166 41 -86.499c0 -52 -27 -87.667 -81 -107zM64.001 293.999l16.999 76.001h103l61 265c-30.667 -14.667 -64.667 -23.334 -102 -26.001l19 82c42.667 4.66699 82.334 22.334 119.001 53h70l-86 -374h103
l-17 -76h-287zM282 0h-95l645 750h95z" />
    <glyph glyph-name="threeeighths" unicode="&#x215c;" horiz-adv-x="1020" 
d="M701 131c0 -18 6.33301 -31.832 19 -41.499c12.6699 -9.66699 28.3369 -14.5 47.001 -14.5c21.333 0 40.166 6.16699 56.499 18.5s24.5 29.166 24.5 50.499c0 18 -6 31.5 -18 40.5s-27.333 13.5 -46 13.5c-22 0 -41.333 -5.83301 -58 -17.5s-25 -28.167 -25 -49.5z
M881 343.001c0 16.667 -6 29.333 -18 38s-27 13 -45 13c-20 0 -37.333 -5.33301 -52 -16s-22 -25.667 -22 -45c0 -32.667 20.667 -49 62 -49c20.6699 0 38.3369 5 53 15c14.667 10 22 24.667 22 44zM879 240c35.333 -22 53.001 -53.334 53.001 -94.001
c0 -43.333 -17.333 -78 -52 -104s-74.334 -39 -119.001 -39c-39.334 0 -73.167 10.667 -101.5 32s-42.5 51 -42.5 89c0 30 8.83301 55.833 26.5 77.5s40.834 35.834 69.5 42.5c-32 19.333 -48 49 -48 89c0 40.667 15.5 72.667 46.5 96s67.167 35 108.5 35
c38.667 0 71.667 -10.167 99 -30.5s41 -49.166 41 -86.499c0 -52 -27 -87.667 -81 -107zM268.001 -0.000976562h-95l645 750h95zM369.001 519.999c33.333 -18 49.998 -46.001 49.998 -84.001c0 -42.667 -15.667 -77.834 -47 -105.5
c-31.333 -27.667 -70.333 -41.5 -117 -41.5c-51.333 0 -90.333 13.5 -117 40.5s-40 56.833 -40 89.5c0 4 0.666992 10 2 18h82v-6c0 -19.333 6.33301 -35.5 19 -48.5s30 -19.5 52 -19.5c24.667 0 43.667 6.16699 57 18.5s20 27.833 20 46.5c0 36.667 -23 55 -69 55h-34
l18 73h31c28 0 49.333 6.33301 64 19s22 28.667 22 48c0 14.6719 -5.5 26.3389 -16.5 35.001c-11 8.66699 -26.833 13 -47.5 13c-57.333 0 -88.666 -29.333 -93.999 -88h-85c2.66699 40 14.334 73.167 35.001 99.5s43.5 44.166 68.5 53.499s51.167 14 78.5 14
c39.333 0 74 -10.5 104 -31.5s45 -49.5 45 -85.5c0 -25.3359 -8 -48.6689 -24 -70c-16 -21.335 -35 -35.668 -57 -42.999z" />
    <glyph glyph-name="fiveeighths" unicode="&#x215d;" horiz-adv-x="1020" 
d="M709 131c0 -18 6.33301 -31.832 19 -41.499c12.6699 -9.66699 28.3369 -14.5 47.001 -14.5c21.333 0 40.166 6.16699 56.499 18.5s24.5 29.166 24.5 50.499c0 18 -6 31.5 -18 40.5s-27.333 13.5 -46 13.5c-22 0 -41.333 -5.83301 -58 -17.5s-25 -28.167 -25 -49.5z
M889 343.001c0 16.667 -6 29.333 -18 38s-27 13 -45 13c-20 0 -37.333 -5.33301 -52 -16s-22 -25.667 -22 -45c0 -32.667 20.667 -49 62 -49c20.6699 0 38.3369 5 53 15c14.667 10 22 24.667 22 44zM887 240c35.333 -22 53.001 -53.334 53.001 -94.001
c0 -43.333 -17.333 -78 -52 -104s-74.334 -39 -119.001 -39c-39.335 0 -73.168 10.667 -101.5 32c-28.333 21.333 -42.5 51 -42.5 89c0 30 8.83301 55.833 26.5 77.5c17.6689 21.667 40.8359 35.834 69.5 42.5c-32 19.333 -48 49 -48 89c0 40.667 15.5 72.667 46.5 96
s67.167 35 108.5 35c38.667 0 71.667 -10.167 99 -30.5s41 -49.166 41 -86.499c0 -52 -27 -87.667 -81 -107zM251.001 669.999l-31.002 -97.999c18 12.667 39.667 19 65 19c39.334 0 70.167 -12.333 92.5 -37s33.5 -54.667 33.5 -90c0 -45.333 -14.5 -85.833 -43.5 -121.5
s-68.833 -53.5 -119.5 -53.5c-42 0 -78.167 12.833 -108.5 38.5s-45.166 61.5 -44.499 107.5h79c0 -24.667 7.16699 -42.667 21.5 -54s31.833 -17 52.5 -17c26.667 0 47.5 8.5 62.5 25.5s22.5 36.5 22.5 58.5c0 19.334 -5.66699 35.667 -17 48.999
c-11.333 13.333 -27.666 20.333 -48.999 21h-3c-29.333 0 -54 -11 -74 -33h-69l80 260h246l-19 -75h-177zM275.999 0h-95l645 750h95z" />
    <glyph glyph-name="seveneighths" unicode="&#x215e;" horiz-adv-x="1020" 
d="M706 131c0 -18 6.33301 -31.832 19 -41.499c12.6699 -9.66699 28.3369 -14.5 47.001 -14.5c21.333 0 40.166 6.16699 56.499 18.5s24.5 29.166 24.5 50.499c0 18 -6 31.5 -18 40.5s-27.333 13.5 -46 13.5c-22 0 -41.333 -5.83301 -58 -17.5s-25 -28.167 -25 -49.5z
M886 343.001c0 16.667 -6 29.333 -18 38s-27 13 -45 13c-20 0 -37.333 -5.33301 -52 -16s-22 -25.667 -22 -45c0 -32.667 20.667 -49 62 -49c20.6699 0 38.3369 5 53 15c14.667 10 22 24.667 22 44zM884 240c35.333 -22 53.001 -53.334 53.001 -94.001
c0 -43.333 -17.333 -78 -52 -104s-74.334 -39 -119.001 -39c-39.335 0 -73.168 10.667 -101.5 32c-28.333 21.333 -42.5 51 -42.5 89c0 30 8.83301 55.833 26.5 77.5c17.6689 21.667 40.8359 35.834 69.5 42.5c-32 19.333 -48 49 -48 89c0 40.667 15.5 72.667 46.5 96
s67.167 35 108.5 35c38.667 0 71.667 -10.167 99 -30.5s41 -49.166 41 -86.499c0 -52 -27 -87.667 -81 -107zM478.001 678.999l-243 -384h-87l235 370h-225l20 80h317zM273.001 -0.000976562h-95l645 750h95z" />
    <glyph glyph-name="partialdiff" unicode="&#x2202;" 
d="M300 111c32.667 0 61.167 12.166 85.5 36.499s36.5 57.5 36.5 99.5c0 40 -12 70.667 -36 92s-53 32 -87 32s-63.5 -11.667 -88.5 -35s-37.5 -55.666 -37.5 -96.999c0 -42.667 12.333 -74.667 37 -96s54.667 -32 90 -32zM337 749.999
c22.667 0 44.1641 -2.16797 64.4971 -6.50098s42.5 -13.5 66.5 -27.5s44.5 -32.333 61.5 -55s31.333 -54.334 43 -95.001s17.5 -88 17.5 -142c0 -136 -29.333 -242.667 -88 -320s-132 -116 -220 -116c-66 0 -122 21.333 -168 64s-69 100.667 -69 174
c0 80.667 24.333 145.834 73 195.501s104.334 74.5 167.001 74.5c40 0 77.333 -8.66699 112 -26s59.334 -42 74.001 -74c2 18.667 3 36.334 3 53.001c0 62 -11.333 108.833 -34 140.5s-54.334 47.5 -95 47.5c-66 0 -106 -30 -120 -90h-134
c10.667 63.333 37.834 113 81.501 149s98.5 54 164.5 54z" />
    <glyph glyph-name="product" unicode="&#x220f;" horiz-adv-x="842" 
d="M619 634h-220l-145 -634h-130l145 634h-96l27 116h671l-27 -116h-96l-145 -634h-129z" />
    <glyph glyph-name="summation" unicode="&#x2211;" horiz-adv-x="692" 
d="M520 362l-297 -232h405l-30 -130h-611l30 131l317 243l-184 246l31 130h559l-31 -130h-381z" />
    <glyph glyph-name="minus" unicode="&#x2212;" horiz-adv-x="520" 
d="M44 257l16 69h420l-16 -69h-420z" />
    <glyph glyph-name="radical" unicode="&#x221a;" horiz-adv-x="662" 
d="M306 0h-113l-109 552h131l66 -374l335 572h135z" />
    <glyph glyph-name="infinity" unicode="&#x221e;" horiz-adv-x="808" 
d="M214 192c30.667 0 57.665 11.665 80.998 34.998s35 53.333 35 90c0 28.667 -7.66699 50.834 -23 66.501s-35.666 23.5 -60.999 23.5c-33.333 0 -60.5 -12.833 -81.5 -38.5s-31.5 -54.5 -31.5 -86.5c0 -25.333 6.83301 -46.666 20.5 -63.999s33.834 -26 60.501 -26z
M532.998 190.998c35.333 0 63.668 13 85.001 39s32 55.333 32 88c0 26 -7.16699 47.5 -21.5 64.5s-34.5 25.5 -60.5 25.5c-30.667 0 -58.334 -12 -83.001 -36s-37 -55 -37 -93c0 -30 8 -52.167 24 -66.5s36.333 -21.5 61 -21.5zM593 543.998
c54.667 0 96.834 -20.334 126.5 -61.001c29.667 -40.667 44.5 -90.667 44.5 -150c0 -45.333 -8.5 -88.666 -25.5 -129.999s-43.333 -76.166 -79 -104.499s-76.834 -42.5 -123.501 -42.5c-48 0 -86.333 13.167 -115 39.5s-46.667 57.166 -54 92.499
c-38.667 -88 -98 -132 -178 -132c-56 0 -98.5 21 -127.5 63s-43.5 92.667 -43.5 152c0 46 8.5 89.5 25.5 130.5s43.333 75 79 102s76.834 40.5 123.501 40.5c45.333 0 81.333 -11.833 108 -35.5s44 -55.834 52 -96.5c20 40 46 72 78 96s68.333 36 109 36z" />
    <glyph glyph-name="integral" unicode="&#x222b;" horiz-adv-x="321" 
d="M425 644l-66.001 0.000976562c-20 0 -34.5 -4.33301 -43.5 -13s-15.833 -23.667 -20.5 -45l-151 -649c-12 -52.667 -31.5 -89.667 -58.5 -111s-61.167 -32 -102.5 -32h-98l27 118h46c18.667 0 32.334 4 41.001 12s15 21.333 19 40l154 666
c11.333 47.333 31 81.166 59 101.499s65 30.5 111 30.5h111z" />
    <glyph glyph-name="approxequal" unicode="&#x2248;" horiz-adv-x="573" 
d="M499 158c-29.333 -14.667 -63.001 -22 -101.001 -22c-26 0 -59.333 7.66699 -100 23s-74.334 23 -101.001 23c-50 0 -89 -12 -117 -36v96c30.667 20.667 68.334 31 113.001 31c26 0 59.333 -7.83301 100 -23.5s75.334 -23.5 104.001 -23.5c46.667 0 80.667 10.333 102 31
v-99zM498.999 328c-29.333 -14.667 -63.001 -22 -101.001 -22c-26 0 -59.333 7.66699 -100 23s-74.334 23 -101.001 23c-50 0 -89 -12 -117 -36v96c30.667 20.667 68.334 31 113.001 31c26 0 59.333 -7.83301 100 -23.5s75.334 -23.5 104.001 -23.5
c46.667 0 80.667 10.333 102 31v-99z" />
    <glyph glyph-name="notequal" unicode="&#x2260;" horiz-adv-x="520" 
d="M325 331l-44 -79h194l-20 -78h-217l-71 -129h-67l71 129h-136l20 78h159l44 79h-186l18 79h211l73 132h67l-73 -132h142l-18 -79h-167z" />
    <glyph glyph-name="lessequal" unicode="&#x2264;" horiz-adv-x="520" 
d="M419 65l-14 -65h-397l15 65h396zM533 565l-367 -186l266 -181l-43 -61l-313 220l11 51l415 219z" />
    <glyph glyph-name="greaterequal" unicode="&#x2265;" horiz-adv-x="520" 
d="M407 65l-14 -65h-397l15 65h396zM40 199l367 186l-266 181l43 61l313 -220l-11 -51l-415 -219z" />
    <glyph glyph-name="lozenge" unicode="&#x25ca;" horiz-adv-x="603" 
d="M463 367l-91 192l-196 -206l92 -192zM234 -12l-186 372l358 371l185 -371z" />
    <glyph glyph-name="zero.osf" horiz-adv-x="678" 
d="M322 109c54 0 97.667 21.832 131 65.499s50 93.167 50 148.5c0 44.667 -11.833 81.834 -35.5 111.501s-57.5 44.5 -101.5 44.5c-54 0 -97.5 -21.333 -130.5 -64s-49.5 -92 -49.5 -148c0 -44.667 11.5 -82.167 34.5 -112.5s56.833 -45.5 101.5 -45.5zM373 602.999
c85.333 0 150.167 -26.833 194.5 -80.5s66.5 -118.5 66.5 -194.5c0 -56.667 -11.833 -110.5 -35.5 -161.5s-60.5 -93.833 -110.5 -128.5s-107.667 -52 -173 -52c-86 0 -151 27.167 -195 81.5s-66 119.5 -66 195.5c0 90 29 169.167 87 237.5s135.333 102.5 232 102.5z" />
    <glyph glyph-name="one.osf" horiz-adv-x="549" 
d="M-8 0l28 124h153l79 343h-153l29 124h439l-29 -124h-153l-79 -343h153l-28 -124h-439z" />
    <glyph glyph-name="two.osf" horiz-adv-x="573" 
d="M491 124l-30 -124h-462l26 109l172 114c78 51.333 131 89.833 159 115.5s42 51.5 42 77.5c0 21.333 -7.66699 38 -23 50s-34.333 18 -57 18c-32.667 0 -62.334 -12.667 -89.001 -38s-40 -59.333 -40 -102h-135c4 43.333 14.5 82 31.5 116c17 34.001 38.5 61.334 64.5 82
c26 20.667 54.167 36.167 84.5 46.5c30.334 10.333 62.167 15.5 95.5 15.5c54.667 0 101 -15 139 -45s57 -72 57 -126c0 -20.667 -2.33301 -39.834 -7 -57.5c-4.66699 -17.667 -13.334 -35.167 -26.001 -52.5s-24.167 -32 -34.5 -44s-27.166 -26.833 -50.499 -44.5
s-41.666 -31.167 -54.999 -40.5s-35.333 -24 -66 -44l-39 -26h243z" />
    <glyph glyph-name="three.osf" 
d="M426 223c33.334 -9.33398 60.167 -26.668 80.499 -52.001c20.333 -25.333 30.5 -58 30.5 -98c0 -68 -27 -123.667 -81 -167s-119 -65 -195 -65c-76.667 0 -137.167 22.333 -181.5 67s-66.5 98.334 -66.5 161.001c0 6.66699 0.666992 16 2 28h138
c-2.66699 -8.66699 -4 -19 -4 -31c0 -29.333 10.5 -54.166 31.5 -74.499s50.5 -30.5 88.5 -30.5s69.167 10 93.5 30s36.5 47 36.5 81c0 58.667 -41.333 88 -124 88h-59l28 120h46c50.667 0 90.834 11.667 120.501 35s44.5 52 44.5 86c0 25.333 -8.33301 45.833 -25 61.5
s-41.334 23.5 -74 23.5c-35.333 0 -67 -12.333 -95 -37s-44 -60 -48 -106h-135c6 80 37 143.333 93 190s120.667 70 194 70c66.667 0 121.167 -17.167 163.5 -51.5c42.333 -34.334 63.5 -79.501 63.5 -135.501c0 -50 -16.5 -93 -49.5 -129s-71.833 -57.333 -116.5 -64z" />
    <glyph glyph-name="four.osf" 
d="M144 117h205l74 314zM286 -149l33 144h-351l25 110l421 483h175l-110 -471h100l-27 -124h-101l-33 -142h-132z" />
    <glyph glyph-name="five.osf" 
d="M268 463l-52.001 -160c34.667 28.667 76.334 43 125.001 43c66.667 0 117.667 -21.833 153 -65.5s53 -96.167 53 -157.5c0 -77.333 -27 -144.166 -81 -200.499s-122.667 -84.5 -206 -84.5c-70 0 -129.167 21 -177.5 63s-72.5 100.667 -72.5 176v17h131
c-0.666992 -4.66699 -1 -11.667 -1 -21c0 -38.667 12.167 -68.167 36.5 -88.5s54.5 -30.5 90.5 -30.5c45.334 0 81.667 15.167 109 45.5s41 66.5 41 108.5c0 33.333 -9.33301 61.166 -28 83.499s-46 33.5 -82 33.5c-41.333 0 -80.333 -14.333 -117 -43h-134l128 405h404
l-28 -124h-292z" />
    <glyph glyph-name="six.osf" 
d="M345 371c-37.333 0 -70.834 -12.333 -100.501 -37s-44.5 -58.667 -44.5 -102c0 -38 11.5 -67.833 34.5 -89.5s51.167 -32.5 84.5 -32.5c36.667 0 69.667 12.667 99 38s44 60.333 44 105c0 38 -11.167 67.167 -33.5 87.5s-50.166 30.5 -83.499 30.5zM408.999 750
c64.667 0 119.168 -18.667 163.501 -56c44.333 -37.334 67.833 -89.667 70.5 -157h-129c-2.66699 32.667 -14.5 57.5 -35.5 74.5s-47.167 25.5 -78.5 25.5c-50 0 -94.833 -20.833 -134.5 -62.5s-63.5 -100.5 -71.5 -176.5c16.667 33.333 41.5 58 74.5 74s68.833 24 107.5 24
c60 0 111 -19.167 153 -57.5s63 -93.833 63 -166.5c0 -80.667 -25.833 -148.167 -77.5 -202.5s-117.5 -81.5 -197.5 -81.5c-80.667 0 -143 29.333 -187 88s-66 139.334 -66 242.001c0 131.333 33.667 236.166 101 314.499s148.666 117.5 243.999 117.5z" />
    <glyph glyph-name="seven.osf" 
d="M600 481l-397 -630h-143l384 607h-398l30 130h550z" />
    <glyph glyph-name="eight.osf" 
d="M291 101c38.667 0 72.667 10.833 102 32.5s44 50.5 44 86.5c0 30.667 -11.333 54.667 -34 72s-50.667 26 -84 26c-38 0 -71.5 -10.833 -100.5 -32.5s-43.5 -50.5 -43.5 -86.5c0 -31.333 11.167 -55.5 33.5 -72.5s49.833 -25.5 82.5 -25.5zM379 634
c-32.667 0 -61.667 -9.66602 -87 -28.999s-38 -44.333 -38 -75c0 -26.667 9.66699 -47.167 29 -61.5c19.334 -14.333 43.667 -21.5 73 -21.5c33.333 0 62.833 9.16699 88.5 27.5s38.5 42.166 38.5 71.499c0 28 -10 49.667 -30 65s-44.667 23 -74 23zM474 384.001
c60 -33.333 89.999 -84.667 89.999 -154c0 -76 -27 -135.333 -81 -178s-120 -64 -198 -64c-66 0 -122.167 17.667 -168.5 53s-69.5 86 -69.5 152c0 49.333 14.5 90.833 43.5 124.5s68.833 58.5 119.5 74.5c-25.333 12 -45.666 30.5 -60.999 55.5s-23 52.833 -23 83.5
c0 70.668 25 124.835 75 162.5c50 37.667 111 56.5 183 56.5c62.667 0 116 -16.667 160 -50s66 -81 66 -143c0 -44.667 -13.167 -82.167 -39.5 -112.5s-58.5 -50.5 -96.5 -60.5z" />
    <glyph glyph-name="nine.osf" 
d="M296 213c37.333 0 70.834 12.333 100.501 37s44.5 58.667 44.5 102c0 38 -11.5 67.833 -34.5 89.5s-51.167 32.5 -84.5 32.5c-36.667 0 -69.667 -12.667 -99 -38s-44 -60.333 -44 -105c0 -38 11.167 -67.167 33.5 -87.5s50.166 -30.5 83.499 -30.5zM330.001 604
c82.667 0 145.835 -29.333 189.502 -88s65.5 -140 65.5 -244c0 -131.333 -32.333 -235.833 -97 -313.5s-144 -116.5 -238 -116.5c-64.667 0 -119.167 18.667 -163.5 56s-67.833 89.666 -70.5 156.999h129c2.66699 -32.667 14.5 -57.5 35.5 -74.5s47.167 -25.5 78.5 -25.5
c48.667 0 91.667 21 129 63c37.334 42 59.667 101 66.999 177c-16.667 -33.333 -41.667 -58.166 -75 -74.499s-68.333 -24.5 -105 -24.5c-60.667 0 -112.167 20.5 -154.5 61.5s-63.5 98.167 -63.5 171.5c0 80.667 25.667 146.667 77 198s116.666 77 195.999 77z" />
    <glyph glyph-name="zero.pnum" 
d="M288 105c32 0 60.501 13.668 85.501 41.001s44.5 61.833 58.5 103.5s24.5 83.5 31.5 125.5s10.5 81 10.5 117c0 93.333 -27.667 140 -83 140c-31.333 0 -59.5 -13.833 -84.5 -41.5s-44.333 -62.334 -58 -104.001s-23.834 -83.5 -30.501 -125.5s-10 -81 -10 -117
c0 -92.667 26.667 -139 80 -139zM272.001 -11.999c-64 0 -113.501 20.9971 -148.501 62.9971s-52.5 106.333 -52.5 193c0 40 3.5 81.667 10.5 125s19 88 36 134s38 87 63 123s57.333 65.667 97 89s83.5 35 131.5 35c64.667 0 114.5 -21.333 149.5 -64
s52.5 -107.334 52.5 -194.001c0 -41.333 -3.83301 -84.166 -11.5 -128.499s-20.167 -89.166 -37.5 -134.499c-17.335 -45.333 -38.668 -85.666 -63.999 -120.999c-25.333 -35.333 -57.5 -64.166 -96.5 -86.499s-82.167 -33.5 -129.5 -33.5z" />
    <glyph glyph-name="one.pnum" horiz-adv-x="492" 
d="M-18 3l28 122h157l102 436c-56 -28 -115.667 -44 -179 -48l31 130c74 10.667 142.333 42 205 94h117l-142 -612h156l-28 -122h-447z" />
    <glyph glyph-name="two.pnum" horiz-adv-x="613" 
d="M568 124l-29.002 -124.003h-524l25 111l195 157c16.667 13.334 39.334 31.167 68.001 53.5s49.167 38.5 61.5 48.5c12.334 10 27.667 23.333 46 40c18.335 16.667 31.168 30.334 38.5 41.001c7.33301 10.667 14 23.334 20 38.001s9 29.334 9 44.001
c0 28 -9.16699 49.833 -27.5 65.5s-43.166 23.5 -74.499 23.5c-38.667 0 -71.834 -11.5 -99.5 -34.5c-27.667 -23 -44.5 -55.5 -50.5 -97.5h-136c12 84.667 45.833 149.167 101.5 193.5s120.5 66.5 194.5 66.5c65.333 0 120 -19 164 -57s66 -89 66 -153
c0 -20 -2.33301 -38.833 -7 -56.5s-12.667 -35.5 -24 -53.5s-22 -33.5 -32 -46.5s-25.5 -28.833 -46.5 -47.5s-38 -33.334 -51 -44c-13 -10.667 -33.333 -26.834 -61 -48.5c-27.667 -21.667 -48.5 -38.167 -62.5 -49.5l-87 -70h323z" />
    <glyph glyph-name="three.pnum" horiz-adv-x="581" 
d="M433 370c33.334 -9.33301 60.166 -26.668 80.499 -52.001s30.5 -58 30.5 -98c0 -68 -27 -123.667 -81 -167s-119 -65 -195 -65c-76.667 0 -137.167 22.333 -181.5 67s-66.5 98.334 -66.5 161.001c0 6.66699 0.666992 16 2 28h138c-2.66699 -8.66699 -4 -19 -4 -31
c0 -29.334 10.5 -54.167 31.5 -74.5s50.5 -30.5 88.5 -30.5s69.167 10 93.5 30s36.5 47 36.5 81c0 58.667 -41.333 88 -124 88h-59l28 120h46c50.667 0 90.834 11.667 120.501 35s44.5 52 44.5 86c0 25.333 -8.33301 45.833 -25 61.5s-41.334 23.5 -74 23.5
c-35.333 0 -67 -12.333 -95 -37s-44 -60 -48 -106h-135c6 80 37 143.333 93 190s120.667 70 194 70c66.667 0 121.167 -17.167 163.5 -51.5s63.5 -79.5 63.5 -135.5c0 -50 -16.5 -93 -49.5 -129s-71.833 -57.333 -116.5 -64z" />
    <glyph glyph-name="four.pnum" horiz-adv-x="635" 
d="M186 266h205l74 314zM328 0l33 144h-351l25 110l421 483h175l-110 -471h100l-27 -124h-101l-33 -142h-132z" />
    <glyph glyph-name="five.pnum" horiz-adv-x="606" 
d="M289 613l-52.001 -160.001c34.667 28.667 76.334 43 125.001 43c66.667 0 117.667 -21.833 153 -65.5s53 -96.167 53 -157.5c0 -77.333 -27 -144.166 -81 -200.499s-122.667 -84.5 -206 -84.5c-70 0 -129.167 21 -177.5 63s-72.5 100.667 -72.5 176v17h131
c-0.666992 -4.66699 -1 -11.667 -1 -21c0 -38.667 12.167 -68.167 36.5 -88.5s54.5 -30.5 90.5 -30.5c45.334 0 81.667 15.167 109 45.5s41 66.5 41 108.5c0 33.334 -9.33301 61.167 -28 83.5s-46 33.5 -82 33.5c-41.333 0 -80.333 -14.333 -117 -43h-134l128 405h404
l-28 -124h-292z" />
    <glyph glyph-name="six.pnum" horiz-adv-x="615" 
d="M343 371c-37.333 0 -70.834 -12.333 -100.501 -37s-44.5 -58.667 -44.5 -102c0 -38 11.5 -67.833 34.5 -89.5s51.167 -32.5 84.5 -32.5c36.667 0 69.667 12.667 99 38s44 60.333 44 105c0 38 -11.167 67.167 -33.5 87.5s-50.166 30.5 -83.499 30.5zM406.999 750
c64.667 0 119.168 -18.667 163.501 -56c44.333 -37.334 67.833 -89.667 70.5 -157h-129c-2.66699 32.667 -14.5 57.5 -35.5 74.5s-47.167 25.5 -78.5 25.5c-50 0 -94.833 -20.833 -134.5 -62.5s-63.5 -100.5 -71.5 -176.5c16.667 33.333 41.5 58 74.5 74s68.833 24 107.5 24
c60 0 111 -19.167 153 -57.5s63 -93.833 63 -166.5c0 -80.667 -25.833 -148.167 -77.5 -202.5s-117.5 -81.5 -197.5 -81.5c-80.667 0 -143 29.333 -187 88s-66 139.334 -66 242.001c0 131.333 33.667 236.166 101 314.499s148.666 117.5 243.999 117.5z" />
    <glyph glyph-name="seven.pnum" horiz-adv-x="530" 
d="M600 630l-397 -630h-143l384 607h-398l30 130h550z" />
    </font>
</defs>
</svg>
