<?xml version="1.0" standalone="no"?>
<!DOCTYPE svg PUBLIC "-//W3C//DTD SVG 1.1//EN" "http://www.w3.org/Graphics/SVG/1.1/DTD/svg11.dtd" >
<svg xmlns="http://www.w3.org/2000/svg" xmlns:xlink="http://www.w3.org/1999/xlink" version="1.1">
<metadata>
Created by FontForge 20190801 at Tue Aug 25 19:04:14 2015
 By Jimmy Wärting
Copyright (c) 2015 by Luzi Type. All rights reserved.
</metadata>
<defs>
<font id="MessinaSans-Regular" horiz-adv-x="600" >
  <font-face 
    font-family="MessinaSans"
    font-weight="400"
    font-stretch="normal"
    units-per-em="1000"
    panose-1="0 0 5 0 0 0 0 0 0 0"
    ascent="800"
    descent="-200"
    x-height="542"
    cap-height="750"
    bbox="-48 -365 1300 1028"
    underline-thickness="50"
    underline-position="-100"
    unicode-range="U+000D-FB04"
  />
<missing-glyph horiz-adv-x="500" 
 />
    <glyph glyph-name="ff" unicode="ff" horiz-adv-x="687" 
d="M677 683l-58.998 0.00195312c-28.667 0 -47.834 -6.33301 -57.501 -19s-14.5 -31.667 -14.5 -57v-65h117v-79h-117v-463h-89v463h-266v-463h-89v463h-87v79h87v70c0 57.333 13.667 96.666 41 117.999s64 32 110 32h69v-79h-59c-28.667 0 -47.834 -6.33301 -57.501 -19
s-14.5 -31.667 -14.5 -57v-65h266v70c0 57.333 13.667 96.666 41 117.999s64 32 110 32h69v-79z" />
    <glyph glyph-name="fi" unicode="fi" horiz-adv-x="606" 
d="M447 463l-255.999 0.000976562v-463h-89v463h-87v79h87v70c0 57.333 13.667 96.666 41 117.999s64 32 110 32h69v-79h-59c-28.667 0 -47.834 -6.33301 -57.501 -19s-14.5 -31.667 -14.5 -57v-65h345v-542h-89v463z" />
    <glyph glyph-name="fl" unicode="fl" horiz-adv-x="611" 
d="M536 0l-88.999 0.000976562v463h-256v-463h-89v463h-87v79h87v70c0 57.333 13.667 96.666 41 117.999s64 32 110 32h69v-79h-59c-28.667 0 -47.834 -6.33301 -57.501 -19s-14.5 -31.667 -14.5 -57v-65h256v220h89v-762z" />
    <glyph glyph-name="ffi" unicode="ffi" horiz-adv-x="961" 
d="M891 0l-88.998 0.00195312v463h-257v-463h-89v463h-265v-463h-89v463h-87v79h87v70c0 57.333 13.667 96.666 41 117.999s64 32 110 32h69v-79h-59c-28.667 0 -47.834 -6.33301 -57.501 -19s-14.5 -31.667 -14.5 -57v-65h265v70c0 57.333 13.667 96.666 41 117.999
s64 32 110 32h69v-79h-59c-28.667 0 -47.834 -6.33301 -57.501 -19s-14.5 -31.667 -14.5 -57v-65h346v-542z" />
    <glyph glyph-name="ffl" unicode="ffl" horiz-adv-x="966" 
d="M891 0l-88.998 0.00195312v463h-257v-463h-89v463h-265v-463h-89v463h-87v79h87v70c0 57.333 13.667 96.666 41 117.999s64 32 110 32h69v-79h-59c-28.667 0 -47.834 -6.33301 -57.501 -19s-14.5 -31.667 -14.5 -57v-65h265v70c0 57.333 13.667 96.666 41 117.999
s64 32 110 32h69v-79h-59c-28.667 0 -47.834 -6.33301 -57.501 -19s-14.5 -31.667 -14.5 -57v-65h257v220h89v-762z" />
    <glyph glyph-name="T_h" unicode="Th" horiz-adv-x="1221" 
d="M617 668h-255v-668h-92v668h-255v82h602v-82zM971 552c56 0 100.001 -16.167 132.001 -48.5s48 -77.5 48 -135.5v-368h-89v359c0 32.667 -8.83301 59.667 -26.5 81s-44.834 32 -81.501 32c-46 0 -83.833 -17 -113.5 -51s-44.5 -81.667 -44.5 -143v-278h-89v762h89v-307
c36.667 64.667 95 97 175 97z" />
    <glyph glyph-name="f_f_j" unicode="ffj" horiz-adv-x="956" 
d="M891 542l0.000976562 -597.999c0 -57.333 -13.667 -96.666 -41 -117.999s-64 -32 -110 -32h-39v79h29c28.667 0 47.834 6.33301 57.501 19s14.5 31.667 14.5 57v514h-256v-463h-89v463h-266v-463h-89v463h-87v79h87v70c0 57.333 13.667 96.666 41 117.999s64 32 110 32
h69v-79h-59c-28.667 0 -47.834 -6.33301 -57.501 -19s-14.5 -31.667 -14.5 -57v-65h266v70c0 57.333 13.667 96.666 41 117.999s64 32 110 32h69v-79h-59c-28.667 0 -47.834 -6.33301 -57.501 -19s-14.5 -31.667 -14.5 -57v-65h345z" />
    <glyph glyph-name="f_f_t" unicode="fft" horiz-adv-x="1051" 
d="M1031 0l-77.998 0.00292969c-46 0 -82.667 10.667 -110 32s-41 60.666 -41 117.999v313h-256v-463h-89v463h-266v-463h-89v463h-87v79h87v70c0 57.333 13.667 96.666 41 117.999s64 32 110 32h69v-79h-59c-28.667 0 -47.834 -6.33301 -57.501 -19
s-14.5 -31.667 -14.5 -57v-65h266v70c0 57.333 13.667 96.666 41 117.999s64 32 110 32h69v-79h-59c-28.667 0 -47.834 -6.33301 -57.501 -19s-14.5 -31.667 -14.5 -57v-65h256v145l89 25v-170h128v-79h-128v-308c0 -25.333 4.83301 -44.333 14.5 -57
c9.66992 -12.667 28.8369 -19 57.5 -19h68v-79z" />
    <glyph glyph-name="f_j" unicode="fj" horiz-adv-x="601" 
d="M536 542v-598c0 -57.333 -13.667 -96.666 -41 -117.999s-64 -32 -110 -32h-39v79h29c28.667 0 47.834 6.33301 57.501 19s14.5 31.667 14.5 57v514h-256v-463h-89v463h-87v79h87v70c0 57.333 13.667 96.666 41 117.999s64 32 110 32h69v-79h-59
c-28.667 0 -47.834 -6.33301 -57.501 -19s-14.5 -31.667 -14.5 -57v-65h345z" />
    <glyph glyph-name="f_t" unicode="ft" horiz-adv-x="696" 
d="M676 0l-77.999 0.00195312c-46 0 -82.667 10.667 -110 32s-41 60.666 -41 117.999v313h-256v-463h-89v463h-87v79h87v70c0 57.333 13.667 96.666 41 117.999s64 32 110 32h69v-79h-59c-28.667 0 -47.834 -6.33301 -57.501 -19s-14.5 -31.667 -14.5 -57v-65h256v145l89 25
v-170h128v-79h-128v-308c0 -25.333 4.83301 -44.333 14.5 -57c9.66895 -12.667 28.8359 -19 57.5 -19h68v-79z" />
    <glyph glyph-name="t_t" unicode="tt" horiz-adv-x="703" 
d="M683 0l-78 0.00195312c-46 0 -82.667 10.667 -110 32s-41 60.666 -41 117.999v313h-256v-308c0 -25.333 4.83301 -44.333 14.5 -57s28.834 -19 57.5 -19h68v-79h-78c-46 0 -82.667 10.667 -110 32s-41 60.666 -41 117.999v313h-104v79h104v145l89 25v-170h256v145l89 25
v-170h128v-79h-128v-308c0 -25.333 4.83301 -44.333 14.5 -57s28.834 -19 57.5 -19h68v-79z" />
    <glyph glyph-name=".notdef" horiz-adv-x="500" 
 />
    <glyph glyph-name="CR" unicode="&#xd;" horiz-adv-x="500" 
 />
    <glyph glyph-name="space" unicode=" " horiz-adv-x="220" 
 />
    <glyph glyph-name="exclam" unicode="!" horiz-adv-x="276" 
d="M80 120h116v-120h-116v120zM184 750v-328l-17 -210h-58l-17 210v328h92z" />
    <glyph glyph-name="quotedbl" unicode="&#x22;" horiz-adv-x="370" 
d="M210 788h110l-24 -292h-61zM50 788h110l-24 -292h-61z" />
    <glyph glyph-name="numbersign" unicode="#" horiz-adv-x="635" 
d="M390 459h-132l-23 -151h131zM452 459l-23 -151h160v-53h-168l-39 -255h-63l39 255h-131l-39 -255h-63l39 255h-134v53h142l24 151h-150v53h158l35 228h62l-35 -228h132l35 228h62l-35 -228h145v-53h-153z" />
    <glyph glyph-name="dollar" unicode="$" horiz-adv-x="640" 
d="M318 61l20.999 -1c47.334 0 86.167 11.5 116.5 34.5s45.5 54.5 45.5 94.5c0 22 -4.5 41.167 -13.5 57.5s-22.167 29.833 -39.5 40.5s-34.166 19 -50.499 25s-36.5 12.333 -60.5 19zM155.999 556c0 -39.334 12 -68.334 36 -87c24 -18.667 59.667 -34.667 107 -48l18 270
h-1c-46 0 -84.167 -11.5 -114.5 -34.5s-45.5 -56.5 -45.5 -100.5zM360.999 687l-19 -278.004c26 -6.66699 45.667 -12 59 -16c13.334 -4 31.667 -10.167 55 -18.5s41.333 -17.166 54 -26.499s26 -21 40 -35s24.167 -30.5 30.5 -49.5s9.5 -40.5 9.5 -64.5
c0 -66.667 -24.5 -118.5 -73.5 -155.5s-109.833 -55.5 -182.5 -55.5l-21 1l-9 -125h-44l9 130c-63.333 11.333 -115.166 38 -155.499 80s-61.833 97.333 -64.5 166h89c0.666992 -46 13.667 -83.5 39 -112.5s57.666 -48.833 96.999 -59.5l19 274
c-33.333 8.66699 -60.666 17.334 -81.999 26.001s-43.833 20.834 -67.5 36.501s-41.5 35.834 -53.5 60.501s-18 54 -18 88c0 68.667 22.833 120.667 68.5 156s104.167 53 175.5 53h6l7 97h44l-7 -100c59.333 -8 108.166 -29 146.499 -63s58.5 -80 60.5 -138h-89
c-1.33301 36.667 -13.333 65.667 -36 87s-51.667 35.333 -87 42z" />
    <glyph glyph-name="percent" unicode="%" horiz-adv-x="928" 
d="M810 163c0 32 -10 58.501 -30 79.501s-45 31.5 -75 31.5c-30.667 0 -55.667 -10.333 -75 -31s-29 -47.334 -29 -80.001c0 -33.333 9.66699 -60.5 29 -81.5s44.333 -31.5 75 -31.5c30 0 55 10.667 75 32s30 48.333 30 81zM523 162.001
c0 53.333 17.334 96.998 52.001 130.998c34.668 34 77.335 51 128 51c53.333 0 97.5 -16.833 132.5 -50.5s52.5 -77.5 52.5 -131.5c0 -53.333 -17.667 -97.166 -53 -131.499s-79.333 -51.5 -132 -51.5c-50.667 0 -93.334 17.333 -128.001 52s-52 78.334 -52 131.001z
M327.001 585.999c0 32 -10 58.501 -30 79.501s-45 31.5 -75 31.5c-30.667 0 -55.667 -10.333 -75 -31s-29 -47.334 -29 -80.001c0 -33.333 9.66699 -60.5 29 -81.5s44.333 -31.5 75 -31.5c30 0 55 10.667 75 32s30 48.333 30 81zM253.001 0h-66l477 750h66zM40.001 585
c0 53.333 17.333 96.998 52 130.998s77.334 51 128.001 51c53.333 0 97.5 -16.833 132.5 -50.5s52.5 -77.5 52.5 -131.5c0 -53.333 -17.667 -97.166 -53 -131.499s-79.333 -51.5 -132 -51.5c-50.667 0 -93.334 17.333 -128.001 52s-52 78.334 -52 131.001z" />
    <glyph glyph-name="ampersand" unicode="&#x26;" horiz-adv-x="761" 
d="M315 70c30 0 58.833 5.83203 86.5 17.499s50.167 28.5 67.5 50.5l-202 209c-74 -25.333 -111 -71.666 -111 -138.999c0 -44 15.5 -78 46.5 -102s68.5 -36 112.5 -36zM209 573.999c0 -37.333 17 -73.332 51 -107.999l31 -32c41.333 10 73 27.833 95 53.5s33 54.5 33 86.5
s-10.167 56.5 -30.5 73.5s-44.833 25.5 -73.5 25.5s-53.5 -8.83301 -74.5 -26.5s-31.5 -41.834 -31.5 -72.501zM606 -3l-79.001 79.999c-59.333 -59.333 -132.333 -89 -219 -89c-68.667 0 -127.167 19.167 -175.5 57.5s-72.5 90.833 -72.5 157.5c0 42 13.667 80.667 41 116
s65.333 62 114 80l-25 25c-45.333 45.333 -68 95 -68 149c0 54.668 19.833 97.835 59.5 129.5c39.667 31.667 85.834 47.5 138.501 47.5c52 0 96.333 -14.667 133 -44s55 -71.333 55 -126c0 -91.333 -54 -157.666 -162 -198.999l170 -171c14.667 30 22 74.667 22 134v42h86
v-42c0 -78 -16.333 -143 -49 -195l146 -152h-115z" />
    <glyph glyph-name="quotesingle" unicode="'" horiz-adv-x="210" 
d="M50 788h110l-24 -292h-61z" />
    <glyph glyph-name="parenleft" unicode="(" horiz-adv-x="362" 
d="M110 341c0 -102.667 22.499 -195.329 67.499 -277.996s106.5 -150.667 184.5 -204l-42 -58c-86 50.667 -155.833 123.667 -209.5 219s-80.5 202.333 -80.5 321c0 117.333 26.667 223.666 80 318.999s123.333 168.666 210 219.999l42 -58
c-79.333 -54.667 -141.166 -123.334 -185.499 -206.001s-66.5 -174.334 -66.5 -275.001z" />
    <glyph glyph-name="parenright" unicode=")" horiz-adv-x="362" 
d="M252 341c0 100.667 -22.168 192.331 -66.501 274.998s-106.166 151.334 -185.499 206l42 58c86.667 -51.334 156.667 -124.667 210 -220s80 -201.666 80 -318.999c0 -118.667 -26.833 -225.667 -80.5 -321s-123.5 -168.333 -209.5 -219l-42 58
c78 53.333 139.5 121.333 184.5 204s67.5 175.334 67.5 278.001z" />
    <glyph glyph-name="asterisk" unicode="*" horiz-adv-x="381" 
d="M50 718l107 -37l-2 112h72l-4 -112l106 36l22 -67l-107 -34l69 -86l-59 -43l-62 92l-64 -92l-60 43l68 86l-106 34z" />
    <glyph glyph-name="plus" unicode="+" horiz-adv-x="500" 
d="M460 262h-179v-189h-61v189h-180v59h180v191h61v-191h179v-59z" />
    <glyph glyph-name="comma" unicode="," horiz-adv-x="227" 
d="M39 -165l-9.00098 52.001c36.667 4 62.334 15.667 77.001 35s22 47 22 83h-53v115h121v-109c0 -59.333 -15.167 -103.333 -45.5 -132s-67.833 -43.334 -112.5 -44.001z" />
    <glyph glyph-name="hyphen" unicode="-" horiz-adv-x="408" 
d="M358 358v-79h-308v79h308z" />
    <glyph glyph-name="period" unicode="." horiz-adv-x="196" 
d="M40 120h116v-120h-116v120z" />
    <glyph glyph-name="slash" unicode="/" horiz-adv-x="448" 
d="M428 830l-331 -922h-77l331 922h77z" />
    <glyph glyph-name="zero" unicode="0" 
d="M301 71c53.333 0 92.834 26.165 118.501 78.498s38.5 123.833 38.5 214.5c0 58.667 -5.16699 109.834 -15.5 153.501c-10.333 43.668 -27.833 79.335 -52.5 107c-24.667 27.667 -56 41.5 -94 41.5c-102.667 0 -154 -97.333 -154 -292
c0 -95.333 13.167 -169.666 39.5 -222.999s66.166 -80 119.499 -80zM298.001 -12.002c-82 0 -143.833 33.668 -185.5 101.001s-62.5 160 -62.5 278c0 119.333 21 213 63 281s104.333 102 187 102c82 0 144.167 -34 186.5 -102s63.5 -161 63.5 -279
c0 -118.667 -21.333 -211.834 -64 -279.501s-105.334 -101.5 -188 -101.5z" />
    <glyph glyph-name="one" unicode="1" 
d="M519 80v-80h-429v80h170v551c-46 -38.667 -106 -63.667 -180 -75v83c72.667 14 135 46.667 187 98h82v-657h170z" />
    <glyph glyph-name="two" unicode="2" 
d="M560 0h-513.998v80l187 167c76 67.333 125 114.333 147 141c41.333 49.334 62 97.667 62 145c0 42.667 -13.5 75.667 -40.5 99s-61.833 35 -104.5 35c-46.667 0 -85.334 -14.333 -116.001 -43s-47.334 -69.334 -50.001 -122.001h-90c0 80 24.667 141.333 74 184
s111.333 64 186 64c68.667 0 125 -18.667 169 -56s66 -89.333 66 -156c0 -29.333 -4.33301 -56.666 -13 -81.999s-23.667 -51.5 -45 -78.5s-43.333 -51.667 -66 -74s-54.334 -51.5 -95 -87.5l-153 -136h396v-80z" />
    <glyph glyph-name="three" unicode="3" 
d="M418 385c44.667 -12.667 79.6641 -35.1689 104.997 -67.502s38 -69.5 38 -111.5c0 -66 -25.667 -118.833 -77 -158.5s-112 -59.5 -182 -59.5c-71.333 0 -133 21.333 -185 64s-78 103.334 -78 182.001h93v-9c0 -52 17 -91.667 51 -119s75.333 -41 124 -41
s87.334 13.333 116.001 40s43 58 43 94c0 37.333 -15.667 69.5 -47 96.5s-75 40.5 -131 40.5h-44v80h22c59.334 0 105.167 13.833 137.5 41.5s48.5 59.834 48.5 96.501c0 33.333 -12.667 61.5 -38 84.5s-61.666 34.5 -108.999 34.5c-51.333 0 -91.5 -15 -120.5 -45
s-43.5 -72 -43.5 -126h-90c0 78 23.833 139 71.5 183s109.834 66 186.501 66c67.334 0 123.667 -16.833 169 -50.5s68 -79.5 68 -137.5c0 -39.334 -11.167 -74.834 -33.5 -106.5c-22.333 -31.667 -53.833 -55.5 -94.5 -71.5z" />
    <glyph glyph-name="four" unicode="4" 
d="M366 258v376l-258 -376h258zM455 176v-176h-89v178h-351v80l328 479h112v-479h130v-82h-130z" />
    <glyph glyph-name="five" unicode="5" 
d="M326 485c71.333 0 127.499 -23.334 168.499 -70.001s61.5 -102.667 61.5 -168c0 -70.667 -22.5 -131.5 -67.5 -182.5s-107.5 -76.5 -187.5 -76.5c-72 0 -132.833 21.5 -182.5 64.5s-74.5 103.5 -74.5 181.5h93c0 -1.33301 -0.166992 -3.83301 -0.5 -7.5
s-0.5 -6.5 -0.5 -8.5c0 -49.333 15.667 -87.666 47 -114.999s70.333 -41 117 -41c52 0 93 16.833 123 50.5s45 74.5 45 122.5c0 46.667 -13.833 86.167 -41.5 118.5s-67.5 48.5 -119.5 48.5c-57.333 0 -106.666 -19 -147.999 -57h-82l64 392h370v-80h-303l-35 -219
c48 31.333 99 47 153 47z" />
    <glyph glyph-name="six" unicode="6" 
d="M317 69c44.667 0 82.167 14.498 112.5 43.498s45.5 69.167 45.5 120.5c0 52.667 -16 93.5 -48 122.5s-70.667 43.5 -116 43.5s-83.833 -14.167 -115.5 -42.5s-47.5 -68.166 -47.5 -119.499c0 -53.333 16.833 -94.666 50.5 -123.999s73.167 -44 118.5 -44zM326 484.998
c66.667 0 123.502 -21.668 170.502 -65.001s70.5 -102.666 70.5 -177.999c0 -76.667 -24.167 -138.167 -72.5 -184.5s-107.833 -69.5 -178.5 -69.5c-36 0 -70.167 6.83301 -102.5 20.5s-62.333 34.667 -90 63s-49.667 68.333 -66 120s-24.5 111.834 -24.5 180.501
c0 61.333 6.83301 115.333 20.5 162c13.667 46.668 30.5 83.335 50.5 110c20 26.6689 44 48.3359 72 65c28 16.667 53.833 27.667 77.5 33s48.167 8 73.5 8c64.667 0 116.667 -18.333 156 -55s60.666 -86 63.999 -148h-92c-1.33301 39.333 -13.833 69.666 -37.5 90.999
s-56.167 32 -97.5 32c-59.333 0 -107.333 -22.667 -144 -68s-55 -118.333 -55 -219v-11c22.667 38.667 52.167 67.167 88.5 85.5s75.166 27.5 116.499 27.5z" />
    <glyph glyph-name="seven" unicode="7" 
d="M557 657l-303 -657h-90l301 649h-442v88h534v-80z" />
    <glyph glyph-name="eight" unicode="8" 
d="M301 67c53.333 0 93.334 12.667 120.001 38s40 57.333 40 96s-13.833 70.834 -41.5 96.501s-67.834 38.5 -120.5 38.5c-52.667 0 -92.334 -12.833 -119.001 -38.5s-40 -57.834 -40 -96.501c0 -39.333 13.5 -71.5 40.5 -96.5s67.167 -37.5 120.5 -37.5zM153.001 552
c0 -36.667 12.833 -66.166 38.5 -88.499s62.167 -33.5 109.5 -33.5c48 0 84.5 11.167 109.5 33.5s37.5 51.166 37.5 86.499c0 34.6689 -12 64.3359 -36 89c-24 24.667 -61.667 37 -113 37c-50.667 0 -87.667 -12.167 -111 -36.5s-35 -53.5 -35 -87.5zM413.001 382.001
c44.667 -15.333 79.332 -38.999 103.999 -70.999s37 -71 37 -117c0 -64 -23.333 -114.333 -70 -151s-107.334 -55 -182 -55c-75.333 0 -136.833 18.5 -184.5 55.5s-71.5 87.5 -71.5 151.5c0 46 12.5 85 37.5 117s59.167 55.667 102.5 71c-80.667 34 -121 91.667 -121 173
c0 62 22.167 109.833 66.5 143.5s99.833 50.5 166.5 50.5s122.834 -17 168.501 -51s68.5 -82 68.5 -144c0 -80.667 -40.667 -138.334 -122 -173.001z" />
    <glyph glyph-name="nine" unicode="9" 
d="M289 336c44 0 81.833 14.667 113.5 44c31.667 29.334 47.5 69.667 47.5 121c0 52.667 -16.167 93.834 -48.5 123.5c-32.333 29.667 -70.5 44.5 -114.5 44.5s-81.833 -14.5 -113.5 -43.5s-47.5 -69.833 -47.5 -122.5c0 -53.333 16.167 -94.5 48.5 -123.5
s70.5 -43.5 114.5 -43.5zM286 750c38.667 0 73.8291 -6.5 105.496 -19.5s60.834 -33.833 87.501 -62.5s47.5 -69.167 62.5 -121.5s22.5 -114.166 22.5 -185.499c0 -248.667 -91.667 -373 -275 -373c-69.333 0 -124.333 18.833 -165 56.5s-62.667 86.5 -66 146.5h91
c3.33301 -36.667 16.833 -66.334 40.5 -89.001s56.834 -34 99.501 -34c58 0 104.167 20 138.5 60s51.5 103.667 51.5 191c0 6 -0.166992 12.667 -0.5 20s-0.5 12.333 -0.5 15c-23.333 -32.667 -52.666 -57.5 -87.999 -74.5s-72.666 -25.5 -111.999 -25.5
c-66 0 -122.833 21.667 -170.5 65s-71.5 102.333 -71.5 177c0 70.667 21.833 130.667 65.5 180s105.167 74 184.5 74z" />
    <glyph glyph-name="colon" unicode=":" horiz-adv-x="226" 
d="M60 120h116v-120h-116v120zM60 542h116v-120h-116v120z" />
    <glyph glyph-name="semicolon" unicode=";" horiz-adv-x="277" 
d="M69 -165l-9.00098 52.001c36.667 4 62.334 15.667 77.001 35s22 47 22 83h-53v115h121v-109c0 -59.333 -15.167 -103.333 -45.5 -132s-67.833 -43.334 -112.5 -44.001zM110.999 542.001h116v-120h-116v120z" />
    <glyph glyph-name="less" unicode="&#x3c;" horiz-adv-x="500" 
d="M54 254v55l364 218l27 -52l-325 -193l325 -193l-27 -52z" />
    <glyph glyph-name="equal" unicode="=" horiz-adv-x="500" 
d="M40 183v59h420v-59h-420zM40 341v59h420v-59h-420z" />
    <glyph glyph-name="greater" unicode="&#x3e;" horiz-adv-x="500" 
d="M50 89l325 193l-325 193l27 52l364 -218v-55l-364 -217z" />
    <glyph glyph-name="question" unicode="?" horiz-adv-x="551" 
d="M189 120h116v-120h-116v120zM204 212v51.001c0 11.334 0.833008 22.167 2.5 32.5s3.16699 19.5 4.5 27.5s4.33301 16.333 9 25s8 15.5 10 20.5s6.66699 11.167 14 18.5s12 12.333 14 15s7.5 7.5 16.5 14.5s14.333 11.167 16 12.5s7.66699 5.5 18 12.5
s15.833 10.833 16.5 11.5c27.333 18.667 48.333 37.167 63 55.5s22 41.166 22 68.499c0 36 -12.333 62.333 -37 79s-55.667 25 -93 25c-42.667 0 -76.667 -11 -102 -33s-38 -54 -38 -96h-90c0 67.333 22.5 119.166 67.5 155.499s101.167 54.5 168.5 54.5
c64 0 115.833 -16 155.5 -48s59.5 -78 59.5 -138c0 -21.333 -2.33301 -40.5 -7 -57.5s-13.167 -32.667 -25.5 -47s-22.5 -25.333 -30.5 -33s-21.833 -18.667 -41.5 -33s-32.5 -24.166 -38.5 -29.499c-29.333 -23.333 -48.5 -43.5 -57.5 -60.5s-13.5 -39.167 -13.5 -66.5v-37
h-83z" />
    <glyph glyph-name="at" unicode="@" horiz-adv-x="873" 
d="M386 114c41.333 0 75.332 20.332 101.999 60.999s40 84.334 40 131.001c0 34 -8.16699 61.167 -24.5 81.5s-40.166 30.5 -71.499 30.5c-43.333 0 -78 -18 -104 -54s-39 -77.333 -39 -124c0 -36 8.33301 -66 25 -90s40.667 -36 72 -36zM479.999 659.999
c43.333 0 84.998 -6.16699 124.998 -18.5s77.5 -30.833 112.5 -55.5s63 -59.167 84 -103.5s31.5 -95.5 31.5 -153.5c0 -76.667 -16.667 -142.834 -50 -198.501s-77.333 -83.5 -132 -83.5c-27.334 0 -52.167 7.83301 -74.5 23.5s-36.833 38.834 -43.5 69.501
c-38 -64 -92 -96 -162 -96c-53.333 0 -94.666 18.333 -123.999 55s-44 82.334 -44 137.001c0 65.333 20.167 123.333 60.5 174c40.334 50.667 95.167 76 164.5 76c61.334 0 103.334 -22.667 126 -68l12 58h85l-53 -238c-4.66699 -19.334 -7 -37.667 -7 -55
c0 -28.667 6.16699 -50.167 18.5 -64.5s28.5 -21.5 48.5 -21.5c26 0 48.667 12.167 68 36.5s33.333 53.166 42 86.499s13 68 13 104c0 91.333 -29.667 162.666 -89 213.999s-132 77 -218 77c-72.667 0 -138.667 -19 -198 -57s-104.666 -86.5 -135.999 -145.5
s-47 -121.167 -47 -186.5c0 -93.333 31.167 -167.666 93.5 -222.999s136.5 -83 222.5 -83c44.667 0 86.667 8.33301 126 25l13 -43c-46 -20.667 -96.333 -31 -151 -31c-46 0 -90 7.5 -132 22.5s-79.833 36.667 -113.5 65s-60.667 65.5 -81 111.5s-30.5 97.333 -30.5 154
c0 82 20.167 156.667 60.5 224s94 119.5 161 156.5s139.833 55.5 218.5 55.5z" />
    <glyph glyph-name="A" unicode="A" horiz-adv-x="762" 
d="M517 286l-142 355l-137 -355h279zM549 203h-343l-79 -203h-97l300 750h92l310 -750h-102z" />
    <glyph glyph-name="B" unicode="B" horiz-adv-x="668" 
d="M176 82h194c50.667 0 89.667 13.5 117 40.5s41 59.167 41 96.5s-13.5 69.5 -40.5 96.5s-63.5 40.5 -109.5 40.5h-202v-274zM176 436l174.999 -0.000976562c45.333 0 81 12.333 107 37s39 53.334 39 86.001c0 30 -11.167 55.667 -33.5 77s-54.166 32 -95.499 32h-192v-232
zM476.999 405.999c47.333 -16 83.499 -41 108.499 -75s37.5 -72 37.5 -114c0 -58.667 -22.167 -109.667 -66.5 -153s-105.166 -65 -182.499 -65h-2l-287 1v750h302c65.333 0 115.5 -16.333 150.5 -49s52.5 -72.667 52.5 -120c0 -36 -9.83301 -70.167 -29.5 -102.5
s-47.5 -56.5 -83.5 -72.5z" />
    <glyph glyph-name="C" unicode="C" horiz-adv-x="772" 
d="M630 264l97 0.00195312c-2 -86 -33.167 -154.667 -93.5 -206s-135.833 -77 -226.5 -77c-74.667 0 -139.667 18.833 -195 56.5s-96.166 86.167 -122.499 145.5s-39.5 124.666 -39.5 195.999c0 110 32.167 202.333 96.5 277s153.833 112 268.5 112
c86 0 156.5 -21.833 211.5 -65.5s86.833 -106.5 95.5 -188.5h-97c-6.66699 52 -29.5 93.167 -68.5 123.5s-87.833 45.5 -146.5 45.5c-84 0 -149.167 -29.333 -195.5 -88s-69.5 -130.334 -69.5 -215.001c0 -86.667 23.833 -160.5 71.5 -221.5s114.167 -91.5 199.5 -91.5
c62 0 112.833 17.167 152.499 51.5c39.667 34.333 60.167 82.833 61.5 145.5z" />
    <glyph glyph-name="D" unicode="D" horiz-adv-x="740" 
d="M177 83h136c88.667 0 157.667 29.167 207 87.5s74 128.5 74 210.5c0 80.667 -24.333 148.667 -73 204s-117.334 83 -206 83h-138v-585zM85 750l235 -0.000976562c79.333 0 147.5 -17.167 204.5 -51.5s98.833 -78.5 125.5 -132.5s40 -114 40 -180
c0 -49.333 -8 -96.666 -24 -141.999s-39 -86.333 -69 -123s-69.5 -66 -118.5 -88s-103.833 -33 -164.5 -33h-229v750z" />
    <glyph glyph-name="E" unicode="E" horiz-adv-x="627" 
d="M85 0v750h482v-82h-390v-247h372v-83h-372v-255h410v-83h-502z" />
    <glyph glyph-name="F" unicode="F" horiz-adv-x="587" 
d="M177 0h-92v750h482v-82h-390v-247h372v-83h-372v-338z" />
    <glyph glyph-name="G" unicode="G" horiz-adv-x="804" 
d="M724 378l0.000976562 -378h-85v102c-22 -38.667 -53.833 -68.5 -95.5 -89.5s-90.5 -31.5 -146.5 -31.5c-72.667 0 -135.834 18.333 -189.501 55s-93.334 84.167 -119.001 142.5s-38.5 122.833 -38.5 193.5c0 71.333 12.833 136.333 38.5 195
c25.667 58.668 66.334 106.835 122.001 144.5c55.667 37.667 122.167 56.5 199.5 56.5c84.667 0 156 -22 214 -66s91.333 -106.667 100 -188h-97c-6.66699 52 -29.167 93.167 -67.5 123.5c-38.334 30.333 -86.834 45.5 -145.5 45.5c-83.333 0 -149.166 -29.333 -197.499 -88
s-72.5 -132 -72.5 -220c0 -85.333 22.833 -158 68.5 -218s109.5 -90 191.5 -90c66 0 121.333 20.167 165.999 60.5c44.667 40.333 67 96.5 67 168.5h-253v82h340z" />
    <glyph glyph-name="H" unicode="H" horiz-adv-x="750" 
d="M665 0h-92v337h-396v-337h-92v750h92v-331h396v331h92v-750z" />
    <glyph glyph-name="I" unicode="I" horiz-adv-x="272" 
d="M182 0h-92v750h92v-750z" />
    <glyph glyph-name="J" unicode="J" horiz-adv-x="525" 
d="M450 750l-0.000976562 -548c0 -71.333 -20 -126 -60 -164s-91.333 -57 -154 -57c-63.333 0 -115.166 18.5 -155.499 55.5s-60.5 89.833 -60.5 158.5v69h92v-69c0 -42 11.167 -74 33.5 -96s51.833 -33 88.5 -33s66.5 11 89.5 33s34.5 54.333 34.5 97v554h92z" />
    <glyph glyph-name="K" unicode="K" horiz-adv-x="685" 
d="M290 373l-113 -119v-254h-92v750h92v-380l351 380h118l-291 -307l315 -443h-115z" />
    <glyph glyph-name="L" unicode="L" horiz-adv-x="586" 
d="M556 0h-471v750h92v-667h379v-83z" />
    <glyph glyph-name="M" unicode="M" horiz-adv-x="889" 
d="M804 0h-90v612l-236 -612h-70l-235 612v-612h-88v750h132l227 -596l229 596h131v-750z" />
    <glyph glyph-name="N" unicode="N" horiz-adv-x="741" 
d="M656 0h-95l-387 609v-609h-89v750h110l372 -593v593h89v-750z" />
    <glyph glyph-name="O" unicode="O" horiz-adv-x="827" 
d="M414 679c-83.333 0 -149 -28 -197 -84s-72 -129.333 -72 -220c0 -89.333 25.167 -162.333 75.5 -219s116.166 -85 197.499 -85c80.667 0 144.834 28.167 192.501 84.5s71.5 129.5 71.5 219.5c0 89.334 -25 162.334 -75 219c-50 56.667 -114.333 85 -193 85zM416 -19
c-108 0 -196.001 37.335 -264.001 112.002s-102 168.667 -102 282s33.833 207.166 101.5 281.499s155.834 111.5 264.501 111.5c105.333 0 191.833 -37.333 259.5 -112s101.5 -168.334 101.5 -281.001s-33.667 -206.5 -101 -281.5s-154 -112.5 -260 -112.5z" />
    <glyph glyph-name="P" unicode="P" horiz-adv-x="630" 
d="M175 393h183c47.333 0 83.833 14 109.5 42s38.5 61 38.5 99c0 36.667 -12.833 68.167 -38.5 94.5s-61.167 39.5 -106.5 39.5h-186v-275zM85 750h285c72 0 128.333 -20.5 169 -61.5s61 -89.833 61 -146.5c0 -62 -21.167 -116 -63.5 -162s-101.833 -69 -178.5 -69h-183
v-311h-90v750z" />
    <glyph glyph-name="Q" unicode="Q" horiz-adv-x="827" 
d="M144 375c0 -89.333 25.332 -162.333 75.999 -219s116.667 -85 198 -85c32.667 0 61.667 4.33301 87 13l-151 222h108l120 -180c67.333 56 101 139 101 249c0 89.334 -25.167 162.334 -75.5 219c-50.333 56.667 -114.833 85 -193.5 85
c-83.333 0 -149.166 -28 -197.499 -84s-72.5 -129.333 -72.5 -220zM776.999 375c0 -67.333 -12.501 -128.83 -37.501 -184.497s-60.5 -100.834 -106.5 -135.501l125 -188h-105l-97 143c-45.333 -19.333 -92 -29 -140 -29c-108 0 -196 37.333 -264 112s-102 168.667 -102 282
s33.833 207.166 101.5 281.499s155.834 111.5 264.501 111.5c105.333 0 191.833 -37.333 259.5 -112s101.5 -168.334 101.5 -281.001z" />
    <glyph glyph-name="R" unicode="R" horiz-adv-x="671" 
d="M175 400h180.999c48 0 85.667 14 113 42s41 61 41 99c0 35.333 -12.167 65.333 -36.5 90s-59.166 37 -104.499 37h-194v-268zM552.999 0l-212.001 319h-166v-319h-90v750h278c74 0 131.833 -20 173.5 -60s62.5 -88 62.5 -144c0 -47.333 -13.667 -90.333 -41 -129
s-66.666 -65.667 -117.999 -81l221 -336h-108z" />
    <glyph glyph-name="S" unicode="S" horiz-adv-x="649" 
d="M604 201c0 -68.667 -25.5 -122.503 -76.5 -161.503s-113.5 -58.5 -187.5 -58.5c-79.333 0 -147.666 22.5 -204.999 67.5s-87.333 110.5 -90 196.5h99c0.666992 -58.667 20.334 -103.334 59.001 -134.001s85.667 -46 141 -46c48 0 87.333 11.333 118 34
s46 53.334 46 92.001c0 22.667 -5 42.334 -15 59.001s-26.667 30.5 -50 41.5s-41.333 18.5 -54 22.5s-34.334 9.33301 -65 16c-7.33301 2 -12.666 3.33301 -15.999 4c-27.333 6.66699 -50.333 12.834 -69 18.501s-39.334 14.334 -62.001 26.001s-40.834 24.5 -54.501 38.5
s-25.334 32.333 -35.001 55s-14.5 48.334 -14.5 77.001c0 70.667 23.833 124.834 71.5 162.5c47.667 37.667 108.167 56.5 181.5 56.5s134.5 -18.833 183.5 -56.5s74.833 -90.834 77.5 -159.501h-94c-1.33301 43.333 -17 76.333 -47 99s-69 34 -117 34
s-87.5 -11.167 -118.5 -33.5c-31 -22.335 -46.5 -55.168 -46.5 -98.5c0 -18.667 3.5 -35 10.5 -49s15.167 -25.5 24.5 -34.5s22.833 -17.167 40.5 -24.5s33.167 -12.833 46.5 -16.5c13.334 -3.66699 31.667 -8.16699 55 -13.5c79.333 -18 134.333 -35.333 165 -52
c65.333 -35.333 98 -89.333 98 -162z" />
    <glyph glyph-name="T" unicode="T" horiz-adv-x="632" 
d="M617 668h-255v-668h-92v668h-255v82h602v-82z" />
    <glyph glyph-name="U" unicode="U" horiz-adv-x="731" 
d="M656 750l0.000976562 -485c0 -92 -26.333 -162.333 -79 -211s-122.334 -73 -209.001 -73c-87.333 0 -158 24.333 -212 73s-81 119 -81 211v485h92v-478c0 -68.667 19 -120.167 57 -154.5s86 -51.5 144 -51.5c59.333 0 107.333 15.833 144 47.5s55 80.167 55 145.5v491h89
z" />
    <glyph glyph-name="V" unicode="V" horiz-adv-x="653" 
d="M376 0h-94l-262 750h101l207 -637l212 637h93z" />
    <glyph glyph-name="W" unicode="W" horiz-adv-x="983" 
d="M762 0h-90l-180 603l-181 -603h-90l-196 750h98l147 -608l179 608h90l179 -610l147 610h93z" />
    <glyph glyph-name="X" unicode="X" horiz-adv-x="699" 
d="M551 0l-204 302l-204 -302h-113l262 386l-249 364h117l190 -281l189 281h111l-247 -361l266 -389h-118z" />
    <glyph glyph-name="Y" unicode="Y" horiz-adv-x="662" 
d="M378 0h-94v293l-264 457h109l206 -377l206 377h101l-264 -457v-293z" />
    <glyph glyph-name="Z" unicode="Z" horiz-adv-x="666" 
d="M626 0h-576v83l451 585h-439v82h549v-82l-447 -585h462v-83z" />
    <glyph glyph-name="bracketleft" unicode="[" horiz-adv-x="331" 
d="M89 851h210v-66h-143v-889h143v-66h-210v1021z" />
    <glyph glyph-name="backslash" unicode="\" horiz-adv-x="448" 
d="M97 830l331 -922h-77l-331 922h77z" />
    <glyph glyph-name="bracketright" unicode="]" horiz-adv-x="331" 
d="M32 -170v66h143v889h-143v66h210v-1021h-210z" />
    <glyph glyph-name="asciicircum" unicode="^" horiz-adv-x="485" 
d="M242 655l-106 -188h-96l162 283h81l162 -283h-96z" />
    <glyph glyph-name="underscore" unicode="_" 
d="M50 -100v79h500v-79h-500z" />
    <glyph glyph-name="grave" unicode="`" horiz-adv-x="194" 
d="M73 838l121 -188h-73l-121 133z" />
    <glyph glyph-name="a" unicode="a" horiz-adv-x="548" 
d="M396 233l-0.000976562 45.001c-14 -8 -39 -14.667 -75 -20l-78 -11c-75.333 -10.667 -113 -41.334 -113 -92.001c0 -28.667 9.83301 -50.5 29.5 -65.5s44.5 -22.5 74.5 -22.5c42.667 0 80.334 14.667 113.001 44s49 70 49 122zM282.999 552.001
c63.333 0 112.5 -15.334 147.5 -46.001s52.5 -75.667 52.5 -135v-371h-86v92c-36 -69.333 -96.333 -104 -181 -104c-48.667 0 -90.167 14.667 -124.5 44s-51.5 69.666 -51.5 120.999c0 47.333 15.167 84 45.5 110s70.5 42.333 120.5 49l122 16
c22.667 2.66699 39.834 8.33398 51.501 17.001s17.5 23.334 17.5 44.001c0 28.667 -10.833 50.667 -32.5 66s-51.167 23 -88.5 23c-36 0 -65.333 -8.83301 -88 -26.5s-36 -41.167 -40 -70.5h-88c5.33301 55.334 28.166 97.667 68.499 127s91.833 44 154.5 44z" />
    <glyph glyph-name="b" unicode="b" horiz-adv-x="630" 
d="M332 67c55.334 0 97.167 19.832 125.5 59.499s42.5 88.5 42.5 146.5c0 56 -13.833 102.667 -41.5 140s-68.5 56 -122.5 56c-56 0 -98.5 -19.667 -127.5 -59s-43.5 -87.666 -43.5 -144.999c0 -56 14 -103 42 -141s69.667 -57 125 -57zM345 551.999
c78.667 0 139.166 -26.834 181.499 -80.501s63.5 -118.834 63.5 -195.5c0 -50 -8.66699 -96.167 -26 -138.5s-45.333 -77.833 -84 -106.5s-85 -43 -139 -43c-44 0 -81.333 9.83301 -112 29.5s-53.334 45.167 -68.001 76.5v-94h-86v762h89v-321
c14.667 32.667 37.334 59.334 68.001 80.001s68.334 31 113.001 31z" />
    <glyph glyph-name="c" unicode="c" horiz-adv-x="567" 
d="M438 194l88.001 0.00195312c-4 -64.667 -28.333 -115.167 -73 -151.5s-98 -54.5 -160 -54.5c-71.333 0 -131.333 24.333 -180 73s-73 118 -73 208c0 88.667 24.167 157.667 72.5 207s110.166 74.666 185.499 75.999h5c64 0 117 -17.833 159 -53.5
s63.667 -83.834 65 -144.5h-87c-2 36.667 -17 66 -45 88s-60.333 33 -97 33c-45.333 0 -84.666 -17.667 -117.999 -53s-50 -86 -50 -152c0 -66.667 16.5 -116.834 49.5 -150.501s72.167 -50.5 117.5 -50.5c38 0 70.667 11.5 98 34.5c27.334 23 41.667 53.167 42.999 90.5z
" />
    <glyph glyph-name="d" unicode="d" horiz-adv-x="631" 
d="M295 71c56 0 98.333 19.5 127 58.5s43 87.167 43 144.5c0 56 -14.333 103.167 -43 141.5s-70.667 57.5 -126 57.5c-54 0 -95 -19.333 -123 -58s-42 -86.667 -42 -144c0 -56.667 13.833 -104.167 41.5 -142.5s68.5 -57.5 122.5 -57.5zM556 0h-86.001v106
c-12.667 -34.667 -34.667 -63 -66 -85s-70.333 -33 -117 -33c-80 0 -141.167 27.667 -183.5 83s-63.5 121.666 -63.5 198.999c0 49.334 8.5 94.667 25.5 136s44.833 76 83.5 104s85 42 139 42c42.667 0 79.334 -9.16699 110.001 -27.5s53.667 -42.166 69 -71.499v309h89
v-762z" />
    <glyph glyph-name="e" unicode="e" horiz-adv-x="570" 
d="M291 475c-42.667 0 -79 -13 -109 -39s-47.667 -64.333 -53 -115h311c-0.666992 48 -15 85.667 -43 113s-63.333 41 -106 41zM530 249l-403.998 0.000976562c2 -59.333 18.667 -104.333 50 -135s72.333 -46 123 -46c36 0 67.333 9.16699 94 27.5s43 44.166 49 77.499h85
c-10 -60 -37.333 -105.833 -82 -137.5s-95.667 -47.5 -153 -47.5c-70.667 0 -130.334 24.333 -179.001 73s-73 118.667 -73 210c0 47.333 7 89.333 21 126s33 66 57 88s50.667 38.667 80 50s60.666 17 93.999 17c69.333 0 126.333 -22.333 171 -67s67 -109.667 67 -195v-41z
" />
    <glyph glyph-name="f" unicode="f" horiz-adv-x="332" 
d="M322 683l-58.999 0.000976562c-28.667 0 -47.834 -6.33301 -57.501 -19s-14.5 -31.667 -14.5 -57v-65h117v-79h-117v-463h-89v463h-87v79h87v70c0 57.333 13.667 96.666 41 117.999s64 32 110 32h69v-79z" />
    <glyph glyph-name="g" unicode="g" horiz-adv-x="619" 
d="M295 101c46.667 0 85.333 15.499 116 46.499s46 77.5 46 139.5s-15.333 108.833 -46 140.5s-69.334 47.5 -116 47.5c-48.667 0 -88.834 -16.5 -120.501 -49.5s-47.5 -79.167 -47.5 -138.5s15.833 -105.166 47.5 -137.499s71.834 -48.5 120.501 -48.5zM548.999 541.999
l0.000976562 -509c0 -82 -23.167 -144.333 -69.5 -187s-106.5 -64 -180.5 -64c-64 0 -119.667 16 -167 48s-75.333 81.333 -84 148h89c4.66699 -35.333 20.5 -64.333 47.5 -87s65.5 -34 115.5 -34c108.667 0 163 57.333 163 172v91c-34 -66.667 -94.333 -100 -181 -100
c-70 0 -127.833 23.167 -173.5 69.5s-68.5 111.5 -68.5 195.5s22.667 149.5 68 196.5s102.666 70.5 171.999 70.5c85.333 0 146.333 -31.333 183 -94v84h86z" />
    <glyph glyph-name="h" unicode="h" horiz-adv-x="589" 
d="M339 552c56 0 100 -16.167 132 -48.5s48 -77.5 48 -135.5v-368h-89v359c0 32.667 -8.83301 59.667 -26.5 81s-44.834 32 -81.5 32c-46 0 -83.833 -17 -113.5 -51s-44.5 -81.667 -44.5 -143v-278h-89v762h89v-307c36.667 64.667 95 97 175 97z" />
    <glyph glyph-name="i" unicode="i" horiz-adv-x="239" 
d="M164 0h-89v542h89v-542zM169 772v-107h-99v107h99z" />
    <glyph glyph-name="j" unicode="j" horiz-adv-x="260" 
d="M190 542l-0.000976562 -598.001c0 -57.333 -13.667 -96.666 -41 -117.999s-64 -32 -110 -32h-39v79h29c28.667 0 47.834 6.33301 57.501 19s14.5 31.667 14.5 57v593h89zM194.999 664.999h-99v107h99v-107z" />
    <glyph glyph-name="k" unicode="k" horiz-adv-x="558" 
d="M253 248l-89 -95v-153h-89v762h89v-493l251 273h114l-215 -230l224 -312h-108z" />
    <glyph glyph-name="l" unicode="l" horiz-adv-x="239" 
d="M164 0h-89v762h89v-762z" />
    <glyph glyph-name="m" unicode="m" horiz-adv-x="883" 
d="M638 552c50.667 0 92.501 -14.667 125.501 -44s49.5 -71.333 49.5 -126v-382h-89v353c0 38.667 -9.66699 68 -29 88s-45 30 -77 30c-39.333 0 -70.833 -15.5 -94.5 -46.5s-35.5 -74.833 -35.5 -131.5v-293h-88v353c0 38.667 -9.83301 68 -29.5 88s-45.167 30 -76.5 30
c-40 0 -71.667 -15.5 -95 -46.5s-35 -74.5 -35 -130.5v-294h-89v542h87v-88c28 65.333 77.333 98 148 98c39.334 0 73.167 -10.833 101.5 -32.5s46.166 -49.167 53.499 -82.5c30 76.667 87.667 115 173 115z" />
    <glyph glyph-name="n" unicode="n" horiz-adv-x="589" 
d="M339 552c56 0 100 -16.167 132 -48.5s48 -77.5 48 -135.5v-368h-89v359c0 32.667 -8.83301 59.667 -26.5 81s-44.834 32 -81.5 32c-46 0 -83.833 -17 -113.5 -51s-44.5 -81.667 -44.5 -143v-278h-89v542h88v-94c36 69.333 94.667 104 176 104z" />
    <glyph glyph-name="o" unicode="o" horiz-adv-x="595" 
d="M464 274c0 61.333 -15.834 109.333 -47.501 144s-71.834 52 -120.5 52c-50 0 -90 -18.167 -120 -54.5s-45 -86.166 -45 -149.499c0 -61.333 15.833 -109.333 47.5 -144s71.834 -52 120.501 -52c50 0 90 18.167 120 54.5s45 86.166 45 149.499zM296.999 552
c76 0 138 -25.5 186 -76.5s72 -119.5 72 -205.5s-24 -154.5 -72 -205.5s-110 -76.5 -186 -76.5s-137.833 25.5 -185.5 76.5s-71.5 119.5 -71.5 205.5s24 154.5 72 205.5s109.667 76.5 185 76.5z" />
    <glyph glyph-name="p" unicode="p" horiz-adv-x="630" 
d="M332 75c47.333 0 87 16.333 119 49s48 82 48 148s-15.5 115.333 -46.5 148s-70.167 49 -117.5 49s-87.166 -16.333 -119.499 -49s-48.5 -82 -48.5 -148s15.667 -115.333 47 -148s70.666 -49 117.999 -49zM343 552c31.333 0 61.3301 -5.33301 89.9971 -16
s54.834 -26.667 78.501 -48s42.667 -50.333 57 -87s21.5 -79 21.5 -127c0 -91.333 -24.833 -160.5 -74.5 -207.5s-108.167 -70.5 -175.5 -70.5c-41.333 0 -77.166 8.5 -107.499 25.5s-53.166 40.167 -68.499 69.5v-297h-89v748h86v-108c12.667 34.667 34.5 63 65.5 85
s69.833 33 116.5 33z" />
    <glyph glyph-name="q" unicode="q" horiz-adv-x="625" 
d="M295 79c47.334 0 87.166 16.333 119.499 49s48.5 82 48.5 148s-16.167 115.333 -48.5 148s-72.166 49 -119.499 49s-86.5 -16.333 -117.5 -49s-46.5 -82 -46.5 -148s15.667 -115.333 47 -148s70.333 -49 117 -49zM554.999 -206h-89.001v312
c-33.333 -73.333 -93 -110 -179 -110c-67.333 0 -125.333 23.5 -174 70.5s-73 116.167 -73 207.5c0 48 7.16699 90.333 21.5 127s33.333 65.667 57 87s49.834 37.333 78.501 48s58.667 16 90 16c44 0 81.667 -9.83301 113 -29.5s54.333 -45.167 69 -76.5v96h86v-748z" />
    <glyph glyph-name="r" unicode="r" horiz-adv-x="370" 
d="M355 463h-25c-53.333 0 -94.333 -15.167 -123 -45.5s-43 -75.5 -43 -135.5v-282h-89v542h88v-94c28 66.667 83.333 100 166 100h26v-85z" />
    <glyph glyph-name="s" unicode="s" horiz-adv-x="525" 
d="M283 308c66 -10 111.331 -20.998 135.998 -32.998c47.333 -22.667 71 -61.334 71 -116.001s-21.167 -96.834 -63.5 -126.501s-94.166 -44.5 -155.499 -44.5c-64 0 -118.333 16 -163 48s-69 77.667 -73 137h92c4 -34.667 20.167 -61 48.5 -79s62.5 -27 102.5 -27
c35.333 0 63.833 6.83301 85.5 20.5s32.5 33.5 32.5 59.5c0 24 -9 41.167 -27 51.5s-43.667 18.166 -77 23.499c-3.33301 0.669922 -13.333 2.33691 -30 5c-16.667 2.66699 -27.667 4.5 -33 5.5s-15.833 3.16699 -31.5 6.5s-26.667 6.33301 -33 9
c-6.33398 2.66699 -16.167 6.5 -29.5 11.5s-23 10.167 -29 15.5s-13.333 12 -22 20s-15 16.333 -19 25s-7.66699 19 -11 31s-5 24.667 -5 38c0 52.667 19.333 93 58 121s88.334 42 149.001 42c61.333 0 113 -14.5 155 -43.5s63.333 -71.5 64 -127.5h-91
c-0.666992 30 -13.167 52.833 -37.5 68.5s-54.5 23.5 -90.5 23.5c-33.333 0 -60.833 -6.66699 -82.5 -20s-32.5 -33.333 -32.5 -60c0 -27.333 11.667 -46.666 35 -57.999s59 -20.333 107 -27z" />
    <glyph glyph-name="t" unicode="t" horiz-adv-x="358" 
d="M338 0l-78 0.000976562c-46 0 -82.667 10.667 -110 32s-41 60.666 -41 117.999v313h-104v79h104v145l89 25v-170h128v-79h-128v-308c0 -25.333 4.83301 -44.333 14.5 -57s28.834 -19 57.5 -19h68v-79z" />
    <glyph glyph-name="u" unicode="u" horiz-adv-x="589" 
d="M514 0l-85.999 -0.000976562v95c-36.667 -67.333 -95 -101 -175 -101c-54 0 -98 17 -132 51s-51 82 -51 144v353h89v-338c0 -42.667 10.167 -75.167 30.5 -97.5s48.166 -33.5 83.499 -33.5c42 0 77.833 16.833 107.5 50.5s44.5 81.834 44.5 144.501v274h89v-542z" />
    <glyph glyph-name="v" unicode="v" horiz-adv-x="518" 
d="M304 0h-91l-203 542h96l154 -445l155 445h93z" />
    <glyph glyph-name="w" unicode="w" horiz-adv-x="824" 
d="M631 0h-82l-137 412l-135 -412h-82l-180 542h93l129 -421l131 421h89l135 -424l127 424h90z" />
    <glyph glyph-name="x" unicode="x" horiz-adv-x="576" 
d="M439 0l-153 214l-154 -214h-112l206 273l-202 269h116l144 -201l143 201h110l-194 -259l213 -283h-117z" />
    <glyph glyph-name="y" unicode="y" horiz-adv-x="506" 
d="M496 542l-242.998 -638.001c-20.667 -53.333 -65.667 -80 -135 -80h-60v79h39c27.333 0 47.666 3.83301 60.999 11.5s24.666 23.834 33.999 48.501l20 55l-202 524h94l151 -407l151 407h90z" />
    <glyph glyph-name="z" unicode="z" horiz-adv-x="531" 
d="M481 0h-436v79l327 384h-315v79h424v-79l-328 -384h328v-79z" />
    <glyph glyph-name="braceleft" unicode="{" horiz-adv-x="355" 
d="M211 720l0.000976562 -270.001c0 -36 -9.33301 -64 -28 -84s-41.334 -32 -68.001 -36c26.667 -4.66699 49.334 -17 68.001 -37s28 -48 28 -84v-269c0 -35.333 5.83301 -57.166 17.5 -65.499s36.167 -12.5 73.5 -12.5h31v-68h-59h-4c-14.667 0 -26.667 0.333008 -36 1
c-9.33398 0.666992 -21.667 3.5 -37 8.5s-27.333 12.167 -36 21.5s-16.5 23.5 -23.5 42.5s-10.5 41.833 -10.5 68.5v238c0 41.333 -7.5 69.166 -22.5 83.499s-45.833 26.833 -92.5 37.5v69c46.667 10.667 77.5 23.167 92.5 37.5c15 14.334 22.5 42.167 22.5 83.5v239
c0 26.667 3.5 49.5 10.5 68.5s14.833 33.167 23.5 42.5s20.667 16.5 36 21.5s27.666 7.83301 36.999 8.5s21.333 1 36 1h4h59v-68h-31c-37.333 0 -61.833 -4.16699 -73.5 -12.5s-17.5 -30.166 -17.5 -65.499z" />
    <glyph glyph-name="bar" unicode="|" horiz-adv-x="209" 
d="M139 -120h-69v990h69v-990z" />
    <glyph glyph-name="braceright" unicode="}" horiz-adv-x="355" 
d="M144 450l0.000976562 270c0 35.333 -5.83301 57.166 -17.5 65.499s-36.167 12.5 -73.5 12.5h-31v68h59h4c14.667 0 26.667 -0.333008 36 -1s21.666 -3.5 36.999 -8.5s27.333 -12.167 36 -21.5s16.5 -23.5 23.5 -42.5s10.5 -41.833 10.5 -68.5v-239
c0 -41.333 7.5 -69.166 22.5 -83.499s45.833 -26.833 92.5 -37.5v-69c-46.667 -10.667 -77.5 -23.167 -92.5 -37.5s-22.5 -42.166 -22.5 -83.499v-238c0 -26.667 -3.5 -49.5 -10.5 -68.5s-14.833 -33.167 -23.5 -42.5s-20.667 -16.5 -36 -21.5
s-27.666 -7.83301 -36.999 -8.5s-21.333 -1 -36 -1h-4h-59v68h31c37.333 0 61.833 4.16699 73.5 12.5s17.5 30.166 17.5 65.499v269c0 36 9.33301 64 28 84s41.334 32.333 68 37c-26.667 4 -49.334 16 -68.001 36s-28 48 -28 84z" />
    <glyph glyph-name="asciitilde" unicode="~" horiz-adv-x="543" 
d="M419 445l74 -0.000976562c0 -55.333 -11 -98.166 -33 -128.499s-51.333 -45.5 -88 -45.5c-28.667 0 -63.334 12.667 -104 38c-40.667 25.333 -68.667 38 -84 38c-16.667 0 -30.167 -6.5 -40.5 -19.5s-16.833 -28.833 -19.5 -47.5h-74c2.66699 48 16 86.667 40 116
s52.667 44 86 44c26 0 60.167 -12.667 102.5 -38c42.334 -25.333 72.167 -38 89.5 -38c34 0 51 27 51 81z" />
    <glyph glyph-name="exclamdown" unicode="&#xa1;" horiz-adv-x="264" 
d="M92 95l17 210h58l17 -210v-328h-92v328zM196 517v-120h-116v120h116z" />
    <glyph glyph-name="cent" unicode="&#xa2;" horiz-adv-x="640" 
d="M173 273c0 -56.667 10.501 -101.667 31.501 -135s48.5 -55 82.5 -65l27 400c-40.667 -4 -74.334 -22.333 -101.001 -55s-40 -81 -40 -145zM471.001 198l84.999 -0.00195312c0 -65.333 -21.5 -116.666 -64.5 -153.999s-95.833 -56 -158.5 -56h-8l-8 -124h-44l9 129
c-58 10.667 -105.5 39.5 -142.5 86.5s-55.5 111.5 -55.5 193.5c0 47.333 6.66699 89.333 20 126s31.5 65.667 54.5 87s48 37.333 75 48s55.833 16.667 86.5 18l5 81h44l-6 -83c54 -6.66699 99 -27.667 135 -63s54 -80.666 54 -135.999h-85
c-1.33301 32 -12.166 58.667 -32.499 80s-45.833 35 -76.5 41l-27 -406h3c38.667 0 71.167 12 97.5 36s39.5 56 39.5 96z" />
    <glyph glyph-name="sterling" unicode="&#xa3;" horiz-adv-x="640" 
d="M144 51c30.667 0 53.668 18.999 69.001 56.999c-23.333 24.667 -46 37 -68 37c-15.333 0 -27.333 -4.66699 -36 -14s-13 -20.666 -13 -33.999c0 -12.667 4.16699 -23.5 12.5 -32.5s20.166 -13.5 35.499 -13.5zM528.001 166.999l78.999 0.000976562
c-0.666992 -60.667 -15.667 -105.667 -45 -135c-29.334 -29.333 -68.001 -44 -116.001 -44c-54 0 -113.667 25.333 -179 76c-12.667 -16.667 -22.667 -29 -30 -37s-19.166 -16.5 -35.499 -25.5s-34.5 -13.5 -54.5 -13.5c-36 0 -64.167 11 -84.5 33s-30.5 48 -30.5 78
c0 29.333 9.66699 54.833 29 76.5s46 32.5 80 32.5c22.667 0 53 -11.667 91 -35c6 40 9 88.667 9 146v81h-101v50h101v134c0 53.333 15.5 94.333 46.5 123s70.167 43 117.5 43c46 0 84.333 -13.167 115 -39.5s46 -63.5 46 -111.5h-79c0 25.333 -7.83301 44.833 -23.5 58.5
s-35.167 20.5 -58.5 20.5c-25.333 0 -45.166 -7.83301 -59.499 -23.5s-21.5 -38.5 -21.5 -68.5v-136h158v-50h-158v-62c0 -108.667 -9 -181.334 -27 -218.001c52 -38 98.333 -57 139 -57c26.667 0 48.5 8.5 65.5 25.5s25.833 43.167 26.5 78.5z" />
    <glyph glyph-name="Euro" unicode="&#x20ac;" horiz-adv-x="640" 
d="M533 243l92.999 -0.00195312c0 -81.333 -25.167 -144.166 -75.5 -188.499s-112.833 -66.5 -187.5 -66.5s-136.834 24 -186.501 72s-81.167 120 -94.5 216h-78v45h74c-1.33301 22.667 -2 40 -2 52s0.666992 29.333 2 52h-74v45h78c13.333 94.667 45.333 165 96 211
s114 69 190 69c74 0 134.833 -20.5 182.5 -61.5s71.834 -101.833 72.5 -182.5h-93c0 56 -15.667 97.167 -47 123.5s-70.666 39.5 -117.999 39.5c-50.667 0 -92.667 -16.333 -126 -49s-55 -82.667 -65 -150h263v-45h-268c-1.33301 -21.333 -2 -37.666 -2 -48.999
c0 -14 0.666992 -32.333 2 -55h268v-45h-263c10.667 -69.333 33 -120.833 67 -154.5s77.333 -50.5 130 -50.5c46.667 0 85.334 13.667 116.001 41s46 71 46 131z" />
    <glyph glyph-name="yen" unicode="&#xa5;" horiz-adv-x="640" 
d="M365 351h170v-45h-170v-95h170v-45h-170v-166h-90v166h-169v45h169v95h-169v45h169v24l-219 375h105l163 -297l163 297h97l-219 -375v-24z" />
    <glyph glyph-name="Scaron" unicode="&#x160;" horiz-adv-x="649" 
d="M604 201c0 -68.667 -25.5 -122.503 -76.5 -161.503s-113.5 -58.5 -187.5 -58.5c-79.333 0 -147.666 22.5 -204.999 67.5s-87.333 110.5 -90 196.5h99c0.666992 -58.667 20.334 -103.334 59.001 -134.001s85.667 -46 141 -46c48 0 87.333 11.333 118 34
s46 53.334 46 92.001c0 22.667 -5 42.334 -15 59.001s-26.667 30.5 -50 41.5s-41.333 18.5 -54 22.5s-34.334 9.33301 -65 16c-7.33301 2 -12.666 3.33301 -15.999 4c-27.333 6.66699 -50.333 12.834 -69 18.501s-39.334 14.334 -62.001 26.001s-40.834 24.5 -54.501 38.5
s-25.334 32.333 -35.001 55s-14.5 48.334 -14.5 77.001c0 70.667 23.833 124.834 71.5 162.5c47.667 37.667 108.167 56.5 181.5 56.5s134.5 -18.833 183.5 -56.5s74.833 -90.834 77.5 -159.501h-94c-1.33301 43.333 -17 76.333 -47 99s-69 34 -117 34
s-87.5 -11.167 -118.5 -33.5c-31 -22.335 -46.5 -55.168 -46.5 -98.5c0 -18.667 3.5 -35 10.5 -49s15.167 -25.5 24.5 -34.5s22.833 -17.167 40.5 -24.5s33.167 -12.833 46.5 -16.5c13.334 -3.66699 31.667 -8.16699 55 -13.5c79.333 -18 134.333 -35.333 165 -52
c65.333 -35.333 98 -89.333 98 -162zM480 994.997l-129 -163h-59l-129 163h86l72 -90l73 90h86z" />
    <glyph glyph-name="section" unicode="&#xa7;" horiz-adv-x="534" 
d="M292 286c35.333 0 64.833 7.49902 88.5 22.499s35.5 35.5 35.5 61.5c0 18.667 -6.66699 34.334 -20 47.001s-30.5 21.667 -51.5 27s-38.833 8.83301 -53.5 10.5s-28 2.5 -40 2.5c-35.333 0 -62.5 -7.5 -81.5 -22.5s-28.5 -34.5 -28.5 -58.5
c0 -17.333 5.5 -32.333 16.5 -45s25 -22 42 -28s33.167 -10.333 48.5 -13s30 -4 44 -4zM411 257.999c50 -25.333 75.002 -63.998 75.002 -115.998c0 -53.333 -20.833 -94.333 -62.5 -123s-93.5 -43 -155.5 -43c-64 0 -117 15.667 -159 47s-65 76.333 -69 135h94
c0 -35.333 14.167 -62.666 42.5 -81.999s62.166 -29 101.499 -29c33.334 0 61.667 7.16699 85 21.5s35 35.833 35 64.5c0 26 -10.5 44.5 -31.5 55.5s-52.5 19.833 -94.5 26.5c-27.333 4 -48.333 7.5 -63 10.5s-33 8.16699 -55 15.5s-38.667 15.666 -50 24.999
c-11.333 9.33398 -21.333 22.167 -30 38.5s-13 35.5 -13 57.5c0 60 26.667 101.667 80 125c-21.333 8.66699 -39 22.667 -53 42s-21 43.666 -21 72.999c0 52 20.167 91.667 60.5 119s90.166 41 149.499 41c60.667 0 110.167 -14.333 148.5 -43s57.833 -68.667 58.5 -120h-86
c-0.666992 32 -13 55.5 -37 70.5s-53.667 22.5 -89 22.5c-33.333 0 -61.5 -6.66699 -84.5 -20s-34.5 -34.333 -34.5 -63c0 -12 2.83301 -22.667 8.5 -32c5.66699 -9.33789 12.167 -16.6709 19.5 -22c7.33301 -5.3418 18.166 -10.1748 32.499 -14.5
c14.333 -4.33301 26.5 -7.33301 36.5 -9s24 -3.83398 42 -6.50098c26 -4 46.333 -7.33301 61 -10s32.334 -7.5 53.001 -14.5s36.5 -15 47.5 -24s20.5 -21.333 28.5 -37s12 -33.834 12 -54.5c0 -58.667 -27.667 -101 -83 -127z" />
    <glyph glyph-name="scaron" unicode="&#x161;" horiz-adv-x="525" 
d="M283 308c66 -10 111.331 -20.998 135.998 -32.998c47.333 -22.667 71 -61.334 71 -116.001s-21.167 -96.834 -63.5 -126.501s-94.166 -44.5 -155.499 -44.5c-64 0 -118.333 16 -163 48s-69 77.667 -73 137h92c4 -34.667 20.167 -61 48.5 -79s62.5 -27 102.5 -27
c35.333 0 63.833 6.83301 85.5 20.5s32.5 33.5 32.5 59.5c0 24 -9 41.167 -27 51.5s-43.667 18.166 -77 23.499c-3.33301 0.669922 -13.333 2.33691 -30 5c-16.667 2.66699 -27.667 4.5 -33 5.5s-15.833 3.16699 -31.5 6.5s-26.667 6.33301 -33 9
c-6.33398 2.66699 -16.167 6.5 -29.5 11.5s-23 10.167 -29 15.5s-13.333 12 -22 20s-15 16.333 -19 25s-7.66699 19 -11 31s-5 24.667 -5 38c0 52.667 19.333 93 58 121s88.334 42 149.001 42c61.333 0 113 -14.5 155 -43.5s63.333 -71.5 64 -127.5h-91
c-0.666992 30 -13.167 52.833 -37.5 68.5s-54.5 23.5 -90.5 23.5c-33.333 0 -60.833 -6.66699 -82.5 -20s-32.5 -33.333 -32.5 -60c0 -27.333 11.667 -46.666 35 -57.999s59 -20.333 107 -27zM267.998 723.002l72 90h86l-129 -163h-59l-129 163h86z" />
    <glyph glyph-name="copyright" unicode="&#xa9;" horiz-adv-x="869" 
d="M549 319h69.999c0 -54 -17.833 -96.5 -53.5 -127.5s-80.167 -46.5 -133.5 -46.5c-64.667 0 -115 22.333 -151 67s-54 100 -54 166c0 66.667 18.333 122.167 55 166.5s87.334 66.5 152.001 66.5c52.667 0 96.167 -15 130.5 -45s51.5 -70.667 51.5 -122h-71
c-2 32 -13.333 56.667 -34 74s-46.334 26 -77 26c-42 0 -74.833 -15.167 -98.5 -45.5s-35.5 -69.833 -35.5 -118.5c0 -48 11.833 -88 35.5 -120s56.5 -48 98.5 -48c32.667 0 60 9.66699 82 29s33 45.333 33 78zM434.999 33c94.667 0 174 32.001 238 96.001s96 146 96 246
s-32 182 -96 246s-143.333 96 -238 96s-174.167 -32 -238.5 -96s-96.5 -146 -96.5 -246c0 -100.667 32.167 -182.834 96.5 -246.501s143.833 -95.5 238.5 -95.5zM434.999 762.001c109.333 0 200.667 -36.333 274 -109s110 -165.334 110 -278.001
s-36.667 -205.334 -110 -278.001c-73.334 -72.667 -164.667 -109 -274 -109s-200.833 36.333 -274.5 109s-110.5 165.334 -110.5 278.001s36.833 205.334 110.5 278.001s165.167 109 274.5 109z" />
    <glyph glyph-name="ordfeminine" unicode="&#xaa;" horiz-adv-x="411" 
d="M299 514l-0.00195312 26c-7.33301 -3.33301 -23.666 -7.33301 -48.999 -12l-57 -7c-52.667 -8 -79 -29.333 -79 -64c0 -20 6.5 -35.167 19.5 -45.5s30.167 -15.5 51.5 -15.5c30.667 0 57.334 10.333 80.001 31s34 49.667 34 87zM219.998 750
c47.333 0 84.332 -11.5 110.999 -34.5s40 -56.5 40 -100.5v-276h-71v54c-27.333 -41.333 -69.666 -62 -126.999 -62c-36 0 -67.167 11.167 -93.5 33.5s-39.5 52.833 -39.5 91.5c0 35.333 11.5 63 34.5 83s52.833 32.333 89.5 37l89 11c16 2 27.833 5.83301 35.5 11.5
s11.5 15.167 11.5 28.5c0 20.667 -7.5 36.5 -22.5 47.5s-35.5 16.5 -61.5 16.5s-46.833 -6 -62.5 -18s-24.5 -29 -26.5 -51h-72c3.33301 42 20 73.833 50 95.5s68.333 32.5 115 32.5z" />
    <glyph glyph-name="guillemotleft" unicode="&#xab;" horiz-adv-x="536" 
d="M496 146l-59 -54l-187 212l187 212l59 -54l-139 -158zM266 146l-59 -54l-187 212l187 212l59 -54l-139 -158z" />
    <glyph glyph-name="logicalnot" unicode="&#xac;" horiz-adv-x="500" 
d="M399 112v150h-359v59h420v-209h-61z" />
    <glyph glyph-name="registered" unicode="&#xae;" horiz-adv-x="539" 
d="M232 536h50.999c14.667 0 25.834 4 33.501 12s11.5 17.333 11.5 28c0 10.6709 -3.66699 19.8379 -11 27.5c-7.33301 7.66699 -18 11.5 -32 11.5h-53v-79zM370.999 577c0 -35.333 -16.333 -60 -49 -74l56 -88h-50l-52 80h-44v-80h-44v242h95c27.333 0 48.833 -8 64.5 -24
s23.5 -34.667 23.5 -56zM269.999 331c55.334 0 101.666 18.667 138.999 56s56 85.333 56 144c0 58 -18.667 105.833 -56 143.5s-83.666 56.5 -138.999 56.5s-101.833 -18.833 -139.5 -56.5s-56.5 -85.5 -56.5 -143.5c0 -58.667 18.833 -106.667 56.5 -144
s84.167 -56 139.5 -56zM269.998 762c65.333 0 119.833 -21.667 163.5 -65c43.667 -43.335 65.5 -98.668 65.5 -166c0 -67.333 -21.833 -122.666 -65.5 -165.999s-98.167 -65 -163.5 -65s-120 21.667 -164 65c-44 43.334 -66 98.667 -66 166s22 122.666 66 165.999
s98.667 65 164 65z" />
    <glyph glyph-name="macron" unicode="&#xaf;" horiz-adv-x="319" 
d="M0 650v67h319v-67h-319z" />
    <glyph glyph-name="degree" unicode="&#xb0;" horiz-adv-x="445" 
d="M327 632c0 32 -10 58.501 -30 79.501s-45 31.5 -75 31.5c-30.667 0 -55.667 -10.333 -75 -31s-29 -47.334 -29 -80.001c0 -33.333 9.66699 -60.5 29 -81.5s44.333 -31.5 75 -31.5c30 0 55 10.667 75 32s30 48.333 30 81zM40 631.001c0 53.333 17.333 96.998 52 130.998
s77.334 51 128.001 51c53.333 0 97.5 -16.833 132.5 -50.5s52.5 -77.5 52.5 -131.5c0 -53.334 -17.667 -97.167 -53 -131.499c-35.333 -34.333 -79.333 -51.5 -132 -51.5c-50.667 0 -93.334 17.333 -128.001 52c-34.667 34.668 -52 78.335 -52 131.001z" />
    <glyph glyph-name="plusminus" unicode="&#xb1;" horiz-adv-x="500" 
d="M40 187h420v-59h-420v59zM460 514v-59h-179v-189h-61v189h-180v59h180v191h61v-191h179z" />
    <glyph glyph-name="Zcaron" unicode="&#x17d;" horiz-adv-x="666" 
d="M626 0h-576v83l451 585h-439v82h549v-82l-447 -585h462v-83zM508 995l-129 -163h-59l-129 163h86l72 -90l73 90h86z" />
    <glyph glyph-name="paragraph" unicode="&#xb6;" horiz-adv-x="628" 
d="M370 668h-102c-49.333 0 -86 -13.167 -110 -39.5s-36 -58.833 -36 -97.5s12.167 -71.334 36.5 -98c24.333 -26.667 61.5 -40 111.5 -40h100v275zM558 -140h-63v890h63v-890zM30 536c0 59.333 19.168 109.834 57.501 151.501s95.5 62.5 171.5 62.5h174v-890h-63v451h-100
c-78.667 0 -138.334 22.167 -179.001 66.5s-61 97.166 -61 158.499z" />
    <glyph glyph-name="periodcentered" unicode="&#xb7;" horiz-adv-x="216" 
d="M50 414h116v-120h-116v120z" />
    <glyph glyph-name="zcaron" unicode="&#x17e;" horiz-adv-x="531" 
d="M481 0h-436v79l327 384h-315v79h424v-79l-328 -384h328v-79zM279 723l72 90h86l-129 -163h-59l-129 163h86z" />
    <glyph glyph-name="ordmasculine" unicode="&#xba;" horiz-adv-x="472" 
d="M359 543c-0.666992 43.333 -12.501 76.998 -35.501 100.998s-52.5 36 -88.5 36c-37.333 0 -66.833 -12.167 -88.5 -36.5c-21.667 -24.334 -32.5 -58.167 -32.5 -101.499v-5c0.666992 -44 12.334 -78 35.001 -102s52 -36 88 -36c37.334 0 67.167 12.833 89.5 38.5
c22.335 25.667 33.168 60.834 32.5 105.501zM235.999 749.998c57.333 0 104.333 -19.166 141 -57.499c36.667 -38.335 55 -89.168 55 -152.5c0 -63.333 -18.333 -114.166 -55 -152.499s-83.667 -57.5 -141 -57.5s-104.333 19.167 -141 57.5s-55 89.166 -55 152.499
s18.333 114.166 55 152.499s83.667 57.5 141 57.5z" />
    <glyph glyph-name="guillemotright" unicode="&#xbb;" horiz-adv-x="536" 
d="M270 462l59 54l187 -212l-187 -212l-59 54l139 158zM40 462l59 54l187 -212l-187 -212l-59 54l139 158z" />
    <glyph glyph-name="OE" unicode="&#x152;" horiz-adv-x="1157" 
d="M145 375c0 -89.333 25.167 -162.333 75.5 -219s116.166 -85 197.499 -85c80.667 0 144.834 28.167 192.501 84.5s71.5 129.5 71.5 219.5c0 89.334 -25 162.334 -75 219c-50 56.667 -114.333 85 -193 85c-83.333 0 -149 -28 -197 -84s-72 -129.333 -72 -220zM1117 0
l-583.001 0.000976562c-38 -12.667 -77.333 -19 -118 -19c-108 0 -196 37.333 -264 112s-102 168.667 -102 282s33.833 207.166 101.5 281.499s155.834 111.5 264.501 111.5c40.667 0 79 -6 115 -18h566v-82h-433c64 -64 101 -146.333 111 -247h304v-83h-303
c-8 -104 -44.667 -189 -110 -255h451v-83z" />
    <glyph glyph-name="oe" unicode="&#x153;" horiz-adv-x="1001" 
d="M299 70c50 0 89.999 18.167 119.999 54.5s45 86.166 45 149.499c0 61.333 -15.833 109.333 -47.5 144s-71.834 52 -120.5 52c-50 0 -90 -18.167 -120 -54.5s-45 -86.166 -45 -149.499c0 -61.333 15.833 -109.333 47.5 -144s71.834 -52 120.501 -52zM559.999 321h311
c-0.666992 48 -15 85.667 -43 113s-63.333 41 -106 41s-79 -13 -109 -39s-47.667 -64.333 -53 -115zM960.999 249l-404 0.00292969c2 -59.333 18.667 -104.333 50 -135s72.333 -46 123 -46c36 0 67.333 9.16699 94 27.5s43 44.166 49 77.499h85
c-10 -60 -37.333 -105.833 -82 -137.5s-95.667 -47.5 -153 -47.5c-43.335 0 -83.668 9.66699 -121 29c-37.333 19.333 -67.333 48 -90 86c-46.667 -76.667 -118.334 -115 -215 -115c-76 0 -137.833 25.5 -185.5 76.5s-71.5 119.5 -71.5 205.5s24 154.5 72 205.5
s109.667 76.5 185 76.5c46.667 0 88.5 -9.83301 125.5 -29.5c37 -19.668 66.833 -47.835 89.5 -84.501c22 37.334 51.667 65.667 89 84.999c37.333 19.333 78 29 122 29c68.667 0 125.5 -22.333 170.5 -67s67.5 -109.667 67.5 -195v-41z" />
    <glyph glyph-name="Ydieresis" unicode="&#x178;" horiz-adv-x="662" 
d="M378 0h-94v293l-264 457h109l206 -377l206 377h101l-264 -457v-293zM477 937v-105h-93v105h93zM278 937v-105h-93v105h93z" />
    <glyph glyph-name="questiondown" unicode="&#xbf;" horiz-adv-x="513" 
d="M344 305v-51.001c0 -11.334 -0.833008 -22.167 -2.5 -32.5s-3.16699 -19.5 -4.5 -27.5s-4.33301 -16.333 -9 -25s-8 -15.5 -10 -20.5s-6.66699 -11.167 -14 -18.5s-12 -12.333 -14 -15s-7.5 -7.5 -16.5 -14.5s-14.333 -11.167 -16 -12.5s-7.66699 -5.5 -18 -12.5
s-15.833 -10.833 -16.5 -11.5c-27.333 -18.667 -48.333 -37.167 -63 -55.5s-22 -41.166 -22 -68.499c0 -36 12.333 -62.333 37 -79s55.667 -25 93 -25c42.667 0 76.667 11 102 33s38 54 38 96h90c0 -67.333 -22.5 -119.166 -67.5 -155.499s-101.167 -54.5 -168.5 -54.5
c-63.333 0 -115 16 -155 48s-60 78 -60 138c0 21.333 2.33301 40.5 7 57.5s13.167 32.667 25.5 47s22.5 25.333 30.5 33s21.833 18.667 41.5 33s32.5 24.166 38.5 29.499c29.333 23.333 48.5 43.5 57.5 60.5s13.5 39.167 13.5 66.5v37h83zM359 396.999h-116v120h116v-120z
" />
    <glyph glyph-name="Agrave" unicode="&#xc0;" horiz-adv-x="762" 
d="M517 286l-142 355l-137 -355h279zM549 203h-343l-79 -203h-97l300 750h92l310 -750h-102zM338 832l-121 133l73 55l121 -188h-73z" />
    <glyph glyph-name="Aacute" unicode="&#xc1;" horiz-adv-x="762" 
d="M517 286l-142 355l-137 -355h279zM549 203h-343l-79 -203h-97l300 750h92l310 -750h-102zM416 832h-73l121 188l73 -55z" />
    <glyph glyph-name="Acircumflex" unicode="&#xc2;" horiz-adv-x="762" 
d="M517 286l-142 355l-137 -355h279zM549 203h-343l-79 -203h-97l300 750h92l310 -750h-102zM309 832h-86l129 163h59l129 -163h-86l-73 90z" />
    <glyph glyph-name="Atilde" unicode="&#xc3;" horiz-adv-x="762" 
d="M517 286l-142 355l-137 -355h279zM549 203h-343l-79 -203h-97l300 750h92l310 -750h-102zM318 887c-20.667 0 -33.999 -18.332 -39.999 -54.999h-58c2.66699 40.667 12.667 72.5 30 95.5s38.333 34.5 63 34.5c19.333 0 42.833 -10.333 70.5 -31s47.167 -31 58.5 -31
c21.334 0 34.667 19.333 39.999 58h55c0 -42.667 -8.83301 -75.334 -26.5 -98.001s-38.5 -34 -62.5 -34c-18.667 0 -42 10.167 -70 30.5s-48 30.5 -60 30.5z" />
    <glyph glyph-name="Adieresis" unicode="&#xc4;" horiz-adv-x="762" 
d="M517 286l-142 355l-137 -355h279zM549 203h-343l-79 -203h-97l300 750h92l310 -750h-102zM527 832h-93v105h93v-105zM328 832h-93v105h93v-105z" />
    <glyph glyph-name="Aring" unicode="&#xc5;" horiz-adv-x="762" 
d="M517 286l-142 355l-137 -355h279zM549 203h-343l-79 -203h-97l300 750h92l310 -750h-102zM384 979c-14.667 0 -26.5 -4.83203 -35.5 -14.499s-13.5 -21.834 -13.5 -36.501c0 -15.333 4.5 -28 13.5 -38s20.833 -15 35.5 -15s26.667 5 36 15s14 22.667 14 38
c0 14.6738 -4.66699 26.8408 -14 36.5c-9.33301 9.66699 -21.333 14.5 -36 14.5zM383 827.001c-28 0 -51.502 9.5 -70.502 28.5s-28.5 43.167 -28.5 72.5s9.33301 53.333 28 72s42.334 28 71.001 28c30 0 54.5 -9.16699 73.5 -27.5s28.5 -42.5 28.5 -72.5
c0 -29.333 -9.66699 -53.5 -29 -72.5s-43.666 -28.5 -72.999 -28.5z" />
    <glyph glyph-name="AE" unicode="&#xc6;" horiz-adv-x="1071" 
d="M529 311v358h-42l-189 -358h231zM1031 83v-83h-502v228h-275l-120 -228h-104l405 750h576v-82h-390v-247h372v-83h-372v-255h410z" />
    <glyph glyph-name="Ccedilla" unicode="&#xc7;" horiz-adv-x="772" 
d="M630 264l96.999 0.000976562c-2 -84 -31.833 -151.5 -89.5 -202.5s-130.167 -77.833 -217.5 -80.5v-25c32.667 -1.33301 59 -9.33301 79 -24s30 -34.334 30 -59.001c0 -26 -10 -47.667 -30 -65s-45.667 -26 -77 -26c-45.333 0 -83.333 13.333 -114 40l32 49
c26.667 -21.333 52.334 -32 77.001 -32c14.667 0 26.334 3.33301 35.001 10s13 15.667 13 27c0 12.667 -8.33301 23.834 -25 33.501s-41 14.5 -73 14.5l9 58c-102 8 -181.833 49.833 -239.5 125.5s-86.5 166.167 -86.5 271.5c0 110 32.167 202.333 96.5 277
s153.833 112 268.5 112c86 0 156.5 -21.833 211.5 -65.5s86.833 -106.5 95.5 -188.5h-97c-6.66699 52 -29.5 93.167 -68.5 123.5s-87.833 45.5 -146.5 45.5c-84 0 -149.167 -29.333 -195.5 -88s-69.5 -130.334 -69.5 -215.001c0 -86.667 23.833 -160.5 71.5 -221.5
s114.167 -91.5 199.5 -91.5c62 0 112.833 17.167 152.499 51.5c39.667 34.333 60.167 82.833 61.5 145.5z" />
    <glyph glyph-name="Egrave" unicode="&#xc8;" horiz-adv-x="627" 
d="M85 0v750h482v-82h-390v-247h372v-83h-372v-255h410v-83h-502zM257 1020l121 -188h-73l-121 133z" />
    <glyph glyph-name="Eacute" unicode="&#xc9;" horiz-adv-x="627" 
d="M85 0v750h482v-82h-390v-247h372v-83h-372v-255h410v-83h-502zM354 832h-73l121 188l73 -55z" />
    <glyph glyph-name="Ecircumflex" unicode="&#xca;" horiz-adv-x="627" 
d="M85 0v750h482v-82h-390v-247h372v-83h-372v-255h410v-83h-502zM333 922l-72 -90h-86l129 163h59l129 -163h-86z" />
    <glyph glyph-name="Edieresis" unicode="&#xcb;" horiz-adv-x="627" 
d="M85 0v750h482v-82h-390v-247h372v-83h-372v-255h410v-83h-502zM480 937v-105h-93v105h93zM281 937v-105h-93v105h93z" />
    <glyph glyph-name="Igrave" unicode="&#xcc;" horiz-adv-x="272" 
d="M182 0h-92v750h92v-750zM46 1020l121 -188h-73l-121 133z" />
    <glyph glyph-name="Iacute" unicode="&#xcd;" horiz-adv-x="272" 
d="M182 0h-92v750h92v-750zM177 832h-73l121 188l73 -55z" />
    <glyph glyph-name="Icircumflex" unicode="&#xce;" horiz-adv-x="272" 
d="M181 0h-92v750h92v-750zM135 922l-72 -90h-86l129 163h59l129 -163h-86z" />
    <glyph glyph-name="Idieresis" unicode="&#xcf;" horiz-adv-x="472" 
d="M282 0h-92v750h92v-750zM382 937v-105h-93v105h93zM183 937v-105h-93v105h93z" />
    <glyph glyph-name="Eth" unicode="&#xd0;" horiz-adv-x="740" 
d="M177 83h136c88.667 0 157.667 29.167 207 87.5s74 128.5 74 210.5c0 80.667 -24.333 148.667 -73 204s-117.334 83 -206 83h-138v-258h192v-57h-192v-270zM85 750l235 -0.000976562c79.333 0 147.5 -17.167 204.5 -51.5s98.833 -78.5 125.5 -132.5s40 -114 40 -180
c0 -49.333 -8 -96.666 -24 -141.999s-39 -86.333 -69 -123s-69.5 -66 -118.5 -88s-103.833 -33 -164.5 -33h-229v353h-95v57h95v340z" />
    <glyph glyph-name="Ntilde" unicode="&#xd1;" horiz-adv-x="741" 
d="M656 0h-95l-387 609v-609h-89v750h110l372 -593v593h89v-750zM494 958l55.001 0.000976562c0 -42.667 -8.83301 -75.334 -26.5 -98.001s-38.5 -34 -62.5 -34c-18.667 0 -42 10.167 -70 30.5s-48 30.5 -60 30.5c-20.667 0 -34 -18.333 -40 -55h-58
c2.66699 40.667 12.667 72.5 30 95.5s38.333 34.5 63 34.5c19.333 0 42.833 -10.333 70.5 -31s47.167 -31 58.5 -31c21.334 0 34.667 19.333 39.999 58z" />
    <glyph glyph-name="Ograve" unicode="&#xd2;" horiz-adv-x="827" 
d="M414 679c-83.333 0 -149 -28 -197 -84s-72 -129.333 -72 -220c0 -89.333 25.167 -162.333 75.5 -219s116.166 -85 197.499 -85c80.667 0 144.834 28.167 192.501 84.5s71.5 129.5 71.5 219.5c0 89.334 -25 162.334 -75 219c-50 56.667 -114.333 85 -193 85zM416 -19
c-108 0 -196.001 37.335 -264.001 112.002s-102 168.667 -102 282s33.833 207.166 101.5 281.499s155.834 111.5 264.501 111.5c105.333 0 191.833 -37.333 259.5 -112s101.5 -168.334 101.5 -281.001s-33.667 -206.5 -101 -281.5s-154 -112.5 -260 -112.5zM359.999 1020
l121 -188h-73l-121 133z" />
    <glyph glyph-name="Oacute" unicode="&#xd3;" horiz-adv-x="827" 
d="M414 679c-83.333 0 -149 -28 -197 -84s-72 -129.333 -72 -220c0 -89.333 25.167 -162.333 75.5 -219s116.166 -85 197.499 -85c80.667 0 144.834 28.167 192.501 84.5s71.5 129.5 71.5 219.5c0 89.334 -25 162.334 -75 219c-50 56.667 -114.333 85 -193 85zM416 -19
c-108 0 -196.001 37.335 -264.001 112.002s-102 168.667 -102 282s33.833 207.166 101.5 281.499s155.834 111.5 264.501 111.5c105.333 0 191.833 -37.333 259.5 -112s101.5 -168.334 101.5 -281.001s-33.667 -206.5 -101 -281.5s-154 -112.5 -260 -112.5zM459.999 832.002
h-73l121 188l73 -55z" />
    <glyph glyph-name="Ocircumflex" unicode="&#xd4;" horiz-adv-x="827" 
d="M414 679c-83.333 0 -149 -28 -197 -84s-72 -129.333 -72 -220c0 -89.333 25.167 -162.333 75.5 -219s116.166 -85 197.499 -85c80.667 0 144.834 28.167 192.501 84.5s71.5 129.5 71.5 219.5c0 89.334 -25 162.334 -75 219c-50 56.667 -114.333 85 -193 85zM416 -19
c-108 0 -196.001 37.335 -264.001 112.002s-102 168.667 -102 282s33.833 207.166 101.5 281.499s155.834 111.5 264.501 111.5c105.333 0 191.833 -37.333 259.5 -112s101.5 -168.334 101.5 -281.001s-33.667 -206.5 -101 -281.5s-154 -112.5 -260 -112.5zM412.999 922.002
l-72 -90h-86l129 163h59l129 -163h-86z" />
    <glyph glyph-name="Otilde" unicode="&#xd5;" horiz-adv-x="827" 
d="M414 679c-83.333 0 -149 -28 -197 -84s-72 -129.333 -72 -220c0 -89.333 25.167 -162.333 75.5 -219s116.166 -85 197.499 -85c80.667 0 144.834 28.167 192.501 84.5s71.5 129.5 71.5 219.5c0 89.334 -25 162.334 -75 219c-50 56.667 -114.333 85 -193 85zM416 -19
c-108 0 -196.001 37.335 -264.001 112.002s-102 168.667 -102 282s33.833 207.166 101.5 281.499s155.834 111.5 264.501 111.5c105.333 0 191.833 -37.333 259.5 -112s101.5 -168.334 101.5 -281.001s-33.667 -206.5 -101 -281.5s-154 -112.5 -260 -112.5zM525.999 958.002
l55.001 0.000976562c0 -42.667 -8.83301 -75.334 -26.5 -98.001s-38.5 -34 -62.5 -34c-18.667 0 -42 10.167 -70 30.5s-48 30.5 -60 30.5c-20.667 0 -34 -18.333 -40 -55h-58c2.66699 40.667 12.667 72.5 30 95.5s38.333 34.5 63 34.5c19.333 0 42.833 -10.333 70.5 -31
s47.167 -31 58.5 -31c21.333 0 34.666 19.333 39.999 58z" />
    <glyph glyph-name="Odieresis" unicode="&#xd6;" horiz-adv-x="827" 
d="M414 679c-83.333 0 -149 -28 -197 -84s-72 -129.333 -72 -220c0 -89.333 25.167 -162.333 75.5 -219s116.166 -85 197.499 -85c80.667 0 144.834 28.167 192.501 84.5s71.5 129.5 71.5 219.5c0 89.334 -25 162.334 -75 219c-50 56.667 -114.333 85 -193 85zM416 -19
c-108 0 -196.001 37.335 -264.001 112.002s-102 168.667 -102 282s33.833 207.166 101.5 281.499s155.834 111.5 264.501 111.5c105.333 0 191.833 -37.333 259.5 -112s101.5 -168.334 101.5 -281.001s-33.667 -206.5 -101 -281.5s-154 -112.5 -260 -112.5zM569.999 937.002
v-105h-93v105h93zM370.999 937.002v-105h-93v105h93z" />
    <glyph glyph-name="multiply" unicode="&#xd7;" horiz-adv-x="500" 
d="M292 304l158 -158l-42 -42l-158 158l-158 -158l-42 42l158 158l-158 158l42 42l158 -158l158 158l42 -42z" />
    <glyph glyph-name="Oslash" unicode="&#xd8;" horiz-adv-x="827" 
d="M418 71c80.667 0 144.832 28.167 192.499 84.5s71.5 129.5 71.5 219.5c0 60.667 -12 114.5 -36 161.5s-57.333 82.833 -100 107.5l-205 -563c22.667 -6.66699 48.334 -10 77.001 -10zM144.998 375c0 -63.333 13.332 -119.167 39.999 -167.5s63.334 -84.5 110.001 -108.5
l206 566c-28 9.33301 -57 14 -87 14c-83.333 0 -149 -28 -197 -84s-72 -129.333 -72 -220zM619.997 847.999l-43.001 -117c62 -31.333 110.833 -78.5 146.5 -141.5s53.5 -134.5 53.5 -214.5c0 -112.667 -33.667 -206.5 -101 -281.5s-154 -112.5 -260 -112.5
c-36.667 0 -72 4.66699 -106 14l-33 -91h-53l39 109c-66 29.333 -118 76.333 -156 141s-57 138.334 -57 221.001c0 113.333 33.833 207.166 101.5 281.499s155.834 111.5 264.501 111.5c41.334 0 79.667 -6 115 -18l36 98h53z" />
    <glyph glyph-name="Ugrave" unicode="&#xd9;" horiz-adv-x="731" 
d="M656 750l0.000976562 -485c0 -92 -26.333 -162.333 -79 -211s-122.334 -73 -209.001 -73c-87.333 0 -158 24.333 -212 73s-81 119 -81 211v485h92v-478c0 -68.667 19 -120.167 57 -154.5s86 -51.5 144 -51.5c59.333 0 107.333 15.833 144 47.5s55 80.167 55 145.5v491h89
zM311.001 1020l121 -188h-73l-121 133z" />
    <glyph glyph-name="Uacute" unicode="&#xda;" horiz-adv-x="731" 
d="M656 750l0.000976562 -485c0 -92 -26.333 -162.333 -79 -211s-122.334 -73 -209.001 -73c-87.333 0 -158 24.333 -212 73s-81 119 -81 211v485h92v-478c0 -68.667 19 -120.167 57 -154.5s86 -51.5 144 -51.5c59.333 0 107.333 15.833 144 47.5s55 80.167 55 145.5v491h89
zM399.001 832h-73l121 188l73 -55z" />
    <glyph glyph-name="Ucircumflex" unicode="&#xdb;" horiz-adv-x="731" 
d="M656 750l0.000976562 -485c0 -92 -26.333 -162.333 -79 -211s-122.334 -73 -209.001 -73c-87.333 0 -158 24.333 -212 73s-81 119 -81 211v485h92v-478c0 -68.667 19 -120.167 57 -154.5s86 -51.5 144 -51.5c59.333 0 107.333 15.833 144 47.5s55 80.167 55 145.5v491h89
zM365.001 922l-72 -90h-86l129 163h59l129 -163h-86z" />
    <glyph glyph-name="Udieresis" unicode="&#xdc;" horiz-adv-x="731" 
d="M656 750l0.000976562 -485c0 -92 -26.333 -162.333 -79 -211s-122.334 -73 -209.001 -73c-87.333 0 -158 24.333 -212 73s-81 119 -81 211v485h92v-478c0 -68.667 19 -120.167 57 -154.5s86 -51.5 144 -51.5c59.333 0 107.333 15.833 144 47.5s55 80.167 55 145.5v491h89
zM512.001 937v-105h-93v105h93zM313.001 937v-105h-93v105h93z" />
    <glyph glyph-name="Yacute" unicode="&#xdd;" horiz-adv-x="662" 
d="M378 0h-94v293l-264 457h109l206 -377l206 377h101l-264 -457v-293zM377 832h-73l121 188l73 -55z" />
    <glyph glyph-name="Thorn" unicode="&#xde;" horiz-adv-x="630" 
d="M175 243h182c47.333 0 84 14 110 42s39 61 39 99c0 36.667 -13 68.167 -39 94.5s-61.667 39.5 -107 39.5h-185v-275zM175 600h195c72 0 128.333 -20.5 169 -61.5s61 -89.833 61 -146.5c0 -62 -21.167 -116 -63.5 -162s-101.833 -69 -178.5 -69h-183v-161h-90v750h90v-150
z" />
    <glyph glyph-name="germandbls" unicode="&#xdf;" horiz-adv-x="616" 
d="M382 390c62.667 -8 110.667 -29.5 144 -64.5s50 -78.167 50 -129.5c0 -60.667 -22 -108.5 -66 -143.5s-101.667 -52.5 -173 -52.5h-80v71h77c44.667 0 81.334 11 110.001 33s43 52.667 43 92c0 42.667 -18 77.334 -54 104.001s-91 40 -165 40h-11v70
c54.667 7.33398 97.667 24.667 129 52s47 62 47 104c0 38.668 -12.667 68.335 -38 89c-25.333 20.667 -57.333 31 -96 31c-41.333 0 -75 -12.167 -101 -36.5s-39 -60.5 -39 -108.5v-541h-89v541c0 72 21.667 126.833 65 164.5s97.666 56.5 162.999 56.5
c63.333 0 116.5 -17.167 159.5 -51.5s64.5 -80.5 64.5 -138.5c0 -47.334 -14 -86.501 -42 -117.501s-60.667 -52.5 -98 -64.5z" />
    <glyph glyph-name="agrave" unicode="&#xe0;" horiz-adv-x="548" 
d="M396 233l-0.000976562 45.001c-14 -8 -39 -14.667 -75 -20l-78 -11c-75.333 -10.667 -113 -41.334 -113 -92.001c0 -28.667 9.83301 -50.5 29.5 -65.5s44.5 -22.5 74.5 -22.5c42.667 0 80.334 14.667 113.001 44s49 70 49 122zM282.999 552.001
c63.333 0 112.5 -15.334 147.5 -46.001s52.5 -75.667 52.5 -135v-371h-86v92c-36 -69.333 -96.333 -104 -181 -104c-48.667 0 -90.167 14.667 -124.5 44s-51.5 69.666 -51.5 120.999c0 47.333 15.167 84 45.5 110s70.5 42.333 120.5 49l122 16
c22.667 2.66699 39.834 8.33398 51.501 17.001s17.5 23.334 17.5 44.001c0 28.667 -10.833 50.667 -32.5 66s-51.167 23 -88.5 23c-36 0 -65.333 -8.83301 -88 -26.5s-36 -41.167 -40 -70.5h-88c5.33301 55.334 28.166 97.667 68.499 127s91.833 44 154.5 44zM228.999 838
l121 -188h-73l-121 133z" />
    <glyph glyph-name="aacute" unicode="&#xe1;" horiz-adv-x="548" 
d="M396 233l-0.000976562 45.001c-14 -8 -39 -14.667 -75 -20l-78 -11c-75.333 -10.667 -113 -41.334 -113 -92.001c0 -28.667 9.83301 -50.5 29.5 -65.5s44.5 -22.5 74.5 -22.5c42.667 0 80.334 14.667 113.001 44s49 70 49 122zM282.999 552.001
c63.333 0 112.5 -15.334 147.5 -46.001s52.5 -75.667 52.5 -135v-371h-86v92c-36 -69.333 -96.333 -104 -181 -104c-48.667 0 -90.167 14.667 -124.5 44s-51.5 69.666 -51.5 120.999c0 47.333 15.167 84 45.5 110s70.5 42.333 120.5 49l122 16
c22.667 2.66699 39.834 8.33398 51.501 17.001s17.5 23.334 17.5 44.001c0 28.667 -10.833 50.667 -32.5 66s-51.167 23 -88.5 23c-36 0 -65.333 -8.83301 -88 -26.5s-36 -41.167 -40 -70.5h-88c5.33301 55.334 28.166 97.667 68.499 127s91.833 44 154.5 44zM329.999 650
h-73l121 188l73 -55z" />
    <glyph glyph-name="acircumflex" unicode="&#xe2;" horiz-adv-x="548" 
d="M396 233l-0.000976562 45.001c-14 -8 -39 -14.667 -75 -20l-78 -11c-75.333 -10.667 -113 -41.334 -113 -92.001c0 -28.667 9.83301 -50.5 29.5 -65.5s44.5 -22.5 74.5 -22.5c42.667 0 80.334 14.667 113.001 44s49 70 49 122zM282.999 552.001
c63.333 0 112.5 -15.334 147.5 -46.001s52.5 -75.667 52.5 -135v-371h-86v92c-36 -69.333 -96.333 -104 -181 -104c-48.667 0 -90.167 14.667 -124.5 44s-51.5 69.666 -51.5 120.999c0 47.333 15.167 84 45.5 110s70.5 42.333 120.5 49l122 16
c22.667 2.66699 39.834 8.33398 51.501 17.001s17.5 23.334 17.5 44.001c0 28.667 -10.833 50.667 -32.5 66s-51.167 23 -88.5 23c-36 0 -65.333 -8.83301 -88 -26.5s-36 -41.167 -40 -70.5h-88c5.33301 55.334 28.166 97.667 68.499 127s91.833 44 154.5 44zM286.999 740
l-72 -90h-86l129 163h59l129 -163h-86z" />
    <glyph glyph-name="atilde" unicode="&#xe3;" horiz-adv-x="548" 
d="M396 233l-0.000976562 45.001c-14 -8 -39 -14.667 -75 -20l-78 -11c-75.333 -10.667 -113 -41.334 -113 -92.001c0 -28.667 9.83301 -50.5 29.5 -65.5s44.5 -22.5 74.5 -22.5c42.667 0 80.334 14.667 113.001 44s49 70 49 122zM282.999 552.001
c63.333 0 112.5 -15.334 147.5 -46.001s52.5 -75.667 52.5 -135v-371h-86v92c-36 -69.333 -96.333 -104 -181 -104c-48.667 0 -90.167 14.667 -124.5 44s-51.5 69.666 -51.5 120.999c0 47.333 15.167 84 45.5 110s70.5 42.333 120.5 49l122 16
c22.667 2.66699 39.834 8.33398 51.501 17.001s17.5 23.334 17.5 44.001c0 28.667 -10.833 50.667 -32.5 66s-51.167 23 -88.5 23c-36 0 -65.333 -8.83301 -88 -26.5s-36 -41.167 -40 -70.5h-88c5.33301 55.334 28.166 97.667 68.499 127s91.833 44 154.5 44zM378.999 776
l55 0.000976562c0 -42.667 -8.83301 -75.334 -26.5 -98.001s-38.5 -34 -62.5 -34c-18.667 0 -42 10.167 -70 30.5s-48 30.5 -60 30.5c-20.667 0 -34 -18.333 -40 -55h-58c2.66699 40.667 12.667 72.5 30 95.5s38.333 34.5 63 34.5c19.333 0 42.833 -10.333 70.5 -31
s47.167 -31 58.5 -31c21.334 0 34.667 19.333 40 58z" />
    <glyph glyph-name="adieresis" unicode="&#xe4;" horiz-adv-x="548" 
d="M396 233l-0.000976562 45.001c-14 -8 -39 -14.667 -75 -20l-78 -11c-75.333 -10.667 -113 -41.334 -113 -92.001c0 -28.667 9.83301 -50.5 29.5 -65.5s44.5 -22.5 74.5 -22.5c42.667 0 80.334 14.667 113.001 44s49 70 49 122zM282.999 552.001
c63.333 0 112.5 -15.334 147.5 -46.001s52.5 -75.667 52.5 -135v-371h-86v92c-36 -69.333 -96.333 -104 -181 -104c-48.667 0 -90.167 14.667 -124.5 44s-51.5 69.666 -51.5 120.999c0 47.333 15.167 84 45.5 110s70.5 42.333 120.5 49l122 16
c22.667 2.66699 39.834 8.33398 51.501 17.001s17.5 23.334 17.5 44.001c0 28.667 -10.833 50.667 -32.5 66s-51.167 23 -88.5 23c-36 0 -65.333 -8.83301 -88 -26.5s-36 -41.167 -40 -70.5h-88c5.33301 55.334 28.166 97.667 68.499 127s91.833 44 154.5 44zM416.999 755
v-105h-93v105h93zM217.999 755v-105h-93v105h93z" />
    <glyph glyph-name="aring" unicode="&#xe5;" horiz-adv-x="548" 
d="M396 233l-0.000976562 45.001c-14 -8 -39 -14.667 -75 -20l-78 -11c-75.333 -10.667 -113 -41.334 -113 -92.001c0 -28.667 9.83301 -50.5 29.5 -65.5s44.5 -22.5 74.5 -22.5c42.667 0 80.334 14.667 113.001 44s49 70 49 122zM282.999 552.001
c63.333 0 112.5 -15.334 147.5 -46.001s52.5 -75.667 52.5 -135v-371h-86v92c-36 -69.333 -96.333 -104 -181 -104c-48.667 0 -90.167 14.667 -124.5 44s-51.5 69.666 -51.5 120.999c0 47.333 15.167 84 45.5 110s70.5 42.333 120.5 49l122 16
c22.667 2.66699 39.834 8.33398 51.501 17.001s17.5 23.334 17.5 44.001c0 28.667 -10.833 50.667 -32.5 66s-51.167 23 -88.5 23c-36 0 -65.333 -8.83301 -88 -26.5s-36 -41.167 -40 -70.5h-88c5.33301 55.334 28.166 97.667 68.499 127s91.833 44 154.5 44zM327.999 746
c0 14.667 -4.66699 26.834 -14 36.501s-21.333 14.5 -36 14.5s-26.5 -4.83301 -35.5 -14.5s-13.5 -21.834 -13.5 -36.501c0 -15.333 4.5 -28 13.5 -38s20.833 -15 35.5 -15s26.667 5 36 15s14 22.667 14 38zM177.999 746c0 29.333 9.33105 53.333 27.998 72
s42.334 28 71.001 28c30 0 54.5 -9.16699 73.5 -27.5s28.5 -42.5 28.5 -72.5c0 -29.333 -9.66699 -53.5 -29 -72.5s-43.666 -28.5 -72.999 -28.5c-28 0 -51.5 9.5 -70.5 28.5s-28.5 43.167 -28.5 72.5z" />
    <glyph glyph-name="ae" unicode="&#xe6;" horiz-adv-x="927" 
d="M396 233l-0.000976562 45.001c-14 -8 -39 -14.667 -75 -20l-78 -11c-75.333 -10.667 -113 -41.334 -113 -92.001c0 -28.667 9.83301 -50.5 29.5 -65.5s44.5 -22.5 74.5 -22.5c42.667 0 80.334 14.667 113.001 44s49 70 49 122zM485.999 321.001h311
c-0.666992 48 -15 85.667 -43 113s-63.333 41 -106 41s-79 -13 -109 -39s-47.667 -64.333 -53 -115zM886.999 249.001h-404c2 -59.333 18.667 -104.333 50 -135s72.333 -46 123 -46c36 0 67.333 9.16699 94 27.5s43 44.166 49 77.499h85
c-10 -60 -37.333 -105.833 -82 -137.5s-95.667 -47.5 -153 -47.5c-44.667 0 -86.167 10.333 -124.5 31s-68.5 51 -90.5 91c-42 -81.333 -114.667 -122 -218 -122c-48.667 0 -90.167 14.667 -124.5 44s-51.5 69.666 -51.5 120.999c0 47.333 15.167 84 45.5 110
s70.5 42.333 120.5 49l122 16c22.667 2.66699 39.834 8.33398 51.501 17.001s17.5 23.334 17.5 44.001c0 27.333 -11.167 49 -33.5 65s-51.5 24 -87.5 24s-65.333 -8.83301 -88 -26.5s-36 -41.167 -40 -70.5h-88c5.33301 55.334 28.166 97.667 68.499 127
s91.833 44 154.5 44c86.667 0 145.667 -27.667 177 -83c46.667 55.333 109.667 83 189 83c68.667 0 125.5 -22.333 170.5 -67s67.5 -109.667 67.5 -195v-41z" />
    <glyph glyph-name="ccedilla" unicode="&#xe7;" horiz-adv-x="567" 
d="M297 69c38 0 70.666 11.5 97.999 34.5c27.334 23 41.667 53.167 42.999 90.5h88c-4 -63.333 -27.5 -113.166 -70.5 -149.499s-94.833 -55.166 -155.5 -56.499v-32c32.667 -1.33301 59.167 -9.33301 79.5 -24s30.5 -34.334 30.5 -59.001c0 -26 -10 -47.667 -30 -65
s-45.667 -26 -77 -26c-45.333 0 -83.333 13.333 -114 40l32 49c26.667 -21.333 52.334 -32 77.001 -32c14.667 0 26.334 3.33301 35.001 10s13 15.667 13 27c0 12.667 -8.33301 23.834 -25 33.501s-41 14.5 -73 14.5l10 66c-63.333 8 -115.5 36 -156.5 84
s-61.5 113 -61.5 195c0 88.667 24.167 157.667 72.5 207s110.166 74.666 185.499 75.999h5c64 0 117 -17.833 159 -53.5s63.667 -83.834 65 -144.5h-87c-2 36.667 -17 66 -45 88s-60.333 33 -97 33c-45.333 0 -84.666 -17.667 -117.999 -53s-50 -86 -50 -152
c0 -66.667 16.5 -116.834 49.5 -150.501s72.167 -50.5 117.5 -50.5z" />
    <glyph glyph-name="egrave" unicode="&#xe8;" horiz-adv-x="570" 
d="M291 475c-42.667 0 -79 -13 -109 -39s-47.667 -64.333 -53 -115h311c-0.666992 48 -15 85.667 -43 113s-63.333 41 -106 41zM530 249l-403.998 0.000976562c2 -59.333 18.667 -104.333 50 -135s72.333 -46 123 -46c36 0 67.333 9.16699 94 27.5s43 44.166 49 77.499h85
c-10 -60 -37.333 -105.833 -82 -137.5s-95.667 -47.5 -153 -47.5c-70.667 0 -130.334 24.333 -179.001 73s-73 118.667 -73 210c0 47.333 7 89.333 21 126s33 66 57 88s50.667 38.667 80 50s60.666 17 93.999 17c69.333 0 126.333 -22.333 171 -67s67 -109.667 67 -195v-41z
M206.002 838.001l121 -188h-73l-121 133z" />
    <glyph glyph-name="eacute" unicode="&#xe9;" horiz-adv-x="570" 
d="M291 475c-42.667 0 -79 -13 -109 -39s-47.667 -64.333 -53 -115h311c-0.666992 48 -15 85.667 -43 113s-63.333 41 -106 41zM530 249l-403.998 0.000976562c2 -59.333 18.667 -104.333 50 -135s72.333 -46 123 -46c36 0 67.333 9.16699 94 27.5s43 44.166 49 77.499h85
c-10 -60 -37.333 -105.833 -82 -137.5s-95.667 -47.5 -153 -47.5c-70.667 0 -130.334 24.333 -179.001 73s-73 118.667 -73 210c0 47.333 7 89.333 21 126s33 66 57 88s50.667 38.667 80 50s60.666 17 93.999 17c69.333 0 126.333 -22.333 171 -67s67 -109.667 67 -195v-41z
M331.002 650.001h-73l121 188l73 -55z" />
    <glyph glyph-name="ecircumflex" unicode="&#xea;" horiz-adv-x="570" 
d="M291 475c-42.667 0 -79 -13 -109 -39s-47.667 -64.333 -53 -115h311c-0.666992 48 -15 85.667 -43 113s-63.333 41 -106 41zM530 249l-403.998 0.000976562c2 -59.333 18.667 -104.333 50 -135s72.333 -46 123 -46c36 0 67.333 9.16699 94 27.5s43 44.166 49 77.499h85
c-10 -60 -37.333 -105.833 -82 -137.5s-95.667 -47.5 -153 -47.5c-70.667 0 -130.334 24.333 -179.001 73s-73 118.667 -73 210c0 47.333 7 89.333 21 126s33 66 57 88s50.667 38.667 80 50s60.666 17 93.999 17c69.333 0 126.333 -22.333 171 -67s67 -109.667 67 -195v-41z
M296.002 740.001l-72 -90h-86l129 163h59l129 -163h-86z" />
    <glyph glyph-name="edieresis" unicode="&#xeb;" horiz-adv-x="570" 
d="M291 475c-42.667 0 -79 -13 -109 -39s-47.667 -64.333 -53 -115h311c-0.666992 48 -15 85.667 -43 113s-63.333 41 -106 41zM530 249l-403.998 0.000976562c2 -59.333 18.667 -104.333 50 -135s72.333 -46 123 -46c36 0 67.333 9.16699 94 27.5s43 44.166 49 77.499h85
c-10 -60 -37.333 -105.833 -82 -137.5s-95.667 -47.5 -153 -47.5c-70.667 0 -130.334 24.333 -179.001 73s-73 118.667 -73 210c0 47.333 7 89.333 21 126s33 66 57 88s50.667 38.667 80 50s60.666 17 93.999 17c69.333 0 126.333 -22.333 171 -67s67 -109.667 67 -195v-41z
M443.002 755.001v-105h-93v105h93zM244.002 755.001v-105h-93v105h93z" />
    <glyph glyph-name="igrave" unicode="&#xec;" horiz-adv-x="227" 
d="M157 0h-87v542h87v-542zM25 838l121 -188h-73l-121 133z" />
    <glyph glyph-name="iacute" unicode="&#xed;" horiz-adv-x="227" 
d="M157 0h-87v542h87v-542zM153 650h-73l121 188l73 -55z" />
    <glyph glyph-name="icircumflex" unicode="&#xee;" horiz-adv-x="227" 
d="M157 0h-87v542h87v-542zM113 740l-72 -90h-86l129 163h59l129 -163h-86z" />
    <glyph glyph-name="idieresis" unicode="&#xef;" horiz-adv-x="227" 
d="M157 0h-87v542h87v-542zM259 755v-105h-93v105h93zM60 755v-105h-93v105h93z" />
    <glyph glyph-name="eth" unicode="&#xf0;" horiz-adv-x="607" 
d="M284 68c45.333 0 84.999 14.668 118.999 44.001s51 70.666 51 123.999c0 51.333 -16 91.333 -48 120s-70.667 43 -116 43c-46 0 -85 -14.5 -117 -43.5s-48 -70.167 -48 -123.5c0 -51.333 15.333 -91.5 46 -120.5s68.334 -43.5 113.001 -43.5zM501.999 697.001
l-30.0049 -25c63.333 -66 95 -166 95 -300c0 -55.333 -5.5 -105.333 -16.5 -150s-25.5 -81.334 -43.5 -110.001s-39.333 -52.5 -64 -71.5s-50 -32.5 -76 -40.5s-53.333 -12 -82 -12c-70.667 0 -130 23.167 -178 69.5s-72 107.5 -72 183.5c0 74.667 23.333 133.667 70 177
s102.334 65 167.001 65c42.667 0 82.834 -10.167 120.501 -30.5s67.834 -49.833 90.501 -88.5v17c0 108.667 -24.667 188.334 -74 239.001l-90 -76l-39 46l79 66c-23.333 11.333 -50 17 -80 17c-39.333 0 -70.666 -10.5 -93.999 -31.5s-36.333 -49.5 -39 -85.5h-90
c4.66699 60 26.334 107.333 65.001 142s89.667 52 153 52c56.667 0 106.667 -13.333 150 -40l78 64v-77z" />
    <glyph glyph-name="ntilde" unicode="&#xf1;" horiz-adv-x="589" 
d="M339 552c56 0 100 -16.167 132 -48.5s48 -77.5 48 -135.5v-368h-89v359c0 32.667 -8.83301 59.667 -26.5 81s-44.834 32 -81.5 32c-46 0 -83.833 -17 -113.5 -51s-44.5 -81.667 -44.5 -143v-278h-89v542h88v-94c36 69.333 94.667 104 176 104zM408 776l55 0.000976562
c0 -42.667 -8.83301 -75.334 -26.5 -98.001s-38.5 -34 -62.5 -34c-18.667 0 -42 10.167 -70 30.5s-48 30.5 -60 30.5c-20.667 0 -34 -18.333 -40 -55h-58c2.66699 40.667 12.667 72.5 30 95.5s38.333 34.5 63 34.5c19.333 0 42.833 -10.333 70.5 -31s47.167 -31 58.5 -31
c21.335 0 34.668 19.333 40 58z" />
    <glyph glyph-name="ograve" unicode="&#xf2;" horiz-adv-x="595" 
d="M464 274c0 61.333 -15.834 109.333 -47.501 144s-71.834 52 -120.5 52c-50 0 -90 -18.167 -120 -54.5s-45 -86.166 -45 -149.499c0 -61.333 15.833 -109.333 47.5 -144s71.834 -52 120.501 -52c50 0 90 18.167 120 54.5s45 86.166 45 149.499zM296.999 552
c76 0 138 -25.5 186 -76.5s72 -119.5 72 -205.5s-24 -154.5 -72 -205.5s-110 -76.5 -186 -76.5s-137.833 25.5 -185.5 76.5s-71.5 119.5 -71.5 205.5s24 154.5 72 205.5s109.667 76.5 185 76.5zM223.999 838l121 -188h-73l-121 133z" />
    <glyph glyph-name="oacute" unicode="&#xf3;" horiz-adv-x="595" 
d="M464 274c0 61.333 -15.834 109.333 -47.501 144s-71.834 52 -120.5 52c-50 0 -90 -18.167 -120 -54.5s-45 -86.166 -45 -149.499c0 -61.333 15.833 -109.333 47.5 -144s71.834 -52 120.501 -52c50 0 90 18.167 120 54.5s45 86.166 45 149.499zM296.999 552
c76 0 138 -25.5 186 -76.5s72 -119.5 72 -205.5s-24 -154.5 -72 -205.5s-110 -76.5 -186 -76.5s-137.833 25.5 -185.5 76.5s-71.5 119.5 -71.5 205.5s24 154.5 72 205.5s109.667 76.5 185 76.5zM334.999 650h-73l121 188l73 -55z" />
    <glyph glyph-name="ocircumflex" unicode="&#xf4;" horiz-adv-x="595" 
d="M464 274c0 61.333 -15.834 109.333 -47.501 144s-71.834 52 -120.5 52c-50 0 -90 -18.167 -120 -54.5s-45 -86.166 -45 -149.499c0 -61.333 15.833 -109.333 47.5 -144s71.834 -52 120.501 -52c50 0 90 18.167 120 54.5s45 86.166 45 149.499zM296.999 552
c76 0 138 -25.5 186 -76.5s72 -119.5 72 -205.5s-24 -154.5 -72 -205.5s-110 -76.5 -186 -76.5s-137.833 25.5 -185.5 76.5s-71.5 119.5 -71.5 205.5s24 154.5 72 205.5s109.667 76.5 185 76.5zM296.999 740l-72 -90h-86l129 163h59l129 -163h-86z" />
    <glyph glyph-name="otilde" unicode="&#xf5;" horiz-adv-x="595" 
d="M464 274c0 61.333 -15.834 109.333 -47.501 144s-71.834 52 -120.5 52c-50 0 -90 -18.167 -120 -54.5s-45 -86.166 -45 -149.499c0 -61.333 15.833 -109.333 47.5 -144s71.834 -52 120.501 -52c50 0 90 18.167 120 54.5s45 86.166 45 149.499zM296.999 552
c76 0 138 -25.5 186 -76.5s72 -119.5 72 -205.5s-24 -154.5 -72 -205.5s-110 -76.5 -186 -76.5s-137.833 25.5 -185.5 76.5s-71.5 119.5 -71.5 205.5s24 154.5 72 205.5s109.667 76.5 185 76.5zM399.999 776l55 0.000976562c0 -42.667 -8.83301 -75.334 -26.5 -98.001
s-38.5 -34 -62.5 -34c-18.667 0 -42 10.167 -70 30.5s-48 30.5 -60 30.5c-20.667 0 -34 -18.333 -40 -55h-58c2.66699 40.667 12.667 72.5 30 95.5s38.333 34.5 63 34.5c19.333 0 42.833 -10.333 70.5 -31s47.167 -31 58.5 -31c21.335 0 34.668 19.333 40 58z" />
    <glyph glyph-name="odieresis" unicode="&#xf6;" horiz-adv-x="595" 
d="M464 274c0 61.333 -15.834 109.333 -47.501 144s-71.834 52 -120.5 52c-50 0 -90 -18.167 -120 -54.5s-45 -86.166 -45 -149.499c0 -61.333 15.833 -109.333 47.5 -144s71.834 -52 120.501 -52c50 0 90 18.167 120 54.5s45 86.166 45 149.499zM296.999 552
c76 0 138 -25.5 186 -76.5s72 -119.5 72 -205.5s-24 -154.5 -72 -205.5s-110 -76.5 -186 -76.5s-137.833 25.5 -185.5 76.5s-71.5 119.5 -71.5 205.5s24 154.5 72 205.5s109.667 76.5 185 76.5zM443.999 755v-105h-93v105h93zM244.999 755v-105h-93v105h93z" />
    <glyph glyph-name="divide" unicode="&#xf7;" horiz-adv-x="500" 
d="M198 162h104v-108h-104v108zM40 262v59h420v-59h-420zM198 529h104v-108h-104v108z" />
    <glyph glyph-name="oslash" unicode="&#xf8;" horiz-adv-x="595" 
d="M299 70c50 0 89.999 18.168 119.999 54.501s45 86.166 45 149.499c0 76 -24.333 131.667 -73 167l-133 -366c14.667 -3.33301 28.334 -5 41.001 -5zM130.999 266.001c0 -81.333 27 -138.668 81 -172.001l134 369c-14.667 4.66699 -31.334 7 -50 7
c-50 0 -90 -18.167 -120 -54.5s-45 -86.166 -45 -149.499zM456.999 622.999l-36 -99.998c42 -22 74.833 -54.833 98.5 -98.5s35.5 -95.167 35.5 -154.5c0 -86 -24 -154.5 -72 -205.5s-110 -76.5 -186 -76.5c-22 0 -44.667 2.66699 -68 8l-33 -92h-53l39 109
c-44 21.333 -78.667 54.166 -104 98.499s-38 97.166 -38 158.499c0 86 24 154.5 72 205.5s109.667 76.5 185 76.5c26 0 51.667 -3.66699 77 -11l30 82h53z" />
    <glyph glyph-name="ugrave" unicode="&#xf9;" horiz-adv-x="589" 
d="M514 0l-85.999 -0.000976562v95c-36.667 -67.333 -95 -101 -175 -101c-54 0 -98 17 -132 51s-51 82 -51 144v353h89v-338c0 -42.667 10.167 -75.167 30.5 -97.5s48.166 -33.5 83.499 -33.5c42 0 77.833 16.833 107.5 50.5s44.5 81.834 44.5 144.501v274h89v-542z
M226.001 837.999l121 -188h-73l-121 133z" />
    <glyph glyph-name="uacute" unicode="&#xfa;" horiz-adv-x="589" 
d="M514 0l-85.999 -0.000976562v95c-36.667 -67.333 -95 -101 -175 -101c-54 0 -98 17 -132 51s-51 82 -51 144v353h89v-338c0 -42.667 10.167 -75.167 30.5 -97.5s48.166 -33.5 83.499 -33.5c42 0 77.833 16.833 107.5 50.5s44.5 81.834 44.5 144.501v274h89v-542z
M325.001 649.999h-73l121 188l73 -55z" />
    <glyph glyph-name="ucircumflex" unicode="&#xfb;" horiz-adv-x="589" 
d="M514 0l-85.999 -0.000976562v95c-36.667 -67.333 -95 -101 -175 -101c-54 0 -98 17 -132 51s-51 82 -51 144v353h89v-338c0 -42.667 10.167 -75.167 30.5 -97.5s48.166 -33.5 83.499 -33.5c42 0 77.833 16.833 107.5 50.5s44.5 81.834 44.5 144.501v274h89v-542z
M295.001 739.999l-72 -90h-86l129 163h59l129 -163h-86z" />
    <glyph glyph-name="udieresis" unicode="&#xfc;" horiz-adv-x="589" 
d="M514 0l-85.999 -0.000976562v95c-36.667 -67.333 -95 -101 -175 -101c-54 0 -98 17 -132 51s-51 82 -51 144v353h89v-338c0 -42.667 10.167 -75.167 30.5 -97.5s48.166 -33.5 83.499 -33.5c42 0 77.833 16.833 107.5 50.5s44.5 81.834 44.5 144.501v274h89v-542z
M442.001 754.999v-105h-93v105h93zM243.001 754.999v-105h-93v105h93z" />
    <glyph glyph-name="yacute" unicode="&#xfd;" horiz-adv-x="506" 
d="M496 542l-242.998 -638.001c-20.667 -53.333 -65.667 -80 -135 -80h-60v79h39c27.333 0 47.666 3.83301 60.999 11.5s24.666 23.834 33.999 48.501l20 55l-202 524h94l151 -407l151 407h90zM282.002 649.999h-73l121 188l73 -55z" />
    <glyph glyph-name="thorn" unicode="&#xfe;" horiz-adv-x="630" 
d="M332 73c47.333 0 87 16.5 119 49.5s48 82.833 48 149.5c0 67.333 -15.5 117.333 -46.5 150s-70.167 49 -117.5 49s-87.166 -16.5 -119.499 -49.5s-48.5 -82.833 -48.5 -149.5c0 -67.333 15.667 -117.333 47 -150s70.666 -49 117.999 -49zM343 552
c31.333 0 61.3291 -5.33301 89.9961 -16s54.834 -26.667 78.501 -48s42.667 -50.333 57 -87s21.5 -79 21.5 -127c0 -91.333 -24.833 -160.5 -74.5 -207.5s-108.167 -70.5 -175.5 -70.5c-41.333 0 -77.166 8.5 -107.499 25.5s-53.166 40.167 -68.499 69.5v-297h-89v968h89
v-311c15.333 30 38.333 54.333 69 73s67.334 28 110.001 28z" />
    <glyph glyph-name="ydieresis" unicode="&#xff;" horiz-adv-x="506" 
d="M496 542l-242.998 -638.001c-20.667 -53.333 -65.667 -80 -135 -80h-60v79h39c27.333 0 47.666 3.83301 60.999 11.5s24.666 23.834 33.999 48.501l20 55l-202 524h94l151 -407l151 407h90zM401.002 754.999v-105h-93v105h93zM202.002 754.999v-105h-93v105h93z" />
    <glyph glyph-name=".null" horiz-adv-x="0" 
 />
    <glyph glyph-name="nonmarkingreturn" horiz-adv-x="333" 
 />
    <glyph glyph-name="currency" unicode="&#xa4;" horiz-adv-x="640" 
d="M177 302c0 -40.667 13.833 -74.834 41.5 -102.501s61.5 -41.5 101.5 -41.5s73.833 13.833 101.5 41.5s41.5 61.834 41.5 102.501c0 40 -13.833 73.833 -41.5 101.5s-61.5 41.5 -101.5 41.5s-73.833 -13.833 -101.5 -41.5s-41.5 -61.5 -41.5 -101.5zM531 302
c0 -55.333 -18.333 -102.998 -55 -142.998l99 -123l-47 -36l-98 121c-32.667 -20 -69.334 -30 -110 -30c-39.333 0 -76 10 -110 30l-98 -121l-47 36l99 123c-36 40 -54 87.667 -54 143s19 103.666 57 144.999l-102 127l47 36l102 -126c32 18.667 67.333 28 106 28
s74 -9.33301 106 -28l102 126l47 -36l-102 -126c38.667 -40.667 58 -89.334 58 -146.001z" />
    <glyph glyph-name="brokenbar" unicode="&#xa6;" horiz-adv-x="209" 
d="M139 -120h-69v417h69v-417zM139 453h-69v417h69v-417z" />
    <glyph glyph-name="dieresis" unicode="&#xa8;" horiz-adv-x="292" 
d="M292 755v-105h-93v105h93zM93 755v-105h-93v105h93z" />
    <glyph glyph-name="acute" unicode="&#xb4;" horiz-adv-x="194" 
d="M73 650h-73l121 188l73 -55z" />
    <glyph glyph-name="cedilla" unicode="&#xb8;" horiz-adv-x="221" 
d="M111 6l-0.00195312 -50c32.667 -1.33301 59.167 -9.33301 79.5 -24s30.5 -34.334 30.5 -59.001c0 -26 -10 -47.667 -30 -65s-45.667 -26 -77 -26c-45.333 0 -83.333 13.333 -114 40l32 49c26.667 -21.333 52.334 -32 77.001 -32c14.667 0 26.334 3.33301 35.001 10
s13 15.667 13 27c0 12.667 -8.33301 23.834 -25 33.501s-41 14.5 -73 14.5l13 82h39z" />
    <glyph glyph-name="onequarter" unicode="&#xbc;" horiz-adv-x="1000" 
d="M782 159v209l-146 -209h146zM846 99v-98h-64v99h-218v56l206 295h76v-292h84v-60h-84zM364 352l-0.000976562 -58h-264v58h100v311c-30 -22 -65.333 -36 -106 -42v63c44.667 8.66699 82.334 28.667 113.001 60h57v-392h100zM332.999 0h-66l477 750h66z" />
    <glyph glyph-name="onehalf" unicode="&#xbd;" horiz-adv-x="1000" 
d="M941 1h-322v56l110 93c52.667 45.333 86 77 100 95c18.667 24.667 28 49 28 73s-7.83301 42.833 -23.5 56.5s-35.167 20.5 -58.5 20.5c-26 0 -48.333 -9.16699 -67 -27.5s-28 -44.5 -28 -78.5h-66c0 52 16.5 92.833 49.5 122.5s71.167 44.5 114.5 44.5
c38.667 0 73 -12 103 -36s45 -56.333 45 -97c0 -24 -6.83301 -48 -20.5 -72s-28.5 -44 -44.5 -60s-40.667 -38.667 -74 -68l-72 -63h226v-59zM345 352l-0.000976562 -58h-264v58h100v311c-30 -22 -65.333 -36 -106 -42v63c44.667 8.66699 82.334 28.667 113.001 60h57v-392
h100zM313.999 0h-66l477 750h66z" />
    <glyph glyph-name="threequarters" unicode="&#xbe;" horiz-adv-x="1000" 
d="M799 159v209l-146 -209h146zM863 99v-98h-64v99h-218v56l206 295h76v-292h84v-60h-84zM319 0h-66l477 750h66zM306 531c24 -10 42.6641 -24.668 55.9971 -44.001s20 -40.333 20 -63c0 -35.333 -13.833 -66.666 -41.5 -93.999s-65.834 -41 -114.5 -41
c-46.667 0 -86.5 13.167 -119.5 39.5c-33 26.334 -49.5 63.167 -49.5 110.5h65c0 -30 10 -53.167 30 -69.5s45 -24.5 75 -24.5c28.667 0 50.834 7.33301 66.501 22s23.5 32.334 23.5 53.001c0 21.334 -9.33301 39.167 -28 53.499c-18.667 14.333 -45.667 21.5 -81 21.5h-19
v57h17c32.667 0 57.834 6.83301 75.501 20.5c17.667 13.6689 26.5 31.8359 26.5 54.5c0 20 -7.83301 36.333 -23.5 49s-35.5 19 -59.5 19c-66 0 -99 -37.333 -99 -112h-64c0 55.333 15.5 97 46.5 125s71.167 42 120.5 42c40.667 0 74.834 -10.5 102.501 -31.5
s41.5 -49.167 41.5 -84.5c0 -52 -22.333 -86.333 -67 -103z" />
    <glyph glyph-name="Amacron" unicode="&#x100;" horiz-adv-x="762" 
d="M517 286l-142 355l-137 -355h279zM549 203h-343l-79 -203h-97l300 750h92l310 -750h-102zM541 833h-319v67h319v-67z" />
    <glyph glyph-name="amacron" unicode="&#x101;" horiz-adv-x="548" 
d="M396 233l-0.000976562 45.001c-14 -8 -39 -14.667 -75 -20l-78 -11c-75.333 -10.667 -113 -41.334 -113 -92.001c0 -28.667 9.83301 -50.5 29.5 -65.5s44.5 -22.5 74.5 -22.5c42.667 0 80.334 14.667 113.001 44s49 70 49 122zM282.999 552.001
c63.333 0 112.5 -15.334 147.5 -46.001s52.5 -75.667 52.5 -135v-371h-86v92c-36 -69.333 -96.333 -104 -181 -104c-48.667 0 -90.167 14.667 -124.5 44s-51.5 69.666 -51.5 120.999c0 47.333 15.167 84 45.5 110s70.5 42.333 120.5 49l122 16
c22.667 2.66699 39.834 8.33398 51.501 17.001s17.5 23.334 17.5 44.001c0 28.667 -10.833 50.667 -32.5 66s-51.167 23 -88.5 23c-36 0 -65.333 -8.83301 -88 -26.5s-36 -41.167 -40 -70.5h-88c5.33301 55.334 28.166 97.667 68.499 127s91.833 44 154.5 44zM116.999 650
v67h319v-67h-319z" />
    <glyph glyph-name="Abreve" unicode="&#x102;" horiz-adv-x="762" 
d="M517 286l-142 355l-137 -355h279zM549 203h-343l-79 -203h-97l300 750h92l310 -750h-102zM381 827c-38.667 0 -67.5 10.668 -86.5 32.001s-28.5 46.666 -28.5 75.999c0 14.667 2 28 6 40h59c-3.33301 -10 -5 -20.333 -5 -31c0 -17.333 4.5 -31.833 13.5 -43.5
s22.833 -17.5 41.5 -17.5s32.5 5.83301 41.5 17.5s13.5 26.167 13.5 43.5c0 10.667 -1.66699 21 -5 31h59c4 -12 6 -25.333 6 -40c0 -29.334 -9.5 -54.667 -28.5 -76s-47.833 -32 -86.5 -32z" />
    <glyph glyph-name="abreve" unicode="&#x103;" horiz-adv-x="548" 
d="M396 233l-0.000976562 45.001c-14 -8 -39 -14.667 -75 -20l-78 -11c-75.333 -10.667 -113 -41.334 -113 -92.001c0 -28.667 9.83301 -50.5 29.5 -65.5s44.5 -22.5 74.5 -22.5c42.667 0 80.334 14.667 113.001 44s49 70 49 122zM282.999 552.001
c63.333 0 112.5 -15.334 147.5 -46.001s52.5 -75.667 52.5 -135v-371h-86v92c-36 -69.333 -96.333 -104 -181 -104c-48.667 0 -90.167 14.667 -124.5 44s-51.5 69.666 -51.5 120.999c0 47.333 15.167 84 45.5 110s70.5 42.333 120.5 49l122 16
c22.667 2.66699 39.834 8.33398 51.501 17.001s17.5 23.334 17.5 44.001c0 28.667 -10.833 50.667 -32.5 66s-51.167 23 -88.5 23c-36 0 -65.333 -8.83301 -88 -26.5s-36 -41.167 -40 -70.5h-88c5.33301 55.334 28.166 97.667 68.499 127s91.833 44 154.5 44zM339.999 793
l59 0.000976562c4 -12 6 -25.333 6 -40c0 -29.3359 -9.5 -54.6689 -28.5 -76c-19 -21.333 -47.833 -32 -86.5 -32s-67.5 10.667 -86.5 32s-28.5 46.666 -28.5 75.999c0 14.667 2 28 6 40h59c-3.33301 -10 -5 -20.333 -5 -31c0 -17.333 4.5 -31.833 13.5 -43.5
s22.833 -17.5 41.5 -17.5s32.5 5.83301 41.5 17.5s13.5 26.167 13.5 43.5c0 10.667 -1.66699 21 -5 31z" />
    <glyph glyph-name="Aogonek" unicode="&#x104;" horiz-adv-x="762" 
d="M517 286l-142 355l-137 -355h279zM662 -50c0 -19.333 8.00098 -34.332 24.001 -44.999s35 -17 57 -19v-62c-38.667 3.33301 -71.834 15.833 -99.501 37.5s-41.5 47.5 -41.5 77.5c0 25.333 9.33301 45.666 28 60.999l-81 203h-343l-79 -203h-97l300 750h92l310 -750h-46
c-16 -14 -24 -30.667 -24 -50z" />
    <glyph glyph-name="aogonek" unicode="&#x105;" horiz-adv-x="548" 
d="M396 233l-0.000976562 45.001c-14 -8 -39 -14.667 -75 -20l-78 -11c-75.333 -10.667 -113 -41.334 -113 -92.001c0 -28.667 9.83301 -50.5 29.5 -65.5s44.5 -22.5 74.5 -22.5c42.667 0 80.334 14.667 113.001 44s49 70 49 122zM428.999 -49.999
c0 -19.333 8 -34.333 24 -45s35 -17 57 -19v-62c-38.667 3.33301 -71.834 15.833 -99.5 37.5c-27.667 21.667 -41.5 47.5 -41.5 77.5c0 25.333 9.33301 45.666 28 60.999v92c-36 -69.333 -96.333 -104 -181 -104c-48.667 0 -90.167 14.667 -124.5 44
s-51.5 69.666 -51.5 120.999c0 47.333 15.167 84 45.5 110s70.5 42.333 120.5 49l122 16c22.667 2.66699 39.834 8.33398 51.501 17.001s17.5 23.334 17.5 44.001c0 28.667 -10.833 50.667 -32.5 66s-51.167 23 -88.5 23c-36 0 -65.333 -8.83301 -88 -26.5
s-36 -41.167 -40 -70.5h-88c5.33301 55.334 28.166 97.667 68.499 127s91.833 44 154.5 44c63.333 0 112.5 -15.333 147.5 -46s52.5 -75.667 52.5 -135v-371h-30c-16 -14 -24 -30.667 -24 -50z" />
    <glyph glyph-name="Cacute" unicode="&#x106;" horiz-adv-x="772" 
d="M630 264l97 0.00195312c-2 -86 -33.167 -154.667 -93.5 -206s-135.833 -77 -226.5 -77c-74.667 0 -139.667 18.833 -195 56.5s-96.166 86.167 -122.499 145.5s-39.5 124.666 -39.5 195.999c0 110 32.167 202.333 96.5 277s153.833 112 268.5 112
c86 0 156.5 -21.833 211.5 -65.5s86.833 -106.5 95.5 -188.5h-97c-6.66699 52 -29.5 93.167 -68.5 123.5s-87.833 45.5 -146.5 45.5c-84 0 -149.167 -29.333 -195.5 -88s-69.5 -130.334 -69.5 -215.001c0 -86.667 23.833 -160.5 71.5 -221.5s114.167 -91.5 199.5 -91.5
c62 0 112.833 17.167 152.499 51.5c39.667 34.333 60.167 82.833 61.5 145.5zM456 832.002h-73l121 188l73 -55z" />
    <glyph glyph-name="cacute" unicode="&#x107;" horiz-adv-x="567" 
d="M438 194l88.001 0.00195312c-4 -64.667 -28.333 -115.167 -73 -151.5s-98 -54.5 -160 -54.5c-71.333 0 -131.333 24.333 -180 73s-73 118 -73 208c0 88.667 24.167 157.667 72.5 207s110.166 74.666 185.499 75.999h5c64 0 117 -17.833 159 -53.5
s63.667 -83.834 65 -144.5h-87c-2 36.667 -17 66 -45 88s-60.333 33 -97 33c-45.333 0 -84.666 -17.667 -117.999 -53s-50 -86 -50 -152c0 -66.667 16.5 -116.834 49.5 -150.501s72.167 -50.5 117.5 -50.5c38 0 70.667 11.5 98 34.5c27.334 23 41.667 53.167 42.999 90.5z
M344.001 650.002h-73l121 188l73 -55z" />
    <glyph glyph-name="Ccircumflex" unicode="&#x108;" horiz-adv-x="772" 
d="M630 264l97 0.00195312c-2 -86 -33.167 -154.667 -93.5 -206s-135.833 -77 -226.5 -77c-74.667 0 -139.667 18.833 -195 56.5s-96.166 86.167 -122.499 145.5s-39.5 124.666 -39.5 195.999c0 110 32.167 202.333 96.5 277s153.833 112 268.5 112
c86 0 156.5 -21.833 211.5 -65.5s86.833 -106.5 95.5 -188.5h-97c-6.66699 52 -29.5 93.167 -68.5 123.5s-87.833 45.5 -146.5 45.5c-84 0 -149.167 -29.333 -195.5 -88s-69.5 -130.334 -69.5 -215.001c0 -86.667 23.833 -160.5 71.5 -221.5s114.167 -91.5 199.5 -91.5
c62 0 112.833 17.167 152.499 51.5c39.667 34.333 60.167 82.833 61.5 145.5zM415 922.002l-72 -90h-86l129 163h59l129 -163h-86z" />
    <glyph glyph-name="ccircumflex" unicode="&#x109;" horiz-adv-x="567" 
d="M438 194l88.001 0.00195312c-4 -64.667 -28.333 -115.167 -73 -151.5s-98 -54.5 -160 -54.5c-71.333 0 -131.333 24.333 -180 73s-73 118 -73 208c0 88.667 24.167 157.667 72.5 207s110.166 74.666 185.499 75.999h5c64 0 117 -17.833 159 -53.5
s63.667 -83.834 65 -144.5h-87c-2 36.667 -17 66 -45 88s-60.333 33 -97 33c-45.333 0 -84.666 -17.667 -117.999 -53s-50 -86 -50 -152c0 -66.667 16.5 -116.834 49.5 -150.501s72.167 -50.5 117.5 -50.5c38 0 70.667 11.5 98 34.5c27.334 23 41.667 53.167 42.999 90.5z
M301.001 740.002l-72 -90h-86l129 163h59l129 -163h-86z" />
    <glyph glyph-name="Cdotaccent" unicode="&#x10a;" horiz-adv-x="772" 
d="M630 264l97 0.00195312c-2 -86 -33.167 -154.667 -93.5 -206s-135.833 -77 -226.5 -77c-74.667 0 -139.667 18.833 -195 56.5s-96.166 86.167 -122.499 145.5s-39.5 124.666 -39.5 195.999c0 110 32.167 202.333 96.5 277s153.833 112 268.5 112
c86 0 156.5 -21.833 211.5 -65.5s86.833 -106.5 95.5 -188.5h-97c-6.66699 52 -29.5 93.167 -68.5 123.5s-87.833 45.5 -146.5 45.5c-84 0 -149.167 -29.333 -195.5 -88s-69.5 -130.334 -69.5 -215.001c0 -86.667 23.833 -160.5 71.5 -221.5s114.167 -91.5 199.5 -91.5
c62 0 112.833 17.167 152.499 51.5c39.667 34.333 60.167 82.833 61.5 145.5zM345 952.002h116v-120h-116v120z" />
    <glyph glyph-name="cdotaccent" unicode="&#x10b;" horiz-adv-x="567" 
d="M438 194l88.001 0.00195312c-4 -64.667 -28.333 -115.167 -73 -151.5s-98 -54.5 -160 -54.5c-71.333 0 -131.333 24.333 -180 73s-73 118 -73 208c0 88.667 24.167 157.667 72.5 207s110.166 74.666 185.499 75.999h5c64 0 117 -17.833 159 -53.5
s63.667 -83.834 65 -144.5h-87c-2 36.667 -17 66 -45 88s-60.333 33 -97 33c-45.333 0 -84.666 -17.667 -117.999 -53s-50 -86 -50 -152c0 -66.667 16.5 -116.834 49.5 -150.501s72.167 -50.5 117.5 -50.5c38 0 70.667 11.5 98 34.5c27.334 23 41.667 53.167 42.999 90.5z
M232.001 770.002h116v-120h-116v120z" />
    <glyph glyph-name="Ccaron" unicode="&#x10c;" horiz-adv-x="772" 
d="M630 264l97 0.00195312c-2 -86 -33.167 -154.667 -93.5 -206s-135.833 -77 -226.5 -77c-74.667 0 -139.667 18.833 -195 56.5s-96.166 86.167 -122.499 145.5s-39.5 124.666 -39.5 195.999c0 110 32.167 202.333 96.5 277s153.833 112 268.5 112
c86 0 156.5 -21.833 211.5 -65.5s86.833 -106.5 95.5 -188.5h-97c-6.66699 52 -29.5 93.167 -68.5 123.5s-87.833 45.5 -146.5 45.5c-84 0 -149.167 -29.333 -195.5 -88s-69.5 -130.334 -69.5 -215.001c0 -86.667 23.833 -160.5 71.5 -221.5s114.167 -91.5 199.5 -91.5
c62 0 112.833 17.167 152.499 51.5c39.667 34.333 60.167 82.833 61.5 145.5zM567 995.002l-129 -163h-59l-129 163h86l72 -90l73 90h86z" />
    <glyph glyph-name="ccaron" unicode="&#x10d;" horiz-adv-x="567" 
d="M438 194l88.001 0.00195312c-4 -64.667 -28.333 -115.167 -73 -151.5s-98 -54.5 -160 -54.5c-71.333 0 -131.333 24.333 -180 73s-73 118 -73 208c0 88.667 24.167 157.667 72.5 207s110.166 74.666 185.499 75.999h5c64 0 117 -17.833 159 -53.5
s63.667 -83.834 65 -144.5h-87c-2 36.667 -17 66 -45 88s-60.333 33 -97 33c-45.333 0 -84.666 -17.667 -117.999 -53s-50 -86 -50 -152c0 -66.667 16.5 -116.834 49.5 -150.501s72.167 -50.5 117.5 -50.5c38 0 70.667 11.5 98 34.5c27.334 23 41.667 53.167 42.999 90.5z
M306.001 723.002l72 90h86l-129 -163h-59l-129 163h86z" />
    <glyph glyph-name="Dcaron" unicode="&#x10e;" horiz-adv-x="740" 
d="M177 83h136c88.667 0 157.667 29.167 207 87.5s74 128.5 74 210.5c0 80.667 -24.333 148.667 -73 204s-117.334 83 -206 83h-138v-585zM85 750l235 -0.000976562c79.333 0 147.5 -17.167 204.5 -51.5s98.833 -78.5 125.5 -132.5s40 -114 40 -180
c0 -49.333 -8 -96.666 -24 -141.999s-39 -86.333 -69 -123s-69.5 -66 -118.5 -88s-103.833 -33 -164.5 -33h-229v750zM466 994.999l-129 -163h-59l-129 163h86l72 -90l73 90h86z" />
    <glyph glyph-name="dcaron" unicode="&#x10f;" horiz-adv-x="792" 
d="M295 71c56 0 98.333 19.5 127 58.5s43 87.167 43 144.5c0 56 -14.333 103.167 -43 141.5s-70.667 57.5 -126 57.5c-54 0 -95 -19.333 -123 -58s-42 -86.667 -42 -144c0 -56.667 13.833 -104.167 41.5 -142.5s68.5 -57.5 122.5 -57.5zM604 477l-9 52.001
c36.668 4 62.335 15.667 77 35c14.667 19.333 22 47 22 83h-53v115h121v-109c0 -59.333 -15.167 -103.333 -45.5 -132c-30.333 -28.668 -67.833 -43.335 -112.5 -44.001zM556 0.000976562h-86.001v106c-12.667 -34.667 -34.667 -63 -66 -85s-70.333 -33 -117 -33
c-80 0 -141.167 27.667 -183.5 83s-63.5 121.666 -63.5 198.999c0 49.334 8.5 94.667 25.5 136s44.833 76 83.5 104s85 42 139 42c42.667 0 79.334 -9.16699 110.001 -27.5s53.667 -42.166 69 -71.499v309h89v-762z" />
    <glyph glyph-name="Dcroat" unicode="&#x110;" horiz-adv-x="740" 
d="M177 83h136c88.667 0 157.667 29.167 207 87.5s74 128.5 74 210.5c0 80.667 -24.333 148.667 -73 204s-117.334 83 -206 83h-138v-258h192v-57h-192v-270zM85 750l235 -0.000976562c79.333 0 147.5 -17.167 204.5 -51.5s98.833 -78.5 125.5 -132.5s40 -114 40 -180
c0 -49.333 -8 -96.666 -24 -141.999s-39 -86.333 -69 -123s-69.5 -66 -118.5 -88s-103.833 -33 -164.5 -33h-229v353h-95v57h95v340z" />
    <glyph glyph-name="dcroat" unicode="&#x111;" horiz-adv-x="633" 
d="M295 71c56 0 98.333 19.5 127 58.5s43 87.167 43 144.5c0 56 -14.333 103.167 -43 141.5s-70.667 57.5 -126 57.5c-54 0 -95 -19.333 -123 -58s-42 -86.667 -42 -144c0 -56.667 13.833 -104.167 41.5 -142.5s68.5 -57.5 122.5 -57.5zM613 620h-57.001v-620h-86v106
c-12.667 -34.667 -34.667 -63 -66 -85s-70.333 -33 -117 -33c-80 0 -141.167 27.667 -183.5 83s-63.5 121.666 -63.5 198.999c0 49.334 8.5 94.667 25.5 136s44.833 76 83.5 104s85 42 139 42c42.667 0 79.334 -9.16699 110.001 -27.5s53.667 -42.166 69 -71.499v167h-133
v57h133v85h89v-85h57v-57z" />
    <glyph glyph-name="Emacron" unicode="&#x112;" horiz-adv-x="627" 
d="M85 0v750h482v-82h-390v-247h372v-83h-372v-255h410v-83h-502zM167 833v67h319v-67h-319z" />
    <glyph glyph-name="emacron" unicode="&#x113;" horiz-adv-x="570" 
d="M291 475c-42.667 0 -79 -13 -109 -39s-47.667 -64.333 -53 -115h311c-0.666992 48 -15 85.667 -43 113s-63.333 41 -106 41zM530 249l-403.998 0.000976562c2 -59.333 18.667 -104.333 50 -135s72.333 -46 123 -46c36 0 67.333 9.16699 94 27.5s43 44.166 49 77.499h85
c-10 -60 -37.333 -105.833 -82 -137.5s-95.667 -47.5 -153 -47.5c-70.667 0 -130.334 24.333 -179.001 73s-73 118.667 -73 210c0 47.333 7 89.333 21 126s33 66 57 88s50.667 38.667 80 50s60.666 17 93.999 17c69.333 0 126.333 -22.333 171 -67s67 -109.667 67 -195v-41z
M132.002 650.001v67h319v-67h-319z" />
    <glyph glyph-name="Ebreve" unicode="&#x114;" horiz-adv-x="627" 
d="M85 0v750h482v-82h-390v-247h372v-83h-372v-255h410v-83h-502zM384 975l59 0.000976562c4 -12 6 -25.333 6 -40c0 -29.334 -9.5 -54.667 -28.5 -76s-47.833 -32 -86.5 -32s-67.5 10.667 -86.5 32s-28.5 46.666 -28.5 75.999c0 14.667 2 28 6 40h59
c-3.33301 -10 -5 -20.333 -5 -31c0 -17.333 4.5 -31.833 13.5 -43.5s22.833 -17.5 41.5 -17.5s32.5 5.83301 41.5 17.5s13.5 26.167 13.5 43.5c0 10.667 -1.66699 21 -5 31z" />
    <glyph glyph-name="ebreve" unicode="&#x115;" horiz-adv-x="570" 
d="M291 475c-42.667 0 -79 -13 -109 -39s-47.667 -64.333 -53 -115h311c-0.666992 48 -15 85.667 -43 113s-63.333 41 -106 41zM530 249l-403.998 0.000976562c2 -59.333 18.667 -104.333 50 -135s72.333 -46 123 -46c36 0 67.333 9.16699 94 27.5s43 44.166 49 77.499h85
c-10 -60 -37.333 -105.833 -82 -137.5s-95.667 -47.5 -153 -47.5c-70.667 0 -130.334 24.333 -179.001 73s-73 118.667 -73 210c0 47.333 7 89.333 21 126s33 66 57 88s50.667 38.667 80 50s60.666 17 93.999 17c69.333 0 126.333 -22.333 171 -67s67 -109.667 67 -195v-41z
M356.002 793.001l59 0.000976562c4 -12 6 -25.333 6 -40c0 -29.3359 -9.5 -54.6689 -28.5 -76c-19 -21.333 -47.833 -32 -86.5 -32s-67.5 10.667 -86.5 32s-28.5 46.666 -28.5 75.999c0 14.667 2 28 6 40h59c-3.33301 -10 -5 -20.333 -5 -31
c0 -17.333 4.5 -31.833 13.5 -43.5s22.833 -17.5 41.5 -17.5s32.5 5.83301 41.5 17.5s13.5 26.167 13.5 43.5c0 10.667 -1.66699 21 -5 31z" />
    <glyph glyph-name="Edotaccent" unicode="&#x116;" horiz-adv-x="627" 
d="M85 0v750h482v-82h-390v-247h372v-83h-372v-255h410v-83h-502zM275 952h116v-120h-116v120z" />
    <glyph glyph-name="edotaccent" unicode="&#x117;" horiz-adv-x="570" 
d="M291 475c-42.667 0 -79 -13 -109 -39s-47.667 -64.333 -53 -115h311c-0.666992 48 -15 85.667 -43 113s-63.333 41 -106 41zM530 249l-403.998 0.000976562c2 -59.333 18.667 -104.333 50 -135s72.333 -46 123 -46c36 0 67.333 9.16699 94 27.5s43 44.166 49 77.499h85
c-10 -60 -37.333 -105.833 -82 -137.5s-95.667 -47.5 -153 -47.5c-70.667 0 -130.334 24.333 -179.001 73s-73 118.667 -73 210c0 47.333 7 89.333 21 126s33 66 57 88s50.667 38.667 80 50s60.666 17 93.999 17c69.333 0 126.333 -22.333 171 -67s67 -109.667 67 -195v-41z
M231.002 770.001h116v-120h-116v120z" />
    <glyph glyph-name="Eogonek" unicode="&#x118;" horiz-adv-x="627" 
d="M540 -50c0 -19.333 8.00098 -34.332 24.001 -44.999s35 -17 57 -19v-62c-38.667 3.33301 -71.834 15.833 -99.501 37.5s-41.5 47.5 -41.5 77.5c0 25.333 9.33301 45.666 28 60.999h-423v750h482v-82h-390v-247h372v-83h-372v-255h410v-83h-23
c-16 -14 -24 -30.667 -24 -50z" />
    <glyph glyph-name="eogonek" unicode="&#x119;" horiz-adv-x="570" 
d="M129 321h311c-0.666992 48 -15 85.667 -43 113s-63.333 41 -106 41s-79 -13 -109 -39s-47.667 -64.333 -53 -115zM530 249l-404.001 0.00195312c2 -59.333 18.667 -104.333 50 -135s72.333 -46 123 -46c36 0 67.333 9.16699 94 27.5s43 44.166 49 77.499h85
c-9.33301 -58 -35.166 -102.833 -77.499 -134.5s-91.166 -48.5 -146.499 -50.5c-8.66699 -10.667 -13 -23.334 -13 -38.001c0 -19.333 8 -34.333 24 -45s35 -17 57 -19v-62c-38.667 3.33301 -71.834 15.833 -99.5 37.5c-27.667 21.667 -41.5 47.5 -41.5 77.5
c0 20.667 6.33301 38 19 52c-60.667 9.33301 -110.667 38 -150 86s-59 112.667 -59 194c0 47.333 7 89.333 21 126s33 66 57 88s50.667 38.667 80 50s60.666 17 93.999 17c69.333 0 126.333 -22.333 171 -67s67 -109.667 67 -195v-41z" />
    <glyph glyph-name="Ecaron" unicode="&#x11a;" horiz-adv-x="627" 
d="M85 0v750h482v-82h-390v-247h372v-83h-372v-255h410v-83h-502zM486 995l-129 -163h-59l-129 163h86l72 -90l73 90h86z" />
    <glyph glyph-name="ecaron" unicode="&#x11b;" horiz-adv-x="570" 
d="M291 475c-42.667 0 -79 -13 -109 -39s-47.667 -64.333 -53 -115h311c-0.666992 48 -15 85.667 -43 113s-63.333 41 -106 41zM530 249l-403.998 0.000976562c2 -59.333 18.667 -104.333 50 -135s72.333 -46 123 -46c36 0 67.333 9.16699 94 27.5s43 44.166 49 77.499h85
c-10 -60 -37.333 -105.833 -82 -137.5s-95.667 -47.5 -153 -47.5c-70.667 0 -130.334 24.333 -179.001 73s-73 118.667 -73 210c0 47.333 7 89.333 21 126s33 66 57 88s50.667 38.667 80 50s60.666 17 93.999 17c69.333 0 126.333 -22.333 171 -67s67 -109.667 67 -195v-41z
M299.002 723.001l72 90h86l-129 -163h-59l-129 163h86z" />
    <glyph glyph-name="Gcircumflex" unicode="&#x11c;" horiz-adv-x="804" 
d="M724 378l0.000976562 -378h-85v102c-22 -38.667 -53.833 -68.5 -95.5 -89.5s-90.5 -31.5 -146.5 -31.5c-72.667 0 -135.834 18.333 -189.501 55s-93.334 84.167 -119.001 142.5s-38.5 122.833 -38.5 193.5c0 71.333 12.833 136.333 38.5 195
c25.667 58.668 66.334 106.835 122.001 144.5c55.667 37.667 122.167 56.5 199.5 56.5c84.667 0 156 -22 214 -66s91.333 -106.667 100 -188h-97c-6.66699 52 -29.167 93.167 -67.5 123.5c-38.334 30.333 -86.834 45.5 -145.5 45.5c-83.333 0 -149.166 -29.333 -197.499 -88
s-72.5 -132 -72.5 -220c0 -85.333 22.833 -158 68.5 -218s109.5 -90 191.5 -90c66 0 121.333 20.167 165.999 60.5c44.667 40.333 67 96.5 67 168.5h-253v82h340zM405.001 922l-72 -90h-86l129 163h59l129 -163h-86z" />
    <glyph glyph-name="gcircumflex" unicode="&#x11d;" horiz-adv-x="619" 
d="M295 101c46.667 0 85.333 15.499 116 46.499s46 77.5 46 139.5s-15.333 108.833 -46 140.5s-69.334 47.5 -116 47.5c-48.667 0 -88.834 -16.5 -120.501 -49.5s-47.5 -79.167 -47.5 -138.5s15.833 -105.166 47.5 -137.499s71.834 -48.5 120.501 -48.5zM548.999 541.999
l0.000976562 -509c0 -82 -23.167 -144.333 -69.5 -187s-106.5 -64 -180.5 -64c-64 0 -119.667 16 -167 48s-75.333 81.333 -84 148h89c4.66699 -35.333 20.5 -64.333 47.5 -87s65.5 -34 115.5 -34c108.667 0 163 57.333 163 172v91c-34 -66.667 -94.333 -100 -181 -100
c-70 0 -127.833 23.167 -173.5 69.5s-68.5 111.5 -68.5 195.5s22.667 149.5 68 196.5s102.666 70.5 171.999 70.5c85.333 0 146.333 -31.333 183 -94v84h86zM302 739.999l-72 -90h-86l129 163h59l129 -163h-86z" />
    <glyph glyph-name="Gbreve" unicode="&#x11e;" horiz-adv-x="804" 
d="M724 378l0.000976562 -378h-85v102c-22 -38.667 -53.833 -68.5 -95.5 -89.5s-90.5 -31.5 -146.5 -31.5c-72.667 0 -135.834 18.333 -189.501 55s-93.334 84.167 -119.001 142.5s-38.5 122.833 -38.5 193.5c0 71.333 12.833 136.333 38.5 195
c25.667 58.668 66.334 106.835 122.001 144.5c55.667 37.667 122.167 56.5 199.5 56.5c84.667 0 156 -22 214 -66s91.333 -106.667 100 -188h-97c-6.66699 52 -29.167 93.167 -67.5 123.5c-38.334 30.333 -86.834 45.5 -145.5 45.5c-83.333 0 -149.166 -29.333 -197.499 -88
s-72.5 -132 -72.5 -220c0 -85.333 22.833 -158 68.5 -218s109.5 -90 191.5 -90c66 0 121.333 20.167 165.999 60.5c44.667 40.333 67 96.5 67 168.5h-253v82h340zM459.001 975l59 0.000976562c4 -12 6 -25.333 6 -40c0 -29.334 -9.5 -54.667 -28.5 -76
s-47.833 -32 -86.5 -32s-67.5 10.667 -86.5 32s-28.5 46.666 -28.5 75.999c0 14.667 2 28 6 40h59c-3.33301 -10 -5 -20.333 -5 -31c0 -17.333 4.5 -31.833 13.5 -43.5s22.833 -17.5 41.5 -17.5s32.5 5.83301 41.5 17.5s13.5 26.167 13.5 43.5c0 10.667 -1.66699 21 -5 31z
" />
    <glyph glyph-name="gbreve" unicode="&#x11f;" horiz-adv-x="619" 
d="M295 101c46.667 0 85.333 15.499 116 46.499s46 77.5 46 139.5s-15.333 108.833 -46 140.5s-69.334 47.5 -116 47.5c-48.667 0 -88.834 -16.5 -120.501 -49.5s-47.5 -79.167 -47.5 -138.5s15.833 -105.166 47.5 -137.499s71.834 -48.5 120.501 -48.5zM548.999 541.999
l0.000976562 -509c0 -82 -23.167 -144.333 -69.5 -187s-106.5 -64 -180.5 -64c-64 0 -119.667 16 -167 48s-75.333 81.333 -84 148h89c4.66699 -35.333 20.5 -64.333 47.5 -87s65.5 -34 115.5 -34c108.667 0 163 57.333 163 172v91c-34 -66.667 -94.333 -100 -181 -100
c-70 0 -127.833 23.167 -173.5 69.5s-68.5 111.5 -68.5 195.5s22.667 149.5 68 196.5s102.666 70.5 171.999 70.5c85.333 0 146.333 -31.333 183 -94v84h86zM355 792.999l59 0.000976562c4 -12 6 -25.333 6 -40c0 -29.3359 -9.5 -54.6689 -28.5 -76
c-19 -21.333 -47.833 -32 -86.5 -32s-67.5 10.667 -86.5 32s-28.5 46.666 -28.5 75.999c0 14.667 2 28 6 40h59c-3.33301 -10 -5 -20.333 -5 -31c0 -17.333 4.5 -31.833 13.5 -43.5s22.833 -17.5 41.5 -17.5s32.5 5.83301 41.5 17.5s13.5 26.167 13.5 43.5
c0 10.667 -1.66699 21 -5 31z" />
    <glyph glyph-name="Gdotaccent" unicode="&#x120;" horiz-adv-x="804" 
d="M724 378l0.000976562 -378h-85v102c-22 -38.667 -53.833 -68.5 -95.5 -89.5s-90.5 -31.5 -146.5 -31.5c-72.667 0 -135.834 18.333 -189.501 55s-93.334 84.167 -119.001 142.5s-38.5 122.833 -38.5 193.5c0 71.333 12.833 136.333 38.5 195
c25.667 58.668 66.334 106.835 122.001 144.5c55.667 37.667 122.167 56.5 199.5 56.5c84.667 0 156 -22 214 -66s91.333 -106.667 100 -188h-97c-6.66699 52 -29.167 93.167 -67.5 123.5c-38.334 30.333 -86.834 45.5 -145.5 45.5c-83.333 0 -149.166 -29.333 -197.499 -88
s-72.5 -132 -72.5 -220c0 -85.333 22.833 -158 68.5 -218s109.5 -90 191.5 -90c66 0 121.333 20.167 165.999 60.5c44.667 40.333 67 96.5 67 168.5h-253v82h340zM348.001 952h116v-120h-116v120z" />
    <glyph glyph-name="gdotaccent" unicode="&#x121;" horiz-adv-x="619" 
d="M295 101c46.667 0 85.333 15.499 116 46.499s46 77.5 46 139.5s-15.333 108.833 -46 140.5s-69.334 47.5 -116 47.5c-48.667 0 -88.834 -16.5 -120.501 -49.5s-47.5 -79.167 -47.5 -138.5s15.833 -105.166 47.5 -137.499s71.834 -48.5 120.501 -48.5zM548.999 541.999
l0.000976562 -509c0 -82 -23.167 -144.333 -69.5 -187s-106.5 -64 -180.5 -64c-64 0 -119.667 16 -167 48s-75.333 81.333 -84 148h89c4.66699 -35.333 20.5 -64.333 47.5 -87s65.5 -34 115.5 -34c108.667 0 163 57.333 163 172v91c-34 -66.667 -94.333 -100 -181 -100
c-70 0 -127.833 23.167 -173.5 69.5s-68.5 111.5 -68.5 195.5s22.667 149.5 68 196.5s102.666 70.5 171.999 70.5c85.333 0 146.333 -31.333 183 -94v84h86zM239 769.999h116v-120h-116v120z" />
    <glyph glyph-name="uni0122" unicode="&#x122;" horiz-adv-x="804" 
d="M296 -365l-9.00098 52c36.667 4 62.334 15.667 77.001 35s22 47 22 83h-53v115h121v-109c0 -59.333 -15.167 -103.333 -45.5 -132c-30.333 -28.666 -67.833 -43.333 -112.5 -44zM723.999 378l0.000976562 -378h-85v102c-22 -38.667 -53.833 -68.5 -95.5 -89.5
s-90.5 -31.5 -146.5 -31.5c-72.667 0 -135.834 18.333 -189.501 55s-93.334 84.167 -119.001 142.5s-38.5 122.833 -38.5 193.5c0 71.333 12.833 136.333 38.5 195c25.667 58.668 66.334 106.835 122.001 144.5c55.667 37.667 122.167 56.5 199.5 56.5
c84.667 0 156 -22 214 -66s91.333 -106.667 100 -188h-97c-6.66699 52 -29.167 93.167 -67.5 123.5c-38.334 30.333 -86.834 45.5 -145.5 45.5c-83.333 0 -149.166 -29.333 -197.499 -88s-72.5 -132 -72.5 -220c0 -85.333 22.833 -158 68.5 -218s109.5 -90 191.5 -90
c66 0 121.333 20.167 165.999 60.5c44.667 40.333 67 96.5 67 168.5h-253v82h340z" />
    <glyph glyph-name="uni0123" unicode="&#x123;" horiz-adv-x="619" 
d="M295 101c46.667 0 85.333 15.499 116 46.499s46 77.5 46 139.5s-15.333 108.833 -46 140.5s-69.334 47.5 -116 47.5c-48.667 0 -88.834 -16.5 -120.501 -49.5s-47.5 -79.167 -47.5 -138.5s15.833 -105.166 47.5 -137.499s71.834 -48.5 120.501 -48.5zM548.999 541.999
l0.000976562 -509c0 -82 -23.167 -144.333 -69.5 -187s-106.5 -64 -180.5 -64c-64 0 -119.667 16 -167 48s-75.333 81.333 -84 148h89c4.66699 -35.333 20.5 -64.333 47.5 -87s65.5 -34 115.5 -34c108.667 0 163 57.333 163 172v91c-34 -66.667 -94.333 -100 -181 -100
c-70 0 -127.833 23.167 -173.5 69.5s-68.5 111.5 -68.5 195.5s22.667 149.5 68 196.5s102.666 70.5 171.999 70.5c85.333 0 146.333 -31.333 183 -94v84h86zM382 910.999l9 -52c-36.667 -4 -62.334 -15.667 -77 -35c-14.667 -19.333 -22 -47 -22 -83h53v-115h-121v109
c0 59.333 15.167 103.333 45.5 132c30.333 28.6699 67.833 43.3369 112.5 44z" />
    <glyph glyph-name="Hcircumflex" unicode="&#x124;" horiz-adv-x="750" 
d="M665 0h-92v337h-396v-337h-92v750h92v-331h396v331h92v-750zM375 922l-72 -90h-86l129 163h59l129 -163h-86z" />
    <glyph glyph-name="hcircumflex" unicode="&#x125;" horiz-adv-x="589" 
d="M339 552c56 0 100 -16.167 132 -48.5s48 -77.5 48 -135.5v-368h-89v359c0 32.667 -8.83301 59.667 -26.5 81s-44.834 32 -81.5 32c-46 0 -83.833 -17 -113.5 -51s-44.5 -81.667 -44.5 -143v-278h-89v762h89v-307c36.667 64.667 95 97 175 97zM376 740l-72 -90h-86
l129 163h59l129 -163h-86z" />
    <glyph glyph-name="Hbar" unicode="&#x126;" horiz-adv-x="810" 
d="M608 528h-396v-109h396v109zM800 528h-100v-528h-92v337h-396v-337h-92v528h-110v53h110v169h92v-169h396v169h92v-169h100v-53z" />
    <glyph glyph-name="hbar" unicode="&#x127;" horiz-adv-x="607" 
d="M357 552c56 0 100 -16.167 132 -48.5s48 -77.5 48 -135.5v-368h-89v359c0 32.667 -8.83301 59.667 -26.5 81s-44.834 32 -81.5 32c-46 0 -83.833 -17 -113.5 -51s-44.5 -81.667 -44.5 -143v-278h-89v620h-73v57h73v85h89v-85h117v-57h-117v-165
c36.667 64.667 95 97 175 97z" />
    <glyph glyph-name="Itilde" unicode="&#x128;" horiz-adv-x="272" 
d="M182 0h-92v750h92v-750zM242 958l55.001 0.000976562c0 -42.667 -8.83301 -75.334 -26.5 -98.001s-38.5 -34 -62.5 -34c-18.667 0 -42 10.167 -70 30.5s-48 30.5 -60 30.5c-20.667 0 -34 -18.333 -40 -55h-58c2.66699 40.667 12.667 72.5 30 95.5s38.333 34.5 63 34.5
c19.333 0 42.833 -10.333 70.5 -31s47.167 -31 58.5 -31c21.333 0 34.666 19.333 39.999 58z" />
    <glyph glyph-name="itilde" unicode="&#x129;" horiz-adv-x="227" 
d="M157 0h-87v542h87v-542zM222 776l55.001 0.000976562c0 -42.667 -8.83301 -75.334 -26.5 -98.001s-38.5 -34 -62.5 -34c-18.667 0 -42 10.167 -70 30.5s-48 30.5 -60 30.5c-20.667 0 -34 -18.333 -40 -55h-58c2.66699 40.667 12.667 72.5 30 95.5s38.333 34.5 63 34.5
c19.333 0 42.833 -10.333 70.5 -31s47.167 -31 58.5 -31c21.333 0 34.666 19.333 39.999 58z" />
    <glyph glyph-name="Imacron" unicode="&#x12a;" horiz-adv-x="272" 
d="M183 0h-92v750h92v-750zM-23 833v67h319v-67h-319z" />
    <glyph glyph-name="imacron" unicode="&#x12b;" horiz-adv-x="227" 
d="M157 0h-87v542h87v-542zM-46 650v67h319v-67h-319z" />
    <glyph glyph-name="Iogonek" unicode="&#x12e;" horiz-adv-x="272" 
d="M120 -50c0 -19.333 8.00098 -34.333 24.001 -45s35 -17 57 -19v-62c-38.667 3.33301 -71.834 15.833 -99.501 37.5s-41.5 47.5 -41.5 77.5c0 26.667 10 47.667 30 63v748h92v-750h-38c-16 -14 -24 -30.667 -24 -50z" />
    <glyph glyph-name="iogonek" unicode="&#x12f;" horiz-adv-x="239" 
d="M107 -50c0 -19.333 8.00098 -34.332 24.001 -44.999s35 -17 57 -19v-62c-38.667 3.33301 -71.834 15.833 -99.501 37.5s-41.5 47.5 -41.5 77.5c0 25.333 9.33301 45.666 28 60.999v542h89v-542h-33c-16 -14 -24 -30.667 -24 -50zM169.001 665.001h-99v107h99v-107z" />
    <glyph glyph-name="Idotaccent" unicode="&#x130;" horiz-adv-x="272" 
d="M182 0h-92v750h92v-750zM78 952h116v-120h-116v120z" />
    <glyph glyph-name="dotlessi" unicode="&#x131;" horiz-adv-x="227" 
d="M157 0h-87v542h87v-542z" />
    <glyph glyph-name="IJ" unicode="&#x132;" horiz-adv-x="797" 
d="M722 750l-0.000976562 -548c0 -71.333 -20 -126 -60 -164s-91.333 -57 -154 -57c-63.333 0 -115.166 18.5 -155.499 55.5s-60.5 89.833 -60.5 158.5v69h92v-69c0 -42 11.167 -74 33.5 -96s51.833 -33 88.5 -33s66.5 11 89.5 33s34.5 54.333 34.5 97v554h92zM181.999 0
h-92v750h92v-750z" />
    <glyph glyph-name="ij" unicode="&#x133;" horiz-adv-x="499" 
d="M429 542l-0.000976562 -598.001c0 -57.333 -13.667 -96.666 -41 -117.999s-64 -32 -110 -32h-39v79h29c28.667 0 47.834 6.33301 57.501 19s14.5 31.667 14.5 57v593h89zM163.999 -0.000976562h-89v542h89v-542zM433.999 664.999h-99v107h99v-107zM168.999 771.999v-107
h-99v107h99z" />
    <glyph glyph-name="Jcircumflex" unicode="&#x134;" horiz-adv-x="525" 
d="M450 750l-0.000976562 -548c0 -71.333 -20 -126 -60 -164s-91.333 -57 -154 -57c-63.333 0 -115.166 18.5 -155.499 55.5s-60.5 89.833 -60.5 158.5v69h92v-69c0 -42 11.167 -74 33.5 -96s51.833 -33 88.5 -33s66.5 11 89.5 33s34.5 54.333 34.5 97v554h92zM383.999 922
l-72 -90h-86l129 163h59l129 -163h-86z" />
    <glyph glyph-name="jcircumflex" unicode="&#x135;" horiz-adv-x="255" 
d="M190 542l-0.000976562 -598.001c0 -57.333 -13.667 -96.666 -41 -117.999s-64 -32 -110 -32h-39v79h29c28.667 0 47.834 6.33301 57.501 19s14.5 31.667 14.5 57v593h89zM139.999 739.999l-72 -90h-86l129 163h59l129 -163h-86z" />
    <glyph glyph-name="uni0136" unicode="&#x136;" horiz-adv-x="685" 
d="M286 -80h120.999v-109c0 -59.333 -15.167 -103.333 -45.5 -132c-30.333 -28.666 -67.833 -43.333 -112.5 -44l-9 52c36.667 4 62.334 15.667 77.001 35s22 47 22 83h-53v115zM669.999 0h-115l-265 373l-113 -119v-254h-92v750h92v-380l351 380h118l-291 -307z" />
    <glyph glyph-name="uni0137" unicode="&#x137;" horiz-adv-x="558" 
d="M210 -80h121v-109c0 -59.333 -15.167 -103.333 -45.5 -132c-30.333 -28.666 -67.833 -43.333 -112.5 -44l-9 52c36.667 4 62.334 15.667 77 35c14.667 19.333 22 47 22 83h-53v115zM538 0h-108l-177 248l-89 -95v-153h-89v762h89v-493l251 273h114l-215 -230z" />
    <glyph glyph-name="kgreenlandic" unicode="&#x138;" horiz-adv-x="558" 
d="M253 247l-89 -94v-153h-89v542h89v-273l251 273h114l-215 -230l224 -312h-109z" />
    <glyph glyph-name="Lacute" unicode="&#x139;" horiz-adv-x="586" 
d="M556 0h-471v750h92v-667h379v-83zM222 832h-73l121 188l73 -55z" />
    <glyph glyph-name="lacute" unicode="&#x13a;" horiz-adv-x="239" 
d="M164 0h-89v762h89v-762zM156 832h-73l121 188l73 -55z" />
    <glyph glyph-name="uni013B" unicode="&#x13b;" horiz-adv-x="586" 
d="M200 -365l-9.00098 52c36.667 4 62.334 15.667 77.001 35s22 47 22 83h-53v115h121v-109c0 -59.333 -15.167 -103.333 -45.5 -132c-30.333 -28.666 -67.833 -43.333 -112.5 -44zM555.999 0h-471v750h92v-667h379v-83z" />
    <glyph glyph-name="uni013C" unicode="&#x13c;" horiz-adv-x="239" 
d="M19 -345l-9.00098 52c36.667 4 62.334 15.667 77.001 35s22 47 22 83h-53v115h121v-109c0 -59.333 -15.167 -103.333 -45.5 -132c-30.333 -28.666 -67.833 -43.333 -112.5 -44zM163.999 0h-89v762h89v-762z" />
    <glyph glyph-name="Lcaron" unicode="&#x13d;" horiz-adv-x="671" 
d="M556 0h-471v750h92v-667h379v-83zM493 477l-9.00098 52.001c36.6689 4 62.3359 15.667 77.001 35c14.667 19.333 22 47 22 83h-53v115h121v-109c0 -59.333 -15.167 -103.333 -45.5 -132c-30.333 -28.668 -67.833 -43.335 -112.5 -44.001z" />
    <glyph glyph-name="lcaron" unicode="&#x13e;" horiz-adv-x="435" 
d="M247 477l-9.00098 52.001c36.667 4 62.334 15.667 77.001 35s22 47 22 83h-53v115h121v-109c0 -59.333 -15.167 -103.333 -45.5 -132c-30.333 -28.668 -67.833 -43.335 -112.5 -44.001zM163.999 0.000976562h-89v762h89v-762z" />
    <glyph glyph-name="Ldot" unicode="&#x13f;" horiz-adv-x="586" 
d="M440 570h116v-120h-116v120zM556 0h-471v750h92v-667h379v-83z" />
    <glyph glyph-name="ldot" unicode="&#x140;" horiz-adv-x="422" 
d="M266 504h116v-120h-116v120zM164 0h-89v762h89v-762z" />
    <glyph glyph-name="Lslash" unicode="&#x141;" horiz-adv-x="691" 
d="M661 83v-83h-471v272l-105 -55v67l105 55v411h92v-363l222 117v-67l-222 -117v-237h379z" />
    <glyph glyph-name="lslash" unicode="&#x142;" horiz-adv-x="406" 
d="M331 392l-92 -48v-344h-89v297l-75 -39v67l75 39v398h89v-351l92 48v-67z" />
    <glyph glyph-name="Nacute" unicode="&#x143;" horiz-adv-x="741" 
d="M656 0h-95l-387 609v-609h-89v750h110l372 -593v593h89v-750zM406 832h-73l121 188l73 -55z" />
    <glyph glyph-name="nacute" unicode="&#x144;" horiz-adv-x="589" 
d="M339 552c56 0 100 -16.167 132 -48.5s48 -77.5 48 -135.5v-368h-89v359c0 32.667 -8.83301 59.667 -26.5 81s-44.834 32 -81.5 32c-46 0 -83.833 -17 -113.5 -51s-44.5 -81.667 -44.5 -143v-278h-89v542h88v-94c36 69.333 94.667 104 176 104zM371 650h-73l121 188
l73 -55z" />
    <glyph glyph-name="uni0145" unicode="&#x145;" horiz-adv-x="741" 
d="M257 -365l-9.00098 52c36.667 4 62.334 15.667 77.001 35s22 47 22 83h-53v115h121v-109c0 -59.333 -15.167 -103.333 -45.5 -132c-30.333 -28.666 -67.833 -43.333 -112.5 -44zM655.999 0h-95l-387 609v-609h-89v750h110l372 -593v593h89v-750z" />
    <glyph glyph-name="uni0146" unicode="&#x146;" horiz-adv-x="589" 
d="M190 -365l-9 52c36.667 4 62.334 15.667 77 35c14.667 19.333 22 47 22 83h-53v115h121v-109c0 -59.333 -15.167 -103.333 -45.5 -132c-30.333 -28.666 -67.833 -43.333 -112.5 -44zM339 552c56 0 100 -16.167 132 -48.5s48 -77.5 48 -135.5v-368h-89v359
c0 32.667 -8.83301 59.667 -26.5 81s-44.834 32 -81.5 32c-46 0 -83.833 -17 -113.5 -51s-44.5 -81.667 -44.5 -143v-278h-89v542h88v-94c36 69.333 94.667 104 176 104z" />
    <glyph glyph-name="Ncaron" unicode="&#x147;" horiz-adv-x="741" 
d="M656 0h-95l-387 609v-609h-89v750h110l372 -593v593h89v-750zM548 995l-129 -163h-59l-129 163h86l72 -90l73 90h86z" />
    <glyph glyph-name="ncaron" unicode="&#x148;" horiz-adv-x="589" 
d="M339 552c56 0 100 -16.167 132 -48.5s48 -77.5 48 -135.5v-368h-89v359c0 32.667 -8.83301 59.667 -26.5 81s-44.834 32 -81.5 32c-46 0 -83.833 -17 -113.5 -51s-44.5 -81.667 -44.5 -143v-278h-89v542h88v-94c36 69.333 94.667 104 176 104zM321 723l72 90h86
l-129 -163h-59l-129 163h86z" />
    <glyph glyph-name="napostrophe" unicode="&#x149;" horiz-adv-x="792" 
d="M542 552c56 0 100.001 -16.167 132.001 -48.5s48 -77.5 48 -135.5v-368h-89v359c0 32.667 -8.83301 59.667 -26.5 81s-44.834 32 -81.501 32c-46 0 -83.833 -17 -113.5 -51s-44.5 -81.667 -44.5 -143v-278h-89v542h88v-94c36 69.333 94.667 104 176 104zM49.001 477
l-9.00098 52.001c36.667 4 62.334 15.667 77.001 35s22 47 22 83h-53v115h121v-109c0 -59.333 -15.167 -103.333 -45.5 -132c-30.333 -28.668 -67.833 -43.335 -112.5 -44.001z" />
    <glyph glyph-name="Eng" unicode="&#x14a;" horiz-adv-x="741" 
d="M656 750l-0.000976562 -806.001c0 -57.333 -13.667 -96.666 -41 -117.999s-64 -32 -110 -32h-39v79h29c28.6689 0 47.8359 6.33301 57.501 19c9.66699 12.667 14.5 31.667 14.5 57v55h-1l-392 595v-599h-89v750h107l375 -589v589h89z" />
    <glyph glyph-name="eng" unicode="&#x14b;" horiz-adv-x="584" 
d="M339 552c56 0 99.998 -16.168 131.998 -48.501s48 -77.5 48 -135.5v-424c0 -57.333 -13.667 -96.666 -41 -117.999s-64 -32 -110 -32h-39v79h29c28.667 0 47.834 6.33301 57.501 19s14.5 31.667 14.5 57v410c0 32.667 -8.83301 59.667 -26.5 81s-44.834 32 -81.5 32
c-46 0 -83.833 -17 -113.5 -51s-44.5 -81.667 -44.5 -143v-278h-89v542h88v-90c36.667 66.667 95.334 100 176.001 100z" />
    <glyph glyph-name="Omacron" unicode="&#x14c;" horiz-adv-x="827" 
d="M414 679c-83.333 0 -149 -28 -197 -84s-72 -129.333 -72 -220c0 -89.333 25.167 -162.333 75.5 -219s116.166 -85 197.499 -85c80.667 0 144.834 28.167 192.501 84.5s71.5 129.5 71.5 219.5c0 89.334 -25 162.334 -75 219c-50 56.667 -114.333 85 -193 85zM416 -19
c-108 0 -196.001 37.335 -264.001 112.002s-102 168.667 -102 282s33.833 207.166 101.5 281.499s155.834 111.5 264.501 111.5c105.333 0 191.833 -37.333 259.5 -112s101.5 -168.334 101.5 -281.001s-33.667 -206.5 -101 -281.5s-154 -112.5 -260 -112.5zM253.999 833.002
v67h319v-67h-319z" />
    <glyph glyph-name="omacron" unicode="&#x14d;" horiz-adv-x="595" 
d="M464 274c0 61.333 -15.834 109.333 -47.501 144s-71.834 52 -120.5 52c-50 0 -90 -18.167 -120 -54.5s-45 -86.166 -45 -149.499c0 -61.333 15.833 -109.333 47.5 -144s71.834 -52 120.501 -52c50 0 90 18.167 120 54.5s45 86.166 45 149.499zM296.999 552
c76 0 138 -25.5 186 -76.5s72 -119.5 72 -205.5s-24 -154.5 -72 -205.5s-110 -76.5 -186 -76.5s-137.833 25.5 -185.5 76.5s-71.5 119.5 -71.5 205.5s24 154.5 72 205.5s109.667 76.5 185 76.5zM137.999 650v67h319v-67h-319z" />
    <glyph glyph-name="Obreve" unicode="&#x14e;" horiz-adv-x="827" 
d="M414 679c-83.333 0 -149 -28 -197 -84s-72 -129.333 -72 -220c0 -89.333 25.167 -162.333 75.5 -219s116.166 -85 197.499 -85c80.667 0 144.834 28.167 192.501 84.5s71.5 129.5 71.5 219.5c0 89.334 -25 162.334 -75 219c-50 56.667 -114.333 85 -193 85zM416 -19
c-108 0 -196.001 37.335 -264.001 112.002s-102 168.667 -102 282s33.833 207.166 101.5 281.499s155.834 111.5 264.501 111.5c105.333 0 191.833 -37.333 259.5 -112s101.5 -168.334 101.5 -281.001s-33.667 -206.5 -101 -281.5s-154 -112.5 -260 -112.5zM463.999 975.002
l59 0.000976562c4 -12 6 -25.333 6 -40c0 -29.334 -9.5 -54.667 -28.5 -76s-47.833 -32 -86.5 -32s-67.5 10.667 -86.5 32s-28.5 46.666 -28.5 75.999c0 14.667 2 28 6 40h59c-3.33301 -10 -5 -20.333 -5 -31c0 -17.333 4.5 -31.833 13.5 -43.5s22.833 -17.5 41.5 -17.5
s32.5 5.83301 41.5 17.5s13.5 26.167 13.5 43.5c0 10.667 -1.66699 21 -5 31z" />
    <glyph glyph-name="obreve" unicode="&#x14f;" horiz-adv-x="595" 
d="M464 274c0 61.333 -15.834 109.333 -47.501 144s-71.834 52 -120.5 52c-50 0 -90 -18.167 -120 -54.5s-45 -86.166 -45 -149.499c0 -61.333 15.833 -109.333 47.5 -144s71.834 -52 120.501 -52c50 0 90 18.167 120 54.5s45 86.166 45 149.499zM296.999 552
c76 0 138 -25.5 186 -76.5s72 -119.5 72 -205.5s-24 -154.5 -72 -205.5s-110 -76.5 -186 -76.5s-137.833 25.5 -185.5 76.5s-71.5 119.5 -71.5 205.5s24 154.5 72 205.5s109.667 76.5 185 76.5zM347.999 793l59 0.000976562c4 -12 6 -25.333 6 -40
c0 -29.3359 -9.5 -54.6689 -28.5 -76c-19 -21.333 -47.833 -32 -86.5 -32s-67.5 10.667 -86.5 32s-28.5 46.666 -28.5 75.999c0 14.667 2 28 6 40h59c-3.33301 -10 -5 -20.333 -5 -31c0 -17.333 4.5 -31.833 13.5 -43.5s22.833 -17.5 41.5 -17.5s32.5 5.83301 41.5 17.5
s13.5 26.167 13.5 43.5c0 10.667 -1.66699 21 -5 31z" />
    <glyph glyph-name="Ohungarumlaut" unicode="&#x150;" horiz-adv-x="827" 
d="M414 679c-83.333 0 -149 -28 -197 -84s-72 -129.333 -72 -220c0 -89.333 25.167 -162.333 75.5 -219s116.166 -85 197.499 -85c80.667 0 144.834 28.167 192.501 84.5s71.5 129.5 71.5 219.5c0 89.334 -25 162.334 -75 219c-50 56.667 -114.333 85 -193 85zM416 -19
c-108 0 -196.001 37.335 -264.001 112.002s-102 168.667 -102 282s33.833 207.166 101.5 281.499s155.834 111.5 264.501 111.5c105.333 0 191.833 -37.333 259.5 -112s101.5 -168.334 101.5 -281.001s-33.667 -206.5 -101 -281.5s-154 -112.5 -260 -112.5zM511.999 832.002
h-68l43 160h80zM381.999 832.002h-68l43 160h80z" />
    <glyph glyph-name="ohungarumlaut" unicode="&#x151;" horiz-adv-x="595" 
d="M464 274c0 61.333 -15.834 109.333 -47.501 144s-71.834 52 -120.5 52c-50 0 -90 -18.167 -120 -54.5s-45 -86.166 -45 -149.499c0 -61.333 15.833 -109.333 47.5 -144s71.834 -52 120.501 -52c50 0 90 18.167 120 54.5s45 86.166 45 149.499zM296.999 552
c76 0 138 -25.5 186 -76.5s72 -119.5 72 -205.5s-24 -154.5 -72 -205.5s-110 -76.5 -186 -76.5s-137.833 25.5 -185.5 76.5s-71.5 119.5 -71.5 205.5s24 154.5 72 205.5s109.667 76.5 185 76.5zM403.999 650h-68l43 160h80zM273.999 650h-68l43 160h80z" />
    <glyph glyph-name="Racute" unicode="&#x154;" horiz-adv-x="671" 
d="M175 400h180.999c48 0 85.667 14 113 42s41 61 41 99c0 35.333 -12.167 65.333 -36.5 90s-59.166 37 -104.499 37h-194v-268zM552.999 0l-212.001 319h-166v-319h-90v750h278c74 0 131.833 -20 173.5 -60s62.5 -88 62.5 -144c0 -47.333 -13.667 -90.333 -41 -129
s-66.666 -65.667 -117.999 -81l221 -336h-108zM326.998 832h-73l121 188l73 -55z" />
    <glyph glyph-name="racute" unicode="&#x155;" horiz-adv-x="370" 
d="M355 463h-25c-53.333 0 -94.333 -15.167 -123 -45.5s-43 -75.5 -43 -135.5v-282h-89v542h88v-94c28 66.667 83.333 100 166 100h26v-85zM270 650h-73l121 188l73 -55z" />
    <glyph glyph-name="uni0156" unicode="&#x156;" horiz-adv-x="671" 
d="M236 -365l-9.00098 52c36.667 4 62.334 15.667 77.001 35s22 47 22 83h-53v115h121v-109c0 -59.333 -15.167 -103.333 -45.5 -132c-30.333 -28.666 -67.833 -43.333 -112.5 -44zM174.999 400h180.999c48 0 85.667 14 113 42s41 61 41 99
c0 35.333 -12.167 65.333 -36.5 90s-59.166 37 -104.499 37h-194v-268zM552.998 0l-212.001 319h-166v-319h-90v750h278c74 0 131.833 -20 173.5 -60s62.5 -88 62.5 -144c0 -47.333 -13.667 -90.333 -41 -129s-66.666 -65.667 -117.999 -81l221 -336h-108z" />
    <glyph glyph-name="uni0157" unicode="&#x157;" horiz-adv-x="370" 
d="M26 -365l-9.00098 52c36.667 4 62.334 15.667 77.001 35s22 47 22 83h-53v115h121v-109c0 -59.333 -15.167 -103.333 -45.5 -132c-30.333 -28.666 -67.833 -43.333 -112.5 -44zM354.999 463h-25c-53.333 0 -94.333 -15.167 -123 -45.5s-43 -75.5 -43 -135.5v-282h-89v542
h88v-94c28 66.667 83.333 100 166 100h26v-85z" />
    <glyph glyph-name="Rcaron" unicode="&#x158;" horiz-adv-x="671" 
d="M175 400h180.999c48 0 85.667 14 113 42s41 61 41 99c0 35.333 -12.167 65.333 -36.5 90s-59.166 37 -104.499 37h-194v-268zM552.999 0l-212.001 319h-166v-319h-90v750h278c74 0 131.833 -20 173.5 -60s62.5 -88 62.5 -144c0 -47.333 -13.667 -90.333 -41 -129
s-66.666 -65.667 -117.999 -81l221 -336h-108zM482.998 995l-129 -163h-59l-129 163h86l72 -90l73 90h86z" />
    <glyph glyph-name="rcaron" unicode="&#x159;" horiz-adv-x="370" 
d="M355 463h-25c-53.333 0 -94.333 -15.167 -123 -45.5s-43 -75.5 -43 -135.5v-282h-89v542h88v-94c28 66.667 83.333 100 166 100h26v-85zM228 723l72 90h86l-129 -163h-59l-129 163h86z" />
    <glyph glyph-name="Sacute" unicode="&#x15a;" horiz-adv-x="649" 
d="M604 201c0 -68.667 -25.5 -122.503 -76.5 -161.503s-113.5 -58.5 -187.5 -58.5c-79.333 0 -147.666 22.5 -204.999 67.5s-87.333 110.5 -90 196.5h99c0.666992 -58.667 20.334 -103.334 59.001 -134.001s85.667 -46 141 -46c48 0 87.333 11.333 118 34
s46 53.334 46 92.001c0 22.667 -5 42.334 -15 59.001s-26.667 30.5 -50 41.5s-41.333 18.5 -54 22.5s-34.334 9.33301 -65 16c-7.33301 2 -12.666 3.33301 -15.999 4c-27.333 6.66699 -50.333 12.834 -69 18.501s-39.334 14.334 -62.001 26.001s-40.834 24.5 -54.501 38.5
s-25.334 32.333 -35.001 55s-14.5 48.334 -14.5 77.001c0 70.667 23.833 124.834 71.5 162.5c47.667 37.667 108.167 56.5 181.5 56.5s134.5 -18.833 183.5 -56.5s74.833 -90.834 77.5 -159.501h-94c-1.33301 43.333 -17 76.333 -47 99s-69 34 -117 34
s-87.5 -11.167 -118.5 -33.5c-31 -22.335 -46.5 -55.168 -46.5 -98.5c0 -18.667 3.5 -35 10.5 -49s15.167 -25.5 24.5 -34.5s22.833 -17.167 40.5 -24.5s33.167 -12.833 46.5 -16.5c13.334 -3.66699 31.667 -8.16699 55 -13.5c79.333 -18 134.333 -35.333 165 -52
c65.333 -35.333 98 -89.333 98 -162zM366 831.997h-73l121 188l73 -55z" />
    <glyph glyph-name="sacute" unicode="&#x15b;" horiz-adv-x="525" 
d="M283 308c66 -10 111.331 -20.998 135.998 -32.998c47.333 -22.667 71 -61.334 71 -116.001s-21.167 -96.834 -63.5 -126.501s-94.166 -44.5 -155.499 -44.5c-64 0 -118.333 16 -163 48s-69 77.667 -73 137h92c4 -34.667 20.167 -61 48.5 -79s62.5 -27 102.5 -27
c35.333 0 63.833 6.83301 85.5 20.5s32.5 33.5 32.5 59.5c0 24 -9 41.167 -27 51.5s-43.667 18.166 -77 23.499c-3.33301 0.669922 -13.333 2.33691 -30 5c-16.667 2.66699 -27.667 4.5 -33 5.5s-15.833 3.16699 -31.5 6.5s-26.667 6.33301 -33 9
c-6.33398 2.66699 -16.167 6.5 -29.5 11.5s-23 10.167 -29 15.5s-13.333 12 -22 20s-15 16.333 -19 25s-7.66699 19 -11 31s-5 24.667 -5 38c0 52.667 19.333 93 58 121s88.334 42 149.001 42c61.333 0 113 -14.5 155 -43.5s63.333 -71.5 64 -127.5h-91
c-0.666992 30 -13.167 52.833 -37.5 68.5s-54.5 23.5 -90.5 23.5c-33.333 0 -60.833 -6.66699 -82.5 -20s-32.5 -33.333 -32.5 -60c0 -27.333 11.667 -46.666 35 -57.999s59 -20.333 107 -27zM294.998 650.002h-73l121 188l73 -55z" />
    <glyph glyph-name="Scircumflex" unicode="&#x15c;" horiz-adv-x="649" 
d="M604 201c0 -68.667 -25.5 -122.503 -76.5 -161.503s-113.5 -58.5 -187.5 -58.5c-79.333 0 -147.666 22.5 -204.999 67.5s-87.333 110.5 -90 196.5h99c0.666992 -58.667 20.334 -103.334 59.001 -134.001s85.667 -46 141 -46c48 0 87.333 11.333 118 34
s46 53.334 46 92.001c0 22.667 -5 42.334 -15 59.001s-26.667 30.5 -50 41.5s-41.333 18.5 -54 22.5s-34.334 9.33301 -65 16c-7.33301 2 -12.666 3.33301 -15.999 4c-27.333 6.66699 -50.333 12.834 -69 18.501s-39.334 14.334 -62.001 26.001s-40.834 24.5 -54.501 38.5
s-25.334 32.333 -35.001 55s-14.5 48.334 -14.5 77.001c0 70.667 23.833 124.834 71.5 162.5c47.667 37.667 108.167 56.5 181.5 56.5s134.5 -18.833 183.5 -56.5s74.833 -90.834 77.5 -159.501h-94c-1.33301 43.333 -17 76.333 -47 99s-69 34 -117 34
s-87.5 -11.167 -118.5 -33.5c-31 -22.335 -46.5 -55.168 -46.5 -98.5c0 -18.667 3.5 -35 10.5 -49s15.167 -25.5 24.5 -34.5s22.833 -17.167 40.5 -24.5s33.167 -12.833 46.5 -16.5c13.334 -3.66699 31.667 -8.16699 55 -13.5c79.333 -18 134.333 -35.333 165 -52
c65.333 -35.333 98 -89.333 98 -162zM336 921.997l-72 -90h-86l129 163h59l129 -163h-86z" />
    <glyph glyph-name="scircumflex" unicode="&#x15d;" horiz-adv-x="525" 
d="M283 308c66 -10 111.331 -20.998 135.998 -32.998c47.333 -22.667 71 -61.334 71 -116.001s-21.167 -96.834 -63.5 -126.501s-94.166 -44.5 -155.499 -44.5c-64 0 -118.333 16 -163 48s-69 77.667 -73 137h92c4 -34.667 20.167 -61 48.5 -79s62.5 -27 102.5 -27
c35.333 0 63.833 6.83301 85.5 20.5s32.5 33.5 32.5 59.5c0 24 -9 41.167 -27 51.5s-43.667 18.166 -77 23.499c-3.33301 0.669922 -13.333 2.33691 -30 5c-16.667 2.66699 -27.667 4.5 -33 5.5s-15.833 3.16699 -31.5 6.5s-26.667 6.33301 -33 9
c-6.33398 2.66699 -16.167 6.5 -29.5 11.5s-23 10.167 -29 15.5s-13.333 12 -22 20s-15 16.333 -19 25s-7.66699 19 -11 31s-5 24.667 -5 38c0 52.667 19.333 93 58 121s88.334 42 149.001 42c61.333 0 113 -14.5 155 -43.5s63.333 -71.5 64 -127.5h-91
c-0.666992 30 -13.167 52.833 -37.5 68.5s-54.5 23.5 -90.5 23.5c-33.333 0 -60.833 -6.66699 -82.5 -20s-32.5 -33.333 -32.5 -60c0 -27.333 11.667 -46.666 35 -57.999s59 -20.333 107 -27zM272.998 740.002l-72 -90h-86l129 163h59l129 -163h-86z" />
    <glyph glyph-name="Scedilla" unicode="&#x15e;" horiz-adv-x="649" 
d="M604 201c0 -68 -24.6689 -121.335 -74.002 -160.002s-110 -58.667 -182 -60v-25c32.667 -1.33301 59 -9.33301 79 -24s30 -34.334 30 -59.001c0 -26 -10 -47.667 -30 -65s-45.667 -26 -77 -26c-45.333 0 -83.333 13.333 -114 40l32 49
c26.667 -21.333 52.334 -32 77.001 -32c14.667 0 26.334 3.33301 35.001 10s13 15.667 13 27c0 12.667 -8.33301 23.834 -25 33.501s-41 14.5 -73 14.5l9 59c-71.333 6.66699 -131.666 32.167 -180.999 76.5s-75.333 106.166 -78 185.499h99
c0.666992 -58.667 20.334 -103.334 59.001 -134.001s85.667 -46 141 -46c48 0 87.333 11.333 118 34s46 53.334 46 92.001c0 22.667 -5 42.334 -15 59.001s-26.667 30.5 -50 41.5s-41.333 18.5 -54 22.5s-34.334 9.33301 -65 16c-7.33301 2 -12.666 3.33301 -15.999 4
c-27.333 6.66699 -50.333 12.834 -69 18.501s-39.334 14.334 -62.001 26.001s-40.834 24.5 -54.501 38.5s-25.334 32.333 -35.001 55s-14.5 48.334 -14.5 77.001c0 70.667 23.833 124.834 71.5 162.5c47.667 37.667 108.167 56.5 181.5 56.5s134.5 -18.833 183.5 -56.5
s74.833 -90.834 77.5 -159.501h-94c-1.33301 43.333 -17 76.333 -47 99s-69 34 -117 34s-87.5 -11.167 -118.5 -33.5c-31 -22.335 -46.5 -55.168 -46.5 -98.5c0 -18.667 3.5 -35 10.5 -49s15.167 -25.5 24.5 -34.5s22.833 -17.167 40.5 -24.5s33.167 -12.833 46.5 -16.5
c13.334 -3.66699 31.667 -8.16699 55 -13.5c79.333 -18 134.333 -35.333 165 -52c65.333 -35.333 98 -89.333 98 -162z" />
    <glyph glyph-name="scedilla" unicode="&#x15f;" horiz-adv-x="525" 
d="M490 159c0 -52 -18.8359 -92.499 -56.5029 -121.499s-84.834 -45.167 -141.5 -48.5v-33c32.667 -1.33301 59.167 -9.33301 79.5 -24s30.5 -34.334 30.5 -59.001c0 -26 -10 -47.667 -30 -65s-45.667 -26 -77 -26c-45.333 0 -83.333 13.333 -114 40l32 49
c26.667 -21.333 52.334 -32 77.001 -32c14.667 0 26.334 3.33301 35.001 10s13 15.667 13 27c0 12.667 -8.33301 23.834 -25 33.501s-41 14.5 -73 14.5l10 65c-58.667 3.33301 -108.167 20.833 -148.5 52.5s-62.5 75.5 -66.5 131.5h92c4 -34.667 20.167 -61 48.5 -79
s62.5 -27 102.5 -27c35.333 0 63.833 6.83301 85.5 20.5s32.5 33.5 32.5 59.5c0 24 -9 41.167 -27 51.5s-43.667 18.166 -77 23.499c-3.33301 0.669922 -13.333 2.33691 -30 5c-16.667 2.66699 -27.667 4.5 -33 5.5s-15.833 3.16699 -31.5 6.5s-26.667 6.33301 -33 9
c-6.33398 2.66699 -16.167 6.5 -29.5 11.5s-23 10.167 -29 15.5s-13.333 12 -22 20s-15 16.333 -19 25s-7.66699 19 -11 31s-5 24.667 -5 38c0 52.667 19.333 93 58 121s88.334 42 149.001 42c61.333 0 113 -14.5 155 -43.5s63.333 -71.5 64 -127.5h-91
c-0.666992 30 -13.167 52.833 -37.5 68.5s-54.5 23.5 -90.5 23.5c-33.333 0 -60.833 -6.66699 -82.5 -20s-32.5 -33.333 -32.5 -60c0 -27.333 11.667 -46.666 35 -57.999s59 -20.333 107 -27c66 -10 111.333 -21 136 -33c47.333 -22.667 71 -61.334 71 -116.001z" />
    <glyph glyph-name="uni0162" unicode="&#x162;" horiz-adv-x="632" 
d="M362 0l-36 0.000976562c-16 -14 -24 -30.667 -24 -50s8 -34.333 24 -45s35 -17 57 -19v-62c-38.667 3.33301 -71.834 15.833 -99.5 37.5c-27.667 21.667 -41.5 47.5 -41.5 77.5c0 25.333 9.33301 45.666 28 60.999v668h-255v82h602v-82h-255v-668z" />
    <glyph glyph-name="uni0163" unicode="&#x163;" horiz-adv-x="358" 
d="M241 1l-0.000976562 -45c32.667 -1.33301 59.167 -9.33301 79.5 -24s30.5 -34.334 30.5 -59.001c0 -26 -10 -47.667 -30 -65s-45.667 -26 -77 -26c-45.333 0 -83.333 13.333 -114 40l32 49c26.667 -21.333 52.334 -32 77 -32c14.667 0 26.334 3.33301 35.001 10
s13 15.667 13 27c0 12.667 -8.33301 23.834 -25 33.501s-41 14.5 -73 14.5l13 82c-62 15.333 -93 63.333 -93 144v313h-104v79h104v145l89 25v-170h128v-79h-128v-308c0 -25.333 4.83301 -44.333 14.5 -57s28.834 -19 57.5 -19h68v-79h-78z" />
    <glyph glyph-name="Tcaron" unicode="&#x164;" horiz-adv-x="632" 
d="M617 668h-255v-668h-92v668h-255v82h602v-82zM475 995l-129 -163h-59l-129 163h86l72 -90l73 90h86z" />
    <glyph glyph-name="tcaron" unicode="&#x165;" horiz-adv-x="555" 
d="M338 0l-78 0.000976562c-46 0 -82.667 10.667 -110 32s-41 60.666 -41 117.999v313h-104v79h104v145l89 25v-170h128v-79h-128v-308c0 -25.333 4.83301 -44.333 14.5 -57s28.834 -19 57.5 -19h68v-79zM367 477.001l-9.00098 52.001c36.667 4 62.334 15.667 77.001 35
s22 47 22 83h-53v115h121v-109c0 -59.333 -15.167 -103.333 -45.5 -132c-30.333 -28.668 -67.833 -43.335 -112.5 -44.001z" />
    <glyph glyph-name="Tbar" unicode="&#x166;" horiz-adv-x="632" 
d="M362 668v-187h186v-53h-186v-428h-92v428h-186v53h186v187h-255v82h602v-82h-255z" />
    <glyph glyph-name="tbar" unicode="&#x167;" horiz-adv-x="363" 
d="M343 79v-78.999h-78c-46 0 -82.667 10.667 -110 32s-41 60.666 -41 117.999v122h-109v79h109v112h-104v79h104v145l89 25v-170h128v-79h-128v-112h123v-79h-123v-117c0 -25.333 4.83301 -44.333 14.5 -57s28.834 -19 57.5 -19h68z" />
    <glyph glyph-name="Utilde" unicode="&#x168;" horiz-adv-x="731" 
d="M656 750l0.000976562 -485c0 -92 -26.333 -162.333 -79 -211s-122.334 -73 -209.001 -73c-87.333 0 -158 24.333 -212 73s-81 119 -81 211v485h92v-478c0 -68.667 19 -120.167 57 -154.5s86 -51.5 144 -51.5c59.333 0 107.333 15.833 144 47.5s55 80.167 55 145.5v491h89
zM481.001 958l55.001 0.000976562c0 -42.667 -8.83301 -75.334 -26.5 -98.001s-38.5 -34 -62.5 -34c-18.667 0 -42 10.167 -70 30.5s-48 30.5 -60 30.5c-20.667 0 -34 -18.333 -40 -55h-58c2.66699 40.667 12.667 72.5 30 95.5s38.333 34.5 63 34.5
c19.333 0 42.833 -10.333 70.5 -31s47.167 -31 58.5 -31c21.335 0 34.668 19.333 39.999 58z" />
    <glyph glyph-name="utilde" unicode="&#x169;" horiz-adv-x="589" 
d="M514 0l-85.999 -0.000976562v95c-36.667 -67.333 -95 -101 -175 -101c-54 0 -98 17 -132 51s-51 82 -51 144v353h89v-338c0 -42.667 10.167 -75.167 30.5 -97.5s48.166 -33.5 83.499 -33.5c42 0 77.833 16.833 107.5 50.5s44.5 81.834 44.5 144.501v274h89v-542z
M400.001 775.999l55 0.000976562c0 -42.667 -8.83301 -75.334 -26.5 -98.001s-38.5 -34 -62.5 -34c-18.667 0 -42 10.167 -70 30.5s-48 30.5 -60 30.5c-20.667 0 -34 -18.333 -40 -55h-58c2.66699 40.667 12.667 72.5 30 95.5s38.333 34.5 63 34.5
c19.333 0 42.833 -10.333 70.5 -31s47.167 -31 58.5 -31c21.335 0 34.668 19.333 40 58z" />
    <glyph glyph-name="Umacron" unicode="&#x16a;" horiz-adv-x="731" 
d="M656 750l0.000976562 -485c0 -92 -26.333 -162.333 -79 -211s-122.334 -73 -209.001 -73c-87.333 0 -158 24.333 -212 73s-81 119 -81 211v485h92v-478c0 -68.667 19 -120.167 57 -154.5s86 -51.5 144 -51.5c59.333 0 107.333 15.833 144 47.5s55 80.167 55 145.5v491h89
zM206.001 833v67h319v-67h-319z" />
    <glyph glyph-name="umacron" unicode="&#x16b;" horiz-adv-x="589" 
d="M514 0l-85.999 -0.000976562v95c-36.667 -67.333 -95 -101 -175 -101c-54 0 -98 17 -132 51s-51 82 -51 144v353h89v-338c0 -42.667 10.167 -75.167 30.5 -97.5s48.166 -33.5 83.499 -33.5c42 0 77.833 16.833 107.5 50.5s44.5 81.834 44.5 144.501v274h89v-542z
M134.001 649.999v67h319v-67h-319z" />
    <glyph glyph-name="Ubreve" unicode="&#x16c;" horiz-adv-x="731" 
d="M656 750l0.000976562 -485c0 -92 -26.333 -162.333 -79 -211s-122.334 -73 -209.001 -73c-87.333 0 -158 24.333 -212 73s-81 119 -81 211v485h92v-478c0 -68.667 19 -120.167 57 -154.5s86 -51.5 144 -51.5c59.333 0 107.333 15.833 144 47.5s55 80.167 55 145.5v491h89
zM416.001 975l59 0.000976562c4 -12 6 -25.333 6 -40c0 -29.334 -9.5 -54.667 -28.5 -76s-47.833 -32 -86.5 -32s-67.5 10.667 -86.5 32s-28.5 46.666 -28.5 75.999c0 14.667 2 28 6 40h59c-3.33301 -10 -5 -20.333 -5 -31c0 -17.333 4.5 -31.833 13.5 -43.5
s22.833 -17.5 41.5 -17.5s32.5 5.83301 41.5 17.5s13.5 26.167 13.5 43.5c0 10.667 -1.66699 21 -5 31z" />
    <glyph glyph-name="ubreve" unicode="&#x16d;" horiz-adv-x="589" 
d="M514 0l-85.999 -0.000976562v95c-36.667 -67.333 -95 -101 -175 -101c-54 0 -98 17 -132 51s-51 82 -51 144v353h89v-338c0 -42.667 10.167 -75.167 30.5 -97.5s48.166 -33.5 83.499 -33.5c42 0 77.833 16.833 107.5 50.5s44.5 81.834 44.5 144.501v274h89v-542z
M337.001 792.999l59 0.000976562c4 -12 6 -25.333 6 -40c0 -29.3359 -9.5 -54.6689 -28.5 -76c-19 -21.333 -47.833 -32 -86.5 -32s-67.5 10.667 -86.5 32s-28.5 46.666 -28.5 75.999c0 14.667 2 28 6 40h59c-3.33301 -10 -5 -20.333 -5 -31
c0 -17.333 4.5 -31.833 13.5 -43.5s22.833 -17.5 41.5 -17.5s32.5 5.83301 41.5 17.5s13.5 26.167 13.5 43.5c0 10.667 -1.66699 21 -5 31z" />
    <glyph glyph-name="Uring" unicode="&#x16e;" horiz-adv-x="731" 
d="M656 750l0.000976562 -485c0 -92 -26.333 -162.333 -79 -211s-122.334 -73 -209.001 -73c-87.333 0 -158 24.333 -212 73s-81 119 -81 211v485h92v-478c0 -68.667 19 -120.167 57 -154.5s86 -51.5 144 -51.5c59.333 0 107.333 15.833 144 47.5s55 80.167 55 145.5v491h89
zM415.001 928c0 14.6738 -4.66699 26.8418 -14 36.501c-9.33301 9.66699 -21.333 14.5 -36 14.5s-26.5 -4.83301 -35.5 -14.5s-13.5 -21.834 -13.5 -36.501c0 -15.333 4.5 -28 13.5 -38s20.833 -15 35.5 -15s26.667 5 36 15s14 22.667 14 38zM265.001 928.001
c0 29.333 9.33105 53.333 27.998 72s42.334 28 71.001 28c30 0 54.5 -9.16699 73.5 -27.5s28.5 -42.5 28.5 -72.5c0 -29.333 -9.66699 -53.5 -29 -72.5s-43.666 -28.5 -72.999 -28.5c-28 0 -51.5 9.5 -70.5 28.5s-28.5 43.167 -28.5 72.5z" />
    <glyph glyph-name="uring" unicode="&#x16f;" horiz-adv-x="589" 
d="M514 0l-85.999 -0.000976562v95c-36.667 -67.333 -95 -101 -175 -101c-54 0 -98 17 -132 51s-51 82 -51 144v353h89v-338c0 -42.667 10.167 -75.167 30.5 -97.5s48.166 -33.5 83.499 -33.5c42 0 77.833 16.833 107.5 50.5s44.5 81.834 44.5 144.501v274h89v-542z
M340.001 745.999c0 14.667 -4.66699 26.834 -14 36.501s-21.333 14.5 -36 14.5s-26.5 -4.83301 -35.5 -14.5s-13.5 -21.834 -13.5 -36.501c0 -15.333 4.5 -28 13.5 -38s20.833 -15 35.5 -15s26.667 5 36 15s14 22.667 14 38zM190.001 745.999
c0 29.333 9.33105 53.333 27.998 72s42.334 28 71.001 28c30 0 54.5 -9.16699 73.5 -27.5s28.5 -42.5 28.5 -72.5c0 -29.333 -9.66699 -53.5 -29 -72.5s-43.666 -28.5 -72.999 -28.5c-28 0 -51.5 9.5 -70.5 28.5s-28.5 43.167 -28.5 72.5z" />
    <glyph glyph-name="Uhungarumlaut" unicode="&#x170;" horiz-adv-x="731" 
d="M656 750l0.000976562 -485c0 -92 -26.333 -162.333 -79 -211s-122.334 -73 -209.001 -73c-87.333 0 -158 24.333 -212 73s-81 119 -81 211v485h92v-478c0 -68.667 19 -120.167 57 -154.5s86 -51.5 144 -51.5c59.333 0 107.333 15.833 144 47.5s55 80.167 55 145.5v491h89
zM464.001 832h-68l43 160h80zM334.001 832h-68l43 160h80z" />
    <glyph glyph-name="uhungarumlaut" unicode="&#x171;" horiz-adv-x="589" 
d="M514 0l-85.999 -0.000976562v95c-36.667 -67.333 -95 -101 -175 -101c-54 0 -98 17 -132 51s-51 82 -51 144v353h89v-338c0 -42.667 10.167 -75.167 30.5 -97.5s48.166 -33.5 83.499 -33.5c42 0 77.833 16.833 107.5 50.5s44.5 81.834 44.5 144.501v274h89v-542z
M386.001 649.999h-68l43 160h80zM256.001 649.999h-68l43 160h80z" />
    <glyph glyph-name="Uogonek" unicode="&#x172;" horiz-adv-x="731" 
d="M656 750l-0.000976562 -485.001c0 -87.333 -23.667 -155.166 -71 -203.499s-110.666 -74.833 -189.999 -79.5c-6 -9.33301 -9 -20 -9 -32c0 -19.333 8 -34.333 24 -45s35 -17 57 -19v-62c-38.667 3.33301 -71.834 15.833 -99.5 37.5
c-27.667 21.667 -41.5 47.5 -41.5 77.5c0 14.667 4 29 12 43c-80 6 -143.833 33 -191.5 81s-71.5 115.333 -71.5 202v485h92v-478c0 -68.667 19 -120.167 57 -154.5s86 -51.5 144 -51.5c59.333 0 107.333 15.833 144 47.5s55 80.167 55 145.5v491h89z" />
    <glyph glyph-name="uogonek" unicode="&#x173;" horiz-adv-x="589" 
d="M459 -50c0 -19.333 8.00098 -34.334 24.001 -45.001s35 -17 57 -19v-62c-38.667 3.33301 -71.834 15.833 -99.5 37.5c-27.667 21.667 -41.5 47.5 -41.5 77.5c0 25.333 9.66699 46 29 62v94c-36.667 -67.333 -95 -101 -175 -101c-54 0 -98 17 -132 51s-51 82 -51 144v353
h89v-338c0 -42.667 10.167 -75.167 30.5 -97.5s48.166 -33.5 83.499 -33.5c42 0 77.833 16.833 107.5 50.5s44.5 81.834 44.5 144.501v274h89v-542h-31c-16 -14 -24 -30.667 -24 -50z" />
    <glyph glyph-name="Wcircumflex" unicode="&#x174;" horiz-adv-x="983" 
d="M762 0h-90l-180 603l-181 -603h-90l-196 750h98l147 -608l179 608h90l179 -610l147 610h93zM491 922l-72 -90h-86l129 163h59l129 -163h-86z" />
    <glyph glyph-name="wcircumflex" unicode="&#x175;" horiz-adv-x="824" 
d="M631 0h-82l-137 412l-135 -412h-82l-180 542h93l129 -421l131 421h89l135 -424l127 424h90zM420 740l-72 -90h-86l129 163h59l129 -163h-86z" />
    <glyph glyph-name="Ycircumflex" unicode="&#x176;" horiz-adv-x="662" 
d="M378 0h-94v293l-264 457h109l206 -377l206 377h101l-264 -457v-293zM331 922l-72 -90h-86l129 163h59l129 -163h-86z" />
    <glyph glyph-name="ycircumflex" unicode="&#x177;" horiz-adv-x="506" 
d="M496 542l-242.998 -638.001c-20.667 -53.333 -65.667 -80 -135 -80h-60v79h39c27.333 0 47.666 3.83301 60.999 11.5s24.666 23.834 33.999 48.501l20 55l-202 524h94l151 -407l151 407h90zM252.002 739.999l-72 -90h-86l129 163h59l129 -163h-86z" />
    <glyph glyph-name="Zacute" unicode="&#x179;" horiz-adv-x="666" 
d="M626 0h-576v83l451 585h-439v82h549v-82l-447 -585h462v-83zM360 832h-73l121 188l73 -55z" />
    <glyph glyph-name="zacute" unicode="&#x17a;" horiz-adv-x="531" 
d="M481 0h-436v79l327 384h-315v79h424v-79l-328 -384h328v-79zM296 650h-73l121 188l73 -55z" />
    <glyph glyph-name="Zdotaccent" unicode="&#x17b;" horiz-adv-x="666" 
d="M626 0h-576v83l451 585h-439v82h549v-82l-447 -585h462v-83zM280 952h116v-120h-116v120z" />
    <glyph glyph-name="zdotaccent" unicode="&#x17c;" horiz-adv-x="531" 
d="M481 0h-436v79l327 384h-315v79h424v-79l-328 -384h328v-79zM219 770h116v-120h-116v120z" />
    <glyph glyph-name="longs" unicode="&#x17f;" horiz-adv-x="302" 
d="M322 683l-58.999 0.000976562c-28.667 0 -47.834 -6.33301 -57.501 -19s-14.5 -31.667 -14.5 -57v-607h-89v463h-87v79h87v70c0 57.333 13.667 96.666 41 117.999s64 32 110 32h69v-79z" />
    <glyph glyph-name="florin" unicode="&#x192;" horiz-adv-x="346" 
d="M336 683h-59c-28.667 0 -47.834 -6.33301 -57.501 -19s-14.5 -31.667 -14.5 -57v-65h117v-79h-117v-519c0 -57.333 -13.667 -96.666 -41 -117.999s-64 -32 -110 -32h-39v79h29c28.667 0 47.834 6.33301 57.501 19s14.5 31.667 14.5 57v514h-87v79h87v70
c0 57.333 13.667 96.666 41 117.999s64 32 110 32h69v-79z" />
    <glyph glyph-name="uni0218" unicode="&#x218;" horiz-adv-x="649" 
d="M228 -365l-9.00098 52c36.667 4 62.334 15.667 77.001 35s22 47 22 83h-53v115h121v-109c0 -59.333 -15.167 -103.333 -45.5 -132c-30.333 -28.666 -67.833 -43.333 -112.5 -44zM603.999 201c0 -68.667 -25.5 -122.503 -76.5 -161.503s-113.5 -58.5 -187.5 -58.5
c-79.333 0 -147.666 22.5 -204.999 67.5s-87.333 110.5 -90 196.5h99c0.666992 -58.667 20.334 -103.334 59.001 -134.001s85.667 -46 141 -46c48 0 87.333 11.333 118 34s46 53.334 46 92.001c0 22.667 -5 42.334 -15 59.001s-26.667 30.5 -50 41.5s-41.333 18.5 -54 22.5
s-34.334 9.33301 -65 16c-7.33301 2 -12.666 3.33301 -15.999 4c-27.333 6.66699 -50.333 12.834 -69 18.501s-39.334 14.334 -62.001 26.001s-40.834 24.5 -54.501 38.5s-25.334 32.333 -35.001 55s-14.5 48.334 -14.5 77.001c0 70.667 23.833 124.834 71.5 162.5
c47.667 37.667 108.167 56.5 181.5 56.5s134.5 -18.833 183.5 -56.5s74.833 -90.834 77.5 -159.501h-94c-1.33301 43.333 -17 76.333 -47 99s-69 34 -117 34s-87.5 -11.167 -118.5 -33.5c-31 -22.335 -46.5 -55.168 -46.5 -98.5c0 -18.667 3.5 -35 10.5 -49
s15.167 -25.5 24.5 -34.5s22.833 -17.167 40.5 -24.5s33.167 -12.833 46.5 -16.5c13.334 -3.66699 31.667 -8.16699 55 -13.5c79.333 -18 134.333 -35.333 165 -52c65.333 -35.333 98 -89.333 98 -162z" />
    <glyph glyph-name="uni0219" unicode="&#x219;" horiz-adv-x="525" 
d="M167 -365l-9.00098 52c36.667 4 62.334 15.667 77.001 35s22 47 22 83h-53v115h121v-109c0 -59.333 -15.167 -103.333 -45.5 -132c-30.333 -28.666 -67.833 -43.333 -112.5 -44zM282.999 308c66 -10 111.331 -20.998 135.998 -32.998
c47.333 -22.667 71 -61.334 71 -116.001s-21.167 -96.834 -63.5 -126.501s-94.166 -44.5 -155.499 -44.5c-64 0 -118.333 16 -163 48s-69 77.667 -73 137h92c4 -34.667 20.167 -61 48.5 -79s62.5 -27 102.5 -27c35.333 0 63.833 6.83301 85.5 20.5s32.5 33.5 32.5 59.5
c0 24 -9 41.167 -27 51.5s-43.667 18.166 -77 23.499c-3.33301 0.669922 -13.333 2.33691 -30 5c-16.667 2.66699 -27.667 4.5 -33 5.5s-15.833 3.16699 -31.5 6.5s-26.667 6.33301 -33 9c-6.33398 2.66699 -16.167 6.5 -29.5 11.5s-23 10.167 -29 15.5s-13.333 12 -22 20
s-15 16.333 -19 25s-7.66699 19 -11 31s-5 24.667 -5 38c0 52.667 19.333 93 58 121s88.334 42 149.001 42c61.333 0 113 -14.5 155 -43.5s63.333 -71.5 64 -127.5h-91c-0.666992 30 -13.167 52.833 -37.5 68.5s-54.5 23.5 -90.5 23.5c-33.333 0 -60.833 -6.66699 -82.5 -20
s-32.5 -33.333 -32.5 -60c0 -27.333 11.667 -46.666 35 -57.999s59 -20.333 107 -27z" />
    <glyph glyph-name="uni021A" unicode="&#x21a;" horiz-adv-x="632" 
d="M220 -365l-9.00098 52c36.667 4 62.334 15.667 77.001 35s22 47 22 83h-53v115h121v-109c0 -59.333 -15.167 -103.333 -45.5 -132c-30.333 -28.666 -67.833 -43.333 -112.5 -44zM616.999 668h-255v-668h-92v668h-255v82h602v-82z" />
    <glyph glyph-name="uni021B" unicode="&#x21b;" horiz-adv-x="358" 
d="M150 -365l-9.00098 52c36.667 4 62.334 15.667 77.001 35s22 47 22 83h-53v115h121v-109c0 -59.333 -15.167 -103.333 -45.5 -132c-30.333 -28.666 -67.833 -43.333 -112.5 -44zM337.999 0l-78 0.000976562c-46 0 -82.667 10.667 -110 32s-41 60.666 -41 117.999v313
h-104v79h104v145l89 25v-170h128v-79h-128v-308c0 -25.333 4.83301 -44.333 14.5 -57s28.834 -19 57.5 -19h68v-79z" />
    <glyph glyph-name="circumflex" unicode="&#x2c6;" horiz-adv-x="317" 
d="M158 740l-72 -90h-86l129 163h59l129 -163h-86z" />
    <glyph glyph-name="caron" unicode="&#x2c7;" horiz-adv-x="317" 
d="M159 723l72 90h86l-129 -163h-59l-129 163h86z" />
    <glyph glyph-name="uni02C9" unicode="&#x2c9;" horiz-adv-x="319" 
d="M0 832v67h319v-67h-319z" />
    <glyph glyph-name="breve" unicode="&#x2d8;" horiz-adv-x="230" 
d="M165 793l59 0.000976562c4 -12 6 -25.333 6 -40c0 -29.3359 -9.5 -54.6689 -28.5 -76c-19 -21.333 -47.833 -32 -86.5 -32s-67.5 10.667 -86.5 32s-28.5 46.666 -28.5 75.999c0 14.667 2 28 6 40h59c-3.33301 -10 -5 -20.333 -5 -31c0 -17.333 4.5 -31.833 13.5 -43.5
s22.833 -17.5 41.5 -17.5s32.5 5.83301 41.5 17.5s13.5 26.167 13.5 43.5c0 10.667 -1.66699 21 -5 31z" />
    <glyph glyph-name="dotaccent" unicode="&#x2d9;" horiz-adv-x="116" 
d="M0 770h116v-120h-116v120z" />
    <glyph glyph-name="ring" unicode="&#x2da;" horiz-adv-x="201" 
d="M150 746c0 14.667 -4.66699 26.834 -14 36.501s-21.333 14.5 -36 14.5s-26.5 -4.83301 -35.5 -14.5s-13.5 -21.834 -13.5 -36.501c0 -15.333 4.5 -28 13.5 -38s20.833 -15 35.5 -15s26.667 5 36 15s14 22.667 14 38zM0 746c0 29.333 9.33105 53.333 27.998 72
s42.334 28 71.001 28c30 0 54.5 -9.16699 73.5 -27.5s28.5 -42.5 28.5 -72.5c0 -29.333 -9.66699 -53.5 -29 -72.5s-43.666 -28.5 -72.999 -28.5c-28 0 -51.5 9.5 -70.5 28.5s-28.5 43.167 -28.5 72.5z" />
    <glyph glyph-name="ogonek" unicode="&#x2db;" horiz-adv-x="141" 
d="M141 -114l0.000976562 -62.001c-38.667 3.33301 -71.834 15.833 -99.501 37.5s-41.5 47.5 -41.5 77.5c0 30.667 12.667 53.334 38 68.001h55c-22 -16 -33 -35 -33 -57c0 -19.333 8 -34.333 24 -45s35 -17 57 -19z" />
    <glyph glyph-name="tilde" unicode="&#x2dc;" horiz-adv-x="317" 
d="M262 776l55.001 0.000976562c0 -42.667 -8.83301 -75.334 -26.5 -98.001s-38.5 -34 -62.5 -34c-18.667 0 -42 10.167 -70 30.5s-48 30.5 -60 30.5c-20.667 0 -34 -18.333 -40 -55h-58c2.66699 40.667 12.667 72.5 30 95.5s38.333 34.5 63 34.5
c19.333 0 42.833 -10.333 70.5 -31s47.167 -31 58.5 -31c21.333 0 34.666 19.333 39.999 58z" />
    <glyph glyph-name="hungarumlaut" unicode="&#x2dd;" horiz-adv-x="253" 
d="M198 650h-68l43 160h80zM68 650h-68l43 160h80z" />
    <glyph glyph-name="Delta" unicode="&#x394;" horiz-adv-x="742" 
d="M370 646l-245 -559h490zM712 0h-682v87l293 663h96l293 -663v-87z" />
    <glyph glyph-name="Omega" unicode="&#x3a9;" horiz-adv-x="806" 
d="M677 87l0.00195312 -86.999h-238v203c72 14 127.167 44.5 165.5 91.5s57.5 99.167 57.5 156.5c0 64 -23.167 119.333 -69.5 166s-109.5 70 -189.5 70s-143.167 -23.333 -189.5 -70s-69.5 -102 -69.5 -166c0 -57.333 19.167 -109.5 57.5 -156.5s93.5 -77.5 165.5 -91.5
v-203h-238v87h161v59c-41.333 11.333 -79.5 29.166 -114.5 53.499s-64.667 58.5 -89 102.5s-36.5 93.333 -36.5 148c0 68 16.667 126.667 50 176s76.166 85.333 128.499 108s110.5 34 174.5 34s122.167 -11.333 174.5 -34s95.166 -58.667 128.499 -108s50 -108 50 -176
c0 -54.667 -12.167 -104 -36.5 -148s-54 -78.167 -89 -102.5c-35 -24.334 -73.167 -42.167 -114.5 -53.5v-59h161z" />
    <glyph glyph-name="mu" unicode="&#x3bc;" horiz-adv-x="634" 
d="M584 0l-40 0.000976562c-59.333 0 -95.333 22.667 -108 68c-34.667 -53.333 -87.667 -80 -159 -80c-49.333 0 -87 13.667 -113 41v-235h-89v748h89v-336c0 -46.667 10.833 -82.334 32.5 -107.001s51.5 -37 89.5 -37c41.334 0 75.667 14.333 103 43s41 69 41 121v316h87
v-414c0 -38 16.667 -57 50 -57h17v-71z" />
    <glyph glyph-name="pi" unicode="&#x3c0;" horiz-adv-x="682" 
d="M652 588v-90.002c-34 -18.667 -85.667 -30.667 -155 -36v-315c0 -30 6.5 -50.167 19.5 -60.5s32.5 -15.5 58.5 -15.5h23v-71h-51c-13.333 0 -25 0.5 -35 1.5s-21.833 4.33301 -35.5 10s-25 13.334 -34 23.001s-16.667 23.834 -23 42.501s-9.5 41 -9.5 67v317h-154v-461
h-87v461h-139v81h384c110.667 0 190 15.333 238 46z" />
    <glyph glyph-name="uni1E02" unicode="&#x1e02;" horiz-adv-x="668" 
d="M176 82h194c50.667 0 89.667 13.5 117 40.5s41 59.167 41 96.5s-13.5 69.5 -40.5 96.5s-63.5 40.5 -109.5 40.5h-202v-274zM176 436l174.999 -0.000976562c45.333 0 81 12.333 107 37s39 53.334 39 86.001c0 30 -11.167 55.667 -33.5 77s-54.166 32 -95.499 32h-192v-232
zM476.999 405.999c47.333 -16 83.499 -41 108.499 -75s37.5 -72 37.5 -114c0 -58.667 -22.167 -109.667 -66.5 -153s-105.166 -65 -182.499 -65h-2l-287 1v750h302c65.333 0 115.5 -16.333 150.5 -49s52.5 -72.667 52.5 -120c0 -36 -9.83301 -70.167 -29.5 -102.5
s-47.5 -56.5 -83.5 -72.5zM250.998 951.999h116v-120h-116v120z" />
    <glyph glyph-name="uni1E03" unicode="&#x1e03;" horiz-adv-x="630" 
d="M332 67c55.334 0 97.167 19.832 125.5 59.499s42.5 88.5 42.5 146.5c0 56 -13.833 102.667 -41.5 140s-68.5 56 -122.5 56c-56 0 -98.5 -19.667 -127.5 -59s-43.5 -87.666 -43.5 -144.999c0 -56 14 -103 42 -141s69.667 -57 125 -57zM345 551.999
c78.667 0 139.166 -26.834 181.499 -80.501s63.5 -118.834 63.5 -195.5c0 -50 -8.66699 -96.167 -26 -138.5s-45.333 -77.833 -84 -106.5s-85 -43 -139 -43c-44 0 -81.333 9.83301 -112 29.5s-53.334 45.167 -68.001 76.5v-94h-86v762h89v-321
c14.667 32.667 37.334 59.334 68.001 80.001s68.334 31 113.001 31zM283.999 769.998h116v-120h-116v120z" />
    <glyph glyph-name="uni1E0A" unicode="&#x1e0a;" horiz-adv-x="740" 
d="M177 83h136c88.667 0 157.667 29.167 207 87.5s74 128.5 74 210.5c0 80.667 -24.333 148.667 -73 204s-117.334 83 -206 83h-138v-585zM85 750l235 -0.000976562c79.333 0 147.5 -17.167 204.5 -51.5s98.833 -78.5 125.5 -132.5s40 -114 40 -180
c0 -49.333 -8 -96.666 -24 -141.999s-39 -86.333 -69 -123s-69.5 -66 -118.5 -88s-103.833 -33 -164.5 -33h-229v750zM221 951.999h116v-120h-116v120z" />
    <glyph glyph-name="uni1E0B" unicode="&#x1e0b;" horiz-adv-x="631" 
d="M295 71c56 0 98.333 19.5 127 58.5s43 87.167 43 144.5c0 56 -14.333 103.167 -43 141.5s-70.667 57.5 -126 57.5c-54 0 -95 -19.333 -123 -58s-42 -86.667 -42 -144c0 -56.667 13.833 -104.167 41.5 -142.5s68.5 -57.5 122.5 -57.5zM556 0h-86.001v106
c-12.667 -34.667 -34.667 -63 -66 -85s-70.333 -33 -117 -33c-80 0 -141.167 27.667 -183.5 83s-63.5 121.666 -63.5 198.999c0 49.334 8.5 94.667 25.5 136s44.833 76 83.5 104s85 42 139 42c42.667 0 79.334 -9.16699 110.001 -27.5s53.667 -42.166 69 -71.499v309h89
v-762zM281.999 770h116v-120h-116v120z" />
    <glyph glyph-name="uni1E1E" unicode="&#x1e1e;" horiz-adv-x="587" 
d="M177 0h-92v750h482v-82h-390v-247h372v-83h-372v-338zM271 952h116v-120h-116v120z" />
    <glyph glyph-name="uni1E1F" unicode="&#x1e1f;" horiz-adv-x="332" 
d="M322 683l-58.999 0.000976562c-28.667 0 -47.834 -6.33301 -57.501 -19s-14.5 -31.667 -14.5 -57v-65h117v-79h-117v-463h-89v463h-87v79h87v70c0 57.333 13.667 96.666 41 117.999s64 32 110 32h69v-79zM211.001 952.001h116v-120h-116v120z" />
    <glyph glyph-name="uni1E40" unicode="&#x1e40;" horiz-adv-x="889" 
d="M804 0h-90v612l-236 -612h-70l-235 612v-612h-88v750h132l227 -596l229 596h131v-750zM387 952h116v-120h-116v120z" />
    <glyph glyph-name="uni1E41" unicode="&#x1e41;" horiz-adv-x="883" 
d="M638 552c50.667 0 92.501 -14.667 125.501 -44s49.5 -71.333 49.5 -126v-382h-89v353c0 38.667 -9.66699 68 -29 88s-45 30 -77 30c-39.333 0 -70.833 -15.5 -94.5 -46.5s-35.5 -74.833 -35.5 -131.5v-293h-88v353c0 38.667 -9.83301 68 -29.5 88s-45.167 30 -76.5 30
c-40 0 -71.667 -15.5 -95 -46.5s-35 -74.5 -35 -130.5v-294h-89v542h87v-88c28 65.333 77.333 98 148 98c39.334 0 73.167 -10.833 101.5 -32.5s46.166 -49.167 53.499 -82.5c30 76.667 87.667 115 173 115zM403.001 770h116v-120h-116v120z" />
    <glyph glyph-name="uni1E56" unicode="&#x1e56;" horiz-adv-x="630" 
d="M175 393h183c47.333 0 83.833 14 109.5 42s38.5 61 38.5 99c0 36.667 -12.833 68.167 -38.5 94.5s-61.167 39.5 -106.5 39.5h-186v-275zM85 750h285c72 0 128.333 -20.5 169 -61.5s61 -89.833 61 -146.5c0 -62 -21.167 -116 -63.5 -162s-101.833 -69 -178.5 -69h-183
v-311h-90v750zM231 952h116v-120h-116v120z" />
    <glyph glyph-name="uni1E57" unicode="&#x1e57;" horiz-adv-x="630" 
d="M332 75c47.333 0 87 16.333 119 49s48 82 48 148s-15.5 115.333 -46.5 148s-70.167 49 -117.5 49s-87.166 -16.333 -119.499 -49s-48.5 -82 -48.5 -148s15.667 -115.333 47 -148s70.666 -49 117.999 -49zM343 552c31.333 0 61.3301 -5.33301 89.9971 -16
s54.834 -26.667 78.501 -48s42.667 -50.333 57 -87s21.5 -79 21.5 -127c0 -91.333 -24.833 -160.5 -74.5 -207.5s-108.167 -70.5 -175.5 -70.5c-41.333 0 -77.166 8.5 -107.499 25.5s-53.166 40.167 -68.499 69.5v-297h-89v748h86v-108c12.667 34.667 34.5 63 65.5 85
s69.833 33 116.5 33zM281.997 770h116v-120h-116v120z" />
    <glyph glyph-name="uni1E60" unicode="&#x1e60;" horiz-adv-x="649" 
d="M604 201c0 -68.667 -25.5 -122.503 -76.5 -161.503s-113.5 -58.5 -187.5 -58.5c-79.333 0 -147.666 22.5 -204.999 67.5s-87.333 110.5 -90 196.5h99c0.666992 -58.667 20.334 -103.334 59.001 -134.001s85.667 -46 141 -46c48 0 87.333 11.333 118 34
s46 53.334 46 92.001c0 22.667 -5 42.334 -15 59.001s-26.667 30.5 -50 41.5s-41.333 18.5 -54 22.5s-34.334 9.33301 -65 16c-7.33301 2 -12.666 3.33301 -15.999 4c-27.333 6.66699 -50.333 12.834 -69 18.501s-39.334 14.334 -62.001 26.001s-40.834 24.5 -54.501 38.5
s-25.334 32.333 -35.001 55s-14.5 48.334 -14.5 77.001c0 70.667 23.833 124.834 71.5 162.5c47.667 37.667 108.167 56.5 181.5 56.5s134.5 -18.833 183.5 -56.5s74.833 -90.834 77.5 -159.501h-94c-1.33301 43.333 -17 76.333 -47 99s-69 34 -117 34
s-87.5 -11.167 -118.5 -33.5c-31 -22.335 -46.5 -55.168 -46.5 -98.5c0 -18.667 3.5 -35 10.5 -49s15.167 -25.5 24.5 -34.5s22.833 -17.167 40.5 -24.5s33.167 -12.833 46.5 -16.5c13.334 -3.66699 31.667 -8.16699 55 -13.5c79.333 -18 134.333 -35.333 165 -52
c65.333 -35.333 98 -89.333 98 -162zM258 951.997h116v-120h-116v120z" />
    <glyph glyph-name="uni1E61" unicode="&#x1e61;" horiz-adv-x="525" 
d="M283 308c66 -10 111.331 -20.998 135.998 -32.998c47.333 -22.667 71 -61.334 71 -116.001s-21.167 -96.834 -63.5 -126.501s-94.166 -44.5 -155.499 -44.5c-64 0 -118.333 16 -163 48s-69 77.667 -73 137h92c4 -34.667 20.167 -61 48.5 -79s62.5 -27 102.5 -27
c35.333 0 63.833 6.83301 85.5 20.5s32.5 33.5 32.5 59.5c0 24 -9 41.167 -27 51.5s-43.667 18.166 -77 23.499c-3.33301 0.669922 -13.333 2.33691 -30 5c-16.667 2.66699 -27.667 4.5 -33 5.5s-15.833 3.16699 -31.5 6.5s-26.667 6.33301 -33 9
c-6.33398 2.66699 -16.167 6.5 -29.5 11.5s-23 10.167 -29 15.5s-13.333 12 -22 20s-15 16.333 -19 25s-7.66699 19 -11 31s-5 24.667 -5 38c0 52.667 19.333 93 58 121s88.334 42 149.001 42c61.333 0 113 -14.5 155 -43.5s63.333 -71.5 64 -127.5h-91
c-0.666992 30 -13.167 52.833 -37.5 68.5s-54.5 23.5 -90.5 23.5c-33.333 0 -60.833 -6.66699 -82.5 -20s-32.5 -33.333 -32.5 -60c0 -27.333 11.667 -46.666 35 -57.999s59 -20.333 107 -27zM217.998 770.002h116v-120h-116v120z" />
    <glyph glyph-name="uni1E6A" unicode="&#x1e6a;" horiz-adv-x="632" 
d="M617 668h-255v-668h-92v668h-255v82h602v-82zM258 952h116v-120h-116v120z" />
    <glyph glyph-name="uni1E6B" unicode="&#x1e6b;" horiz-adv-x="358" 
d="M338 0l-78 0.000976562c-46 0 -82.667 10.667 -110 32s-41 60.666 -41 117.999v313h-104v79h104v145l89 25v-170h128v-79h-128v-308c0 -25.333 4.83301 -44.333 14.5 -57s28.834 -19 57.5 -19h68v-79zM100 870.001h116v-120h-116v120z" />
    <glyph glyph-name="Wgrave" unicode="&#x1e80;" horiz-adv-x="983" 
d="M762 0h-90l-180 603l-181 -603h-90l-196 750h98l147 -608l179 608h90l179 -610l147 610h93zM402 1020l121 -188h-73l-121 133z" />
    <glyph glyph-name="wgrave" unicode="&#x1e81;" horiz-adv-x="824" 
d="M631 0h-82l-137 412l-135 -412h-82l-180 542h93l129 -421l131 421h89l135 -424l127 424h90zM339 838l121 -188h-73l-121 133z" />
    <glyph glyph-name="Wacute" unicode="&#x1e82;" horiz-adv-x="983" 
d="M762 0h-90l-180 603l-181 -603h-90l-196 750h98l147 -608l179 608h90l179 -610l147 610h93zM534 832h-73l121 188l73 -55z" />
    <glyph glyph-name="wacute" unicode="&#x1e83;" horiz-adv-x="824" 
d="M631 0h-82l-137 412l-135 -412h-82l-180 542h93l129 -421l131 421h89l135 -424l127 424h90zM446 650h-73l121 188l73 -55z" />
    <glyph glyph-name="Wdieresis" unicode="&#x1e84;" horiz-adv-x="983" 
d="M762 0h-90l-180 603l-181 -603h-90l-196 750h98l147 -608l179 608h90l179 -610l147 610h93zM638 937v-105h-93v105h93zM439 937v-105h-93v105h93z" />
    <glyph glyph-name="wdieresis" unicode="&#x1e85;" horiz-adv-x="824" 
d="M631 0h-82l-137 412l-135 -412h-82l-180 542h93l129 -421l131 421h89l135 -424l127 424h90zM566 755v-105h-93v105h93zM367 755v-105h-93v105h93z" />
    <glyph glyph-name="Ygrave" unicode="&#x1ef2;" horiz-adv-x="662" 
d="M378 0h-94v293l-264 457h109l206 -377l206 377h101l-264 -457v-293zM269 1020l121 -188h-73l-121 133z" />
    <glyph glyph-name="ygrave" unicode="&#x1ef3;" horiz-adv-x="506" 
d="M496 542l-242.998 -638.001c-20.667 -53.333 -65.667 -80 -135 -80h-60v79h39c27.333 0 47.666 3.83301 60.999 11.5s24.666 23.834 33.999 48.501l20 55l-202 524h94l151 -407l151 407h90zM179.002 837.999l121 -188h-73l-121 133z" />
    <glyph glyph-name="endash" unicode="&#x2013;" 
d="M50 246v79h500v-79h-500z" />
    <glyph glyph-name="emdash" unicode="&#x2014;" horiz-adv-x="1100" 
d="M50 246v79h1000v-79h-1000z" />
    <glyph glyph-name="quoteleft" unicode="&#x2018;" horiz-adv-x="237" 
d="M198 785l9.00098 -52.001c-36.667 -4 -62.334 -15.667 -77.001 -35s-22 -47 -22 -83h53v-115h-121v109c0 59.333 15.167 103.333 45.5 132c30.333 28.6699 67.833 43.3369 112.5 44.001z" />
    <glyph glyph-name="quoteright" unicode="&#x2019;" horiz-adv-x="237" 
d="M39 477l-9.00098 52.001c36.667 4 62.334 15.667 77.001 35s22 47 22 83h-53v115h121v-109c0 -59.333 -15.167 -103.333 -45.5 -132c-30.333 -28.668 -67.833 -43.335 -112.5 -44.001z" />
    <glyph glyph-name="quotesinglbase" unicode="&#x201a;" horiz-adv-x="237" 
d="M39 -165l-9.00098 52.001c36.667 4 62.334 15.667 77.001 35s22 47 22 83h-53v115h121v-109c0 -59.333 -15.167 -103.333 -45.5 -132s-67.833 -43.334 -112.5 -44.001z" />
    <glyph glyph-name="quotedblleft" unicode="&#x201c;" horiz-adv-x="447" 
d="M408 785l9 -52.001c-36.667 -4 -62.334 -15.667 -77 -35c-14.667 -19.333 -22 -47 -22 -83h53v-115h-121v109c0 59.333 15.167 103.333 45.5 132c30.333 28.6699 67.833 43.3369 112.5 44.001zM198 784.999l9.00098 -52.001c-36.667 -4 -62.334 -15.667 -77.001 -35
s-22 -47 -22 -83h53v-115h-121v109c0 59.333 15.167 103.333 45.5 132c30.333 28.6699 67.833 43.3369 112.5 44.001z" />
    <glyph glyph-name="quotedblright" unicode="&#x201d;" horiz-adv-x="447" 
d="M249 477l-9.00098 52.001c36.667 4 62.334 15.667 77.001 35s22 47 22 83h-53v115h121v-109c0 -59.333 -15.167 -103.333 -45.5 -132c-30.333 -28.668 -67.833 -43.335 -112.5 -44.001zM38.999 477.001l-9.00098 52.001c36.667 4 62.334 15.667 77.001 35s22 47 22 83
h-53v115h121v-109c0 -59.333 -15.167 -103.333 -45.5 -132c-30.333 -28.668 -67.833 -43.335 -112.5 -44.001z" />
    <glyph glyph-name="quotedblbase" unicode="&#x201e;" horiz-adv-x="447" 
d="M249 -165l-9.00098 52.001c36.667 4 62.334 15.667 77.001 35s22 47 22 83h-53v115h121v-109c0 -59.333 -15.167 -103.333 -45.5 -132s-67.833 -43.334 -112.5 -44.001zM38.999 -164.999l-9.00098 52.001c36.667 4 62.334 15.667 77.001 35s22 47 22 83h-53v115h121v-109
c0 -59.333 -15.167 -103.333 -45.5 -132s-67.833 -43.334 -112.5 -44.001z" />
    <glyph glyph-name="dagger" unicode="&#x2020;" horiz-adv-x="538" 
d="M50 444v77h179v229h80v-229h179v-77h-179v-544h-80v544h-179z" />
    <glyph glyph-name="daggerdbl" unicode="&#x2021;" horiz-adv-x="538" 
d="M309 176h179v-77h-179v-199h-80v199h-179v77h179v298h-179v77h179v199h80v-199h179v-77h-179v-298z" />
    <glyph glyph-name="bullet" unicode="&#x2022;" horiz-adv-x="244" 
d="M50 374h144v-148h-144v148z" />
    <glyph glyph-name="ellipsis" unicode="&#x2026;" horiz-adv-x="996" 
d="M772 120h116v-120h-116v120zM440 120h116v-120h-116v120zM108 120h116v-120h-116v120z" />
    <glyph glyph-name="perthousand" unicode="&#x2030;" horiz-adv-x="1340" 
d="M1222 163c0 32 -10 58.501 -30 79.501s-45 31.5 -75 31.5c-30.667 0 -55.667 -10.333 -75 -31s-29 -47.334 -29 -80.001c0 -33.333 9.66699 -60.5 29 -81.5s44.333 -31.5 75 -31.5c30 0 55 10.667 75 32s30 48.333 30 81zM810 163.001c0 32 -10 58.501 -30 79.501
s-45 31.5 -75 31.5c-30.667 0 -55.667 -10.333 -75 -31s-29 -47.334 -29 -80.001c0 -33.333 9.66699 -60.5 29 -81.5s44.333 -31.5 75 -31.5c30 0 55 10.667 75 32s30 48.333 30 81zM935 162.002c0 53.333 17.333 96.998 52 130.998s77.334 51 128.001 51
c53.333 0 97.5 -16.833 132.5 -50.5s52.5 -77.5 52.5 -131.5c0 -53.333 -17.667 -97.166 -53 -131.499s-79.333 -51.5 -132 -51.5c-50.667 0 -93.334 17.333 -128.001 52s-52 78.334 -52 131.001zM523 162c0 53.333 17.334 96.998 52.001 130.998
c34.668 34 77.335 51 128 51c53.333 0 97.5 -16.833 132.5 -50.5s52.5 -77.5 52.5 -131.5c0 -53.333 -17.667 -97.166 -53 -131.499s-79.333 -51.5 -132 -51.5c-50.667 0 -93.334 17.333 -128.001 52s-52 78.334 -52 131.001zM327.001 585.998c0 32 -10 58.501 -30 79.501
s-45 31.5 -75 31.5c-30.667 0 -55.667 -10.333 -75 -31s-29 -47.334 -29 -80.001c0 -33.333 9.66699 -60.5 29 -81.5s44.333 -31.5 75 -31.5c30 0 55 10.667 75 32s30 48.333 30 81zM253.001 -0.000976562h-66l477 750h66zM40.001 584.999
c0 53.333 17.333 96.998 52 130.998s77.334 51 128.001 51c53.333 0 97.5 -16.833 132.5 -50.5s52.5 -77.5 52.5 -131.5c0 -53.333 -17.667 -97.166 -53 -131.499s-79.333 -51.5 -132 -51.5c-50.667 0 -93.334 17.333 -128.001 52s-52 78.334 -52 131.001z" />
    <glyph glyph-name="guilsinglleft" unicode="&#x2039;" horiz-adv-x="306" 
d="M266 146l-59 -54l-187 212l187 212l59 -54l-139 -158z" />
    <glyph glyph-name="guilsinglright" unicode="&#x203a;" horiz-adv-x="306" 
d="M40 462l59 54l187 -212l-187 -212l-59 54l139 158z" />
    <glyph glyph-name="fraction" unicode="&#x2044;" horiz-adv-x="663" 
d="M126 0h-66l477 750h66z" />
    <glyph glyph-name="uni2113" unicode="&#x2113;" horiz-adv-x="445" 
d="M215 498l38 21c76 42 114 87.333 114 136c0 20 -5 34.667 -15 44s-21.667 14 -35 14c-15.333 0 -29.5 -7 -42.5 -21s-22.167 -33 -27.5 -57zM203 441l-72.999 -317c-2.66699 -10 -4 -19.667 -4 -29c0 -26.667 11.333 -40 34 -40c18 0 39.5 8.83301 64.5 26.5
s48.167 41.167 69.5 70.5l23 -20c-61.333 -96 -126 -144 -194 -144c-26.667 0 -47.667 8 -63 24s-23 38 -23 66c0 16.667 2.33301 34.334 7 53.001l64 275l-88 -46l13 56l86 44l32 137c13.333 55.333 35.666 96.666 66.999 123.999s65 41 101 41
c28 0 52.667 -7.83301 74 -23.5s32 -39.167 32 -70.5c0 -30.667 -11.5 -62 -34.5 -94s-56.833 -60.333 -101.5 -85z" />
    <glyph glyph-name="afii61352" unicode="&#x2116;" horiz-adv-x="1195" 
d="M1077 598c0 32 -10 58.501 -30 79.501s-45 31.5 -75 31.5c-30.667 0 -55.667 -10.333 -75 -31s-29 -47.334 -29 -80.001c0 -33.333 9.66699 -60.5 29 -81.5s44.333 -31.5 75 -31.5c30 0 55 10.667 75 32s30 48.333 30 81zM656 0.000976562h-95l-387 609v-609h-89v750h110
l372 -593v593h89v-750zM790 597.001c0 53.333 17.334 96.998 52.001 130.998s77.334 51 128 51c53.333 0 97.5 -16.833 132.5 -50.5s52.5 -77.5 52.5 -131.5c0 -53.333 -17.667 -97.166 -53 -131.499s-79.333 -51.5 -132 -51.5c-50.667 0 -93.334 17.333 -128.001 52
s-52 78.334 -52 131.001z" />
    <glyph glyph-name="trademark" unicode="&#x2122;" horiz-adv-x="731" 
d="M701 390h-55v253l-96 -253h-52l-96 253v-253h-53v312h92l84 -233l84 233h92v-312zM317 702v-51h-116v-261h-55v261h-116v51h287z" />
    <glyph glyph-name="estimated" unicode="&#x212e;" horiz-adv-x="510" 
d="M379 293l-0.000976562 120c-27.333 37.333 -66 56 -116 56c-29.333 0 -56.666 -6.83301 -81.999 -20.5s-45.333 -32.5 -60 -56.5v-99h258zM269.999 31c84 0 133.667 40 149 120h46c-7.33301 -53.333 -29.5 -93.833 -66.5 -121.5s-81.167 -41.5 -132.5 -41.5
c-64.667 0 -118.5 21.667 -161.5 65s-64.5 108 -64.5 194s21.333 151.667 64 197s95.667 68 159 68c58 0 107 -18.5 147 -55.5s60 -89.833 60 -158.5c0 -22.667 -1 -40 -3 -52h-346v-129c30 -57.333 79.667 -86 149 -86z" />
    <glyph glyph-name="onethird" unicode="&#x2153;" horiz-adv-x="1000" 
d="M890 245c24 -10 42.668 -24.668 56.001 -44.001s20 -40.333 20 -63c0 -35.333 -13.833 -66.666 -41.5 -93.999s-65.834 -41 -114.501 -41c-46.667 0 -86.5 13.167 -119.5 39.5s-49.5 63.166 -49.5 110.499h65c0 -30 10 -53.167 30 -69.5s45 -24.5 75 -24.5
c28.668 0 50.835 7.33301 66.5 22c15.667 14.667 23.5 32.334 23.5 53.001c0 21.333 -9.33301 39.166 -28 53.499s-45.667 21.5 -81 21.5h-19v57h17c32.667 0 57.834 6.83301 75.5 20.5c17.667 13.667 26.5 31.834 26.5 54.501c0 20 -7.83301 36.333 -23.5 49
s-35.5 19 -59.5 19c-66 0 -99 -37.333 -99 -112h-64c0 55.333 15.5 97 46.5 125s71.167 42 120.5 42c40.668 0 74.835 -10.5 102.5 -31.5c27.667 -21 41.5 -49.167 41.5 -84.5c0 -52 -22.333 -86.333 -67 -103zM326.001 351.999l-0.000976562 -58h-264v58h100v311
c-30 -22 -65.333 -36 -106 -42v63c44.667 8.66699 82.334 28.667 113.001 60h57v-392h100zM305 -0.000976562h-66l477 750h66z" />
    <glyph glyph-name="twothirds" unicode="&#x2154;" horiz-adv-x="1000" 
d="M899 245c24 -10 42.668 -24.668 56.001 -44.001s20 -40.333 20 -63c0 -35.333 -13.833 -66.666 -41.5 -93.999s-65.834 -41 -114.501 -41c-46.667 0 -86.5 13.167 -119.5 39.5s-49.5 63.166 -49.5 110.499h65c0 -30 10 -53.167 30 -69.5s45 -24.5 75 -24.5
c28.6699 0 50.8369 7.33301 66.5 22c15.667 14.667 23.5 32.334 23.5 53.001c0 21.333 -9.33301 39.166 -28 53.499s-45.667 21.5 -81 21.5h-19v57h17c32.668 0 57.835 6.83301 75.5 20.5c17.667 13.667 26.5 31.834 26.5 54.501c0 20 -7.83301 36.333 -23.5 49
s-35.5 19 -59.5 19c-66 0 -99 -37.333 -99 -112h-64c0 55.333 15.5 97 46.5 125s71.167 42 120.5 42c40.668 0 74.835 -10.5 102.5 -31.5c27.667 -21 41.5 -49.167 41.5 -84.5c0 -52 -22.333 -86.333 -67 -103zM319.001 -0.000976562h-66l477 750h66zM356.001 294.999h-322
v56l110 93c52.667 45.333 86 77 100 95c18.667 24.667 28 49 28 73s-7.83301 42.833 -23.5 56.5s-35.167 20.5 -58.5 20.5c-26.667 0 -49.167 -9.16699 -67.5 -27.5s-27.5 -44.5 -27.5 -78.5h-66c0 52 16.5 92.833 49.5 122.5s71.167 44.5 114.5 44.5
c38.667 0 73 -12 103 -36s45 -56.333 45 -97c0 -24 -6.83301 -48 -20.5 -72s-28.5 -44 -44.5 -60s-40.667 -38.667 -74 -68l-72 -63h226v-59z" />
    <glyph glyph-name="onefifth" unicode="&#x2155;" horiz-adv-x="1000" 
d="M802 299c46 0 81.5 -14 106.5 -42s37.5 -61.667 37.5 -101c0 -41.333 -14.333 -77.5 -43 -108.5s-68 -46.5 -118 -46.5c-44 0 -81.833 13.333 -113.5 40s-47.5 63 -47.5 109h65c0 -30 8.83301 -53.167 26.5 -69.5s40.5 -24.5 68.5 -24.5c31.333 0 55.833 9.5 73.5 28.5
s26.5 41.167 26.5 66.5c0 24 -8.66699 44.667 -26 62s-41.333 26 -72 26c-31.333 0 -60 -11.333 -86 -34h-58l41 254h234v-58h-184l-19 -125c26.667 15.333 56 23 88 23zM342 352l-0.000976562 -58h-264v58h100v311c-30 -22 -65.333 -36 -106 -42v63
c44.667 8.66699 82.334 28.667 113.001 60h57v-392h100zM320.999 0h-66l477 750h66z" />
    <glyph glyph-name="twofifths" unicode="&#x2156;" horiz-adv-x="1000" 
d="M814 299c46 0 81.5 -14 106.5 -42s37.5 -61.667 37.5 -101c0 -41.333 -14.333 -77.5 -43 -108.5s-68 -46.5 -118 -46.5c-44 0 -81.833 13.333 -113.5 40s-47.5 63 -47.5 109h65c0 -30 8.83301 -53.167 26.5 -69.5s40.5 -24.5 68.5 -24.5c31.333 0 55.833 9.5 73.5 28.5
s26.5 41.167 26.5 66.5c0 24 -8.66699 44.667 -26 62s-41.333 26 -72 26c-31.333 0 -60 -11.333 -86 -34h-58l41 254h234v-58h-184l-19 -125c26.667 15.333 56 23 88 23zM333 0h-66l477 750h66zM370 295h-322v56l110 93c52.667 45.333 86 77 100 95
c18.667 24.667 28 49 28 73s-7.83301 42.833 -23.5 56.5s-35.167 20.5 -58.5 20.5c-26.667 0 -49.167 -9.16699 -67.5 -27.5s-27.5 -44.5 -27.5 -78.5h-66c0 52 16.5 92.833 49.5 122.5s71.167 44.5 114.5 44.5c38.667 0 73 -12 103 -36s45 -56.333 45 -97
c0 -24 -6.83301 -48 -20.5 -72s-28.5 -44 -44.5 -60s-40.667 -38.667 -74 -68l-72 -63h226v-59z" />
    <glyph glyph-name="threefifths" unicode="&#x2157;" horiz-adv-x="1000" 
d="M799 299c46 0 81.5 -14 106.5 -42s37.5 -61.667 37.5 -101c0 -41.333 -14.333 -77.5 -43 -108.5s-68 -46.5 -118 -46.5c-44 0 -81.833 13.333 -113.5 40s-47.5 63 -47.5 109h65c0 -30 8.83301 -53.167 26.5 -69.5s40.5 -24.5 68.5 -24.5c31.333 0 55.833 9.5 73.5 28.5
s26.5 41.167 26.5 66.5c0 24 -8.66699 44.667 -26 62s-41.333 26 -72 26c-31.333 0 -60 -11.333 -86 -34h-58l41 254h234v-58h-184l-19 -125c26.667 15.333 56 23 88 23zM318 0h-66l477 750h66zM303 531c24 -10 42.665 -24.668 55.998 -44.001s20 -40.333 20 -63
c0 -35.333 -13.833 -66.666 -41.5 -93.999s-65.834 -41 -114.501 -41c-46.667 0 -86.5 13.167 -119.5 39.5c-33 26.334 -49.5 63.167 -49.5 110.5h65c0 -30 10 -53.167 30 -69.5s45 -24.5 75 -24.5c28.667 0 50.834 7.33301 66.501 22s23.5 32.334 23.5 53.001
c0 21.334 -9.33301 39.167 -28 53.499c-18.667 14.333 -45.667 21.5 -81 21.5h-19v57h17c32.667 0 57.834 6.83301 75.501 20.5c17.667 13.6689 26.5 31.8359 26.5 54.5c0 20 -7.83301 36.333 -23.5 49s-35.5 19 -59.5 19c-66 0 -99 -37.333 -99 -112h-64
c0 55.333 15.5 97 46.5 125s71.167 42 120.5 42c40.667 0 74.834 -10.5 102.501 -31.5s41.5 -49.167 41.5 -84.5c0 -52 -22.333 -86.333 -67 -103z" />
    <glyph glyph-name="fourfifths" unicode="&#x2158;" horiz-adv-x="1000" 
d="M832 299c46 0 81.5 -14 106.5 -42s37.5 -61.667 37.5 -101c0 -41.333 -14.333 -77.5 -43 -108.5s-68 -46.5 -118 -46.5c-44 0 -81.833 13.333 -113.5 40s-47.5 63 -47.5 109h65c0 -30 8.83301 -53.167 26.5 -69.5s40.5 -24.5 68.5 -24.5c31.333 0 55.833 9.5 73.5 28.5
s26.5 41.167 26.5 66.5c0 24 -8.66699 44.667 -26 62s-41.333 26 -72 26c-31.333 0 -60 -11.333 -86 -34h-58l41 254h234v-58h-184l-19 -125c26.667 15.333 56 23 88 23zM250 453v209l-146 -209h146zM314 393v-98h-64v99h-218v56l206 295h76v-292h84v-60h-84zM351 0h-66
l477 750h66z" />
    <glyph glyph-name="onesixth" unicode="&#x2159;" horiz-adv-x="1000" 
d="M898 151c0 30 -9.5 53.333 -28.5 70s-41.833 25 -68.5 25s-49.5 -8 -68.5 -24s-28.5 -39 -28.5 -69c0 -29.333 9.83301 -51.833 29.5 -67.5s43.167 -23.5 70.5 -23.5c26.667 0 49 7.83301 67 23.5s27 37.5 27 65.5zM812 307c40 0 75.168 -13.499 105.501 -40.499
s45.5 -63.5 45.5 -109.5c0 -44.667 -15.5 -81.5 -46.5 -110.5s-68.5 -43.5 -112.5 -43.5c-48 0 -89.833 18.667 -125.5 56s-53.5 94.666 -53.5 171.999c0 76.667 17.333 134.667 52 174s77.667 59 129 59c41.333 0 76 -12.167 104 -36.5s41.333 -54.833 40 -91.5h-66v5
c0 19.334 -7.33301 35.167 -22 47.5s-33.334 18.5 -56.001 18.5c-32.667 0 -60.167 -13 -82.5 -39s-34.833 -66.333 -37.5 -121c30.667 40 72.667 60 126 60zM325.001 352.001l-0.000976562 -58h-264v58h100v311c-30 -22 -65.333 -36 -106 -42v63
c44.667 8.66699 82.334 28.667 113.001 60h57v-392h100zM304 0.000976562h-66l477 750h66z" />
    <glyph glyph-name="fivesixths" unicode="&#x215a;" horiz-adv-x="1000" 
d="M893 151c0 30 -9.5 53.333 -28.5 70s-41.833 25 -68.5 25s-49.5 -8 -68.5 -24s-28.5 -39 -28.5 -69c0 -29.333 9.83301 -51.833 29.5 -67.5s43.167 -23.5 70.5 -23.5c26.667 0 49 7.83301 67 23.5s27 37.5 27 65.5zM807 307c40 0 75.168 -13.499 105.501 -40.499
s45.5 -63.5 45.5 -109.5c0 -44.667 -15.5 -81.5 -46.5 -110.5s-68.5 -43.5 -112.5 -43.5c-48 0 -89.833 18.667 -125.5 56s-53.5 94.666 -53.5 171.999c0 76.667 17.333 134.667 52 174s77.667 59 129 59c41.333 0 76 -12.167 104 -36.5s41.333 -54.833 40 -91.5h-66v5
c0 19.334 -7.33301 35.167 -22 47.5s-33.334 18.5 -56.001 18.5c-32.667 0 -60.167 -13 -82.5 -39s-34.833 -66.333 -37.5 -121c31.333 40 73.333 60 126 60zM220.001 585.001c46 0 81.5 -14 106.5 -42s37.5 -61.667 37.5 -101c0 -41.333 -14.333 -77.5 -43 -108.5
s-68 -46.5 -118 -46.5c-44 0 -81.833 13.333 -113.5 40s-47.5 63 -47.5 109h65c0 -30 8.83301 -53.167 26.5 -69.5s40.5 -24.5 68.5 -24.5c31.333 0 55.833 9.5 73.5 28.5s26.5 41.167 26.5 66.5c0 24 -8.66699 44.667 -26 62s-41.333 26 -72 26
c-31.333 0 -60 -11.333 -86 -34h-58l41 254h234v-58h-184l-19 -125c26.667 15.333 56 23 88 23zM299.001 0.000976562h-66l477 750h66z" />
    <glyph glyph-name="oneeighth" unicode="&#x215b;" horiz-adv-x="1000" 
d="M802 58c32 0 55.499 6.66797 70.499 20.001s22.5 31 22.5 53c0 23.333 -7.83301 42.333 -23.5 57s-39.167 22 -70.5 22c-31.3359 0 -54.6689 -7.33301 -69.999 -22c-15.333 -14.667 -23 -33.334 -23 -56.001c0 -49.333 31.333 -74 94 -74zM714.999 343.001
c0 -21.333 7.33203 -38.334 21.999 -51.001c14.6699 -12.667 36.3369 -19 65.001 -19c28.667 0 50.167 6.33301 64.5 19s21.5 29.334 21.5 50.001c0 20 -7 36.667 -21 50s-36 20 -66 20c-30.667 0 -52.667 -6.5 -66 -19.5s-20 -29.5 -20 -49.5zM882.998 241
c24 -10 42.833 -25.334 56.5 -46.001s20.5 -44.667 20.5 -72c0 -39.333 -14.5 -69.5 -43.5 -90.5s-67.167 -31.5 -114.5 -31.5s-85.833 10.5 -115.5 31.5s-44.5 51.5 -44.5 91.5c0 26.667 7 50.334 21 71.001s33 36 57 46c-44 24 -66 58.667 -66 104
c0 38.667 14.167 68.167 42.5 88.5s62.833 30.5 103.5 30.5c41.333 0 76.333 -10.333 105 -31s43 -50.334 43 -89c0 -46 -21.667 -80.333 -65 -103zM317.998 351.999l-0.000976562 -58h-264v58h100v311c-30 -22 -65.333 -36 -106 -42v63
c44.667 8.66699 82.334 28.667 113.001 60h57v-392h100zM296.997 -0.000976562h-66l477 750h66z" />
    <glyph glyph-name="threeeighths" unicode="&#x215c;" horiz-adv-x="1000" 
d="M788 58c32 0 55.499 6.66797 70.499 20.001s22.5 31 22.5 53c0 23.333 -7.83301 42.333 -23.5 57s-39.167 22 -70.5 22c-31.3359 0 -54.6689 -7.33301 -69.999 -22c-15.333 -14.667 -23 -33.334 -23 -56.001c0 -49.333 31.333 -74 94 -74zM700.999 343.001
c0 -21.333 7.33203 -38.334 21.999 -51.001c14.6699 -12.667 36.3369 -19 65.001 -19c28.667 0 50.167 6.33301 64.5 19s21.5 29.334 21.5 50.001c0 20 -7 36.667 -21 50s-36 20 -66 20c-30.667 0 -52.667 -6.5 -66 -19.5s-20 -29.5 -20 -49.5zM868.998 241
c24 -10 42.833 -25.334 56.5 -46.001s20.5 -44.667 20.5 -72c0 -39.333 -14.5 -69.5 -43.5 -90.5s-67.167 -31.5 -114.5 -31.5s-85.833 10.5 -115.5 31.5s-44.5 51.5 -44.5 91.5c0 26.667 7 50.334 21 71.001s33 36 57 46c-44 24 -66 58.667 -66 104
c0 38.667 14.167 68.167 42.5 88.5s62.833 30.5 103.5 30.5c41.333 0 76.333 -10.333 105 -31s43 -50.334 43 -89c0 -46 -21.667 -80.333 -65 -103zM282.998 -0.000976562h-66l477 750h66zM288.998 530.999c24 -10 42.665 -24.668 55.998 -44.001s20 -40.333 20 -63
c0 -35.333 -13.833 -66.666 -41.5 -93.999s-65.834 -41 -114.5 -41c-46.667 0 -86.5 13.167 -119.5 39.5c-33 26.334 -49.5 63.167 -49.5 110.5h65c0 -30 10 -53.167 30 -69.5s45 -24.5 75 -24.5c28.667 0 50.834 7.33301 66.501 22s23.5 32.334 23.5 53.001
c0 21.334 -9.33301 39.167 -28 53.499c-18.667 14.333 -45.667 21.5 -81 21.5h-19v57h17c32.667 0 57.834 6.83301 75.5 20.5c17.667 13.6689 26.5 31.8359 26.5 54.5c0 20 -7.83301 36.333 -23.5 49s-35.5 19 -59.5 19c-66 0 -99 -37.333 -99 -112h-64
c0 55.333 15.5 97 46.5 125s71.167 42 120.5 42c40.667 0 74.834 -10.5 102.501 -31.5s41.5 -49.167 41.5 -84.5c0 -52 -22.333 -86.333 -67 -103z" />
    <glyph glyph-name="fiveeighths" unicode="&#x215d;" horiz-adv-x="1000" 
d="M796 58c32 0 55.5 6.66797 70.5 20.001s22.5 31 22.5 53c0 23.333 -7.83301 42.333 -23.5 57s-39.167 22 -70.5 22c-31.335 0 -54.668 -7.33301 -70 -22c-15.333 -14.667 -23 -33.334 -23 -56.001c0 -49.333 31.333 -74 94 -74zM709 343.001
c0 -21.333 7.33203 -38.334 21.999 -51.001c14.6699 -12.667 36.3369 -19 65.001 -19c28.667 0 50.167 6.33301 64.5 19s21.5 29.334 21.5 50.001c0 20 -7 36.667 -21 50s-36 20 -66 20c-30.667 0 -52.667 -6.5 -66 -19.5s-20 -29.5 -20 -49.5zM876.999 241
c24 -10 42.833 -25.334 56.5 -46.001s20.5 -44.667 20.5 -72c0 -39.333 -14.5 -69.5 -43.5 -90.5s-67.167 -31.5 -114.5 -31.5s-85.833 10.5 -115.5 31.5s-44.5 51.5 -44.5 91.5c0 26.667 7 50.334 21 71.001s33 36 57 46c-44 24 -66 58.667 -66 104
c0 38.667 14.167 68.167 42.5 88.5s62.833 30.5 103.5 30.5c41.333 0 76.333 -10.333 105 -31s43 -50.334 43 -89c0 -46 -21.667 -80.333 -65 -103zM211.999 584.999c46 0 81.5 -14 106.5 -42s37.5 -61.667 37.5 -101c0 -41.333 -14.333 -77.5 -43 -108.5
s-68 -46.5 -118 -46.5c-44 0 -81.833 13.333 -113.5 40s-47.5 63 -47.5 109h65c0 -30 8.83301 -53.167 26.5 -69.5s40.5 -24.5 68.5 -24.5c31.333 0 55.833 9.5 73.5 28.5s26.5 41.167 26.5 66.5c0 24 -8.66699 44.667 -26 62s-41.333 26 -72 26
c-31.333 0 -60 -11.333 -86 -34h-58l41 254h234v-58h-184l-19 -125c26.667 15.333 56 23 88 23zM290.999 -0.000976562h-66l477 750h66z" />
    <glyph glyph-name="seveneighths" unicode="&#x215e;" horiz-adv-x="1000" 
d="M793 58c32 0 55.5 6.66797 70.5 20.001s22.5 31 22.5 53c0 23.333 -7.83301 42.333 -23.5 57s-39.167 22 -70.5 22c-31.335 0 -54.668 -7.33301 -70 -22c-15.333 -14.667 -23 -33.334 -23 -56.001c0 -49.333 31.333 -74 94 -74zM706 343.001
c0 -21.333 7.33301 -38.334 22 -51.001c14.668 -12.667 36.335 -19 65 -19c28.667 0 50.167 6.33301 64.5 19s21.5 29.334 21.5 50.001c0 20 -7 36.667 -21 50s-36 20 -66 20c-30.667 0 -52.667 -6.5 -66 -19.5s-20 -29.5 -20 -49.5zM874 241
c24 -10 42.833 -25.334 56.5 -46.001s20.5 -44.667 20.5 -72c0 -39.333 -14.5 -69.5 -43.5 -90.5s-67.167 -31.5 -114.5 -31.5s-85.833 10.5 -115.5 31.5s-44.5 51.5 -44.5 91.5c0 26.667 7 50.334 21 71.001s33 36 57 46c-44 24 -66 58.667 -66 104
c0 38.667 14.167 68.167 42.5 88.5s62.833 30.5 103.5 30.5c41.333 0 76.333 -10.333 105 -31s43 -50.334 43 -89c0 -46 -21.667 -80.333 -65 -103zM368 690.999l-184 -397h-66l179 386h-251v65h322v-54zM765 749.999l-477 -750h-66l477 750h66z" />
    <glyph glyph-name="partialdiff" unicode="&#x2202;" 
d="M283 69c45.333 0 84.833 14.668 118.5 44.001s50.5 70.666 50.5 123.999c0 51.334 -15.833 91.167 -47.5 119.5s-70.167 42.5 -115.5 42.5s-84 -14.5 -116 -43.5s-48 -69.833 -48 -122.5c0 -51.333 15.167 -91.5 45.5 -120.5s67.833 -43.5 112.5 -43.5zM274 485.001
c41.334 0 80.168 -9.16406 116.501 -27.4971s65.833 -46.833 88.5 -85.5v11c0 100.667 -18.333 173.667 -55 219s-84.667 68 -144 68c-41.333 0 -73.833 -10.667 -97.5 -32c-23.667 -21.334 -36.167 -51.667 -37.5 -90.999h-92c3.33301 62 24.666 111.333 63.999 148
s91.333 55 156 55c25.333 0 49.833 -2.66699 73.5 -8s49.5 -16.333 77.5 -33s52 -38.334 72 -65.001s36.833 -63.334 50.5 -110.001s20.5 -100.667 20.5 -162c0 -68.667 -8.16699 -128.834 -24.5 -180.501s-38.333 -91.667 -66 -120s-57.667 -49.333 -90 -63
s-66.5 -20.5 -102.5 -20.5c-70.667 0 -130.167 23.167 -178.5 69.5s-72.5 107.833 -72.5 184.5c0 75.333 23.5 134.666 70.5 177.999s103.833 65 170.5 65z" />
    <glyph glyph-name="product" unicode="&#x220f;" horiz-adv-x="840" 
d="M647 0h-87v672h-280v-672h-87v672h-108v78h670v-78h-108v-672z" />
    <glyph glyph-name="summation" unicode="&#x2211;" horiz-adv-x="701" 
d="M661 86v-86h-611v87l304 287l-284 290v86h559v-86h-424l280 -290l-301 -288h477z" />
    <glyph glyph-name="minus" unicode="&#x2212;" horiz-adv-x="500" 
d="M40 262v59h420v-59h-420z" />
    <glyph glyph-name="radical" unicode="&#x221a;" horiz-adv-x="623" 
d="M331 0h-89l-232 542h100l176 -432l226 640h91z" />
    <glyph glyph-name="infinity" unicode="&#x221e;" horiz-adv-x="769" 
d="M550 162c34 0 63 11.333 87 34s36 58 36 106c0 47.333 -11.833 82 -35.5 104s-52.5 33 -86.5 33c-36.667 0 -66.167 -12.167 -88.5 -36.5s-33.5 -58.5 -33.5 -102.5s11.333 -78 34 -102s51.667 -36 87 -36zM219 163c36 0 65.166 12.167 87.499 36.5s33.5 58.5 33.5 102.5
s-11.333 78 -34 102s-51.667 36 -87 36c-34 0 -63 -11.333 -87 -34s-36 -57.667 -36 -105c0 -48 11.833 -83 35.5 -105s52.834 -33 87.501 -33zM555.999 522c62 0 109.667 -20.834 143 -62.501s50 -93.834 50 -156.5c0 -63.333 -16.833 -116.333 -50.5 -159
s-81.834 -64 -144.501 -64c-80 0 -136.667 38 -170 114c-32 -76 -89 -114 -171 -114c-62 0 -109.667 20.833 -143 62.5s-50 93.834 -50 156.501c0 63.333 16.833 116.333 50.5 159s81.834 64 144.501 64c80 0 136.667 -38 170 -114c32 76 89 114 171 114z" />
    <glyph glyph-name="integral" unicode="&#x222b;" horiz-adv-x="301" 
d="M301 679h-33c-26 0 -45.5 -5.16699 -58.5 -15.5s-19.5 -30.5 -19.5 -60.5v-665c0 -32 -4.5 -58.5 -13.5 -79.5s-21.5 -35.667 -37.5 -44s-30.333 -13.833 -43 -16.5s-27.667 -4 -45 -4h-51v71h23c26 0 45.5 5.16699 58.5 15.5s19.5 30.5 19.5 60.5v665
c0 32 4.5 58.5 13.5 79.5s21.5 35.667 37.5 44s30.333 13.833 43 16.5s27.667 4 45 4h61v-71z" />
    <glyph glyph-name="approxequal" unicode="&#x2248;" horiz-adv-x="499" 
d="M459 168c-29.333 -14.667 -63.001 -22 -101.001 -22c-26 0 -59.333 7.66699 -100 23s-74.334 23 -101.001 23c-50 0 -89 -12 -117 -36v76c30.667 20.667 68.334 31 113.001 31c26 0 59.333 -7.83301 100 -23.5s75.334 -23.5 104.001 -23.5c46.667 0 80.667 10.333 102 31
v-79zM458.999 338c-29.333 -14.667 -63.001 -22 -101.001 -22c-26 0 -59.333 7.66699 -100 23s-74.334 23 -101.001 23c-50 0 -89 -12 -117 -36v76c30.667 20.667 68.334 31 113.001 31c26 0 59.333 -7.83301 100 -23.5s75.334 -23.5 104.001 -23.5
c46.667 0 80.667 10.333 102 31v-79z" />
    <glyph glyph-name="notequal" unicode="&#x2260;" horiz-adv-x="500" 
d="M301 341l-42 -99h201v-59h-226l-58 -138h-64l58 138h-130v59h155l42 99h-197v59h222l60 142h64l-60 -142h134v-59h-159z" />
    <glyph glyph-name="lessequal" unicode="&#x2264;" horiz-adv-x="500" 
d="M67 56h379v-56h-379v56zM55 354v55l364 218l27 -52l-325 -193l325 -193l-27 -52z" />
    <glyph glyph-name="greaterequal" unicode="&#x2265;" horiz-adv-x="500" 
d="M53 0v56h379v-56h-379zM53 189l325 193l-325 193l27 52l364 -218v-55l-364 -217z" />
    <glyph glyph-name="lozenge" unicode="&#x25ca;" horiz-adv-x="583" 
d="M292 610l-181 -250l181 -251l180 251zM292 -12l-272 372l272 371l271 -371z" />
    <glyph glyph-name="zero.osf" horiz-adv-x="658" 
d="M330 69c56.667 0.666992 102.333 20.499 137 59.499s52 93.167 52 162.5c0 70.667 -18.333 126.834 -55 168.501s-84.334 62.5 -143 62.5c-56 0 -101.333 -19.667 -136 -59s-52 -93.666 -52 -162.999c0 -70.667 18 -126.834 54 -168.501s83 -62.5 141 -62.5h2z
M324.999 603.999c84.667 0 153.331 -28 205.998 -84s79 -130.667 79 -224c0 -94 -26.167 -168.833 -78.5 -224.5s-120.5 -83.5 -204.5 -83.5h-2c-85.333 0.666992 -154.166 28.667 -206.499 84s-78.5 130 -78.5 224c0 93.333 26.333 168 79 224s121.334 84 206.001 84z" />
    <glyph glyph-name="one.osf" horiz-adv-x="529" 
d="M474 80v-80h-419v80h165v432h-165v80h419v-80h-165v-432h165z" />
    <glyph glyph-name="two.osf" horiz-adv-x="553" 
d="M502 0l-445 -0.00390625v76l161 119c63.333 46.667 108.5 86.334 135.5 119.001s40.5 66.334 40.5 101.001c0 32.667 -11 58.334 -33 77.001s-49.667 28 -83 28c-38.667 0 -71 -12.667 -97 -38s-39 -62.666 -39 -111.999v-14h-90v17c0 74.667 21.833 131.667 65.5 171
s97.167 59.333 160.5 60h3c57.333 0 105.833 -16.167 145.5 -48.5c39.667 -32.334 59.5 -76.834 59.5 -133.5c0 -48.667 -15 -91.167 -45 -127.5s-79 -81.5 -147 -135.5l-100 -79h308v-80z" />
    <glyph glyph-name="three.osf" 
d="M418 238c44.667 -12.667 79.6641 -35.1689 104.997 -67.502s38 -69.5 38 -111.5c0 -66 -25.667 -118.833 -77 -158.5s-112 -59.5 -182 -59.5c-71.333 0 -133 21.333 -185 64s-78 103.334 -78 182.001h93v-9c0 -52 17 -91.667 51 -119s75.333 -41 124 -41
s87.334 13.333 116.001 40s43 58 43 94c0 37.333 -15.667 69.5 -47 96.5s-75 40.5 -131 40.5h-44v80h22c59.334 0 105.167 13.833 137.5 41.5s48.5 59.834 48.5 96.501c0 33.333 -12.667 61.5 -38 84.5s-61.666 34.5 -108.999 34.5c-51.333 0 -91.5 -15 -120.5 -45
s-43.5 -72 -43.5 -126h-90c0 78 23.833 139 71.5 183s109.834 66 186.501 66c67.334 0 123.667 -16.833 169 -50.5s68 -79.5 68 -137.5c0 -39.333 -11.167 -74.833 -33.5 -106.5s-53.833 -55.5 -94.5 -71.5z" />
    <glyph glyph-name="four.osf" 
d="M366 109v376l-258 -376h258zM455 27v-176h-89v178h-351v80l328 479h112v-479h130v-82h-130z" />
    <glyph glyph-name="five.osf" 
d="M322 335c71.333 0 127.499 -23.334 168.499 -70.001s61.5 -102.667 61.5 -168c0 -70.667 -22.5 -131.5 -67.5 -182.5s-107.5 -76.5 -187.5 -76.5c-72 0 -132.833 21.5 -182.5 64.5s-74.5 103.5 -74.5 181.5h93c0 -1.33301 -0.166992 -4 -0.5 -8s-0.5 -6.66699 -0.5 -8
c0 -49.333 15.667 -87.666 47 -114.999s70.333 -41 117 -41c52 0 93 16.833 123 50.5s45 74.5 45 122.5c0 46.667 -13.833 86.167 -41.5 118.5s-67.5 48.5 -119.5 48.5c-57.333 0 -106.666 -19 -147.999 -57h-82l64 392h370v-80h-303l-35 -219c48 31.333 99 47 153 47z" />
    <glyph glyph-name="six.osf" 
d="M317 69c44.667 0 82.167 14.498 112.5 43.498s45.5 69.167 45.5 120.5c0 52.667 -16 93.5 -48 122.5s-70.667 43.5 -116 43.5s-83.833 -14.167 -115.5 -42.5s-47.5 -68.166 -47.5 -119.499c0 -53.333 16.833 -94.666 50.5 -123.999s73.167 -44 118.5 -44zM326 484.998
c66.667 0 123.502 -21.668 170.502 -65.001s70.5 -102.666 70.5 -177.999c0 -76.667 -24.167 -138.167 -72.5 -184.5s-107.833 -69.5 -178.5 -69.5c-36 0 -70.167 6.83301 -102.5 20.5s-62.333 34.667 -90 63s-49.667 68.333 -66 120s-24.5 111.834 -24.5 180.501
c0 61.333 6.83301 115.333 20.5 162c13.667 46.668 30.5 83.335 50.5 110c20 26.6689 44 48.3359 72 65c28 16.667 53.833 27.667 77.5 33s48.167 8 73.5 8c64.667 0 116.667 -18.333 156 -55s60.666 -86 63.999 -148h-92c-1.33301 39.333 -13.833 69.666 -37.5 90.999
s-56.167 32 -97.5 32c-59.333 0 -107.333 -22.667 -144 -68s-55 -118.333 -55 -219v-11c22.667 38.667 52.167 67.167 88.5 85.5s75.166 27.5 116.499 27.5z" />
    <glyph glyph-name="seven.osf" 
d="M557 507l-303 -657h-90l301 649h-442v88h534v-80z" />
    <glyph glyph-name="eight.osf" 
d="M301 67c53.333 0 93.334 12.667 120.001 38s40 57.333 40 96s-13.833 70.834 -41.5 96.501s-67.834 38.5 -120.5 38.5c-52.667 0 -92.334 -12.833 -119.001 -38.5s-40 -57.834 -40 -96.501c0 -39.333 13.5 -71.5 40.5 -96.5s67.167 -37.5 120.5 -37.5zM153.001 552
c0 -36.667 12.833 -66.166 38.5 -88.499s62.167 -33.5 109.5 -33.5c48 0 84.5 11.167 109.5 33.5s37.5 51.166 37.5 86.499c0 34.6689 -12 64.3359 -36 89c-24 24.667 -61.667 37 -113 37c-50.667 0 -87.667 -12.167 -111 -36.5s-35 -53.5 -35 -87.5zM413.001 382.001
c44.667 -15.333 79.332 -38.999 103.999 -70.999s37 -71 37 -117c0 -64 -23.333 -114.333 -70 -151s-107.334 -55 -182 -55c-75.333 0 -136.833 18.5 -184.5 55.5s-71.5 87.5 -71.5 151.5c0 46 12.5 85 37.5 117s59.167 55.667 102.5 71c-80.667 34 -121 91.667 -121 173
c0 62 22.167 109.833 66.5 143.5s99.833 50.5 166.5 50.5s122.834 -17 168.501 -51s68.5 -82 68.5 -144c0 -80.667 -40.667 -138.334 -122 -173.001z" />
    <glyph glyph-name="nine.osf" 
d="M289 190c44 0 81.833 14.666 113.5 43.999c31.667 29.334 47.5 69.667 47.5 121c0 52.667 -16.167 93.834 -48.5 123.501s-70.5 44.5 -114.5 44.5s-81.833 -14.5 -113.5 -43.5s-47.5 -69.833 -47.5 -122.5c0 -53.333 16.167 -94.5 48.5 -123.5s70.5 -43.5 114.5 -43.5z
M286 603.999c38.667 0 73.8291 -6.5 105.496 -19.5s60.834 -33.833 87.501 -62.5s47.5 -69.167 62.5 -121.5s22.5 -114.166 22.5 -185.499c0 -248.667 -91.667 -373 -275 -373c-69.333 0 -124.333 18.833 -165 56.5s-62.667 86.5 -66 146.5h91
c3.33301 -36.667 16.833 -66.334 40.5 -89.001s56.834 -34 99.501 -34c58 0 104.167 20 138.5 60s51.5 103.667 51.5 191c0 6 -0.166992 12.667 -0.5 20s-0.5 12.333 -0.5 15c-23.333 -32.667 -52.666 -57.5 -87.999 -74.5s-72.666 -25.5 -111.999 -25.5
c-66 0 -122.833 21.667 -170.5 65s-71.5 102.333 -71.5 177c0 70.667 21.833 130.667 65.5 180s105.167 74 184.5 74z" />
    <glyph glyph-name="zero.pnum" 
d="M301 71c53.333 0 92.834 26.165 118.501 78.498s38.5 123.833 38.5 214.5c0 58.667 -5.16699 109.834 -15.5 153.501c-10.333 43.668 -27.833 79.335 -52.5 107c-24.667 27.667 -56 41.5 -94 41.5c-102.667 0 -154 -97.333 -154 -292
c0 -95.333 13.167 -169.666 39.5 -222.999s66.166 -80 119.499 -80zM298.001 -12.002c-82 0 -143.833 33.668 -185.5 101.001s-62.5 160 -62.5 278c0 119.333 21 213 63 281s104.333 102 187 102c82 0 144.167 -34 186.5 -102s63.5 -161 63.5 -279
c0 -118.667 -21.333 -211.834 -64 -279.501s-105.334 -101.5 -188 -101.5z" />
    <glyph glyph-name="one.pnum" horiz-adv-x="469" 
d="M464 80v-80h-429v80h170v551c-46 -38.667 -106 -63.667 -180 -75v83c72.667 14 135 46.667 187 98h82v-657h170z" />
    <glyph glyph-name="two.pnum" 
d="M550 0h-513.998v80l187 167c76 67.333 125 114.333 147 141c41.333 49.334 62 97.667 62 145c0 42.667 -13.5 75.667 -40.5 99s-61.833 35 -104.5 35c-46.667 0 -85.334 -14.333 -116.001 -43s-47.334 -69.334 -50.001 -122.001h-90c0 80 24.667 141.333 74 184
s111.333 64 186 64c68.667 0 125 -18.667 169 -56s66 -89.333 66 -156c0 -29.333 -4.33301 -56.666 -13 -81.999s-23.667 -51.5 -45 -78.5s-43.333 -51.667 -66 -74s-54.334 -51.5 -95 -87.5l-153 -136h396v-80z" />
    <glyph glyph-name="three.pnum" horiz-adv-x="569" 
d="M402 385c44.667 -12.667 79.6641 -35.1689 104.997 -67.502s38 -69.5 38 -111.5c0 -66 -25.667 -118.833 -77 -158.5s-112 -59.5 -182 -59.5c-71.333 0 -133 21.333 -185 64s-78 103.334 -78 182.001h93v-9c0 -52 17 -91.667 51 -119s75.333 -41 124 -41
s87.334 13.333 116.001 40s43 58 43 94c0 37.333 -15.667 69.5 -47 96.5s-75 40.5 -131 40.5h-44v80h22c59.334 0 105.167 13.833 137.5 41.5s48.5 59.834 48.5 96.501c0 33.333 -12.667 61.5 -38 84.5s-61.666 34.5 -108.999 34.5c-51.333 0 -91.5 -15 -120.5 -45
s-43.5 -72 -43.5 -126h-90c0 78 23.833 139 71.5 183s109.834 66 186.501 66c67.334 0 123.667 -16.833 169 -50.5s68 -79.5 68 -137.5c0 -39.334 -11.167 -74.834 -33.5 -106.5c-22.333 -31.667 -53.833 -55.5 -94.5 -71.5z" />
    <glyph glyph-name="four.pnum" horiz-adv-x="630" 
d="M381 258v376l-258 -376h258zM470 176v-176h-89v178h-351v80l328 479h112v-479h130v-82h-130z" />
    <glyph glyph-name="five.pnum" horiz-adv-x="579" 
d="M310 485c71.333 0 127.499 -23.334 168.499 -70.001s61.5 -102.667 61.5 -168c0 -70.667 -22.5 -131.5 -67.5 -182.5s-107.5 -76.5 -187.5 -76.5c-72 0 -132.833 21.5 -182.5 64.5s-74.5 103.5 -74.5 181.5h93c0 -1.33301 -0.166992 -3.83301 -0.5 -7.5
s-0.5 -6.5 -0.5 -8.5c0 -49.333 15.667 -87.666 47 -114.999s70.333 -41 117 -41c52 0 93 16.833 123 50.5s45 74.5 45 122.5c0 46.667 -13.833 86.167 -41.5 118.5s-67.5 48.5 -119.5 48.5c-57.333 0 -106.666 -19 -147.999 -57h-82l64 392h370v-80h-303l-35 -219
c48 31.333 99 47 153 47z" />
    <glyph glyph-name="six.pnum" horiz-adv-x="597" 
d="M323 69c44.667 0 82.167 14.498 112.5 43.498s45.5 69.167 45.5 120.5c0 52.667 -16 93.5 -48 122.5s-70.667 43.5 -116 43.5s-83.833 -14.167 -115.5 -42.5s-47.5 -68.166 -47.5 -119.499c0 -53.333 16.833 -94.666 50.5 -123.999s73.167 -44 118.5 -44zM332 484.998
c66.667 0 123.502 -21.668 170.502 -65.001s70.5 -102.666 70.5 -177.999c0 -76.667 -24.167 -138.167 -72.5 -184.5s-107.833 -69.5 -178.5 -69.5c-36 0 -70.167 6.83301 -102.5 20.5s-62.333 34.667 -90 63s-49.667 68.333 -66 120s-24.5 111.834 -24.5 180.501
c0 61.333 6.83301 115.333 20.5 162c13.667 46.668 30.5 83.335 50.5 110c20 26.6689 44 48.3359 72 65c28 16.667 53.833 27.667 77.5 33s48.167 8 73.5 8c64.667 0 116.667 -18.333 156 -55s60.666 -86 63.999 -148h-92c-1.33301 39.333 -13.833 69.666 -37.5 90.999
s-56.167 32 -97.5 32c-59.333 0 -107.333 -22.667 -144 -68s-55 -118.333 -55 -219v-11c22.667 38.667 52.167 67.167 88.5 85.5s75.166 27.5 116.499 27.5z" />
    <glyph glyph-name="seven.pnum" horiz-adv-x="524" 
d="M514 657l-303 -657h-90l301 649h-442v88h534v-80z" />
    <glyph glyph-name="eight.pnum" horiz-adv-x="568" 
d="M285 67c53.333 0 93.335 12.667 120.002 38s40 57.333 40 96s-13.833 70.834 -41.5 96.501s-67.834 38.5 -120.501 38.5s-92.334 -12.833 -119.001 -38.5s-40 -57.834 -40 -96.501c0 -39.333 13.5 -71.5 40.5 -96.5s67.167 -37.5 120.5 -37.5zM137.002 552
c0 -36.667 12.833 -66.166 38.5 -88.499s62.167 -33.5 109.5 -33.5c48 0 84.5 11.167 109.5 33.5s37.5 51.166 37.5 86.499c0 34.6689 -12 64.3359 -36 89c-24 24.667 -61.667 37 -113 37c-50.667 0 -87.667 -12.167 -111 -36.5s-35 -53.5 -35 -87.5zM397.002 382.001
c44.667 -15.333 79.332 -38.999 103.999 -70.999s37 -71 37 -117c0 -64 -23.333 -114.333 -70 -151s-107.334 -55 -182 -55c-75.333 0 -136.833 18.5 -184.5 55.5s-71.5 87.5 -71.5 151.5c0 46 12.5 85 37.5 117s59.167 55.667 102.5 71c-80.667 34 -121 91.667 -121 173
c0 62 22.167 109.833 66.5 143.5s99.833 50.5 166.5 50.5s122.834 -17 168.501 -51s68.5 -82 68.5 -144c0 -80.667 -40.667 -138.334 -122 -173.001z" />
    <glyph glyph-name="nine.pnum" horiz-adv-x="586" 
d="M282 336c44 0 81.833 14.667 113.5 44c31.667 29.334 47.5 69.667 47.5 121c0 52.667 -16.167 93.834 -48.5 123.5c-32.333 29.667 -70.5 44.5 -114.5 44.5s-81.833 -14.5 -113.5 -43.5s-47.5 -69.833 -47.5 -122.5c0 -53.333 16.167 -94.5 48.5 -123.5
s70.5 -43.5 114.5 -43.5zM279 750c38.667 0 73.8291 -6.5 105.496 -19.5s60.834 -33.833 87.501 -62.5s47.5 -69.167 62.5 -121.5s22.5 -114.166 22.5 -185.499c0 -248.667 -91.667 -373 -275 -373c-69.333 0 -124.333 18.833 -165 56.5s-62.667 86.5 -66 146.5h91
c3.33301 -36.667 16.833 -66.334 40.5 -89.001s56.834 -34 99.501 -34c58 0 104.167 20 138.5 60s51.5 103.667 51.5 191c0 6 -0.166992 12.667 -0.5 20s-0.5 12.333 -0.5 15c-23.333 -32.667 -52.666 -57.5 -87.999 -74.5s-72.666 -25.5 -111.999 -25.5
c-66 0 -122.833 21.667 -170.5 65s-71.5 102.333 -71.5 177c0 70.667 21.833 130.667 65.5 180s105.167 74 184.5 74z" />
    <glyph glyph-name="zero.dnom" horiz-adv-x="380" 
d="M187 392c-60 0 -90 -56.333 -90 -169c0 -116 31 -174 93 -174c60.667 0 91 56 91 168c0 116.667 -31.333 175 -94 175zM189 -10c-51.333 0 -90.167 20.499 -116.5 61.499s-39.5 96.833 -39.5 167.5c0 72 13.333 128.667 40 170s65.667 62 117 62s90.333 -20.667 117 -62
s40 -97.666 40 -168.999c0 -70.667 -13.5 -126.667 -40.5 -168s-66.167 -62 -117.5 -62z" />
    <glyph glyph-name="one.dnom" horiz-adv-x="380" 
d="M325 59l-0.000976562 -58h-264v58h100v311c-30 -22 -65.333 -36 -106 -42v63c44.667 8.66699 82.334 28.667 113.001 60h57v-392h100z" />
    <glyph glyph-name="two.dnom" horiz-adv-x="380" 
d="M353 1h-322v56l110 93c52.667 45.333 86 77 100 95c18.667 24.667 28 49 28 73s-7.83301 42.833 -23.5 56.5s-35.167 20.5 -58.5 20.5c-26 0 -48.333 -9.16699 -67 -27.5s-28 -44.5 -28 -78.5h-66c0 52 16.5 92.833 49.5 122.5s71.167 44.5 114.5 44.5
c38.667 0 73 -12 103 -36s45 -56.333 45 -97c0 -24 -6.83301 -48 -20.5 -72s-28.5 -44 -44.5 -60s-40.667 -38.667 -74 -68l-72 -63h226v-59z" />
    <glyph glyph-name="three.dnom" horiz-adv-x="380" 
d="M277 245c24 -10 42.665 -24.668 55.998 -44.001s20 -40.333 20 -63c0 -35.333 -13.833 -66.666 -41.5 -93.999s-65.834 -41 -114.501 -41c-46.667 0 -86.5 13.167 -119.5 39.5s-49.5 63.166 -49.5 110.499h65c0 -30 10 -53.167 30 -69.5s45 -24.5 75 -24.5
c28.667 0 50.834 7.33301 66.501 22s23.5 32.334 23.5 53.001c0 21.333 -9.33301 39.166 -28 53.499s-45.667 21.5 -81 21.5h-19v57h17c32.667 0 57.834 6.83301 75.501 20.5s26.5 31.834 26.5 54.501c0 20 -7.83301 36.333 -23.5 49s-35.5 19 -59.5 19
c-66 0 -99 -37.333 -99 -112h-64c0 55.333 15.5 97 46.5 125s71.167 42 120.5 42c40.667 0 74.834 -10.5 102.501 -31.5s41.5 -49.167 41.5 -84.5c0 -52 -22.333 -86.333 -67 -103z" />
    <glyph glyph-name="four.dnom" horiz-adv-x="380" 
d="M225 159v209l-146 -209h146zM289 99v-98h-64v99h-218v56l206 295h76v-292h84v-60h-84z" />
    <glyph glyph-name="five.dnom" horiz-adv-x="380" 
d="M207 299c46 0 81.5 -14 106.5 -42s37.5 -61.667 37.5 -101c0 -41.333 -14.333 -77.5 -43 -108.5s-68 -46.5 -118 -46.5c-44 0 -81.833 13.333 -113.5 40s-47.5 63 -47.5 109h65c0 -30 8.83301 -53.167 26.5 -69.5s40.5 -24.5 68.5 -24.5c31.333 0 55.833 9.5 73.5 28.5
s26.5 41.167 26.5 66.5c0 24 -8.66699 44.667 -26 62s-41.333 26 -72 26c-31.333 0 -60 -11.333 -86 -34h-58l41 254h234v-58h-184l-19 -125c26.667 15.333 56 23 88 23z" />
    <glyph glyph-name="six.dnom" horiz-adv-x="380" 
d="M294 151c0 30 -9.5 53.333 -28.5 70s-41.833 25 -68.5 25s-49.5 -8 -68.5 -24s-28.5 -39 -28.5 -69c0 -29.333 9.83301 -51.833 29.5 -67.5s43.167 -23.5 70.5 -23.5c26.667 0 49 7.83301 67 23.5s27 37.5 27 65.5zM208 307c40 0 75.168 -13.499 105.501 -40.499
s45.5 -63.5 45.5 -109.5c0 -44.667 -15.5 -81.5 -46.5 -110.5s-68.5 -43.5 -112.5 -43.5c-48 0 -89.833 18.667 -125.5 56s-53.5 94.666 -53.5 171.999c0 76.667 17.333 134.667 52 174s77.667 59 129 59c41.333 0 76 -12.167 104 -36.5s41.333 -54.833 40 -91.5h-66v5
c0 19.334 -7.33301 35.167 -22 47.5s-33.334 18.5 -56.001 18.5c-32.667 0 -60.167 -13 -82.5 -39s-34.833 -66.333 -37.5 -121c31.333 40 73.333 60 126 60z" />
    <glyph glyph-name="seven.dnom" horiz-adv-x="380" 
d="M351 451v-54l-184 -397h-66l179 386h-251v65h322z" />
    <glyph glyph-name="eight.dnom" horiz-adv-x="380" 
d="M191 58c32 0 55.499 6.66797 70.499 20.001s22.5 31 22.5 53c0 23.333 -7.83301 42.333 -23.5 57s-39.167 22 -70.5 22s-54.666 -7.33301 -69.999 -22s-23 -33.334 -23 -56.001c0 -49.333 31.333 -74 94 -74zM103.999 343.001c0 -21.333 7.33203 -38.334 21.999 -51.001
s36.334 -19 65.001 -19s50.167 6.33301 64.5 19s21.5 29.334 21.5 50.001c0 20 -7 36.667 -21 50s-36 20 -66 20c-30.667 0 -52.667 -6.5 -66 -19.5s-20 -29.5 -20 -49.5zM271.998 241c24 -10 42.833 -25.334 56.5 -46.001s20.5 -44.667 20.5 -72
c0 -39.333 -14.5 -69.5 -43.5 -90.5s-67.167 -31.5 -114.5 -31.5s-85.833 10.5 -115.5 31.5s-44.5 51.5 -44.5 91.5c0 26.667 7 50.334 21 71.001s33 36 57 46c-44 24 -66 58.667 -66 104c0 38.667 14.167 68.167 42.5 88.5s62.833 30.5 103.5 30.5
c41.333 0 76.333 -10.333 105 -31s43 -50.334 43 -89c0 -46 -21.667 -80.333 -65 -103z" />
    <glyph glyph-name="nine.dnom" horiz-adv-x="380" 
d="M180 221c28 0 51.667 7.83203 71 23.499s29 37.834 29 66.501c0 29.334 -9.83301 52.167 -29.5 68.5s-42.5 24.833 -68.5 25.5h-4c-29.333 0 -52 -9.66699 -68 -29s-24 -41.333 -24 -66s8.33301 -45.667 25 -63s39.667 -26 69 -26zM181 463.999
c22.667 0 43.999 -3.83301 63.999 -11.5c20 -7.66797 38.833 -19.835 56.5 -36.501c17.667 -16.667 31.667 -40.667 42 -72s15.5 -68.333 15.5 -111c0 -80 -16.333 -138.333 -49 -175s-73.334 -55 -122.001 -55c-43.333 0 -79.833 12.667 -109.5 38s-44.5 56 -44.5 92h66
c0 -20 8.66699 -37.167 26 -51.5s38.666 -21.5 63.999 -21.5c32.667 0 58.834 13.333 78.501 40s29.5 64.334 29.5 113.001v7c-31.333 -39.333 -73.666 -59 -126.999 -59c-45.333 0 -81.666 15 -108.999 45s-41 64.667 -41 104c0 40.667 14.333 76.5 43 107.5
s67.667 46.5 117 46.5z" />
    <glyph glyph-name="zero.numr" horiz-adv-x="380" 
d="M187 691c-60 0 -90 -56.333 -90 -169c0 -116 31 -174 93 -174c60.667 0 91 56 91 168c0 116.667 -31.333 175 -94 175zM189 289c-51.333 0 -90.167 20.5 -116.5 61.5s-39.5 96.833 -39.5 167.5c0 72 13.333 128.667 40 170s65.667 62 117 62s90.333 -20.667 117 -62
c26.667 -41.334 40 -97.667 40 -169c0 -70.667 -13.5 -126.667 -40.5 -168s-66.167 -62 -117.5 -62z" />
    <glyph glyph-name="one.numr" horiz-adv-x="380" 
d="M325 353l-0.000976562 -58h-264v58h100v311c-30 -22 -65.333 -36 -106 -42v63c44.667 8.66699 82.334 28.667 113.001 60h57v-392h100z" />
    <glyph glyph-name="two.numr" horiz-adv-x="380" 
d="M353 295h-322v56l110 93c52.667 45.333 86 77 100 95c18.667 24.667 28 49 28 73s-7.83301 42.833 -23.5 56.5s-35.167 20.5 -58.5 20.5c-26 0 -48.333 -9.16699 -67 -27.5s-28 -44.5 -28 -78.5h-66c0 52 16.5 92.833 49.5 122.5s71.167 44.5 114.5 44.5
c38.667 0 73 -12 103 -36s45 -56.333 45 -97c0 -24 -6.83301 -48 -20.5 -72s-28.5 -44 -44.5 -60s-40.667 -38.667 -74 -68l-72 -63h226v-59z" />
    </font>
</defs>
</svg>
