<?xml version="1.0" standalone="no"?>
<!DOCTYPE svg PUBLIC "-//W3C//DTD SVG 1.1//EN" "http://www.w3.org/Graphics/SVG/1.1/DTD/svg11.dtd" >
<svg xmlns="http://www.w3.org/2000/svg" xmlns:xlink="http://www.w3.org/1999/xlink" version="1.1">
<metadata>
Created by FontForge 20190801 at Tue Aug 25 19:04:03 2015
 By Jimmy Wärting
Copyright (c) 2015 by Luzi Type. All rights reserved.
</metadata>
<defs>
<font id="MessinaSans-LightItalic" horiz-adv-x="420" >
  <font-face 
    font-family="MessinaSans"
    font-weight="300"
    font-style="italic"
    font-stretch="normal"
    units-per-em="1000"
    panose-1="0 0 4 0 0 0 0 0 0 0"
    ascent="800"
    descent="-200"
    x-height="532"
    cap-height="750"
    bbox="-115 -344 1385 1024"
    underline-thickness="50"
    underline-position="-100"
    slope="-13"
    unicode-range="U+000D-FB04"
  />
<missing-glyph horiz-adv-x="520" 
 />
    <glyph glyph-name="ff" unicode="ff" horiz-adv-x="690" 
d="M773 710h-59c-32.667 0 -55.167 -6 -67.5 -18s-21.833 -32.333 -28.5 -61l-22 -99h120l-12 -52h-120l-111 -480h-57l111 480h-300l-111 -480h-57l111 480h-91l12 52h91l23 103c10.667 48.667 26.834 82 48.5 100c21.667 18 54.5 27 98.5 27h75l-11 -52h-59
c-32.667 0 -55.167 -6 -67.5 -18s-21.833 -32.333 -28.5 -61l-22 -99h300l23 103c10.6689 48.667 26.8359 82 48.5 100c21.667 18 54.5 27 98.5 27h75z" />
    <glyph glyph-name="fi" unicode="fi" horiz-adv-x="631" 
d="M597 532l-123 -532h-57l110 480h-300l-111 -480h-57l111 480h-91l12 52h91l23 103c10.667 48.667 26.834 82 48.5 100c21.667 18 54.5 27 98.5 27h75l-11 -52h-59c-32.667 0 -55.167 -6 -67.5 -18s-21.833 -32.333 -28.5 -61l-22 -99h358z" />
    <glyph glyph-name="fl" unicode="fl" horiz-adv-x="621" 
d="M417 0l110 480h-300l-111 -480h-57l111 480h-91l12 52h91l23 103c10.667 48.667 26.834 82 48.5 100c21.667 18 54.5 27 98.5 27h75l-11 -52h-59c-32.667 0 -55.167 -6 -67.5 -18s-21.833 -32.333 -28.5 -61l-22 -99h301l53 230h58l-177 -762h-57z" />
    <glyph glyph-name="ffi" unicode="ffi" horiz-adv-x="978" 
d="M874 480h-290l-111 -480h-57l111 480h-300l-111 -480h-57l111 480h-91l12 52h91l23 103c10.667 48.667 26.834 82 48.5 100c21.667 18 54.5 27 98.5 27h75l-11 -52h-59c-32.667 0 -55.167 -6 -67.5 -18s-21.833 -32.333 -28.5 -61l-22 -99h300l23 103
c10.6689 48.667 26.8359 82 48.5 100c21.667 18 54.5 27 98.5 27h75l-11 -52h-59c-32.667 0 -55.167 -6 -67.5 -18s-21.833 -32.333 -28.5 -61l-22 -99h348l-123 -532h-57z" />
    <glyph glyph-name="ffl" unicode="ffl" horiz-adv-x="967" 
d="M764 0l110 480h-290l-111 -480h-57l111 480h-300l-111 -480h-57l111 480h-91l12 52h91l23 103c10.667 48.667 26.834 82 48.5 100c21.667 18 54.5 27 98.5 27h75l-11 -52h-59c-32.667 0 -55.167 -6 -67.5 -18s-21.833 -32.333 -28.5 -61l-22 -99h300l23 103
c10.6689 48.667 26.8359 82 48.5 100c21.667 18 54.5 27 98.5 27h75l-11 -52h-59c-32.667 0 -55.167 -6 -67.5 -18s-21.833 -32.333 -28.5 -61l-22 -99h290l53 230h58l-176 -762h-57z" />
    <glyph glyph-name="T_h" unicode="Th" horiz-adv-x="1252" 
d="M720 697h-262l-160 -697h-62l161 697h-262l12 53h585zM1050 542c50 0 87.5 -12.5 112.5 -37.5s37.5 -56.833 37.5 -95.5c0 -15.333 -2 -31 -6 -47l-83 -362h-57l79 344c3.33301 15.333 5 30 5 44c0 30 -8.33301 54.5 -25 73.5c-16.6709 19 -43.3379 28.5 -80.001 28.5
c-50 0 -95 -20.167 -135 -60.5s-68 -95.5 -84 -165.5l-61 -264h-58l175 762h57l-74 -320c46.668 66.667 112.335 100 197.001 100z" />
    <glyph glyph-name="f_f_j" unicode="ffj" horiz-adv-x="973" 
d="M943 532l-141 -616c-10.667 -46.667 -28.5 -78.667 -53.5 -96s-55.833 -26 -92.5 -26h-39l12 52h31c46 0 75.333 28.333 88 85l126 549h-290l-111 -480h-57l111 480h-300l-111 -480h-57l111 480h-91l12 52h91l23 103c10.667 48.667 26.834 82 48.5 100
c21.667 18 54.5 27 98.5 27h75l-11 -52h-59c-32.667 0 -55.167 -6 -67.5 -18s-21.833 -32.333 -28.5 -61l-22 -99h300l23 103c10.6689 48.667 26.8359 82 48.5 100c21.667 18 54.5 27 98.5 27h75l-11 -52h-59c-32.667 0 -55.167 -6 -67.5 -18s-21.833 -32.333 -28.5 -61
l-22 -99h347z" />
    <glyph glyph-name="f_f_t" unicode="fft" horiz-adv-x="1062" 
d="M932 480l-80 -342c-3.33301 -15.333 -5 -27.666 -5 -36.999c0 -32.667 19 -49 57 -49h70l-12 -52h-75c-33.3369 0 -58.1699 8.16699 -74.5 24.5c-16.333 16.333 -24.5 38.166 -24.5 65.499c0 13.333 1.33301 25.333 4 36l82 354h-290l-111 -480h-57l111 480h-300
l-111 -480h-57l111 480h-91l12 52h91l23 103c10.667 48.667 26.834 82 48.5 100c21.667 18 54.5 27 98.5 27h75l-11 -52h-59c-32.667 0 -55.167 -6 -67.5 -18s-21.833 -32.333 -28.5 -61l-22 -99h300l23 103c10.6689 48.667 26.8359 82 48.5 100c21.667 18 54.5 27 98.5 27
h75l-11 -52h-59c-32.667 0 -55.167 -6 -67.5 -18s-21.833 -32.333 -28.5 -61l-22 -99h289l36 156l61 17l-39 -173h129l-11 -52h-129z" />
    <glyph glyph-name="f_j" unicode="fj" horiz-adv-x="626" 
d="M596 532l-141 -616c-10.667 -46.667 -28.5 -78.667 -53.5 -96s-55.833 -26 -92.5 -26h-39l12 52h31c46 0 75.333 28.333 88 85l126 549h-300l-111 -480h-57l111 480h-91l12 52h91l23 103c10.667 48.667 26.834 82 48.5 100c21.667 18 54.5 27 98.5 27h75l-11 -52h-59
c-32.667 0 -55.167 -6 -67.5 -18s-21.833 -32.333 -28.5 -61l-22 -99h357z" />
    <glyph glyph-name="f_t" unicode="ft" horiz-adv-x="715" 
d="M585 480l-80.001 -342c-3.33301 -15.333 -5 -27.666 -5 -36.999c0 -32.667 19 -49 57 -49h70l-12 -52h-75c-33.333 0 -58.166 8.16699 -74.499 24.5s-24.5 38.166 -24.5 65.499c0 13.333 1.33301 25.333 4 36l82 354h-300l-111 -480h-57l111 480h-91l12 52h91l23 103
c10.667 48.667 26.834 82 48.5 100c21.667 18 54.5 27 98.5 27h75l-11 -52h-59c-32.667 0 -55.167 -6 -67.5 -18s-21.833 -32.333 -28.5 -61l-22 -99h299l36 156l61 17l-39 -173h129l-11 -52h-129z" />
    <glyph glyph-name="t_t" unicode="tt" horiz-adv-x="715" 
d="M585 480l-80.002 -342c-3.33301 -15.333 -5 -27.666 -5 -36.999c0 -32.667 19 -49 57 -49h70l-12 -52h-75c-33.333 0 -58.166 8.16699 -74.499 24.5s-24.5 38.166 -24.5 65.499c0 13.333 1.33301 25.333 4 36l82 354h-289l-80 -342
c-3.33301 -15.333 -5 -27.666 -5 -36.999c0 -32.667 19 -49 57 -49h70l-12 -52h-75c-33.333 0 -58.166 8.16699 -74.499 24.5s-24.5 38.166 -24.5 65.499c0 13.333 1.33301 25.333 4 36l82 354h-109l11 52h109l36 156l61 17l-39 -173h289l36 156l61 17l-39 -173h129l-11 -52
h-129z" />
    <glyph glyph-name=".notdef" horiz-adv-x="520" 
 />
    <glyph glyph-name="CR" unicode="&#xd;" horiz-adv-x="540" 
 />
    <glyph glyph-name="space" unicode=" " horiz-adv-x="240" 
 />
    <glyph glyph-name="exclam" unicode="!" horiz-adv-x="264" 
d="M113 0h-84l20 88h84zM140 212h-42l36 210l76 328h66l-76 -328z" />
    <glyph glyph-name="quotedbl" unicode="&#x22;" horiz-adv-x="390" 
d="M359 496h-49l51 292h89zM199 496h-49l51 292h89z" />
    <glyph glyph-name="numbersign" unicode="#" horiz-adv-x="700" 
d="M466 459h-156l-37 -161h155zM517 459l-37 -161h167v-43h-176l-59 -255h-52l59 255h-155l-59 -255h-52l59 255h-124v43h134l37 161h-155v43h165l55 238h51l-55 -238h156l55 238h51l-55 -238h136v-43h-146z" />
    <glyph glyph-name="dollar" unicode="$" horiz-adv-x="660" 
d="M510 194c0 36 -12 65.167 -36 87.5c-24 22.334 -58.333 43.167 -103 62.5l-90 -299c13.333 -2 27 -3 41 -3c55.333 0 100.5 14.333 135.5 43s52.5 65 52.5 109zM343 417l86 288c-20 2.66699 -36.333 4 -49 4c-52.667 0 -94.334 -13.167 -125 -39.5
c-30.667 -26.333 -46 -60.833 -46 -103.5c0 -36 11.167 -64.833 33.5 -86.5s55.833 -42.5 100.5 -62.5zM636 564l-62.998 -0.00195312c-1.33301 26 -10.5 50.5 -27.5 73.5s-40.5 40.833 -70.5 53.5l-88 -293c30.667 -12.667 54.5 -23.5 71.5 -32.5s35.667 -21.333 56 -37
s35.166 -34 44.499 -55s14 -45.167 14 -72.5c0 -64.667 -25 -116.167 -75 -154.5s-110 -57.5 -180 -57.5c-20.667 0 -38 1.33301 -52 4l-39 -129h-50l42 139c-54 16.667 -94.333 45.167 -121 85.5s-40 82.5 -40 126.5c0 2 0.166992 5 0.5 9s0.5 6.66699 0.5 8h62
c0 -1.33496 -0.166992 -3.66797 -0.5 -7c-0.333008 -3.33301 -0.5 -6 -0.5 -8c0 -33.333 9.66699 -65.166 29 -95.499s48 -52.166 86 -65.499l92 307c-28 12 -50.667 23 -68 33c-17.334 10 -35.167 23 -53.5 39s-32 34.667 -41 56s-13.5 46 -13.5 74
c0 59.333 20.167 107 60.5 143s97.166 54 170.499 54c20 0 41 -1.66699 63 -5l30 102h50l-34 -114c43.333 -14.667 77.5 -38 102.5 -70s39.167 -69 42.5 -111z" />
    <glyph glyph-name="percent" unicode="%" horiz-adv-x="1042" 
d="M916 163c0 36.667 -11.333 66.5 -34 89.5s-51 34.5 -85 34.5s-62.167 -11.5 -84.5 -34.5s-33.5 -52.833 -33.5 -89.5c0 -37.333 11.167 -67.666 33.5 -90.999s50.5 -35 84.5 -35s62.333 11.667 85 35s34 53.666 34 90.999zM622 162c0 51.333 16.667 93.333 50 126
s74.333 49 123 49c51.333 0 93.833 -16.167 127.5 -48.5s50.5 -74.5 50.5 -126.5c0 -50.667 -17 -92.667 -51 -126s-76.333 -50 -127 -50c-48.667 0 -89.667 16.667 -123 50s-50 75.333 -50 126zM453 586c0 36.667 -11.333 66.5 -34 89.5s-51 34.5 -85 34.5
s-62.167 -11.5 -84.5 -34.5s-33.5 -52.833 -33.5 -89.5c0 -37.334 11.167 -67.667 33.5 -90.999c22.333 -23.333 50.5 -35 84.5 -35s62.333 11.667 85 35s34 53.666 34 90.999zM285 0h-60l645 750h60zM159 585c0 51.333 16.667 93.333 50 126s74.333 49 123 49
c51.333 0 93.833 -16.167 127.5 -48.5s50.5 -74.5 50.5 -126.5c0 -50.667 -17 -92.667 -51 -126s-76.333 -50 -127 -50c-48.667 0 -89.667 16.667 -123 50c-33.333 33.334 -50 75.334 -50 126z" />
    <glyph glyph-name="ampersand" unicode="&#x26;" horiz-adv-x="772" 
d="M295 41c34 0 68.333 7.5 103 22.5s65 37.167 91 66.5l-177 235c-123.333 -24 -185 -80 -185 -168c0 -48 16 -86 48 -114s72 -42 120 -42zM268 571c0 -38 13 -74.334 39 -109.001l35 -46c61.333 6.66699 108.333 25.834 141 57.501s49 67.167 49 106.5
c0 38.667 -12.167 68.5 -36.5 89.5s-54.5 31.5 -90.5 31.5c-37.333 0 -69.5 -11.333 -96.5 -34s-40.5 -54.667 -40.5 -96zM665 370.999l-6.00195 -23.998c-24.667 -98.667 -58.667 -171.667 -102 -219l94 -128h-68l-62 83c-29.333 -30 -64.166 -53.333 -104.499 -70
s-81.5 -25 -123.5 -25c-62.667 0 -116 17.667 -160 53s-66 83.666 -66 144.999c0 52 17.5 98.333 52.5 139s90.5 67 166.5 79l-22 30c-35.333 48 -53 94.333 -53 138.999c0 56 19.167 99.5 57.5 130.5c38.334 31 84.167 46.5 137.5 46.5c51.334 0 94.667 -14.333 130 -43
s53 -68.667 53 -120c0 -50 -18.833 -95.333 -56.5 -136s-91.5 -66 -161.5 -76l156 -206c32.668 46 57.335 102.667 74.001 170l8 32h56z" />
    <glyph glyph-name="quotesingle" unicode="'" horiz-adv-x="229" 
d="M189 496h-49l51 292h89z" />
    <glyph glyph-name="parenleft" unicode="(" horiz-adv-x="407" 
d="M114 232c0 -164.667 52.333 -291.666 157 -380.999l-31 -36c-55.333 42 -99.166 98.167 -131.499 168.5s-48.5 151.166 -48.5 242.499c0 139.333 37.667 263.833 113 373.5s178.666 198.167 309.999 265.5l24 -38c-262 -146 -393 -344.333 -393 -595z" />
    <glyph glyph-name="parenright" unicode=")" horiz-adv-x="407" 
d="M318 448c0 164.667 -52.333 291.667 -157 381l31 36c55.333 -42 99.166 -98.167 131.499 -168.5c32.333 -70.334 48.5 -151.167 48.5 -242.5c0 -139.333 -37.667 -263.833 -113 -373.5s-178.666 -198.167 -309.999 -265.5l-24 38c262 146 393 344.333 393 595z" />
    <glyph glyph-name="asterisk" unicode="*" horiz-adv-x="441" 
d="M401 525l-52 -34l-55 103l-83 -105l-43 36l92 97l-114 37l23 52l111 -45l11 127h62l-26 -127l120 43l14 -52l-126 -37z" />
    <glyph glyph-name="plus" unicode="+" horiz-adv-x="520" 
d="M469 266h-179l-44 -193h-59l44 193h-182l14 53h181l44 193h59l-44 -193h180z" />
    <glyph glyph-name="comma" unicode="," horiz-adv-x="235" 
d="M155 91l-21 -89c-12.667 -53.333 -32.167 -92 -58.5 -116s-64.5 -40.667 -114.5 -50l-10 41c40 8 70.833 22.333 92.5 43s35.5 49.667 41.5 87h-43l21 84h92z" />
    <glyph glyph-name="hyphen" unicode="-" horiz-adv-x="428" 
d="M388 349l-12 -52h-308l12 52h308z" />
    <glyph glyph-name="period" unicode="." horiz-adv-x="211" 
d="M100 0h-91l21 91h91z" />
    <glyph glyph-name="slash" unicode="/" horiz-adv-x="471" 
d="M561 830l-544 -922h-60l544 922h60z" />
    <glyph glyph-name="zero" unicode="0" horiz-adv-x="620" 
d="M274 46c36 0 68.833 11.5 98.5 34.5s53.5 51.667 71.5 86s33.167 72.833 45.5 115.5s21 82.5 26 119.5s7.5 70.833 7.5 101.5c0 58 -10.5 104.167 -31.5 138.5s-54.5 51.5 -100.5 51.5c-36 0 -68.667 -11.667 -98 -35s-53 -52.333 -71 -87s-33 -73.667 -45 -117
s-20.333 -83.333 -25 -120s-7 -70.334 -7 -101c0 -124.667 43 -187 129 -187zM270 -12c-122.667 0 -184 86.667 -184 260c0 54 5.83301 108.667 17.5 164s29 109 52 161s55.333 94.5 97 127.5s89.5 49.5 143.5 49.5c123.333 0 185 -88 185 -264
c0 -55.333 -6 -110.833 -18 -166.5s-29.833 -109 -53.5 -160s-56.334 -92.333 -98 -124c-41.667 -31.667 -88.834 -47.5 -141.5 -47.5z" />
    <glyph glyph-name="one" unicode="1" horiz-adv-x="620" 
d="M459 0h-412l11 50h178l143 616c-20.667 -16.667 -43.834 -31 -69.5 -43c-25.667 -12 -48 -20.667 -67 -26s-42.5 -11 -70.5 -17l13 57c76.667 16.667 146.667 50 210 100h56l-158 -687h177z" />
    <glyph glyph-name="two" unicode="2" horiz-adv-x="620" 
d="M535 55l-11 -55.001h-509l13 56l209 161c16.667 12.667 39.5 29.834 68.5 51.5c29 21.667 50.667 38.167 65 49.5c14.334 11.333 32.167 25.833 53.5 43.5c21.334 17.667 37.167 32.834 47.499 45.501c10.334 12.667 21.167 27 32.499 43
c11.333 16 19.333 32.167 24 48.5s7 33.5 7 51.5c0 45.333 -15.5 80.5 -46.5 105.5s-69.167 37.5 -114.5 37.5c-51.333 0 -98 -15.5 -140 -46.5s-67.333 -75.167 -76 -132.5h-66c12.667 76 46.667 134.333 102 175s117 61 185 61c60.667 0 112.167 -16.833 154.5 -50.5
s63.5 -79.5 63.5 -137.5c0 -32 -5 -61.333 -15 -88s-30.167 -55.834 -60.5 -87.5c-30.333 -31.667 -56.166 -56.5 -77.499 -74.5s-59.666 -49 -114.999 -93c-8.66797 -7.33398 -15.335 -12.667 -20 -16l-189 -148h415z" />
    <glyph glyph-name="three" unicode="3" horiz-adv-x="620" 
d="M607 577c0 -47.334 -15.6641 -89.499 -46.9971 -126.499c-31.334 -37 -75.334 -62.833 -132 -77.5c79.333 -34 119 -87.667 119 -161c0 -65.333 -26.5 -118.833 -79.5 -160.5s-116.5 -62.5 -190.5 -62.5c-40 0 -75.5 6.5 -106.5 19.5s-54.833 29.833 -71.5 50.5
s-29.167 42 -37.5 64s-12.5 44.333 -12.5 67c0 9.33301 1.33301 20.666 4 33.999h62c-2.66699 -10.667 -4 -22.334 -4 -35.001c0 -40 14.833 -74.5 44.5 -103.5s71.834 -43.5 126.501 -43.5c52 0 97.833 14.833 137.5 44.5s59.5 69.5 59.5 119.5
c0 41.333 -14.833 75.833 -44.5 103.5s-75.834 41.5 -138.501 41.5h-11l12 50h5c72 0 129.667 16.333 173 49s65 73.334 65 122.001c0 38.668 -13.833 68.835 -41.5 90.5c-27.667 21.667 -66.834 32.5 -117.501 32.5s-95.167 -14 -133.5 -42
c-38.334 -28 -60.167 -74.333 -65.5 -139h-63c5.33301 53.333 22.166 98.5 50.499 135.5s61.166 63 98.499 78c37.334 15 77.667 22.5 121 22.5c64 0 116.333 -14.833 157 -44.5s61 -72.5 61 -128.5z" />
    <glyph glyph-name="four" unicode="4" horiz-adv-x="620" 
d="M82 238h311l101 437zM580 185h-143l-42 -185h-57l43 187h-378l13 60l463 490h86l-116 -499h142z" />
    <glyph glyph-name="five" unicode="5" horiz-adv-x="620" 
d="M266 687l-75.002 -258c42.667 30 92.334 45 149.001 45c66 0 116.667 -20 152 -60s53 -89.333 53 -148c0 -72 -24.167 -136.167 -72.5 -192.5s-113.166 -84.5 -194.499 -84.5c-64.667 0 -118.667 18.5 -162 55.5s-65 86.5 -65 148.5c0 6 0.666992 16.333 2 31h61
c-2.66699 -11.333 -4 -24 -4 -38c0 -44 16.333 -78.667 49 -104s73 -38 121 -38c62 0 111.833 21 149.5 63s56.5 90.333 56.5 145c0 47.333 -14.667 87.333 -44 120s-72 49 -128 49c-51.333 0 -100 -20 -146 -60h-50l110 376h353l-11 -50h-304z" />
    <glyph glyph-name="six" unicode="6" horiz-adv-x="620" 
d="M343 418c-63.333 0 -113.666 -20.333 -150.999 -61s-56 -88.667 -56 -144c0 -47.333 14.667 -87.833 44 -121.5s71.666 -50.5 126.999 -50.5c64 0 114.667 21 152 63s56 90 56 144c0 48 -14.833 88.333 -44.5 121s-72.167 49 -127.5 49zM416 750
c56.667 0 104.335 -14.668 143.002 -44.001c38.667 -29.335 58 -70.668 58 -124c0 -10.667 -0.333008 -19 -1 -25h-56v11c0 44.667 -14.333 77 -43 97s-64.334 30 -107 30c-72.667 0 -136.834 -30.667 -192.501 -92s-87.167 -145.666 -94.5 -252.999
c23.333 39.333 54.833 70 94.5 92s84.167 33 133.5 33c71.333 0 126.166 -21.667 164.499 -65s57.5 -95 57.5 -155c0 -70 -24.333 -132 -73 -186s-114 -81 -196 -81c-79.333 0 -139.333 27.5 -180 82.5s-61 132.5 -61 232.5c0 71.334 10.333 136.167 31 194.5
s48 105.333 82 141s71.5 63.167 112.5 82.5s83.5 29 127.5 29z" />
    <glyph glyph-name="seven" unicode="7" horiz-adv-x="620" 
d="M641 677l-428 -677h-67l430 677h-458l14 60h524z" />
    <glyph glyph-name="eight" unicode="8" horiz-adv-x="620" 
d="M275 40c56 0 103.333 14.832 142 44.499s58 69.167 58 118.5c0 46.667 -15.833 83 -47.5 109s-69.834 39 -114.5 39c-53.333 0 -100.333 -15.167 -141 -45.5s-61 -72.166 -61 -125.499c0 -46 15 -80.833 45 -104.5s69.667 -35.5 119 -35.5zM198 553.999
c0 -42 14.833 -74.333 44.5 -97s65.5 -34 107.5 -34c47.333 0 88.833 13.5 124.5 40.5s53.5 63.5 53.5 109.5c0 40 -15.167 71 -45.5 93s-66.833 33 -109.5 33c-46.667 0 -87.5 -12.833 -122.5 -38.5s-52.5 -61.167 -52.5 -106.5zM418 377.999
c36 -14 65.167 -35.333 87.5 -64s33.5 -62.334 33.5 -101.001c0 -70 -26.667 -125 -80 -165s-115.333 -60 -186 -60c-63.333 0 -117 15.833 -161 47.5s-66 76.834 -66 135.501c0 53.333 18.5 100.333 55.5 141s85.833 67 146.5 79c-34 13.334 -61.333 34.167 -82 62.5
c-20.667 28.334 -31 60.834 -31 97.5c0 62 24.5 110.667 73.5 146s105.833 53 170.5 53c58.667 0 108.667 -14.833 150 -44.5s62 -71.5 62 -125.5c0 -48.667 -16.333 -92 -49 -130s-74 -62 -124 -72z" />
    <glyph glyph-name="nine" unicode="9" horiz-adv-x="620" 
d="M333 324c52.667 0 98.5 19.167 137.5 57.5s58.5 87.833 58.5 148.5c0 53.333 -18.167 94 -54.5 122s-75.833 42 -118.5 42c-62 0 -110.167 -19.167 -144.5 -57.5c-34.333 -38.334 -51.5 -84.167 -51.5 -137.5c0 -49.333 14.833 -90.833 44.5 -124.5
s72.5 -50.5 128.5 -50.5zM355 750c75.333 0 135.333 -25.3359 180 -76.0029s67 -125.667 67 -225c0 -60.667 -6.83301 -118.167 -20.5 -172.5s-33.667 -103.166 -60 -146.499s-61 -77.833 -104 -103.5s-91.5 -38.5 -145.5 -38.5c-65.333 0 -117 17.5 -155 52.5
s-58.667 81.833 -62 140.5h60c5.33301 -43.333 21.5 -77.333 48.5 -102s64.5 -37 112.5 -37c35.333 0 68 8 98 24s54.833 36.5 74.5 61.5s36.5 53 50.5 84s24 61.333 30 91s9 57.5 9 83.5c0 2 -0.166992 5 -0.5 9s-0.5 7 -0.5 9c-20 -45.333 -49 -79.166 -87 -101.499
s-78 -33.5 -120 -33.5c-74 0 -130.5 22.333 -169.5 67s-58.5 99.334 -58.5 164.001c0 68 22.5 126.667 67.5 176s106.833 74 185.5 74z" />
    <glyph glyph-name="colon" unicode=":" horiz-adv-x="231" 
d="M110 0h-91l21 91h91zM207 420h-91l21 91h91z" />
    <glyph glyph-name="semicolon" unicode=";" horiz-adv-x="284" 
d="M184 91l-21 -89c-12.667 -53.333 -32.167 -92 -58.5 -116s-64.5 -40.667 -114.5 -50l-10 41c40 8 70.833 22.333 92.5 43s35.5 49.667 41.5 87h-43l21 84h92zM259 420h-91l21 91h91z" />
    <glyph glyph-name="less" unicode="&#x3c;" horiz-adv-x="520" 
d="M508 481l-386 -202l282 -201l-31 -41l-313 222l11 48l415 220z" />
    <glyph glyph-name="equal" unicode="=" horiz-adv-x="521" 
d="M33 188l12 53h420l-12 -53h-420zM69 342l12 53h420l-12 -53h-420z" />
    <glyph glyph-name="greater" unicode="&#x3e;" horiz-adv-x="520" 
d="M11 83l386 202l-282 201l31 41l313 -222l-11 -48l-415 -220z" />
    <glyph glyph-name="question" unicode="?" horiz-adv-x="585" 
d="M266 88l-20 -88h-84l20 88h84zM589 606c0 -24 -4.00098 -46.002 -12.001 -66.002s-19.833 -37.333 -35.5 -52s-30.167 -26.667 -43.5 -36s-30.333 -19.333 -51 -30c-24 -12.667 -42.667 -23.167 -56 -31.5s-28.166 -19.333 -44.499 -33s-29.333 -29 -39 -46
s-17.167 -36.833 -22.5 -59.5l-14 -58h-56l16 66c4 16.667 9.16699 32.334 15.5 47.001s12.5 27.167 18.5 37.5s14.167 21 24.5 32s18.333 19.333 24 25s15.167 12.667 28.5 21s22 13.833 26 16.5s13.167 7.83398 27.5 15.501s22.5 11.834 24.5 12.501
c33.334 18 59.667 37.833 79 59.5c19.333 21.668 29 48.835 29 81.501c0 33.333 -12.833 59.166 -38.5 77.499s-58.167 27.5 -97.5 27.5c-51.333 0 -94.833 -12.667 -130.5 -38s-57.5 -62.333 -65.5 -111h-56c10 65.333 38.5 114.666 85.5 147.999s103.167 50 168.5 50
c58 0 105 -13 141 -39s54 -65 54 -117z" />
    <glyph glyph-name="at" unicode="@" horiz-adv-x="883" 
d="M365 90c50 0 94.667 27.8311 134 83.498s59 110.5 59 164.5c0 30.667 -8 55.334 -24 74.001s-39 28 -69 28c-52 0 -96.5 -25.167 -133.5 -75.5s-55.5 -104.166 -55.5 -161.499c0 -34 7.5 -61.333 22.5 -82s37.167 -31 66.5 -31zM543 659.998
c90.667 0 166 -23.834 226 -71.501s90 -117.167 90 -208.5c0 -83.333 -23.333 -159.666 -70 -228.999s-102.667 -104 -168 -104c-30 0 -54 7.83301 -72 23.5s-27 37.5 -27 65.5c-20.667 -30 -46 -53 -76 -69s-61.333 -24 -94 -24c-44.667 0 -78.167 14.5 -100.5 43.5
s-33.5 66.833 -33.5 113.5c0 72 23 137.5 69 196.5s105.667 88.5 179 88.5c72 0 114.333 -27 127 -81l30 72h65l-109 -272c-6 -14.667 -9 -29.667 -9 -45c0 -18 5 -32.833 15 -44.5s25 -17.5 45 -17.5c32 0 61.833 15.333 89.5 46s49 67.834 64 111.501
s22.5 86.167 22.5 127.5c0 72 -24.167 128.833 -72.5 170.5c-48.334 41.667 -112.167 62.5 -191.5 62.5c-60.667 0 -119.167 -12.667 -175.5 -38c-56.333 -25.334 -104.5 -58.667 -144.5 -99.999c-40 -41.333 -72 -88.833 -96 -142.5s-36 -108.167 -36 -163.5
c0 -80.667 24 -142.667 72 -186s108.333 -65 181 -65c44.667 0 88.667 8.33301 132 25l11 -39c-45.333 -23.333 -95.333 -35 -150 -35c-38 0 -74 5.5 -108 16.5s-65.5 27.833 -94.5 50.5s-52.167 53.834 -69.5 93.501s-26 85.5 -26 137.5
c0 65.333 13.667 128.166 41 188.499s63.833 112.666 109.5 156.999s99.5 79.666 161.5 105.999s126.333 39.5 193 39.5z" />
    <glyph glyph-name="A" unicode="A" horiz-adv-x="751" 
d="M553 273l-79 420l-254 -420h333zM563 220h-375l-133 -220h-67l458 750h71l147 -750h-60z" />
    <glyph glyph-name="B" unicode="B" horiz-adv-x="700" 
d="M121 54h213c67.333 0 120.833 16.333 160.5 49s59.5 75.667 59.5 129c0 44 -13.5 78 -40.5 102s-64.167 36 -111.5 36h-209zM206 423h200c58.667 0 106.5 16 143.5 48s55.5 70.667 55.5 116c0 36.667 -12.667 64.167 -38 82.5s-61 27.5 -107 27.5h-191zM507 395
c34 -12 61.5 -32.166 82.5 -60.499s31.5 -63.5 31.5 -105.5c0 -67.333 -27.333 -122.5 -82 -165.5s-127 -64.5 -217 -64.5h-3l-270 1l173 750h261c56.667 0 101.167 -15.333 133.5 -46s48.5 -69 48.5 -115c0 -42.667 -13.667 -82.834 -41 -120.501
s-66.333 -62.167 -117 -73.5z" />
    <glyph glyph-name="C" unicode="C" horiz-adv-x="799" 
d="M663 242l65.002 -0.00195312c-17.333 -80.667 -56.333 -144.5 -117 -191.5s-131 -70.5 -211 -70.5c-96.667 0 -171.334 33.5 -224.001 100.5s-79 149.167 -79 246.5c0 42.667 5.16699 84.834 15.5 126.501s26.166 81.334 47.499 119.001s47 71 77 100
s66.333 52.167 109 69.5s89 26 139 26c80 0 145.5 -20.5 196.5 -61.5s77.167 -97.5 78.5 -169.5h-63c-3.33594 52.667 -24.6689 94.834 -64 126.5c-39.333 31.667 -90 47.5 -152 47.5c-50.667 0 -96.834 -11.333 -138.5 -34c-41.667 -22.667 -75.5 -52.334 -101.5 -89.001
s-46 -77.167 -60 -121.5s-21 -89.5 -21 -135.5c0 -82 21.167 -151.333 63.5 -208s102.5 -85 180.5 -85c61.333 0 116.5 17.833 165.5 53.5s80.167 85.834 93.5 150.501z" />
    <glyph glyph-name="D" unicode="D" horiz-adv-x="749" 
d="M122 54l135 0.000976562c49.334 0 95.667 7.5 139 22.5s80.5 35.333 111.5 61s57.667 55 80 88s39 67.667 50 104s16.5 72.833 16.5 109.5c0 73.333 -22 134.666 -66 183.999s-107.667 74 -191 74h-127zM222 750.001l182.002 -0.000976562
c68 0 126.333 -14.833 174.999 -44.5c48.667 -29.667 84 -67.5 106 -113.5s33 -97.333 33 -154c0 -52.667 -10.167 -104.667 -30.5 -156s-49.333 -98.166 -87 -140.499s-86.334 -76.5 -146.001 -102.5s-125.5 -39 -197.5 -39h-208z" />
    <glyph glyph-name="E" unicode="E" horiz-adv-x="630" 
d="M671 750l-12 -53h-390l-67 -291h360l-12 -54h-360l-69 -298h410l-12 -54h-470l173 750h449z" />
    <glyph glyph-name="F" unicode="F" horiz-adv-x="608" 
d="M222 750h448l-12 -53h-389l-67 -291h370l-13 -54h-369l-81 -352h-60z" />
    <glyph glyph-name="G" unicode="G" horiz-adv-x="802" 
d="M640 0l-55.002 -0.00292969l23 101c-62 -80 -141.333 -120 -238 -120c-87.333 0 -155 32.167 -203 96.5s-72 143.833 -72 238.5c0 54.667 8.5 108.334 25.5 161.001c17 52.668 41.333 100.835 73 144.501c31.667 43.667 73.334 79 125.001 106s108.834 40.5 171.501 40.5
c80 0 145.5 -20.5 196.5 -61.5s77.167 -97.5 78.5 -169.5h-63c-3.33496 52.667 -24.668 94.834 -64 126.5c-39.333 31.667 -90.333 47.5 -153 47.5c-68.667 0 -128.5 -19.833 -179.5 -59.5s-88.5 -88.667 -112.5 -147s-36 -120.5 -36 -186.5
c0 -81.333 19.333 -148.833 58 -202.5s93.667 -80.5 165 -80.5c65.333 0 122.833 23.833 172.5 71.5c49.668 47.667 84.835 117.834 105.5 210.501h-260l14 54h313z" />
    <glyph glyph-name="H" unicode="H" horiz-adv-x="756" 
d="M595 0h-61l80 351h-423l-81 -351h-61l173 750h61l-79 -345h423l80 345h61z" />
    <glyph glyph-name="I" unicode="I" horiz-adv-x="282" 
d="M227 750h62l-173 -750h-62z" />
    <glyph glyph-name="J" unicode="J" horiz-adv-x="536" 
d="M557 750l-131 -572c-15.333 -66 -42.833 -115.5 -82.5 -148.5s-86.167 -49.5 -139.5 -49.5c-52.667 0 -96.167 14.5 -130.5 43.5s-51.5 68.167 -51.5 117.5c0 16 2 33 6 51l12 50h60l-11 -48c-4 -17.334 -6 -32.667 -6 -46c0 -36 10.833 -64 32.5 -84
s50.167 -30 85.5 -30c86 0 140.333 49.333 163 148l131 568h62z" />
    <glyph glyph-name="K" unicode="K" horiz-adv-x="683" 
d="M386 448l216 -448h-68l-196 407l-167 -144l-61 -263h-60l172 750h61l-92 -398l465 398h82z" />
    <glyph glyph-name="L" unicode="L" horiz-adv-x="588" 
d="M222 750h62l-161 -696h386l-13 -54h-447z" />
    <glyph glyph-name="M" unicode="M" horiz-adv-x="939" 
d="M778 0h-59l155 698l-434 -698h-49l-121 708l-156 -708h-58l166 750h98l113 -660l407 660h104z" />
    <glyph glyph-name="N" unicode="N" horiz-adv-x="767" 
d="M606 0h-63l-279 679l-155 -679h-58l171 750h76l270 -660l151 660h58z" />
    <glyph glyph-name="O" unicode="O" horiz-adv-x="838" 
d="M488 713c-96 0 -174.999 -36.832 -236.999 -110.499s-93 -164.5 -93 -272.5c0 -90 22.667 -161.333 68 -214s107.666 -79 186.999 -79c96 0 174.5 37.167 235.5 111.5s91.5 165.166 91.5 272.499c0 88.667 -22.167 159.5 -66.5 212.5
c-44.334 53 -106.167 79.5 -185.5 79.5zM412.001 -18.999c-93.333 0 -169 32.1689 -227 96.502s-87 148.166 -87 251.499c0 119.334 36.833 222.334 110.5 309c73.667 86.667 166.167 130 277.5 130c94.667 0 170.834 -32.333 228.5 -97
c57.667 -64.667 86.5 -148.334 86.5 -251.001c0 -77.333 -16.5 -149.333 -49.5 -216s-79.5 -120.5 -139.5 -161.5s-126.667 -61.5 -200 -61.5z" />
    <glyph glyph-name="P" unicode="P" horiz-adv-x="638" 
d="M195 374h189.001c63.333 0 113.333 18.667 150 56c36.667 37.334 55 80.667 55 130c0 40 -12.333 73.167 -37 99.5s-61.334 39.5 -110.001 39.5h-172zM222.001 750h232c64 0 113 -17.333 147 -52s51 -77.667 51 -129c0 -64.667 -25 -121.834 -75 -171.5
c-50 -49.667 -117.667 -74.5 -203 -74.5h-190l-75 -323h-60z" />
    <glyph glyph-name="Q" unicode="Q" horiz-adv-x="838" 
d="M477 289l92.002 -209c53.333 32 95.166 78.333 125.499 139s45.5 128 45.5 202c0 88.667 -22.167 159.5 -66.5 212.5c-44.334 53 -106.167 79.5 -185.5 79.5c-96 0 -175 -36.833 -237 -110.5s-93 -164.5 -93 -272.5c0 -90 22.667 -161.333 68 -214
s107.666 -79 186.999 -79c37.333 0 72 6 104 18l-106 234h66zM801.002 420c0 -82 -18.833 -158.166 -56.5 -228.499s-88.5 -124.166 -152.5 -161.499l73 -166h-62l-63 141c-38.667 -16 -81.334 -24 -128 -24c-93.333 0 -169 32.167 -227 96.5s-87 148.166 -87 251.499
c0 119.334 36.833 222.334 110.5 309c73.667 86.667 166.167 130 277.5 130c94.667 0 170.834 -32.333 228.5 -97c57.667 -64.667 86.5 -148.334 86.5 -251.001z" />
    <glyph glyph-name="R" unicode="R" horiz-adv-x="664" 
d="M197 382h204c60 0 108.333 17.5 145 52.5s55 76.5 55 124.5c0 40.667 -12.833 74.167 -38.5 100.5s-63.5 39.5 -113.5 39.5h-179zM664 569c0 -58 -20.167 -109.167 -60.5 -153.5s-95.5 -69.5 -165.5 -75.5l145 -340h-66l-141 331h-191l-76 -331h-60l173 750h251
c60.667 0 107.667 -17.167 141 -51.5s50 -77.5 50 -129.5z" />
    <glyph glyph-name="S" unicode="S" horiz-adv-x="654" 
d="M387 768c77.333 0 138.996 -19.002 184.996 -57.002s70.667 -87 74 -147h-64c-2 40.667 -20.833 76 -56.5 106s-82.5 45 -140.5 45c-53.333 0 -95.833 -13.333 -127.5 -40s-47.5 -62 -47.5 -106c0 -41.334 13.833 -73.334 41.5 -96
c27.667 -22.668 71.167 -46.335 130.5 -71.001c27.333 -11.333 47.833 -20.166 61.5 -26.499s31 -16 52 -29s36.667 -25.667 47 -38s19.5 -28.166 27.5 -47.499c8 -19.334 12 -40.667 12 -64c0 -66 -25.667 -118.5 -77 -157.5s-112.666 -58.5 -183.999 -58.5
c-45.333 0 -85.666 7.16699 -120.999 21.5s-63.166 33 -83.499 56s-35.5 47.5 -45.5 73.5s-15 52.333 -15 79c0 9.33301 0.333008 16.333 1 21h64c-0.666992 -4 -1 -10.333 -1 -19c0 -46 17.333 -87 52 -123s86 -54 154 -54c56 0 101.833 14.5 137.5 43.5
s53.5 65.5 53.5 109.5c0 17.333 -3.33301 33.5 -10 48.5s-14.5 27.5 -23.5 37.5s-21.833 20.333 -38.5 31s-31.167 18.834 -43.5 24.501s-29.166 13.167 -50.499 22.5c-32.667 14 -58.167 25.833 -76.5 35.5s-38.5 23 -60.5 40s-38 37 -48 60s-15 49.5 -15 79.5
c0 60.667 20.667 109.167 62 145.5s99.333 54.5 174 54.5z" />
    <glyph glyph-name="T" unicode="T" horiz-adv-x="660" 
d="M720 697h-262l-160 -697h-62l161 697h-262l12 53h585z" />
    <glyph glyph-name="U" unicode="U" horiz-adv-x="745" 
d="M766 750l-117.999 -514.999c-19.333 -84.667 -54.833 -148.167 -106.5 -190.5s-115.167 -63.5 -190.5 -63.5c-76.667 0 -138.334 20.333 -185.001 61s-70 95.667 -70 165c0 24 3 49 9 75l107 468h60l-106 -463c-6 -28 -9 -53.333 -9 -76
c0 -56.667 17 -99.834 51 -129.501s81 -44.5 141 -44.5c62 0 113.667 16.5 155 49.5s69 79.833 83 140.5l120 523h59z" />
    <glyph glyph-name="V" unicode="V" horiz-adv-x="656" 
d="M339 0h-68l-129 750h63l109 -681l348 681h66z" />
    <glyph glyph-name="W" unicode="W" horiz-adv-x="1015" 
d="M749 0h-68l-85 666l-317 -666h-68l-64 750h58l51 -680l318 680h67l86 -679l285 679h65z" />
    <glyph glyph-name="X" unicode="X" horiz-adv-x="688" 
d="M583 0h-67l-137 329l-304 -329h-82l360 388l-155 362h67l130 -320l286 320h78l-337 -375z" />
    <glyph glyph-name="Y" unicode="Y" horiz-adv-x="634" 
d="M298 0h-62l65 290l-159 460h62l136 -409l303 409h73l-355 -466z" />
    <glyph glyph-name="Z" unicode="Z" horiz-adv-x="694" 
d="M695 697l-580 -643h480l-12 -54h-553l12 54l579 643h-451l12 53h525z" />
    <glyph glyph-name="bracketleft" unicode="[" horiz-adv-x="356" 
d="M418 803h-143l-212 -925h143l-10 -40h-195l232 1005h195z" />
    <glyph glyph-name="backslash" unicode="\" horiz-adv-x="473" 
d="M227 830l118 -922h-54l-118 922h54z" />
    <glyph glyph-name="bracketright" unicode="]" horiz-adv-x="356" 
d="M-38 -122h143l212 925h-143l10 40h195l-232 -1005h-195z" />
    <glyph glyph-name="asciicircum" unicode="^" horiz-adv-x="499" 
d="M350 690l-177 -223h-67l227 283h55l97 -283h-59z" />
    <glyph glyph-name="underscore" unicode="_" horiz-adv-x="641" 
d="M505 -21l-13 -52h-500l13 52h500z" />
    <glyph glyph-name="grave" unicode="`" horiz-adv-x="159" 
d="M126 812l62 20l57 -192h-45z" />
    <glyph glyph-name="a" unicode="a" horiz-adv-x="563" 
d="M419 249l8.00098 42.002c-25.333 -12 -59.333 -20 -102 -24l-79 -8c-18.667 -2 -36 -5.33301 -52 -10s-32 -11.334 -48 -20.001s-28.667 -20.834 -38 -36.501s-14 -34.167 -14 -55.5c0 -32 10 -56.167 30 -72.5s44.333 -24.5 73 -24.5c45.333 0 90.666 19.5 135.999 58.5
s74 89.167 86 150.5zM329.001 542.002c62.667 0 108.501 -13.668 137.501 -41.001s43.5 -61 43.5 -101c0 -11.333 -1.66699 -24.333 -5 -39l-84 -361h-57l23 102c-23.333 -40 -52.833 -69 -88.5 -87s-71.834 -27 -108.501 -27c-42.667 0 -79.167 11.667 -109.5 35
s-45.5 60 -45.5 110c0 47.333 15.167 85.333 45.5 114s74.833 46.667 133.5 54l137 18c64.667 8 97 36 97 84c0 30.667 -11.5 53.334 -34.5 68.001s-53.167 22 -90.5 22c-86 0 -139 -35.333 -159 -106h-57c30 103.333 104 155 222 155z" />
    <glyph glyph-name="b" unicode="b" horiz-adv-x="620" 
d="M295 41c64 0 115.5 28.333 154.5 85s58.5 119 58.5 187c0 50 -11.833 91.167 -35.5 123.5s-59.5 48.5 -107.5 48.5c-64 0 -116 -28 -156 -84s-60 -117.667 -60 -185c0 -50 12.333 -91.667 37 -125s61 -50 109 -50zM379 542c62 0 108.833 -21.499 140.5 -64.499
s47.5 -96.167 47.5 -159.5c0 -53.333 -10.5 -104.833 -31.5 -154.5s-52.5 -91.334 -94.5 -125.001s-89.333 -50.5 -142 -50.5c-88.667 0 -148.667 44.333 -180 133l-28 -121h-57l176 762h57l-72 -315c48 63.333 109.333 95 184 95z" />
    <glyph glyph-name="c" unicode="c" horiz-adv-x="569" 
d="M276 44c42.667 0 77.501 13 104.501 39s45.833 59 56.5 99h58c-13.333 -58.667 -41.333 -105.667 -84 -141s-91.667 -53 -147 -53c-64.667 0 -114.667 23.667 -150 71s-53 104.666 -53 171.999c0 51.334 10.167 100.167 30.5 146.5s52.166 85.333 95.499 117
s94 47.5 152 47.5c58.667 0 105.5 -15.667 140.5 -47s52.167 -75.333 51.5 -132h-58c0 42 -13 73.5 -39 94.5s-58.667 31.5 -98 31.5c-66 0 -118.5 -26.167 -157.5 -78.5s-58.5 -111.5 -58.5 -177.5c0 -53.333 13.5 -98.166 40.5 -134.499s65.5 -54.5 115.5 -54.5z" />
    <glyph glyph-name="d" unicode="d" horiz-adv-x="625" 
d="M267 41c42.667 0 80.501 14.0029 113.501 42.0029s57.667 62.167 74 102.5s24.5 82.166 24.5 125.499c0 52 -12.333 94.833 -37 128.5s-61.334 50.5 -110 50.5h-4c-42.667 -0.667969 -80.334 -14.835 -113.001 -42.501c-32.667 -27.667 -57 -61.334 -73 -101
c-16 -39.667 -24 -80.834 -24 -123.501c0 -52 12.667 -95.333 38 -130s62.333 -52 111 -52zM475.001 0.00292969l-57.002 0.000976562l18 84c-43.333 -64 -103.333 -96 -180 -96c-63.333 0 -112 22.667 -146 68s-51 100.666 -51 165.999c0 52 10.333 102 31 150
s52.334 88.333 95.001 121s91.667 49 147 49c50.667 0 90.834 -12.833 120.501 -38.5s49.5 -56.5 59.5 -92.5l82 351h57z" />
    <glyph glyph-name="e" unicode="e" horiz-adv-x="570" 
d="M337 489c-47.333 0 -90.501 -15.5 -129.501 -46.5s-65.5 -76.833 -79.5 -137.5h342c3.33301 16.667 5 31.667 5 45c0 40.667 -11.667 74 -35 100s-57.666 39 -102.999 39zM515.999 253l-399.997 0.000976562c-1.33301 -14.667 -2 -26.334 -2 -35.001
c0 -48.667 12.167 -90.334 36.5 -125.001s63.166 -52 116.499 -52c38 0 71.667 9.83301 101 29.5s51.333 49.834 66 90.501h57c-20.667 -59.333 -51.334 -103 -92 -131c-40.667 -28 -86.667 -42 -138 -42c-64.667 0 -114.334 21 -149.001 63s-52 98.667 -52 170
c0 92 26.667 168.5 80 229.5s120.666 91.5 201.999 91.5c62 0 108.5 -18.333 139.5 -55s46.5 -84 46.5 -142c0 -30 -4 -60.667 -12 -92z" />
    <glyph glyph-name="f" unicode="f" horiz-adv-x="333" 
d="M416 710h-59c-32.667 0 -55.167 -6 -67.5 -18s-21.833 -32.333 -28.5 -61l-22 -99h120l-12 -52h-120l-111 -480h-57l111 480h-91l12 52h91l23 103c10.667 48.667 26.834 82 48.5 100c21.667 18 54.5 27 98.5 27h75z" />
    <glyph glyph-name="g" unicode="g" horiz-adv-x="611" 
d="M267 71c55.333 0 103.333 22.667 144 68s61 104 61 176c0 58 -13.333 102 -40 132s-61 45 -103 45c-53.333 0 -101.833 -21.833 -145.5 -65.5s-65.5 -102.834 -65.5 -177.5c0 -59.333 14 -103.833 42 -133.5s63.667 -44.5 107 -44.5zM588 532l-118 -506
c-38 -162.667 -125 -244 -261 -244c-59.333 0 -108.833 15 -148.5 45s-60.5 75.667 -62.5 137h55c2 -38.667 15.333 -70.334 40 -95.001s63 -37 115 -37c107.333 0 175 60.667 203 182l22 95c-40.667 -60 -97.667 -90 -171 -90c-57.333 0 -105.333 18.833 -144 56.5
s-58 92.167 -58 163.5c0 80.667 24.667 151.334 74 212.001s113.333 91 192 91c42.667 0 80 -10 112 -30s54.333 -50 67 -90l25 110h58z" />
    <glyph glyph-name="h" unicode="h" horiz-adv-x="592" 
d="M390 542c50 0 87.5 -12.5 112.5 -37.5s37.5 -56.833 37.5 -95.5c0 -15.333 -2 -31 -6 -47l-83 -362h-57l79 344c3.33301 15.333 5 30 5 44c0 30 -8.33301 54.5 -25 73.5c-16.668 19 -43.335 28.5 -80.001 28.5c-50 0 -95 -20.167 -135 -60.5s-68 -95.5 -84 -165.5
l-61 -264h-58l175 762h57l-74 -320c46.667 66.667 112.334 100 197.001 100z" />
    <glyph glyph-name="i" unicode="i" horiz-adv-x="259" 
d="M163 532h57l-123 -532h-57zM257 672h-69l18 78h69z" />
    <glyph glyph-name="j" unicode="j" horiz-adv-x="268" 
d="M237 532l-141 -616c-10.667 -46.667 -28.5 -78.667 -53.5 -96s-55.833 -26 -92.5 -26h-39l12 52h31c46 0 75.333 28.333 88 85l138 601h57zM221 750h67l-17 -79h-67z" />
    <glyph glyph-name="k" unicode="k" horiz-adv-x="535" 
d="M307 308l146 -308h-61l-129 270l-138 -123l-34 -147h-57l176 762h57l-122 -529l338 299h76z" />
    <glyph glyph-name="l" unicode="l" horiz-adv-x="236" 
d="M209 762h57l-176 -762h-57z" />
    <glyph glyph-name="m" unicode="m" horiz-adv-x="876" 
d="M673 542c50.667 0 88.501 -13 113.501 -39s37.5 -58.333 37.5 -97c0 -14 -1.33301 -26.333 -4 -37l-85 -369h-57l80 348c3.33301 15.333 5 29.333 5 42c0 30 -8 54.5 -24 73.5s-40.667 28.5 -74 28.5c-42 0 -79.833 -18.833 -113.5 -56.5s-57.834 -88.5 -72.501 -152.5
l-65 -283h-57l79 348c3.33301 15.334 5 29.667 5 43c0 30 -8.16699 54.333 -24.5 73s-41.5 28 -75.5 28c-40 0 -77 -19.333 -111 -58s-58 -88.667 -72 -150l-66 -284h-57l122 532h53l-18 -84c18 27.333 41.667 49.833 71 67.5s61 26.5 95 26.5
c39.333 0 71.333 -9.83301 96 -29.5s39 -47.167 43 -82.5c39.333 74.667 98 112 176 112z" />
    <glyph glyph-name="n" unicode="n" horiz-adv-x="590" 
d="M387 542c50 0 87.666 -12.5 112.999 -37.5s38 -56.833 38 -95.5c0 -15.333 -2 -31 -6 -47l-83 -362h-57l79 344c4 16 6 31.667 6 47c0 66 -35.333 99 -106 99c-49.333 0 -94.166 -19.833 -134.499 -59.5s-68.5 -95.167 -84.5 -166.5l-60 -264h-57l121 532h57l-21 -92
c51.333 68 116.333 102 195 102z" />
    <glyph glyph-name="o" unicode="o" horiz-adv-x="606" 
d="M327 488c-62 0 -111.832 -25.501 -149.499 -76.501s-56.5 -109.5 -56.5 -175.5c0 -54 13.667 -99.833 41 -137.5s67.666 -56.5 120.999 -56.5c61.333 0 111 24.833 149 74.5s57 107.834 57 174.501c0 54.667 -13.5 101.167 -40.5 139.5s-67.5 57.5 -121.5 57.5z
M332.001 541.999c72 0 126 -23.333 162 -70s54 -104.667 54 -174c0 -52 -9.66699 -101 -29 -147s-50 -84.667 -92 -116s-91.667 -47 -149 -47c-72 0 -126 23.167 -162 69.5s-54 103.833 -54 172.5c0 52 9.66699 101.167 29 147.5s50 85.333 92 117s91.667 47.5 149 47.5z
" />
    <glyph glyph-name="p" unicode="p" horiz-adv-x="619" 
d="M295 47c64 0 115.5 28.001 154.5 84.001s58.5 117.667 58.5 185c0 49.333 -11.833 90 -35.5 122s-59.5 48 -107.5 48c-64 0 -116 -27.833 -156 -83.5s-60 -116.834 -60 -183.501c0 -49.333 12.333 -90.333 37 -123s61 -49 109 -49zM379 542.001
c62 0 108.834 -21.333 140.501 -64s47.5 -95.334 47.5 -158c0 -52.667 -10.5 -103.5 -31.5 -152.5s-52.5 -90 -94.5 -123s-89.667 -49.5 -143 -49.5c-88 0 -147.667 43 -179 129l-76 -330h-57l170 738h58l-19 -84c47.333 62.667 108.666 94 183.999 94z" />
    <glyph glyph-name="q" unicode="q" horiz-adv-x="618" 
d="M268 48c62.667 0 113.667 27.668 153 83.001s59 116 59 182c0 50.667 -12.833 93 -38.5 127s-62.5 51 -110.5 51h-5c-62 -2 -112 -29.833 -150 -83.5s-57 -113.5 -57 -179.5c0 -50.667 12.667 -93.334 38 -128.001s62.333 -52 111 -52zM424 -205.999l-59 -0.000976562
l67 289c-44.667 -58 -103 -87 -175 -87c-63.333 0 -112 22.333 -146 67s-51 99.334 -51 164.001c0 51.333 10.333 100.5 31 147.5s52.167 86.667 94.5 119s90.833 48.5 145.5 48.5c48.667 0 88 -11.667 118 -35s50.667 -52 62 -86l24 111h59z" />
    <glyph glyph-name="r" unicode="r" horiz-adv-x="371" 
d="M392 485h-29c-50 0 -93.167 -17 -129.5 -51s-61.833 -83.333 -76.5 -148l-66 -286h-57l123 532h57l-23 -96c30 68 93.667 102 191 102h22z" />
    <glyph glyph-name="s" unicode="s" horiz-adv-x="523" 
d="M305 286c45.333 -13.333 80.334 -30.1709 105.001 -50.5039s37 -49.5 37 -87.5c0 -50 -20.333 -89.167 -61 -117.5s-88.667 -42.5 -144 -42.5c-56.667 0 -105.5 15 -146.5 45s-62.5 72.667 -64.5 128h61c3.33301 -39.333 20.166 -69.166 50.499 -89.499
s65.166 -30.5 104.499 -30.5c38.667 0 71.834 9.16699 99.501 27.5s41.5 42.5 41.5 72.5c0 25.333 -9.66699 44.666 -29 57.999s-46.333 25 -81 35c-22.667 6.66699 -40.167 12 -52.5 16s-28 10.5 -47 19.5s-33.333 18.5 -43 28.5s-18.334 22.833 -26.001 38.5
s-11.5 33.5 -11.5 53.5c0 48 18.333 85.333 55 112s82.667 40 138 40c34 0 65.333 -5 94 -15s53.334 -26.833 74.001 -50.5s31.667 -52.5 33 -86.5h-60c-4.66699 32.667 -20.5 57.5 -47.5 74.5s-59.167 25.5 -96.5 25.5c-38 0 -69.167 -8.5 -93.5 -25.5
s-36.5 -40.833 -36.5 -71.5c0 -8 0.833008 -15.333 2.5 -22c1.66699 -6.66992 4.5 -12.8369 8.5 -18.501c4 -5.66699 7.66699 -10.5 11 -14.5s8.66602 -8.16699 15.999 -12.5s13.333 -7.66602 18 -9.99902c4.66797 -2.33301 11.835 -5.16602 21.501 -8.49902
c9.66699 -3.33301 17 -5.66602 22 -6.99902s13.167 -3.66602 24.5 -6.99902s19 -5.66602 23 -6.99902z" />
    <glyph glyph-name="t" unicode="t" horiz-adv-x="368" 
d="M367 480h-129.001l-80 -342c-3.33301 -15.333 -5 -27.666 -5 -36.999c0 -32.667 19 -49 57 -49h70l-12 -52h-75c-33.333 0 -58.166 8.16699 -74.499 24.5s-24.5 38.166 -24.5 65.499c0 13.333 1.33301 25.333 4 36l82 354h-109l11 52h109l36 156l61 17l-39 -173h129z" />
    <glyph glyph-name="u" unicode="u" horiz-adv-x="588" 
d="M441 0l-57 -0.00292969l23 98c-50.667 -69.333 -114.334 -104 -191 -104c-50.667 0 -88.334 13.333 -113.001 40s-37 60.334 -37 101.001c0 16.667 2 33.334 6 50.001l79 347h57l-77 -338c-4 -18.667 -6 -36.667 -6 -54c0 -64.667 33 -97 99 -97
c48.667 0 93.334 18.833 134.001 56.5s69 90.834 85 159.501l64 273h57z" />
    <glyph glyph-name="v" unicode="v" horiz-adv-x="529" 
d="M252 0h-65l-86 532h56l73 -479l274 479h61z" />
    <glyph glyph-name="w" unicode="w" horiz-adv-x="854" 
d="M593 0h-63l-54 448l-242 -448h-63l-65 532h56l51 -472l247 472h60l52 -472l246 472h62z" />
    <glyph glyph-name="x" unicode="x" horiz-adv-x="567" 
d="M466 0h-59l-122 222l-214 -222h-77l264 269l-142 263h62l118 -227l213 227h74l-259 -268z" />
    <glyph glyph-name="y" unicode="y" horiz-adv-x="535" 
d="M571 532l-368.999 -639c-26.667 -46 -68.334 -69 -125.001 -69h-67l12 52h45c28 0 48.333 5 61 15s28 30.333 46 61l40 67l-118 513h59l97 -448l258 448h61z" />
    <glyph glyph-name="z" unicode="z" horiz-adv-x="540" 
d="M101 52h345l-12 -52h-417l12 53l418 427h-328l13 52h400l-11 -51z" />
    <glyph glyph-name="braceleft" unicode="{" horiz-adv-x="381" 
d="M321 759l-69 -298.998c-10.667 -45.333 -27.667 -77.5 -51 -96.5s-51.666 -30.167 -84.999 -33.5c52.667 -16.667 79 -49 79 -97c0 -12 -1.33301 -23.333 -4 -34l-61 -263c-4.66699 -19.333 -7 -36.333 -7 -51c0 -21.333 5.5 -35 16.5 -41s29.167 -9 54.5 -9h37l-10 -42
h-59c-60.667 0 -91 29.667 -91 89c0 17.333 2.33301 35.666 7 54.999l56 241c4.66699 22 7 37.667 7 47c0 22.667 -7 39.5 -21 50.5s-37.667 20.833 -71 29.5l13 57c45.333 8 78.166 20.5 98.499 37.5s35.5 46.833 45.5 89.5l63 273c4.66699 19.333 10.667 35.833 18 49.5
s14.833 24 22.5 31s17.167 12.5 28.5 16.5s21.333 6.33301 30 7s19.334 1 32.001 1h69l-9 -42h-37c-30.667 0 -53.834 -4.33301 -69.501 -13s-26.5 -26.334 -32.5 -53.001z" />
    <glyph glyph-name="bar" unicode="|" horiz-adv-x="240" 
d="M60 -120h-59l229 990h59z" />
    <glyph glyph-name="braceright" unicode="}" horiz-adv-x="382" 
d="M70 -100l69 298.998c10.667 45.333 27.667 77.5 51 96.5s51.666 30.167 84.999 33.5c-52.667 16.667 -79 49 -79 97c0 12 1.33301 23.333 4 34l61 263c4.66699 19.333 7 36.333 7 51c0 21.333 -5.5 35 -16.5 41s-29.167 9 -54.5 9h-37l10 42h59
c60.667 0 91 -29.667 91 -89c0 -17.3359 -2.33301 -35.6689 -7 -54.999l-56 -241c-4.66699 -22 -7 -37.667 -7 -47c0 -22.667 7 -39.5 21 -50.5s37.667 -20.833 71 -29.5l-13 -57c-45.333 -8 -78.166 -20.5 -98.499 -37.5s-35.5 -46.833 -45.5 -89.5l-63 -273
c-4.66699 -19.333 -10.667 -35.833 -18 -49.5s-14.833 -24 -22.5 -31s-17.167 -12.5 -28.5 -16.5s-21.333 -6.33301 -30 -7s-19.334 -1 -32.001 -1h-69l9 42h37c30.667 0 53.834 4.33301 69.501 13s26.5 26.334 32.5 53.001z" />
    <glyph glyph-name="asciitilde" unicode="~" horiz-adv-x="517" 
d="M445 433h46.998c-1.33301 -47.333 -12.666 -83.5 -33.999 -108.5s-47.333 -37.5 -78 -37.5c-25.333 0 -60 13 -104 39s-75.333 39 -94 39c-35.333 0 -58.666 -24.333 -69.999 -73h-45c4 40 16.167 71.833 36.5 95.5s44.833 35.5 73.5 35.5
c23.333 0 57.333 -13.333 102 -40s77 -40 97 -40c42 0 65 30 69 90z" />
    <glyph glyph-name="exclamdown" unicode="&#xa1;" horiz-adv-x="264" 
d="M121 305h42l-36 -210l-76 -328h-66l76 328zM148 517h84l-20 -88h-84z" />
    <glyph glyph-name="cent" unicode="&#xa2;" horiz-adv-x="660" 
d="M372 493h-10c-51.333 0 -97.5 -22.5 -138.5 -67.5s-61.5 -107.167 -61.5 -186.5c0 -87.333 27 -147 81 -179zM561 363l-53.9971 -0.000976562c-0.668945 29.333 -9.83594 54.5 -27.501 75.5c-17.667 21 -39.834 36.167 -66.501 45.5l-131 -441
c14.667 -3.33301 28.667 -5 42 -5c44 0 80 13.833 108 41.5s44.333 61.834 49 102.501h56c-9.33398 -58.667 -34.501 -105.667 -75.5 -141c-41 -35.333 -90.5 -53 -148.5 -53c-14.667 0 -30.334 1.66699 -47 5l-38 -129h-44l42 142c-38.667 18 -68.167 47.5 -88.5 88.5
s-30.5 88.167 -30.5 141.5c0 52 9 100.5 27 145.5s47.167 83 87.5 114s88.166 46.5 143.499 46.5l22 -1l27 92h44l-29 -98c41.333 -10.667 73.833 -31 97.5 -61s35.167 -67 34.5 -111z" />
    <glyph glyph-name="sterling" unicode="&#xa3;" horiz-adv-x="660" 
d="M127 38c35.333 0 63.999 21.666 85.999 64.999c-28 29.333 -55.333 44 -82 44c-18 0 -32.167 -5.66699 -42.5 -17s-15.5 -24.666 -15.5 -39.999c0 -14 4.83301 -26.167 14.5 -36.5s22.834 -15.5 39.501 -15.5zM641.999 610.999l-57.001 -0.000976562
c2 7.33301 3 14.333 3 21c0 20 -7 36 -21 48s-32 18 -54 18c-54 0 -89.667 -37 -107 -111l-32 -137h163l-10 -50h-165l-15 -63c-3.33301 -14.667 -7.66602 -33 -12.999 -55s-8.83301 -36.833 -10.5 -44.5c-1.67188 -7.66699 -4.33887 -18.167 -8.00098 -31.5
c-3.66699 -13.334 -7.16699 -23.667 -10.5 -31s-7.33301 -16.5 -12 -27.5c-4.66895 -11 -10.3359 -22.833 -17 -35.5c50 -45.333 96 -68 138 -68c28.667 0 54.167 8.83301 76.5 26.5s38.5 44.167 48.5 79.5h61c-15.333 -56 -40.333 -97 -75 -123s-73 -39 -115 -39
c-8 0 -15.5 0.333008 -22.5 1s-14.167 2.16699 -21.5 4.5s-13.333 4 -18 5c-4.66797 1 -10.835 3.83301 -18.5 8.5c-7.66699 4.66699 -13 7.66699 -16 9s-8.5 5.16602 -16.5 11.499s-12.833 10 -14.5 11s-7.16699 5.33301 -16.5 13s-14.333 11.834 -15 12.501
c-40 -50.667 -82.667 -76 -128 -76c-32 0 -56.5 9.83301 -73.5 29.5s-25.5 42.834 -25.5 69.501c0 29.333 9.5 55 28.5 77s45.167 33 78.5 33c36 0 70.667 -15.333 104 -46c20.667 50 37.667 104 51 162l20 87h-107l10 50h108l35 147c24.667 102 79.334 153 164.001 153
c38 0 69.167 -10 93.5 -30s36.5 -46 36.5 -78c0 -10.667 -1.33301 -21 -4 -31z" />
    <glyph glyph-name="Euro" unicode="&#x20ac;" horiz-adv-x="660" 
d="M677 506l-57.002 -0.00292969c1.33301 7.33301 2 18 2 32c0 50 -16.333 89 -49 117s-74.667 42 -126 42c-61.333 0 -113.666 -20.667 -156.999 -62s-74.666 -96.333 -93.999 -165h305l-11 -45h-305c-6 -29.333 -9.66699 -64 -11 -104h292l-10 -45h-281
c5.33301 -82 26.5 -141.5 63.5 -178.5s82.5 -55.5 136.5 -55.5c56 0 101 17.833 135 53.5s55 84.834 63 147.501h57c-12 -85.333 -41.667 -149.166 -89 -191.499s-105 -63.5 -173 -63.5c-31.333 0 -60.5 4.83301 -87.5 14.5s-52.833 25 -77.5 46s-44.667 50.833 -60 89.5
s-24.333 84.667 -27 138h-93l10 45h82c1.33301 38.667 5 73.334 11 104.001h-69l11 45h68c22.667 84 61.667 151.667 117 203c55.334 51.333 123.667 77 205 77c66.667 0 120.5 -17 161.5 -51s61.5 -82.667 61.5 -146c0 -17.333 -1.33301 -33 -4 -47z" />
    <glyph glyph-name="yen" unicode="&#xa5;" horiz-adv-x="660" 
d="M388 351h185l-11 -45h-184l-21 -95h183l-10 -45h-183l-37 -166h-62l37 166h-184l10 45h184l21 95h-183l11 45h182l5 21l-131 378h61l107 -322l243 322h71l-288 -371z" />
    <glyph glyph-name="Scaron" unicode="&#x160;" horiz-adv-x="654" 
d="M387 768c77.333 0 138.996 -19.002 184.996 -57.002s70.667 -87 74 -147h-64c-2 40.667 -20.833 76 -56.5 106s-82.5 45 -140.5 45c-53.333 0 -95.833 -13.333 -127.5 -40s-47.5 -62 -47.5 -106c0 -41.334 13.833 -73.334 41.5 -96
c27.667 -22.668 71.167 -46.335 130.5 -71.001c27.333 -11.333 47.833 -20.166 61.5 -26.499s31 -16 52 -29s36.667 -25.667 47 -38s19.5 -28.166 27.5 -47.499c8 -19.334 12 -40.667 12 -64c0 -66 -25.667 -118.5 -77 -157.5s-112.666 -58.5 -183.999 -58.5
c-45.333 0 -85.666 7.16699 -120.999 21.5s-63.166 33 -83.499 56s-35.5 47.5 -45.5 73.5s-15 52.333 -15 79c0 9.33301 0.333008 16.333 1 21h64c-0.666992 -4 -1 -10.333 -1 -19c0 -46 17.333 -87 52 -123s86 -54 154 -54c56 0 101.833 14.5 137.5 43.5
s53.5 65.5 53.5 109.5c0 17.333 -3.33301 33.5 -10 48.5s-14.5 27.5 -23.5 37.5s-21.833 20.333 -38.5 31s-31.167 18.834 -43.5 24.501s-29.166 13.167 -50.499 22.5c-32.667 14 -58.167 25.833 -76.5 35.5s-38.5 23 -60.5 40s-38 37 -48 60s-15 49.5 -15 79.5
c0 60.667 20.667 109.167 62 145.5s99.333 54.5 174 54.5zM450.996 830.998h-39l-91 163h58l60 -110l111 110h68z" />
    <glyph glyph-name="section" unicode="&#xa7;" horiz-adv-x="567" 
d="M319 273c44 0 78.332 8.99805 102.999 26.998s37 41 37 69c0 20 -6.5 37.333 -19.5 52s-29.333 25.334 -49 32.001s-38.167 11.5 -55.5 14.5s-33.333 4.5 -48 4.5c-37.333 0 -68.166 -9.16699 -92.499 -27.5s-36.5 -42.166 -36.5 -71.499
c0 -34 16.167 -59.167 48.5 -75.5s69.833 -24.5 112.5 -24.5zM350.999 515.998c17.333 -3.34082 32 -6.50586 44 -9.49805c12 -3 26.667 -8 44 -15c17.334 -7 31.167 -15 41.5 -24s19.5 -21.167 27.5 -36.5s12 -32.666 12 -51.999c0 -36 -12 -66.333 -36 -91
s-56.667 -40.334 -98 -47.001c50.667 -18.667 76 -54 76 -106c0 -48.667 -19.5 -87.167 -58.5 -115.5s-88.833 -42.5 -149.5 -42.5c-58.667 0 -107.167 14.167 -145.5 42.5s-59.5 70.166 -63.5 125.499h59c4 -42 19.167 -73.167 45.5 -93.5s60.166 -30.5 101.499 -30.5
c44 0 80.167 10 108.5 30s42.5 46.333 42.5 79c0 12.667 -2.66699 23.834 -8 33.5c-5.33301 9.66699 -11.333 17.5 -18 23.5s-17.167 11.833 -31.5 17.5s-26.5 10 -36.5 13s-24.667 6.83301 -44 11.5c-26 6.66699 -47 13 -63 19s-32.5 14.167 -49.5 24.5
s-29.5 23.5 -37.5 39.5s-12 35 -12 57c0 36 10.833 65.667 32.5 89s51.5 39 89.5 47c-46.667 23.333 -70 58.333 -70 105s18.667 83.667 56 111s84.333 41 141 41s103.667 -13.833 141 -41.5s56.333 -63.834 57 -108.501h-59c-1.33301 33.333 -15 58.833 -41 76.5
s-58.333 26.5 -97 26.5c-40.667 0 -74 -8.83301 -100 -26.5s-39 -42.5 -39 -74.5c0 -13.333 2.83301 -25.333 8.5 -36c5.66797 -10.667 12.335 -19.167 20.001 -25.5c7.66699 -6.33301 18.667 -12 33 -17c14.334 -5 26.167 -8.66699 35.5 -11
c9.33301 -2.34961 23 -5.18262 41 -8.5z" />
    <glyph glyph-name="scaron" unicode="&#x161;" horiz-adv-x="523" 
d="M305 286c45.333 -13.333 80.334 -30.1709 105.001 -50.5039s37 -49.5 37 -87.5c0 -50 -20.333 -89.167 -61 -117.5s-88.667 -42.5 -144 -42.5c-56.667 0 -105.5 15 -146.5 45s-62.5 72.667 -64.5 128h61c3.33301 -39.333 20.166 -69.166 50.499 -89.499
s65.166 -30.5 104.499 -30.5c38.667 0 71.834 9.16699 99.501 27.5s41.5 42.5 41.5 72.5c0 25.333 -9.66699 44.666 -29 57.999s-46.333 25 -81 35c-22.667 6.66699 -40.167 12 -52.5 16s-28 10.5 -47 19.5s-33.333 18.5 -43 28.5s-18.334 22.833 -26.001 38.5
s-11.5 33.5 -11.5 53.5c0 48 18.333 85.333 55 112s82.667 40 138 40c34 0 65.333 -5 94 -15s53.334 -26.833 74.001 -50.5s31.667 -52.5 33 -86.5h-60c-4.66699 32.667 -20.5 57.5 -47.5 74.5s-59.167 25.5 -96.5 25.5c-38 0 -69.167 -8.5 -93.5 -25.5
s-36.5 -40.833 -36.5 -71.5c0 -8 0.833008 -15.333 2.5 -22c1.66699 -6.66992 4.5 -12.8369 8.5 -18.501c4 -5.66699 7.66699 -10.5 11 -14.5s8.66602 -8.16699 15.999 -12.5s13.333 -7.66602 18 -9.99902c4.66797 -2.33301 11.835 -5.16602 21.501 -8.49902
c9.66699 -3.33301 17 -5.66602 22 -6.99902s13.167 -3.66602 24.5 -6.99902s19 -5.66602 23 -6.99902zM343.001 639.995h-39l-91 163h58l60 -110l111 110h68z" />
    <glyph glyph-name="copyright" unicode="&#xa9;" horiz-adv-x="921" 
d="M491 196c35.333 0 64.665 11.168 87.998 33.501s35 52.166 35 89.499h56c0 -54 -17.5 -96.5 -52.5 -127.5s-78.167 -46.5 -129.5 -46.5c-55.333 0 -102.166 19.833 -140.499 59.5s-57.5 97.5 -57.5 173.5c0 77.333 19.333 135.5 58 174.5s85.334 58.5 140.001 58.5
c50 0 92.167 -15 126.5 -45s51.5 -70.667 51.5 -122h-56c0 34.667 -11.5 62.667 -34.5 84s-51.5 32 -85.5 32c-39.333 0 -73.333 -15.333 -102 -46s-43 -75.334 -43 -134c0 -58 14.167 -103.167 42.5 -135.5s62.833 -48.5 103.5 -48.5zM490.999 33.001
c94.667 0 174 32.001 238 96.001s96 146 96 246s-32 182 -96 246s-143.333 96 -238 96s-174.167 -32 -238.5 -96s-96.5 -146 -96.5 -246c0 -100.667 32.167 -182.834 96.5 -246.501s143.833 -95.5 238.5 -95.5zM490.999 762.002c109.333 0 200.666 -36.333 273.999 -109
s110 -165.334 110 -278.001s-36.667 -205.334 -110 -278.001s-164.666 -109 -273.999 -109s-200.833 36.333 -274.5 109s-110.5 165.334 -110.5 278.001s36.833 205.334 110.5 278.001s165.167 109 274.5 109z" />
    <glyph glyph-name="ordfeminine" unicode="&#xaa;" horiz-adv-x="454" 
d="M227 376c34 0 68.167 12.5 102.5 37.5c34.334 25 56.167 57.5 65.5 97.5l10 42c-12.667 -7.3418 -37.667 -13.6748 -75 -19l-61 -7c-22 -2.66699 -40.167 -6 -54.5 -10s-28 -12.333 -41 -25c-13 -12.668 -19.5 -29.335 -19.5 -50.001c0 -23.333 7 -40.166 21 -50.499
s31.333 -15.5 52 -15.5zM335 750c45.333 0 79.499 -9 102.499 -27s34.5 -43.333 34.5 -76c0 -10.667 -1.66699 -23.334 -5 -38.001l-61 -273h-51l16 71c-40.667 -50 -90 -75 -148 -75c-30 0 -56.5 8.5 -79.5 25.5s-34.5 44.5 -34.5 82.5
c0 70.667 42.333 111.334 127 122.001l117 14c46.667 6 70 27.667 70 65c0 46.667 -31.333 70 -94 70c-63.333 0 -102 -27.667 -116 -83h-48c22.667 81.333 79.334 122 170.001 122z" />
    <glyph glyph-name="guillemotleft" unicode="&#xab;" horiz-adv-x="561" 
d="M479 129l-47 -33l-141 218l229 207l35 -46l-191 -168zM249 129l-47 -33l-141 218l229 207l35 -46l-191 -168z" />
    <glyph glyph-name="logicalnot" unicode="&#xac;" horiz-adv-x="521" 
d="M380 112l36 156h-364l11 53h420l-48 -209h-55z" />
    <glyph glyph-name="registered" unicode="&#xae;" horiz-adv-x="593" 
d="M320 536h50.999c14.667 0 25.834 4 33.501 12s11.5 17.333 11.5 28c0 10.6709 -3.66699 19.8379 -11 27.5c-7.33301 7.66699 -18 11.5 -32 11.5h-53v-79zM458.999 577c0 -35.333 -16.333 -60 -49 -74l56 -88h-50l-52 80h-44v-80h-44v242h95c27.333 0 48.833 -8 64.5 -24
s23.5 -34.667 23.5 -56zM357.999 331c55.334 0 101.666 18.667 138.999 56s56 85.333 56 144c0 58 -18.667 105.833 -56 143.5s-83.666 56.5 -138.999 56.5s-101.833 -18.833 -139.5 -56.5s-56.5 -85.5 -56.5 -143.5c0 -58.667 18.833 -106.667 56.5 -144
s84.167 -56 139.5 -56zM357.998 762c65.333 0 119.833 -21.667 163.5 -65c43.667 -43.335 65.5 -98.668 65.5 -166c0 -67.333 -21.833 -122.666 -65.5 -165.999s-98.167 -65 -163.5 -65s-120 21.667 -164 65c-44 43.334 -66 98.667 -66 166s22 122.666 66 165.999
s98.667 65 164 65z" />
    <glyph glyph-name="macron" unicode="&#xaf;" horiz-adv-x="320" 
d="M417 687l-11 -47h-320l11 47h320z" />
    <glyph glyph-name="degree" unicode="&#xb0;" horiz-adv-x="482" 
d="M444 632c0 36.667 -11.333 66.5 -34 89.5s-51 34.5 -85 34.5s-62.167 -11.5 -84.5 -34.5s-33.5 -52.833 -33.5 -89.5c0 -37.334 11.167 -67.667 33.5 -90.999c22.333 -23.335 50.5 -35.002 84.5 -35c34 0 62.333 11.667 85 35s34 53.666 34 90.999zM150 631
c0 51.333 16.667 93.333 50 126s74.333 49 123 49c51.333 0 93.833 -16.167 127.5 -48.5s50.5 -74.5 50.5 -126.5c0 -50.667 -17 -92.667 -51 -126s-76.333 -50 -127 -50c-48.667 0 -89.667 16.667 -123 50s-50 75.333 -50 126z" />
    <glyph glyph-name="plusminus" unicode="&#xb1;" horiz-adv-x="520" 
d="M43 187h420l-12 -53h-420zM537 512l-14 -53h-179l-44 -193h-59l44 193h-182l14 53h181l44 193h59l-44 -193h180z" />
    <glyph glyph-name="Zcaron" unicode="&#x17d;" horiz-adv-x="694" 
d="M695 697l-580 -643h480l-12 -54h-553l12 54l579 643h-451l12 53h525zM469 831h-39l-91 163h58l60 -110l111 110h68z" />
    <glyph glyph-name="paragraph" unicode="&#xb6;" horiz-adv-x="675" 
d="M514 700h-155.999c-56.667 0 -100.834 -16 -132.5 -48c-31.667 -32 -47.5 -71.333 -47.5 -118c0 -45.333 15.167 -83.5 45.5 -114.5s72.166 -46.5 125.499 -46.5h91zM492.001 -139h-53l204 890h53zM374.001 -139h-53l106 462h-89c-71.333 0 -125.833 19.167 -163.5 57.5
s-56.5 87.5 -56.5 147.5c0 63.333 20.5 116.333 61.5 159s100.167 64 177.5 64h222z" />
    <glyph glyph-name="periodcentered" unicode="&#xb7;" horiz-adv-x="256" 
d="M192 294h-116l28 120h116z" />
    <glyph glyph-name="zcaron" unicode="&#x17e;" horiz-adv-x="540" 
d="M101 52h345l-12 -52h-417l12 53l418 427h-328l13 52h400l-11 -51zM364 640h-39l-91 163h58l60 -110l111 110h68z" />
    <glyph glyph-name="ordmasculine" unicode="&#xba;" horiz-adv-x="499" 
d="M447 567c0 42.667 -10.668 75.167 -32.001 97.5s-49.666 33.5 -84.999 33.5c-46 0 -83 -17.167 -111 -51.5s-42 -78.5 -42 -132.5c0 -43.333 10.833 -76.333 32.5 -99s50.167 -34 85.5 -34c46 0 82.833 17.167 110.5 51.5c27.667 34.334 41.5 79.167 41.5 134.5z
M332.999 750c47.333 0 86.333 -16.333 117 -49s46 -77.667 46 -135c0 -68 -19.667 -124.333 -59 -169s-88 -67 -146 -67c-47.333 0 -86.166 16.333 -116.499 49s-45.5 77.667 -45.5 135c0 68 19.667 124.333 59 169s87.666 67 144.999 67z" />
    <glyph glyph-name="guillemotright" unicode="&#xbb;" horiz-adv-x="561" 
d="M329 479l47 33l141 -218l-229 -207l-35 46l191 168zM99 479l47 33l141 -218l-229 -207l-35 46l191 168z" />
    <glyph glyph-name="OE" unicode="&#x152;" horiz-adv-x="1133" 
d="M740 421c0 88.667 -22.166 159.501 -66.499 212.501c-44.334 53 -106.167 79.5 -185.5 79.5c-96 0 -175 -36.833 -237 -110.5s-93 -164.5 -93 -272.5c0 -90 22.667 -161.333 68 -214s107.666 -79 186.999 -79c96 0 174.5 37.167 235.5 111.5s91.5 165.166 91.5 272.499z
M1162 697.001l-474 0.000976562c75.333 -66 113 -158.333 113 -277v-14h264l-12 -54h-257c-8.66699 -60.667 -27.667 -117 -57 -169s-66.333 -95 -111 -129h406l-12 -54h-495c-38 -12.667 -76.333 -19 -115 -19c-93.333 0 -169 32.167 -227 96.5s-87 148.166 -87 251.499
c0 119.334 36.833 222.334 110.5 309c73.667 86.667 166.167 130 277.5 130c39.333 0 76 -6 110 -18h578z" />
    <glyph glyph-name="oe" unicode="&#x153;" horiz-adv-x="1001" 
d="M283 42c61.333 0 111.001 24.832 149.001 74.499s57 107.834 57 174.501c0 54.667 -13.5 101.167 -40.5 139.5s-67.5 57.5 -121.5 57.5c-62 0 -111.833 -25.5 -149.5 -76.5s-56.5 -109.5 -56.5 -175.5c0 -54 13.667 -99.833 41 -137.5s67.666 -56.5 120.999 -56.5z
M768.001 488.999c-47.333 0 -90.5 -15.5 -129.5 -46.5s-65.5 -76.833 -79.5 -137.5h342c3.33301 16.667 5 31.667 5 45c0 40.667 -11.667 74 -35 100c-23.335 26 -57.668 39 -103 39zM947.001 252.999l-400 -0.000976562c-1.33301 -14.667 -2 -26.334 -2 -35.001
c0 -48.667 12.167 -90.334 36.5 -125.001s63.166 -52 116.499 -52c38 0 71.667 9.83301 101 29.5s51.333 49.834 66 90.501h57c-20.667 -59.333 -51.334 -103 -92.001 -131s-86.667 -42 -138 -42c-48.667 0 -88.834 11.833 -120.501 35.5s-54.167 56.834 -67.5 99.501
c-22.667 -41.333 -53.167 -74.166 -91.5 -98.499s-83.166 -36.5 -134.499 -36.5c-72 0 -126 23.167 -162 69.5s-54 103.833 -54 172.5c0 52 9.66699 101.167 29 147.5s50 85.333 92 117s91.667 47.5 149 47.5c52.667 0 95.834 -13.167 129.501 -39.5s57.5 -61.5 71.5 -105.5
c24.668 45.333 57.835 80.833 99.501 106.5c41.667 25.667 88.5 38.5 140.5 38.5c62 0 108.5 -18.333 139.5 -55s46.5 -84 46.5 -142c0 -30 -4 -60.667 -12 -92z" />
    <glyph glyph-name="Ydieresis" unicode="&#x178;" horiz-adv-x="634" 
d="M298 0h-62l65 290l-159 460h62l136 -409l303 409h73l-355 -466zM554 832h-80l19 81h80zM367 832h-80l19 81h80z" />
    <glyph glyph-name="questiondown" unicode="&#xbf;" horiz-adv-x="585" 
d="M-27 -89c0 24 4 46.002 12 66.002s19.833 37.333 35.5 52s30.167 26.667 43.5 36s30.333 19.333 51 30c24 12.667 42.667 23.167 56 31.5s28.166 19.333 44.499 33s29.333 29 39 46s17.167 36.833 22.5 59.5l14 58h56l-16 -66c-4 -16.667 -9.16699 -32.334 -15.5 -47.001
s-12.5 -27.167 -18.5 -37.5s-14.167 -21 -24.5 -32s-18.333 -19.333 -24 -25s-15.167 -12.667 -28.5 -21s-22 -13.833 -26 -16.5s-13.167 -7.83398 -27.5 -15.501s-22.5 -11.834 -24.5 -12.501c-33.333 -18 -59.666 -37.833 -78.999 -59.5s-29 -48.834 -29 -81.501
c0 -33.333 12.833 -59.166 38.5 -77.499s58.167 -27.5 97.5 -27.5c51.333 0 94.833 12.667 130.5 38s57.5 62.333 65.5 111h56c-10 -65.333 -38.5 -114.666 -85.5 -147.999s-103.167 -50 -168.5 -50c-58 0 -105 13 -141 39s-54 65 -54 117zM296 429.002l20 88h84l-20 -88
h-84z" />
    <glyph glyph-name="Agrave" unicode="&#xc0;" horiz-adv-x="751" 
d="M553 273l-79 420l-254 -420h333zM563 220h-375l-133 -220h-67l458 750h71l147 -750h-60zM454 832l-73 172l62 20l56 -192h-45z" />
    <glyph glyph-name="Aacute" unicode="&#xc1;" horiz-adv-x="751" 
d="M553 273l-79 420l-254 -420h333zM563 220h-375l-133 -220h-67l458 750h71l147 -750h-60zM513 832h-59l158 171l46 -51z" />
    <glyph glyph-name="Acircumflex" unicode="&#xc2;" horiz-adv-x="751" 
d="M553 273l-79 420l-254 -420h333zM563 220h-375l-133 -220h-67l458 750h71l147 -750h-60zM400 832h-69l167 163h39l91 -163h-57l-60 110z" />
    <glyph glyph-name="Atilde" unicode="&#xc3;" horiz-adv-x="751" 
d="M553 273l-79 420l-254 -420h333zM563 220h-375l-133 -220h-67l458 750h71l147 -750h-60zM430 899c-26 0 -43.3311 -22.332 -51.998 -66.999h-44c4 39.333 14.5 70.166 31.5 92.499s37.5 33.5 61.5 33.5c19.334 0 43.667 -12.167 72.999 -36.5
c29.333 -24.333 49.666 -36.5 60.999 -36.5c27.333 0 44 24.333 50 73h38c0 -40 -8.5 -71.667 -25.5 -95s-37.833 -35 -62.5 -35c-18.667 0 -42.667 11.833 -72 35.5s-49 35.5 -59 35.5z" />
    <glyph glyph-name="Adieresis" unicode="&#xc4;" horiz-adv-x="751" 
d="M553 273l-79 420l-254 -420h333zM563 220h-375l-133 -220h-67l458 750h71l147 -750h-60zM624 832h-80l19 81h80zM437 832h-80l19 81h80z" />
    <glyph glyph-name="Aring" unicode="&#xc5;" horiz-adv-x="751" 
d="M553 273l-79 420l-254 -420h333zM563 220h-375l-133 -220h-67l458 750h71l147 -750h-60zM513 982c-15.333 0 -28.333 -5.66699 -39 -17s-16 -25 -16 -41c0 -16.667 5.33301 -30.834 16 -42.501s23.667 -17.5 39 -17.5s28.5 5.83301 39.5 17.5
c11 11.6738 16.5 25.8408 16.5 42.501c0 16 -5.5 29.667 -16.5 41s-24.167 17 -39.5 17zM513 827c-27.333 0 -50.168 9.16699 -68.501 27.5s-27.5 41.5 -27.5 69.5s9.33301 51 28 69s41.334 27 68.001 27c27.333 0 50.333 -9 69 -27s28 -41 28 -69
s-9.33301 -51.167 -28 -69.5s-41.667 -27.5 -69 -27.5z" />
    <glyph glyph-name="AE" unicode="&#xc6;" horiz-adv-x="1063" 
d="M643 698h-95l-286 -409h287zM702 697l-67 -291h360l-12 -54h-360l-69 -298h410l-12 -54h-470l54 236h-311l-165 -236h-72l529 750h587l-12 -53h-390z" />
    <glyph glyph-name="Ccedilla" unicode="&#xc7;" horiz-adv-x="799" 
d="M404 38c61.333 0 116.501 17.8301 165.501 53.4971s80.167 85.834 93.5 150.501h65c-17.333 -80.667 -56.333 -144.5 -117 -191.5s-131 -70.5 -211 -70.5c-12 0 -20.667 0.333008 -26 1l-7 -33c27.333 -1.33301 48.833 -7.83301 64.5 -19.5s23.5 -28.167 23.5 -49.5
c0 -25.333 -10.5 -47.833 -31.5 -67.5s-48.167 -29.5 -81.5 -29.5c-41.333 0 -76.333 15 -105 45l27 31c22.667 -24 48.667 -36 78 -36c21.334 0 38.667 5 52 15s20 22.667 20 38c0 30.667 -33.667 47 -101 49l23 62c-77.333 14.667 -136.5 53.834 -177.5 117.501
s-61.5 138.167 -61.5 223.5c0 42.667 5.16699 84.834 15.5 126.501s26.166 81.334 47.499 119.001s47 71 77 100s66.333 52.167 109 69.5s89 26 139 26c80 0 145.5 -20.5 196.5 -61.5s77.167 -97.5 78.5 -169.5h-63c-3.33594 52.667 -24.6689 94.834 -64 126.5
c-39.333 31.667 -90 47.5 -152 47.5c-50.667 0 -96.834 -11.333 -138.5 -34c-41.667 -22.667 -75.5 -52.334 -101.5 -89.001s-46 -77.167 -60 -121.5s-21 -89.5 -21 -135.5c0 -82 21.167 -151.333 63.5 -208s102.5 -85 180.5 -85z" />
    <glyph glyph-name="Egrave" unicode="&#xc8;" horiz-adv-x="630" 
d="M671 750l-12 -53h-390l-67 -291h360l-12 -54h-360l-69 -298h410l-12 -54h-470l173 750h449zM364 1004l62 20l56 -192h-45z" />
    <glyph glyph-name="Eacute" unicode="&#xc9;" horiz-adv-x="630" 
d="M671 750l-12 -53h-390l-67 -291h360l-12 -54h-360l-69 -298h410l-12 -54h-470l173 750h449zM451 832h-59l158 171l46 -51z" />
    <glyph glyph-name="Ecircumflex" unicode="&#xca;" horiz-adv-x="630" 
d="M671 750l-12 -53h-390l-67 -291h360l-12 -54h-360l-69 -298h410l-12 -54h-470l173 750h449zM466 995h39l91 -163h-57l-60 110l-111 -110h-69z" />
    <glyph glyph-name="Edieresis" unicode="&#xcb;" horiz-adv-x="630" 
d="M671 750l-12 -53h-390l-67 -291h360l-12 -54h-360l-69 -298h410l-12 -54h-470l173 750h449zM583 832h-80l19 81h80zM396 832h-80l19 81h80z" />
    <glyph glyph-name="Igrave" unicode="&#xcc;" horiz-adv-x="313" 
d="M248 750h62l-173 -750h-62zM185 1004l62 20l56 -192h-45z" />
    <glyph glyph-name="Iacute" unicode="&#xcd;" horiz-adv-x="312" 
d="M247 750h62l-173 -750h-62zM182 1004l62 20l56 -192h-45z" />
    <glyph glyph-name="Icircumflex" unicode="&#xce;" horiz-adv-x="312" 
d="M247 750h62l-173 -750h-62zM300 995h39l91 -163h-57l-60 110l-111 -110h-69z" />
    <glyph glyph-name="Idieresis" unicode="&#xcf;" horiz-adv-x="487" 
d="M333 750h62l-173 -750h-62zM513 832h-80l19 81h80zM326 832h-80l19 81h80z" />
    <glyph glyph-name="Eth" unicode="&#xd0;" horiz-adv-x="769" 
d="M142 54l135 0.000976562c49.334 0 95.667 7.5 139 22.5s80.5 35.333 111.5 61s57.667 55 80 88s39 67.667 50 104s16.5 72.833 16.5 109.5c0 73.333 -22 134.666 -66 183.999s-107.667 74 -191 74h-127l-66 -287h207l-13 -57h-207zM242 750.001l182.001 -0.000976562
c68 0 126.333 -14.833 175 -44.5s84 -67.5 106 -113.5s33 -97.333 33 -154c0 -52.667 -10.167 -104.667 -30.5 -156s-49.333 -98.166 -87 -140.499s-86.334 -76.5 -146.001 -102.5s-125.5 -39 -197.5 -39h-208l81 353h-111l13 57h112z" />
    <glyph glyph-name="Ntilde" unicode="&#xd1;" horiz-adv-x="767" 
d="M606 0h-63l-279 679l-155 -679h-58l171 750h76l270 -660l151 660h58zM642 958l38 0.000976562c0 -40 -8.5 -71.667 -25.5 -95s-37.833 -35 -62.5 -35c-18.667 0 -42.667 11.833 -72 35.5s-49 35.5 -59 35.5c-26 0 -43.333 -22.333 -52 -67h-44
c4 39.333 14.5 70.166 31.5 92.499s37.5 33.5 61.5 33.5c18.667 0 43 -12.167 73 -36.5s50.333 -36.5 61 -36.5c27.333 0 44 24.333 50 73z" />
    <glyph glyph-name="Ograve" unicode="&#xd2;" horiz-adv-x="838" 
d="M488 713c-96 0 -174.999 -36.832 -236.999 -110.499s-93 -164.5 -93 -272.5c0 -90 22.667 -161.333 68 -214s107.666 -79 186.999 -79c96 0 174.5 37.167 235.5 111.5s91.5 165.166 91.5 272.499c0 88.667 -22.167 159.5 -66.5 212.5
c-44.334 53 -106.167 79.5 -185.5 79.5zM412.001 -18.999c-93.333 0 -169 32.1689 -227 96.502s-87 148.166 -87 251.499c0 119.334 36.833 222.334 110.5 309c73.667 86.667 166.167 130 277.5 130c94.667 0 170.834 -32.333 228.5 -97
c57.667 -64.667 86.5 -148.334 86.5 -251.001c0 -77.333 -16.5 -149.333 -49.5 -216s-79.5 -120.5 -139.5 -161.5s-126.667 -61.5 -200 -61.5zM407.001 1004l62 20l56 -192h-45z" />
    <glyph glyph-name="Oacute" unicode="&#xd3;" horiz-adv-x="838" 
d="M488 713c-96 0 -174.999 -36.832 -236.999 -110.499s-93 -164.5 -93 -272.5c0 -90 22.667 -161.333 68 -214s107.666 -79 186.999 -79c96 0 174.5 37.167 235.5 111.5s91.5 165.166 91.5 272.499c0 88.667 -22.167 159.5 -66.5 212.5
c-44.334 53 -106.167 79.5 -185.5 79.5zM412.001 -18.999c-93.333 0 -169 32.1689 -227 96.502s-87 148.166 -87 251.499c0 119.334 36.833 222.334 110.5 309c73.667 86.667 166.167 130 277.5 130c94.667 0 170.834 -32.333 228.5 -97
c57.667 -64.667 86.5 -148.334 86.5 -251.001c0 -77.333 -16.5 -149.333 -49.5 -216s-79.5 -120.5 -139.5 -161.5s-126.667 -61.5 -200 -61.5zM407.001 1004l62 20l56 -192h-45z" />
    <glyph glyph-name="Ocircumflex" unicode="&#xd4;" horiz-adv-x="838" 
d="M488 713c-96 0 -174.999 -36.832 -236.999 -110.499s-93 -164.5 -93 -272.5c0 -90 22.667 -161.333 68 -214s107.666 -79 186.999 -79c96 0 174.5 37.167 235.5 111.5s91.5 165.166 91.5 272.499c0 88.667 -22.167 159.5 -66.5 212.5
c-44.334 53 -106.167 79.5 -185.5 79.5zM412.001 -18.999c-93.333 0 -169 32.1689 -227 96.502s-87 148.166 -87 251.499c0 119.334 36.833 222.334 110.5 309c73.667 86.667 166.167 130 277.5 130c94.667 0 170.834 -32.333 228.5 -97
c57.667 -64.667 86.5 -148.334 86.5 -251.001c0 -77.333 -16.5 -149.333 -49.5 -216s-79.5 -120.5 -139.5 -161.5s-126.667 -61.5 -200 -61.5zM537.001 995.003h39l91 -163h-57l-60 110l-111 -110h-69z" />
    <glyph glyph-name="Otilde" unicode="&#xd5;" horiz-adv-x="838" 
d="M488 713c-96 0 -174.999 -36.832 -236.999 -110.499s-93 -164.5 -93 -272.5c0 -90 22.667 -161.333 68 -214s107.666 -79 186.999 -79c96 0 174.5 37.167 235.5 111.5s91.5 165.166 91.5 272.499c0 88.667 -22.167 159.5 -66.5 212.5
c-44.334 53 -106.167 79.5 -185.5 79.5zM412.001 -18.999c-93.333 0 -169 32.1689 -227 96.502s-87 148.166 -87 251.499c0 119.334 36.833 222.334 110.5 309c73.667 86.667 166.167 130 277.5 130c94.667 0 170.834 -32.333 228.5 -97
c57.667 -64.667 86.5 -148.334 86.5 -251.001c0 -77.333 -16.5 -149.333 -49.5 -216s-79.5 -120.5 -139.5 -161.5s-126.667 -61.5 -200 -61.5zM654.001 958.003l38 0.000976562c0 -40 -8.5 -71.667 -25.5 -95s-37.833 -35 -62.5 -35c-18.667 0 -42.667 11.833 -72 35.5
s-49 35.5 -59 35.5c-26 0 -43.333 -22.333 -52 -67h-44c4 39.333 14.5 70.166 31.5 92.499s37.5 33.5 61.5 33.5c18.667 0 43 -12.167 73 -36.5s50.333 -36.5 61 -36.5c27.333 0 44 24.333 50 73z" />
    <glyph glyph-name="Odieresis" unicode="&#xd6;" horiz-adv-x="838" 
d="M488 713c-96 0 -174.999 -36.832 -236.999 -110.499s-93 -164.5 -93 -272.5c0 -90 22.667 -161.333 68 -214s107.666 -79 186.999 -79c96 0 174.5 37.167 235.5 111.5s91.5 165.166 91.5 272.499c0 88.667 -22.167 159.5 -66.5 212.5
c-44.334 53 -106.167 79.5 -185.5 79.5zM412.001 -18.999c-93.333 0 -169 32.1689 -227 96.502s-87 148.166 -87 251.499c0 119.334 36.833 222.334 110.5 309c73.667 86.667 166.167 130 277.5 130c94.667 0 170.834 -32.333 228.5 -97
c57.667 -64.667 86.5 -148.334 86.5 -251.001c0 -77.333 -16.5 -149.333 -49.5 -216s-79.5 -120.5 -139.5 -161.5s-126.667 -61.5 -200 -61.5zM636.001 832.003h-80l19 81h80zM449.001 832.003h-80l19 81h80z" />
    <glyph glyph-name="multiply" unicode="&#xd7;" horiz-adv-x="520" 
d="M310 301l120 -156l-42 -34l-120 156l-203 -166l-31 42l203 165l-124 161l41 34l124 -161l196 159l31 -40z" />
    <glyph glyph-name="Oslash" unicode="&#xd8;" horiz-adv-x="838" 
d="M413 37c96 0 174.5 37.168 235.5 111.501s91.5 165.166 91.5 272.499c0 72.667 -15 133.667 -45 183s-72.667 82 -128 98l-237 -653c25.333 -8 53 -12 83 -12zM158 330.001c0 -61.333 11 -114.5 33 -159.5s53 -78.833 93 -101.5l233 643c-6 0.666992 -15.667 1 -29 1
c-96 0 -175 -36.833 -237 -110.5s-93 -164.5 -93 -272.5zM620 848.001l-34 -95.002c66 -20.667 118.333 -60.667 157 -120s58 -130.333 58 -213c0 -77.333 -16.5 -149.333 -49.5 -216s-79.5 -120.5 -139.5 -161.5s-126.667 -61.5 -200 -61.5c-36 0 -69.667 5 -101 15
l-34 -92h-53l41 112c-52.667 26.667 -93.667 67.334 -123 122.001s-44 118.334 -44 191.001c0 119.334 36.833 222.334 110.5 309c73.667 86.667 166.167 130 277.5 130c18.667 0 35.667 -1.33301 51 -4l30 84h53z" />
    <glyph glyph-name="Ugrave" unicode="&#xd9;" horiz-adv-x="745" 
d="M766 750l-117.999 -514.999c-19.333 -84.667 -54.833 -148.167 -106.5 -190.5s-115.167 -63.5 -190.5 -63.5c-76.667 0 -138.334 20.333 -185.001 61s-70 95.667 -70 165c0 24 3 49 9 75l107 468h60l-106 -463c-6 -28 -9 -53.333 -9 -76
c0 -56.667 17 -99.834 51 -129.501s81 -44.5 141 -44.5c62 0 113.667 16.5 155 49.5s69 79.833 83 140.5l120 523h59zM389.001 1004l62 20l56 -192h-45z" />
    <glyph glyph-name="Uacute" unicode="&#xda;" horiz-adv-x="745" 
d="M766 750l-117.999 -514.999c-19.333 -84.667 -54.833 -148.167 -106.5 -190.5s-115.167 -63.5 -190.5 -63.5c-76.667 0 -138.334 20.333 -185.001 61s-70 95.667 -70 165c0 24 3 49 9 75l107 468h60l-106 -463c-6 -28 -9 -53.333 -9 -76
c0 -56.667 17 -99.834 51 -129.501s81 -44.5 141 -44.5c62 0 113.667 16.5 155 49.5s69 79.833 83 140.5l120 523h59zM490.001 832.001h-59l158 171l46 -51z" />
    <glyph glyph-name="Ucircumflex" unicode="&#xdb;" horiz-adv-x="745" 
d="M766 750l-117.999 -514.999c-19.333 -84.667 -54.833 -148.167 -106.5 -190.5s-115.167 -63.5 -190.5 -63.5c-76.667 0 -138.334 20.333 -185.001 61s-70 95.667 -70 165c0 24 3 49 9 75l107 468h60l-106 -463c-6 -28 -9 -53.333 -9 -76
c0 -56.667 17 -99.834 51 -129.501s81 -44.5 141 -44.5c62 0 113.667 16.5 155 49.5s69 79.833 83 140.5l120 523h59zM495.001 995.001h39l91 -163h-57l-60 110l-111 -110h-69z" />
    <glyph glyph-name="Udieresis" unicode="&#xdc;" horiz-adv-x="745" 
d="M766 750l-117.999 -514.999c-19.333 -84.667 -54.833 -148.167 -106.5 -190.5s-115.167 -63.5 -190.5 -63.5c-76.667 0 -138.334 20.333 -185.001 61s-70 95.667 -70 165c0 24 3 49 9 75l107 468h60l-106 -463c-6 -28 -9 -53.333 -9 -76
c0 -56.667 17 -99.834 51 -129.501s81 -44.5 141 -44.5c62 0 113.667 16.5 155 49.5s69 79.833 83 140.5l120 523h59zM608.001 832.001h-80l19 81h80zM421.001 832.001h-80l19 81h80z" />
    <glyph glyph-name="Yacute" unicode="&#xdd;" horiz-adv-x="634" 
d="M298 0h-62l65 290l-159 460h62l136 -409l303 409h73l-355 -466zM428 832h-59l158 171l46 -51z" />
    <glyph glyph-name="Thorn" unicode="&#xde;" horiz-adv-x="639" 
d="M160 219h189c63.333 0 113.333 18.667 150 56c36.667 37.334 55 80.667 55 130c0 39.333 -12.5 72.333 -37.5 99s-61.5 40 -109.5 40h-172zM246 595l173 0.000976562c64 0 113 -17.333 147 -52s51 -77.667 51 -129c0 -64.667 -25 -121.834 -75 -171.501
s-117.667 -74.5 -203 -74.5h-190l-39 -168h-60l172 750h60z" />
    <glyph glyph-name="germandbls" unicode="&#xdf;" horiz-adv-x="655" 
d="M419 383c46.667 -10.667 82.5 -32.833 107.5 -66.499c25 -33.667 37.5 -71.167 37.5 -112.5c0 -54.667 -21.5 -102.334 -64.5 -143.001s-103.5 -61 -181.5 -61h-96l12 51h82c54.667 0 98.5 14 131.5 42s49.5 65.333 49.5 112s-17.333 83.334 -52 110.001
s-85.334 40.667 -152.001 42l12 51c69.334 6 124.167 24 164.5 54s60.5 69.667 60.5 119c0 38.667 -12.167 69 -36.5 91s-56.5 33 -96.5 33c-41.333 0 -77.333 -12 -108 -36s-51.334 -59 -62.001 -105l-130 -564h-63l134 575c14.667 62 42.834 108.833 84.501 140.5
s90.834 47.5 147.501 47.5c57.333 0 104.333 -15.5 141 -46.5s55 -73.5 55 -127.5c0 -55.334 -18 -100.501 -54 -135.501s-77 -58.5 -123 -70.5z" />
    <glyph glyph-name="agrave" unicode="&#xe0;" horiz-adv-x="563" 
d="M419 249l8.00098 42.002c-25.333 -12 -59.333 -20 -102 -24l-79 -8c-18.667 -2 -36 -5.33301 -52 -10s-32 -11.334 -48 -20.001s-28.667 -20.834 -38 -36.501s-14 -34.167 -14 -55.5c0 -32 10 -56.167 30 -72.5s44.333 -24.5 73 -24.5c45.333 0 90.666 19.5 135.999 58.5
s74 89.167 86 150.5zM329.001 542.002c62.667 0 108.501 -13.668 137.501 -41.001s43.5 -61 43.5 -101c0 -11.333 -1.66699 -24.333 -5 -39l-84 -361h-57l23 102c-23.333 -40 -52.833 -69 -88.5 -87s-71.834 -27 -108.501 -27c-42.667 0 -79.167 11.667 -109.5 35
s-45.5 60 -45.5 110c0 47.333 15.167 85.333 45.5 114s74.833 46.667 133.5 54l137 18c64.667 8 97 36 97 84c0 30.667 -11.5 53.334 -34.5 68.001s-53.167 22 -90.5 22c-86 0 -139 -35.333 -159 -106h-57c30 103.333 104 155 222 155zM336.002 640.001l-74 172l62 20
l57 -192h-45z" />
    <glyph glyph-name="aacute" unicode="&#xe1;" horiz-adv-x="563" 
d="M419 249l8.00098 42.002c-25.333 -12 -59.333 -20 -102 -24l-79 -8c-18.667 -2 -36 -5.33301 -52 -10s-32 -11.334 -48 -20.001s-28.667 -20.834 -38 -36.501s-14 -34.167 -14 -55.5c0 -32 10 -56.167 30 -72.5s44.333 -24.5 73 -24.5c45.333 0 90.666 19.5 135.999 58.5
s74 89.167 86 150.5zM329.001 542.002c62.667 0 108.501 -13.668 137.501 -41.001s43.5 -61 43.5 -101c0 -11.333 -1.66699 -24.333 -5 -39l-84 -361h-57l23 102c-23.333 -40 -52.833 -69 -88.5 -87s-71.834 -27 -108.501 -27c-42.667 0 -79.167 11.667 -109.5 35
s-45.5 60 -45.5 110c0 47.333 15.167 85.333 45.5 114s74.833 46.667 133.5 54l137 18c64.667 8 97 36 97 84c0 30.667 -11.5 53.334 -34.5 68.001s-53.167 22 -90.5 22c-86 0 -139 -35.333 -159 -106h-57c30 103.333 104 155 222 155zM375.002 640.001h-59l158 171l46 -51z
" />
    <glyph glyph-name="acircumflex" unicode="&#xe2;" horiz-adv-x="563" 
d="M419 249l8.00098 42.002c-25.333 -12 -59.333 -20 -102 -24l-79 -8c-18.667 -2 -36 -5.33301 -52 -10s-32 -11.334 -48 -20.001s-28.667 -20.834 -38 -36.501s-14 -34.167 -14 -55.5c0 -32 10 -56.167 30 -72.5s44.333 -24.5 73 -24.5c45.333 0 90.666 19.5 135.999 58.5
s74 89.167 86 150.5zM329.001 542.002c62.667 0 108.501 -13.668 137.501 -41.001s43.5 -61 43.5 -101c0 -11.333 -1.66699 -24.333 -5 -39l-84 -361h-57l23 102c-23.333 -40 -52.833 -69 -88.5 -87s-71.834 -27 -108.501 -27c-42.667 0 -79.167 11.667 -109.5 35
s-45.5 60 -45.5 110c0 47.333 15.167 85.333 45.5 114s74.833 46.667 133.5 54l137 18c64.667 8 97 36 97 84c0 30.667 -11.5 53.334 -34.5 68.001s-53.167 22 -90.5 22c-86 0 -139 -35.333 -159 -106h-57c30 103.333 104 155 222 155zM277.002 640.001h-69l167 163h39
l91 -163h-57l-60 110z" />
    <glyph glyph-name="atilde" unicode="&#xe3;" horiz-adv-x="563" 
d="M419 249l8.00098 42.002c-25.333 -12 -59.333 -20 -102 -24l-79 -8c-18.667 -2 -36 -5.33301 -52 -10s-32 -11.334 -48 -20.001s-28.667 -20.834 -38 -36.501s-14 -34.167 -14 -55.5c0 -32 10 -56.167 30 -72.5s44.333 -24.5 73 -24.5c45.333 0 90.666 19.5 135.999 58.5
s74 89.167 86 150.5zM329.001 542.002c62.667 0 108.501 -13.668 137.501 -41.001s43.5 -61 43.5 -101c0 -11.333 -1.66699 -24.333 -5 -39l-84 -361h-57l23 102c-23.333 -40 -52.833 -69 -88.5 -87s-71.834 -27 -108.501 -27c-42.667 0 -79.167 11.667 -109.5 35
s-45.5 60 -45.5 110c0 47.333 15.167 85.333 45.5 114s74.833 46.667 133.5 54l137 18c64.667 8 97 36 97 84c0 30.667 -11.5 53.334 -34.5 68.001s-53.167 22 -90.5 22c-86 0 -139 -35.333 -159 -106h-57c30 103.333 104 155 222 155zM307.002 707.001
c-26 0 -43.333 -22.332 -52 -66.999h-44c4 39.333 14.5 70.166 31.5 92.499s37.5 33.5 61.5 33.5c18.667 0 43 -12.167 73 -36.5s50.333 -36.5 61 -36.5c27.333 0 44 24.333 50 73h38c0 -40 -8.5 -71.667 -25.5 -95s-37.833 -35 -62.5 -35
c-18.667 0 -42.667 11.833 -72 35.5s-49 35.5 -59 35.5z" />
    <glyph glyph-name="adieresis" unicode="&#xe4;" horiz-adv-x="563" 
d="M419 249l8.00098 42.002c-25.333 -12 -59.333 -20 -102 -24l-79 -8c-18.667 -2 -36 -5.33301 -52 -10s-32 -11.334 -48 -20.001s-28.667 -20.834 -38 -36.501s-14 -34.167 -14 -55.5c0 -32 10 -56.167 30 -72.5s44.333 -24.5 73 -24.5c45.333 0 90.666 19.5 135.999 58.5
s74 89.167 86 150.5zM329.001 542.002c62.667 0 108.501 -13.668 137.501 -41.001s43.5 -61 43.5 -101c0 -11.333 -1.66699 -24.333 -5 -39l-84 -361h-57l23 102c-23.333 -40 -52.833 -69 -88.5 -87s-71.834 -27 -108.501 -27c-42.667 0 -79.167 11.667 -109.5 35
s-45.5 60 -45.5 110c0 47.333 15.167 85.333 45.5 114s74.833 46.667 133.5 54l137 18c64.667 8 97 36 97 84c0 30.667 -11.5 53.334 -34.5 68.001s-53.167 22 -90.5 22c-86 0 -139 -35.333 -159 -106h-57c30 103.333 104 155 222 155zM486.002 640.001h-80l19 81h80z
M299.002 640.001h-80l19 81h80z" />
    <glyph glyph-name="aring" unicode="&#xe5;" horiz-adv-x="563" 
d="M419 249l8.00098 42.002c-25.333 -12 -59.333 -20 -102 -24l-79 -8c-18.667 -2 -36 -5.33301 -52 -10s-32 -11.334 -48 -20.001s-28.667 -20.834 -38 -36.501s-14 -34.167 -14 -55.5c0 -32 10 -56.167 30 -72.5s44.333 -24.5 73 -24.5c45.333 0 90.666 19.5 135.999 58.5
s74 89.167 86 150.5zM329.001 542.002c62.667 0 108.501 -13.668 137.501 -41.001s43.5 -61 43.5 -101c0 -11.333 -1.66699 -24.333 -5 -39l-84 -361h-57l23 102c-23.333 -40 -52.833 -69 -88.5 -87s-71.834 -27 -108.501 -27c-42.667 0 -79.167 11.667 -109.5 35
s-45.5 60 -45.5 110c0 47.333 15.167 85.333 45.5 114s74.833 46.667 133.5 54l137 18c64.667 8 97 36 97 84c0 30.667 -11.5 53.334 -34.5 68.001s-53.167 22 -90.5 22c-86 0 -139 -35.333 -159 -106h-57c30 103.333 104 155 222 155zM384.002 790.001
c-15.333 0 -28.333 -5.66602 -39 -16.999s-16 -25 -16 -41c0 -16.667 5.33301 -30.834 16 -42.501s23.667 -17.5 39 -17.5s28.5 5.83301 39.5 17.5c11 11.6719 16.5 25.8389 16.5 42.5c0 16 -5.5 29.667 -16.5 41s-24.167 17 -39.5 17zM384.002 635.002
c-27.333 0 -50.168 9.16699 -68.501 27.5s-27.5 41.5 -27.5 69.5s9.33301 51 28 69s41.334 27 68.001 27c27.333 0 50.333 -9 69 -27s28 -41 28 -69s-9.33301 -51.167 -28 -69.5s-41.667 -27.5 -69 -27.5z" />
    <glyph glyph-name="ae" unicode="&#xe6;" horiz-adv-x="936" 
d="M197 40c49.333 0 95.667 19.1689 139 57.502s71 88.833 83 151.5l8 42c-25.333 -12 -59.333 -20 -102 -24l-79 -8c-18.667 -2 -36 -5.33301 -52 -10s-32 -11.334 -48 -20.001s-28.667 -20.834 -38 -36.501s-14 -34.167 -14 -55.5c0 -32 10 -56.167 30 -72.5
s44.333 -24.5 73 -24.5zM703.001 489.002c-47.333 0 -90.5 -15.5 -129.5 -46.5s-65.5 -76.833 -79.5 -137.5h342c3.33301 16.667 5 31.667 5 45c0 40.667 -11.667 74 -35 100c-23.335 26 -57.668 39 -103 39zM882.001 253.002h-400c-1.33301 -14.667 -2 -26.334 -2 -35.001
c0 -48.667 12.167 -90.334 36.5 -125.001s63.166 -52 116.499 -52c38 0 71.667 9.83301 101 29.5s51.333 49.834 66 90.501h57c-20.667 -59.333 -51.334 -103 -92.001 -131s-86.667 -42 -138 -42c-52.667 0 -95.667 14.333 -129 43s-55 68 -65 118
c-25.333 -53.333 -60.666 -93.5 -105.999 -120.5s-91 -40.5 -137 -40.5c-42.667 0 -79.167 11.667 -109.5 35s-45.5 60 -45.5 110c0 47.333 15.167 85.333 45.5 114s74.833 46.667 133.5 54l137 18c64.667 8 97 36 97 84c0 30.667 -11.5 53.334 -34.5 68.001
s-53.167 22 -90.5 22c-86 0 -139 -35.333 -159 -106h-57c30 103.333 104 155 222 155c94.667 0 152.334 -32 173.001 -96c54.667 64 123.334 96 206 96c62 0 108.5 -18.333 139.5 -55s46.5 -84 46.5 -142c0 -30 -4 -60.667 -12 -92z" />
    <glyph glyph-name="ccedilla" unicode="&#xe7;" horiz-adv-x="569" 
d="M336 489c-66 0 -118.497 -26.168 -157.497 -78.501s-58.5 -111.5 -58.5 -177.5c0 -53.333 13.5 -98.166 40.5 -134.499s65.5 -54.5 115.5 -54.5c42.667 0 77.5 13 104.5 39s45.833 59 56.5 99h58c-13.333 -58.667 -41.333 -105.667 -84 -141s-91.667 -53 -147 -53
c-6.66699 0 -15.334 0.666992 -26.001 2l-9 -42c27.333 -1.33301 48.833 -7.83301 64.5 -19.5s23.5 -28.167 23.5 -49.5c0 -25.333 -10.5 -47.833 -31.5 -67.5s-48.167 -29.5 -81.5 -29.5c-41.333 0 -76.333 15 -105 45l27 31c22.667 -24 48.667 -36 78 -36
c21.333 0 38.666 5 51.999 15s20 22.667 20 38c0 30.667 -33.667 47 -101 49l28 73c-45.333 14.667 -80.333 43.5 -105 86.5s-37 92.167 -37 147.5c0 51.334 10.167 100.167 30.5 146.5s52.166 85.333 95.499 117s94 47.5 152 47.5c58.667 0 105.5 -15.667 140.5 -47
s52.167 -75.333 51.5 -132h-58c0 42 -13 73.5 -39 94.5s-58.667 31.5 -98 31.5z" />
    <glyph glyph-name="egrave" unicode="&#xe8;" horiz-adv-x="570" 
d="M337 489c-47.333 0 -90.501 -15.5 -129.501 -46.5s-65.5 -76.833 -79.5 -137.5h342c3.33301 16.667 5 31.667 5 45c0 40.667 -11.667 74 -35 100s-57.666 39 -102.999 39zM515.999 253l-399.997 0.000976562c-1.33301 -14.667 -2 -26.334 -2 -35.001
c0 -48.667 12.167 -90.334 36.5 -125.001s63.166 -52 116.499 -52c38 0 71.667 9.83301 101 29.5s51.333 49.834 66 90.501h57c-20.667 -59.333 -51.334 -103 -92 -131c-40.667 -28 -86.667 -42 -138 -42c-64.667 0 -114.334 21 -149.001 63s-52 98.667 -52 170
c0 92 26.667 168.5 80 229.5s120.666 91.5 201.999 91.5c62 0 108.5 -18.333 139.5 -55s46.5 -84 46.5 -142c0 -30 -4 -60.667 -12 -92zM249.002 812.001l62 20l57 -192h-45z" />
    <glyph glyph-name="eacute" unicode="&#xe9;" horiz-adv-x="570" 
d="M337 489c-47.333 0 -90.501 -15.5 -129.501 -46.5s-65.5 -76.833 -79.5 -137.5h342c3.33301 16.667 5 31.667 5 45c0 40.667 -11.667 74 -35 100s-57.666 39 -102.999 39zM515.999 253l-399.997 0.000976562c-1.33301 -14.667 -2 -26.334 -2 -35.001
c0 -48.667 12.167 -90.334 36.5 -125.001s63.166 -52 116.499 -52c38 0 71.667 9.83301 101 29.5s51.333 49.834 66 90.501h57c-20.667 -59.333 -51.334 -103 -92 -131c-40.667 -28 -86.667 -42 -138 -42c-64.667 0 -114.334 21 -149.001 63s-52 98.667 -52 170
c0 92 26.667 168.5 80 229.5s120.666 91.5 201.999 91.5c62 0 108.5 -18.333 139.5 -55s46.5 -84 46.5 -142c0 -30 -4 -60.667 -12 -92zM387.002 640.001h-59l158 171l46 -51z" />
    <glyph glyph-name="ecircumflex" unicode="&#xea;" horiz-adv-x="570" 
d="M337 489c-47.333 0 -90.501 -15.5 -129.501 -46.5s-65.5 -76.833 -79.5 -137.5h342c3.33301 16.667 5 31.667 5 45c0 40.667 -11.667 74 -35 100s-57.666 39 -102.999 39zM515.999 253l-399.997 0.000976562c-1.33301 -14.667 -2 -26.334 -2 -35.001
c0 -48.667 12.167 -90.334 36.5 -125.001s63.166 -52 116.499 -52c38 0 71.667 9.83301 101 29.5s51.333 49.834 66 90.501h57c-20.667 -59.333 -51.334 -103 -92 -131c-40.667 -28 -86.667 -42 -138 -42c-64.667 0 -114.334 21 -149.001 63s-52 98.667 -52 170
c0 92 26.667 168.5 80 229.5s120.666 91.5 201.999 91.5c62 0 108.5 -18.333 139.5 -55s46.5 -84 46.5 -142c0 -30 -4 -60.667 -12 -92zM370.002 803.001h39l91 -163h-57l-60 110l-111 -110h-69z" />
    <glyph glyph-name="edieresis" unicode="&#xeb;" horiz-adv-x="570" 
d="M337 489c-47.333 0 -90.501 -15.5 -129.501 -46.5s-65.5 -76.833 -79.5 -137.5h342c3.33301 16.667 5 31.667 5 45c0 40.667 -11.667 74 -35 100s-57.666 39 -102.999 39zM515.999 253l-399.997 0.000976562c-1.33301 -14.667 -2 -26.334 -2 -35.001
c0 -48.667 12.167 -90.334 36.5 -125.001s63.166 -52 116.499 -52c38 0 71.667 9.83301 101 29.5s51.333 49.834 66 90.501h57c-20.667 -59.333 -51.334 -103 -92 -131c-40.667 -28 -86.667 -42 -138 -42c-64.667 0 -114.334 21 -149.001 63s-52 98.667 -52 170
c0 92 26.667 168.5 80 229.5s120.666 91.5 201.999 91.5c62 0 108.5 -18.333 139.5 -55s46.5 -84 46.5 -142c0 -30 -4 -60.667 -12 -92zM484.002 640.001h-80l19 81h80zM297.002 640.001h-80l19 81h80z" />
    <glyph glyph-name="igrave" unicode="&#xec;" horiz-adv-x="260" 
d="M182 532h58l-122 -532h-59zM112 812l62 20l57 -192h-45z" />
    <glyph glyph-name="iacute" unicode="&#xed;" horiz-adv-x="260" 
d="M182 532h58l-122 -532h-59zM245 640h-59l158 171l46 -51z" />
    <glyph glyph-name="icircumflex" unicode="&#xee;" horiz-adv-x="260" 
d="M182 532h58l-122 -532h-59zM223 803h39l91 -163h-57l-60 110l-111 -110h-69z" />
    <glyph glyph-name="idieresis" unicode="&#xef;" horiz-adv-x="264" 
d="M186 532h58l-122 -532h-59zM349 640h-80l19 81h80zM162 640h-80l19 81h80z" />
    <glyph glyph-name="eth" unicode="&#xf0;" horiz-adv-x="637" 
d="M291 43c50 0 93.833 17.3311 131.5 51.998s56.5 82.334 56.5 143.001c0 56 -17.167 99.667 -51.5 131s-75.5 47 -123.5 47c-50 0 -93.5 -16.667 -130.5 -50s-55.5 -79.666 -55.5 -138.999c0 -58.667 17 -104 51 -136s74.667 -48 122 -48zM581 693.998l-45.999 -31.998
c39.333 -54 59 -132.333 59 -235c0 -137.333 -29.5 -244.833 -88.5 -322.5s-132.833 -116.5 -221.5 -116.5c-64 0 -117.833 20.833 -161.5 62.5s-65.5 98.5 -65.5 170.5c0 75.333 23.5 136.166 70.5 182.499s106.167 69.5 177.5 69.5c51.333 0 97.833 -14.667 139.5 -44
s67.5 -69.333 77.5 -120c9.33301 52.667 14 97.667 14 135c0 79.333 -16.667 140.666 -50 183.999l-108 -76l-32 46l99 69c-26.667 17.333 -58 26 -94 26c-42 0 -78 -11.5 -108 -34.5s-48.667 -53.167 -56 -90.5h-61c12.667 57.333 38.167 102 76.5 134
s86.166 48 143.499 48c61.334 0 111.667 -15.667 151 -47l84 58v-67z" />
    <glyph glyph-name="ntilde" unicode="&#xf1;" horiz-adv-x="590" 
d="M387 542c50 0 87.666 -12.5 112.999 -37.5s38 -56.833 38 -95.5c0 -15.333 -2 -31 -6 -47l-83 -362h-57l79 344c4 16 6 31.667 6 47c0 66 -35.333 99 -106 99c-49.333 0 -94.166 -19.833 -134.499 -59.5s-68.5 -95.167 -84.5 -166.5l-60 -264h-57l121 532h57l-21 -92
c51.333 68 116.333 102 195 102zM519.999 766l38 0.000976562c0 -40 -8.5 -71.667 -25.5 -95s-37.833 -35 -62.5 -35c-18.667 0 -42.667 11.833 -72 35.5s-49 35.5 -59 35.5c-26 0 -43.333 -22.333 -52 -67h-44c4 39.333 14.5 70.166 31.5 92.499s37.5 33.5 61.5 33.5
c18.667 0 43 -12.167 73 -36.5s50.333 -36.5 61 -36.5c27.333 0 44 24.333 50 73z" />
    <glyph glyph-name="ograve" unicode="&#xf2;" horiz-adv-x="606" 
d="M327 488c-62 0 -111.832 -25.501 -149.499 -76.501s-56.5 -109.5 -56.5 -175.5c0 -54 13.667 -99.833 41 -137.5s67.666 -56.5 120.999 -56.5c61.333 0 111 24.833 149 74.5s57 107.834 57 174.501c0 54.667 -13.5 101.167 -40.5 139.5s-67.5 57.5 -121.5 57.5z
M332.001 541.999c72 0 126 -23.333 162 -70s54 -104.667 54 -174c0 -52 -9.66699 -101 -29 -147s-50 -84.667 -92 -116s-91.667 -47 -149 -47c-72 0 -126 23.167 -162 69.5s-54 103.833 -54 172.5c0 52 9.66699 101.167 29 147.5s50 85.333 92 117s91.667 47.5 149 47.5z
M267.001 811.999l62 20l57 -192h-45z" />
    <glyph glyph-name="oacute" unicode="&#xf3;" horiz-adv-x="606" 
d="M327 488c-62 0 -111.832 -25.501 -149.499 -76.501s-56.5 -109.5 -56.5 -175.5c0 -54 13.667 -99.833 41 -137.5s67.666 -56.5 120.999 -56.5c61.333 0 111 24.833 149 74.5s57 107.834 57 174.501c0 54.667 -13.5 101.167 -40.5 139.5s-67.5 57.5 -121.5 57.5z
M332.001 541.999c72 0 126 -23.333 162 -70s54 -104.667 54 -174c0 -52 -9.66699 -101 -29 -147s-50 -84.667 -92 -116s-91.667 -47 -149 -47c-72 0 -126 23.167 -162 69.5s-54 103.833 -54 172.5c0 52 9.66699 101.167 29 147.5s50 85.333 92 117s91.667 47.5 149 47.5z
M381.001 639.999h-59l158 171l46 -51z" />
    <glyph glyph-name="ocircumflex" unicode="&#xf4;" horiz-adv-x="606" 
d="M327 488c-62 0 -111.832 -25.501 -149.499 -76.501s-56.5 -109.5 -56.5 -175.5c0 -54 13.667 -99.833 41 -137.5s67.666 -56.5 120.999 -56.5c61.333 0 111 24.833 149 74.5s57 107.834 57 174.501c0 54.667 -13.5 101.167 -40.5 139.5s-67.5 57.5 -121.5 57.5z
M332.001 541.999c72 0 126 -23.333 162 -70s54 -104.667 54 -174c0 -52 -9.66699 -101 -29 -147s-50 -84.667 -92 -116s-91.667 -47 -149 -47c-72 0 -126 23.167 -162 69.5s-54 103.833 -54 172.5c0 52 9.66699 101.167 29 147.5s50 85.333 92 117s91.667 47.5 149 47.5z
M362.001 802.999h39l91 -163h-57l-60 110l-111 -110h-69z" />
    <glyph glyph-name="otilde" unicode="&#xf5;" horiz-adv-x="606" 
d="M327 488c-62 0 -111.832 -25.501 -149.499 -76.501s-56.5 -109.5 -56.5 -175.5c0 -54 13.667 -99.833 41 -137.5s67.666 -56.5 120.999 -56.5c61.333 0 111 24.833 149 74.5s57 107.834 57 174.501c0 54.667 -13.5 101.167 -40.5 139.5s-67.5 57.5 -121.5 57.5z
M332.001 541.999c72 0 126 -23.333 162 -70s54 -104.667 54 -174c0 -52 -9.66699 -101 -29 -147s-50 -84.667 -92 -116s-91.667 -47 -149 -47c-72 0 -126 23.167 -162 69.5s-54 103.833 -54 172.5c0 52 9.66699 101.167 29 147.5s50 85.333 92 117s91.667 47.5 149 47.5z
M484.001 765.999l38 0.000976562c0 -40 -8.5 -71.667 -25.5 -95s-37.833 -35 -62.5 -35c-18.667 0 -42.667 11.833 -72 35.5s-49 35.5 -59 35.5c-26 0 -43.333 -22.333 -52 -67h-44c4 39.333 14.5 70.166 31.5 92.499s37.5 33.5 61.5 33.5c18.667 0 43 -12.167 73 -36.5
s50.333 -36.5 61 -36.5c27.333 0 44 24.333 50 73z" />
    <glyph glyph-name="odieresis" unicode="&#xf6;" horiz-adv-x="606" 
d="M327 488c-62 0 -111.832 -25.501 -149.499 -76.501s-56.5 -109.5 -56.5 -175.5c0 -54 13.667 -99.833 41 -137.5s67.666 -56.5 120.999 -56.5c61.333 0 111 24.833 149 74.5s57 107.834 57 174.501c0 54.667 -13.5 101.167 -40.5 139.5s-67.5 57.5 -121.5 57.5z
M332.001 541.999c72 0 126 -23.333 162 -70s54 -104.667 54 -174c0 -52 -9.66699 -101 -29 -147s-50 -84.667 -92 -116s-91.667 -47 -149 -47c-72 0 -126 23.167 -162 69.5s-54 103.833 -54 172.5c0 52 9.66699 101.167 29 147.5s50 85.333 92 117s91.667 47.5 149 47.5z
M484.001 639.999h-80l19 81h80zM297.001 639.999h-80l19 81h80z" />
    <glyph glyph-name="divide" unicode="&#xf7;" horiz-adv-x="520" 
d="M275 89h-82l19 82h82zM61 268l12 53h420l-12 -53h-420zM345 421h-82l19 82h82z" />
    <glyph glyph-name="oslash" unicode="&#xf8;" horiz-adv-x="606" 
d="M283 42c61.333 0 110.999 24.8311 148.999 74.498s57 107.834 57 174.501c0 40.667 -7.83301 77.834 -23.5 111.501s-39.5 57.5 -71.5 71.5l-155 -427c14.667 -3.33301 29.334 -5 44.001 -5zM120.999 235.998c0 -78 24.333 -134 73 -168l152 419
c-4 0.666992 -10.333 1 -19 1c-62 0 -111.833 -25.5 -149.5 -76.5s-56.5 -109.5 -56.5 -175.5zM447.999 622.998l-33.999 -93.999c44.667 -16.667 78.167 -45.834 100.5 -87.501s33.5 -89.5 33.5 -143.5c0 -52 -9.66699 -101 -29 -147s-50 -84.667 -92 -116
s-91.667 -47 -149 -47c-20.667 0 -40 2 -58 6l-33 -90h-53l39 108c-36.667 19.333 -64.334 48.5 -83.001 87.5s-28 82.5 -28 130.5c0 52 9.66699 101.167 29 147.5s50 85.333 92 117s91.667 47.5 149 47.5c7.33301 0 18.333 -0.666992 33 -2l30 83h53z" />
    <glyph glyph-name="ugrave" unicode="&#xf9;" horiz-adv-x="588" 
d="M441 0l-57 -0.00292969l23 98c-50.667 -69.333 -114.334 -104 -191 -104c-50.667 0 -88.334 13.333 -113.001 40s-37 60.334 -37 101.001c0 16.667 2 33.334 6 50.001l79 347h57l-77 -338c-4 -18.667 -6 -36.667 -6 -54c0 -64.667 33 -97 99 -97
c48.667 0 93.334 18.833 134.001 56.5s69 90.834 85 159.501l64 273h57zM269 811.997l62 20l57 -192h-45z" />
    <glyph glyph-name="uacute" unicode="&#xfa;" horiz-adv-x="588" 
d="M441 0l-57 -0.00292969l23 98c-50.667 -69.333 -114.334 -104 -191 -104c-50.667 0 -88.334 13.333 -113.001 40s-37 60.334 -37 101.001c0 16.667 2 33.334 6 50.001l79 347h57l-77 -338c-4 -18.667 -6 -36.667 -6 -54c0 -64.667 33 -97 99 -97
c48.667 0 93.334 18.833 134.001 56.5s69 90.834 85 159.501l64 273h57zM368 639.997h-59l158 171l46 -51z" />
    <glyph glyph-name="ucircumflex" unicode="&#xfb;" horiz-adv-x="588" 
d="M441 0l-57 -0.00292969l23 98c-50.667 -69.333 -114.334 -104 -191 -104c-50.667 0 -88.334 13.333 -113.001 40s-37 60.334 -37 101.001c0 16.667 2 33.334 6 50.001l79 347h57l-77 -338c-4 -18.667 -6 -36.667 -6 -54c0 -64.667 33 -97 99 -97
c48.667 0 93.334 18.833 134.001 56.5s69 90.834 85 159.501l64 273h57zM370 802.997h39l91 -163h-57l-60 110l-111 -110h-69z" />
    <glyph glyph-name="udieresis" unicode="&#xfc;" horiz-adv-x="588" 
d="M441 0l-57 -0.00292969l23 98c-50.667 -69.333 -114.334 -104 -191 -104c-50.667 0 -88.334 13.333 -113.001 40s-37 60.334 -37 101.001c0 16.667 2 33.334 6 50.001l79 347h57l-77 -338c-4 -18.667 -6 -36.667 -6 -54c0 -64.667 33 -97 99 -97
c48.667 0 93.334 18.833 134.001 56.5s69 90.834 85 159.501l64 273h57zM489 639.997h-80l19 81h80zM302 639.997h-80l19 81h80z" />
    <glyph glyph-name="yacute" unicode="&#xfd;" horiz-adv-x="535" 
d="M571 532l-368.999 -639c-26.667 -46 -68.334 -69 -125.001 -69h-67l12 52h45c28 0 48.333 5 61 15s28 30.333 46 61l40 67l-118 513h59l97 -448l258 448h61zM334.001 640h-59l158 171l46 -51z" />
    <glyph glyph-name="thorn" unicode="&#xfe;" horiz-adv-x="619" 
d="M295 47c64 0 115.5 28.001 154.5 84.001s58.5 117.667 58.5 185c0 49.333 -11.833 90 -35.5 122s-59.5 48 -107.5 48c-64 0 -116 -27.833 -156 -83.5s-60 -116.834 -60 -183.501c0 -49.333 12.333 -90.333 37 -123s61 -49 109 -49zM379 542.001
c62 0 108.833 -21.333 140.5 -64s47.5 -95.334 47.5 -158c0 -52.667 -10.5 -103.5 -31.5 -152.5s-52.5 -90 -94.5 -123s-89.667 -49.5 -143 -49.5c-85.333 0 -144 40.333 -176 121l-74 -322h-62l221 956h62l-69 -295c47.333 58 107 87 179 87z" />
    <glyph glyph-name="ydieresis" unicode="&#xff;" horiz-adv-x="535" 
d="M571 532l-368.999 -639c-26.667 -46 -68.334 -69 -125.001 -69h-67l12 52h45c28 0 48.333 5 61 15s28 30.333 46 61l40 67l-118 513h59l97 -448l258 448h61zM469.001 640h-80l19 81h80zM282.001 640h-80l19 81h80z" />
    <glyph glyph-name=".null" horiz-adv-x="40" 
 />
    <glyph glyph-name="nonmarkingreturn" horiz-adv-x="333" 
 />
    <glyph glyph-name="currency" unicode="&#xa4;" horiz-adv-x="660" 
d="M178 288c0 -40.667 12.833 -74.5 38.5 -101.5s60.167 -40.5 103.5 -40.5c49.333 0 91 15.167 125 45.5s51 71.5 51 123.5c0 40 -13 73.667 -39 101s-60.667 41 -104 41c-50 0 -91.667 -15.333 -125 -46s-50 -71.667 -50 -123zM549 321
c0 -75.333 -28.667 -134.333 -86 -177l64 -112l-50 -32l-65 114c-32 -12.667 -64.667 -19 -98 -19c-44 0 -81.667 12 -113 36l-136 -131l-40 38l136 132c-24 32.667 -36 69.667 -36 111c0 75.333 29 135 87 179l-62 109l51 32l63 -111c29.333 12 61.333 18 96 18
c45.334 0 84.667 -13.333 118 -40l136 130l38 -35l-138 -132c23.333 -34 35 -70.667 35 -110z" />
    <glyph glyph-name="brokenbar" unicode="&#xa6;" horiz-adv-x="240" 
d="M60 -120h-59l97 417h59zM193 453h-59l96 417h59z" />
    <glyph glyph-name="dieresis" unicode="&#xa8;" horiz-adv-x="267" 
d="M353 640h-80l19 81h80zM166 640h-80l19 81h80z" />
    <glyph glyph-name="acute" unicode="&#xb4;" horiz-adv-x="176" 
d="M145 640h-59l158 171l46 -51z" />
    <glyph glyph-name="cedilla" unicode="&#xb8;" horiz-adv-x="208" 
d="M41 6l-11.999 -58c27.333 -1.33301 48.833 -7.83301 64.5 -19.5s23.5 -28.167 23.5 -49.5c0 -25.333 -10.5 -47.833 -31.5 -67.5s-48.167 -29.5 -81.5 -29.5c-41.333 0 -76.333 15 -105 45l27 31c22.667 -24 48.667 -36 78 -36c21.333 0 38.666 5 51.999 15
s20 22.667 20 38c0 30.667 -33.667 47 -101 49l31 82h35z" />
    <glyph glyph-name="onequarter" unicode="&#xbc;" horiz-adv-x="1040" 
d="M705 148h170l59 249zM991 106h-80l-26 -105h-43l24 106h-220l9 44l275 300h60l-71 -301h81zM406 294h-254.001l10 44h104l81 351c-29.333 -22 -69.666 -38 -120.999 -48l10 43c46 9.33301 88.333 29.333 127 60h42l-94 -406h105zM315.999 0h-60l645 750h60z" />
    <glyph glyph-name="onehalf" unicode="&#xbd;" horiz-adv-x="1040" 
d="M979 45l-9.99902 -44.002h-305l9 42l123 97c8.67285 6.66699 21.8398 16.834 39.5 30.501c17.667 13.667 30.167 23.5 37.5 29.5s17.5 14.5 30.5 25.5s22.167 19.833 27.5 26.5s11.5 14.834 18.5 24.501s11.667 19.167 14 28.5s3.5 19 3.5 29
c0 24.667 -8.33301 44 -25 58s-38 21 -64 21c-33.334 0 -61.167 -10 -83.5 -30s-34.833 -48 -37.5 -84h-46c4 50.667 22.167 89.5 54.5 116.5s71.166 40.5 116.499 40.5c38 0 69.667 -10.333 95 -31s38 -48.667 38 -84c0 -38 -13 -71.5 -39 -100.5
s-70.333 -67.5 -133 -115.5l-105 -80h241zM387.001 293.998h-254.001l10 44h104l81 351c-29.333 -22 -69.666 -38 -120.999 -48l10 43c46 9.33301 88.333 29.333 127 60h42l-94 -406h105zM297 -0.00195312h-60l645 750h60z" />
    <glyph glyph-name="threequarters" unicode="&#xbe;" horiz-adv-x="1040" 
d="M655 148h170l59 249zM941 106h-80l-26 -105h-43l24 106h-220l9 44l275 300h60l-71 -301h81zM302 0h-60l645 750h60zM480 643c0 -29.333 -8.83301 -54.832 -26.5 -76.499s-42.5 -36.834 -74.5 -45.501c44 -15.333 66 -47 66 -95c0 -40 -15.5 -72.833 -46.5 -98.5
s-68.167 -38.5 -111.5 -38.5c-45.333 0 -79.833 12.5 -103.5 37.5s-35.5 53.5 -35.5 85.5c0 8 0.333008 13.667 1 17h47c-1.33301 -6.66699 -2 -12 -2 -16c0 -22 8.33301 -41.333 25 -58s39.667 -25 69 -25s54.5 8.5 75.5 25.5s31.5 39.167 31.5 66.5
c0 24 -8.33301 43.333 -25 58s-42.667 22 -78 22h-11l11 43h12c39.333 0 70.5 8.5 93.5 25.5s34.5 39.167 34.5 66.5c0 21.333 -8.16699 38.5 -24.5 51.5s-37.833 19.5 -64.5 19.5c-30 0 -56.5 -9.16699 -79.5 -27.5s-34.167 -47.5 -33.5 -87.5h-47
c2 52.667 19.333 92 52 118s69.667 39 111 39c37.333 0 69 -9.33301 95 -28s39 -45 39 -79z" />
    <glyph glyph-name="Amacron" unicode="&#x100;" horiz-adv-x="751" 
d="M553 273l-79 420l-254 -420h333zM563 220h-375l-133 -220h-67l458 750h71l147 -750h-60zM646 833h-320l11 47h320z" />
    <glyph glyph-name="amacron" unicode="&#x101;" horiz-adv-x="563" 
d="M419 249l8.00098 42.002c-25.333 -12 -59.333 -20 -102 -24l-79 -8c-18.667 -2 -36 -5.33301 -52 -10s-32 -11.334 -48 -20.001s-28.667 -20.834 -38 -36.501s-14 -34.167 -14 -55.5c0 -32 10 -56.167 30 -72.5s44.333 -24.5 73 -24.5c45.333 0 90.666 19.5 135.999 58.5
s74 89.167 86 150.5zM329.001 542.002c62.667 0 108.501 -13.668 137.501 -41.001s43.5 -61 43.5 -101c0 -11.333 -1.66699 -24.333 -5 -39l-84 -361h-57l23 102c-23.333 -40 -52.833 -69 -88.5 -87s-71.834 -27 -108.501 -27c-42.667 0 -79.167 11.667 -109.5 35
s-45.5 60 -45.5 110c0 47.333 15.167 85.333 45.5 114s74.833 46.667 133.5 54l137 18c64.667 8 97 36 97 84c0 30.667 -11.5 53.334 -34.5 68.001s-53.167 22 -90.5 22c-86 0 -139 -35.333 -159 -106h-57c30 103.333 104 155 222 155zM533.002 687.001l-11 -47h-320l11 47
h320z" />
    <glyph glyph-name="Abreve" unicode="&#x102;" horiz-adv-x="751" 
d="M553 273l-79 420l-254 -420h333zM563 220h-375l-133 -220h-67l458 750h71l147 -750h-60zM498 827c-32 0 -55.999 7.66797 -71.999 23.001s-24 34.666 -24 57.999c0 22.667 6.33301 45 19 67h46c-10.667 -22.667 -16 -41.667 -16 -57c0 -32.667 18 -49 54 -49
c27.333 0 47.166 9.5 59.499 28.5s18.5 40.833 18.5 65.5v12h51c0.666992 -3.33301 1 -8.33301 1 -15c0 -31.333 -11.5 -61.333 -34.5 -90s-57.167 -43 -102.5 -43z" />
    <glyph glyph-name="abreve" unicode="&#x103;" horiz-adv-x="563" 
d="M419 249l8.00098 42.002c-25.333 -12 -59.333 -20 -102 -24l-79 -8c-18.667 -2 -36 -5.33301 -52 -10s-32 -11.334 -48 -20.001s-28.667 -20.834 -38 -36.501s-14 -34.167 -14 -55.5c0 -32 10 -56.167 30 -72.5s44.333 -24.5 73 -24.5c45.333 0 90.666 19.5 135.999 58.5
s74 89.167 86 150.5zM329.001 542.002c62.667 0 108.501 -13.668 137.501 -41.001s43.5 -61 43.5 -101c0 -11.333 -1.66699 -24.333 -5 -39l-84 -361h-57l23 102c-23.333 -40 -52.833 -69 -88.5 -87s-71.834 -27 -108.501 -27c-42.667 0 -79.167 11.667 -109.5 35
s-45.5 60 -45.5 110c0 47.333 15.167 85.333 45.5 114s74.833 46.667 133.5 54l137 18c64.667 8 97 36 97 84c0 30.667 -11.5 53.334 -34.5 68.001s-53.167 22 -90.5 22c-86 0 -139 -35.333 -159 -106h-57c30 103.333 104 155 222 155zM369.002 635.001
c-32 0 -56 7.66797 -72 23.001s-24 34.666 -24 57.999c0 22.667 6.33301 45 19 67h46c-10.667 -22.667 -16 -41.667 -16 -57c0 -32.667 18 -49 54 -49c27.334 0 47.167 9.5 59.5 28.5s18.5 40.833 18.5 65.5v12h51c0.666992 -3.33301 1 -8.33301 1 -15
c0 -31.333 -11.5 -61.333 -34.5 -90s-57.167 -43 -102.5 -43z" />
    <glyph glyph-name="Aogonek" unicode="&#x104;" horiz-adv-x="751" 
d="M553 273l-79 420l-254 -420h333zM592 -72c0 -17.333 7.66699 -30.999 23 -40.999s33.333 -16 54 -18l-10 -45c-34 3.33301 -62.167 14.166 -84.5 32.499s-33.5 40.5 -33.5 66.5c0 36.667 18.667 64.667 56 84h6l-40 213h-375l-133 -220h-67l458 750h71l147 -750h-24
c-32 -20 -48 -44 -48 -72z" />
    <glyph glyph-name="aogonek" unicode="&#x105;" horiz-adv-x="563" 
d="M197 40c45.333 0 90.667 19.502 136 58.502s74 89.167 86 150.5l8 42c-25.333 -12 -59.333 -20 -102 -24l-79 -8c-18.667 -2 -36 -5.33301 -52 -10s-32 -11.334 -48 -20.001s-28.667 -20.834 -38 -36.501s-14 -34.167 -14 -55.5c0 -32 10 -56.167 30 -72.5
s44.333 -24.5 73 -24.5zM421.001 0.00195312h-23.999c-32 -20 -48 -44 -48 -72c0 -17.333 7.66699 -31 23 -41s33.333 -16 54 -18l-10 -45c-34 3.33301 -62.167 14.166 -84.5 32.499s-33.5 40.5 -33.5 66.5c0 36.667 18.667 64.667 56 84h12l21 95
c-23.333 -40 -52.833 -69 -88.5 -87s-71.834 -27 -108.501 -27c-42.667 0 -79.167 11.667 -109.5 35s-45.5 60 -45.5 110c0 47.333 15.167 85.333 45.5 114s74.833 46.667 133.5 54l137 18c64.667 8 97 36 97 84c0 30.667 -11.5 53.334 -34.5 68.001s-53.167 22 -90.5 22
c-86 0 -139 -35.333 -159 -106h-57c30 103.333 104 155 222 155c62.667 0 108.5 -13.667 137.5 -41s43.5 -61 43.5 -101c0 -11.333 -1.66699 -24.333 -5 -39z" />
    <glyph glyph-name="Cacute" unicode="&#x106;" horiz-adv-x="799" 
d="M663 242l65.002 -0.00195312c-17.333 -80.667 -56.333 -144.5 -117 -191.5s-131 -70.5 -211 -70.5c-96.667 0 -171.334 33.5 -224.001 100.5s-79 149.167 -79 246.5c0 42.667 5.16699 84.834 15.5 126.501s26.166 81.334 47.499 119.001s47 71 77 100
s66.333 52.167 109 69.5s89 26 139 26c80 0 145.5 -20.5 196.5 -61.5s77.167 -97.5 78.5 -169.5h-63c-3.33594 52.667 -24.6689 94.834 -64 126.5c-39.333 31.667 -90 47.5 -152 47.5c-50.667 0 -96.834 -11.333 -138.5 -34c-41.667 -22.667 -75.5 -52.334 -101.5 -89.001
s-46 -77.167 -60 -121.5s-21 -89.5 -21 -135.5c0 -82 21.167 -151.333 63.5 -208s102.5 -85 180.5 -85c61.333 0 116.5 17.833 165.5 53.5s80.167 85.834 93.5 150.501zM542.002 831.998h-59l158 171l46 -51z" />
    <glyph glyph-name="cacute" unicode="&#x107;" horiz-adv-x="569" 
d="M276 44c42.667 0 77.501 13 104.501 39s45.833 59 56.5 99h58c-13.333 -58.667 -41.333 -105.667 -84 -141s-91.667 -53 -147 -53c-64.667 0 -114.667 23.667 -150 71s-53 104.666 -53 171.999c0 51.334 10.167 100.167 30.5 146.5s52.166 85.333 95.499 117
s94 47.5 152 47.5c58.667 0 105.5 -15.667 140.5 -47s52.167 -75.333 51.5 -132h-58c0 42 -13 73.5 -39 94.5s-58.667 31.5 -98 31.5c-66 0 -118.5 -26.167 -157.5 -78.5s-58.5 -111.5 -58.5 -177.5c0 -53.333 13.5 -98.166 40.5 -134.499s65.5 -54.5 115.5 -54.5z
M376.001 640h-59l158 171l46 -51z" />
    <glyph glyph-name="Ccircumflex" unicode="&#x108;" horiz-adv-x="799" 
d="M663 242l65.002 -0.00195312c-17.333 -80.667 -56.333 -144.5 -117 -191.5s-131 -70.5 -211 -70.5c-96.667 0 -171.334 33.5 -224.001 100.5s-79 149.167 -79 246.5c0 42.667 5.16699 84.834 15.5 126.501s26.166 81.334 47.499 119.001s47 71 77 100
s66.333 52.167 109 69.5s89 26 139 26c80 0 145.5 -20.5 196.5 -61.5s77.167 -97.5 78.5 -169.5h-63c-3.33594 52.667 -24.6689 94.834 -64 126.5c-39.333 31.667 -90 47.5 -152 47.5c-50.667 0 -96.834 -11.333 -138.5 -34c-41.667 -22.667 -75.5 -52.334 -101.5 -89.001
s-46 -77.167 -60 -121.5s-21 -89.5 -21 -135.5c0 -82 21.167 -151.333 63.5 -208s102.5 -85 180.5 -85c61.333 0 116.5 17.833 165.5 53.5s80.167 85.834 93.5 150.501zM535.002 994.998h39l91 -163h-57l-60 110l-111 -110h-69z" />
    <glyph glyph-name="ccircumflex" unicode="&#x109;" horiz-adv-x="569" 
d="M276 44c42.667 0 77.501 13 104.501 39s45.833 59 56.5 99h58c-13.333 -58.667 -41.333 -105.667 -84 -141s-91.667 -53 -147 -53c-64.667 0 -114.667 23.667 -150 71s-53 104.666 -53 171.999c0 51.334 10.167 100.167 30.5 146.5s52.166 85.333 95.499 117
s94 47.5 152 47.5c58.667 0 105.5 -15.667 140.5 -47s52.167 -75.333 51.5 -132h-58c0 42 -13 73.5 -39 94.5s-58.667 31.5 -98 31.5c-66 0 -118.5 -26.167 -157.5 -78.5s-58.5 -111.5 -58.5 -177.5c0 -53.333 13.5 -98.166 40.5 -134.499s65.5 -54.5 115.5 -54.5z
M366.001 803h39l91 -163h-57l-60 110l-111 -110h-69z" />
    <glyph glyph-name="Cdotaccent" unicode="&#x10a;" horiz-adv-x="799" 
d="M663 242l65.002 -0.00195312c-17.333 -80.667 -56.333 -144.5 -117 -191.5s-131 -70.5 -211 -70.5c-96.667 0 -171.334 33.5 -224.001 100.5s-79 149.167 -79 246.5c0 42.667 5.16699 84.834 15.5 126.501s26.166 81.334 47.499 119.001s47 71 77 100
s66.333 52.167 109 69.5s89 26 139 26c80 0 145.5 -20.5 196.5 -61.5s77.167 -97.5 78.5 -169.5h-63c-3.33594 52.667 -24.6689 94.834 -64 126.5c-39.333 31.667 -90 47.5 -152 47.5c-50.667 0 -96.834 -11.333 -138.5 -34c-41.667 -22.667 -75.5 -52.334 -101.5 -89.001
s-46 -77.167 -60 -121.5s-21 -89.5 -21 -135.5c0 -82 21.167 -151.333 63.5 -208s102.5 -85 180.5 -85c61.333 0 116.5 17.833 165.5 53.5s80.167 85.834 93.5 150.501zM567.002 831.998h-91l21 91h91z" />
    <glyph glyph-name="cdotaccent" unicode="&#x10b;" horiz-adv-x="569" 
d="M276 44c42.667 0 77.501 13 104.501 39s45.833 59 56.5 99h58c-13.333 -58.667 -41.333 -105.667 -84 -141s-91.667 -53 -147 -53c-64.667 0 -114.667 23.667 -150 71s-53 104.666 -53 171.999c0 51.334 10.167 100.167 30.5 146.5s52.166 85.333 95.499 117
s94 47.5 152 47.5c58.667 0 105.5 -15.667 140.5 -47s52.167 -75.333 51.5 -132h-58c0 42 -13 73.5 -39 94.5s-58.667 31.5 -98 31.5c-66 0 -118.5 -26.167 -157.5 -78.5s-58.5 -111.5 -58.5 -177.5c0 -53.333 13.5 -98.166 40.5 -134.499s65.5 -54.5 115.5 -54.5z
M419.001 640h-91l21 91h91z" />
    <glyph glyph-name="Ccaron" unicode="&#x10c;" horiz-adv-x="799" 
d="M663 242l65.002 -0.00195312c-17.333 -80.667 -56.333 -144.5 -117 -191.5s-131 -70.5 -211 -70.5c-96.667 0 -171.334 33.5 -224.001 100.5s-79 149.167 -79 246.5c0 42.667 5.16699 84.834 15.5 126.501s26.166 81.334 47.499 119.001s47 71 77 100
s66.333 52.167 109 69.5s89 26 139 26c80 0 145.5 -20.5 196.5 -61.5s77.167 -97.5 78.5 -169.5h-63c-3.33594 52.667 -24.6689 94.834 -64 126.5c-39.333 31.667 -90 47.5 -152 47.5c-50.667 0 -96.834 -11.333 -138.5 -34c-41.667 -22.667 -75.5 -52.334 -101.5 -89.001
s-46 -77.167 -60 -121.5s-21 -89.5 -21 -135.5c0 -82 21.167 -151.333 63.5 -208s102.5 -85 180.5 -85c61.333 0 116.5 17.833 165.5 53.5s80.167 85.834 93.5 150.501zM538.002 830.998h-39l-91 163h58l60 -110l111 110h68z" />
    <glyph glyph-name="ccaron" unicode="&#x10d;" horiz-adv-x="569" 
d="M276 44c42.667 0 77.501 13 104.501 39s45.833 59 56.5 99h58c-13.333 -58.667 -41.333 -105.667 -84 -141s-91.667 -53 -147 -53c-64.667 0 -114.667 23.667 -150 71s-53 104.666 -53 171.999c0 51.334 10.167 100.167 30.5 146.5s52.166 85.333 95.499 117
s94 47.5 152 47.5c58.667 0 105.5 -15.667 140.5 -47s52.167 -75.333 51.5 -132h-58c0 42 -13 73.5 -39 94.5s-58.667 31.5 -98 31.5c-66 0 -118.5 -26.167 -157.5 -78.5s-58.5 -111.5 -58.5 -177.5c0 -53.333 13.5 -98.166 40.5 -134.499s65.5 -54.5 115.5 -54.5z
M401.001 640h-39l-91 163h58l60 -110l111 110h68z" />
    <glyph glyph-name="Dcaron" unicode="&#x10e;" horiz-adv-x="749" 
d="M122 54l135 0.000976562c49.334 0 95.667 7.5 139 22.5s80.5 35.333 111.5 61s57.667 55 80 88s39 67.667 50 104s16.5 72.833 16.5 109.5c0 73.333 -22 134.666 -66 183.999s-107.667 74 -191 74h-127zM222 750.001l182.002 -0.000976562
c68 0 126.333 -14.833 174.999 -44.5c48.667 -29.667 84 -67.5 106 -113.5s33 -97.333 33 -154c0 -52.667 -10.167 -104.667 -30.5 -156s-49.333 -98.166 -87 -140.499s-86.334 -76.5 -146.001 -102.5s-125.5 -39 -197.5 -39h-208zM447.002 831h-39l-91 163h58l60 -110
l111 110h68z" />
    <glyph glyph-name="dcaron" unicode="&#x10f;" horiz-adv-x="806" 
d="M267 41c42.667 0 80.501 14.0029 113.501 42.0029s57.667 62.167 74 102.5s24.5 82.166 24.5 125.499c0 52 -12.333 94.833 -37 128.5s-61.334 50.5 -110 50.5h-4c-42.667 -0.667969 -80.334 -14.835 -113.001 -42.501c-32.667 -27.667 -57 -61.334 -73 -101
c-16 -39.667 -24 -80.834 -24 -123.501c0 -52 12.667 -95.333 38 -130s62.333 -52 111 -52zM860.001 762.003l-21 -89c-12.667 -53.333 -32.167 -92 -58.5 -116s-64.5 -40.667 -114.5 -50l-10 41c40 8 70.833 22.333 92.5 43s35.5 49.667 41.5 87h-43l21 84h92z
M475.001 0.00292969l-57.002 0.000976562l18 84c-43.333 -64 -103.333 -96 -180 -96c-63.333 0 -112 22.667 -146 68s-51 100.666 -51 165.999c0 52 10.333 102 31 150s52.334 88.333 95.001 121s91.667 49 147 49c50.667 0 90.834 -12.833 120.501 -38.5
s49.5 -56.5 59.5 -92.5l82 351h57z" />
    <glyph glyph-name="Dcroat" unicode="&#x110;" horiz-adv-x="769" 
d="M142 54l135 0.000976562c49.334 0 95.667 7.5 139 22.5s80.5 35.333 111.5 61s57.667 55 80 88s39 67.667 50 104s16.5 72.833 16.5 109.5c0 73.333 -22 134.666 -66 183.999s-107.667 74 -191 74h-127l-66 -287h207l-13 -57h-207zM242 750.001l182.001 -0.000976562
c68 0 126.333 -14.833 175 -44.5s84 -67.5 106 -113.5s33 -97.333 33 -154c0 -52.667 -10.167 -104.667 -30.5 -156s-49.333 -98.166 -87 -140.499s-86.334 -76.5 -146.001 -102.5s-125.5 -39 -197.5 -39h-208l81 353h-111l13 57h112z" />
    <glyph glyph-name="dcroat" unicode="&#x111;" horiz-adv-x="650" 
d="M267 41c42.667 0 80.501 14.0029 113.501 42.0029s57.667 62.167 74 102.5s24.5 82.166 24.5 125.499c0 52 -12.333 94.833 -37 128.5s-61.334 50.5 -110 50.5h-4c-42.667 -0.667969 -80.334 -14.835 -113.001 -42.501c-32.667 -27.667 -57 -61.334 -73 -101
c-16 -39.667 -24 -80.834 -24 -123.501c0 -52 12.667 -95.333 38 -130s62.333 -52 111 -52zM683.001 624.003l-64.002 0.000976562l-144 -624h-57l18 84c-43.333 -64 -103.333 -96 -180 -96c-63.333 0 -112 22.667 -146 68s-51 100.666 -51 165.999c0 52 10.333 102 31 150
s52.334 88.333 95.001 121s91.667 49 147 49c50.667 0 90.834 -12.833 120.501 -38.5s49.5 -56.5 59.5 -92.5l50 213h-158l12 53h158l20 85h57l-20 -85h64z" />
    <glyph glyph-name="Emacron" unicode="&#x112;" horiz-adv-x="630" 
d="M671 750l-12 -53h-390l-67 -291h360l-12 -54h-360l-69 -298h410l-12 -54h-470l173 750h449zM618 880l-11 -47h-320l11 47h320z" />
    <glyph glyph-name="emacron" unicode="&#x113;" horiz-adv-x="570" 
d="M337 489c-47.333 0 -90.501 -15.5 -129.501 -46.5s-65.5 -76.833 -79.5 -137.5h342c3.33301 16.667 5 31.667 5 45c0 40.667 -11.667 74 -35 100s-57.666 39 -102.999 39zM515.999 253l-399.997 0.000976562c-1.33301 -14.667 -2 -26.334 -2 -35.001
c0 -48.667 12.167 -90.334 36.5 -125.001s63.166 -52 116.499 -52c38 0 71.667 9.83301 101 29.5s51.333 49.834 66 90.501h57c-20.667 -59.333 -51.334 -103 -92 -131c-40.667 -28 -86.667 -42 -138 -42c-64.667 0 -114.334 21 -149.001 63s-52 98.667 -52 170
c0 92 26.667 168.5 80 229.5s120.666 91.5 201.999 91.5c62 0 108.5 -18.333 139.5 -55s46.5 -84 46.5 -142c0 -30 -4 -60.667 -12 -92zM529.002 687.001l-11 -47h-320l11 47h320z" />
    <glyph glyph-name="Ebreve" unicode="&#x114;" horiz-adv-x="630" 
d="M671 750l-12 -53h-390l-67 -291h360l-12 -54h-360l-69 -298h410l-12 -54h-470l173 750h449zM541 975l51.001 0.000976562c0.666992 -3.33301 1 -8.33301 1 -15c0 -31.333 -11.5 -61.333 -34.5 -90s-57.167 -43 -102.5 -43c-32 0 -56 7.66699 -72 23
s-24 34.666 -24 57.999c0 22.667 6.33301 45 19 67h46c-10.667 -22.667 -16 -41.667 -16 -57c0 -32.667 18 -49 54 -49c27.334 0 47.167 9.5 59.499 28.5c12.333 19 18.5 40.833 18.5 65.5v12z" />
    <glyph glyph-name="ebreve" unicode="&#x115;" horiz-adv-x="570" 
d="M337 489c-47.333 0 -90.501 -15.5 -129.501 -46.5s-65.5 -76.833 -79.5 -137.5h342c3.33301 16.667 5 31.667 5 45c0 40.667 -11.667 74 -35 100s-57.666 39 -102.999 39zM515.999 253l-399.997 0.000976562c-1.33301 -14.667 -2 -26.334 -2 -35.001
c0 -48.667 12.167 -90.334 36.5 -125.001s63.166 -52 116.499 -52c38 0 71.667 9.83301 101 29.5s51.333 49.834 66 90.501h57c-20.667 -59.333 -51.334 -103 -92 -131c-40.667 -28 -86.667 -42 -138 -42c-64.667 0 -114.334 21 -149.001 63s-52 98.667 -52 170
c0 92 26.667 168.5 80 229.5s120.666 91.5 201.999 91.5c62 0 108.5 -18.333 139.5 -55s46.5 -84 46.5 -142c0 -30 -4 -60.667 -12 -92zM449.002 783.001l51 0.000976562c0.666992 -3.33301 1 -8.33301 1 -15c0 -31.333 -11.5 -61.333 -34.5 -90s-57.167 -43 -102.5 -43
c-32 0 -56 7.66699 -72 23s-24 34.666 -24 57.999c0 22.667 6.33301 45 19 67h46c-10.667 -22.667 -16 -41.667 -16 -57c0 -32.667 18 -49 54 -49c27.334 0 47.167 9.5 59.5 28.5s18.5 40.833 18.5 65.5v12z" />
    <glyph glyph-name="Edotaccent" unicode="&#x116;" horiz-adv-x="630" 
d="M671 750l-12 -53h-390l-67 -291h360l-12 -54h-360l-69 -298h410l-12 -54h-470l173 750h449zM507 832h-91l21 91h91z" />
    <glyph glyph-name="edotaccent" unicode="&#x117;" horiz-adv-x="570" 
d="M337 489c-47.333 0 -90.501 -15.5 -129.501 -46.5s-65.5 -76.833 -79.5 -137.5h342c3.33301 16.667 5 31.667 5 45c0 40.667 -11.667 74 -35 100s-57.666 39 -102.999 39zM515.999 253l-399.997 0.000976562c-1.33301 -14.667 -2 -26.334 -2 -35.001
c0 -48.667 12.167 -90.334 36.5 -125.001s63.166 -52 116.499 -52c38 0 71.667 9.83301 101 29.5s51.333 49.834 66 90.501h57c-20.667 -59.333 -51.334 -103 -92 -131c-40.667 -28 -86.667 -42 -138 -42c-64.667 0 -114.334 21 -149.001 63s-52 98.667 -52 170
c0 92 26.667 168.5 80 229.5s120.666 91.5 201.999 91.5c62 0 108.5 -18.333 139.5 -55s46.5 -84 46.5 -142c0 -30 -4 -60.667 -12 -92zM411.002 640.001h-91l21 91h91z" />
    <glyph glyph-name="Eogonek" unicode="&#x118;" horiz-adv-x="630" 
d="M269 697l-67 -290.999h360l-12 -54h-360l-69 -298h410l-12 -54h-27c-32 -20 -48 -44 -48 -72c0 -17.333 7.66699 -31 23 -41s33.333 -16 54 -18l-10 -45c-34 3.33301 -62.167 14.166 -84.5 32.499s-33.5 40.5 -33.5 66.5c0 31.333 14.667 57 44 77h-388l173 750h449
l-12 -53h-390z" />
    <glyph glyph-name="eogonek" unicode="&#x119;" horiz-adv-x="570" 
d="M337 489c-47.333 0 -90.501 -15.5 -129.501 -46.5s-65.5 -76.833 -79.5 -137.5h342c3.33301 16.667 5 31.667 5 45c0 40.667 -11.667 74 -35 100s-57.666 39 -102.999 39zM515.999 253l-399.998 0.00195312c-1.33301 -14.667 -2 -26.334 -2 -35.001
c0 -48.667 12.167 -90.334 36.5 -125.001s63.166 -52 116.499 -52c38 0 71.667 9.83301 101 29.5s51.333 49.834 66 90.501h57c-20.667 -59.333 -51.334 -103 -92 -131c-40.667 -28 -86.667 -42 -138 -42c-11.334 0 -19.667 0.333008 -25 1c-21.333 -16.667 -32 -37 -32 -61
c0 -17.333 7.66699 -31 23 -41s33.333 -16 54 -18l-10 -45c-34 3.33301 -62.167 14.166 -84.5 32.499s-33.5 40.5 -33.5 66.5c0 30 13.667 54.667 41 74c-44 14 -77.333 40.5 -100 79.5s-34 87.167 -34 144.5c0 92 26.667 168.5 80 229.5s120.666 91.5 201.999 91.5
c62 0 108.5 -18.333 139.5 -55s46.5 -84 46.5 -142c0 -30 -4 -60.667 -12 -92z" />
    <glyph glyph-name="Ecaron" unicode="&#x11a;" horiz-adv-x="630" 
d="M671 750l-12 -53h-390l-67 -291h360l-12 -54h-360l-69 -298h410l-12 -54h-470l173 750h449zM459 831h-39l-91 163h58l60 -110l111 110h68z" />
    <glyph glyph-name="ecaron" unicode="&#x11b;" horiz-adv-x="570" 
d="M337 489c-47.333 0 -90.501 -15.5 -129.501 -46.5s-65.5 -76.833 -79.5 -137.5h342c3.33301 16.667 5 31.667 5 45c0 40.667 -11.667 74 -35 100s-57.666 39 -102.999 39zM515.999 253l-399.997 0.000976562c-1.33301 -14.667 -2 -26.334 -2 -35.001
c0 -48.667 12.167 -90.334 36.5 -125.001s63.166 -52 116.499 -52c38 0 71.667 9.83301 101 29.5s51.333 49.834 66 90.501h57c-20.667 -59.333 -51.334 -103 -92 -131c-40.667 -28 -86.667 -42 -138 -42c-64.667 0 -114.334 21 -149.001 63s-52 98.667 -52 170
c0 92 26.667 168.5 80 229.5s120.666 91.5 201.999 91.5c62 0 108.5 -18.333 139.5 -55s46.5 -84 46.5 -142c0 -30 -4 -60.667 -12 -92zM364.002 640.001h-39l-91 163h58l60 -110l111 110h68z" />
    <glyph glyph-name="Gcircumflex" unicode="&#x11c;" horiz-adv-x="802" 
d="M640 0l-55.002 -0.00292969l23 101c-62 -80 -141.333 -120 -238 -120c-87.333 0 -155 32.167 -203 96.5s-72 143.833 -72 238.5c0 54.667 8.5 108.334 25.5 161.001c17 52.668 41.333 100.835 73 144.501c31.667 43.667 73.334 79 125.001 106s108.834 40.5 171.501 40.5
c80 0 145.5 -20.5 196.5 -61.5s77.167 -97.5 78.5 -169.5h-63c-3.33496 52.667 -24.668 94.834 -64 126.5c-39.333 31.667 -90.333 47.5 -153 47.5c-68.667 0 -128.5 -19.833 -179.5 -59.5s-88.5 -88.667 -112.5 -147s-36 -120.5 -36 -186.5
c0 -81.333 19.333 -148.833 58 -202.5s93.667 -80.5 165 -80.5c65.333 0 122.833 23.833 172.5 71.5c49.668 47.667 84.835 117.834 105.5 210.501h-260l14 54h313zM524.998 994.997h39l91 -163h-57l-60 110l-111 -110h-69z" />
    <glyph glyph-name="gcircumflex" unicode="&#x11d;" horiz-adv-x="611" 
d="M267 71c55.333 0 103.333 22.667 144 68s61 104 61 176c0 58 -13.333 102 -40 132s-61 45 -103 45c-53.333 0 -101.833 -21.833 -145.5 -65.5s-65.5 -102.834 -65.5 -177.5c0 -59.333 14 -103.833 42 -133.5s63.667 -44.5 107 -44.5zM588 532l-118 -506
c-38 -162.667 -125 -244 -261 -244c-59.333 0 -108.833 15 -148.5 45s-60.5 75.667 -62.5 137h55c2 -38.667 15.333 -70.334 40 -95.001s63 -37 115 -37c107.333 0 175 60.667 203 182l22 95c-40.667 -60 -97.667 -90 -171 -90c-57.333 0 -105.333 18.833 -144 56.5
s-58 92.167 -58 163.5c0 80.667 24.667 151.334 74 212.001s113.333 91 192 91c42.667 0 80 -10 112 -30s54.333 -50 67 -90l25 110h58zM377 803h39l91 -163h-57l-60 110l-111 -110h-69z" />
    <glyph glyph-name="Gbreve" unicode="&#x11e;" horiz-adv-x="802" 
d="M640 0l-55.002 -0.00292969l23 101c-62 -80 -141.333 -120 -238 -120c-87.333 0 -155 32.167 -203 96.5s-72 143.833 -72 238.5c0 54.667 8.5 108.334 25.5 161.001c17 52.668 41.333 100.835 73 144.501c31.667 43.667 73.334 79 125.001 106s108.834 40.5 171.501 40.5
c80 0 145.5 -20.5 196.5 -61.5s77.167 -97.5 78.5 -169.5h-63c-3.33496 52.667 -24.668 94.834 -64 126.5c-39.333 31.667 -90.333 47.5 -153 47.5c-68.667 0 -128.5 -19.833 -179.5 -59.5s-88.5 -88.667 -112.5 -147s-36 -120.5 -36 -186.5
c0 -81.333 19.333 -148.833 58 -202.5s93.667 -80.5 165 -80.5c65.333 0 122.833 23.833 172.5 71.5c49.668 47.667 84.835 117.834 105.5 210.501h-260l14 54h313zM615.998 974.997l51.001 0.000976562c0.666992 -3.33301 1 -8.33301 1 -15
c0 -31.333 -11.5 -61.333 -34.5 -90s-57.167 -43 -102.5 -43c-32 0 -56 7.66699 -72 23s-24 34.666 -24 57.999c0 22.667 6.33301 45 19 67h46c-10.667 -22.667 -16 -41.667 -16 -57c0 -32.667 18 -49 54 -49c27.333 0 47.166 9.5 59.499 28.5s18.5 40.833 18.5 65.5v12z
" />
    <glyph glyph-name="gbreve" unicode="&#x11f;" horiz-adv-x="611" 
d="M267 71c55.333 0 103.333 22.667 144 68s61 104 61 176c0 58 -13.333 102 -40 132s-61 45 -103 45c-53.333 0 -101.833 -21.833 -145.5 -65.5s-65.5 -102.834 -65.5 -177.5c0 -59.333 14 -103.833 42 -133.5s63.667 -44.5 107 -44.5zM588 532l-118 -506
c-38 -162.667 -125 -244 -261 -244c-59.333 0 -108.833 15 -148.5 45s-60.5 75.667 -62.5 137h55c2 -38.667 15.333 -70.334 40 -95.001s63 -37 115 -37c107.333 0 175 60.667 203 182l22 95c-40.667 -60 -97.667 -90 -171 -90c-57.333 0 -105.333 18.833 -144 56.5
s-58 92.167 -58 163.5c0 80.667 24.667 151.334 74 212.001s113.333 91 192 91c42.667 0 80 -10 112 -30s54.333 -50 67 -90l25 110h58zM458 783l51 0.000976562c0.666992 -3.33301 1 -8.33301 1 -15c0 -31.333 -11.5 -61.333 -34.5 -90s-57.167 -43 -102.5 -43
c-32 0 -56 7.66699 -72 23s-24 34.666 -24 57.999c0 22.667 6.33301 45 19 67h46c-10.667 -22.667 -16 -41.667 -16 -57c0 -32.667 18 -49 54 -49c27.334 0 47.167 9.5 59.5 28.5s18.5 40.833 18.5 65.5v12z" />
    <glyph glyph-name="Gdotaccent" unicode="&#x120;" horiz-adv-x="802" 
d="M640 0l-55.002 -0.00292969l23 101c-62 -80 -141.333 -120 -238 -120c-87.333 0 -155 32.167 -203 96.5s-72 143.833 -72 238.5c0 54.667 8.5 108.334 25.5 161.001c17 52.668 41.333 100.835 73 144.501c31.667 43.667 73.334 79 125.001 106s108.834 40.5 171.501 40.5
c80 0 145.5 -20.5 196.5 -61.5s77.167 -97.5 78.5 -169.5h-63c-3.33496 52.667 -24.668 94.834 -64 126.5c-39.333 31.667 -90.333 47.5 -153 47.5c-68.667 0 -128.5 -19.833 -179.5 -59.5s-88.5 -88.667 -112.5 -147s-36 -120.5 -36 -186.5
c0 -81.333 19.333 -148.833 58 -202.5s93.667 -80.5 165 -80.5c65.333 0 122.833 23.833 172.5 71.5c49.668 47.667 84.835 117.834 105.5 210.501h-260l14 54h313zM579.998 831.997h-91l21 91h91z" />
    <glyph glyph-name="gdotaccent" unicode="&#x121;" horiz-adv-x="611" 
d="M267 71c55.333 0 103.333 22.667 144 68s61 104 61 176c0 58 -13.333 102 -40 132s-61 45 -103 45c-53.333 0 -101.833 -21.833 -145.5 -65.5s-65.5 -102.834 -65.5 -177.5c0 -59.333 14 -103.833 42 -133.5s63.667 -44.5 107 -44.5zM588 532l-118 -506
c-38 -162.667 -125 -244 -261 -244c-59.333 0 -108.833 15 -148.5 45s-60.5 75.667 -62.5 137h55c2 -38.667 15.333 -70.334 40 -95.001s63 -37 115 -37c107.333 0 175 60.667 203 182l22 95c-40.667 -60 -97.667 -90 -171 -90c-57.333 0 -105.333 18.833 -144 56.5
s-58 92.167 -58 163.5c0 80.667 24.667 151.334 74 212.001s113.333 91 192 91c42.667 0 80 -10 112 -30s54.333 -50 67 -90l25 110h58zM406 640h-91l21 91h91z" />
    <glyph glyph-name="uni0122" unicode="&#x122;" horiz-adv-x="802" 
d="M392 -89l-21 -89c-12.667 -53.333 -32.167 -92 -58.5 -116s-64.5 -40.667 -114.5 -50l-10 41c40 8 70.833 22.333 92.5 43s35.5 49.667 41.5 87h-43l21 84h92zM640 0l-55.002 -0.00292969l23 101c-62 -80 -141.333 -120 -238 -120c-87.333 0 -155 32.167 -203 96.5
s-72 143.833 -72 238.5c0 54.667 8.5 108.334 25.5 161.001c17 52.668 41.333 100.835 73 144.501c31.667 43.667 73.334 79 125.001 106s108.834 40.5 171.501 40.5c80 0 145.5 -20.5 196.5 -61.5s77.167 -97.5 78.5 -169.5h-63c-3.33496 52.667 -24.668 94.834 -64 126.5
c-39.333 31.667 -90.333 47.5 -153 47.5c-68.667 0 -128.5 -19.833 -179.5 -59.5s-88.5 -88.667 -112.5 -147s-36 -120.5 -36 -186.5c0 -81.333 19.333 -148.833 58 -202.5s93.667 -80.5 165 -80.5c65.333 0 122.833 23.833 172.5 71.5
c49.668 47.667 84.835 117.834 105.5 210.501h-260l14 54h313z" />
    <glyph glyph-name="uni0123" unicode="&#x123;" horiz-adv-x="611" 
d="M267 71c55.333 0 103.333 22.667 144 68s61 104 61 176c0 58 -13.333 102 -40 132s-61 45 -103 45c-53.333 0 -101.833 -21.833 -145.5 -65.5s-65.5 -102.834 -65.5 -177.5c0 -59.333 14 -103.833 42 -133.5s63.667 -44.5 107 -44.5zM588 532l-118 -506
c-38 -162.667 -125 -244 -261 -244c-59.333 0 -108.833 15 -148.5 45s-60.5 75.667 -62.5 137h55c2 -38.667 15.333 -70.334 40 -95.001s63 -37 115 -37c107.333 0 175 60.667 203 182l22 95c-40.667 -60 -97.667 -90 -171 -90c-57.333 0 -105.333 18.833 -144 56.5
s-58 92.167 -58 163.5c0 80.667 24.667 151.334 74 212.001s113.333 91 192 91c42.667 0 80 -10 112 -30s54.333 -50 67 -90l25 110h58zM296 645l21 89c12.667 53.333 32.167 92 58.5 116s64.5 40.667 114.5 50l10 -41c-40 -8 -70.833 -22.333 -92.5 -43
s-35.5 -49.667 -41.5 -87h43l-21 -84h-92z" />
    <glyph glyph-name="Hcircumflex" unicode="&#x124;" horiz-adv-x="756" 
d="M595 0h-61l80 351h-423l-81 -351h-61l173 750h61l-79 -345h423l80 345h61zM504 995h39l91 -163h-57l-60 110l-111 -110h-69z" />
    <glyph glyph-name="hcircumflex" unicode="&#x125;" horiz-adv-x="592" 
d="M390 542c50 0 87.5 -12.5 112.5 -37.5s37.5 -56.833 37.5 -95.5c0 -15.333 -2 -31 -6 -47l-83 -362h-57l79 344c3.33301 15.333 5 30 5 44c0 30 -8.33301 54.5 -25 73.5c-16.668 19 -43.335 28.5 -80.001 28.5c-50 0 -95 -20.167 -135 -60.5s-68 -95.5 -84 -165.5
l-61 -264h-58l175 762h57l-74 -320c46.667 66.667 112.334 100 197.001 100zM441 803h39l91 -163h-57l-60 110l-111 -110h-69z" />
    <glyph glyph-name="Hbar" unicode="&#x126;" horiz-adv-x="827" 
d="M696 528h-424l-28 -123h423zM857 528h-100l-122 -528h-61l80 351h-423l-81 -351h-61l122 528h-119l11 53h120l39 169h61l-39 -169h424l39 169h61l-39 -169h99z" />
    <glyph glyph-name="hbar" unicode="&#x127;" horiz-adv-x="635" 
d="M433 542c50 0 87.499 -12.5 112.499 -37.5s37.5 -56.833 37.5 -95.5c0 -15.333 -2 -31 -6 -47l-83 -362h-57l79 344c3.33301 15.333 5 30 5 44c0 30 -8.33301 54.5 -25 73.5s-43.334 28.5 -80 28.5c-50 0 -95 -20.167 -135 -60.5s-68 -95.5 -84 -165.5l-61 -264h-58
l143 624h-88l12 53h88l20 85h57l-20 -85h134l-12 -53h-134l-42 -182c46.667 66.667 112.334 100 197.001 100z" />
    <glyph glyph-name="Itilde" unicode="&#x128;" horiz-adv-x="313" 
d="M248 750h62l-173 -750h-62zM424 958l38 0.000976562c0 -40 -8.5 -71.667 -25.5 -95s-37.833 -35 -62.5 -35c-18.667 0 -42.667 11.833 -72 35.5s-49 35.5 -59 35.5c-26 0 -43.333 -22.333 -52 -67h-44c4 39.333 14.5 70.166 31.5 92.499s37.5 33.5 61.5 33.5
c15.333 0 31.5 -6 48.5 -18s33 -24.167 48 -36.5s27.5 -18.5 37.5 -18.5c27.333 0 44 24.333 50 73z" />
    <glyph glyph-name="itilde" unicode="&#x129;" horiz-adv-x="265" 
d="M187 532h58l-122 -532h-59zM356 766l38 0.000976562c0 -40 -8.5 -71.667 -25.5 -95s-37.833 -35 -62.5 -35c-18.667 0 -42.667 11.833 -72 35.5s-49 35.5 -59 35.5c-26 0 -43.333 -22.333 -52 -67h-44c4 39.333 14.5 70.166 31.5 92.499s37.5 33.5 61.5 33.5
c18.667 0 43 -12.167 73 -36.5s50.333 -36.5 61 -36.5c27.333 0 44 24.333 50 73z" />
    <glyph glyph-name="Imacron" unicode="&#x12a;" horiz-adv-x="313" 
d="M248 750h62l-173 -750h-62zM456 880l-11 -47h-320l11 47h320z" />
    <glyph glyph-name="imacron" unicode="&#x12b;" horiz-adv-x="264" 
d="M186 532h58l-122 -532h-59zM387 687l-11 -47h-320l11 47h320z" />
    <glyph glyph-name="Iogonek" unicode="&#x12e;" horiz-adv-x="313" 
d="M68 -72c0 -17.333 7.66699 -30.999 23 -40.999s33.333 -16 54 -18l-10 -45c-34 3.33301 -62.167 14.166 -84.5 32.499s-33.5 40.5 -33.5 66.5c0 36.667 18.667 64.667 56 84h4l171 743h62l-173 -750h-21c-32 -20 -48 -44 -48 -72z" />
    <glyph glyph-name="iogonek" unicode="&#x12f;" horiz-adv-x="275" 
d="M117 0l-25 0.000976562c-32 -20 -48 -44 -48 -72c0 -17.333 7.66699 -31 23 -41s33.333 -16 54 -18l-10 -45c-34 3.33301 -62.167 14.166 -84.5 32.499s-33.5 40.5 -33.5 66.5c0 36.667 18.667 64.667 56 84h13l121 525h57zM295 750.001l-18 -78h-69l18 78h69z" />
    <glyph glyph-name="Idotaccent" unicode="&#x130;" horiz-adv-x="322" 
d="M252 750h62l-173 -750h-62zM347 832h-91l21 91h91z" />
    <glyph glyph-name="dotlessi" unicode="&#x131;" horiz-adv-x="249" 
d="M162 532h58l-122 -532h-59z" />
    <glyph glyph-name="IJ" unicode="&#x132;" horiz-adv-x="818" 
d="M839 750l-131 -572c-15.333 -66 -42.833 -115.5 -82.5 -148.5s-86.167 -49.5 -139.5 -49.5c-52.667 0 -96.167 14.5 -130.5 43.5s-51.5 68.167 -51.5 117.5c0 16 2 33 6 51l12 50h60l-11 -48c-4 -16.667 -6 -32 -6 -46c0 -36 10.833 -64 32.5 -84s50.167 -30 85.5 -30
c86 0 140.333 49.333 163 148l131 568h62zM227 750h62l-173 -750h-62z" />
    <glyph glyph-name="ij" unicode="&#x133;" horiz-adv-x="527" 
d="M496 532l-141 -616c-10.667 -46.667 -28.5 -78.667 -53.5 -96s-55.833 -26 -92.5 -26h-39l12 52h31c46 0 75.333 28.333 88 85l138 601h57zM163 532h57l-123 -532h-57zM480 750h67l-17 -79h-67zM257 672h-69l18 78h69z" />
    <glyph glyph-name="Jcircumflex" unicode="&#x134;" horiz-adv-x="536" 
d="M557 750l-131 -572c-15.333 -66 -42.833 -115.5 -82.5 -148.5s-86.167 -49.5 -139.5 -49.5c-52.667 0 -96.167 14.5 -130.5 43.5s-51.5 68.167 -51.5 117.5c0 16 2 33 6 51l12 50h60l-11 -48c-4 -17.334 -6 -32.667 -6 -46c0 -36 10.833 -64 32.5 -84
s50.167 -30 85.5 -30c86 0 140.333 49.333 163 148l131 568h62zM524 995h39l91 -163h-57l-60 110l-111 -110h-69z" />
    <glyph glyph-name="jcircumflex" unicode="&#x135;" horiz-adv-x="300" 
d="M248 532l-138 -616c-10.667 -46.667 -28.5 -78.667 -53.5 -96s-55.833 -26 -92.5 -26h-42l13 52h33c46 0 75.333 28.333 88 85l135 601h57zM263 803h39l91 -163h-57l-60 110l-111 -110h-69z" />
    <glyph glyph-name="uni0136" unicode="&#x136;" horiz-adv-x="683" 
d="M243 -89h92l-21 -89c-12.667 -53.333 -32.167 -92 -58.5 -116s-64.5 -40.667 -114.5 -50l-10 41c40 8 70.833 22.333 92.5 43s35.5 49.667 41.5 87h-43zM386 448l216 -448h-68l-196 407l-167 -144l-61 -263h-60l172 750h61l-92 -398l465 398h82z" />
    <glyph glyph-name="uni0137" unicode="&#x137;" horiz-adv-x="535" 
d="M167 -89h92l-21 -89c-12.667 -53.333 -32.167 -92 -58.5 -116s-64.5 -40.667 -114.5 -50l-10 41c40 8 70.833 22.333 92.5 43s35.5 49.667 41.5 87h-43zM307 308l146 -308h-61l-129 270l-138 -123l-34 -147h-57l176 762h57l-122 -529l338 299h76z" />
    <glyph glyph-name="kgreenlandic" unicode="&#x138;" horiz-adv-x="535" 
d="M307 308l146 -308h-61l-129 270l-138 -123l-34 -147h-57l123 532h57l-69 -299l338 299h76z" />
    <glyph glyph-name="Lacute" unicode="&#x139;" horiz-adv-x="588" 
d="M222 750h62l-161 -696h386l-13 -54h-447zM298 832h-59l158 171l46 -51z" />
    <glyph glyph-name="lacute" unicode="&#x13a;" horiz-adv-x="355" 
d="M230 762h57l-176 -762h-57zM284 832h-59l158 171l46 -51z" />
    <glyph glyph-name="uni013B" unicode="&#x13b;" horiz-adv-x="588" 
d="M314 -89l-21 -89c-12.667 -53.333 -32.167 -92 -58.5 -116s-64.5 -40.667 -114.5 -50l-10 41c40 8 70.833 22.333 92.5 43s35.5 49.667 41.5 87h-43l21 84h92zM222 750h62l-161 -696h386l-13 -54h-447z" />
    <glyph glyph-name="uni013C" unicode="&#x13c;" horiz-adv-x="236" 
d="M89 -89l-21 -89c-12.667 -53.333 -32.167 -92 -58.5 -116s-64.5 -40.667 -114.5 -50l-10 41c40 8 70.833 22.333 92.5 43s35.5 49.667 41.5 87h-43l21 84h92zM209 762h57l-176 -762h-57z" />
    <glyph glyph-name="Lcaron" unicode="&#x13d;" horiz-adv-x="651" 
d="M222 750h62l-161 -696h386l-13 -54h-447zM726 762l-21 -89c-12.667 -53.333 -32.167 -92 -58.5 -116s-64.5 -40.667 -114.5 -50l-10 41c40 8 70.833 22.333 92.5 43s35.5 49.667 41.5 87h-43l21 84h92z" />
    <glyph glyph-name="lcaron" unicode="&#x13e;" horiz-adv-x="448" 
d="M209 762h57l-176 -762h-57zM503 763l-21 -89c-12.667 -53.333 -32.167 -92 -58.5 -116s-64.5 -40.667 -114.5 -50l-10 41c40 8 70.833 22.333 92.5 43s35.5 49.667 41.5 87h-43l21 84h92z" />
    <glyph glyph-name="Ldot" unicode="&#x13f;" horiz-adv-x="588" 
d="M627 440h-91l21 91h91zM222 750h62l-161 -696h386l-13 -54h-447z" />
    <glyph glyph-name="ldot" unicode="&#x140;" horiz-adv-x="428" 
d="M393 374h-91l21 91h91zM209 762h57l-176 -762h-57z" />
    <glyph glyph-name="Lslash" unicode="&#x141;" horiz-adv-x="719" 
d="M640 54l-13 -54h-447l66 288l-135 -71v53l149 78l93 402h62l-84 -365l199 105v-53l-213 -112l-63 -271h386z" />
    <glyph glyph-name="lslash" unicode="&#x142;" horiz-adv-x="451" 
d="M397 398l-123 -56l-79 -342h-57l72 313l-102 -46v54l116 53l90 388h57l-83 -359l109 49v-54z" />
    <glyph glyph-name="Nacute" unicode="&#x143;" horiz-adv-x="767" 
d="M606 0h-63l-279 679l-155 -679h-58l171 750h76l270 -660l151 660h58zM510 832h-59l158 171l46 -51z" />
    <glyph glyph-name="nacute" unicode="&#x144;" horiz-adv-x="590" 
d="M387 542c50 0 87.666 -12.5 112.999 -37.5s38 -56.833 38 -95.5c0 -15.333 -2 -31 -6 -47l-83 -362h-57l79 344c4 16 6 31.667 6 47c0 66 -35.333 99 -106 99c-49.333 0 -94.166 -19.833 -134.499 -59.5s-68.5 -95.167 -84.5 -166.5l-60 -264h-57l121 532h57l-21 -92
c51.333 68 116.333 102 195 102zM432.999 640h-59l158 171l46 -51z" />
    <glyph glyph-name="uni0145" unicode="&#x145;" horiz-adv-x="767" 
d="M363 -89l-21 -89c-12.667 -53.333 -32.167 -92 -58.5 -116s-64.5 -40.667 -114.5 -50l-10 41c40 8 70.833 22.333 92.5 43s35.5 49.667 41.5 87h-43l21 84h92zM606 0h-63l-279 679l-155 -679h-58l171 750h76l270 -660l151 660h58z" />
    <glyph glyph-name="uni0146" unicode="&#x146;" horiz-adv-x="590" 
d="M274 -89l-21 -89c-12.667 -53.333 -32.167 -92 -58.5 -116s-64.5 -40.667 -114.5 -50l-10 41c40 8 70.833 22.333 92.5 43s35.5 49.667 41.5 87h-43l21 84h92zM387 542c50 0 87.666 -12.5 112.999 -37.5s38 -56.833 38 -95.5c0 -15.333 -2 -31 -6 -47l-83 -362h-57
l79 344c4 16 6 31.667 6 47c0 66 -35.333 99 -106 99c-49.333 0 -94.166 -19.833 -134.499 -59.5s-68.5 -95.167 -84.5 -166.5l-60 -264h-57l121 532h57l-21 -92c51.333 68 116.333 102 195 102z" />
    <glyph glyph-name="Ncaron" unicode="&#x147;" horiz-adv-x="767" 
d="M606 0h-63l-279 679l-155 -679h-58l171 750h76l270 -660l151 660h58zM509 831h-39l-91 163h58l60 -110l111 110h68z" />
    <glyph glyph-name="ncaron" unicode="&#x148;" horiz-adv-x="590" 
d="M387 542c50 0 87.666 -12.5 112.999 -37.5s38 -56.833 38 -95.5c0 -15.333 -2 -31 -6 -47l-83 -362h-57l79 344c4 16 6 31.667 6 47c0 66 -35.333 99 -106 99c-49.333 0 -94.166 -19.833 -134.499 -59.5s-68.5 -95.167 -84.5 -166.5l-60 -264h-57l121 532h57l-21 -92
c51.333 68 116.333 102 195 102zM415.999 640h-39l-91 163h58l60 -110l111 110h68z" />
    <glyph glyph-name="napostrophe" unicode="&#x149;" horiz-adv-x="768" 
d="M565 542c50 0 87.666 -12.5 112.999 -37.5s38 -56.833 38 -95.5c0 -15.333 -2 -31 -6 -47l-83 -362h-57l79 344c4 16 6 31.667 6 47c0 66 -35.333 99 -106 99c-49.333 0 -94.166 -19.833 -134.499 -59.5s-68.5 -95.167 -84.5 -166.5l-60 -264h-57l121 532h57l-21 -92
c51.333 68 116.333 102 195 102zM298.999 762l-21 -89c-12.667 -53.333 -32.167 -92 -58.5 -116s-64.5 -40.667 -114.5 -50l-10 41c40 8 70.833 22.333 92.5 43s35.5 49.667 41.5 87h-43l21 84h92z" />
    <glyph glyph-name="Eng" unicode="&#x14a;" horiz-adv-x="768" 
d="M777 750l-189 -834c-10.667 -46.667 -28.5 -78.667 -53.5 -96s-55.833 -26 -92.5 -26h-42l13 52h33c46.001 0 75.334 28.333 88 85l17 77l-287 671l-155 -679h-58l171 750h76l274 -644l147 644h58z" />
    <glyph glyph-name="eng" unicode="&#x14b;" horiz-adv-x="590" 
d="M387 542c50 0 87.666 -12.5 112.999 -37.5s38 -56.833 38 -95.5c0 -15.333 -2 -31 -6 -47l-102 -446c-10.667 -46.667 -28.5 -78.667 -53.5 -96s-55.833 -26 -92.5 -26h-39l12 52h31c46 0 75.333 28.333 88 85l95 413c4 16 6 31.667 6 47c0 66 -35.333 99 -106 99
c-49.333 0 -94.166 -19.833 -134.499 -59.5s-68.5 -95.167 -84.5 -166.5l-60 -264h-57l121 532h57l-21 -92c51.333 68 116.333 102 195 102z" />
    <glyph glyph-name="Omacron" unicode="&#x14c;" horiz-adv-x="838" 
d="M488 713c-96 0 -174.999 -36.832 -236.999 -110.499s-93 -164.5 -93 -272.5c0 -90 22.667 -161.333 68 -214s107.666 -79 186.999 -79c96 0 174.5 37.167 235.5 111.5s91.5 165.166 91.5 272.499c0 88.667 -22.167 159.5 -66.5 212.5
c-44.334 53 -106.167 79.5 -185.5 79.5zM412.001 -18.999c-93.333 0 -169 32.1689 -227 96.502s-87 148.166 -87 251.499c0 119.334 36.833 222.334 110.5 309c73.667 86.667 166.167 130 277.5 130c94.667 0 170.834 -32.333 228.5 -97
c57.667 -64.667 86.5 -148.334 86.5 -251.001c0 -77.333 -16.5 -149.333 -49.5 -216s-79.5 -120.5 -139.5 -161.5s-126.667 -61.5 -200 -61.5zM686.001 880.003l-11 -47h-320l11 47h320z" />
    <glyph glyph-name="omacron" unicode="&#x14d;" horiz-adv-x="606" 
d="M327 488c-62 0 -111.832 -25.501 -149.499 -76.501s-56.5 -109.5 -56.5 -175.5c0 -54 13.667 -99.833 41 -137.5s67.666 -56.5 120.999 -56.5c61.333 0 111 24.833 149 74.5s57 107.834 57 174.501c0 54.667 -13.5 101.167 -40.5 139.5s-67.5 57.5 -121.5 57.5z
M332.001 541.999c72 0 126 -23.333 162 -70s54 -104.667 54 -174c0 -52 -9.66699 -101 -29 -147s-50 -84.667 -92 -116s-91.667 -47 -149 -47c-72 0 -126 23.167 -162 69.5s-54 103.833 -54 172.5c0 52 9.66699 101.167 29 147.5s50 85.333 92 117s91.667 47.5 149 47.5z
M530.001 686.999l-11 -47h-320l11 47h320z" />
    <glyph glyph-name="Obreve" unicode="&#x14e;" horiz-adv-x="838" 
d="M488 713c-96 0 -174.999 -36.832 -236.999 -110.499s-93 -164.5 -93 -272.5c0 -90 22.667 -161.333 68 -214s107.666 -79 186.999 -79c96 0 174.5 37.167 235.5 111.5s91.5 165.166 91.5 272.499c0 88.667 -22.167 159.5 -66.5 212.5
c-44.334 53 -106.167 79.5 -185.5 79.5zM412.001 -18.999c-93.333 0 -169 32.1689 -227 96.502s-87 148.166 -87 251.499c0 119.334 36.833 222.334 110.5 309c73.667 86.667 166.167 130 277.5 130c94.667 0 170.834 -32.333 228.5 -97
c57.667 -64.667 86.5 -148.334 86.5 -251.001c0 -77.333 -16.5 -149.333 -49.5 -216s-79.5 -120.5 -139.5 -161.5s-126.667 -61.5 -200 -61.5zM611.001 975.003l51.001 0.000976562c0.666992 -3.33301 1 -8.33301 1 -15c0 -31.333 -11.5 -61.333 -34.5 -90
s-57.167 -43 -102.5 -43c-32 0 -56 7.66699 -72 23s-24 34.666 -24 57.999c0 22.667 6.33301 45 19 67h46c-10.667 -22.667 -16 -41.667 -16 -57c0 -32.667 18 -49 54 -49c27.333 0 47.166 9.5 59.499 28.5s18.5 40.833 18.5 65.5v12z" />
    <glyph glyph-name="obreve" unicode="&#x14f;" horiz-adv-x="606" 
d="M327 488c-62 0 -111.832 -25.501 -149.499 -76.501s-56.5 -109.5 -56.5 -175.5c0 -54 13.667 -99.833 41 -137.5s67.666 -56.5 120.999 -56.5c61.333 0 111 24.833 149 74.5s57 107.834 57 174.501c0 54.667 -13.5 101.167 -40.5 139.5s-67.5 57.5 -121.5 57.5z
M332.001 541.999c72 0 126 -23.333 162 -70s54 -104.667 54 -174c0 -52 -9.66699 -101 -29 -147s-50 -84.667 -92 -116s-91.667 -47 -149 -47c-72 0 -126 23.167 -162 69.5s-54 103.833 -54 172.5c0 52 9.66699 101.167 29 147.5s50 85.333 92 117s91.667 47.5 149 47.5z
M456.001 782.999l51 0.000976562c0.666992 -3.33301 1 -8.33301 1 -15c0 -31.333 -11.5 -61.333 -34.5 -90s-57.167 -43 -102.5 -43c-32 0 -56 7.66699 -72 23s-24 34.666 -24 57.999c0 22.667 6.33301 45 19 67h46c-10.667 -22.667 -16 -41.667 -16 -57
c0 -32.667 18 -49 54 -49c27.334 0 47.167 9.5 59.5 28.5s18.5 40.833 18.5 65.5v12z" />
    <glyph glyph-name="Ohungarumlaut" unicode="&#x150;" horiz-adv-x="838" 
d="M488 713c-96 0 -174.999 -36.832 -236.999 -110.499s-93 -164.5 -93 -272.5c0 -90 22.667 -161.333 68 -214s107.666 -79 186.999 -79c96 0 174.5 37.167 235.5 111.5s91.5 165.166 91.5 272.499c0 88.667 -22.167 159.5 -66.5 212.5
c-44.334 53 -106.167 79.5 -185.5 79.5zM412.001 -18.999c-93.333 0 -169 32.1689 -227 96.502s-87 148.166 -87 251.499c0 119.334 36.833 222.334 110.5 309c73.667 86.667 166.167 130 277.5 130c94.667 0 170.834 -32.333 228.5 -97
c57.667 -64.667 86.5 -148.334 86.5 -251.001c0 -77.333 -16.5 -149.333 -49.5 -216s-79.5 -120.5 -139.5 -161.5s-126.667 -61.5 -200 -61.5zM623.001 991.003h60l-92 -159h-48zM495.001 991.003h60l-92 -159h-48z" />
    <glyph glyph-name="ohungarumlaut" unicode="&#x151;" horiz-adv-x="606" 
d="M327 488c-62 0 -111.832 -25.501 -149.499 -76.501s-56.5 -109.5 -56.5 -175.5c0 -54 13.667 -99.833 41 -137.5s67.666 -56.5 120.999 -56.5c61.333 0 111 24.833 149 74.5s57 107.834 57 174.501c0 54.667 -13.5 101.167 -40.5 139.5s-67.5 57.5 -121.5 57.5z
M332.001 541.999c72 0 126 -23.333 162 -70s54 -104.667 54 -174c0 -52 -9.66699 -101 -29 -147s-50 -84.667 -92 -116s-91.667 -47 -149 -47c-72 0 -126 23.167 -162 69.5s-54 103.833 -54 172.5c0 52 9.66699 101.167 29 147.5s50 85.333 92 117s91.667 47.5 149 47.5z
M480.001 798.999h60l-92 -159h-48zM352.001 798.999h60l-92 -159h-48z" />
    <glyph glyph-name="Racute" unicode="&#x154;" horiz-adv-x="664" 
d="M197 382h204c60 0 108.333 17.5 145 52.5s55 76.5 55 124.5c0 40.667 -12.833 74.167 -38.5 100.5s-63.5 39.5 -113.5 39.5h-179zM664 569c0 -58 -20.167 -109.167 -60.5 -153.5s-95.5 -69.5 -165.5 -75.5l145 -340h-66l-141 331h-191l-76 -331h-60l173 750h251
c60.667 0 107.667 -17.167 141 -51.5s50 -77.5 50 -129.5zM444 832h-59l158 171l46 -51z" />
    <glyph glyph-name="racute" unicode="&#x155;" horiz-adv-x="371" 
d="M392 485h-29c-50 0 -93.167 -17 -129.5 -51s-61.833 -83.333 -76.5 -148l-66 -286h-57l123 532h57l-23 -96c30 68 93.667 102 191 102h22zM342 640h-59l158 171l46 -51z" />
    <glyph glyph-name="uni0156" unicode="&#x156;" horiz-adv-x="664" 
d="M312 -89l-21 -89c-12.667 -53.333 -32.167 -92 -58.5 -116s-64.5 -40.667 -114.5 -50l-10 41c40 8 70.833 22.333 92.5 43s35.5 49.667 41.5 87h-43l21 84h92zM197 382h204c60 0 108.333 17.5 145 52.5s55 76.5 55 124.5c0 40.667 -12.833 74.167 -38.5 100.5
s-63.5 39.5 -113.5 39.5h-179zM664 569c0 -58 -20.167 -109.167 -60.5 -153.5s-95.5 -69.5 -165.5 -75.5l145 -340h-66l-141 331h-191l-76 -331h-60l173 750h251c60.667 0 107.667 -17.167 141 -51.5s50 -77.5 50 -129.5z" />
    <glyph glyph-name="uni0157" unicode="&#x157;" horiz-adv-x="371" 
d="M94 -89l-21 -89c-12.667 -53.333 -32.167 -92 -58.5 -116s-64.5 -40.667 -114.5 -50l-10 41c40 8 70.833 22.333 92.5 43s35.5 49.667 41.5 87h-43l21 84h92zM392 485h-29c-50 0 -93.167 -17 -129.5 -51s-61.833 -83.333 -76.5 -148l-66 -286h-57l123 532h57l-23 -96
c30 68 93.667 102 191 102h22z" />
    <glyph glyph-name="Rcaron" unicode="&#x158;" horiz-adv-x="664" 
d="M197 382h204c60 0 108.333 17.5 145 52.5s55 76.5 55 124.5c0 40.667 -12.833 74.167 -38.5 100.5s-63.5 39.5 -113.5 39.5h-179zM664 569c0 -58 -20.167 -109.167 -60.5 -153.5s-95.5 -69.5 -165.5 -75.5l145 -340h-66l-141 331h-191l-76 -331h-60l173 750h251
c60.667 0 107.667 -17.167 141 -51.5s50 -77.5 50 -129.5zM454 831h-39l-91 163h58l60 -110l111 110h68z" />
    <glyph glyph-name="rcaron" unicode="&#x159;" horiz-adv-x="371" 
d="M392 485h-29c-50 0 -93.167 -17 -129.5 -51s-61.833 -83.333 -76.5 -148l-66 -286h-57l123 532h57l-23 -96c30 68 93.667 102 191 102h22zM313 640h-39l-91 163h58l60 -110l111 110h68z" />
    <glyph glyph-name="Sacute" unicode="&#x15a;" horiz-adv-x="654" 
d="M387 768c77.333 0 138.996 -19.002 184.996 -57.002s70.667 -87 74 -147h-64c-2 40.667 -20.833 76 -56.5 106s-82.5 45 -140.5 45c-53.333 0 -95.833 -13.333 -127.5 -40s-47.5 -62 -47.5 -106c0 -41.334 13.833 -73.334 41.5 -96
c27.667 -22.668 71.167 -46.335 130.5 -71.001c27.333 -11.333 47.833 -20.166 61.5 -26.499s31 -16 52 -29s36.667 -25.667 47 -38s19.5 -28.166 27.5 -47.499c8 -19.334 12 -40.667 12 -64c0 -66 -25.667 -118.5 -77 -157.5s-112.666 -58.5 -183.999 -58.5
c-45.333 0 -85.666 7.16699 -120.999 21.5s-63.166 33 -83.499 56s-35.5 47.5 -45.5 73.5s-15 52.333 -15 79c0 9.33301 0.333008 16.333 1 21h64c-0.666992 -4 -1 -10.333 -1 -19c0 -46 17.333 -87 52 -123s86 -54 154 -54c56 0 101.833 14.5 137.5 43.5
s53.5 65.5 53.5 109.5c0 17.333 -3.33301 33.5 -10 48.5s-14.5 27.5 -23.5 37.5s-21.833 20.333 -38.5 31s-31.167 18.834 -43.5 24.501s-29.166 13.167 -50.499 22.5c-32.667 14 -58.167 25.833 -76.5 35.5s-38.5 23 -60.5 40s-38 37 -48 60s-15 49.5 -15 79.5
c0 60.667 20.667 109.167 62 145.5s99.333 54.5 174 54.5zM432.996 831.998h-59l158 171l46 -51z" />
    <glyph glyph-name="sacute" unicode="&#x15b;" horiz-adv-x="523" 
d="M305 286c45.333 -13.333 80.334 -30.1709 105.001 -50.5039s37 -49.5 37 -87.5c0 -50 -20.333 -89.167 -61 -117.5s-88.667 -42.5 -144 -42.5c-56.667 0 -105.5 15 -146.5 45s-62.5 72.667 -64.5 128h61c3.33301 -39.333 20.166 -69.166 50.499 -89.499
s65.166 -30.5 104.499 -30.5c38.667 0 71.834 9.16699 99.501 27.5s41.5 42.5 41.5 72.5c0 25.333 -9.66699 44.666 -29 57.999s-46.333 25 -81 35c-22.667 6.66699 -40.167 12 -52.5 16s-28 10.5 -47 19.5s-33.333 18.5 -43 28.5s-18.334 22.833 -26.001 38.5
s-11.5 33.5 -11.5 53.5c0 48 18.333 85.333 55 112s82.667 40 138 40c34 0 65.333 -5 94 -15s53.334 -26.833 74.001 -50.5s31.667 -52.5 33 -86.5h-60c-4.66699 32.667 -20.5 57.5 -47.5 74.5s-59.167 25.5 -96.5 25.5c-38 0 -69.167 -8.5 -93.5 -25.5
s-36.5 -40.833 -36.5 -71.5c0 -8 0.833008 -15.333 2.5 -22c1.66699 -6.66992 4.5 -12.8369 8.5 -18.501c4 -5.66699 7.66699 -10.5 11 -14.5s8.66602 -8.16699 15.999 -12.5s13.333 -7.66602 18 -9.99902c4.66797 -2.33301 11.835 -5.16602 21.501 -8.49902
c9.66699 -3.33301 17 -5.66602 22 -6.99902s13.167 -3.66602 24.5 -6.99902s19 -5.66602 23 -6.99902zM337.001 639.995h-59l158 171l46 -51z" />
    <glyph glyph-name="Scircumflex" unicode="&#x15c;" horiz-adv-x="654" 
d="M387 768c77.333 0 138.996 -19.002 184.996 -57.002s70.667 -87 74 -147h-64c-2 40.667 -20.833 76 -56.5 106s-82.5 45 -140.5 45c-53.333 0 -95.833 -13.333 -127.5 -40s-47.5 -62 -47.5 -106c0 -41.334 13.833 -73.334 41.5 -96
c27.667 -22.668 71.167 -46.335 130.5 -71.001c27.333 -11.333 47.833 -20.166 61.5 -26.499s31 -16 52 -29s36.667 -25.667 47 -38s19.5 -28.166 27.5 -47.499c8 -19.334 12 -40.667 12 -64c0 -66 -25.667 -118.5 -77 -157.5s-112.666 -58.5 -183.999 -58.5
c-45.333 0 -85.666 7.16699 -120.999 21.5s-63.166 33 -83.499 56s-35.5 47.5 -45.5 73.5s-15 52.333 -15 79c0 9.33301 0.333008 16.333 1 21h64c-0.666992 -4 -1 -10.333 -1 -19c0 -46 17.333 -87 52 -123s86 -54 154 -54c56 0 101.833 14.5 137.5 43.5
s53.5 65.5 53.5 109.5c0 17.333 -3.33301 33.5 -10 48.5s-14.5 27.5 -23.5 37.5s-21.833 20.333 -38.5 31s-31.167 18.834 -43.5 24.501s-29.166 13.167 -50.499 22.5c-32.667 14 -58.167 25.833 -76.5 35.5s-38.5 23 -60.5 40s-38 37 -48 60s-15 49.5 -15 79.5
c0 60.667 20.667 109.167 62 145.5s99.333 54.5 174 54.5zM465.996 994.998h39l91 -163h-57l-60 110l-111 -110h-69z" />
    <glyph glyph-name="scircumflex" unicode="&#x15d;" horiz-adv-x="523" 
d="M305 286c45.333 -13.333 80.334 -30.1709 105.001 -50.5039s37 -49.5 37 -87.5c0 -50 -20.333 -89.167 -61 -117.5s-88.667 -42.5 -144 -42.5c-56.667 0 -105.5 15 -146.5 45s-62.5 72.667 -64.5 128h61c3.33301 -39.333 20.166 -69.166 50.499 -89.499
s65.166 -30.5 104.499 -30.5c38.667 0 71.834 9.16699 99.501 27.5s41.5 42.5 41.5 72.5c0 25.333 -9.66699 44.666 -29 57.999s-46.333 25 -81 35c-22.667 6.66699 -40.167 12 -52.5 16s-28 10.5 -47 19.5s-33.333 18.5 -43 28.5s-18.334 22.833 -26.001 38.5
s-11.5 33.5 -11.5 53.5c0 48 18.333 85.333 55 112s82.667 40 138 40c34 0 65.333 -5 94 -15s53.334 -26.833 74.001 -50.5s31.667 -52.5 33 -86.5h-60c-4.66699 32.667 -20.5 57.5 -47.5 74.5s-59.167 25.5 -96.5 25.5c-38 0 -69.167 -8.5 -93.5 -25.5
s-36.5 -40.833 -36.5 -71.5c0 -8 0.833008 -15.333 2.5 -22c1.66699 -6.66992 4.5 -12.8369 8.5 -18.501c4 -5.66699 7.66699 -10.5 11 -14.5s8.66602 -8.16699 15.999 -12.5s13.333 -7.66602 18 -9.99902c4.66797 -2.33301 11.835 -5.16602 21.501 -8.49902
c9.66699 -3.33301 17 -5.66602 22 -6.99902s13.167 -3.66602 24.5 -6.99902s19 -5.66602 23 -6.99902zM338.001 802.995h39l91 -163h-57l-60 110l-111 -110h-69z" />
    <glyph glyph-name="Scedilla" unicode="&#x15e;" horiz-adv-x="654" 
d="M385 715c-53.333 0 -95.835 -13.3359 -127.502 -40.0029s-47.5 -62 -47.5 -106c0 -41.334 13.833 -73.334 41.5 -96c27.667 -22.668 71.167 -46.335 130.5 -71.001c27.333 -11.333 47.833 -20.166 61.5 -26.499s31 -16 52 -29s36.667 -25.667 47 -38
s19.5 -28.166 27.5 -47.499c8 -19.334 12 -40.667 12 -64c0 -66 -25.667 -118.5 -77 -157.5s-112.666 -58.5 -183.999 -58.5c-10 0 -23 0.666992 -39 2l-7 -35c27.333 -1.33301 48.833 -7.83301 64.5 -19.5s23.5 -28.167 23.5 -49.5c0 -25.333 -10.5 -47.833 -31.5 -67.5
s-48.167 -29.5 -81.5 -29.5c-41.333 0 -76.333 15 -105 45l27 31c22.667 -24 48.667 -36 78 -36c21.334 0 38.667 5 52 15s20 22.667 20 38c0 30.667 -33.667 47 -101 49l24 65c-62 13.333 -109 41.333 -141 84s-48 88.334 -48 137.001c0 10 0.333008 17.333 1 22h64
c-0.666992 -4 -1 -10.333 -1 -19c0 -46 17.333 -87 52 -123s86 -54 154 -54c56 0 101.833 14.5 137.5 43.5s53.5 65.5 53.5 109.5c0 17.333 -3.33301 33.5 -10 48.5s-14.5 27.5 -23.5 37.5s-21.833 20.333 -38.5 31s-31.167 18.834 -43.5 24.501
s-29.166 13.167 -50.499 22.5c-32.667 14 -58.167 25.833 -76.5 35.5s-38.5 23 -60.5 40s-38 37 -48 60s-15 49.5 -15 79.5c0 60.667 20.667 109.167 62 145.5s99.333 54.5 174 54.5c77.333 0 139 -19 185 -57s70.667 -87 74 -147h-64c-2 40.667 -20.833 76 -56.5 106
s-82.5 45 -140.5 45z" />
    <glyph glyph-name="scedilla" unicode="&#x15f;" horiz-adv-x="523" 
d="M305 286c45.333 -13.333 80.333 -30.1719 105 -50.5049s37 -49.5 37 -87.5c0 -50 -20.333 -89.167 -61 -117.5s-88.667 -42.5 -144 -42.5c-10.667 0 -18.667 0.333008 -24 1l-8 -41c27.333 -1.33301 48.833 -7.83301 64.5 -19.5s23.5 -28.167 23.5 -49.5
c0 -25.333 -10.5 -47.833 -31.5 -67.5s-48.167 -29.5 -81.5 -29.5c-41.333 0 -76.333 15 -105 45l27 31c22.667 -24 48.667 -36 78 -36c21.333 0 38.666 5 51.999 15s20 22.667 20 38c0 30.667 -33.667 47 -101 49l27 70c-43.333 9.33301 -79.166 28.333 -107.499 57
s-43.166 65.334 -44.499 110.001h61c3.33301 -39.333 20.166 -69.166 50.499 -89.499s65.166 -30.5 104.499 -30.5c38.667 0 71.834 9.16699 99.501 27.5s41.5 42.5 41.5 72.5c0 25.333 -9.66699 44.666 -29 57.999s-46.333 25 -81 35c-22.667 6.66699 -40.167 12 -52.5 16
s-28 10.5 -47 19.5s-33.333 18.5 -43 28.5s-18.334 22.833 -26.001 38.5s-11.5 33.5 -11.5 53.5c0 48 18.333 85.333 55 112s82.667 40 138 40c34 0 65.333 -5 94 -15s53.334 -26.833 74.001 -50.5s31.667 -52.5 33 -86.5h-60c-4.66699 32.667 -20.5 57.5 -47.5 74.5
s-59.167 25.5 -96.5 25.5c-38 0 -69.167 -8.5 -93.5 -25.5s-36.5 -40.833 -36.5 -71.5c0 -8 0.833008 -15.333 2.5 -22c1.66699 -6.66992 4.5 -12.8369 8.5 -18.501c4 -5.66699 7.66699 -10.5 11 -14.5s8.66602 -8.16699 15.999 -12.5s13.333 -7.66602 18 -9.99902
c4.66797 -2.33301 11.835 -5.16602 21.501 -8.49902c9.66699 -3.33301 17 -5.66602 22 -6.99902s13.167 -3.66602 24.5 -6.99902s19 -5.66602 23 -6.99902z" />
    <glyph glyph-name="uni0162" unicode="&#x162;" horiz-adv-x="660" 
d="M732 750l-12 -52.999h-262l-158 -690h3l-4 -2l-1 -5h-7c-32 -20 -48 -44 -48 -72c0 -17.333 7.66699 -31 23 -41s33.333 -16 54 -18l-10 -45c-34 3.33301 -62.167 14.166 -84.5 32.499s-33.5 40.5 -33.5 66.5c0 31.333 14.667 57 44 77l161 697h-262l12 53h585z" />
    <glyph glyph-name="uni0163" unicode="&#x163;" horiz-adv-x="368" 
d="M238 480l-79.999 -342.001c-3.33301 -15.333 -5 -27.666 -5 -36.999c0 -32.667 19 -49 57 -49h70l-12 -52h-63l-11 -52c27.333 -1.33301 48.833 -7.83301 64.5 -19.5s23.5 -28.167 23.5 -49.5c0 -25.333 -10.5 -47.833 -31.5 -67.5s-48.167 -29.5 -81.5 -29.5
c-41.333 0 -76.333 15 -105 45l27 31c22.667 -24 48.667 -36 78 -36c21.333 0 38.666 5 51.999 15s20 22.667 20 38c0 30.667 -33.667 47 -101 49l29 78c-50 8 -75 37.333 -75 88c0 13.333 1.33301 25.333 4 36l82 354h-109l11 52h109l36 156l61 17l-39 -173h129l-11 -52
h-129z" />
    <glyph glyph-name="Tcaron" unicode="&#x164;" horiz-adv-x="660" 
d="M720 697h-262l-160 -697h-62l161 697h-262l12 53h585zM476 831h-39l-91 163h58l60 -110l111 110h68z" />
    <glyph glyph-name="tcaron" unicode="&#x165;" horiz-adv-x="577" 
d="M367 480h-129.001l-80 -342c-3.33301 -15.333 -5 -27.666 -5 -36.999c0 -32.667 19 -49 57 -49h70l-12 -52h-75c-33.333 0 -58.166 8.16699 -74.499 24.5s-24.5 38.166 -24.5 65.499c0 13.333 1.33301 25.333 4 36l82 354h-109l11 52h109l36 156l61 17l-39 -173h129z
M652.999 762l-21 -89c-12.667 -53.333 -32.167 -92 -58.5 -116s-64.5 -40.667 -114.5 -50l-10 41c40.001 8 70.834 22.333 92.5 43c21.667 20.667 35.5 49.667 41.5 87h-43l21 84h92z" />
    <glyph glyph-name="Tbar" unicode="&#x166;" horiz-adv-x="660" 
d="M458 697l-50 -216h196l-13 -53h-195l-98 -428h-62l99 428h-208l13 53h207l50 216h-262l12 53h585l-12 -53h-262z" />
    <glyph glyph-name="tbar" unicode="&#x167;" horiz-adv-x="379" 
d="M249 480l-30.001 -129h116l-13 -52h-115l-38 -161c-3.33301 -15.333 -5 -27.666 -5 -36.999c0 -32.667 19 -49 57 -49h70l-12 -52h-75c-33.333 0 -58.166 8.16699 -74.499 24.5s-24.5 38.166 -24.5 65.499c0 13.333 1.33301 25.333 4 36l40 173h-121l13 52h120l30 129
h-109l11 52h109l36 156l61 17l-39 -173h129l-11 -52h-129z" />
    <glyph glyph-name="Utilde" unicode="&#x168;" horiz-adv-x="745" 
d="M766 750l-117.999 -514.999c-19.333 -84.667 -54.833 -148.167 -106.5 -190.5s-115.167 -63.5 -190.5 -63.5c-76.667 0 -138.334 20.333 -185.001 61s-70 95.667 -70 165c0 24 3 49 9 75l107 468h60l-106 -463c-6 -28 -9 -53.333 -9 -76
c0 -56.667 17 -99.834 51 -129.501s81 -44.5 141 -44.5c62 0 113.667 16.5 155 49.5s69 79.833 83 140.5l120 523h59zM619.001 958.001l38.001 0.000976562c0 -40 -8.5 -71.667 -25.5 -95s-37.833 -35 -62.5 -35c-18.667 0 -42.667 11.833 -72 35.5s-49 35.5 -59 35.5
c-26 0 -43.333 -22.333 -52 -67h-44c4 39.333 14.5 70.166 31.5 92.499s37.5 33.5 61.5 33.5c19.334 0 43.667 -12.167 73 -36.5s49.666 -36.5 60.999 -36.5c27.333 0 44 24.333 50 73z" />
    <glyph glyph-name="utilde" unicode="&#x169;" horiz-adv-x="588" 
d="M441 0l-57 -0.00292969l23 98c-50.667 -69.333 -114.334 -104 -191 -104c-50.667 0 -88.334 13.333 -113.001 40s-37 60.334 -37 101.001c0 16.667 2 33.334 6 50.001l79 347h57l-77 -338c-4 -18.667 -6 -36.667 -6 -54c0 -64.667 33 -97 99 -97
c48.667 0 93.334 18.833 134.001 56.5s69 90.834 85 159.501l64 273h57zM494 765.997l38 0.000976562c0 -40 -8.5 -71.667 -25.5 -95s-37.833 -35 -62.5 -35c-18.667 0 -42.667 11.833 -72 35.5s-49 35.5 -59 35.5c-26 0 -43.333 -22.333 -52 -67h-44
c4 39.333 14.5 70.166 31.5 92.499s37.5 33.5 61.5 33.5c18.667 0 43 -12.167 73 -36.5s50.333 -36.5 61 -36.5c27.333 0 44 24.333 50 73z" />
    <glyph glyph-name="Umacron" unicode="&#x16a;" horiz-adv-x="745" 
d="M766 750l-117.999 -514.999c-19.333 -84.667 -54.833 -148.167 -106.5 -190.5s-115.167 -63.5 -190.5 -63.5c-76.667 0 -138.334 20.333 -185.001 61s-70 95.667 -70 165c0 24 3 49 9 75l107 468h60l-106 -463c-6 -28 -9 -53.333 -9 -76
c0 -56.667 17 -99.834 51 -129.501s81 -44.5 141 -44.5c62 0 113.667 16.5 155 49.5s69 79.833 83 140.5l120 523h59zM661.001 880.001l-11 -47h-320l11 47h320z" />
    <glyph glyph-name="umacron" unicode="&#x16b;" horiz-adv-x="588" 
d="M441 0l-57 -0.00292969l23 98c-50.667 -69.333 -114.334 -104 -191 -104c-50.667 0 -88.334 13.333 -113.001 40s-37 60.334 -37 101.001c0 16.667 2 33.334 6 50.001l79 347h57l-77 -338c-4 -18.667 -6 -36.667 -6 -54c0 -64.667 33 -97 99 -97
c48.667 0 93.334 18.833 134.001 56.5s69 90.834 85 159.501l64 273h57zM531 686.997l-11 -47h-320l11 47h320z" />
    <glyph glyph-name="Ubreve" unicode="&#x16c;" horiz-adv-x="745" 
d="M766 750l-117.999 -514.999c-19.333 -84.667 -54.833 -148.167 -106.5 -190.5s-115.167 -63.5 -190.5 -63.5c-76.667 0 -138.334 20.333 -185.001 61s-70 95.667 -70 165c0 24 3 49 9 75l107 468h60l-106 -463c-6 -28 -9 -53.333 -9 -76
c0 -56.667 17 -99.834 51 -129.501s81 -44.5 141 -44.5c62 0 113.667 16.5 155 49.5s69 79.833 83 140.5l120 523h59zM569.001 975.001l51.001 0.000976562c0.666992 -3.33301 1 -8.33301 1 -15c0 -31.333 -11.5 -61.333 -34.5 -90s-57.167 -43 -102.5 -43
c-32 0 -56 7.66699 -72 23s-24 34.666 -24 57.999c0 22.667 6.33301 45 19 67h46c-10.667 -22.667 -16 -41.667 -16 -57c0 -32.667 18 -49 54 -49c27.333 0 47.166 9.5 59.499 28.5s18.5 40.833 18.5 65.5v12z" />
    <glyph glyph-name="ubreve" unicode="&#x16d;" horiz-adv-x="588" 
d="M441 0l-57 -0.00292969l23 98c-50.667 -69.333 -114.334 -104 -191 -104c-50.667 0 -88.334 13.333 -113.001 40s-37 60.334 -37 101.001c0 16.667 2 33.334 6 50.001l79 347h57l-77 -338c-4 -18.667 -6 -36.667 -6 -54c0 -64.667 33 -97 99 -97
c48.667 0 93.334 18.833 134.001 56.5s69 90.834 85 159.501l64 273h57zM449 782.997l51 0.000976562c0.666992 -3.33301 1 -8.33301 1 -15c0 -31.333 -11.5 -61.333 -34.5 -90s-57.167 -43 -102.5 -43c-32 0 -56 7.66699 -72 23s-24 34.666 -24 57.999
c0 22.667 6.33301 45 19 67h46c-10.667 -22.667 -16 -41.667 -16 -57c0 -32.667 18 -49 54 -49c27.334 0 47.167 9.5 59.5 28.5s18.5 40.833 18.5 65.5v12z" />
    <glyph glyph-name="Uring" unicode="&#x16e;" horiz-adv-x="745" 
d="M766 750l-117.999 -514.999c-19.333 -84.667 -54.833 -148.167 -106.5 -190.5s-115.167 -63.5 -190.5 -63.5c-76.667 0 -138.334 20.333 -185.001 61s-70 95.667 -70 165c0 24 3 49 9 75l107 468h60l-106 -463c-6 -28 -9 -53.333 -9 -76
c0 -56.667 17 -99.834 51 -129.501s81 -44.5 141 -44.5c62 0 113.667 16.5 155 49.5s69 79.833 83 140.5l120 523h59zM549.001 924.001c0 16 -5.5 29.667 -16.5 41s-24.167 17 -39.5 17s-28.333 -5.66699 -39 -17s-16 -25 -16 -41c0 -16.667 5.33301 -30.834 16 -42.501
s23.667 -17.5 39 -17.5s28.5 5.83301 39.5 17.5c11 11.6738 16.5 25.8408 16.5 42.501zM397.001 924.001c0 28 9.33105 51 27.998 69s41.334 27 68.001 27c27.333 0 50.333 -9 69 -27s28 -41 28 -69s-9.33301 -51.167 -28 -69.5s-41.667 -27.5 -69 -27.5
s-50.166 9.16699 -68.499 27.5s-27.5 41.5 -27.5 69.5z" />
    <glyph glyph-name="uring" unicode="&#x16f;" horiz-adv-x="588" 
d="M441 0l-57 -0.00292969l23 98c-50.667 -69.333 -114.334 -104 -191 -104c-50.667 0 -88.334 13.333 -113.001 40s-37 60.334 -37 101.001c0 16.667 2 33.334 6 50.001l79 347h57l-77 -338c-4 -18.667 -6 -36.667 -6 -54c0 -64.667 33 -97 99 -97
c48.667 0 93.334 18.833 134.001 56.5s69 90.834 85 159.501l64 273h57zM432 731.997c0 16 -5.5 29.668 -16.5 41.001s-24.167 17 -39.5 17s-28.333 -5.66699 -39 -17s-16 -25 -16 -41c0 -16.667 5.33301 -30.834 16 -42.501s23.667 -17.5 39 -17.5s28.5 5.83301 39.5 17.5
c11 11.6719 16.5 25.8389 16.5 42.5zM280 731.998c0 28 9.33105 51 27.998 69s41.334 27 68.001 27c27.333 0 50.333 -9 69 -27s28 -41 28 -69s-9.33301 -51.167 -28 -69.5s-41.667 -27.5 -69 -27.5s-50.166 9.16699 -68.499 27.5s-27.5 41.5 -27.5 69.5z" />
    <glyph glyph-name="Uhungarumlaut" unicode="&#x170;" horiz-adv-x="745" 
d="M766 750l-117.999 -514.999c-19.333 -84.667 -54.833 -148.167 -106.5 -190.5s-115.167 -63.5 -190.5 -63.5c-76.667 0 -138.334 20.333 -185.001 61s-70 95.667 -70 165c0 24 3 49 9 75l107 468h60l-106 -463c-6 -28 -9 -53.333 -9 -76
c0 -56.667 17 -99.834 51 -129.501s81 -44.5 141 -44.5c62 0 113.667 16.5 155 49.5s69 79.833 83 140.5l120 523h59zM583.001 991.001h60l-92 -159h-48zM455.001 991.001h60l-92 -159h-48z" />
    <glyph glyph-name="uhungarumlaut" unicode="&#x171;" horiz-adv-x="588" 
d="M441 0l-57 -0.00292969l23 98c-50.667 -69.333 -114.334 -104 -191 -104c-50.667 0 -88.334 13.333 -113.001 40s-37 60.334 -37 101.001c0 16.667 2 33.334 6 50.001l79 347h57l-77 -338c-4 -18.667 -6 -36.667 -6 -54c0 -64.667 33 -97 99 -97
c48.667 0 93.334 18.833 134.001 56.5s69 90.834 85 159.501l64 273h57zM476 798.997h60l-92 -159h-48zM348 798.997h60l-92 -159h-48z" />
    <glyph glyph-name="Uogonek" unicode="&#x172;" horiz-adv-x="745" 
d="M766 750l-118 -514.998c-19.333 -84.667 -54.833 -148.167 -106.5 -190.5s-115.167 -63.5 -190.5 -63.5c-12 0 -21 0.333008 -27 1c-16 -16 -24 -34 -24 -54c0 -17.333 7.66699 -31 23 -41s33.333 -16 54 -18l-10 -45c-34 3.33301 -62.167 14.166 -84.5 32.499
s-33.5 40.5 -33.5 66.5c0 25.333 9.66699 47 29 65c-56 11.333 -100.333 36.333 -133 75s-49 86.667 -49 144c0 23.333 3 48.333 9 75l107 468h60l-106 -463c-6 -28 -9 -53.333 -9 -76c0 -56.667 17 -99.834 51 -129.501s81 -44.5 141 -44.5c62 0 113.667 16.5 155 49.5
s69 79.833 83 140.5l120 523h59z" />
    <glyph glyph-name="uogonek" unicode="&#x173;" horiz-adv-x="588" 
d="M371 -72c0 -17.333 7.66699 -31.002 23 -41.002s33.333 -16 54 -18l-10 -45c-34 3.33301 -62.167 14.166 -84.5 32.499s-33.5 40.5 -33.5 66.5c0 36.667 18.667 64.667 56 84h10l21 91c-50.667 -69.333 -114.334 -104 -191 -104c-50.667 0 -88.334 13.333 -113.001 40
s-37 60.334 -37 101.001c0 16.667 2 33.334 6 50.001l79 347h57l-77 -338c-4 -18.667 -6 -36.667 -6 -54c0 -64.667 33 -97 99 -97c48.667 0 93.334 18.833 134.001 56.5s69 90.834 85 159.501l64 273h57l-123 -532h-22c-32 -20 -48 -44 -48 -72z" />
    <glyph glyph-name="Wcircumflex" unicode="&#x174;" horiz-adv-x="1015" 
d="M749 0h-68l-85 666l-317 -666h-68l-64 750h58l51 -680l318 680h67l86 -679l285 679h65zM623 995h39l91 -163h-57l-60 110l-111 -110h-69z" />
    <glyph glyph-name="wcircumflex" unicode="&#x175;" horiz-adv-x="854" 
d="M593 0h-63l-54 448l-242 -448h-63l-65 532h56l51 -472l247 472h60l52 -472l246 472h62zM522 803h39l91 -163h-57l-60 110l-111 -110h-69z" />
    <glyph glyph-name="Ycircumflex" unicode="&#x176;" horiz-adv-x="634" 
d="M298 0h-62l65 290l-159 460h62l136 -409l303 409h73l-355 -466zM430 995h39l91 -163h-57l-60 110l-111 -110h-69z" />
    <glyph glyph-name="ycircumflex" unicode="&#x177;" horiz-adv-x="535" 
d="M571 532l-368.999 -639c-26.667 -46 -68.334 -69 -125.001 -69h-67l12 52h45c28 0 48.333 5 61 15s28 30.333 46 61l40 67l-118 513h59l97 -448l258 448h61zM347.001 803h39l91 -163h-57l-60 110l-111 -110h-69z" />
    <glyph glyph-name="Zacute" unicode="&#x179;" horiz-adv-x="694" 
d="M695 697l-580 -643h480l-12 -54h-553l12 54l579 643h-451l12 53h525zM447 832h-59l158 171l46 -51z" />
    <glyph glyph-name="zacute" unicode="&#x17a;" horiz-adv-x="540" 
d="M101 52h345l-12 -52h-417l12 53l418 427h-328l13 52h400l-11 -51zM358 640h-59l158 171l46 -51z" />
    <glyph glyph-name="Zdotaccent" unicode="&#x17b;" horiz-adv-x="694" 
d="M695 697l-580 -643h480l-12 -54h-553l12 54l579 643h-451l12 53h525zM502 832h-91l21 91h91z" />
    <glyph glyph-name="zdotaccent" unicode="&#x17c;" horiz-adv-x="540" 
d="M101 52h345l-12 -52h-417l12 53l418 427h-328l13 52h400l-11 -51zM386 640h-91l21 91h91z" />
    <glyph glyph-name="longs" unicode="&#x17f;" horiz-adv-x="323" 
d="M415 710h-56c-32.667 0 -55.167 -6 -67.5 -18s-21.833 -32.333 -28.5 -61l-145 -631h-59l111 480h-91l12 52h91l23 103c10.667 48.667 26.834 82 48.5 100c21.667 18 54.5 27 98.5 27h75z" />
    <glyph glyph-name="florin" unicode="&#x192;" horiz-adv-x="341" 
d="M424 710h-58c-32.667 0 -55.167 -6 -67.5 -18s-21.833 -32.333 -28.5 -61l-22 -99h120l-12 -52h-120l-130 -564c-10.667 -46.667 -28.5 -78.667 -53.5 -96s-55.833 -26 -92.5 -26h-39l13 52h30c46 0 75.333 28.333 88 85l126 549h-90l12 52h91l23 103
c10.667 48.667 26.834 82 48.5 100c21.667 18 54.5 27 98.5 27h75z" />
    <glyph glyph-name="uni0218" unicode="&#x218;" horiz-adv-x="654" 
d="M334 -89l-21 -89c-12.667 -53.333 -32.167 -92 -58.5 -116s-64.5 -40.667 -114.5 -50l-10 41c40 8 70.833 22.333 92.5 43s35.5 49.667 41.5 87h-43l21 84h92zM387 768c77.333 0 138.996 -19.002 184.996 -57.002s70.667 -87 74 -147h-64c-2 40.667 -20.833 76 -56.5 106
s-82.5 45 -140.5 45c-53.333 0 -95.833 -13.333 -127.5 -40s-47.5 -62 -47.5 -106c0 -41.334 13.833 -73.334 41.5 -96c27.667 -22.668 71.167 -46.335 130.5 -71.001c27.333 -11.333 47.833 -20.166 61.5 -26.499s31 -16 52 -29s36.667 -25.667 47 -38
s19.5 -28.166 27.5 -47.499c8 -19.334 12 -40.667 12 -64c0 -66 -25.667 -118.5 -77 -157.5s-112.666 -58.5 -183.999 -58.5c-45.333 0 -85.666 7.16699 -120.999 21.5s-63.166 33 -83.499 56s-35.5 47.5 -45.5 73.5s-15 52.333 -15 79c0 9.33301 0.333008 16.333 1 21h64
c-0.666992 -4 -1 -10.333 -1 -19c0 -46 17.333 -87 52 -123s86 -54 154 -54c56 0 101.833 14.5 137.5 43.5s53.5 65.5 53.5 109.5c0 17.333 -3.33301 33.5 -10 48.5s-14.5 27.5 -23.5 37.5s-21.833 20.333 -38.5 31s-31.167 18.834 -43.5 24.501
s-29.166 13.167 -50.499 22.5c-32.667 14 -58.167 25.833 -76.5 35.5s-38.5 23 -60.5 40s-38 37 -48 60s-15 49.5 -15 79.5c0 60.667 20.667 109.167 62 145.5s99.333 54.5 174 54.5z" />
    <glyph glyph-name="uni0219" unicode="&#x219;" horiz-adv-x="523" 
d="M273 -89l-21 -89c-12.667 -53.333 -32.167 -92 -58.5 -116s-64.5 -40.667 -114.5 -50l-10 41c40 8 70.833 22.333 92.5 43s35.5 49.667 41.5 87h-43l21 84h92zM305 286c45.333 -13.333 80.334 -30.1709 105.001 -50.5039s37 -49.5 37 -87.5
c0 -50 -20.333 -89.167 -61 -117.5s-88.667 -42.5 -144 -42.5c-56.667 0 -105.5 15 -146.5 45s-62.5 72.667 -64.5 128h61c3.33301 -39.333 20.166 -69.166 50.499 -89.499s65.166 -30.5 104.499 -30.5c38.667 0 71.834 9.16699 99.501 27.5s41.5 42.5 41.5 72.5
c0 25.333 -9.66699 44.666 -29 57.999s-46.333 25 -81 35c-22.667 6.66699 -40.167 12 -52.5 16s-28 10.5 -47 19.5s-33.333 18.5 -43 28.5s-18.334 22.833 -26.001 38.5s-11.5 33.5 -11.5 53.5c0 48 18.333 85.333 55 112s82.667 40 138 40c34 0 65.333 -5 94 -15
s53.334 -26.833 74.001 -50.5s31.667 -52.5 33 -86.5h-60c-4.66699 32.667 -20.5 57.5 -47.5 74.5s-59.167 25.5 -96.5 25.5c-38 0 -69.167 -8.5 -93.5 -25.5s-36.5 -40.833 -36.5 -71.5c0 -8 0.833008 -15.333 2.5 -22c1.66699 -6.66992 4.5 -12.8369 8.5 -18.501
c4 -5.66699 7.66699 -10.5 11 -14.5s8.66602 -8.16699 15.999 -12.5s13.333 -7.66602 18 -9.99902c4.66797 -2.33301 11.835 -5.16602 21.501 -8.49902c9.66699 -3.33301 17 -5.66602 22 -6.99902s13.167 -3.66602 24.5 -6.99902s19 -5.66602 23 -6.99902z" />
    <glyph glyph-name="uni021A" unicode="&#x21a;" horiz-adv-x="660" 
d="M316 -89l-21 -89c-12.667 -53.333 -32.167 -92 -58.5 -116s-64.5 -40.667 -114.5 -50l-10 41c40 8 70.833 22.333 92.5 43s35.5 49.667 41.5 87h-43l21 84h92zM720 697h-262l-160 -697h-62l161 697h-262l12 53h585z" />
    <glyph glyph-name="uni021B" unicode="&#x21b;" horiz-adv-x="368" 
d="M216 -89l-21 -89c-12.667 -53.333 -32.167 -92 -58.5 -116s-64.5 -40.667 -114.5 -50l-10 41c40 8 70.833 22.333 92.5 43s35.5 49.667 41.5 87h-43l21 84h92zM367 480h-129.001l-80 -342c-3.33301 -15.333 -5 -27.666 -5 -36.999c0 -32.667 19 -49 57 -49h70l-12 -52
h-75c-33.333 0 -58.166 8.16699 -74.499 24.5s-24.5 38.166 -24.5 65.499c0 13.333 1.33301 25.333 4 36l82 354h-109l11 52h109l36 156l61 17l-39 -173h129z" />
    <glyph glyph-name="circumflex" unicode="&#x2c6;" horiz-adv-x="297" 
d="M253 803h39l91 -163h-57l-60 110l-111 -110h-69z" />
    <glyph glyph-name="caron" unicode="&#x2c7;" horiz-adv-x="297" 
d="M254 640h-39l-91 163h58l60 -110l111 110h68z" />
    <glyph glyph-name="uni02C9" unicode="&#x2c9;" horiz-adv-x="320" 
d="M462 879l-11 -47h-320l11 47h320z" />
    <glyph glyph-name="breve" unicode="&#x2d8;" horiz-adv-x="227" 
d="M288 783l51.001 0.000976562c0.666992 -3.33301 1 -8.33301 1 -15c0 -31.333 -11.5 -61.333 -34.5 -90s-57.167 -43 -102.5 -43c-32 0 -56 7.66699 -72 23s-24 34.666 -24 57.999c0 22.667 6.33301 45 19 67h46c-10.667 -22.667 -16 -41.667 -16 -57
c0 -32.667 18 -49 54 -49c27.333 0 47.166 9.5 59.499 28.5s18.5 40.833 18.5 65.5v12z" />
    <glyph glyph-name="dotaccent" unicode="&#x2d9;" horiz-adv-x="91" 
d="M187 640h-91l21 91h91z" />
    <glyph glyph-name="ring" unicode="&#x2da;" horiz-adv-x="198" 
d="M262 732c0 16 -5.5 29.668 -16.5 41.001s-24.167 17 -39.5 17s-28.333 -5.66699 -39 -17s-16 -25 -16 -41c0 -16.667 5.33301 -30.834 16 -42.501s23.667 -17.5 39 -17.5s28.5 5.83301 39.5 17.5c11 11.6719 16.5 25.8389 16.5 42.5zM110 732.001c0 28 9.33301 51 28 69
s41.334 27 68 27c27.333 0 50.333 -9 69 -27s28 -41 28 -69s-9.33301 -51.167 -28 -69.5s-41.667 -27.5 -69 -27.5c-27.334 0 -50.167 9.16699 -68.5 27.5s-27.5 41.5 -27.5 69.5z" />
    <glyph glyph-name="ogonek" unicode="&#x2db;" horiz-adv-x="143" 
d="M-26 -72c0 -17.333 7.66602 -30.999 22.999 -40.999s33.333 -16 54 -18l-10 -45c-34 3.33301 -62.167 14.166 -84.5 32.499s-33.5 40.5 -33.5 66.5c0 36.667 18.667 64.667 56 84h55c-19.333 -10.667 -34.166 -22 -44.499 -34s-15.5 -27 -15.5 -45z" />
    <glyph glyph-name="tilde" unicode="&#x2dc;" horiz-adv-x="294" 
d="M366 766l38 0.000976562c0 -40 -8.5 -71.667 -25.5 -95s-37.833 -35 -62.5 -35c-18.667 0 -42.667 11.833 -72 35.5s-49 35.5 -59 35.5c-26 0 -43.333 -22.333 -52 -67h-44c4 39.333 14.5 70.166 31.5 92.499s37.5 33.5 61.5 33.5c18.667 0 43 -12.167 73 -36.5
s50.333 -36.5 61 -36.5c27.333 0 44 24.333 50 73z" />
    <glyph glyph-name="hungarumlaut" unicode="&#x2dd;" horiz-adv-x="231" 
d="M294 799h60l-92 -159h-48zM166 799h60l-92 -159h-48z" />
    <glyph glyph-name="Delta" unicode="&#x394;" horiz-adv-x="757" 
d="M489 689l-422 -636h556zM683 55l-13 -55h-682l13 54l469 696h57z" />
    <glyph glyph-name="Omega" unicode="&#x3a9;" horiz-adv-x="820" 
d="M466 53l164 -0.000976562l-12 -53h-223l41 176c96.667 12 173.167 49.833 229.5 113.5s84.5 132.167 84.5 205.5c0 63.333 -22.167 116.166 -66.5 158.499s-108.5 63.5 -192.5 63.5c-100 0 -178.5 -29.167 -235.5 -87.5s-85.5 -126.166 -85.5 -203.499
c0 -58.667 16.833 -111.667 50.5 -159s81.5 -79 143.5 -95l-40 -172h-221l12 53h164l20 89c-60 23.333 -105.667 60.333 -137 111s-47 106.334 -47 167.001c0 43.333 8.33301 85.5 25 126.5s40.5 78 71.5 111s71 59.667 120 80s103.5 30.5 163.5 30.5
c100 0 176.833 -26 230.5 -78s80.5 -116 80.5 -192c0 -80 -28.5 -154.5 -85.5 -223.5s-135.167 -113.5 -234.5 -133.5z" />
    <glyph glyph-name="mu" unicode="&#x3bc;" horiz-adv-x="668" 
d="M577 542l-100.001 -431.998c-2 -8.66699 -3 -16.334 -3 -23.001c0 -22.667 13 -34 39 -34h28l-12 -53h-50c-23.333 0 -41.833 5.5 -55.5 16.5s-21.167 25.5 -22.5 43.5c-18.667 -24.667 -43.5 -42.834 -74.5 -54.501s-62.833 -17.5 -95.5 -17.5
c-65.333 0 -107.666 24 -126.999 72l-61 -266h-57l173 748h57l-78 -338c-4 -18.667 -6 -36 -6 -52c0 -35.333 10 -62.333 30 -81s47.667 -28 83 -28c48.667 0 91.5 18.333 128.5 55s64.167 92 81.5 166l65 278h57z" />
    <glyph glyph-name="pi" unicode="&#x3c0;" horiz-adv-x="742" 
d="M565 484l-82 -354.001c-2.66699 -10 -4 -20 -4 -30c0 -30.667 17 -46 51 -46h43l-13 -54h-49c-25.333 0 -46.833 7 -64.5 21s-26.5 36 -26.5 66c0 10.667 1.66699 24.334 5 41.001l82 356h-189l-112 -484h-57l112 484h-151l11 48h384c110.667 0 193.334 15.333 248 46
l-12 -57c-41.333 -20.667 -100 -33 -176 -37z" />
    <glyph glyph-name="uni1E02" unicode="&#x1e02;" horiz-adv-x="700" 
d="M121 54h213c67.333 0 120.833 16.333 160.5 49s59.5 75.667 59.5 129c0 44 -13.5 78 -40.5 102s-64.167 36 -111.5 36h-209zM206 423h200c58.667 0 106.5 16 143.5 48s55.5 70.667 55.5 116c0 36.667 -12.667 64.167 -38 82.5s-61 27.5 -107 27.5h-191zM507 395
c34 -12 61.5 -32.166 82.5 -60.499s31.5 -63.5 31.5 -105.5c0 -67.333 -27.333 -122.5 -82 -165.5s-127 -64.5 -217 -64.5h-3l-270 1l173 750h261c56.667 0 101.167 -15.333 133.5 -46s48.5 -69 48.5 -115c0 -42.667 -13.667 -82.834 -41 -120.501
s-66.333 -62.167 -117 -73.5zM473 832.001h-91l21 91h91z" />
    <glyph glyph-name="uni1E03" unicode="&#x1e03;" horiz-adv-x="620" 
d="M295 41c64 0 115.5 28.333 154.5 85s58.5 119 58.5 187c0 50 -11.833 91.167 -35.5 123.5s-59.5 48.5 -107.5 48.5c-64 0 -116 -28 -156 -84s-60 -117.667 -60 -185c0 -50 12.333 -91.667 37 -125s61 -50 109 -50zM481 640h-91l21 91h91zM379 542
c62 0 108.833 -21.499 140.5 -64.499s47.5 -96.167 47.5 -159.5c0 -53.333 -10.5 -104.833 -31.5 -154.5s-52.5 -91.334 -94.5 -125.001s-89.333 -50.5 -142 -50.5c-88.667 0 -148.667 44.333 -180 133l-28 -121h-57l176 762h57l-72 -315c48 63.333 109.333 95 184 95z" />
    <glyph glyph-name="uni1E0A" unicode="&#x1e0a;" horiz-adv-x="749" 
d="M122 54l135 0.000976562c49.334 0 95.667 7.5 139 22.5s80.5 35.333 111.5 61s57.667 55 80 88s39 67.667 50 104s16.5 72.833 16.5 109.5c0 73.333 -22 134.666 -66 183.999s-107.667 74 -191 74h-127zM222 750.001l182.002 -0.000976562
c68 0 126.333 -14.833 174.999 -44.5c48.667 -29.667 84 -67.5 106 -113.5s33 -97.333 33 -154c0 -52.667 -10.167 -104.667 -30.5 -156s-49.333 -98.166 -87 -140.499s-86.334 -76.5 -146.001 -102.5s-125.5 -39 -197.5 -39h-208zM453.002 832h-91l21 91h91z" />
    <glyph glyph-name="uni1E0B" unicode="&#x1e0b;" horiz-adv-x="625" 
d="M267 41c42.667 0 80.501 14.0029 113.501 42.0029s57.667 62.167 74 102.5s24.5 82.166 24.5 125.499c0 52 -12.333 94.833 -37 128.5s-61.334 50.5 -110 50.5h-4c-42.667 -0.667969 -80.334 -14.835 -113.001 -42.501c-32.667 -27.667 -57 -61.334 -73 -101
c-16 -39.667 -24 -80.834 -24 -123.501c0 -52 12.667 -95.333 38 -130s62.333 -52 111 -52zM440.001 640.003h-91l21 91h91zM475.001 0.00292969l-57.002 0.000976562l18 84c-43.333 -64 -103.333 -96 -180 -96c-63.333 0 -112 22.667 -146 68s-51 100.666 -51 165.999
c0 52 10.333 102 31 150s52.334 88.333 95.001 121s91.667 49 147 49c50.667 0 90.834 -12.833 120.501 -38.5s49.5 -56.5 59.5 -92.5l82 351h57z" />
    <glyph glyph-name="uni1E1E" unicode="&#x1e1e;" horiz-adv-x="608" 
d="M222 750h448l-12 -53h-389l-67 -291h370l-13 -54h-369l-81 -352h-60zM483 832h-91l21 91h91z" />
    <glyph glyph-name="uni1E1F" unicode="&#x1e1f;" horiz-adv-x="333" 
d="M416 710h-59c-32.667 0 -55.167 -6 -67.5 -18s-21.833 -32.333 -28.5 -61l-22 -99h120l-12 -52h-120l-111 -480h-57l111 480h-91l12 52h91l23 103c10.667 48.667 26.834 82 48.5 100c21.667 18 54.5 27 98.5 27h75zM443 832h-91l21 91h91z" />
    <glyph glyph-name="uni1E40" unicode="&#x1e40;" horiz-adv-x="939" 
d="M778 0h-59l155 698l-434 -698h-49l-121 708l-156 -708h-58l166 750h98l113 -660l407 660h104zM623 832h-91l21 91h91z" />
    <glyph glyph-name="uni1E41" unicode="&#x1e41;" horiz-adv-x="876" 
d="M673 542c50.667 0 88.501 -13 113.501 -39s37.5 -58.333 37.5 -97c0 -14 -1.33301 -26.333 -4 -37l-85 -369h-57l80 348c3.33301 15.333 5 29.333 5 42c0 30 -8 54.5 -24 73.5s-40.667 28.5 -74 28.5c-42 0 -79.833 -18.833 -113.5 -56.5s-57.834 -88.5 -72.501 -152.5
l-65 -283h-57l79 348c3.33301 15.334 5 29.667 5 43c0 30 -8.16699 54.333 -24.5 73s-41.5 28 -75.5 28c-40 0 -77 -19.333 -111 -58s-58 -88.667 -72 -150l-66 -284h-57l122 532h53l-18 -84c18 27.333 41.667 49.833 71 67.5s61 26.5 95 26.5
c39.333 0 71.333 -9.83301 96 -29.5s39 -47.167 43 -82.5c39.333 74.667 98 112 176 112zM560.001 640h-91l21 91h91z" />
    <glyph glyph-name="uni1E56" unicode="&#x1e56;" horiz-adv-x="638" 
d="M195 374h189.001c63.333 0 113.333 18.667 150 56c36.667 37.334 55 80.667 55 130c0 40 -12.333 73.167 -37 99.5s-61.334 39.5 -110.001 39.5h-172zM222.001 750h232c64 0 113 -17.333 147 -52s51 -77.667 51 -129c0 -64.667 -25 -121.834 -75 -171.5
c-50 -49.667 -117.667 -74.5 -203 -74.5h-190l-75 -323h-60zM463.001 832h-91l21 91h91z" />
    <glyph glyph-name="uni1E57" unicode="&#x1e57;" horiz-adv-x="619" 
d="M295 47c64 0 115.5 28.001 154.5 84.001s58.5 117.667 58.5 185c0 49.333 -11.833 90 -35.5 122s-59.5 48 -107.5 48c-64 0 -116 -27.833 -156 -83.5s-60 -116.834 -60 -183.501c0 -49.333 12.333 -90.333 37 -123s61 -49 109 -49zM379 542.001
c62 0 108.834 -21.333 140.501 -64s47.5 -95.334 47.5 -158c0 -52.667 -10.5 -103.5 -31.5 -152.5s-52.5 -90 -94.5 -123s-89.667 -49.5 -143 -49.5c-88 0 -147.667 43 -179 129l-76 -330h-57l170 738h58l-19 -84c47.333 62.667 108.666 94 183.999 94zM439.001 640.001h-91
l21 91h91z" />
    <glyph glyph-name="uni1E60" unicode="&#x1e60;" horiz-adv-x="654" 
d="M387 768c77.333 0 138.996 -19.002 184.996 -57.002s70.667 -87 74 -147h-64c-2 40.667 -20.833 76 -56.5 106s-82.5 45 -140.5 45c-53.333 0 -95.833 -13.333 -127.5 -40s-47.5 -62 -47.5 -106c0 -41.334 13.833 -73.334 41.5 -96
c27.667 -22.668 71.167 -46.335 130.5 -71.001c27.333 -11.333 47.833 -20.166 61.5 -26.499s31 -16 52 -29s36.667 -25.667 47 -38s19.5 -28.166 27.5 -47.499c8 -19.334 12 -40.667 12 -64c0 -66 -25.667 -118.5 -77 -157.5s-112.666 -58.5 -183.999 -58.5
c-45.333 0 -85.666 7.16699 -120.999 21.5s-63.166 33 -83.499 56s-35.5 47.5 -45.5 73.5s-15 52.333 -15 79c0 9.33301 0.333008 16.333 1 21h64c-0.666992 -4 -1 -10.333 -1 -19c0 -46 17.333 -87 52 -123s86 -54 154 -54c56 0 101.833 14.5 137.5 43.5
s53.5 65.5 53.5 109.5c0 17.333 -3.33301 33.5 -10 48.5s-14.5 27.5 -23.5 37.5s-21.833 20.333 -38.5 31s-31.167 18.834 -43.5 24.501s-29.166 13.167 -50.499 22.5c-32.667 14 -58.167 25.833 -76.5 35.5s-38.5 23 -60.5 40s-38 37 -48 60s-15 49.5 -15 79.5
c0 60.667 20.667 109.167 62 145.5s99.333 54.5 174 54.5zM479.996 831.998h-91l21 91h91z" />
    <glyph glyph-name="uni1E61" unicode="&#x1e61;" horiz-adv-x="523" 
d="M305 286c45.333 -13.333 80.334 -30.1709 105.001 -50.5039s37 -49.5 37 -87.5c0 -50 -20.333 -89.167 -61 -117.5s-88.667 -42.5 -144 -42.5c-56.667 0 -105.5 15 -146.5 45s-62.5 72.667 -64.5 128h61c3.33301 -39.333 20.166 -69.166 50.499 -89.499
s65.166 -30.5 104.499 -30.5c38.667 0 71.834 9.16699 99.501 27.5s41.5 42.5 41.5 72.5c0 25.333 -9.66699 44.666 -29 57.999s-46.333 25 -81 35c-22.667 6.66699 -40.167 12 -52.5 16s-28 10.5 -47 19.5s-33.333 18.5 -43 28.5s-18.334 22.833 -26.001 38.5
s-11.5 33.5 -11.5 53.5c0 48 18.333 85.333 55 112s82.667 40 138 40c34 0 65.333 -5 94 -15s53.334 -26.833 74.001 -50.5s31.667 -52.5 33 -86.5h-60c-4.66699 32.667 -20.5 57.5 -47.5 74.5s-59.167 25.5 -96.5 25.5c-38 0 -69.167 -8.5 -93.5 -25.5
s-36.5 -40.833 -36.5 -71.5c0 -8 0.833008 -15.333 2.5 -22c1.66699 -6.66992 4.5 -12.8369 8.5 -18.501c4 -5.66699 7.66699 -10.5 11 -14.5s8.66602 -8.16699 15.999 -12.5s13.333 -7.66602 18 -9.99902c4.66797 -2.33301 11.835 -5.16602 21.501 -8.49902
c9.66699 -3.33301 17 -5.66602 22 -6.99902s13.167 -3.66602 24.5 -6.99902s19 -5.66602 23 -6.99902zM375.001 639.995h-91l21 91h91z" />
    <glyph glyph-name="uni1E6A" unicode="&#x1e6a;" horiz-adv-x="660" 
d="M720 697h-262l-160 -697h-62l161 697h-262l12 53h585zM518 832h-91l21 91h91z" />
    <glyph glyph-name="uni1E6B" unicode="&#x1e6b;" horiz-adv-x="368" 
d="M367 480h-129.001l-80 -342c-3.33301 -15.333 -5 -27.666 -5 -36.999c0 -32.667 19 -49 57 -49h70l-12 -52h-75c-33.333 0 -58.166 8.16699 -74.499 24.5s-24.5 38.166 -24.5 65.499c0 13.333 1.33301 25.333 4 36l82 354h-109l11 52h109l36 156l61 17l-39 -173h129z
M315.999 750h-91l21 91h91z" />
    <glyph glyph-name="Wgrave" unicode="&#x1e80;" horiz-adv-x="1015" 
d="M749 0h-68l-85 666l-317 -666h-68l-64 750h58l51 -680l318 680h67l86 -679l285 679h65zM499 1004l62 20l56 -192h-45z" />
    <glyph glyph-name="wgrave" unicode="&#x1e81;" horiz-adv-x="854" 
d="M593 0h-63l-54 448l-242 -448h-63l-65 532h56l51 -472l247 472h60l52 -472l246 472h62zM392 812l62 20l57 -192h-45z" />
    <glyph glyph-name="Wacute" unicode="&#x1e82;" horiz-adv-x="1015" 
d="M749 0h-68l-85 666l-317 -666h-68l-64 750h58l51 -680l318 680h67l86 -679l285 679h65zM635 832h-59l158 171l46 -51z" />
    <glyph glyph-name="wacute" unicode="&#x1e83;" horiz-adv-x="854" 
d="M593 0h-63l-54 448l-242 -448h-63l-65 532h56l51 -472l247 472h60l52 -472l246 472h62zM528 640h-59l158 171l46 -51z" />
    <glyph glyph-name="Wdieresis" unicode="&#x1e84;" horiz-adv-x="1015" 
d="M749 0h-68l-85 666l-317 -666h-68l-64 750h58l51 -680l318 680h67l86 -679l285 679h65zM750 832h-80l19 81h80zM563 832h-80l19 81h80z" />
    <glyph glyph-name="wdieresis" unicode="&#x1e85;" horiz-adv-x="854" 
d="M593 0h-63l-54 448l-242 -448h-63l-65 532h56l51 -472l247 472h60l52 -472l246 472h62zM627 640h-80l19 81h80zM440 640h-80l19 81h80z" />
    <glyph glyph-name="Ygrave" unicode="&#x1ef2;" horiz-adv-x="634" 
d="M298 0h-62l65 290l-159 460h62l136 -409l303 409h73l-355 -466zM336 1004l62 20l56 -192h-45z" />
    <glyph glyph-name="ygrave" unicode="&#x1ef3;" horiz-adv-x="535" 
d="M571 532l-368.999 -639c-26.667 -46 -68.334 -69 -125.001 -69h-67l12 52h45c28 0 48.333 5 61 15s28 30.333 46 61l40 67l-118 513h59l97 -448l258 448h61zM242.001 812l62 20l57 -192h-45z" />
    <glyph glyph-name="endash" unicode="&#x2013;" horiz-adv-x="621" 
d="M62 272l13 53h500l-13 -53h-500z" />
    <glyph glyph-name="emdash" unicode="&#x2014;" horiz-adv-x="1120" 
d="M61 272l13 53h1000l-13 -53h-1000z" />
    <glyph glyph-name="quoteleft" unicode="&#x2018;" horiz-adv-x="245" 
d="M91 529l21 89c12.667 53.333 32.167 92 58.5 116s64.5 40.667 114.5 50l10 -41c-40 -8 -70.833 -22.333 -92.5 -43s-35.5 -49.667 -41.5 -87h43l-21 -84h-92z" />
    <glyph glyph-name="quoteright" unicode="&#x2019;" horiz-adv-x="244" 
d="M316 750l-21 -89c-12.667 -53.333 -32.167 -92 -58.5 -116s-64.5 -40.667 -114.5 -50l-10 41c40 8 70.833 22.333 92.5 43s35.5 49.667 41.5 87h-43l21 84h92z" />
    <glyph glyph-name="quotesinglbase" unicode="&#x201a;" horiz-adv-x="244" 
d="M164 91l-21 -89c-12.667 -53.333 -32.167 -92 -58.5 -116s-64.5 -40.667 -114.5 -50l-10 41c40 8 70.833 22.333 92.5 43s35.5 49.667 41.5 87h-43l21 84h92z" />
    <glyph glyph-name="quotedblleft" unicode="&#x201c;" horiz-adv-x="455" 
d="M311 529l21 89c12.667 53.333 32.167 92 58.5 116s64.5 40.667 114.5 50l10 -41c-40 -8 -70.833 -22.333 -92.5 -43s-35.5 -49.667 -41.5 -87h43l-21 -84h-92zM101 529l21 89c12.667 53.333 32.167 92 58.5 116s64.5 40.667 114.5 50l10 -41
c-40 -8 -70.833 -22.333 -92.5 -43s-35.5 -49.667 -41.5 -87h43l-21 -84h-92z" />
    <glyph glyph-name="quotedblright" unicode="&#x201d;" horiz-adv-x="455" 
d="M330 762l-21 -89c-12.667 -53.333 -32.167 -92 -58.5 -116s-64.5 -40.667 -114.5 -50l-10 41c40 8 70.833 22.333 92.5 43s35.5 49.667 41.5 87h-43l21 84h92zM540 765l-21 -89c-12.667 -53.333 -32.167 -92 -58.5 -116s-64.5 -40.667 -114.5 -50l-10 41
c40 8 70.833 22.333 92.5 43s35.5 49.667 41.5 87h-43l21 84h92z" />
    <glyph glyph-name="quotedblbase" unicode="&#x201e;" horiz-adv-x="454" 
d="M374 91l-21 -89c-12.667 -53.333 -32.167 -92 -58.5 -116s-64.5 -40.667 -114.5 -50l-10 41c40 8 70.833 22.333 92.5 43s35.5 49.667 41.5 87h-43l21 84h92zM164 91l-21 -89c-12.667 -53.333 -32.167 -92 -58.5 -116s-64.5 -40.667 -114.5 -50l-10 41
c40 8 70.833 22.333 92.5 43s35.5 49.667 41.5 87h-43l21 84h92z" />
    <glyph glyph-name="dagger" unicode="&#x2020;" horiz-adv-x="552" 
d="M350 459l-129 -559h-60l129 559h-175l12 52h175l56 239h60l-56 -239h177l-12 -52h-177z" />
    <glyph glyph-name="daggerdbl" unicode="&#x2021;" horiz-adv-x="552" 
d="M280 161h177l-12 -52h-177l-48 -209h-60l48 209h-175l12 52h175l77 328h-175l12 52h175l48 209h60l-48 -209h177l-12 -52h-177z" />
    <glyph glyph-name="bullet" unicode="&#x2022;" horiz-adv-x="246" 
d="M176 267h-106l25 106h106z" />
    <glyph glyph-name="ellipsis" unicode="&#x2026;" horiz-adv-x="999" 
d="M800 0h-84l21 89h84zM480 0h-84l21 89h84zM160 0h-84l21 89h84z" />
    <glyph glyph-name="perthousand" unicode="&#x2030;" horiz-adv-x="1454" 
d="M1328 163c0 36.667 -11.333 66.5 -34 89.5s-51 34.5 -85 34.5s-62.167 -11.5 -84.5 -34.5s-33.5 -52.833 -33.5 -89.5c0 -37.333 11.167 -67.666 33.5 -90.999s50.5 -35 84.5 -35s62.333 11.667 85 35s34 53.666 34 90.999zM916 163c0 36.667 -11.333 66.5 -34 89.5
s-51 34.5 -85 34.5s-62.167 -11.5 -84.5 -34.5s-33.5 -52.833 -33.5 -89.5c0 -37.333 11.167 -67.666 33.5 -90.999s50.5 -35 84.5 -35s62.333 11.667 85 35s34 53.666 34 90.999zM1034 162c0 51.333 16.667 93.333 50 126s74.333 49 123 49
c51.333 0 93.833 -16.167 127.5 -48.5s50.5 -74.5 50.5 -126.5c0 -50.667 -17 -92.667 -51 -126s-76.333 -50 -127 -50c-48.667 0 -89.667 16.667 -123 50s-50 75.333 -50 126zM622 162c0 51.333 16.667 93.333 50 126s74.333 49 123 49
c51.333 0 93.833 -16.167 127.5 -48.5s50.5 -74.5 50.5 -126.5c0 -50.667 -17 -92.667 -51 -126s-76.333 -50 -127 -50c-48.667 0 -89.667 16.667 -123 50s-50 75.333 -50 126zM453 586c0 36.667 -11.333 66.5 -34 89.5s-51 34.5 -85 34.5s-62.167 -11.5 -84.5 -34.5
s-33.5 -52.833 -33.5 -89.5c0 -37.334 11.167 -67.667 33.5 -90.999c22.333 -23.333 50.5 -35 84.5 -35s62.333 11.667 85 35s34 53.666 34 90.999zM275 0h-60l645 750h60zM159 585c0 51.333 16.667 93.333 50 126s74.333 49 123 49c51.333 0 93.833 -16.167 127.5 -48.5
s50.5 -74.5 50.5 -126.5c0 -50.667 -17 -92.667 -51 -126s-76.333 -50 -127 -50c-48.667 0 -89.667 16.667 -123 50c-33.333 33.334 -50 75.334 -50 126z" />
    <glyph glyph-name="guilsinglleft" unicode="&#x2039;" horiz-adv-x="331" 
d="M239 129l-47 -33l-141 218l229 207l35 -46l-191 -168z" />
    <glyph glyph-name="guilsinglright" unicode="&#x203a;" horiz-adv-x="331" 
d="M89 479l47 33l141 -218l-229 -207l-35 46l191 168z" />
    <glyph glyph-name="fraction" unicode="&#x2044;" horiz-adv-x="712" 
d="M89 0h-60l645 750h60z" />
    <glyph glyph-name="uni2113" unicode="&#x2113;" horiz-adv-x="430" 
d="M227 485l67.999 34c76 38 114 83.667 114 137c0 19.333 -4.83301 34 -14.5 44s-22.834 15 -39.5 15c-24 0 -44.667 -9.66699 -62 -29c-17.333 -19.335 -29.666 -44.668 -36.999 -76zM213.999 428l-73.001 -317.001c-2 -10 -3 -18.667 -3 -26
c0 -16 4.16699 -28.167 12.5 -36.5s18.833 -12.5 31.5 -12.5c21.333 0 46 11 74 33s54.667 49.667 80 83l23 -20c-65.333 -96 -130.666 -144 -195.999 -144c-26 0 -46.5 8 -61.5 24s-22.5 38 -22.5 66c0 16.667 2.33301 34.334 7 53.001l64 275l-88 -46l13 56l87 44l31 137
c12.667 55.333 34.834 96.666 66.5 123.999c31.667 27.333 65.5 41 101.5 41c28 0 52.667 -7.83301 74 -23.5s32 -39.167 32 -70.5c0 -31.335 -11.333 -63.168 -34 -95.5c-22.667 -32.334 -56.667 -60.167 -102 -83.499z" />
    <glyph glyph-name="afii61352" unicode="&#x2116;" horiz-adv-x="1220" 
d="M1174 598c0 36.667 -11.333 66.5 -34 89.5s-51 34.5 -85 34.5s-62.167 -11.5 -84.5 -34.5s-33.5 -52.833 -33.5 -89.5c0 -37.334 11.167 -67.667 33.5 -90.999c22.333 -23.333 50.5 -35 84.5 -35s62.333 11.667 85 35s34 53.666 34 90.999zM606 0h-63l-279 679l-155 -679
h-58l171 750h76l270 -660l151 660h58zM880 597c0 51.333 16.667 93.333 50 126s74.333 49 123 49c51.333 0 93.833 -16.167 127.5 -48.5s50.5 -74.5 50.5 -126.5c0 -50.667 -17 -92.667 -51 -126s-76.333 -50 -127 -50c-48.667 0 -89.667 16.667 -123 50s-50 75.333 -50 126
z" />
    <glyph glyph-name="trademark" unicode="&#x2122;" horiz-adv-x="763" 
d="M772 390h-45v263l-96 -263h-52l-96 263v-263h-45v312h74l94 -268l94 268h72v-312zM398 702v-41h-116v-271h-45v271h-116v41h277z" />
    <glyph glyph-name="estimated" unicode="&#x212e;" horiz-adv-x="575" 
d="M406 293l-0.000976562 120c-27.333 37.333 -66 56 -116 56c-29.333 0 -56.666 -6.83301 -81.999 -20.5s-45.333 -32.5 -60 -56.5v-99h258zM296.999 31c84 0 133.667 40 149 120h46c-7.33301 -53.333 -29.5 -93.833 -66.5 -121.5s-81.167 -41.5 -132.5 -41.5
c-64.667 0 -118.5 21.667 -161.5 65s-64.5 108 -64.5 194s21.333 151.667 64 197s95.667 68 159 68c58 0 107 -18.5 147 -55.5s60 -89.833 60 -158.5c0 -22.667 -1 -40 -3 -52h-346v-129c30 -57.333 79.667 -86 149 -86z" />
    <glyph glyph-name="onethird" unicode="&#x2153;" horiz-adv-x="1040" 
d="M998 357c0 -29.333 -8.83301 -54.832 -26.5 -76.499s-42.5 -36.834 -74.5 -45.501c44 -15.333 66 -47 66 -95c0 -40 -15.5 -72.833 -46.5 -98.5s-68.167 -38.5 -111.5 -38.5c-45.333 0 -79.833 12.5 -103.5 37.5s-35.5 53.5 -35.5 85.5c0 8 0.333008 13.667 1 17h47
c-1.33301 -6.66699 -2 -12 -2 -16c0 -22 8.33301 -41.333 25 -58s39.667 -25 69 -25s54.5 8.5 75.5 25.5s31.5 39.167 31.5 66.5c0 24 -8.33301 43.333 -25 58s-42.667 22 -78 22h-11l11 43h12c39.333 0 70.5 8.5 93.5 25.5s34.5 39.167 34.5 66.5
c0 21.333 -8.16699 38.5 -24.5 51.5s-37.833 19.5 -64.5 19.5c-30 0 -56.5 -9.16699 -79.5 -27.5s-34.167 -47.5 -33.5 -87.5h-47c2 52.667 19.333 92 52 118s69.667 39 111 39c37.333 0 69 -9.33301 95 -28s39 -45 39 -79zM368 294.001h-254.001l10 44h104l81 351
c-29.333 -22 -69.666 -38 -120.999 -48l10 43c46 9.33301 88.333 29.333 127 60h42l-94 -406h105zM287.999 0.000976562h-60l645 750h60z" />
    <glyph glyph-name="twothirds" unicode="&#x2154;" horiz-adv-x="1040" 
d="M1007 357c0 -29.333 -8.83301 -54.832 -26.5 -76.499s-42.5 -36.834 -74.5 -45.501c44 -15.333 66 -47 66 -95c0 -40 -15.5 -72.833 -46.5 -98.5s-68.167 -38.5 -111.5 -38.5c-45.333 0 -79.833 12.5 -103.5 37.5s-35.5 53.5 -35.5 85.5c0 8 0.333008 13.667 1 17h47
c-1.33301 -6.66699 -2 -12 -2 -16c0 -22 8.16699 -41.333 24.5 -58s39.5 -25 69.5 -25c29.333 0 54.5 8.5 75.5 25.5s31.5 39.167 31.5 66.5c0 24 -8.33301 43.333 -25 58s-42.667 22 -78 22h-11l11 43h12c39.333 0 70.5 8.5 93.5 25.5s34.5 39.167 34.5 66.5
c0 21.333 -8.16699 38.5 -24.5 51.5s-37.833 19.5 -64.5 19.5c-30 0 -56.5 -9.16699 -79.5 -27.5s-34.167 -47.5 -33.5 -87.5h-47c2 52.667 19.333 92 52 118s69.667 39 111 39c37.333 0 69 -9.33301 95 -28s39 -45 39 -79zM302 0.000976562h-60l645 750h60zM414 339.001
l-10.002 -44.001h-305l9 42l123 97c8.66699 6.66699 21.834 16.834 39.5 30.501c17.667 13.667 30.334 23.5 38.001 29.5s17.834 14.5 30.501 25.5s21.667 19.833 27 26.5c5.33301 6.6709 11.5 14.8379 18.5 24.5c7 9.66699 11.667 19.167 14 28.5s3.5 19 3.5 29
c0 24.667 -8.33301 44 -25 58s-38 21 -64 21c-33.333 0 -61.166 -10 -83.499 -30s-34.833 -48 -37.5 -84h-46c4 50.667 22.167 89.5 54.5 116.5s71.166 40.5 116.499 40.5c38 0 69.667 -10.333 95 -31s38 -48.667 38 -84c0 -38 -13 -71.5 -39 -100.5
s-70.333 -67.5 -133 -115.5l-105 -80h241z" />
    <glyph glyph-name="onefifth" unicode="&#x2155;" horiz-adv-x="1040" 
d="M789 420l-51 -151.999c25.333 19.333 55 29 89 29c36.667 0 66 -12.5 88 -37.5s33 -56.167 33 -93.5c0 -44 -15 -83 -45 -117s-69.667 -51 -119 -51c-42 0 -75.833 12.5 -101.5 37.5s-38.834 56.5 -39.501 94.5h48c1.33301 -26 10 -47.667 26 -65s38.667 -26 68 -26
c34.667 0 62.834 11.667 84.5 35c21.667 23.333 32.5 51.666 32.5 84.999c0 30 -8.66699 53.333 -26 70s-39.333 25 -66 25c-35.3359 0 -65.6689 -11.667 -90.999 -35h-41l84 240h220l-9 -39h-184zM384 294.001h-254.001l10 44h104l81 351
c-29.333 -22 -69.666 -38 -120.999 -48l10 43c46 9.33301 88.333 29.333 127 60h42l-94 -406h105zM303.999 0.000976562h-60l645 750h60z" />
    <glyph glyph-name="twofifths" unicode="&#x2156;" horiz-adv-x="1040" 
d="M801 420l-50.999 -151.999c25.333 19.333 55 29 89 29c36.667 0 66 -12.5 88 -37.5s33 -56.167 33 -93.5c0 -44 -15 -83 -45 -117s-69.667 -51 -119 -51c-42 0 -75.833 12.5 -101.5 37.5s-38.834 56.5 -39.501 94.5h48c1.33301 -26 10 -47.667 26 -65s38.667 -26 68 -26
c34.668 0 62.835 11.667 84.5 35c21.667 23.333 32.5 51.666 32.5 84.999c0 30 -8.66699 53.333 -26 70s-39.333 25 -66 25c-35.335 0 -65.668 -11.667 -91 -35h-41l84 240h220l-9 -39h-184zM316.001 0.000976562h-60l645 750h60zM428.001 339.001l-10.0029 -44.001h-305
l9 42l123 97c8.66699 6.66699 21.834 16.834 39.501 30.501s30.334 23.5 38.001 29.5s17.834 14.5 30.501 25.5s21.667 19.833 27 26.5c5.33301 6.6709 11.5 14.8379 18.5 24.5c7 9.66699 11.667 19.167 14 28.5s3.5 19 3.5 29c0 24.667 -8.33301 44 -25 58s-38 21 -64 21
c-33.333 0 -61.166 -10 -83.499 -30s-34.833 -48 -37.5 -84h-46c4 50.667 22.167 89.5 54.5 116.5s71.166 40.5 116.499 40.5c38 0 69.667 -10.333 95 -31s38 -48.667 38 -84c0 -38 -13 -71.5 -39 -100.5s-70.333 -67.5 -133 -115.5l-105 -80h241z" />
    <glyph glyph-name="threefifths" unicode="&#x2157;" horiz-adv-x="1040" 
d="M786 420l-50.999 -151.999c25.333 19.333 55 29 89 29c36.667 0 66 -12.5 88 -37.5s33 -56.167 33 -93.5c0 -44 -15 -83 -45 -117s-69.667 -51 -119 -51c-42 0 -75.833 12.5 -101.5 37.5s-38.834 56.5 -39.501 94.5h48c1.33301 -26 10 -47.667 26 -65s38.667 -26 68 -26
c34.667 0 62.834 11.667 84.5 35c21.667 23.333 32.5 51.666 32.5 84.999c0 30 -8.66699 53.333 -26 70s-39.333 25 -66 25c-35.335 0 -65.668 -11.667 -91 -35h-41l84 240h220l-9 -39h-184zM301.001 0.000976562h-60l645 750h60zM477.001 643.001
c0 -29.333 -8.83301 -54.832 -26.5 -76.499s-42.5 -36.834 -74.5 -45.501c44 -15.333 66 -47 66 -95c0 -40 -15.5 -72.833 -46.5 -98.5s-68.167 -38.5 -111.5 -38.5c-45.333 0 -79.833 12.5 -103.5 37.5s-35.5 53.5 -35.5 85.5c0 8 0.333008 13.667 1 17h47
c-1.33301 -6.66699 -2 -12 -2 -16c0 -22 8.16699 -41.333 24.5 -58s39.5 -25 69.5 -25c29.333 0 54.5 8.5 75.5 25.5s31.5 39.167 31.5 66.5c0 24 -8.33301 43.333 -25 58s-42.667 22 -78 22h-11l11 43h12c39.333 0 70.5 8.5 93.5 25.5s34.5 39.167 34.5 66.5
c0 21.333 -8.16699 38.5 -24.5 51.5s-37.833 19.5 -64.5 19.5c-30 0 -56.5 -9.16699 -79.5 -27.5s-34.167 -47.5 -33.5 -87.5h-47c2 52.667 19.333 92 52 118s69.667 39 111 39c37.333 0 69 -9.33301 95 -28s39 -45 39 -79z" />
    <glyph glyph-name="fourfifths" unicode="&#x2158;" horiz-adv-x="1040" 
d="M819 420l-50.999 -151.999c25.333 19.333 55 29 89 29c36.667 0 66 -12.5 88 -37.5s33 -56.167 33 -93.5c0 -44 -15 -83 -45 -117s-69.667 -51 -119 -51c-42 0 -75.833 12.5 -101.5 37.5s-38.834 56.5 -39.501 94.5h48c1.33301 -26 10 -47.667 26 -65s38.667 -26 68 -26
c34.667 0 62.834 11.667 84.5 35c21.667 23.333 32.5 51.666 32.5 84.999c0 30 -8.66699 53.333 -26 70s-39.333 25 -66 25c-35.335 0 -65.668 -11.667 -91 -35h-41l84 240h220l-9 -39h-184zM173.001 442.001h170l59 249zM459.001 400.001h-80l-26 -105h-43l24 106h-220
l9 44l275 300h60l-71 -301h81zM334.001 0.000976562h-60l645 750h60z" />
    <glyph glyph-name="onesixth" unicode="&#x2159;" horiz-adv-x="1040" 
d="M830 257c-30.667 0 -58.167 -10.668 -82.5 -32.001s-36.5 -49.666 -36.5 -84.999c0 -29.333 9.66699 -52.333 29 -69s42.333 -25 69 -25c30.667 0 57.667 10 81 30s35 48.333 35 85c0 30.667 -9.5 54.334 -28.5 71c-19 16.667 -41.167 25 -66.5 25zM877 463.999
c36 0 65.6689 -9.33203 89.002 -27.999s35 -43.334 35 -74c0 -6.66699 -0.333008 -11.667 -1 -15h-43v6c0 21.334 -8.16699 38.167 -24.5 50.5s-35.833 18.5 -58.5 18.5c-39.333 0 -74.833 -17.333 -106.5 -52s-51.5 -80.667 -59.5 -138c28.668 45.333 74.335 68 137 68
c35.333 0 65.166 -11.167 89.499 -33.5s36.5 -53.5 36.5 -93.5c0 -47.333 -15.5 -87.5 -46.5 -120.5s-69.833 -49.5 -116.5 -49.5c-46 0 -82.333 17.167 -109 51.5s-40 77.166 -40 128.499c0 43.333 8.16699 86 24.5 128s41.666 78 75.999 108s73.5 45 117.5 45z
M367.002 294h-254.001l10 44h104l81 351c-29.333 -22 -69.666 -38 -120.999 -48l10 43c46 9.33301 88.333 29.333 127 60h42l-94 -406h105zM287.001 0h-60l645 750h60z" />
    <glyph glyph-name="fivesixths" unicode="&#x215a;" horiz-adv-x="1040" 
d="M825 257c-30.667 0 -58.167 -10.668 -82.5 -32.001s-36.5 -49.666 -36.5 -84.999c0 -29.333 9.66699 -52.333 29 -69s42.333 -25 69 -25c30.667 0 57.667 10 81 30s35 48.333 35 85c0 30.667 -9.5 54.334 -28.5 71c-19 16.667 -41.167 25 -66.5 25zM872 463.999
c36 0 65.6689 -9.33203 89.002 -27.999s35 -43.334 35 -74c0 -6.66699 -0.333008 -11.667 -1 -15h-43v6c0 21.334 -8.16699 38.167 -24.5 50.5s-35.833 18.5 -58.5 18.5c-39.333 0 -74.833 -17.333 -106.5 -52s-51.5 -80.667 -59.5 -138c28.668 45.333 74.335 68 137 68
c35.333 0 65.166 -11.167 89.499 -33.5s36.5 -53.5 36.5 -93.5c0 -47.333 -15.5 -87.5 -46.5 -120.5s-69.833 -49.5 -116.5 -49.5c-46 0 -82.333 17.167 -109 51.5s-40 77.166 -40 128.499c0 43.333 8.16699 86 24.5 128s41.666 78 75.999 108s73.5 45 117.5 45z
M273.002 706l-51.001 -152c25.333 19.333 55 29 89 29c36.667 0 66 -12.5 88 -37.5s33 -56.167 33 -93.5c0 -44 -15 -83 -45 -117s-69.667 -51 -119 -51c-42 0 -75.833 12.5 -101.5 37.5s-38.834 56.5 -39.501 94.5h48c1.33301 -26 10 -47.667 26 -65s38.667 -26 68 -26
c34.667 0 62.834 11.667 84.501 35c21.667 23.334 32.5 51.667 32.5 85c0 30 -8.66699 53.333 -26 70s-39.333 25 -66 25c-35.333 0 -65.666 -11.667 -90.999 -35h-41l84 240h220l-9 -39h-184zM282.001 0h-60l645 750h60z" />
    <glyph glyph-name="oneeighth" unicode="&#x215b;" horiz-adv-x="1040" 
d="M796 45c30.6699 0 57.8369 8.33301 81.5 25c23.667 16.667 35.5 40 35.5 70c0 24 -9 43 -27 57s-39 21 -63 21c-30 0 -57.167 -8.5 -81.5 -25.5s-36.5 -40.833 -36.5 -71.5c0 -24 8.83301 -42.667 26.5 -56s39.167 -20 64.5 -20zM859 424c-30 0 -54.667 -7.66699 -74 -23
s-29 -36 -29 -62c0 -24 8 -41.833 24 -53.5s35.667 -17.5 59 -17.5c26.667 0 51 8 73 24s33 36.667 33 62c0 22.667 -8 40 -24 52s-36.667 18 -62 18zM887 240c48.667 -15.333 73 -48.6709 73 -100.004c0 -41.333 -16.667 -74.666 -50 -99.999s-71.333 -38 -114 -38
c-38 0 -70.5 10 -97.5 30s-40.5 47.667 -40.5 83c0 30.667 10.833 58.334 32.5 83.001s49.5 40.667 83.5 48c-42 20.667 -63 53 -63 97c0 37.333 14.5 66.833 43.5 88.5s65.167 32.5 108.5 32.5c36.667 0 67.167 -9.5 91.5 -28.5s36.5 -44.5 36.5 -76.5
c0 -31.333 -9.5 -57.666 -28.5 -78.999s-44.167 -34.666 -75.5 -39.999zM360 293.995h-254.001l10 44h104l81 351c-29.333 -22 -69.666 -38 -120.999 -48l10 43c46 9.33301 88.333 29.333 127 60h42l-94 -406h105zM279.999 -0.00488281h-60l645 750h60z" />
    <glyph glyph-name="threeeighths" unicode="&#x215c;" horiz-adv-x="1040" 
d="M782 45c30.6699 0 57.8369 8.33301 81.5 25c23.667 16.667 35.5 40 35.5 70c0 24 -9 43 -27 57s-39 21 -63 21c-30 0 -57.167 -8.5 -81.5 -25.5s-36.5 -40.833 -36.5 -71.5c0 -24 8.83301 -42.667 26.5 -56s39.167 -20 64.5 -20zM845 424c-30 0 -54.667 -7.66699 -74 -23
s-29 -36 -29 -62c0 -24 8 -41.833 24 -53.5s35.667 -17.5 59 -17.5c26.667 0 51 8 73 24s33 36.667 33 62c0 22.667 -8 40 -24 52s-36.667 18 -62 18zM873 240c48.667 -15.333 73 -48.6709 73 -100.004c0 -41.333 -16.667 -74.666 -50 -99.999s-71.333 -38 -114 -38
c-38 0 -70.5 10 -97.5 30s-40.5 47.667 -40.5 83c0 30.667 10.833 58.334 32.5 83.001s49.5 40.667 83.5 48c-42 20.667 -63 53 -63 97c0 37.333 14.5 66.833 43.5 88.5s65.167 32.5 108.5 32.5c36.667 0 67.167 -9.5 91.5 -28.5s36.5 -44.5 36.5 -76.5
c0 -31.333 -9.5 -57.666 -28.5 -78.999s-44.167 -34.666 -75.5 -39.999zM266 -0.00488281h-60l645 750h60zM463 642.995c0 -29.333 -8.83301 -54.832 -26.5 -76.499s-42.5 -36.834 -74.5 -45.501c44 -15.333 66 -47 66 -95c0 -40 -15.5 -72.833 -46.5 -98.5
s-68.167 -38.5 -111.5 -38.5c-45.333 0 -79.833 12.5 -103.5 37.5s-35.5 53.5 -35.5 85.5c0 8 0.333008 13.667 1 17h47c-1.33301 -6.66699 -2 -12 -2 -16c0 -22 8.16699 -41.333 24.5 -58s39.5 -25 69.5 -25c29.333 0 54.5 8.5 75.5 25.5s31.5 39.167 31.5 66.5
c0 24 -8.33301 43.333 -25 58s-42.667 22 -78 22h-11l11 43h12c39.333 0 70.5 8.5 93.5 25.5s34.5 39.167 34.5 66.5c0 21.333 -8.16699 38.5 -24.5 51.5s-37.833 19.5 -64.5 19.5c-30 0 -56.5 -9.16699 -79.5 -27.5s-34.167 -47.5 -33.5 -87.5h-47
c2 52.667 19.333 92 52 118s69.667 39 111 39c37.333 0 69 -9.33301 95 -28s39 -45 39 -79z" />
    <glyph glyph-name="fiveeighths" unicode="&#x215d;" horiz-adv-x="1040" 
d="M790 45c30.667 0 57.834 8.33301 81.5 25c23.667 16.667 35.5 40 35.5 70c0 24 -9 43 -27 57s-39 21 -63 21c-30 0 -57.167 -8.5 -81.5 -25.5s-36.5 -40.833 -36.5 -71.5c0 -24 8.83301 -42.667 26.5 -56s39.167 -20 64.5 -20zM853 424c-30 0 -54.667 -7.66699 -74 -23
s-29 -36 -29 -62c0 -24 8 -41.833 24 -53.5s35.667 -17.5 59 -17.5c26.667 0 51 8 73 24s33 36.667 33 62c0 22.667 -8 40 -24 52s-36.667 18 -62 18zM881 240c48.667 -15.333 73 -48.6709 73 -100.004c0 -41.333 -16.667 -74.666 -50 -99.999s-71.333 -38 -114 -38
c-38 0 -70.5 10 -97.5 30s-40.5 47.667 -40.5 83c0 30.667 10.833 58.334 32.5 83.001s49.5 40.667 83.5 48c-42 20.667 -63 53 -63 97c0 37.333 14.5 66.833 43.5 88.5s65.167 32.5 108.5 32.5c36.667 0 67.167 -9.5 91.5 -28.5s36.5 -44.5 36.5 -76.5
c0 -31.333 -9.5 -57.666 -28.5 -78.999s-44.167 -34.666 -75.5 -39.999zM265 705.995l-51.001 -152c25.333 19.333 55 29 89 29c36.667 0 66 -12.5 88 -37.5s33 -56.167 33 -93.5c0 -44 -15 -83 -45 -117s-69.667 -51 -119 -51c-42 0 -75.833 12.5 -101.5 37.5
s-38.834 56.5 -39.501 94.5h48c1.33301 -26 10 -47.667 26 -65s38.667 -26 68 -26c34.667 0 62.834 11.667 84.501 35c21.667 23.334 32.5 51.667 32.5 85c0 30 -8.66699 53.333 -26 70s-39.333 25 -66 25c-35.333 0 -65.666 -11.667 -90.999 -35h-41l84 240h220l-9 -39
h-184zM273.999 -0.00488281h-60l645 750h60z" />
    <glyph glyph-name="seveneighths" unicode="&#x215e;" horiz-adv-x="1040" 
d="M787 45c30.667 0 57.834 8.33301 81.5 25c23.667 16.667 35.5 40 35.5 70c0 24 -9 43 -27 57s-39 21 -63 21c-30 0 -57.167 -8.5 -81.5 -25.5s-36.5 -40.833 -36.5 -71.5c0 -24 8.83301 -42.667 26.5 -56s39.167 -20 64.5 -20zM850 424c-30 0 -54.667 -7.66699 -74 -23
s-29 -36 -29 -62c0 -24 8 -41.833 24 -53.5s35.667 -17.5 59 -17.5c26.667 0 51 8 73 24s33 36.667 33 62c0 22.667 -8 40 -24 52s-36.667 18 -62 18zM878 240c48.667 -15.333 73 -48.6709 73 -100.004c0 -41.333 -16.667 -74.666 -50 -99.999s-71.333 -38 -114 -38
c-38 0 -70.5 10 -97.5 30s-40.5 47.667 -40.5 83c0 30.667 10.833 58.334 32.5 83.001s49.5 40.667 83.5 48c-42 20.667 -63 53 -63 97c0 37.333 14.5 66.833 43.5 88.5s65.167 32.5 108.5 32.5c36.667 0 67.167 -9.5 91.5 -28.5s36.5 -44.5 36.5 -76.5
c0 -31.333 -9.5 -57.666 -28.5 -78.999s-44.167 -34.666 -75.5 -39.999zM502 703.995l-260 -412h-51l258 408h-251l10 45h305zM271 -0.00488281h-60l645 750h60z" />
    <glyph glyph-name="partialdiff" unicode="&#x2202;" horiz-adv-x="640" 
d="M484 240c0 58 -18 102.332 -54 132.999s-77.333 46 -124 46c-50 0 -93.667 -16.667 -131 -50s-56 -80 -56 -140c0 -59.333 17.5 -106.333 52.5 -141s75.5 -52 121.5 -52c48.667 0 92.667 18.833 132 56.5s59 86.834 59 147.501zM358 749.999
c22.667 0 43.667 -2.16211 63 -6.49512s40.333 -13.333 63 -27s41.834 -31.834 57.501 -54.501c15.6709 -22.667 28.8379 -54.167 39.5 -94.5c10.667 -40.334 16 -87.501 16 -141.501c0 -136.667 -29.5 -243.834 -88.5 -321.501s-131.833 -116.5 -218.5 -116.5
c-63.333 0 -117 21.167 -161 63.5s-66 99.5 -66 171.5c0 74.667 23 135.5 69 182.5s102 70.5 168 70.5c51.333 0 98.5 -14 141.5 -42s69.833 -68.667 80.5 -122c8.66699 47.333 13 90.666 13 129.999c0 83.333 -17.333 145.833 -52 187.5s-78 62.5 -130 62.5
c-40 0 -74 -11.333 -102 -34s-45.333 -51.334 -52 -86.001h-69c13.333 56 39.666 99.667 78.999 131s89 47 149 47z" />
    <glyph glyph-name="product" unicode="&#x220f;" horiz-adv-x="880" 
d="M706 700h-320l-162 -700h-57l162 700h-119l12 50h670l-12 -50h-117l-162 -700h-57z" />
    <glyph glyph-name="summation" unicode="&#x2211;" horiz-adv-x="702" 
d="M718 699h-448l249 -339l-412 -307h496l-12 -53h-582l12 50l418 320l-246 331l12 49h526z" />
    <glyph glyph-name="minus" unicode="&#x2212;" horiz-adv-x="520" 
d="M53 268l12 53h420l-12 -53h-420z" />
    <glyph glyph-name="radical" unicode="&#x221a;" horiz-adv-x="638" 
d="M265 0h-59l-105 532h64l83 -457l394 675h68z" />
    <glyph glyph-name="infinity" unicode="&#x221e;" horiz-adv-x="828" 
d="M229 130c42 0 78.833 17.499 110.5 52.499s47.5 80.833 47.5 137.5c0 44.667 -10.5 78.834 -31.5 102.501s-48.5 35.5 -82.5 35.5c-46 0 -83.5 -19.667 -112.5 -59s-43.5 -83.333 -43.5 -132c0 -38 9.66699 -70.333 29 -97s47 -40 83 -40zM567 127.999
c48.667 0 87.668 19.999 117.001 59.999s44 84.667 44 134c0 39.334 -10.167 72.167 -30.5 98.5c-20.3359 26.333 -48.1689 39.5 -83.5 39.5c-42.667 0 -80.834 -18.333 -114.501 -55s-50.5 -84 -50.5 -142c0 -45.333 11 -79.166 33 -101.499s50.333 -33.5 85 -33.5z
M617.001 521.998c53.333 0 94.334 -19 123.001 -57s43 -84.667 43 -140c0 -66.667 -20.167 -126.334 -60.5 -179.001c-40.335 -52.667 -94.168 -79 -161.5 -79c-46.667 0 -83.834 12.333 -111.501 37s-44.834 53.334 -51.5 86.001c-38 -82 -95.667 -123 -173 -123
c-54 0 -95.167 19.667 -123.5 59s-42.5 86.333 -42.5 141c0 68 20 127.5 60 178.5s94 76.5 162 76.5c43.333 0 78 -11.167 104 -33.5s42.667 -52.5 50 -90.5c20 38 45.5 68.167 76.5 90.5s66.167 33.5 105.5 33.5z" />
    <glyph glyph-name="integral" unicode="&#x222b;" horiz-adv-x="341" 
d="M424 710h-58c-32.667 0 -55.167 -6 -67.5 -18s-21.833 -32.333 -28.5 -61l-163 -715c-10.667 -46.667 -28.5 -78.667 -53.5 -96s-55.833 -26 -92.5 -26h-39l13 52h30c46 0 75.333 28.333 88 85l161 704c10.667 48.667 26.834 82 48.5 100c21.667 18 54.5 27 98.5 27h75z
" />
    <glyph glyph-name="approxequal" unicode="&#x2248;" horiz-adv-x="573" 
d="M500 188c-29.333 -14.667 -63.001 -22 -101.001 -22c-26 0 -59.333 7.66699 -100 23s-74.334 23 -101.001 23c-50 0 -89 -12 -117 -36v56c30.667 20.667 68.334 31 113.001 31c26.667 0 60.334 -7.83301 101.001 -23.5s75 -23.5 103 -23.5c46.667 0 80.667 10.333 102 31
v-59zM499.999 338c-29.333 -14.667 -63.001 -22 -101.001 -22c-26 0 -59.333 7.66699 -100 23s-74.334 23 -101.001 23c-50 0 -89 -12 -117 -36v56c30.667 20.667 68.334 31 113.001 31c26.667 0 60.334 -7.83301 101.001 -23.5s75 -23.5 103 -23.5
c46.667 0 80.667 10.333 102 31v-59z" />
    <glyph glyph-name="notequal" unicode="&#x2260;" horiz-adv-x="520" 
d="M324 342l-56 -101h206l-12 -53h-223l-79 -143h-57l79 143h-140l12 53h157l56 101h-189l12 53h206l81 147h57l-81 -147h157l-12 -53h-174z" />
    <glyph glyph-name="lessequal" unicode="&#x2264;" horiz-adv-x="520" 
d="M6 0l11 50h397l-12 -50h-396zM527 581l-386 -202l282 -201l-31 -41l-313 222l11 48l415 220z" />
    <glyph glyph-name="greaterequal" unicode="&#x2265;" horiz-adv-x="520" 
d="M-1 0l11 50h397l-12 -50h-396zM47 183l386 202l-282 201l31 41l313 -222l-11 -48l-415 -220z" />
    <glyph glyph-name="lozenge" unicode="&#x25ca;" horiz-adv-x="623" 
d="M139 352l126 -265l267 282l-125 264zM250 -12l-186 372l358 371l185 -371z" />
    <glyph glyph-name="zero.osf" horiz-adv-x="698" 
d="M579 323c0 71.334 -19.168 126.166 -57.501 164.499s-85.166 57.5 -140.499 57.5c-65.333 0 -123.166 -25 -173.499 -75s-75.5 -117.333 -75.5 -202c0 -72 18.667 -127.333 56 -166s82.666 -58 135.999 -58h2c66 0.666992 124.667 26.334 176 77.001s77 118 77 202z
M639.999 328.999c0 -52.667 -9.16895 -100.999 -27.502 -144.999s-42.5 -79.833 -72.5 -107.5s-63.333 -49.167 -100 -64.5s-74 -23.333 -112 -24h-4c-70 0 -129.833 23.667 -179.5 71s-74.5 115.666 -74.5 204.999c0 52.667 9.5 101 28.5 145s43.833 80 74.5 108
s64.834 49.5 102.501 64.5s75.834 22.5 114.501 22.5c70 0 129.167 -23.667 177.5 -71s72.5 -115.333 72.5 -204z" />
    <glyph glyph-name="one.osf" horiz-adv-x="569" 
d="M19 0l11 50h176l116 492h-176l11 50h408l-11 -50h-176l-116 -492h176l-11 -50h-408z" />
    <glyph glyph-name="two.osf" horiz-adv-x="593" 
d="M466 51l-12.001 -51.001h-436l12 51l193 130c89.333 60.667 151.333 107.834 186 141.501s52 70.5 52 110.5c0 38 -11.667 67 -35 87s-52.333 30 -87 30c-44 0 -84 -16.5 -120 -49.5s-54.333 -77.167 -55 -132.5h-61c7.33301 76.667 34.333 135.167 81 175.5
s99.334 60.5 158.001 60.5c49.333 0 91.333 -14.5 126 -43.5s52 -67.833 52 -116.5s-17.333 -92.334 -52 -131c-34.667 -38.667 -94 -87.667 -178 -147l-164 -116z" />
    <glyph glyph-name="three.osf" horiz-adv-x="640" 
d="M595 430c0 -47.333 -15.666 -89.5 -46.999 -126.5c-31.334 -37 -75.334 -62.833 -132 -77.5c79.333 -34 119 -87.667 119 -161c0 -65.333 -26.5 -118.833 -79.5 -160.5s-116.5 -62.5 -190.5 -62.5c-40 0 -75.5 6.5 -106.5 19.5s-54.833 29.833 -71.5 50.5
s-29.167 42 -37.5 64s-12.5 44.333 -12.5 67c0 9.33301 1.33301 20.666 4 33.999h62c-2.66699 -10.667 -4 -22.334 -4 -35.001c0 -40 14.833 -74.5 44.5 -103.5s71.834 -43.5 126.501 -43.5c52 0 97.833 14.833 137.5 44.5s59.5 69.5 59.5 119.5
c0 41.333 -14.833 75.833 -44.5 103.5s-75.834 41.5 -138.5 41.5h-11l12 50h5c72 0 129.667 16.333 173 49s65 73.334 65 122.001c0 38.667 -13.833 68.834 -41.5 90.501s-66.834 32.5 -117.5 32.5c-50.667 0 -95.167 -14 -133.5 -42
c-38.334 -28 -60.167 -74.333 -65.5 -139h-63c5.33301 53.333 22.166 98.5 50.499 135.5s61.166 63 98.499 78c37.334 15 77.667 22.5 121 22.5c64 0 116.333 -14.833 157 -44.5s61 -72.5 61 -128.5z" />
    <glyph glyph-name="four.osf" horiz-adv-x="640" 
d="M72 89h311l101 437zM570 36h-143l-42 -185h-57l43 187h-378l13 60l463 490h86l-116 -499h142z" />
    <glyph glyph-name="five.osf" horiz-adv-x="640" 
d="M252 537l-75.002 -258c42.667 30 92.334 45 149.001 45c66 0 116.667 -20 152 -60s53 -89.333 53 -148c0 -72 -24.167 -136.167 -72.5 -192.5s-113.166 -84.5 -194.499 -84.5c-64.667 0 -118.667 18.5 -162 55.5s-65 86.5 -65 148.5c0 6 0.666992 16.333 2 31h61
c-2.66699 -11.333 -4 -24 -4 -38c0 -44 16.333 -78.667 49 -104s73 -38 121 -38c62 0 111.833 21 149.5 63s56.5 90.333 56.5 145c0 47.333 -14.667 87.333 -44 120s-72 49 -128 49c-51.333 0 -100 -20 -146 -60h-50l110 376h353l-11 -50h-304z" />
    <glyph glyph-name="six.osf" horiz-adv-x="640" 
d="M363 418c-63.333 0 -113.666 -20.333 -150.999 -61s-56 -88.667 -56 -144c0 -47.333 14.667 -87.833 44 -121.5s71.666 -50.5 126.999 -50.5c64 0 114.667 21 152 63s56 90 56 144c0 48 -14.833 88.333 -44.5 121s-72.167 49 -127.5 49zM436 750
c56.667 0 104.333 -14.668 143 -44.001c38.667 -29.335 58 -70.668 58 -124c0 -10.667 -0.333008 -19 -1 -25h-56v11c0 44.667 -14.333 77 -43 97s-64.334 30 -107 30c-72.667 0 -136.834 -30.667 -192.5 -92c-55.667 -61.333 -87.167 -145.666 -94.5 -252.999
c23.333 39.333 54.833 70 94.5 92s84.167 33 133.5 33c71.334 0 126.167 -21.667 164.5 -65s57.5 -95 57.5 -155c0 -70 -24.333 -132 -73 -186s-114 -81 -196 -81c-79.333 0 -139.333 27.5 -180 82.5s-61 132.5 -61 232.5c0 71.334 10.333 136.167 31 194.5
s48 105.333 82 141s71.5 63.167 112.5 82.5s83.5 29 127.5 29z" />
    <glyph glyph-name="seven.osf" horiz-adv-x="640" 
d="M611 528l-428 -677h-67l430 677h-458l14 60h524z" />
    <glyph glyph-name="eight.osf" horiz-adv-x="640" 
d="M296 40c56 0 103.333 14.832 142 44.499s58 69.167 58 118.5c0 46.667 -15.833 83 -47.5 109s-69.834 39 -114.5 39c-53.333 0 -100.333 -15.167 -141 -45.5s-61 -72.166 -61 -125.499c0 -46 15 -80.833 45 -104.5s69.667 -35.5 119 -35.5zM219 553.999
c0 -42 14.833 -74.333 44.5 -97s65.5 -34 107.5 -34c47.333 0 88.833 13.5 124.5 40.5s53.5 63.5 53.5 109.5c0 40 -15.167 71 -45.5 93s-66.833 33 -109.5 33c-46.667 0 -87.5 -12.833 -122.5 -38.5s-52.5 -61.167 -52.5 -106.5zM439 377.999
c36 -14 65.167 -35.333 87.5 -64s33.5 -62.334 33.5 -101.001c0 -70 -26.667 -125 -80 -165s-115.333 -60 -186 -60c-63.333 0 -117 15.833 -161 47.5s-66 76.834 -66 135.501c0 53.333 18.5 100.333 55.5 141s85.833 67 146.5 79c-34 13.334 -61.333 34.167 -82 62.5
c-20.667 28.334 -31 60.834 -31 97.5c0 62 24.5 110.667 73.5 146s105.833 53 170.5 53c58.667 0 108.667 -14.833 150 -44.5s62 -71.5 62 -125.5c0 -48.667 -16.333 -92 -49 -130s-74 -62 -124 -72z" />
    <glyph glyph-name="nine.osf" horiz-adv-x="640" 
d="M319 178c52.667 0 98.5 19.166 137.5 57.499s58.5 87.833 58.5 148.5c0 53.333 -18.167 94 -54.5 122s-75.833 42 -118.5 42c-62 0 -110.167 -19.167 -144.5 -57.5s-51.5 -84.166 -51.5 -137.499c0 -49.333 14.833 -90.833 44.5 -124.5s72.5 -50.5 128.5 -50.5z
M341 603.999c75.333 0 135.333 -25.3359 180 -76.0029s67 -125.667 67 -225c0 -60.667 -6.83301 -118.167 -20.5 -172.5s-33.667 -103.166 -60 -146.499s-61 -77.833 -104 -103.5s-91.5 -38.5 -145.5 -38.5c-65.333 0 -117 17.5 -155 52.5s-58.667 81.833 -62 140.5h60
c5.33301 -43.333 21.5 -77.333 48.5 -102s64.5 -37 112.5 -37c35.333 0 68 8 98 24s54.833 36.5 74.5 61.5s36.5 53 50.5 84s24 61.333 30 91s9 57.5 9 83.5c0 2 -0.166992 5 -0.5 9s-0.5 7 -0.5 9c-20 -45.333 -49 -79.166 -87 -101.499s-78 -33.5 -120 -33.5
c-74 0 -130.5 22.333 -169.5 67s-58.5 99.334 -58.5 164.001c0 68 22.5 126.667 67.5 176s106.833 74 185.5 74z" />
    <glyph glyph-name="zero.pnum" horiz-adv-x="622" 
d="M285 46c36 0 68.833 11.5 98.5 34.5s53.5 51.667 71.5 86s33.167 72.833 45.5 115.5s21 82.5 26 119.5s7.5 70.833 7.5 101.5c0 58 -10.5 104.167 -31.5 138.5s-54.5 51.5 -100.5 51.5c-36 0 -68.667 -11.667 -98 -35s-53 -52.333 -71 -87s-33 -73.667 -45 -117
s-20.333 -83.333 -25 -120s-7 -70.334 -7 -101c0 -124.667 43 -187 129 -187zM281 -12c-122.667 0 -184 86.667 -184 260c0 54 5.83301 108.667 17.5 164s29 109 52 161s55.333 94.5 97 127.5s89.5 49.5 143.5 49.5c123.333 0 185 -88 185 -264
c0 -55.333 -6 -110.833 -18 -166.5s-29.833 -109 -53.5 -160s-56.334 -92.333 -98 -124c-41.667 -31.667 -88.834 -47.5 -141.5 -47.5z" />
    <glyph glyph-name="one.pnum" horiz-adv-x="506" 
d="M415 0h-412l11 50h178l143 616c-20.667 -16.667 -43.834 -31 -69.5 -43c-25.667 -12 -48 -20.667 -67 -26s-42.5 -11 -70.5 -17l13 57c76.667 16.667 146.667 50 210 100h56l-158 -687h177z" />
    </font>
</defs>
</svg>
