<?xml version="1.0" standalone="no"?>
<!DOCTYPE svg PUBLIC "-//W3C//DTD SVG 1.1//EN" "http://www.w3.org/Graphics/SVG/1.1/DTD/svg11.dtd" >
<svg xmlns="http://www.w3.org/2000/svg" xmlns:xlink="http://www.w3.org/1999/xlink" version="1.1">
<metadata>
Created by FontForge 20190801 at Tue Aug 25 19:02:35 2015
 By Jimmy Wärting
Copyright (c) 2015 by Luzi Type. All rights reserved.
</metadata>
<defs>
<font id="MessinaSans-Bold" horiz-adv-x="600" >
  <font-face 
    font-family="MessinaSans"
    font-weight="700"
    font-stretch="normal"
    units-per-em="1000"
    panose-1="0 0 8 0 0 0 0 0 0 0"
    ascent="800"
    descent="-200"
    x-height="552"
    cap-height="750"
    bbox="-59 -398.999 1316 1071"
    underline-thickness="50"
    underline-position="-100"
    unicode-range="U+000D-FB04"
  />
<missing-glyph horiz-adv-x="500" 
 />
    <glyph glyph-name="ff" unicode="ff" horiz-adv-x="685" 
d="M685 644l-60 0.00195312c-22 0 -36.833 -4.66699 -44.5 -14s-11.5 -23.333 -11.5 -42v-36h102v-120h-102v-432h-133v432h-211v-432h-133v432h-82v120h82v30c0 69.333 14 116.666 42 141.999s70.333 38 127 38h80v-118h-60c-22 0 -36.833 -4.66699 -44.5 -14
s-11.5 -23.333 -11.5 -42v-36h211v30c0 69.333 14 116.666 42 141.999s70.333 38 127 38h80v-118z" />
    <glyph glyph-name="fi" unicode="fi" horiz-adv-x="629" 
d="M436 0v432.001h-211v-432h-133v432h-82v120h82v30c0 69.333 14 116.666 42 141.999s70.333 38 127 38h80v-118h-60c-22 0 -36.833 -4.66699 -44.5 -14s-11.5 -23.333 -11.5 -42v-36h344v-552h-133z" />
    <glyph glyph-name="fl" unicode="fl" horiz-adv-x="634" 
d="M569 0l-133 0.000976562v432h-211v-432h-133v432h-82v120h82v30c0 69.333 14 116.666 42 141.999s70.333 38 127 38h80v-118h-60c-22 0 -36.833 -4.66699 -44.5 -14s-11.5 -23.333 -11.5 -42v-36h211v210h133v-762z" />
    <glyph glyph-name="ffi" unicode="ffi" horiz-adv-x="963" 
d="M770 432l-201 0.00195312v-432h-133v432h-211v-432h-133v432h-82v120h82v30c0 69.333 14 116.666 42 141.999s70.333 38 127 38h80v-118h-60c-22 0 -36.833 -4.66699 -44.5 -14s-11.5 -23.333 -11.5 -42v-36h211v30c0 69.333 14 116.666 42 141.999s70.333 38 127 38h80
v-118h-60c-22 0 -36.833 -4.66699 -44.5 -14s-11.5 -23.333 -11.5 -42v-36h334v-552h-133v432z" />
    <glyph glyph-name="ffl" unicode="ffl" horiz-adv-x="968" 
d="M903 0l-133 0.00195312v432h-201v-432h-133v432h-211v-432h-133v432h-82v120h82v30c0 69.333 14 116.666 42 141.999s70.333 38 127 38h80v-118h-60c-22 0 -36.833 -4.66699 -44.5 -14s-11.5 -23.333 -11.5 -42v-36h211v30c0 69.333 14 116.666 42 141.999
s70.333 38 127 38h80v-118h-60c-22 0 -36.833 -4.66699 -44.5 -14s-11.5 -23.333 -11.5 -42v-36h201v210h133v-762z" />
    <glyph glyph-name="T_h" unicode="Th" horiz-adv-x="1257" 
d="M1017 562c60 0 104.998 -17.668 134.998 -53.001s45 -86.333 45 -153v-356h-133v344c0 30.667 -8.16699 54.834 -24.5 72.501c-16.3369 17.667 -39.1699 26.5 -68.499 26.5c-36 0 -64.667 -13 -86 -39s-32 -61.333 -32 -106v-298h-133v750h133v-276
c36.668 58.667 91.335 88 164.001 88zM637.998 619.999h-246v-620h-139v620h-243v130h628v-130z" />
    <glyph glyph-name="f_f_j" unicode="ffj" horiz-adv-x="958" 
d="M903 552v-577.999c0 -69.333 -14 -116.666 -42 -141.999s-70.333 -38 -127 -38h-65v118h45c22 0 36.833 4.66699 44.5 14s11.5 23.333 11.5 42v464h-201v-432h-133v432h-211v-432h-133v432h-82v120h82v30c0 69.333 14 116.666 42 141.999s70.333 38 127 38h80v-118h-60
c-22 0 -36.833 -4.66699 -44.5 -14s-11.5 -23.333 -11.5 -42v-36h211v30c0 69.333 14 116.666 42 141.999s70.333 38 127 38h80v-118h-60c-22 0 -36.833 -4.66699 -44.5 -14s-11.5 -23.333 -11.5 -42v-36h334z" />
    <glyph glyph-name="f_f_t" unicode="fft" horiz-adv-x="1046" 
d="M1026 0l-87 0.00292969c-56.667 0 -99 12.667 -127 38s-42 72.666 -42 141.999v252h-201v-432h-133v432h-211v-432h-133v432h-82v120h82v30c0 69.333 14 116.666 42 141.999s70.333 38 127 38h80v-118h-60c-22 0 -36.833 -4.66699 -44.5 -14s-11.5 -23.333 -11.5 -42v-36
h211v30c0 69.333 14 116.666 42 141.999s70.333 38 127 38h80v-118h-60c-22 0 -36.833 -4.66699 -44.5 -14s-11.5 -23.333 -11.5 -42v-36h201v124l133 37v-161h110v-120h-110v-258c0 -18.667 3.83301 -32.667 11.5 -42s22.5 -14 44.5 -14h67v-118z" />
    <glyph glyph-name="f_j" unicode="fj" horiz-adv-x="614" 
d="M559 552v-578c0 -69.333 -14 -116.666 -42 -141.999s-70.333 -38 -127 -38h-65v118h45c22 0 36.833 4.66699 44.5 14s11.5 23.333 11.5 42v464h-201v-432h-133v432h-82v120h82v30c0 69.333 14 116.666 42 141.999s70.333 38 127 38h80v-118h-60
c-22 0 -36.833 -4.66699 -44.5 -14s-11.5 -23.333 -11.5 -42v-36h334z" />
    <glyph glyph-name="f_t" unicode="ft" horiz-adv-x="702" 
d="M682 0l-87 0.00195312c-56.667 0 -99 12.667 -127 38s-42 72.666 -42 141.999v252h-201v-432h-133v432h-82v120h82v30c0 69.333 14 116.666 42 141.999s70.333 38 127 38h80v-118h-60c-22 0 -36.833 -4.66699 -44.5 -14s-11.5 -23.333 -11.5 -42v-36h201v124l133 37v-161
h110v-120h-110v-258c0 -18.667 3.83301 -32.667 11.5 -42s22.5 -14 44.5 -14h67v-118z" />
    <glyph glyph-name="t_t" unicode="tt" horiz-adv-x="716" 
d="M696 0l-87 0.00195312c-56.667 0 -99 12.667 -127 38s-42 72.666 -42 141.999v252h-201v-258c0 -18.667 3.83301 -32.667 11.5 -42s22.5 -14 44.5 -14h67v-118h-87c-56.667 0 -99 12.667 -127 38s-42 72.666 -42 141.999v252h-101v120h101v124l133 37v-161h201v124
l133 37v-161h110v-120h-110v-258c0 -18.667 3.83301 -32.667 11.5 -42s22.5 -14 44.5 -14h67v-118z" />
    <glyph glyph-name=".notdef" horiz-adv-x="500" 
 />
    <glyph glyph-name="CR" unicode="&#xd;" horiz-adv-x="500" 
 />
    <glyph glyph-name="space" unicode=" " horiz-adv-x="215" 
 />
    <glyph glyph-name="exclam" unicode="!" horiz-adv-x="290" 
d="M70 154h150v-154h-150v154zM216 482l-24 -260h-94l-24 260v268h142v-268z" />
    <glyph glyph-name="quotedbl" unicode="&#x22;" horiz-adv-x="410" 
d="M230 788h130l-24 -292h-81zM50 788h130l-24 -292h-81z" />
    <glyph glyph-name="numbersign" unicode="#" horiz-adv-x="635" 
d="M390 459h-122l-23 -151h121zM462 459l-23 -151h150v-63h-160l-37 -245h-73l38 245h-122l-37 -245h-73l38 245h-133v63h142l24 151h-147v63h156l34 218h72l-33 -218h121l34 218h72l-33 -218h136v-63h-146z" />
    <glyph glyph-name="dollar" unicode="$" horiz-adv-x="640" 
d="M340 96c40.667 0 73.333 9 98 27s37 42.333 37 73c0 14 -2.83301 26.5 -8.5 37.5c-5.66992 11 -12.3369 20.167 -20 27.5c-7.66699 7.33301 -19 14.333 -34 21s-27.833 11.667 -38.5 15c-10.667 3.33594 -25.667 7.66895 -45 13l-15 -213c6 -0.666992 14.667 -1 26 -1z
M189.999 550c0 -27.334 8.83301 -48.833 26.5 -64.499c17.667 -15.667 43.5 -29.5 77.5 -41.5l15 208c-38 -2 -67.333 -12.333 -88 -31s-31 -42.334 -31 -71.001zM336.999 432.001l5.99902 -2.00098c2.66699 -0.666992 13.5 -3.5 32.5 -8.5s31 -8.16699 36 -9.5
s16.333 -4.83301 34 -10.5c17.667 -5.66992 29.834 -10.3369 36.501 -14.001c6.66699 -3.66992 17.334 -9.33691 32.001 -17.001c14.667 -7.66797 25.167 -14.835 31.5 -21.5c6.33301 -6.66797 14.5 -15.335 24.5 -26c10 -10.667 17.167 -21.5 21.5 -32.5
s8.16602 -23.833 11.499 -38.5s5 -30.334 5 -47.001c0 -71.333 -25.833 -125.333 -77.5 -162s-117.167 -55 -196.5 -55l-27 1l-9 -125h-44l9 130c-68 10.667 -123 37.5 -165 80.5s-63.667 102.167 -65 177.5h136c2 -75.333 36 -123.666 102 -144.999l15 215
c-24.667 6.66699 -46 13.167 -64 19.5s-38 15.666 -60 27.999s-39.833 25.833 -53.5 40.5s-25.167 33.834 -34.5 57.501s-14 50.167 -14 79.5c0 70.667 23.833 123.834 71.5 159.501s109.167 54.167 184.5 55.5l7 97h44l-7 -99c68 -5.33594 124 -25.6689 168 -60.999
c44 -35.333 66.667 -87.666 68 -156.999h-135c-2.66699 61.333 -39 97.333 -109 108z" />
    <glyph glyph-name="percent" unicode="%" horiz-adv-x="928" 
d="M813 163c0 30.667 -9.33203 55.667 -27.999 75s-42.667 29 -72 29c-29.334 0 -53.167 -9.66699 -71.5 -29s-27.5 -44.333 -27.5 -75c0 -31.333 9.16699 -56.833 27.5 -76.5s42.166 -29.5 71.499 -29.5s53.333 9.83301 72 29.5s28 45.167 28 76.5zM523.001 162
c0 56 17.833 101.667 53.5 137s80.5 53 134.5 53c56 0 102.167 -17.5 138.5 -52.5s54.5 -80.833 54.5 -137.5c0 -56 -18.167 -101.833 -54.5 -137.5s-82.5 -53.5 -138.5 -53.5c-53.333 0 -98 18 -134 54s-54 81.667 -54 137zM330.001 586c0 30.667 -9.33301 55.667 -28 75
s-42.667 29 -72 29s-53.166 -9.66699 -71.499 -29s-27.5 -44.333 -27.5 -75c0 -31.333 9.16699 -56.833 27.5 -76.5s42.166 -29.5 71.499 -29.5s53.333 9.83301 72 29.5s28 45.167 28 76.5zM257.001 0h-80l473 750h80zM40.001 585c0 56 17.833 101.667 53.5 137
s80.5 53 134.5 53c56 0 102.167 -17.5 138.5 -52.5s54.5 -80.833 54.5 -137.5c0 -56 -18.167 -101.833 -54.5 -137.5s-82.5 -53.5 -138.5 -53.5c-53.333 0 -98 18 -134 54s-54 81.667 -54 137z" />
    <glyph glyph-name="ampersand" unicode="&#x26;" horiz-adv-x="778" 
d="M318 102c53.333 0 94 14.999 122 44.999l-177 178c-56.667 -24.667 -85 -62 -85 -112c0 -35.333 13.667 -62.666 41 -81.999s60.333 -29 99 -29zM315 644.999c-22.667 0 -42.167 -7.16699 -58.5 -21.5s-24.5 -35.5 -24.5 -63.5c0 -26 14.333 -54 43 -84l30 -32
c28.667 10 51.167 25.833 67.5 47.5s24.5 44.5 24.5 68.5c0 23.333 -7.33301 43.333 -22 60s-34.667 25 -60 25zM582 -0.000976562l-65 64.999c-58 -51.333 -128.333 -77 -211 -77c-70 0 -130.167 20.333 -180.5 61s-75.5 93.667 -75.5 159c0 86.667 48 149 144 187l-13 12
c-48 44 -72 98 -72 162c0 56 21.333 100.167 64 132.5s92.667 48.5 150 48.5c60 0 107.5 -17.667 142.5 -53s52.5 -77.666 52.5 -126.999c0 -40 -12.333 -77.833 -37 -113.5s-60.334 -62.5 -107 -80.5l135 -136c12 24 18 62.333 18 115v51h113v-61
c0 -70.667 -14.667 -134 -44 -190l152 -155h-166z" />
    <glyph glyph-name="quotesingle" unicode="'" horiz-adv-x="230" 
d="M50 788h130l-24 -292h-81z" />
    <glyph glyph-name="parenleft" unicode="(" horiz-adv-x="346" 
d="M112 341c0 -99.333 21.001 -190.833 63.001 -274.5s99 -153.167 171 -208.5l-40 -53c-85.333 52 -154.333 125.333 -207 220s-79 200 -79 316c0 114.667 26.167 219.334 78.5 314.001s121.5 168 207.5 220l40 -52c-70.667 -54.667 -127.334 -123.667 -170.001 -207
c-42.667 -83.334 -64 -175.001 -64 -275.001z" />
    <glyph glyph-name="parenright" unicode=")" horiz-adv-x="356" 
d="M234 341c0 100 -21.332 191.668 -63.999 275.001s-99.334 152.333 -170.001 207l40 52c86 -52 155.167 -125.333 207.5 -220s78.5 -199.334 78.5 -314.001c0 -116 -26.333 -221.333 -79 -316s-121.667 -168 -207 -220l-40 53c72 55.333 129 124.833 171 208.5
s63 175.167 63 274.5z" />
    <glyph glyph-name="asterisk" unicode="*" horiz-adv-x="381" 
d="M51 724l96 -32l-2 101h95l-5 -101l98 29l28 -82l-98 -34l63 -80l-77 -56l-56 86l-58 -86l-78 56l62 80l-99 29z" />
    <glyph glyph-name="plus" unicode="+" horiz-adv-x="500" 
d="M460 257h-174v-184h-71v184h-175v69h175v186h71v-186h174v-69z" />
    <glyph glyph-name="comma" unicode="," horiz-adv-x="259" 
d="M234 149l0.00292969 -120.999c0 -35.333 -5.66699 -66.333 -17 -93s-26.833 -47.667 -46.5 -63s-40.334 -27 -62.001 -35s-44.834 -13.333 -69.501 -16l-14 71c38.667 6 68.167 19.167 88.5 39.5s31.166 46.166 32.499 77.499h-65v140h153z" />
    <glyph glyph-name="hyphen" unicode="-" horiz-adv-x="388" 
d="M348 375v-118h-308v118h308z" />
    <glyph glyph-name="period" unicode="." horiz-adv-x="210" 
d="M30 154h150v-154h-150v154z" />
    <glyph glyph-name="slash" unicode="/" horiz-adv-x="448" 
d="M438 830l-331 -922h-97l331 922h97z" />
    <glyph glyph-name="zero" unicode="0" horiz-adv-x="604" 
d="M303 105c42.667 0 74.667 23.5 96 70.5s32 109.833 32 188.5c0 79.333 -10.833 143.833 -32.5 193.5s-54.834 74.5 -99.5 74.5c-42 0 -73.5 -22.5 -94.5 -67.5s-31.5 -108.5 -31.5 -190.5c0 -84.667 11 -150.667 33 -198s54.333 -71 97 -71zM300 -12
c-87.333 0 -152.5 33.5 -195.5 100.5s-64.5 159.833 -64.5 278.5c0 120 21.667 213.833 65 281.5s109 101.5 197 101.5s153.667 -33.833 197 -101.5s65 -160.834 65 -279.501c0 -119.333 -22 -212.666 -66 -279.999s-110 -101 -198 -101z" />
    <glyph glyph-name="one" unicode="1" 
d="M541 124l-0.000976562 -124h-473v124h170v439c-51.333 -31.333 -111.333 -50.333 -180 -57v130c78.667 10.668 145.334 44.335 200.001 101h113v-613h170z" />
    <glyph glyph-name="two" unicode="2" 
d="M575 0l-540.001 0.000976562v124l180 148c76.667 62.667 129 110.167 157 142.5c28 32.334 42 66.167 42 101.5c0 34 -11 60.167 -33 78.5s-51.333 27.5 -88 27.5c-39.333 0 -71 -11.333 -95 -34s-37 -55.334 -39 -98.001h-133c0 82 26.333 145.833 79 191.5
s118 68.5 196 68.5c72 0 132 -19.5 180 -58.5s72 -92.833 72 -161.5c0 -31.333 -5.16699 -61 -15.5 -89s-26.666 -55.5 -48.999 -82.5s-45.333 -51.5 -69 -73.5s-54.167 -47.667 -91.5 -77l-106 -84h353v-124z" />
    <glyph glyph-name="three" unicode="3" 
d="M435 379c91.333 -32.667 137 -89.667 137 -171c0 -70 -25.5 -124.167 -76.5 -162.5s-113.167 -57.5 -186.5 -57.5c-78.667 0 -145.667 22.333 -201 67s-83 107.667 -83 189h138v-11c0 -39.333 13.667 -70 41 -92s61.333 -33 102 -33c36 0 66.167 8.83301 90.5 26.5
s36.5 42.834 36.5 75.5c0 31.333 -13.167 55.333 -39.5 72s-63.833 25 -112.5 25h-56v120h52c44 0 78.5 9.83301 103.5 29.5s37.5 45.834 37.5 78.501c0 30 -10.833 53.167 -32.5 69.5s-50.5 24.5 -86.5 24.5c-38 0 -68.833 -11.833 -92.5 -35.5s-35.5 -58.167 -35.5 -103.5
h-138c0 84 26 148.333 78 193s116.333 67 193 67c72 0 132 -17.333 180 -52s72 -83.334 72 -146.001c0 -44 -11.5 -81 -34.5 -111s-51.833 -50.667 -86.5 -62z" />
    <glyph glyph-name="four" unicode="4" 
d="M354 266v290l-198 -290h198zM487 142v-142h-133v144h-341v107l328 486h146v-471h100v-124h-100z" />
    <glyph glyph-name="five" unicode="5" 
d="M331 496c73.333 0 130.999 -24.333 172.999 -73s63 -106.334 63 -173c0 -70.667 -23.5 -132 -70.5 -184s-112.167 -78 -195.5 -78c-75.333 0 -138.666 22.167 -189.999 66.5s-77 107.5 -77 189.5h131c0 -47.333 12.667 -82.5 38 -105.5s58 -34.5 98 -34.5
c44 0 77.833 13 101.5 39s35.5 58 35.5 96c0 37.333 -11.333 69.333 -34 96s-55 40 -97 40c-44.667 0 -81.667 -14.333 -111 -43h-137l66 405h405v-124h-302l-26 -162c32.667 30 75.667 45 129 45z" />
    <glyph glyph-name="six" unicode="6" 
d="M312 110c35.334 0 66.168 11.5 92.501 34.5s39.5 54.833 39.5 95.5c0 41.333 -13.167 73.333 -39.5 96s-57.833 34 -94.5 34c-36 0 -67.167 -11.5 -93.5 -34.5s-39.5 -54.833 -39.5 -95.5c0 -42 13.167 -74.167 39.5 -96.5s58.166 -33.5 95.499 -33.5zM333.001 497
c65.333 0 122.331 -22.001 170.998 -66.001s73 -105.667 73 -185c0 -76 -25 -138 -75 -186s-112.667 -72 -188 -72c-38.667 0 -74.667 7 -108 21s-64 35.5 -92 64.5s-50.167 69 -66.5 120s-24.5 110.167 -24.5 177.5c0 60.667 7 114.5 21 161.5s31.333 83.833 52 110.5
c20.667 26.6689 45.334 48.3359 74.001 65c28.667 16.6719 55.5 27.8389 80.5 33.5c25 5.66699 50.833 8.5 77.5 8.5c68 0 122 -18.5 162 -55.5s62.333 -89.5 67 -157.5h-133c0.666992 32.667 -9.16602 57.5 -29.499 74.5s-46.5 25.5 -78.5 25.5
c-46 0 -83.5 -18.667 -112.5 -56s-44.833 -94.666 -47.5 -171.999c18 27.333 43 48.833 75 64.5s66 23.5 102 23.5z" />
    <glyph glyph-name="seven" unicode="7" 
d="M558 610l-294 -610h-137l292 608h-397v132h536v-130z" />
    <glyph glyph-name="eight" unicode="8" 
d="M301 103c38.667 0 68.668 9.5 90.001 28.5s32 44.167 32 75.5c0 32 -11.167 58.667 -33.5 80s-52.5 32 -90.5 32s-67.667 -10.5 -89 -31.5s-32 -47.5 -32 -79.5s10.667 -57.5 32 -76.5s51.666 -28.5 90.999 -28.5zM299.001 632c-37.333 0 -64.832 -8.16699 -82.499 -24.5
s-26.5 -37.5 -26.5 -63.5c0 -28.667 10.167 -52.167 30.5 -70.5s47.166 -27.5 80.499 -27.5s60 9.16699 80 27.5s30 41.5 30 69.5c0 26 -9.33301 47.333 -28 64s-46.667 25 -84 25zM434.002 384c40 -12 72.001 -33.168 96.001 -63.501s36 -69.833 36 -118.5
c0 -64 -24.333 -115.667 -73 -155s-112.334 -59 -191 -59c-78.667 0 -143 19.667 -193 59s-75 91.333 -75 156c0 50 12.667 90.333 38 121s56.666 50.334 93.999 59.001c-30.667 10 -57.167 29.5 -79.5 58.5s-33.5 65.5 -33.5 109.5c0 61.333 23.667 109.833 71 145.5
s105.333 53.5 174 53.5c69.334 0 128.167 -18 176.5 -54s72.5 -84.667 72.5 -146c0 -44 -11.5 -80.5 -34.5 -109.5s-49.167 -47.833 -78.5 -56.5z" />
    <glyph glyph-name="nine" unicode="9" 
d="M298 367c33.333 0 62 11.168 86 33.501s36 52.833 36 91.5c0 42.667 -13.667 76 -41 100s-59.666 36 -96.999 36c-34.667 0 -64.834 -11.833 -90.501 -35.5s-38.5 -55.834 -38.5 -96.501c0 -42.667 14.167 -74.834 42.5 -96.5c28.333 -21.667 62.5 -32.5 102.5 -32.5z
M286 750.001c38.667 0 74.667 -6.99805 108 -20.998s64 -35.5 92 -64.5s50.167 -69 66.5 -120s24.5 -110.167 24.5 -177.5c0 -60.667 -6.66699 -114.5 -20 -161.5c-13.335 -47 -30.168 -83.833 -50.499 -110.5c-20.333 -26.667 -44.333 -48.334 -72 -65.001
s-53.834 -27.834 -78.5 -33.501c-24.667 -5.66699 -50 -8.5 -76 -8.5c-68.667 0 -125 19 -169 57s-69.333 90 -76 156h134c1.33301 -32 14.166 -56.667 38.499 -74s52.5 -26 84.5 -26c44 0 80.833 17.167 110.5 51.5s44.5 84.833 44.5 151.5v22c-40 -54 -101 -81 -183 -81
c-64.667 0 -121 22.167 -169 66.5s-72 104.5 -72 180.5s25 138 75 186s112.667 72 188 72z" />
    <glyph glyph-name="colon" unicode=":" horiz-adv-x="260" 
d="M60 154h150v-154h-150v154zM60 574h150v-154h-150v154z" />
    <glyph glyph-name="semicolon" unicode=";" horiz-adv-x="319" 
d="M269 149l0.00292969 -120.999c0 -35.333 -5.66699 -66.333 -17 -93s-26.833 -47.667 -46.5 -63s-40.334 -27 -62.001 -35s-44.834 -13.333 -69.501 -16l-14 71c38.667 6 68.167 19.167 88.5 39.5s31.166 46.166 32.499 77.499h-65v140h153zM119.003 574.001h150v-154
h-150v154z" />
    <glyph glyph-name="less" unicode="&#x3c;" horiz-adv-x="500" 
d="M51 249v65l364 213l33 -68l-321 -177l321 -177l-33 -68z" />
    <glyph glyph-name="equal" unicode="=" horiz-adv-x="500" 
d="M40 173v79h420v-79h-420zM40 331v79h420v-79h-420z" />
    <glyph glyph-name="greater" unicode="&#x3e;" horiz-adv-x="500" 
d="M47 105l321 177l-321 177l33 68l364 -213v-65l-364 -212z" />
    <glyph glyph-name="question" unicode="?" horiz-adv-x="550" 
d="M176 154h150v-154h-150v154zM187 232v36.001c0 17.333 1 33 3 47s6 26.833 12 38.5s10.833 21.167 14.5 28.5s10.834 15.5 21.501 24.5s17.834 15.167 21.5 18.5c3.66699 3.33301 12.5 9.5 26.5 18.5s22.333 14.5 25 16.5c46 31.334 69 65.334 69 102
c0 28 -8.83301 49 -26.5 63s-41.834 21 -72.501 21c-34.667 0 -62.167 -9.16699 -82.5 -27.5s-31.5 -44.5 -33.5 -78.5h-135c4 52.667 18.833 96.167 44.5 130.5s56 58.166 91 71.499s74.5 20 118.5 20c69.333 0 126 -16.833 170 -50.5s66 -82.167 66 -145.5
c0 -24.667 -3.16699 -46.667 -9.5 -66s-17 -37.333 -32 -54s-27.833 -29.334 -38.5 -38c-10.667 -8.66699 -27.667 -21.334 -51 -38c-28 -20 -47.5 -37.333 -58.5 -52s-16.5 -32.667 -16.5 -54v-32h-127z" />
    <glyph glyph-name="at" unicode="@" horiz-adv-x="873" 
d="M398 141c34 0 61.667 16.667 83 50s32 69.333 32 108c0 28 -6.5 50.333 -19.5 67s-32.5 25 -58.5 25c-34.667 0 -62.334 -15 -83 -45c-20.667 -30 -31 -64.333 -31 -103c0 -30 6.66699 -54.5 20 -73.5s32.333 -28.5 57 -28.5zM480 660
c43.333 0 85.166 -6.16602 125.499 -18.499s77.833 -31 112.5 -56s62.5 -59.667 83.5 -104s31.5 -95.166 31.5 -152.499c0 -76.667 -16.667 -142.834 -50 -198.501s-78.333 -83.5 -135 -83.5c-34 0 -60.167 10.167 -78.5 30.5c-18.3379 20.333 -28.1709 45.166 -29.5 74.499
c-16 -32 -39 -58 -69 -78s-63.667 -30 -101 -30c-50 0 -89.667 17.667 -119 53s-44 80.666 -44 135.999c0 66.667 20.167 125.5 60.5 176.5s93.5 76.5 159.5 76.5c60 0 102 -23.667 126 -71l11 61h115l-63 -276c-3.33301 -14.667 -5 -28.667 -5 -42
c0 -39.333 16.333 -59 49 -59c25.333 0 47.5 11.833 66.5 35.5s32.833 52.167 41.5 85.5s13 68 13 104c0 92 -29.667 163.5 -89 214.5s-132 76.5 -218 76.5c-72.667 0 -138.667 -19 -198 -57s-104.666 -86.5 -135.999 -145.5s-47 -121.167 -47 -186.5
c0 -93.333 31.167 -167.666 93.5 -222.999s136.5 -83 222.5 -83c44.667 0 86.667 8.33301 126 25l13 -43c-46 -20.667 -96.333 -31 -151 -31c-46 0 -90 7.5 -132 22.5s-79.833 36.667 -113.5 65s-60.667 65.5 -81 111.5s-30.5 97.333 -30.5 154
c0 82 20.167 156.667 60.5 224s94 119.5 161 156.5s139.833 55.5 218.5 55.5z" />
    <glyph glyph-name="A" unicode="A" horiz-adv-x="782" 
d="M497 297l-111 296l-109 -296h220zM547 166h-318l-61 -166h-148l289 750h154l299 -750h-153z" />
    <glyph glyph-name="B" unicode="B" horiz-adv-x="670" 
d="M213 131l156 0.000976562c39.333 0 69.833 10.167 91.5 30.5s32.5 44.166 32.5 71.499c0 26.667 -10.167 49.5 -30.5 68.5s-48.5 28.5 -84.5 28.5h-165v-199zM213 449.001h144c32 0 57.167 9 75.5 27s27.5 38.667 27.5 62c0 22.667 -8.66699 42 -26 58s-41.333 24 -72 24
h-149v-171zM635 217.001c0 -58.667 -22.835 -109.501 -68.502 -152.501s-107.167 -64.5 -184.5 -64.5h-307v750h320c64.667 0 115.334 -18.333 152.001 -55s55 -79.667 55 -129c0 -33.333 -9 -64.666 -27 -93.999s-45 -52.333 -81 -69
c46.668 -17.333 81.835 -42.833 105.501 -76.5c23.667 -33.667 35.5 -70.167 35.5 -109.5z" />
    <glyph glyph-name="C" unicode="C" horiz-adv-x="773" 
d="M406 115c49.333 0 92.334 13.333 129.001 40s57 67 61 121h142c-5.33496 -94.667 -39.668 -167.5 -103 -218.5c-63.333 -51 -140 -76.5 -230 -76.5c-57.333 0 -109.5 11 -156.5 33s-85.5 51.5 -115.5 88.5s-53 79 -69 126s-24 96.833 -24 149.5
c0 50.667 7.5 98.834 22.5 144.501c15 45.668 37 86.835 66 123.501c29 36.667 67.5 66 115.5 88s102.333 33 163 33c90 0 164.667 -23.333 224 -70s93.666 -112.334 102.999 -197.001h-142c-4.66699 42 -24.5 75.333 -59.5 100s-77.833 37 -128.5 37
c-72.667 0 -128.167 -24.667 -166.5 -74c-38.333 -49.334 -57.5 -110.001 -57.5 -182.001c0 -74 20 -136.833 60 -188.5s95.333 -77.5 166 -77.5z" />
    <glyph glyph-name="D" unicode="D" horiz-adv-x="745" 
d="M214 131h92.999c80.667 0 143.834 25.833 189.501 77.5s68.5 112.167 68.5 181.5c0 64 -20.5 118.333 -61.5 163s-99.5 67 -175.5 67h-114v-489zM74.999 750l248 0.00195312c61.334 0 116.667 -10 166 -30s89.5 -46.833 120.5 -80.5s54.667 -71.834 71 -114.501
s24.5 -87.667 24.5 -135c0 -48.667 -8.5 -95.834 -25.5 -141.501s-41.5 -87.167 -73.5 -124.5s-74 -67.333 -126 -90s-110.333 -34 -175 -34h-230v750z" />
    <glyph glyph-name="E" unicode="E" horiz-adv-x="629" 
d="M75 0v750h504v-130h-365v-175h347v-131h-347v-183h385v-131h-524z" />
    <glyph glyph-name="F" unicode="F" horiz-adv-x="589" 
d="M214 0h-139v750h504v-130h-365v-175h347v-131h-347v-314z" />
    <glyph glyph-name="G" unicode="G" horiz-adv-x="804" 
d="M734 402l0.000976562 -402h-130v83c-15.333 -27.333 -41.5 -51.166 -78.5 -71.499s-82.833 -30.5 -137.5 -30.5c-104 0 -188 37.833 -252 113.5s-96 169.167 -96 280.5c0 51.333 7.5 100 22.5 146s37 87.667 66 125s67.5 66.833 115.5 88.5s102.333 32.5 163 32.5
c90 0 164.667 -23.333 224 -70s93.666 -112.334 102.999 -197.001h-142c-4.66699 42 -24.667 75.333 -60 100s-78.333 37 -129 37c-72.667 0 -128.167 -24.833 -166.5 -74.5s-57.5 -112.167 -57.5 -187.5c0 -79.333 20.5 -143 61.5 -191s96.833 -72 167.5 -72
c52 0 96.333 13.667 133 41s58 67 64 119h-220v130h349z" />
    <glyph glyph-name="H" unicode="H" horiz-adv-x="768" 
d="M693 0h-139v313h-340v-313h-139v750h139v-307h340v307h139v-750z" />
    <glyph glyph-name="I" unicode="I" horiz-adv-x="299" 
d="M219 0h-139v750h139v-750z" />
    <glyph glyph-name="J" unicode="J" horiz-adv-x="540" 
d="M475 750v-519c0 -82 -21.5 -144.333 -64.5 -187s-98.5 -64 -166.5 -64c-67.333 0 -122.333 20.5 -165 61.5s-64 98.833 -64 173.5v61h139v-65c0 -31.334 7.83301 -55.167 23.5 -71.5s38.167 -24.5 67.5 -24.5c60.667 0 91 34 91 102v533h139z" />
    <glyph glyph-name="K" unicode="K" horiz-adv-x="711" 
d="M293 333l-79 -81v-252h-139v750h139v-316l294 316h187l-300 -310l311 -440h-180z" />
    <glyph glyph-name="L" unicode="L" horiz-adv-x="590" 
d="M570 0h-495v750h139v-619h356v-131z" />
    <glyph glyph-name="M" unicode="M" horiz-adv-x="920" 
d="M845 0h-131v518l-193 -518h-125l-193 518v-518h-128v750h177l208 -552l208 552h177v-750z" />
    <glyph glyph-name="N" unicode="N" horiz-adv-x="769" 
d="M694 0h-148l-334 529v-529h-137v750h161l321 -515v515h137v-750z" />
    <glyph glyph-name="O" unicode="O" horiz-adv-x="831" 
d="M418 634c-72 0 -129.499 -24.499 -172.499 -73.499s-64.5 -111.833 -64.5 -188.5c0 -74 21.333 -135.333 64 -184s99.667 -73 171 -73s128.166 24.667 170.499 74s63.5 112 63.5 188c0 74 -20.833 135.333 -62.5 183.999c-41.667 48.667 -98.167 73 -169.5 73z
M418.001 -18.999c-110.667 0 -201.333 38.167 -272 114.5s-106 169.5 -106 279.5s35 203 105 279s160.333 114 271 114s200.834 -38 270.5 -114c69.667 -76 104.5 -169 104.5 -279s-34.667 -203.167 -104 -279.5s-159 -114.5 -269 -114.5z" />
    <glyph glyph-name="P" unicode="P" horiz-adv-x="656" 
d="M213 417h158c38 0 66.667 9.5 86 28.5s29 43.5 29 73.5c0 29.333 -9.33301 53.5 -28 72.5s-46 28.5 -82 28.5h-163v-203zM75 750h305c78 0 138.5 -21.667 181.5 -65s64.5 -96.333 64.5 -159c0 -66 -22.833 -122.333 -68.5 -169s-109.167 -70 -190.5 -70h-154v-287h-138
v750z" />
    <glyph glyph-name="Q" unicode="Q" horiz-adv-x="832" 
d="M416 115c19.334 0 36.668 1.33398 52 4.00098l-145 214h152l104 -155c48 48 72 114.333 72 199c0 74 -21 135.333 -63 183.999c-42 48.667 -98.667 73 -170 73c-72 0 -129.667 -24.667 -173 -74s-65 -112 -65 -188c0 -74 21.5 -135.333 64.5 -184s100.167 -73 171.5 -73z
M642.001 -132.999l-92.999 138c-44 -16 -87.667 -24 -131 -24c-110.667 0 -201.334 38.167 -272.001 114.5s-106 169.5 -106 279.5s35 203 105 279s160.333 114 271 114s200.834 -38 270.5 -114c69.667 -76 104.5 -169 104.5 -279c0 -62 -11.667 -119.667 -35 -173
s-56.333 -98 -99 -134l135 -201h-150z" />
    <glyph glyph-name="R" unicode="R" horiz-adv-x="687" 
d="M213 427l150 -0.000976562c36.667 0 65.167 9.83301 85.5 29.5s30.5 42.834 30.5 69.501s-8.5 49 -25.5 67s-43.5 27 -79.5 27h-161v-193zM522 -0.000976562l-197 298.998h-112v-299h-138v750h293c80 0 141.667 -21.5 185 -64.5s65 -94.167 65 -153.5
c0 -45.333 -12.667 -87.166 -38 -125.499s-61 -65.166 -107 -80.499l214 -326h-165z" />
    <glyph glyph-name="S" unicode="S" horiz-adv-x="654" 
d="M619 210c0 -72 -26.3359 -128.166 -79.0029 -168.499s-118 -60.5 -196 -60.5c-39.333 0 -77.166 5.66699 -113.499 17s-69.166 27.833 -98.499 49.5s-52.833 50.334 -70.5 86.001s-26.5 76.167 -26.5 121.5h140c2 -52 19.167 -90.833 51.5 -116.5
c32.334 -25.667 71.167 -38.5 116.5 -38.5c38 0 70.333 9.16699 97 27.5s40 42.833 40 73.5c0 17.333 -4.16699 32.166 -12.5 44.499s-21 22.333 -38 30s-33.667 14 -50 19s-36.833 10.167 -61.5 15.5c-4.66699 0.666992 -8 1.33398 -10 2.00098
c-35.333 8.66699 -65 17.167 -89 25.5s-49.5 20.833 -76.5 37.5s-47.5 38.5 -61.5 65.5s-21 59.167 -21 96.5c0 74 26 131 78 171s116.333 60 193 60s141.834 -19.833 195.501 -59.5s80.5 -95.834 80.5 -168.501h-141c-2 36 -16.167 62.667 -42.5 80s-58.833 26 -97.5 26
s-69.834 -8.16699 -93.5 -24.5c-23.667 -16.333 -35.5 -40.5 -35.5 -72.5c0 -32.667 12.833 -56.834 38.5 -72.501s64.167 -29.167 115.5 -40.5c77.334 -16.667 132.667 -34.334 166 -53c68 -38 102 -95.667 102 -173z" />
    <glyph glyph-name="T" unicode="T" horiz-adv-x="655" 
d="M638 620h-246v-620h-139v620h-243v130h628v-130z" />
    <glyph glyph-name="U" unicode="U" horiz-adv-x="735" 
d="M670 750v-463c0 -100 -27 -175.833 -81 -227.5s-127.333 -77.5 -220 -77.5s-166.5 25.833 -221.5 77.5s-82.5 127.5 -82.5 227.5v463h139v-456c0 -58 15 -102.333 45 -133s71.333 -46 124 -46c50 0 89.167 13.833 117.5 41.5s42.5 69.167 42.5 124.5v469h137z" />
    <glyph glyph-name="V" unicode="V" horiz-adv-x="664" 
d="M400 0h-132l-258 750h149l173 -557l178 557h144z" />
    <glyph glyph-name="W" unicode="W" horiz-adv-x="1011" 
d="M800 0h-138l-156 537l-157 -537h-138l-196 750h148l123 -524l153 524h138l153 -525l123 525h143z" />
    <glyph glyph-name="X" unicode="X" horiz-adv-x="737" 
d="M449 385l268 -385l-175 -1l-176 263l-176 -262h-170l266 381l-257 369h175l165 -246l164 246h170z" />
    <glyph glyph-name="Y" unicode="Y" horiz-adv-x="700" 
d="M421 285v-285h-142v285l-269 465h159l183 -336l183 336h155z" />
    <glyph glyph-name="Z" unicode="Z" horiz-adv-x="672" 
d="M642 0h-602v131l408 489h-395v130h568v-130l-407 -489h428v-131z" />
    <glyph glyph-name="bracketleft" unicode="[" horiz-adv-x="331" 
d="M72 843h227v-70h-123v-865h123v-70h-227v1005z" />
    <glyph glyph-name="backslash" unicode="\" horiz-adv-x="458" 
d="M112 830l331 -922h-97l-331 922h97z" />
    <glyph glyph-name="bracketright" unicode="]" horiz-adv-x="331" 
d="M32 -162v70h123v865h-123v70h227v-1005h-227z" />
    <glyph glyph-name="asciicircum" unicode="^" horiz-adv-x="505" 
d="M349 455l-97 170l-97 -170h-125l170 295h105l170 -295h-126z" />
    <glyph glyph-name="underscore" unicode="_" 
d="M50 -139v118h500v-118h-500z" />
    <glyph glyph-name="grave" unicode="`" horiz-adv-x="256" 
d="M0 808l104 79l152 -237h-112z" />
    <glyph glyph-name="a" unicode="a" horiz-adv-x="571" 
d="M245 99c36.667 0 68.667 12.332 96 36.999s41 56.667 41 96v29c-10.667 -6 -32.334 -11.333 -65 -16l-60 -8c-59.333 -8 -89 -32 -89 -72c0 -21.333 7 -37.666 21 -48.999s32.667 -17 56 -17zM299 561.999c66.667 0 118.669 -16 156.002 -48s56 -79.667 56 -143v-371
h-130v80c-38 -61.333 -93.667 -92 -167 -92c-48.667 0 -90.667 14.5 -126 43.5s-53 71.167 -53 126.5c0 96 58.667 151.667 176 167l122 16c17.333 2 30.5 6.33301 39.5 13s13.5 18 13.5 34c0 22 -8.66699 39 -26 51s-40.333 18 -69 18c-34 0 -59.833 -7.83301 -77.5 -23.5
s-27.5 -36.5 -29.5 -62.5h-127c5.33301 63.333 30.166 111 74.499 143s100.166 48 167.499 48z" />
    <glyph glyph-name="b" unicode="b" horiz-adv-x="637" 
d="M334 106c38.667 0 71.333 14.5 98 43.5s40 70.167 40 123.5s-13.333 94.5 -40 123.5s-59.334 43.5 -98 43.5c-38.667 0 -71.667 -14.5 -99 -43.5s-41 -70.167 -41 -123.5s13.667 -94.5 41 -123.5s60.333 -43.5 99 -43.5zM366.999 562
c68.667 0 125.833 -24.833 171.5 -74.5s68.5 -120.5 68.5 -212.5c0 -91.333 -23.167 -162 -69.5 -212s-103.833 -75 -172.5 -75c-37.333 0 -71 7.66699 -101 23s-53 37 -69 65v-76h-130v762h133v-291c32 60.667 88.333 91 169 91z" />
    <glyph glyph-name="c" unicode="c" horiz-adv-x="575" 
d="M413 206h131.997c-6.66699 -69.333 -32.167 -123 -76.5 -161s-101.166 -57 -170.499 -57c-86 0 -152.167 27.833 -198.5 83.5s-69.5 123.5 -69.5 203.5s23 147.833 69 203.5s112 83.5 198 83.5c71.333 0 129.833 -19.833 175.5 -59.5s68.5 -92.834 68.5 -159.5h-129
c-1.33301 29.333 -11.666 52.833 -30.999 70.5s-46 26.5 -80 26.5c-45.333 0 -79.5 -15.667 -102.5 -47s-34.5 -70.333 -34.5 -117c0 -47.333 11.5 -86.5 34.5 -117.5s56.833 -46.5 101.5 -46.5c33.333 0 59.833 8.66699 79.5 26s30.834 40 33.501 68z" />
    <glyph glyph-name="d" unicode="d" horiz-adv-x="637" 
d="M303 110c38.667 0 71.667 14.5 99 43.5s41 70.167 41 123.5s-13.667 94.5 -41 123.5s-60.333 43.5 -99 43.5s-71.334 -14.5 -98.001 -43.5s-40 -70.167 -40 -123.5s13.333 -94.5 40 -123.5s59.334 -43.5 98.001 -43.5zM572 0h-130.001v85
c-14.667 -30.667 -36.834 -54.5 -66.5 -71.5c-29.667 -17 -64.167 -25.5 -103.5 -25.5c-68.667 0 -126.167 25 -172.5 75s-69.5 120.667 -69.5 212c0 92 22.833 162.833 68.5 212.5s102.834 74.5 171.501 74.5c36.667 0 70 -7.16699 100 -21.5s53 -34.833 69 -61.5v283h133
v-762z" />
    <glyph glyph-name="e" unicode="e" horiz-adv-x="573" 
d="M295 447c-33.333 0 -62.5 -9.49902 -87.5 -28.499s-40.167 -47.5 -45.5 -85.5h251c-0.666992 35.333 -11.834 63.166 -33.5 83.499c-21.667 20.333 -49.834 30.5 -84.5 30.5zM543 236.001l-384 -0.00195312c1.33301 -42.667 15.333 -75.5 42 -98.5s60 -34.5 100 -34.5
c29.333 0 55 6.66699 77 20s36.333 33.333 43 60h121c-10 -61.333 -38.5 -109.166 -85.5 -143.499s-100.833 -51.5 -161.5 -51.5c-72.667 0 -135 24.667 -187 74s-78 120 -78 212c0 90.667 25.667 161.334 77 212.001s114.333 76 189 76c71.333 0 130.333 -23.5 177 -70.5
s70 -114.167 70 -201.5v-54z" />
    <glyph glyph-name="f" unicode="f" horiz-adv-x="341" 
d="M341 644l-60 0.000976562c-22 0 -36.833 -4.66699 -44.5 -14s-11.5 -23.333 -11.5 -42v-36h102v-120h-102v-432h-133v432h-82v120h82v30c0 69.333 14 116.666 42 141.999s70.333 38 127 38h80v-118z" />
    <glyph glyph-name="g" unicode="g" horiz-adv-x="622" 
d="M299 137c38 0 69.167 13.167 93.5 39.5s36.5 64.5 36.5 114.5s-12.167 88.167 -36.5 114.5s-55.5 39.5 -93.5 39.5c-39.333 0 -72.166 -13.167 -98.499 -39.5s-39.5 -64.5 -39.5 -114.5s13.167 -88.167 39.5 -114.5s59.166 -39.5 98.499 -39.5zM562 552
l-0.000976562 -514.999c0 -84.667 -24.167 -148.334 -72.5 -191.001s-111.833 -64 -190.5 -64c-72 0 -132 17.5 -180 52.5s-75.333 86.167 -82 153.5h129c10.667 -62.667 55.334 -94 134.001 -94c89.333 0 134 43 134 129v92c-28.667 -64.667 -83 -97 -163 -97
c-67.333 0 -124.333 23.333 -171 70s-70 114 -70 202s23.333 155.333 70 202s103.667 70 171 70c77.334 0 131.667 -29 163 -87v77h128z" />
    <glyph glyph-name="h" unicode="h" horiz-adv-x="602" 
d="M362 562c60 0 104.998 -17.668 134.998 -53.001s45 -86.333 45 -153v-356h-133v344c0 30.667 -8.16699 54.834 -24.5 72.501s-39.166 26.5 -68.499 26.5c-36 0 -64.667 -13 -86 -39s-32 -61.333 -32 -106v-298h-133v750h133v-276c36.667 58.667 91.334 88 164.001 88z
" />
    <glyph glyph-name="i" unicode="i" horiz-adv-x="261" 
d="M64 552h133v-552h-133v552zM60 625v151h141v-151h-141z" />
    <glyph glyph-name="j" unicode="j" horiz-adv-x="283" 
d="M224 552v-578.001c0 -69.333 -14 -116.666 -42 -141.999s-70.333 -38 -127 -38h-65v118h45c22 0 36.833 4.66699 44.5 14s11.5 23.333 11.5 42v584h133zM228 624.999h-141v151h141v-151z" />
    <glyph glyph-name="k" unicode="k" horiz-adv-x="587" 
d="M261 215l-63 -68v-147h-133v762h133v-433l197 223h173l-216 -237l225 -315h-164z" />
    <glyph glyph-name="l" unicode="l" horiz-adv-x="263" 
d="M198 0h-133v762h133v-762z" />
    <glyph glyph-name="m" unicode="m" horiz-adv-x="892" 
d="M643 562c57.333 0 103.167 -17 137.5 -51s51.5 -80.333 51.5 -139v-372h-133v346c0 64 -27.667 96 -83 96c-31.333 0 -56 -10.833 -74 -32.5s-27 -54.834 -27 -99.5v-310h-133v346c0 64 -28 96 -84 96c-30.667 0 -55 -10.833 -73 -32.5s-27 -54.5 -27 -98.5v-311h-133
v552h131v-81c10 25.334 26.5 46.834 49.5 64.5c23 17.667 53.167 26.5 90.5 26.5c34 0 64 -8 90 -24s45.667 -38.333 59 -67c32.667 60.667 85.334 91 158 91z" />
    <glyph glyph-name="n" unicode="n" horiz-adv-x="602" 
d="M362 562c60 0 104.999 -17.668 134.999 -53.001s45 -86.333 45 -153v-356h-133v344c0 30.667 -8.16699 54.834 -24.5 72.501s-39.166 26.5 -68.499 26.5c-36 0 -64.667 -13 -86 -39s-32 -61.333 -32 -106v-298h-133v552h132v-80c36.667 60 91.667 90 165 90z" />
    <glyph glyph-name="o" unicode="o" horiz-adv-x="599" 
d="M298 438c-40 0 -71.999 -14.5 -95.999 -43.5s-36 -70.167 -36 -123.5c0 -50.667 12.667 -89.834 38 -117.501s57.666 -41.5 96.999 -41.5c40 0 72 14.5 96 43.5s36 70.167 36 123.5c0 50.667 -12.833 89.834 -38.5 117.501s-57.834 41.5 -96.5 41.5zM299.001 562
c79.334 0 144.166 -25.833 194.499 -77.5s75.5 -121.5 75.5 -209.5s-25.167 -157.833 -75.5 -209.5s-115.166 -77.5 -194.499 -77.5c-78.667 0 -143.167 25.833 -193.5 77.5s-75.5 121.5 -75.5 209.5s25.167 157.833 75.5 209.5s114.833 77.5 193.5 77.5z" />
    <glyph glyph-name="p" unicode="p" horiz-adv-x="637" 
d="M334 114c38.667 0 71.333 14 98 42s40 68.333 40 121s-13.333 93 -40 121s-59.334 42 -98 42c-39.333 0 -72.5 -13.833 -99.5 -41.5s-40.5 -68.167 -40.5 -121.5s13.5 -93.833 40.5 -121.5s60.167 -41.5 99.5 -41.5zM366.999 562c68.667 0 125.832 -24.333 171.499 -73
s68.5 -118.334 68.5 -209c0 -92 -23.167 -162.333 -69.5 -211s-104.166 -73 -173.499 -73c-76 0 -131.333 28.333 -166 85v-287h-133v758h130v-88c14.667 31.333 37.167 55.5 67.5 72.5c30.334 17 65.167 25.5 104.5 25.5z" />
    <glyph glyph-name="q" unicode="q" horiz-adv-x="632" 
d="M303 118c39.333 0 72.5 13.833 99.5 41.5s40.5 68.167 40.5 121.5s-13.5 93.833 -40.5 121.5s-60.167 41.5 -99.5 41.5c-38.667 0 -71.334 -14 -98.001 -42s-40 -68.333 -40 -121s13.333 -93 40 -121s59.334 -42 98.001 -42zM572 -206h-133.002v293
c-32.667 -60.667 -88 -91 -166 -91c-69.333 0 -127.166 24.333 -173.499 73s-69.5 118.667 -69.5 210s22.833 161.333 68.5 210s102.834 73 171.501 73c37.333 0 71.333 -7.66699 102 -23c30.667 -15.334 54 -37.001 70 -65v78h130v-758z" />
    <glyph glyph-name="r" unicode="r" horiz-adv-x="397" 
d="M377 429h-35c-96 0 -144 -53 -144 -159v-270h-133v552h132v-79c26.667 56.667 74.667 85 144 85h36v-129z" />
    <glyph glyph-name="s" unicode="s" horiz-adv-x="531" 
d="M287 329c71.333 -10.667 119.999 -22.665 145.999 -35.998c48.667 -24.667 73 -65.334 73 -122.001c0 -58.667 -22.333 -103.834 -67 -135.501s-100.334 -47.5 -167 -47.5c-30.667 0 -59.667 3.5 -87 10.5s-53 17.833 -77 32.5s-43.5 35 -58.5 61
s-23.167 56.333 -24.5 91h134c5.33301 -56.667 45.333 -85 120 -85c64 0 96 20 96 60c0 16 -6.83301 27.5 -20.5 34.5s-40.834 13.833 -81.5 20.5c-19.334 3.33301 -31.667 5.5 -37 6.5s-17 3.33301 -35 7s-30.167 6.83398 -36.5 9.5
c-6.33301 2.66699 -16.833 6.66699 -31.5 12s-25 10.666 -31 15.999c-6 5.33398 -13.833 12.167 -23.5 20.499c-9.66699 8.33301 -16.5 17.333 -20.5 27s-7.66699 20.834 -11 33.501s-5 26.334 -5 41.001c0 58.667 20.833 102.667 62.5 132s93.834 44 156.501 44
c66.667 0 121 -16.167 163 -48.5s65 -78.5 69 -138.5h-130c-4.66699 50.667 -38 76 -100 76c-30.667 0 -53.667 -5.83301 -69 -17.5s-23 -26.167 -23 -43.5c0 -19.333 9 -32.833 27 -40.5s47.667 -14.5 89 -20.5z" />
    <glyph glyph-name="t" unicode="t" horiz-adv-x="382" 
d="M362 0l-87 0.000976562c-56.667 0 -99 12.667 -127 38s-42 72.666 -42 141.999v252h-101v120h101v124l133 37v-161h110v-120h-110v-258c0 -18.667 3.83301 -32.667 11.5 -42s22.5 -14 44.5 -14h67v-118z" />
    <glyph glyph-name="u" unicode="u" horiz-adv-x="613" 
d="M548 0h-130v78c-35.333 -56 -88 -84 -158 -84c-60 0 -108.333 18.667 -145 56s-55 90.333 -55 159v343h133v-333c0 -71.333 31.333 -107 94 -107c38.667 0 69.667 14.667 93 44s35 72.333 35 129v267h133v-552z" />
    <glyph glyph-name="v" unicode="v" horiz-adv-x="550" 
d="M345 0h-141l-204 552h141l135 -394l136 394h138z" />
    <glyph glyph-name="w" unicode="w" horiz-adv-x="868" 
d="M674 0h-128l-112 353l-112 -353h-128l-184 552h142l109 -368l111 368h129l112 -368l108 368h137z" />
    <glyph glyph-name="x" unicode="x" horiz-adv-x="615" 
d="M307 176l-127 -176h-167l206 273l-209 279h171l124 -173l123 173h165l-201 -269l213 -283h-172z" />
    <glyph glyph-name="y" unicode="y" horiz-adv-x="538" 
d="M538 552l-240 -635c-23.333 -62 -75.333 -93 -156 -93h-83v118h58c40.667 0 67 18 79 54l9 26l-205 530h141l130 -360l130 360h137z" />
    <glyph glyph-name="z" unicode="z" horiz-adv-x="557" 
d="M511 0h-476v116l306 320h-291v116h462v-116l-307 -320h306v-116z" />
    <glyph glyph-name="braceleft" unicode="{" horiz-adv-x="355" 
d="M232 709l-0.000976562 -245.998c0 -41.333 -8.66699 -71.5 -26 -90.5s-44.333 -33.167 -81 -42.5c36.667 -9.33301 63.667 -23.5 81 -42.5s26 -49.167 26 -90.5v-246c0 -36.667 5.66699 -60.667 17 -72c11.334 -11.333 31.667 -17 61 -17h35v-68h-78
c-18 0 -33.5 1.33301 -46.5 4c-13 2.66602 -27.667 8.33301 -44 17s-28.833 23.667 -37.5 45s-13 48.666 -13 81.999v239c0 38 -9.66699 64.5 -29 79.5s-47.666 25.167 -84.999 30.5v78c37.333 5.33301 65.666 15.5 84.999 30.5s29 41.5 29 79.5v239
c0 33.333 4.33301 60.666 13 81.999s21.167 36.333 37.5 45c16.333 8.66992 31 14.3369 44 17c13 2.66699 28.5 4 46.5 4h78v-68h-35c-29.333 0 -49.666 -5.66699 -60.999 -17s-17 -35.333 -17 -72z" />
    <glyph glyph-name="bar" unicode="|" horiz-adv-x="209" 
d="M149 -120h-89v990h89v-990z" />
    <glyph glyph-name="braceright" unicode="}" horiz-adv-x="355" 
d="M123 463v246.001c0 36.667 -5.66699 60.667 -17 72s-31.666 17 -60.999 17h-35v68h78c18 0 33.5 -1.33301 46.5 -4s27.667 -8.33398 44 -17.001s28.833 -23.667 37.5 -45c8.66699 -21.335 13 -48.668 13 -82v-239c0 -38 9.66699 -64.5 29 -79.5
c19.334 -15 47.667 -25.167 85 -30.5v-78c-37.333 -5.33301 -65.666 -15.5 -84.999 -30.5s-29 -41.5 -29 -79.5v-239c0 -33.333 -4.33301 -60.666 -13 -81.999s-21.167 -36.333 -37.5 -45s-31 -14.334 -44 -17.001s-28.5 -4 -46.5 -4h-78v68h35
c29.333 0 49.666 5.66699 60.999 17s17 35.333 17 72v246c0 41.333 8.66699 71.5 26 90.5s44.333 33.167 81 42.5c-36.667 9.33301 -63.667 23.5 -81 42.5c-17.334 19 -26.001 49.167 -26.001 90.5z" />
    <glyph glyph-name="asciitilde" unicode="~" horiz-adv-x="542" 
d="M389 456l113 0.000976562c0 -62 -12.167 -110.167 -36.5 -144.5s-58.166 -51.5 -101.499 -51.5c-24.667 0 -48.5 5.66699 -71.5 17s-43.167 22.833 -60.5 34.5s-31 17.5 -41 17.5c-11.333 0 -21 -5.83301 -29 -17.5c-8 -11.668 -12 -25.835 -12 -42.501h-110
c0 54 13.167 97.833 39.5 131.5s59.833 50.5 100.5 50.5c29.333 0 63.166 -11.333 101.499 -34c38.334 -22.667 63.167 -34 74.5 -34c22 0 33 24.333 33 73z" />
    <glyph glyph-name="exclamdown" unicode="&#xa1;" horiz-adv-x="280" 
d="M74 -233v268l24 260h94l24 -260v-268h-142zM220 517v-154h-150v154h150z" />
    <glyph glyph-name="cent" unicode="&#xa2;" horiz-adv-x="640" 
d="M186 277c0 -94.667 34.999 -152.333 104.999 -173l24 348c-37.333 -4 -68.166 -20.333 -92.499 -49s-36.5 -70.667 -36.5 -126zM451.999 206.001h121.998c-6.66699 -69.333 -31.334 -123 -74.001 -161s-97 -57 -163 -57h-10l-8 -124h-44l9 128
c-64 11.333 -116.333 41.166 -157 89.499s-61 113.5 -61 195.5c0 90 24.333 159.333 73 208s109.667 74.334 183 77l5 71h44l-5 -73c60.667 -6 109.834 -28.333 147.501 -67s56.5 -88.667 56.5 -150h-122c-1.33301 28.667 -9.66602 52.667 -24.999 72
s-36.666 31.333 -63.999 36l-24 -353h2c34.667 0 61.5 9.83301 80.5 29.5s30.5 45.834 34.5 78.501z" />
    <glyph glyph-name="sterling" unicode="&#xa3;" horiz-adv-x="640" 
d="M137 71c34.667 0 57 22 67 66c-22 19.333 -44.333 29 -67 29c-15.333 0 -27.166 -4.83301 -35.499 -14.5s-12.5 -21.167 -12.5 -34.5c0 -12.667 4.16699 -23.5 12.5 -32.5s20.166 -13.5 35.499 -13.5zM501 211l125 0.000976562c0 -74.667 -15.833 -130.5 -47.5 -167.5
s-73.834 -55.5 -126.501 -55.5c-30 0 -57.167 5.83301 -81.5 17.5s-52.5 30.5 -84.5 56.5c-38.667 -49.333 -84.334 -74 -137.001 -74c-43.333 0 -76.666 12.667 -99.999 38s-35 55.333 -35 90c0 34 11 63.667 33 89s52 38 90 38c26.667 0 55.667 -10.667 87 -32
c2.66699 16.667 4 47 4 91v98h-91v50h91v120c0 57.333 17.167 101.666 51.5 132.999c34.334 31.333 78.167 47 131.5 47c50.667 0 91.834 -14.667 123.501 -44c31.667 -29.335 47.5 -71.668 47.5 -127h-114c0 36 -18 54 -54 54c-16.667 0 -30.667 -5.33301 -42 -16
s-17 -25.667 -17 -45v-122h148v-50h-148v-79c0 -80 -7.33301 -138.667 -22 -176c39.334 -25.333 72.667 -38 100 -38c23.333 0 40.5 7.83301 51.5 23.5s16.5 42.5 16.5 80.5z" />
    <glyph glyph-name="Euro" unicode="&#x20ac;" horiz-adv-x="640" 
d="M511 253h125.999c0 -82.667 -25.833 -147.5 -77.5 -194.5s-117.167 -70.5 -196.5 -70.5c-78 0 -143 24.167 -195 72.5s-84.667 120.166 -98 215.499h-66v45h62c-1.33301 21.333 -2 38.333 -2 51s0.666992 30.334 2 53.001h-62v45h67c13.333 94 46.333 164.167 99 210.5
s119 69.5 199 69.5c78.667 0 142.334 -21.667 191.001 -65s73 -106.333 73 -189h-126c0 98 -47.333 147 -142 147c-95.333 0 -152 -57.667 -170 -173h242v-45h-246c-1.33301 -21.333 -2 -38 -2 -50c0 -13.333 0.666992 -31.333 2 -54h246v-45h-241
c18.667 -119.333 77 -179 175 -179c93.333 0 140 52 140 156z" />
    <glyph glyph-name="yen" unicode="&#xa5;" horiz-adv-x="640" 
d="M381 351h154v-45h-154v-95h154v-45h-154v-166h-122v166h-153v45h153v95h-153v45h153v19l-230 380h147l148 -264l148 264h139l-230 -380v-19z" />
    <glyph glyph-name="Scaron" unicode="&#x160;" horiz-adv-x="654" 
d="M619 210c0 -72 -26.3359 -128.166 -79.0029 -168.499s-118 -60.5 -196 -60.5c-39.333 0 -77.166 5.66699 -113.499 17s-69.166 27.833 -98.499 49.5s-52.833 50.334 -70.5 86.001s-26.5 76.167 -26.5 121.5h140c2 -52 19.167 -90.833 51.5 -116.5
c32.334 -25.667 71.167 -38.5 116.5 -38.5c38 0 70.333 9.16699 97 27.5s40 42.833 40 73.5c0 17.333 -4.16699 32.166 -12.5 44.499s-21 22.333 -38 30s-33.667 14 -50 19s-36.833 10.167 -61.5 15.5c-4.66699 0.666992 -8 1.33398 -10 2.00098
c-35.333 8.66699 -65 17.167 -89 25.5s-49.5 20.833 -76.5 37.5s-47.5 38.5 -61.5 65.5s-21 59.167 -21 96.5c0 74 26 131 78 171s116.333 60 193 60s141.834 -19.833 195.501 -59.5s80.5 -95.834 80.5 -168.501h-141c-2 36 -16.167 62.667 -42.5 80s-58.833 26 -97.5 26
s-69.834 -8.16699 -93.5 -24.5c-23.667 -16.333 -35.5 -40.5 -35.5 -72.5c0 -32.667 12.833 -56.834 38.5 -72.501s64.167 -29.167 115.5 -40.5c77.334 -16.667 132.667 -34.334 166 -53c68 -38 102 -95.667 102 -173zM547.997 1029l-155 -196h-73l-155 196h129l62 -78
l63 78h129z" />
    <glyph glyph-name="section" unicode="&#xa7;" horiz-adv-x="533" 
d="M288 313c35.333 0.666992 61 5.66699 77 15c16 9.33398 24 23.667 24 43c0 43.333 -39 65 -117 65h-15c-62 -2 -93 -21.667 -93 -59c0 -42.667 38 -64 114 -64h10zM413 264c51.333 -18.667 77 -56.001 77 -112.001c0 -54 -20.5 -96.833 -61.5 -128.5
s-94.167 -47.5 -159.5 -47.5s-120.833 16.333 -166.5 49s-69.834 81 -72.501 145h131c2.66699 -28.667 14 -50.5 34 -65.5s46 -22.5 78 -22.5c26.667 0 48.5 5.16699 65.5 15.5s25.5 25.5 25.5 45.5c0 18.667 -7.83301 32.167 -23.5 40.5s-40.834 15.5 -75.5 21.5
c-67.333 12 -113.666 24.333 -138.999 37c-50.667 24.667 -76 62.334 -76 113.001c0 30 7.83301 54.667 23.5 74s34.834 32.333 57.501 39c-20.667 9.33301 -37.834 24.5 -51.501 45.5s-20.5 47.167 -20.5 78.5c0 54 20.667 95.833 62 125.5s93.333 44.5 156 44.5
c63.334 0 115.167 -15.167 155.5 -45.5s60.833 -73.5 61.5 -129.5h-123c-6 48 -37.333 72 -94 72c-28 0 -50.667 -5.33301 -68 -16s-26 -26.667 -26 -48c0 -14 5.16699 -25.167 15.5 -33.5s22 -14 35 -17s33.833 -6.5 62.5 -10.5c25.333 -4 46 -7.5 62 -10.5
s34.167 -8 54.5 -15s36.333 -15.333 48 -25c11.667 -9.66797 21.667 -22.335 30 -38c8.33301 -15.667 12.5 -34.167 12.5 -55.5c0 -63.333 -30 -105.333 -90 -126z" />
    <glyph glyph-name="scaron" unicode="&#x161;" horiz-adv-x="531" 
d="M287 329c71.333 -10.667 119.999 -22.665 145.999 -35.998c48.667 -24.667 73 -65.334 73 -122.001c0 -58.667 -22.333 -103.834 -67 -135.501s-100.334 -47.5 -167 -47.5c-30.667 0 -59.667 3.5 -87 10.5s-53 17.833 -77 32.5s-43.5 35 -58.5 61
s-23.167 56.333 -24.5 91h134c5.33301 -56.667 45.333 -85 120 -85c64 0 96 20 96 60c0 16 -6.83301 27.5 -20.5 34.5s-40.834 13.833 -81.5 20.5c-19.334 3.33301 -31.667 5.5 -37 6.5s-17 3.33301 -35 7s-30.167 6.83398 -36.5 9.5
c-6.33301 2.66699 -16.833 6.66699 -31.5 12s-25 10.666 -31 15.999c-6 5.33398 -13.833 12.167 -23.5 20.499c-9.66699 8.33301 -16.5 17.333 -20.5 27s-7.66699 20.834 -11 33.501s-5 26.334 -5 41.001c0 58.667 20.833 102.667 62.5 132s93.834 44 156.501 44
c66.667 0 121 -16.167 163 -48.5s65 -78.5 69 -138.5h-130c-4.66699 50.667 -38 76 -100 76c-30.667 0 -53.667 -5.83301 -69 -17.5s-23 -26.167 -23 -43.5c0 -19.333 9 -32.833 27 -40.5s47.667 -14.5 89 -20.5zM291.999 769.002l62 78h129l-155 -196h-73l-155 196h129z
" />
    <glyph glyph-name="copyright" unicode="&#xa9;" horiz-adv-x="849" 
d="M425 228c27.333 0 50.834 8.16895 70.501 24.502s30.167 38.5 31.5 66.5h94c0 -54.667 -18.5 -97.334 -55.5 -128.001s-83.833 -46 -140.5 -46c-63.333 0 -115.5 19.667 -156.5 59s-61.5 98.333 -61.5 177c0 78 21 135.833 63 173.499c42 37.667 94 56.5 156 56.5
c55.333 0 101.166 -15 137.499 -45s54.5 -70.667 54.5 -122h-95c-2.66699 26 -13 46.5 -31 61.5s-40 22.5 -66 22.5c-33.333 0 -61.833 -12 -85.5 -36s-35.5 -61 -35.5 -111c0 -52 11.5 -90.5 34.5 -115.5s51.5 -37.5 85.5 -37.5zM425.001 33.002
c94.667 0 174 32.001 238 96.001s96 146 96 246s-32 182 -96 246s-143.333 96 -238 96s-174.167 -32 -238.5 -96s-96.5 -146 -96.5 -246c0 -100.667 32.167 -182.834 96.5 -246.501s143.833 -95.5 238.5 -95.5zM425.001 762.003c109.333 0 200.667 -36.333 274 -109
s110 -165.334 110 -278.001s-36.667 -205.334 -110 -278.001c-73.334 -72.667 -164.667 -109 -274 -109s-200.833 36.333 -274.5 109s-110.5 165.334 -110.5 278.001s36.833 205.334 110.5 278.001s165.167 109 274.5 109z" />
    <glyph glyph-name="ordfeminine" unicode="&#xaa;" horiz-adv-x="406" 
d="M282 510l-0.000976562 20.999c-8 -4.66699 -23.667 -8.66699 -47 -12l-44 -5c-42.667 -6 -64 -23.667 -64 -53c0 -15.333 5 -27.166 15 -35.499s23.667 -12.5 41 -12.5c26.667 0 49.834 9 69.501 27s29.5 41.333 29.5 70zM216.999 749.999
c49.333 0 88.166 -11.499 116.499 -34.499s42.5 -57.833 42.5 -104.5v-270h-94v54c-28 -41.333 -68.667 -62 -122 -62c-35.333 0 -65.833 10.5 -91.5 31.5s-38.5 51.5 -38.5 91.5c0 70 42.667 110.667 128 122l89 11c25.333 3.33301 38 14.666 38 33.999
c0 16.667 -6 29.5 -18 38.5s-28.667 13.5 -50 13.5c-43.333 0 -68.666 -18 -75.999 -54h-94c4.66699 42.668 22.167 74.835 52.5 96.5c30.333 21.667 69.5 32.5 117.5 32.5z" />
    <glyph glyph-name="guillemotleft" unicode="&#xab;" horiz-adv-x="569" 
d="M539 152l-74 -69l-195 221l195 221l74 -69l-135 -152zM279 152l-74 -69l-195 221l195 221l74 -69l-135 -152z" />
    <glyph glyph-name="logicalnot" unicode="&#xac;" horiz-adv-x="500" 
d="M399 112v140h-359v79h420v-219h-61z" />
    <glyph glyph-name="registered" unicode="&#xae;" horiz-adv-x="539" 
d="M232 536l52.999 0.000976562c13.334 0 23.667 3.66699 31 11s11 16.666 11 27.999c0 12 -3.66699 21.667 -11 29s-17.666 11 -30.999 11h-53v-79zM370.999 575.001c0 -36 -16 -60.333 -48 -73l55 -87h-50l-52 80h-44v-80h-44v242h95c28.667 0 50.5 -8 65.5 -24
s22.5 -35.333 22.5 -58zM269.999 331.001c55.334 0 101.666 18.667 138.999 56s56 85.333 56 144c0 58 -18.667 105.833 -56 143.5s-83.666 56.5 -138.999 56.5s-101.833 -18.833 -139.5 -56.5s-56.5 -85.5 -56.5 -143.5c0 -58.667 18.833 -106.667 56.5 -144
s84.167 -56 139.5 -56zM269.998 762.001c65.333 0 119.833 -21.667 163.5 -65c43.667 -43.335 65.5 -98.668 65.5 -166c0 -67.333 -21.833 -122.666 -65.5 -165.999s-98.167 -65 -163.5 -65s-120 21.667 -164 65c-44 43.334 -66 98.667 -66 166s22 122.666 66 165.999
s98.667 65 164 65z" />
    <glyph glyph-name="macron" unicode="&#xaf;" horiz-adv-x="319" 
d="M0 650v100h319v-100h-319z" />
    <glyph glyph-name="degree" unicode="&#xb0;" horiz-adv-x="445" 
d="M330 632c0 30.667 -9.33301 55.667 -28 75s-42.667 29 -72 29s-53.166 -9.66699 -71.499 -29s-27.5 -44.333 -27.5 -75c0 -31.333 9.16699 -56.833 27.5 -76.5s42.166 -29.5 71.499 -29.5s53.333 9.83301 72 29.5s28 45.167 28 76.5zM40 631
c0 56 17.833 101.667 53.5 137s80.5 53 134.5 53c56 0 102.167 -17.5 138.5 -52.5s54.5 -80.833 54.5 -137.5c0 -56 -18.167 -101.833 -54.5 -137.5s-82.5 -53.5 -138.5 -53.5c-53.333 0 -98 18 -134 54s-54 81.667 -54 137z" />
    <glyph glyph-name="plusminus" unicode="&#xb1;" horiz-adv-x="500" 
d="M40 192h420v-69h-420v69zM460 519v-69h-174v-184h-71v184h-175v69h175v186h71v-186h174z" />
    <glyph glyph-name="Zcaron" unicode="&#x17d;" horiz-adv-x="672" 
d="M642 0h-602v131l408 489h-395v130h568v-130l-407 -489h428v-131zM559 1029l-155 -196h-73l-155 196h129l62 -78l63 78h129z" />
    <glyph glyph-name="paragraph" unicode="&#xb6;" horiz-adv-x="634" 
d="M386 620h-104c-40.667 0 -71.167 -9.16699 -91.5 -27.5s-30.5 -42.833 -30.5 -73.5s10.333 -55.334 31 -74c20.667 -18.667 51.667 -28 93 -28h102v203zM574 -140h-63v890h63v-890zM20 524c0 64.667 21.168 118.499 63.501 161.499s105.5 64.5 189.5 64.5h176v-890h-63
v427h-102c-86.667 0 -152.334 22.833 -197.001 68.5s-67 101.834 -67 168.501z" />
    <glyph glyph-name="periodcentered" unicode="&#xb7;" horiz-adv-x="216" 
d="M50 414h116v-120h-116v120z" />
    <glyph glyph-name="zcaron" unicode="&#x17e;" horiz-adv-x="557" 
d="M511 0h-476v116l306 320h-291v116h462v-116l-307 -320h306v-116zM303 769l62 78h129l-155 -196h-73l-155 196h129z" />
    <glyph glyph-name="ordmasculine" unicode="&#xba;" horiz-adv-x="452" 
d="M225 660c-29.333 0 -53.332 -11.001 -71.999 -33.001s-28 -52 -28 -90c0 -36.667 9.83301 -65.167 29.5 -85.5s43.834 -30.5 72.5 -30.5c30 0 54.167 10.833 72.5 32.5s27.5 51.5 27.5 89.5c0 36.668 -9.83301 65.335 -29.5 86.001c-19.667 20.667 -43.834 31 -72.501 31
zM226.001 749.999c56.667 0 103.5 -19 140.5 -57s55.5 -89 55.5 -153c0 -63.333 -18.5 -114 -55.5 -152s-83.833 -57 -140.5 -57s-103.5 19 -140.5 57s-55.5 88.667 -55.5 152c0 64 18.5 115 55.5 153s83.833 57 140.5 57z" />
    <glyph glyph-name="guillemotright" unicode="&#xbb;" horiz-adv-x="569" 
d="M290 456l74 69l195 -221l-195 -221l-74 69l135 152zM30 456l74 69l195 -221l-195 -221l-74 69l135 152z" />
    <glyph glyph-name="OE" unicode="&#x152;" horiz-adv-x="1159" 
d="M416 115c71.333 0 128.167 24.668 170.5 74.001s63.5 112 63.5 188c0 74 -20.833 135.333 -62.5 183.999c-41.667 48.667 -98.167 73 -169.5 73c-72 0 -129.5 -24.5 -172.5 -73.5s-64.5 -111.833 -64.5 -188.5c0 -74 21.333 -135.333 64 -184s99.667 -73 171 -73z
M1129 0.000976562h-590.001c-39.333 -12.667 -79.666 -19 -120.999 -19c-110.667 0 -201.334 38.167 -272.001 114.5s-106 169.5 -106 279.5s35 203 105 279s160.333 114 271 114c42.667 0 82.334 -6 119.001 -18h574v-130h-395c36.667 -49.334 60.667 -107.667 72 -175h305
v-131h-304c-9.33301 -68 -33 -129 -71 -183h413v-131z" />
    <glyph glyph-name="oe" unicode="&#x153;" horiz-adv-x="986" 
d="M301 112c40 0 72.001 14.5 96.001 43.5s36 70.167 36 123.5c0 50.667 -12.833 89.834 -38.5 117.501s-57.834 41.5 -96.5 41.5c-40 0 -72 -14.5 -96 -43.5s-36 -70.167 -36 -123.5c0 -50.667 12.667 -89.834 38 -117.501s57.666 -41.5 96.999 -41.5zM575.001 333
l251.002 0.000976562c-0.666992 35.333 -11.834 63.166 -33.501 83.499s-49.834 30.5 -84.501 30.5c-33.333 0 -62.5 -9.5 -87.5 -28.5s-40.167 -47.5 -45.5 -85.5zM956.003 236.001l-384 -0.000976562c1.33301 -42.667 15.333 -75.5 42 -98.5s60 -34.5 100 -34.5
c29.333 0 55 6.66699 77 20s36.333 33.333 43 60h121c-10 -61.333 -38.5 -109.166 -85.5 -143.499s-100.833 -51.5 -161.5 -51.5c-86 0 -153.667 34.667 -203 104c-48.667 -69.333 -117.334 -104 -206 -104c-78.667 0 -143.167 25.833 -193.5 77.5s-75.5 121.5 -75.5 209.5
s25.167 157.833 75.5 209.5s114.833 77.5 193.5 77.5c90.667 0 159.667 -34.667 207 -104c47.333 69.333 115 104 203 104c71.333 0 130.333 -23.5 177 -70.5s70 -114.167 70 -201.5v-54z" />
    <glyph glyph-name="Ydieresis" unicode="&#x178;" horiz-adv-x="700" 
d="M421 285v-285h-142v285l-269 465h159l183 -336l183 336h155zM396 952h116v-120h-116v120zM189 952h116v-120h-116v120z" />
    <glyph glyph-name="questiondown" unicode="&#xbf;" horiz-adv-x="513" 
d="M361 285l-0.000976562 -36.002c0 -17.333 -1 -33 -3 -47s-6 -26.833 -12 -38.5s-10.833 -21.167 -14.5 -28.5c-3.66797 -7.33301 -10.835 -15.5 -21.5 -24.5c-10.667 -9 -17.834 -15.167 -21.5 -18.5c-3.66699 -3.33301 -12.5 -9.5 -26.5 -18.5s-22.333 -14.5 -25 -16.5
c-46 -31.333 -69 -65.333 -69 -102c0 -28 8.83301 -49 26.5 -63s41.834 -21 72.501 -21c34.667 0 62.167 9.16699 82.5 27.5s31.5 44.5 33.5 78.5h135c-4 -52.667 -18.833 -96.167 -44.5 -130.5s-56 -58.166 -91 -71.5c-35 -13.333 -74.5 -20 -118.5 -20
c-69.333 0 -126 16.833 -170 50.5s-66 82.167 -66 145.5c0 24.667 3.16699 46.667 9.5 66s17 37.333 32 54s27.833 29.334 38.5 38.001s27.667 21.334 51 38.001c28 20 47.5 37.333 58.5 52s16.5 32.667 16.5 54v32h127zM371.999 362.998h-150v154h150v-154z" />
    <glyph glyph-name="Agrave" unicode="&#xc0;" horiz-adv-x="782" 
d="M497 297l-111 296l-109 -296h220zM547 166h-318l-61 -166h-148l289 750h154l299 -750h-153zM338 832l-144 158l104 79l152 -237h-112z" />
    <glyph glyph-name="Aacute" unicode="&#xc1;" horiz-adv-x="782" 
d="M497 297l-111 296l-109 -296h220zM547 166h-318l-61 -166h-148l289 750h154l299 -750h-153zM449 832h-112l152 237l104 -79z" />
    <glyph glyph-name="Acircumflex" unicode="&#xc2;" horiz-adv-x="782" 
d="M497 297l-111 296l-109 -296h220zM547 166h-318l-61 -166h-148l289 750h154l299 -750h-153zM329 832h-129l155 196h73l155 -196h-129l-63 78z" />
    <glyph glyph-name="Atilde" unicode="&#xc3;" horiz-adv-x="782" 
d="M497 297l-111 296l-109 -296h220zM547 166h-318l-61 -166h-148l289 750h154l299 -750h-153zM324 887c-20.667 0 -31.998 -18.333 -33.998 -55h-78c0 49.333 10.333 88.333 31 117s46.667 43 78 43c23.334 0 48.667 -10.333 76 -31s45 -31 53 -31
c19.335 0 30.668 19.333 33.999 58h78c-0.666992 -51.335 -11.334 -91.168 -32.001 -119.5c-20.667 -28.333 -46.334 -42.5 -77 -42.5c-17.333 0 -34.5 5 -51.5 15s-32 20.167 -45 30.5s-23.833 15.5 -32.5 15.5z" />
    <glyph glyph-name="Adieresis" unicode="&#xc4;" horiz-adv-x="782" 
d="M497 297l-111 296l-109 -296h220zM547 166h-318l-61 -166h-148l289 750h154l299 -750h-153zM553 832h-116v120h116v-120zM346 832h-116v120h116v-120z" />
    <glyph glyph-name="Aring" unicode="&#xc5;" horiz-adv-x="782" 
d="M497 297l-111 296l-109 -296h220zM547 166h-318l-61 -166h-148l289 750h154l299 -750h-153zM391 1001c-16 0 -28.5 -4.83301 -37.5 -14.5s-13.5 -22.167 -13.5 -37.5c0 -15.334 4.66699 -28.167 14 -38.499c9.33398 -10.333 21.667 -15.5 37 -15.5
s27.833 5.16699 37.5 15.5s14.5 23.166 14.5 38.499s-4.66699 27.833 -14 37.5s-22 14.5 -38 14.5zM390 827c-34.667 0 -63.335 11.5 -86.001 34.5c-22.667 23 -34 52.167 -34 87.5c0 36 11.333 65.333 34 88s51.334 34 86.001 34c36 0 65.5 -11.333 88.5 -34
s34.5 -52 34.5 -88c0 -35.333 -11.5 -64.5 -34.5 -87.5s-52.5 -34.5 -88.5 -34.5z" />
    <glyph glyph-name="AE" unicode="&#xc6;" horiz-adv-x="1096" 
d="M542 311v309h-54l-155 -309h209zM1066 131v-131h-524v181h-274l-91 -181h-157l390 750h636v-130h-365v-175h347v-131h-347v-183h385z" />
    <glyph glyph-name="Ccedilla" unicode="&#xc7;" horiz-adv-x="773" 
d="M596 276l142.001 0.000976562c-4.66699 -90 -36.167 -160.5 -94.5 -211.5c-58.334 -51 -130.167 -78.5 -215.5 -82.5v-26c32.667 -2 58.834 -10.333 78.501 -25s29.5 -34.334 29.5 -59.001c0 -26 -10.333 -47.5 -31 -64.5s-48.667 -25.5 -84 -25.5
c-44 0 -81.333 13.333 -112 40l34 52c25.333 -20.667 49.666 -31 72.999 -31c15.335 0 27.168 3 35.5 9c8.33301 6 12.5 13.667 12.5 23c0 12.667 -8 23.334 -24 32.001s-40 13 -72 13l9 62c-70.667 4.66699 -132 26.167 -184 64.5s-90.5 86.166 -115.5 143.499
s-37.5 120 -37.5 188c0 50.667 7.5 98.834 22.5 144.501c15 45.668 37 86.835 66 123.501c29 36.667 67.5 66 115.5 88s102.333 33 163 33c90 0 164.667 -23.333 224 -70s93.666 -112.334 102.999 -197.001h-142c-4.66699 42 -24.5 75.333 -59.5 100s-77.833 37 -128.5 37
c-72.667 0 -128.167 -24.667 -166.5 -74c-38.333 -49.334 -57.5 -110.001 -57.5 -182.001c0 -74 20 -136.833 60 -188.5s95.333 -77.5 166 -77.5c49.333 0 92.333 13.333 129 40s57 67 61 121z" />
    <glyph glyph-name="Egrave" unicode="&#xc8;" horiz-adv-x="629" 
d="M75 0v750h504v-130h-365v-175h347v-131h-347v-183h385v-131h-524zM164 990l104 79l152 -237h-112z" />
    <glyph glyph-name="Eacute" unicode="&#xc9;" horiz-adv-x="629" 
d="M75 0v750h504v-130h-365v-175h347v-131h-347v-183h385v-131h-524zM259 832l152 237l104 -79l-144 -158h-112z" />
    <glyph glyph-name="Ecircumflex" unicode="&#xca;" horiz-adv-x="629" 
d="M75 0v750h504v-130h-365v-175h347v-131h-347v-183h385v-131h-524zM332 910l-62 -78h-129l155 196h73l155 -196h-129z" />
    <glyph glyph-name="Edieresis" unicode="&#xcb;" horiz-adv-x="629" 
d="M75 0v750h504v-130h-365v-175h347v-131h-347v-183h385v-131h-524zM389 952h116v-120h-116v120zM182 952h116v-120h-116v120z" />
    <glyph glyph-name="Igrave" unicode="&#xcc;" horiz-adv-x="300" 
d="M219 0h-139v750h139v-750zM-58 990l104 79l152 -237h-112z" />
    <glyph glyph-name="Iacute" unicode="&#xcd;" horiz-adv-x="300" 
d="M219 0h-139v750h139v-750zM81 832l152 237l104 -79l-144 -158h-112z" />
    <glyph glyph-name="Icircumflex" unicode="&#xce;" horiz-adv-x="300" 
d="M237 0h-139v750h139v-750zM167 910l-62 -78h-129l155 196h73l155 -196h-129z" />
    <glyph glyph-name="Idieresis" unicode="&#xcf;" horiz-adv-x="483" 
d="M311 0h-139v750h139v-750zM287 952h116v-120h-116v120zM80 952h116v-120h-116v120z" />
    <glyph glyph-name="Eth" unicode="&#xd0;" horiz-adv-x="745" 
d="M214 131h92.999c80.667 0 143.834 25.833 189.501 77.5s68.5 112.167 68.5 181.5c0 64 -20.5 118.333 -61.5 163s-99.5 67 -175.5 67h-114v-210h155v-57h-155v-222zM74.999 750l248 0.00195312c61.334 0 116.667 -10 166 -30s89.5 -46.833 120.5 -80.5
s54.667 -71.834 71 -114.501s24.5 -87.667 24.5 -135c0 -48.667 -8.5 -95.834 -25.5 -141.501s-41.5 -87.167 -73.5 -124.5s-74 -67.333 -126 -90s-110.333 -34 -175 -34h-230v353h-85v57h85v340z" />
    <glyph glyph-name="Ntilde" unicode="&#xd1;" horiz-adv-x="769" 
d="M694 0h-148l-334 529v-529h-137v750h161l321 -515v515h137v-750zM494 988h78.0029c-0.666992 -51.335 -11.334 -91.168 -32.001 -119.5c-20.667 -28.333 -46.334 -42.5 -77.001 -42.5c-17.333 0 -34.5 5 -51.5 15s-32 20.167 -45 30.5s-23.833 15.5 -32.5 15.5
c-20.667 0 -32 -18.333 -34 -55h-78c0 49.333 10.333 88.333 31 117s46.667 43 78 43c23.334 0 48.667 -10.333 76 -31s45 -31 53 -31c19.335 0 30.668 19.333 33.999 58z" />
    <glyph glyph-name="Ograve" unicode="&#xd2;" horiz-adv-x="831" 
d="M418 634c-72 0 -129.499 -24.499 -172.499 -73.499s-64.5 -111.833 -64.5 -188.5c0 -74 21.333 -135.333 64 -184s99.667 -73 171 -73s128.166 24.667 170.499 74s63.5 112 63.5 188c0 74 -20.833 135.333 -62.5 183.999c-41.667 48.667 -98.167 73 -169.5 73z
M418.001 -18.999c-110.667 0 -201.333 38.167 -272 114.5s-106 169.5 -106 279.5s35 203 105 279s160.333 114 271 114s200.834 -38 270.5 -114c69.667 -76 104.5 -169 104.5 -279s-34.667 -203.167 -104 -279.5s-159 -114.5 -269 -114.5zM247.002 990.001l104 79l152 -237
h-112z" />
    <glyph glyph-name="Oacute" unicode="&#xd3;" horiz-adv-x="831" 
d="M418 634c-72 0 -129.499 -24.499 -172.499 -73.499s-64.5 -111.833 -64.5 -188.5c0 -74 21.333 -135.333 64 -184s99.667 -73 171 -73s128.166 24.667 170.499 74s63.5 112 63.5 188c0 74 -20.833 135.333 -62.5 183.999c-41.667 48.667 -98.167 73 -169.5 73z
M418.001 -18.999c-110.667 0 -201.333 38.167 -272 114.5s-106 169.5 -106 279.5s35 203 105 279s160.333 114 271 114s200.834 -38 270.5 -114c69.667 -76 104.5 -169 104.5 -279s-34.667 -203.167 -104 -279.5s-159 -114.5 -269 -114.5zM357.002 832.001l152 237l104 -79
l-144 -158h-112z" />
    <glyph glyph-name="Ocircumflex" unicode="&#xd4;" horiz-adv-x="831" 
d="M418 634c-72 0 -129.499 -24.499 -172.499 -73.499s-64.5 -111.833 -64.5 -188.5c0 -74 21.333 -135.333 64 -184s99.667 -73 171 -73s128.166 24.667 170.499 74s63.5 112 63.5 188c0 74 -20.833 135.333 -62.5 183.999c-41.667 48.667 -98.167 73 -169.5 73z
M418.001 -18.999c-110.667 0 -201.333 38.167 -272 114.5s-106 169.5 -106 279.5s35 203 105 279s160.333 114 271 114s200.834 -38 270.5 -114c69.667 -76 104.5 -169 104.5 -279s-34.667 -203.167 -104 -279.5s-159 -114.5 -269 -114.5zM415.002 910.001l-62 -78h-129
l155 196h73l155 -196h-129z" />
    <glyph glyph-name="Otilde" unicode="&#xd5;" horiz-adv-x="831" 
d="M418 634c-72 0 -129.499 -24.499 -172.499 -73.499s-64.5 -111.833 -64.5 -188.5c0 -74 21.333 -135.333 64 -184s99.667 -73 171 -73s128.166 24.667 170.499 74s63.5 112 63.5 188c0 74 -20.833 135.333 -62.5 183.999c-41.667 48.667 -98.167 73 -169.5 73z
M418.001 -18.999c-110.667 0 -201.333 38.167 -272 114.5s-106 169.5 -106 279.5s35 203 105 279s160.333 114 271 114s200.834 -38 270.5 -114c69.667 -76 104.5 -169 104.5 -279s-34.667 -203.167 -104 -279.5s-159 -114.5 -269 -114.5zM536.002 988.001h78.001
c-0.666992 -51.335 -11.5 -91.168 -32.5 -119.5c-21 -28.333 -46.5 -42.5 -76.5 -42.5c-17.333 0 -34.5 5 -51.5 15s-32 20.167 -45 30.5s-23.833 15.5 -32.5 15.5c-20.667 0 -32 -18.333 -34 -55h-78c0 49.333 10.333 88.333 31 117s46.667 43 78 43
c23.334 0 48.667 -10.333 76 -31s45 -31 53 -31c19.333 0 30.666 19.333 33.999 58z" />
    <glyph glyph-name="Odieresis" unicode="&#xd6;" horiz-adv-x="831" 
d="M418 634c-72 0 -129.499 -24.499 -172.499 -73.499s-64.5 -111.833 -64.5 -188.5c0 -74 21.333 -135.333 64 -184s99.667 -73 171 -73s128.166 24.667 170.499 74s63.5 112 63.5 188c0 74 -20.833 135.333 -62.5 183.999c-41.667 48.667 -98.167 73 -169.5 73z
M418.001 -18.999c-110.667 0 -201.333 38.167 -272 114.5s-106 169.5 -106 279.5s35 203 105 279s160.333 114 271 114s200.834 -38 270.5 -114c69.667 -76 104.5 -169 104.5 -279s-34.667 -203.167 -104 -279.5s-159 -114.5 -269 -114.5zM466.002 952.001h116v-120h-116
v120zM259.002 952.001h116v-120h-116v120z" />
    <glyph glyph-name="multiply" unicode="&#xd7;" horiz-adv-x="500" 
d="M402 98l-152 152l-152 -152l-54 54l152 152l-152 152l55 54l152 -151l151 151l54 -54l-151 -151l152 -153z" />
    <glyph glyph-name="Oslash" unicode="&#xd8;" horiz-adv-x="831" 
d="M416 115c71.333 0 128.167 24.668 170.5 74.001s63.5 112 63.5 188c0 51.333 -10.333 97.166 -31 137.499s-49.667 70.833 -87 91.5l-176 -484c18 -4.66699 38 -7 60 -7zM181.001 372.001c0 -52.667 11.334 -99.667 34.001 -141s54 -72 94 -92l177 486
c-20.668 6 -43.335 9 -68.001 9c-72 0 -129.5 -24.5 -172.5 -73.5s-64.5 -111.833 -64.5 -188.5zM620.002 848.001l-42 -115.001c66 -30.667 118 -78.167 156 -142.5s57 -136.166 57 -215.499c0 -110 -34.667 -203.167 -104 -279.5s-159 -114.5 -269 -114.5
c-38 0 -74 5 -108 15l-33 -92h-53l39 108c-68.667 30.667 -123 78.5 -163 143.5s-60 138.167 -60 219.5c0 110 35 203 105 279s160.333 114 271 114c40 0 78.667 -5.66699 116 -17l35 97h53z" />
    <glyph glyph-name="Ugrave" unicode="&#xd9;" horiz-adv-x="735" 
d="M670 750v-463c0 -100 -27 -175.833 -81 -227.5s-127.333 -77.5 -220 -77.5s-166.5 25.833 -221.5 77.5s-82.5 127.5 -82.5 227.5v463h139v-456c0 -58 15 -102.333 45 -133s71.333 -46 124 -46c50 0 89.167 13.833 117.5 41.5s42.5 69.167 42.5 124.5v469h137zM197 990
l104 79l152 -237h-112z" />
    <glyph glyph-name="Uacute" unicode="&#xda;" horiz-adv-x="735" 
d="M670 750v-463c0 -100 -27 -175.833 -81 -227.5s-127.333 -77.5 -220 -77.5s-166.5 25.833 -221.5 77.5s-82.5 127.5 -82.5 227.5v463h139v-456c0 -58 15 -102.333 45 -133s71.333 -46 124 -46c50 0 89.167 13.833 117.5 41.5s42.5 69.167 42.5 124.5v469h137zM297 832
l152 237l104 -79l-144 -158h-112z" />
    <glyph glyph-name="Ucircumflex" unicode="&#xdb;" horiz-adv-x="735" 
d="M670 750v-463c0 -100 -27 -175.833 -81 -227.5s-127.333 -77.5 -220 -77.5s-166.5 25.833 -221.5 77.5s-82.5 127.5 -82.5 227.5v463h139v-456c0 -58 15 -102.333 45 -133s71.333 -46 124 -46c50 0 89.167 13.833 117.5 41.5s42.5 69.167 42.5 124.5v469h137zM367 910
l-62 -78h-129l155 196h73l155 -196h-129z" />
    <glyph glyph-name="Udieresis" unicode="&#xdc;" horiz-adv-x="735" 
d="M670 750v-463c0 -100 -27 -175.833 -81 -227.5s-127.333 -77.5 -220 -77.5s-166.5 25.833 -221.5 77.5s-82.5 127.5 -82.5 227.5v463h139v-456c0 -58 15 -102.333 45 -133s71.333 -46 124 -46c50 0 89.167 13.833 117.5 41.5s42.5 69.167 42.5 124.5v469h137zM413 952
h116v-120h-116v120zM206 952h116v-120h-116v120z" />
    <glyph glyph-name="Yacute" unicode="&#xdd;" horiz-adv-x="700" 
d="M421 285v-285h-142v285l-269 465h159l183 -336l183 336h155zM270 832l152 237l104 -79l-144 -158h-112z" />
    <glyph glyph-name="Thorn" unicode="&#xde;" horiz-adv-x="656" 
d="M213 267h155c38 0 67.167 9.66699 87.5 29c20.333 19.334 30.5 43.667 30.5 73s-9.83301 53.5 -29.5 72.5s-47.5 28.5 -83.5 28.5h-160v-203zM213 600h167c78 0 138.5 -21.667 181.5 -65s64.5 -96.333 64.5 -159c0 -66 -22.833 -122.333 -68.5 -169
s-109.167 -70 -190.5 -70h-154v-137h-138v750h138v-150z" />
    <glyph glyph-name="germandbls" unicode="&#xdf;" horiz-adv-x="625" 
d="M438 391c104.667 -26.667 157 -89.334 157 -188.001c0 -64.667 -22 -114.667 -66 -150s-98.333 -53 -163 -53h-113v116h93c32.667 0 59.667 8.5 81 25.5s32 41.167 32 72.5c0 36 -16.333 62.5 -49 79.5s-85 25.5 -157 25.5v109c49.333 0 88 10.167 116 30.5
s42 49.5 42 87.5c0 30.668 -9.5 54.335 -28.5 71.001c-19 16.667 -44.833 25 -77.5 25c-35.333 0 -62.833 -9.66699 -82.5 -29c-19.667 -19.335 -29.5 -47.668 -29.5 -85v-528h-133v528c0 74.667 22.333 132.334 67 173c44.667 40.667 102.667 61 174 61
c68.667 0 126 -18.167 172 -54.5c46 -36.334 69 -85.167 69 -146.5c0 -40 -9.5 -75.167 -28.5 -105.5s-44.167 -51.833 -75.5 -64.5z" />
    <glyph glyph-name="agrave" unicode="&#xe0;" horiz-adv-x="571" 
d="M245 99c36.667 0 68.667 12.332 96 36.999s41 56.667 41 96v29c-10.667 -6 -32.334 -11.333 -65 -16l-60 -8c-59.333 -8 -89 -32 -89 -72c0 -21.333 7 -37.666 21 -48.999s32.667 -17 56 -17zM299 561.999c66.667 0 118.669 -16 156.002 -48s56 -79.667 56 -143v-371
h-130v80c-38 -61.333 -93.667 -92 -167 -92c-48.667 0 -90.667 14.5 -126 43.5s-53 71.167 -53 126.5c0 96 58.667 151.667 176 167l122 16c17.333 2 30.5 6.33301 39.5 13s13.5 18 13.5 34c0 22 -8.66699 39 -26 51s-40.333 18 -69 18c-34 0 -59.833 -7.83301 -77.5 -23.5
s-27.5 -36.5 -29.5 -62.5h-127c5.33301 63.333 30.166 111 74.499 143s100.166 48 167.499 48zM126.002 807.999l104 79l152 -237h-112z" />
    <glyph glyph-name="aacute" unicode="&#xe1;" horiz-adv-x="571" 
d="M245 99c36.667 0 68.667 12.332 96 36.999s41 56.667 41 96v29c-10.667 -6 -32.334 -11.333 -65 -16l-60 -8c-59.333 -8 -89 -32 -89 -72c0 -21.333 7 -37.666 21 -48.999s32.667 -17 56 -17zM299 561.999c66.667 0 118.669 -16 156.002 -48s56 -79.667 56 -143v-371
h-130v80c-38 -61.333 -93.667 -92 -167 -92c-48.667 0 -90.667 14.5 -126 43.5s-53 71.167 -53 126.5c0 96 58.667 151.667 176 167l122 16c17.333 2 30.5 6.33301 39.5 13s13.5 18 13.5 34c0 22 -8.66699 39 -26 51s-40.333 18 -69 18c-34 0 -59.833 -7.83301 -77.5 -23.5
s-27.5 -36.5 -29.5 -62.5h-127c5.33301 63.333 30.166 111 74.499 143s100.166 48 167.499 48zM239.002 649.999l152 237l104 -79l-144 -158h-112z" />
    <glyph glyph-name="acircumflex" unicode="&#xe2;" horiz-adv-x="571" 
d="M245 99c36.667 0 68.667 12.332 96 36.999s41 56.667 41 96v29c-10.667 -6 -32.334 -11.333 -65 -16l-60 -8c-59.333 -8 -89 -32 -89 -72c0 -21.333 7 -37.666 21 -48.999s32.667 -17 56 -17zM299 561.999c66.667 0 118.669 -16 156.002 -48s56 -79.667 56 -143v-371
h-130v80c-38 -61.333 -93.667 -92 -167 -92c-48.667 0 -90.667 14.5 -126 43.5s-53 71.167 -53 126.5c0 96 58.667 151.667 176 167l122 16c17.333 2 30.5 6.33301 39.5 13s13.5 18 13.5 34c0 22 -8.66699 39 -26 51s-40.333 18 -69 18c-34 0 -59.833 -7.83301 -77.5 -23.5
s-27.5 -36.5 -29.5 -62.5h-127c5.33301 63.333 30.166 111 74.499 143s100.166 48 167.499 48zM305.002 727.999l-62 -78h-129l155 196h73l155 -196h-129z" />
    <glyph glyph-name="atilde" unicode="&#xe3;" horiz-adv-x="571" 
d="M245 99c36.667 0 68.667 12.332 96 36.999s41 56.667 41 96v29c-10.667 -6 -32.334 -11.333 -65 -16l-60 -8c-59.333 -8 -89 -32 -89 -72c0 -21.333 7 -37.666 21 -48.999s32.667 -17 56 -17zM299 561.999c66.667 0 118.669 -16 156.002 -48s56 -79.667 56 -143v-371
h-130v80c-38 -61.333 -93.667 -92 -167 -92c-48.667 0 -90.667 14.5 -126 43.5s-53 71.167 -53 126.5c0 96 58.667 151.667 176 167l122 16c17.333 2 30.5 6.33301 39.5 13s13.5 18 13.5 34c0 22 -8.66699 39 -26 51s-40.333 18 -69 18c-34 0 -59.833 -7.83301 -77.5 -23.5
s-27.5 -36.5 -29.5 -62.5h-127c5.33301 63.333 30.166 111 74.499 143s100.166 48 167.499 48zM383.002 805.999h78.002c-0.667969 -51.334 -11.335 -91.167 -32.001 -119.5c-20.667 -28.333 -46.334 -42.5 -77 -42.5c-17.333 0 -34.5 5 -51.5 15s-32 20.167 -45 30.5
s-23.833 15.5 -32.5 15.5c-20.667 0 -32 -18.333 -34 -55h-78c0 49.333 10.333 88.333 31 117s46.667 43 78 43c23.333 0 48.666 -10.333 75.999 -31s45 -31 53 -31c19.335 0 30.668 19.333 34 58z" />
    <glyph glyph-name="adieresis" unicode="&#xe4;" horiz-adv-x="571" 
d="M245 99c36.667 0 68.667 12.332 96 36.999s41 56.667 41 96v29c-10.667 -6 -32.334 -11.333 -65 -16l-60 -8c-59.333 -8 -89 -32 -89 -72c0 -21.333 7 -37.666 21 -48.999s32.667 -17 56 -17zM299 561.999c66.667 0 118.669 -16 156.002 -48s56 -79.667 56 -143v-371
h-130v80c-38 -61.333 -93.667 -92 -167 -92c-48.667 0 -90.667 14.5 -126 43.5s-53 71.167 -53 126.5c0 96 58.667 151.667 176 167l122 16c17.333 2 30.5 6.33301 39.5 13s13.5 18 13.5 34c0 22 -8.66699 39 -26 51s-40.333 18 -69 18c-34 0 -59.833 -7.83301 -77.5 -23.5
s-27.5 -36.5 -29.5 -62.5h-127c5.33301 63.333 30.166 111 74.499 143s100.166 48 167.499 48zM327.002 769.999h116v-120h-116v120zM120.002 769.999h116v-120h-116v120z" />
    <glyph glyph-name="aring" unicode="&#xe5;" horiz-adv-x="571" 
d="M245 99c36.667 0 68.667 12.332 96 36.999s41 56.667 41 96v29c-10.667 -6 -32.334 -11.333 -65 -16l-60 -8c-59.333 -8 -89 -32 -89 -72c0 -21.333 7 -37.666 21 -48.999s32.667 -17 56 -17zM299 561.999c66.667 0 118.669 -16 156.002 -48s56 -79.667 56 -143v-371
h-130v80c-38 -61.333 -93.667 -92 -167 -92c-48.667 0 -90.667 14.5 -126 43.5s-53 71.167 -53 126.5c0 96 58.667 151.667 176 167l122 16c17.333 2 30.5 6.33301 39.5 13s13.5 18 13.5 34c0 22 -8.66699 39 -26 51s-40.333 18 -69 18c-34 0 -59.833 -7.83301 -77.5 -23.5
s-27.5 -36.5 -29.5 -62.5h-127c5.33301 63.333 30.166 111 74.499 143s100.166 48 167.499 48zM331.002 768.999c0 16 -4.83301 28.833 -14.5 38.5s-22.5 14.5 -38.5 14.5s-28.667 -4.83301 -38 -14.5s-14 -22.5 -14 -38.5c0 -15.333 4.66699 -28.333 14 -39s22 -16 38 -16
s28.833 5.33301 38.5 16s14.5 23.667 14.5 39zM155.002 768.999c0 37.333 11.5 67.5 34.5 90.5s52.167 34.5 87.5 34.5c36.667 0 66.667 -11.5 90 -34.5s35 -53.167 35 -90.5c0 -36 -11.667 -65.667 -35 -89s-53.333 -35 -90 -35c-35.333 0 -64.5 11.667 -87.5 35
s-34.5 53 -34.5 89z" />
    <glyph glyph-name="ae" unicode="&#xe6;" horiz-adv-x="926" 
d="M382 232v28.999c-10.667 -6 -32.334 -11.333 -65 -16l-60 -8c-59.333 -8 -89 -32 -89 -72c0 -21.333 7 -37.666 21 -48.999s32.667 -17 56 -17c36.667 0 68.667 12.333 96 37s41 56.667 41 96zM515 332.999l251.002 0.000976562
c-0.666992 35.333 -11.834 63.166 -33.501 83.499s-49.834 30.5 -84.501 30.5c-33.333 0 -62.5 -9.5 -87.5 -28.5s-40.167 -47.5 -45.5 -85.5zM896.002 236l-383.997 -0.000976562c1.33301 -42.667 15.333 -75.5 42 -98.5s60 -34.5 100 -34.5c29.333 0 55 6.66699 77 20
s36.333 33.333 43 60h121c-10 -61.333 -38.5 -109.166 -85.5 -143.499s-100.833 -51.5 -161.5 -51.5c-44 0 -84.833 9.66699 -122.5 29c-37.668 19.333 -67.835 46.333 -90.501 81c-48.667 -73.333 -122.334 -110 -221 -110c-48.667 0 -90.667 14.5 -126 43.5
s-53 71.167 -53 126.5c0 96 58.667 151.667 176 167l122 16c17.333 2 30.5 6.33301 39.5 13s13.5 18 13.5 34c0 22 -8.66699 39 -26 51s-40.333 18 -69 18c-34 0 -59.833 -7.83301 -77.5 -23.5s-27.5 -36.5 -29.5 -62.5h-127c5.33301 63.333 30.166 111 74.499 143
s100.166 48 167.499 48c79.333 0 135 -25.667 167 -77c44.667 51.333 105.667 77 183 77c71.333 0 130.333 -23.5 177 -70.5s70 -114.167 70 -201.5v-54z" />
    <glyph glyph-name="ccedilla" unicode="&#xe7;" horiz-adv-x="575" 
d="M413 206h131.998c-6.66699 -68 -31.167 -120.833 -73.5 -158.5s-96.833 -57.5 -163.5 -59.5v-32c32.667 -2 58.667 -10.333 78 -25s29 -34.334 29 -59.001c0 -26 -10.333 -47.5 -31 -64.5s-48.667 -25.5 -84 -25.5c-44 0 -81.333 13.333 -112 40l34 52
c25.333 -20.667 49.666 -31 72.999 -31c15.335 0 27.168 3 35.5 9c8.33301 6 12.5 13.667 12.5 23c0 12.667 -8 23.334 -24 32.001s-40 13 -72 13l11 70c-73.333 9.33301 -129.666 40.833 -168.999 94.5s-59 117.167 -59 190.5c0 80 23 147.833 69 203.5s112 83.5 198 83.5
c71.333 0 129.833 -19.833 175.5 -59.5s68.5 -92.834 68.5 -159.5h-129c-1.33301 29.333 -11.666 52.833 -30.999 70.5s-46 26.5 -80 26.5c-45.333 0 -79.5 -15.667 -102.5 -47s-34.5 -70.333 -34.5 -117c0 -47.333 11.5 -86.5 34.5 -117.5s56.833 -46.5 101.5 -46.5
c33.333 0 59.833 8.66699 79.5 26s30.834 40 33.501 68z" />
    <glyph glyph-name="egrave" unicode="&#xe8;" horiz-adv-x="573" 
d="M295 447c-33.333 0 -62.5 -9.49902 -87.5 -28.499s-40.167 -47.5 -45.5 -85.5h251c-0.666992 35.333 -11.834 63.166 -33.5 83.499c-21.667 20.333 -49.834 30.5 -84.5 30.5zM543 236.001l-384 -0.00195312c1.33301 -42.667 15.333 -75.5 42 -98.5s60 -34.5 100 -34.5
c29.333 0 55 6.66699 77 20s36.333 33.333 43 60h121c-10 -61.333 -38.5 -109.166 -85.5 -143.499s-100.833 -51.5 -161.5 -51.5c-72.667 0 -135 24.667 -187 74s-78 120 -78 212c0 90.667 25.667 161.334 77 212.001s114.333 76 189 76c71.333 0 130.333 -23.5 177 -70.5
s70 -114.167 70 -201.5v-54zM123 807.999l104 79l152 -237h-112z" />
    <glyph glyph-name="eacute" unicode="&#xe9;" horiz-adv-x="573" 
d="M295 447c-33.333 0 -62.5 -9.49902 -87.5 -28.499s-40.167 -47.5 -45.5 -85.5h251c-0.666992 35.333 -11.834 63.166 -33.5 83.499c-21.667 20.333 -49.834 30.5 -84.5 30.5zM543 236.001l-384 -0.00195312c1.33301 -42.667 15.333 -75.5 42 -98.5s60 -34.5 100 -34.5
c29.333 0 55 6.66699 77 20s36.333 33.333 43 60h121c-10 -61.333 -38.5 -109.166 -85.5 -143.499s-100.833 -51.5 -161.5 -51.5c-72.667 0 -135 24.667 -187 74s-78 120 -78 212c0 90.667 25.667 161.334 77 212.001s114.333 76 189 76c71.333 0 130.333 -23.5 177 -70.5
s70 -114.167 70 -201.5v-54zM257 649.999l152 237l104 -79l-144 -158h-112z" />
    <glyph glyph-name="ecircumflex" unicode="&#xea;" horiz-adv-x="573" 
d="M295 447c-33.333 0 -62.5 -9.49902 -87.5 -28.499s-40.167 -47.5 -45.5 -85.5h251c-0.666992 35.333 -11.834 63.166 -33.5 83.499c-21.667 20.333 -49.834 30.5 -84.5 30.5zM543 236.001l-384 -0.00195312c1.33301 -42.667 15.333 -75.5 42 -98.5s60 -34.5 100 -34.5
c29.333 0 55 6.66699 77 20s36.333 33.333 43 60h121c-10 -61.333 -38.5 -109.166 -85.5 -143.499s-100.833 -51.5 -161.5 -51.5c-72.667 0 -135 24.667 -187 74s-78 120 -78 212c0 90.667 25.667 161.334 77 212.001s114.333 76 189 76c71.333 0 130.333 -23.5 177 -70.5
s70 -114.167 70 -201.5v-54zM309 727.999l-62 -78h-129l155 196h73l155 -196h-129z" />
    <glyph glyph-name="edieresis" unicode="&#xeb;" horiz-adv-x="573" 
d="M295 447c-33.333 0 -62.5 -9.49902 -87.5 -28.499s-40.167 -47.5 -45.5 -85.5h251c-0.666992 35.333 -11.834 63.166 -33.5 83.499c-21.667 20.333 -49.834 30.5 -84.5 30.5zM543 236.001l-384 -0.00195312c1.33301 -42.667 15.333 -75.5 42 -98.5s60 -34.5 100 -34.5
c29.333 0 55 6.66699 77 20s36.333 33.333 43 60h121c-10 -61.333 -38.5 -109.166 -85.5 -143.499s-100.833 -51.5 -161.5 -51.5c-72.667 0 -135 24.667 -187 74s-78 120 -78 212c0 90.667 25.667 161.334 77 212.001s114.333 76 189 76c71.333 0 130.333 -23.5 177 -70.5
s70 -114.167 70 -201.5v-54zM338 769.999h116v-120h-116v120zM131 769.999h116v-120h-116v120z" />
    <glyph glyph-name="igrave" unicode="&#xec;" horiz-adv-x="253" 
d="M60 552h133v-552h-133v552zM-59 808l104 79l152 -237h-112z" />
    <glyph glyph-name="iacute" unicode="&#xed;" horiz-adv-x="253" 
d="M60 552h133v-552h-133v552zM62 650l152 237l104 -79l-144 -158h-112z" />
    <glyph glyph-name="icircumflex" unicode="&#xee;" horiz-adv-x="253" 
d="M60 552h133v-552h-133v552zM143 728l-62 -78h-129l155 196h73l155 -196h-129z" />
    <glyph glyph-name="idieresis" unicode="&#xef;" horiz-adv-x="253" 
d="M60 552h133v-552h-133v552zM177 770h116v-120h-116v120zM-30 770h116v-120h-116v120z" />
    <glyph glyph-name="eth" unicode="&#xf0;" horiz-adv-x="605" 
d="M285 112c38.667 0 71.167 11.501 97.5 34.501s39.5 54.833 39.5 95.5c0 38.667 -12.333 69.167 -37 91.5s-56.334 33.5 -95 33.5c-38.667 0 -70.5 -11.5 -95.5 -34.5s-37.5 -54.5 -37.5 -94.5c0 -38.667 11.667 -69.334 35 -92.001s54.333 -34 93 -34zM501 697.001
l-28.001 -23.999c69.333 -68 104 -170.333 104 -307c0 -66 -8.16699 -124 -24.5 -174s-38.5 -89.333 -66.5 -118s-58.833 -50.167 -92.5 -64.5s-69.834 -21.5 -108.5 -21.5c-74.667 0 -137 24 -187 72s-75 110 -75 186c0 75.333 24.5 135.666 73.5 180.999
s107.833 68 176.5 68c37.334 0 71.167 -7.33301 101.5 -22s53.5 -35.667 69.5 -63c0.666992 5.33301 1 13.333 1 24c0 69.333 -21 124 -63 164l-64 -54l-39 46l48 40c-16 5.33301 -31.333 8 -46 8c-28 0 -52 -8 -72 -24s-31 -38.333 -33 -67h-134
c4.66699 60.667 28.834 109.667 72.501 147s98.167 56 163.5 56c54.667 0 103.667 -13 147 -39l76 63v-77z" />
    <glyph glyph-name="ntilde" unicode="&#xf1;" horiz-adv-x="602" 
d="M362 562c60 0 104.999 -17.668 134.999 -53.001s45 -86.333 45 -153v-356h-133v344c0 30.667 -8.16699 54.834 -24.5 72.501s-39.166 26.5 -68.499 26.5c-36 0 -64.667 -13 -86 -39s-32 -61.333 -32 -106v-298h-133v552h132v-80c36.667 60 91.667 90 165 90z
M416.999 805.999h78.002c-0.667969 -51.334 -11.335 -91.167 -32.001 -119.5c-20.667 -28.333 -46.334 -42.5 -77 -42.5c-17.333 0 -34.5 5 -51.5 15s-32 20.167 -45 30.5s-23.833 15.5 -32.5 15.5c-20.667 0 -32 -18.333 -34 -55h-78c0 49.333 10.333 88.333 31 117
s46.667 43 78 43c23.333 0 48.666 -10.333 75.999 -31s45 -31 53 -31c19.334 0 30.667 19.333 34 58z" />
    <glyph glyph-name="ograve" unicode="&#xf2;" horiz-adv-x="599" 
d="M298 438c-40 0 -71.999 -14.5 -95.999 -43.5s-36 -70.167 -36 -123.5c0 -50.667 12.667 -89.834 38 -117.501s57.666 -41.5 96.999 -41.5c40 0 72 14.5 96 43.5s36 70.167 36 123.5c0 50.667 -12.833 89.834 -38.5 117.501s-57.834 41.5 -96.5 41.5zM299.001 562
c79.334 0 144.166 -25.833 194.499 -77.5s75.5 -121.5 75.5 -209.5s-25.167 -157.833 -75.5 -209.5s-115.166 -77.5 -194.499 -77.5c-78.667 0 -143.167 25.833 -193.5 77.5s-75.5 121.5 -75.5 209.5s25.167 157.833 75.5 209.5s114.833 77.5 193.5 77.5zM131 808l104 79
l152 -237h-112z" />
    <glyph glyph-name="oacute" unicode="&#xf3;" horiz-adv-x="599" 
d="M298 438c-40 0 -71.999 -14.5 -95.999 -43.5s-36 -70.167 -36 -123.5c0 -50.667 12.667 -89.834 38 -117.501s57.666 -41.5 96.999 -41.5c40 0 72 14.5 96 43.5s36 70.167 36 123.5c0 50.667 -12.833 89.834 -38.5 117.501s-57.834 41.5 -96.5 41.5zM299.001 562
c79.334 0 144.166 -25.833 194.499 -77.5s75.5 -121.5 75.5 -209.5s-25.167 -157.833 -75.5 -209.5s-115.166 -77.5 -194.499 -77.5c-78.667 0 -143.167 25.833 -193.5 77.5s-75.5 121.5 -75.5 209.5s25.167 157.833 75.5 209.5s114.833 77.5 193.5 77.5zM239 650l152 237
l104 -79l-144 -158h-112z" />
    <glyph glyph-name="ocircumflex" unicode="&#xf4;" horiz-adv-x="599" 
d="M298 438c-40 0 -71.999 -14.5 -95.999 -43.5s-36 -70.167 -36 -123.5c0 -50.667 12.667 -89.834 38 -117.501s57.666 -41.5 96.999 -41.5c40 0 72 14.5 96 43.5s36 70.167 36 123.5c0 50.667 -12.833 89.834 -38.5 117.501s-57.834 41.5 -96.5 41.5zM299.001 562
c79.334 0 144.166 -25.833 194.499 -77.5s75.5 -121.5 75.5 -209.5s-25.167 -157.833 -75.5 -209.5s-115.166 -77.5 -194.499 -77.5c-78.667 0 -143.167 25.833 -193.5 77.5s-75.5 121.5 -75.5 209.5s25.167 157.833 75.5 209.5s114.833 77.5 193.5 77.5zM299 728l-62 -78
h-129l155 196h73l155 -196h-129z" />
    <glyph glyph-name="otilde" unicode="&#xf5;" horiz-adv-x="599" 
d="M298 438c-40 0 -71.999 -14.5 -95.999 -43.5s-36 -70.167 -36 -123.5c0 -50.667 12.667 -89.834 38 -117.501s57.666 -41.5 96.999 -41.5c40 0 72 14.5 96 43.5s36 70.167 36 123.5c0 50.667 -12.833 89.834 -38.5 117.501s-57.834 41.5 -96.5 41.5zM299.001 562
c79.334 0 144.166 -25.833 194.499 -77.5s75.5 -121.5 75.5 -209.5s-25.167 -157.833 -75.5 -209.5s-115.166 -77.5 -194.499 -77.5c-78.667 0 -143.167 25.833 -193.5 77.5s-75.5 121.5 -75.5 209.5s25.167 157.833 75.5 209.5s114.833 77.5 193.5 77.5zM410 806h78
c-0.666992 -51.334 -11.5 -91.167 -32.5 -119.5s-46.5 -42.5 -76.5 -42.5c-17.333 0 -34.5 5 -51.5 15s-32 20.167 -45 30.5s-23.833 15.5 -32.5 15.5c-20.667 0 -32 -18.333 -34 -55h-78c0 49.333 10.333 88.333 31 117s46.667 43 78 43c23.334 0 48.667 -10.333 76 -31
s45 -31 53 -31c19.334 0 30.667 19.333 34 58z" />
    <glyph glyph-name="odieresis" unicode="&#xf6;" horiz-adv-x="599" 
d="M298 438c-40 0 -71.999 -14.5 -95.999 -43.5s-36 -70.167 -36 -123.5c0 -50.667 12.667 -89.834 38 -117.501s57.666 -41.5 96.999 -41.5c40 0 72 14.5 96 43.5s36 70.167 36 123.5c0 50.667 -12.833 89.834 -38.5 117.501s-57.834 41.5 -96.5 41.5zM299.001 562
c79.334 0 144.166 -25.833 194.499 -77.5s75.5 -121.5 75.5 -209.5s-25.167 -157.833 -75.5 -209.5s-115.166 -77.5 -194.499 -77.5c-78.667 0 -143.167 25.833 -193.5 77.5s-75.5 121.5 -75.5 209.5s25.167 157.833 75.5 209.5s114.833 77.5 193.5 77.5zM345 770h116v-120
h-116v120zM138 770h116v-120h-116v120z" />
    <glyph glyph-name="divide" unicode="&#xf7;" horiz-adv-x="500" 
d="M178 154h135v-139h-135v139zM40 257v69h420v-69h-420zM178 560h135v-139h-135v139z" />
    <glyph glyph-name="oslash" unicode="&#xf8;" horiz-adv-x="599" 
d="M301 112c40 0 72.001 14.5 96.001 43.5s36 70.167 36 123.5c0 60 -17.333 104 -52 132l-108 -296c9.33398 -2 18.667 -3 27.999 -3zM166.001 271c0 -64 20.332 -109.667 60.999 -137l108 299c-13.333 3.33301 -25.666 5 -36.999 5c-40 0 -72 -14.5 -96 -43.5
s-36 -70.167 -36 -123.5zM461 633l-36.0029 -98.998c44.667 -22 79.834 -55.333 105.501 -100s38.5 -97.667 38.5 -159c0 -88 -25.167 -157.833 -75.5 -209.5s-115.166 -77.5 -194.499 -77.5c-23.333 0 -46.666 2.66699 -69.999 8l-33 -92h-53l39 108
c-47.333 21.333 -84.5 54.666 -111.5 99.999s-40.5 99.666 -40.5 162.999c0 88 25.167 157.833 75.5 209.5s114.833 77.5 193.5 77.5c26 0 52.333 -3.33301 79 -10l30 81h53z" />
    <glyph glyph-name="ugrave" unicode="&#xf9;" horiz-adv-x="613" 
d="M548 0h-130v78c-35.333 -56 -88 -84 -158 -84c-60 0 -108.333 18.667 -145 56s-55 90.333 -55 159v343h133v-333c0 -71.333 31.333 -107 94 -107c38.667 0 69.667 14.667 93 44s35 72.333 35 129v267h133v-552zM132 808l104 79l152 -237h-112z" />
    <glyph glyph-name="uacute" unicode="&#xfa;" horiz-adv-x="613" 
d="M548 0h-130v78c-35.333 -56 -88 -84 -158 -84c-60 0 -108.333 18.667 -145 56s-55 90.333 -55 159v343h133v-333c0 -71.333 31.333 -107 94 -107c38.667 0 69.667 14.667 93 44s35 72.333 35 129v267h133v-552zM242 650l152 237l104 -79l-144 -158h-112z" />
    <glyph glyph-name="ucircumflex" unicode="&#xfb;" horiz-adv-x="613" 
d="M548 0h-130v78c-35.333 -56 -88 -84 -158 -84c-60 0 -108.333 18.667 -145 56s-55 90.333 -55 159v343h133v-333c0 -71.333 31.333 -107 94 -107c38.667 0 69.667 14.667 93 44s35 72.333 35 129v267h133v-552zM318 728l-62 -78h-129l155 196h73l155 -196h-129z" />
    <glyph glyph-name="udieresis" unicode="&#xfc;" horiz-adv-x="613" 
d="M548 0h-130v78c-35.333 -56 -88 -84 -158 -84c-60 0 -108.333 18.667 -145 56s-55 90.333 -55 159v343h133v-333c0 -71.333 31.333 -107 94 -107c38.667 0 69.667 14.667 93 44s35 72.333 35 129v267h133v-552zM352 770h116v-120h-116v120zM145 770h116v-120h-116v120z
" />
    <glyph glyph-name="yacute" unicode="&#xfd;" horiz-adv-x="538" 
d="M538 552l-240 -635c-23.333 -62 -75.333 -93 -156 -93h-83v118h58c40.667 0 67 18 79 54l9 26l-205 530h141l130 -360l130 360h137zM183 650l152 237l104 -79l-144 -158h-112z" />
    <glyph glyph-name="thorn" unicode="&#xfe;" horiz-adv-x="637" 
d="M334 112c38.667 0 71.333 14 98 42s40 69 40 123s-13.333 95 -40 123s-59.334 42 -98 42c-39.333 0 -72.5 -14 -99.5 -42s-40.5 -69 -40.5 -123s13.5 -95 40.5 -123s60.167 -42 99.5 -42zM366.999 562c68.667 0 125.832 -24.333 171.499 -73s68.5 -118.334 68.5 -209
c0 -92 -23.167 -162.333 -69.5 -211s-104.166 -73 -173.499 -73c-76 0 -131.333 28.333 -166 85v-287h-133v968h130v-288c16 28 39.167 49.667 69.5 65s64.5 23 102.5 23z" />
    <glyph glyph-name="ydieresis" unicode="&#xff;" horiz-adv-x="538" 
d="M538 552l-240 -635c-23.333 -62 -75.333 -93 -156 -93h-83v118h58c40.667 0 67 18 79 54l9 26l-205 530h141l130 -360l130 360h137zM317 770h116v-120h-116v120zM110 770h116v-120h-116v120z" />
    <glyph glyph-name=".null" horiz-adv-x="0" 
 />
    <glyph glyph-name="nonmarkingreturn" horiz-adv-x="333" 
 />
    <glyph glyph-name="currency" unicode="&#xa4;" horiz-adv-x="640" 
d="M321 175c33.334 0 61.665 12.332 84.998 36.999s35 54.667 35 90c0 34.667 -11.667 64.334 -35 89.001s-51.666 37 -84.999 37s-61.666 -12.333 -84.999 -37s-35 -54.334 -35 -89c0 -35.333 11.667 -65.333 35 -90c23.334 -24.667 51.667 -37 85 -37zM541.998 301.999
c0 -58.667 -19.668 -109.332 -59.001 -151.999l92 -114l-47 -36l-91 113c-34.667 -22 -73.667 -33 -117 -33c-42.667 0 -81.667 11 -117 33l-91 -113l-47 36l92 115c-38.667 42 -58 92.333 -58 151c0 60 20.333 111.333 61 154l-95 118l47 36l95 -118
c34 20.667 71.667 31 113 31c40.667 0 78.334 -10 113.001 -30l95 117l47 -36l-95 -117c41.333 -42.667 62 -94.334 62 -155.001z" />
    <glyph glyph-name="brokenbar" unicode="&#xa6;" horiz-adv-x="209" 
d="M149 -120h-89v417h89v-417zM149 453h-89v417h89v-417z" />
    <glyph glyph-name="dieresis" unicode="&#xa8;" horiz-adv-x="323" 
d="M207 770h116v-120h-116v120zM0 770h116v-120h-116v120z" />
    <glyph glyph-name="acute" unicode="&#xb4;" horiz-adv-x="256" 
d="M0 650l152 237l104 -79l-144 -158h-112z" />
    <glyph glyph-name="cedilla" unicode="&#xb8;" horiz-adv-x="227" 
d="M120 6l0.00195312 -50c32.667 -2 58.667 -10.333 78 -25s29 -34.334 29 -59.001c0 -26 -10.333 -47.5 -31 -64.5s-48.667 -25.5 -84 -25.5c-44 0 -81.333 13.333 -112 40l34 52c25.333 -20.667 49.666 -31 72.999 -31c15.333 0 27.166 3 35.499 9s12.5 13.667 12.5 23
c0 12.667 -8 23.334 -24 32.001s-40 13 -72 13l13 86h48z" />
    <glyph glyph-name="onequarter" unicode="&#xbc;" horiz-adv-x="1000" 
d="M780 163v182l-120 -182h120zM860 88v-87h-80v88h-207v65l199 297h88v-288h61v-75h-61zM376 370v-76h-287v76h103v269c-32 -19.333 -68.333 -31 -109 -35v79c48 6 88.333 26.333 121 61h69v-374h103zM337 0h-80l473 750h80z" />
    <glyph glyph-name="onehalf" unicode="&#xbd;" horiz-adv-x="1000" 
d="M945 1h-327v76l109 89c48 39.333 80.167 68.333 96.5 87s24.5 39 24.5 61c0 19.333 -7 34.833 -21 46.5s-31.333 17.5 -52 17.5c-24.667 0 -44.667 -7.83301 -60 -23.5c-15.3359 -15.667 -22.6689 -37.5 -22 -65.5h-82v7c0 50.667 16.667 90 50 118s72 42 116 42
c41.333 0 77.5 -12.333 108.5 -37s46.5 -57.667 46.5 -99c0 -34 -11.5 -65.5 -34.5 -94.5s-57.167 -61.5 -102.5 -97.5l-64 -51h214v-76zM357 370v-76h-287v76h103v269c-32 -19.333 -68.333 -31 -109 -35v79c48 6 88.333 26.333 121 61h69v-374h103zM318 0h-80l473 750h80z
" />
    <glyph glyph-name="threequarters" unicode="&#xbe;" horiz-adv-x="1000" 
d="M797 163v182l-120 -182h120zM877 88v-87h-80v88h-207v65l199 297h88v-288h61v-75h-61zM323 0h-80l473 750h80zM305 527c52.667 -22 79 -57.001 79 -105.001c0 -37.333 -14 -68.833 -42 -94.5s-67 -38.5 -117 -38.5c-49.333 0 -90 13.167 -122 39.5
s-48.333 62.5 -49 108.5h82c0.666992 -24.667 9 -43.167 25 -55.5s37 -18.5 63 -18.5c24.667 0 43.5 5.5 56.5 16.5s19.5 25.5 19.5 43.5c0 40 -30.667 60 -92 60h-28v73h25c26.667 0 47.667 5.83301 63 17.5c15.333 11.6689 23 26.8359 23 45.5
c0 18.6719 -7 32.8389 -21 42.501c-14 9.66699 -31.333 14.5 -52 14.5c-28 0 -49.667 -8.66699 -65 -26c-15.333 -17.335 -23 -39.668 -23 -67h-82c0 52.667 16 93.667 48 123s74 44 126 44c45.333 0 82 -11 110 -33s42 -51 42 -87c0 -24.667 -6.5 -46.167 -19.5 -64.5
c-13 -18.3379 -29.5 -31.1709 -49.5 -38.5z" />
    <glyph glyph-name="Amacron" unicode="&#x100;" horiz-adv-x="782" 
d="M497 297l-111 296l-109 -296h220zM547 166h-318l-61 -166h-148l289 750h154l299 -750h-153zM551 834h-319v100h319v-100z" />
    <glyph glyph-name="amacron" unicode="&#x101;" horiz-adv-x="571" 
d="M245 99c36.667 0 68.667 12.332 96 36.999s41 56.667 41 96v29c-10.667 -6 -32.334 -11.333 -65 -16l-60 -8c-59.333 -8 -89 -32 -89 -72c0 -21.333 7 -37.666 21 -48.999s32.667 -17 56 -17zM299 561.999c66.667 0 118.669 -16 156.002 -48s56 -79.667 56 -143v-371
h-130v80c-38 -61.333 -93.667 -92 -167 -92c-48.667 0 -90.667 14.5 -126 43.5s-53 71.167 -53 126.5c0 96 58.667 151.667 176 167l122 16c17.333 2 30.5 6.33301 39.5 13s13.5 18 13.5 34c0 22 -8.66699 39 -26 51s-40.333 18 -69 18c-34 0 -59.833 -7.83301 -77.5 -23.5
s-27.5 -36.5 -29.5 -62.5h-127c5.33301 63.333 30.166 111 74.499 143s100.166 48 167.499 48zM127.002 649.999v100h319v-100h-319z" />
    <glyph glyph-name="Abreve" unicode="&#x102;" horiz-adv-x="782" 
d="M497 297l-111 296l-109 -296h220zM547 166h-318l-61 -166h-148l289 750h154l299 -750h-153zM397 832c-45.333 0 -79.168 12.667 -101.501 38s-33.5 55 -33.5 89c0 22 3.33301 39.667 10 53h84c-5.33301 -11.3369 -8 -25.6699 -8 -42.999c0 -15.333 4 -28 12 -38
s20.333 -15 37 -15s29 5 37 15s12 22.667 12 38c0 17.333 -2.66699 31.666 -8 42.999h84c6.66699 -13.333 10 -31 10 -53c0 -34 -11.167 -63.667 -33.5 -89s-56.166 -38 -101.499 -38z" />
    <glyph glyph-name="abreve" unicode="&#x103;" horiz-adv-x="571" 
d="M245 99c36.667 0 68.667 12.332 96 36.999s41 56.667 41 96v29c-10.667 -6 -32.334 -11.333 -65 -16l-60 -8c-59.333 -8 -89 -32 -89 -72c0 -21.333 7 -37.666 21 -48.999s32.667 -17 56 -17zM299 561.999c66.667 0 118.669 -16 156.002 -48s56 -79.667 56 -143v-371
h-130v80c-38 -61.333 -93.667 -92 -167 -92c-48.667 0 -90.667 14.5 -126 43.5s-53 71.167 -53 126.5c0 96 58.667 151.667 176 167l122 16c17.333 2 30.5 6.33301 39.5 13s13.5 18 13.5 34c0 22 -8.66699 39 -26 51s-40.333 18 -69 18c-34 0 -59.833 -7.83301 -77.5 -23.5
s-27.5 -36.5 -29.5 -62.5h-127c5.33301 63.333 30.166 111 74.499 143s100.166 48 167.499 48zM352.002 816.999h83.998c6.66699 -13.333 10 -31 10 -53c0 -34 -11.167 -63.667 -33.5 -89s-56.166 -38 -101.499 -38s-79.166 12.667 -101.499 38s-33.5 55 -33.5 89
c0 22 3.33301 39.667 10 53h84c-5.33301 -11.3359 -8 -25.6689 -8 -42.999c0 -15.333 4 -28 12 -38s20.333 -15 37 -15s29 5 37 15s12 22.667 12 38c0 17.333 -2.66699 31.666 -8 42.999z" />
    <glyph glyph-name="Aogonek" unicode="&#x104;" horiz-adv-x="782" 
d="M497 297l-111 296l-109 -296h220zM646 -48c0 -20.667 8.5 -36.5 25.5 -47.5s37.167 -17.5 60.5 -19.5v-66c-41.333 4 -76.5 17.333 -105.5 40s-43.5 49.667 -43.5 81c0 24.667 8.66699 45 26 61l-62 165h-318l-61 -166h-148l289 750h154l299 -750h-95
c-14 -14 -21 -30 -21 -48z" />
    <glyph glyph-name="aogonek" unicode="&#x105;" horiz-adv-x="571" 
d="M382 232v28.999c-10.667 -6 -32.334 -11.333 -65 -16l-60 -8c-59.333 -8 -89 -32 -89 -72c0 -21.333 7 -37.666 21 -48.999s32.667 -17 56 -17c36.667 0 68.667 12.333 96 37s41 56.667 41 96zM511 -0.000976562h-67.998c-14 -14 -21 -30 -21 -48
c0 -20.667 8.5 -36.5 25.5 -47.5s37.167 -17.5 60.5 -19.5v-66c-41.333 4 -76.5 17.333 -105.5 40s-43.5 49.667 -43.5 81c0 23.333 8.33301 43.333 25 60h-3v80c-38 -61.333 -93.667 -92 -167 -92c-48.667 0 -90.667 14.5 -126 43.5s-53 71.167 -53 126.5
c0 96 58.667 151.667 176 167l122 16c17.333 2 30.5 6.33301 39.5 13s13.5 18 13.5 34c0 22 -8.66699 39 -26 51s-40.333 18 -69 18c-34 0 -59.833 -7.83301 -77.5 -23.5s-27.5 -36.5 -29.5 -62.5h-127c5.33301 63.333 30.166 111 74.499 143s100.166 48 167.499 48
c66.667 0 118.667 -16 156 -48s56 -79.667 56 -143v-371z" />
    <glyph glyph-name="Cacute" unicode="&#x106;" horiz-adv-x="773" 
d="M406 115c49.333 0 92.334 13.333 129.001 40s57 67 61 121h142c-5.33496 -94.667 -39.668 -167.5 -103 -218.5c-63.333 -51 -140 -76.5 -230 -76.5c-57.333 0 -109.5 11 -156.5 33s-85.5 51.5 -115.5 88.5s-53 79 -69 126s-24 96.833 -24 149.5
c0 50.667 7.5 98.834 22.5 144.501c15 45.668 37 86.835 66 123.501c29 36.667 67.5 66 115.5 88s102.333 33 163 33c90 0 164.667 -23.333 224 -70s93.666 -112.334 102.999 -197.001h-142c-4.66699 42 -24.5 75.333 -59.5 100s-77.833 37 -128.5 37
c-72.667 0 -128.167 -24.667 -166.5 -74c-38.333 -49.334 -57.5 -110.001 -57.5 -182.001c0 -74 20 -136.833 60 -188.5s95.333 -77.5 166 -77.5zM371.001 832l152 237l104 -79l-144 -158h-112z" />
    <glyph glyph-name="cacute" unicode="&#x107;" horiz-adv-x="575" 
d="M413 206h131.997c-6.66699 -69.333 -32.167 -123 -76.5 -161s-101.166 -57 -170.499 -57c-86 0 -152.167 27.833 -198.5 83.5s-69.5 123.5 -69.5 203.5s23 147.833 69 203.5s112 83.5 198 83.5c71.333 0 129.833 -19.833 175.5 -59.5s68.5 -92.834 68.5 -159.5h-129
c-1.33301 29.333 -11.666 52.833 -30.999 70.5s-46 26.5 -80 26.5c-45.333 0 -79.5 -15.667 -102.5 -47s-34.5 -70.333 -34.5 -117c0 -47.333 11.5 -86.5 34.5 -117.5s56.833 -46.5 101.5 -46.5c33.333 0 59.833 8.66699 79.5 26s30.834 40 33.501 68zM249.997 650l152 237
l104 -79l-144 -158h-112z" />
    <glyph glyph-name="Ccircumflex" unicode="&#x108;" horiz-adv-x="773" 
d="M406 115c49.333 0 92.334 13.333 129.001 40s57 67 61 121h142c-5.33496 -94.667 -39.668 -167.5 -103 -218.5c-63.333 -51 -140 -76.5 -230 -76.5c-57.333 0 -109.5 11 -156.5 33s-85.5 51.5 -115.5 88.5s-53 79 -69 126s-24 96.833 -24 149.5
c0 50.667 7.5 98.834 22.5 144.501c15 45.668 37 86.835 66 123.501c29 36.667 67.5 66 115.5 88s102.333 33 163 33c90 0 164.667 -23.333 224 -70s93.666 -112.334 102.999 -197.001h-142c-4.66699 42 -24.5 75.333 -59.5 100s-77.833 37 -128.5 37
c-72.667 0 -128.167 -24.667 -166.5 -74c-38.333 -49.334 -57.5 -110.001 -57.5 -182.001c0 -74 20 -136.833 60 -188.5s95.333 -77.5 166 -77.5zM424.001 910l-62 -78h-129l155 196h73l155 -196h-129z" />
    <glyph glyph-name="ccircumflex" unicode="&#x109;" horiz-adv-x="575" 
d="M413 206h131.997c-6.66699 -69.333 -32.167 -123 -76.5 -161s-101.166 -57 -170.499 -57c-86 0 -152.167 27.833 -198.5 83.5s-69.5 123.5 -69.5 203.5s23 147.833 69 203.5s112 83.5 198 83.5c71.333 0 129.833 -19.833 175.5 -59.5s68.5 -92.834 68.5 -159.5h-129
c-1.33301 29.333 -11.666 52.833 -30.999 70.5s-46 26.5 -80 26.5c-45.333 0 -79.5 -15.667 -102.5 -47s-34.5 -70.333 -34.5 -117c0 -47.333 11.5 -86.5 34.5 -117.5s56.833 -46.5 101.5 -46.5c33.333 0 59.833 8.66699 79.5 26s30.834 40 33.501 68zM313.997 728l-62 -78
h-129l155 196h73l155 -196h-129z" />
    <glyph glyph-name="Cdotaccent" unicode="&#x10a;" horiz-adv-x="773" 
d="M406 115c49.333 0 92.334 13.333 129.001 40s57 67 61 121h142c-5.33496 -94.667 -39.668 -167.5 -103 -218.5c-63.333 -51 -140 -76.5 -230 -76.5c-57.333 0 -109.5 11 -156.5 33s-85.5 51.5 -115.5 88.5s-53 79 -69 126s-24 96.833 -24 149.5
c0 50.667 7.5 98.834 22.5 144.501c15 45.668 37 86.835 66 123.501c29 36.667 67.5 66 115.5 88s102.333 33 163 33c90 0 164.667 -23.333 224 -70s93.666 -112.334 102.999 -197.001h-142c-4.66699 42 -24.5 75.333 -59.5 100s-77.833 37 -128.5 37
c-72.667 0 -128.167 -24.667 -166.5 -74c-38.333 -49.334 -57.5 -110.001 -57.5 -182.001c0 -74 20 -136.833 60 -188.5s95.333 -77.5 166 -77.5zM334.001 986h150v-154h-150v154z" />
    <glyph glyph-name="cdotaccent" unicode="&#x10b;" horiz-adv-x="575" 
d="M413 206h131.997c-6.66699 -69.333 -32.167 -123 -76.5 -161s-101.166 -57 -170.499 -57c-86 0 -152.167 27.833 -198.5 83.5s-69.5 123.5 -69.5 203.5s23 147.833 69 203.5s112 83.5 198 83.5c71.333 0 129.833 -19.833 175.5 -59.5s68.5 -92.834 68.5 -159.5h-129
c-1.33301 29.333 -11.666 52.833 -30.999 70.5s-46 26.5 -80 26.5c-45.333 0 -79.5 -15.667 -102.5 -47s-34.5 -70.333 -34.5 -117c0 -47.333 11.5 -86.5 34.5 -117.5s56.833 -46.5 101.5 -46.5c33.333 0 59.833 8.66699 79.5 26s30.834 40 33.501 68zM213.997 804h150v-154
h-150v154z" />
    <glyph glyph-name="Ccaron" unicode="&#x10c;" horiz-adv-x="773" 
d="M406 115c49.333 0 92.334 13.333 129.001 40s57 67 61 121h142c-5.33496 -94.667 -39.668 -167.5 -103 -218.5c-63.333 -51 -140 -76.5 -230 -76.5c-57.333 0 -109.5 11 -156.5 33s-85.5 51.5 -115.5 88.5s-53 79 -69 126s-24 96.833 -24 149.5
c0 50.667 7.5 98.834 22.5 144.501c15 45.668 37 86.835 66 123.501c29 36.667 67.5 66 115.5 88s102.333 33 163 33c90 0 164.667 -23.333 224 -70s93.666 -112.334 102.999 -197.001h-142c-4.66699 42 -24.5 75.333 -59.5 100s-77.833 37 -128.5 37
c-72.667 0 -128.167 -24.667 -166.5 -74c-38.333 -49.334 -57.5 -110.001 -57.5 -182.001c0 -74 20 -136.833 60 -188.5s95.333 -77.5 166 -77.5zM613.001 1029l-155 -196h-73l-155 196h129l62 -78l63 78h129z" />
    <glyph glyph-name="ccaron" unicode="&#x10d;" horiz-adv-x="575" 
d="M413 206h131.997c-6.66699 -69.333 -32.167 -123 -76.5 -161s-101.166 -57 -170.499 -57c-86 0 -152.167 27.833 -198.5 83.5s-69.5 123.5 -69.5 203.5s23 147.833 69 203.5s112 83.5 198 83.5c71.333 0 129.833 -19.833 175.5 -59.5s68.5 -92.834 68.5 -159.5h-129
c-1.33301 29.333 -11.666 52.833 -30.999 70.5s-46 26.5 -80 26.5c-45.333 0 -79.5 -15.667 -102.5 -47s-34.5 -70.333 -34.5 -117c0 -47.333 11.5 -86.5 34.5 -117.5s56.833 -46.5 101.5 -46.5c33.333 0 59.833 8.66699 79.5 26s30.834 40 33.501 68zM308.997 769l62 78
h129l-155 -196h-73l-155 196h129z" />
    <glyph glyph-name="Dcaron" unicode="&#x10e;" horiz-adv-x="745" 
d="M214 131h92.999c80.667 0 143.834 25.833 189.501 77.5s68.5 112.167 68.5 181.5c0 64 -20.5 118.333 -61.5 163s-99.5 67 -175.5 67h-114v-489zM74.999 750l248 0.00195312c61.334 0 116.667 -10 166 -30s89.5 -46.833 120.5 -80.5s54.667 -71.834 71 -114.501
s24.5 -87.667 24.5 -135c0 -48.667 -8.5 -95.834 -25.5 -141.501s-41.5 -87.167 -73.5 -124.5s-74 -67.333 -126 -90s-110.333 -34 -175 -34h-230v750zM511.999 1029l-155 -196h-73l-155 196h129l62 -78l63 78h129z" />
    <glyph glyph-name="dcaron" unicode="&#x10f;" horiz-adv-x="859" 
d="M303 110c38.667 0 71.667 14.5 99 43.5s41 70.167 41 123.5s-13.667 94.5 -41 123.5s-60.333 43.5 -99 43.5s-71.334 -14.5 -98.001 -43.5s-40 -70.167 -40 -123.5s13.333 -94.5 40 -123.5s59.334 -43.5 98.001 -43.5zM829 762l0.00292969 -120.999
c0 -35.333 -5.66699 -66.333 -17 -93s-26.833 -47.667 -46.5 -63s-40.334 -27 -62.001 -35s-44.834 -13.333 -69.501 -16l-14 71c38.667 6 68.167 19.167 88.5 39.5s31.166 46.166 32.499 77.499h-65v140h153zM572.003 0.000976562h-130.001v85
c-14.667 -30.667 -36.834 -54.5 -66.5 -71.5c-29.667 -17 -64.167 -25.5 -103.5 -25.5c-68.667 0 -126.167 25 -172.5 75s-69.5 120.667 -69.5 212c0 92 22.833 162.833 68.5 212.5s102.834 74.5 171.501 74.5c36.667 0 70 -7.16699 100 -21.5s53 -34.833 69 -61.5v283h133
v-762z" />
    <glyph glyph-name="Dcroat" unicode="&#x110;" horiz-adv-x="745" 
d="M214 131h92.999c80.667 0 143.834 25.833 189.501 77.5s68.5 112.167 68.5 181.5c0 64 -20.5 118.333 -61.5 163s-99.5 67 -175.5 67h-114v-210h155v-57h-155v-222zM74.999 750l248 0.00195312c61.334 0 116.667 -10 166 -30s89.5 -46.833 120.5 -80.5
s54.667 -71.834 71 -114.501s24.5 -87.667 24.5 -135c0 -48.667 -8.5 -95.834 -25.5 -141.501s-41.5 -87.167 -73.5 -124.5s-74 -67.333 -126 -90s-110.333 -34 -175 -34h-230v353h-85v57h85v340z" />
    <glyph glyph-name="dcroat" unicode="&#x111;" horiz-adv-x="623" 
d="M303 110c38.667 0 71.667 14.5 99 43.5s41 70.167 41 123.5s-13.667 94.5 -41 123.5s-60.333 43.5 -99 43.5s-71.334 -14.5 -98.001 -43.5s-40 -70.167 -40 -123.5s13.333 -94.5 40 -123.5s59.334 -43.5 98.001 -43.5zM613 620h-41.001v-620h-130v85
c-14.667 -30.667 -36.834 -54.5 -66.5 -71.5c-29.667 -17 -64.167 -25.5 -103.5 -25.5c-68.667 0 -126.167 25 -172.5 75s-69.5 120.667 -69.5 212c0 92 22.833 162.833 68.5 212.5s102.834 74.5 171.501 74.5c36.667 0 70 -7.16699 100 -21.5s53 -34.833 69 -61.5v141h-105
v57h105v85h133v-85h41v-57z" />
    <glyph glyph-name="Emacron" unicode="&#x112;" horiz-adv-x="629" 
d="M75 0v750h504v-130h-365v-175h347v-131h-347v-183h385v-131h-524zM168 834v100h319v-100h-319z" />
    <glyph glyph-name="emacron" unicode="&#x113;" horiz-adv-x="573" 
d="M295 447c-33.333 0 -62.5 -9.49902 -87.5 -28.499s-40.167 -47.5 -45.5 -85.5h251c-0.666992 35.333 -11.834 63.166 -33.5 83.499c-21.667 20.333 -49.834 30.5 -84.5 30.5zM543 236.001l-384 -0.00195312c1.33301 -42.667 15.333 -75.5 42 -98.5s60 -34.5 100 -34.5
c29.333 0 55 6.66699 77 20s36.333 33.333 43 60h121c-10 -61.333 -38.5 -109.166 -85.5 -143.499s-100.833 -51.5 -161.5 -51.5c-72.667 0 -135 24.667 -187 74s-78 120 -78 212c0 90.667 25.667 161.334 77 212.001s114.333 76 189 76c71.333 0 130.333 -23.5 177 -70.5
s70 -114.167 70 -201.5v-54zM132 649.999v100h319v-100h-319z" />
    <glyph glyph-name="Ebreve" unicode="&#x114;" horiz-adv-x="629" 
d="M75 0v750h504v-130h-365v-175h347v-131h-347v-183h385v-131h-524zM381 1012h83.998c6.66699 -13.333 10 -31 10 -53c0 -34 -11.167 -63.667 -33.5 -89s-56.166 -38 -101.499 -38s-79.166 12.667 -101.499 38s-33.5 55 -33.5 89c0 22 3.33301 39.667 10 53h84
c-5.33301 -11.3369 -8 -25.6699 -8 -42.999c0 -15.333 4 -28 12 -38s20.333 -15 37 -15s29 5 37 15s12 22.667 12 38c0 17.333 -2.66699 31.666 -8 42.999z" />
    <glyph glyph-name="ebreve" unicode="&#x115;" horiz-adv-x="573" 
d="M295 447c-33.333 0 -62.5 -9.49902 -87.5 -28.499s-40.167 -47.5 -45.5 -85.5h251c-0.666992 35.333 -11.834 63.166 -33.5 83.499c-21.667 20.333 -49.834 30.5 -84.5 30.5zM543 236.001l-384 -0.00195312c1.33301 -42.667 15.333 -75.5 42 -98.5s60 -34.5 100 -34.5
c29.333 0 55 6.66699 77 20s36.333 33.333 43 60h121c-10 -61.333 -38.5 -109.166 -85.5 -143.499s-100.833 -51.5 -161.5 -51.5c-72.667 0 -135 24.667 -187 74s-78 120 -78 212c0 90.667 25.667 161.334 77 212.001s114.333 76 189 76c71.333 0 130.333 -23.5 177 -70.5
s70 -114.167 70 -201.5v-54zM359 816.999h83.998c6.66699 -13.333 10 -31 10 -53c0 -34 -11.167 -63.667 -33.5 -89s-56.166 -38 -101.499 -38s-79.166 12.667 -101.499 38s-33.5 55 -33.5 89c0 22 3.33301 39.667 10 53h84c-5.33301 -11.3359 -8 -25.6689 -8 -42.999
c0 -15.333 4 -28 12 -38s20.333 -15 37 -15s29 5 37 15s12 22.667 12 38c0 17.333 -2.66699 31.666 -8 42.999z" />
    <glyph glyph-name="Edotaccent" unicode="&#x116;" horiz-adv-x="629" 
d="M75 0v750h504v-130h-365v-175h347v-131h-347v-183h385v-131h-524zM258 986h150v-154h-150v154z" />
    <glyph glyph-name="edotaccent" unicode="&#x117;" horiz-adv-x="573" 
d="M295 447c-33.333 0 -62.5 -9.49902 -87.5 -28.499s-40.167 -47.5 -45.5 -85.5h251c-0.666992 35.333 -11.834 63.166 -33.5 83.499c-21.667 20.333 -49.834 30.5 -84.5 30.5zM543 236.001l-384 -0.00195312c1.33301 -42.667 15.333 -75.5 42 -98.5s60 -34.5 100 -34.5
c29.333 0 55 6.66699 77 20s36.333 33.333 43 60h121c-10 -61.333 -38.5 -109.166 -85.5 -143.499s-100.833 -51.5 -161.5 -51.5c-72.667 0 -135 24.667 -187 74s-78 120 -78 212c0 90.667 25.667 161.334 77 212.001s114.333 76 189 76c71.333 0 130.333 -23.5 177 -70.5
s70 -114.167 70 -201.5v-54zM214 803.999h150v-154h-150v154z" />
    <glyph glyph-name="Eogonek" unicode="&#x118;" horiz-adv-x="629" 
d="M543 -48c0 -20.667 8.5 -36.5 25.5 -47.5s37.167 -17.5 60.5 -19.5v-66c-41.333 4 -76.5 17.333 -105.5 40s-43.5 49.667 -43.5 81c0 23.333 8.33301 43.333 25 60h-430v750h504v-130h-365v-175h347v-131h-347v-183h385v-131h-35c-14 -14 -21 -30 -21 -48z" />
    <glyph glyph-name="eogonek" unicode="&#x119;" horiz-adv-x="573" 
d="M162 333l251 0.000976562c-0.666992 35.333 -11.834 63.166 -33.5 83.499c-21.667 20.333 -49.834 30.5 -84.5 30.5c-33.333 0 -62.5 -9.5 -87.5 -28.5s-40.167 -47.5 -45.5 -85.5zM543 236.001h-384c1.33301 -42.667 15.333 -75.5 42 -98.5s60 -34.5 100 -34.5
c29.333 0 55 6.66699 77 20s36.333 33.333 43 60h121c-9.33301 -60 -36.5 -107 -81.5 -141s-97.167 -52 -156.5 -54c-7.33301 -10.667 -11 -22.667 -11 -36c0 -20.667 8.5 -36.5 25.5 -47.5s37.167 -17.5 60.5 -19.5v-66c-41.333 4 -76.5 17.333 -105.5 40
s-43.5 49.667 -43.5 81c0 18.667 5.66699 36 17 52c-62 10 -113.667 39.167 -155 87.5s-62 113.166 -62 194.499c0 90.667 25.667 161.334 77 212.001s114.333 76 189 76c71.333 0 130.333 -23.5 177 -70.5s70 -114.167 70 -201.5v-54z" />
    <glyph glyph-name="Ecaron" unicode="&#x11a;" horiz-adv-x="629" 
d="M75 0v750h504v-130h-365v-175h347v-131h-347v-183h385v-131h-524zM532 1029l-155 -196h-73l-155 196h129l62 -78l63 78h129z" />
    <glyph glyph-name="ecaron" unicode="&#x11b;" horiz-adv-x="573" 
d="M295 447c-33.333 0 -62.5 -9.49902 -87.5 -28.499s-40.167 -47.5 -45.5 -85.5h251c-0.666992 35.333 -11.834 63.166 -33.5 83.499c-21.667 20.333 -49.834 30.5 -84.5 30.5zM543 236.001l-384 -0.00195312c1.33301 -42.667 15.333 -75.5 42 -98.5s60 -34.5 100 -34.5
c29.333 0 55 6.66699 77 20s36.333 33.333 43 60h121c-10 -61.333 -38.5 -109.166 -85.5 -143.499s-100.833 -51.5 -161.5 -51.5c-72.667 0 -135 24.667 -187 74s-78 120 -78 212c0 90.667 25.667 161.334 77 212.001s114.333 76 189 76c71.333 0 130.333 -23.5 177 -70.5
s70 -114.167 70 -201.5v-54zM302 768.999l62 78h129l-155 -196h-73l-155 196h129z" />
    <glyph glyph-name="Gcircumflex" unicode="&#x11c;" horiz-adv-x="804" 
d="M734 402l0.000976562 -402h-130v83c-15.333 -27.333 -41.5 -51.166 -78.5 -71.499s-82.833 -30.5 -137.5 -30.5c-104 0 -188 37.833 -252 113.5s-96 169.167 -96 280.5c0 51.333 7.5 100 22.5 146s37 87.667 66 125s67.5 66.833 115.5 88.5s102.333 32.5 163 32.5
c90 0 164.667 -23.333 224 -70s93.666 -112.334 102.999 -197.001h-142c-4.66699 42 -24.667 75.333 -60 100s-78.333 37 -129 37c-72.667 0 -128.167 -24.833 -166.5 -74.5s-57.5 -112.167 -57.5 -187.5c0 -79.333 20.5 -143 61.5 -191s96.833 -72 167.5 -72
c52 0 96.333 13.667 133 41s58 67 64 119h-220v130h349zM409.001 910l-62 -78h-129l155 196h73l155 -196h-129z" />
    <glyph glyph-name="gcircumflex" unicode="&#x11d;" horiz-adv-x="622" 
d="M299 137c38 0 69.167 13.167 93.5 39.5s36.5 64.5 36.5 114.5s-12.167 88.167 -36.5 114.5s-55.5 39.5 -93.5 39.5c-39.333 0 -72.166 -13.167 -98.499 -39.5s-39.5 -64.5 -39.5 -114.5s13.167 -88.167 39.5 -114.5s59.166 -39.5 98.499 -39.5zM562 552
l-0.000976562 -514.999c0 -84.667 -24.167 -148.334 -72.5 -191.001s-111.833 -64 -190.5 -64c-72 0 -132 17.5 -180 52.5s-75.333 86.167 -82 153.5h129c10.667 -62.667 55.334 -94 134.001 -94c89.333 0 134 43 134 129v92c-28.667 -64.667 -83 -97 -163 -97
c-67.333 0 -124.333 23.333 -171 70s-70 114 -70 202s23.333 155.333 70 202s103.667 70 171 70c77.334 0 131.667 -29 163 -87v77h128zM321.999 728.001l-62 -78h-129l155 196h73l155 -196h-129z" />
    <glyph glyph-name="Gbreve" unicode="&#x11e;" horiz-adv-x="804" 
d="M734 402l0.000976562 -402h-130v83c-15.333 -27.333 -41.5 -51.166 -78.5 -71.499s-82.833 -30.5 -137.5 -30.5c-104 0 -188 37.833 -252 113.5s-96 169.167 -96 280.5c0 51.333 7.5 100 22.5 146s37 87.667 66 125s67.5 66.833 115.5 88.5s102.333 32.5 163 32.5
c90 0 164.667 -23.333 224 -70s93.666 -112.334 102.999 -197.001h-142c-4.66699 42 -24.667 75.333 -60 100s-78.333 37 -129 37c-72.667 0 -128.167 -24.833 -166.5 -74.5s-57.5 -112.167 -57.5 -187.5c0 -79.333 20.5 -143 61.5 -191s96.833 -72 167.5 -72
c52 0 96.333 13.667 133 41s58 67 64 119h-220v130h349zM464.001 1012h83.998c6.66699 -13.333 10 -31 10 -53c0 -34 -11.167 -63.667 -33.5 -89s-56.166 -38 -101.499 -38s-79.166 12.667 -101.499 38s-33.5 55 -33.5 89c0 22 3.33301 39.667 10 53h84
c-5.33301 -11.3369 -8 -25.6699 -8 -42.999c0 -15.333 4 -28 12 -38s20.333 -15 37 -15s29 5 37 15s12 22.667 12 38c0 17.333 -2.66699 31.666 -8 42.999z" />
    <glyph glyph-name="gbreve" unicode="&#x11f;" horiz-adv-x="622" 
d="M299 137c38 0 69.167 13.167 93.5 39.5s36.5 64.5 36.5 114.5s-12.167 88.167 -36.5 114.5s-55.5 39.5 -93.5 39.5c-39.333 0 -72.166 -13.167 -98.499 -39.5s-39.5 -64.5 -39.5 -114.5s13.167 -88.167 39.5 -114.5s59.166 -39.5 98.499 -39.5zM562 552
l-0.000976562 -514.999c0 -84.667 -24.167 -148.334 -72.5 -191.001s-111.833 -64 -190.5 -64c-72 0 -132 17.5 -180 52.5s-75.333 86.167 -82 153.5h129c10.667 -62.667 55.334 -94 134.001 -94c89.333 0 134 43 134 129v92c-28.667 -64.667 -83 -97 -163 -97
c-67.333 0 -124.333 23.333 -171 70s-70 114 -70 202s23.333 155.333 70 202s103.667 70 171 70c77.334 0 131.667 -29 163 -87v77h128zM344.999 817.001h83.998c6.66699 -13.333 10 -31 10 -53c0 -34 -11.167 -63.667 -33.5 -89s-56.166 -38 -101.499 -38
s-79.166 12.667 -101.499 38s-33.5 55 -33.5 89c0 22 3.33301 39.667 10 53h84c-5.33301 -11.3359 -8 -25.6689 -8 -42.999c0 -15.333 4 -28 12 -38s20.333 -15 37 -15s29 5 37 15s12 22.667 12 38c0 17.333 -2.66699 31.666 -8 42.999z" />
    <glyph glyph-name="Gdotaccent" unicode="&#x120;" horiz-adv-x="804" 
d="M734 402l0.000976562 -402h-130v83c-15.333 -27.333 -41.5 -51.166 -78.5 -71.499s-82.833 -30.5 -137.5 -30.5c-104 0 -188 37.833 -252 113.5s-96 169.167 -96 280.5c0 51.333 7.5 100 22.5 146s37 87.667 66 125s67.5 66.833 115.5 88.5s102.333 32.5 163 32.5
c90 0 164.667 -23.333 224 -70s93.666 -112.334 102.999 -197.001h-142c-4.66699 42 -24.667 75.333 -60 100s-78.333 37 -129 37c-72.667 0 -128.167 -24.833 -166.5 -74.5s-57.5 -112.167 -57.5 -187.5c0 -79.333 20.5 -143 61.5 -191s96.833 -72 167.5 -72
c52 0 96.333 13.667 133 41s58 67 64 119h-220v130h349zM327.001 986h150v-154h-150v154z" />
    <glyph glyph-name="gdotaccent" unicode="&#x121;" horiz-adv-x="622" 
d="M299 137c38 0 69.167 13.167 93.5 39.5s36.5 64.5 36.5 114.5s-12.167 88.167 -36.5 114.5s-55.5 39.5 -93.5 39.5c-39.333 0 -72.166 -13.167 -98.499 -39.5s-39.5 -64.5 -39.5 -114.5s13.167 -88.167 39.5 -114.5s59.166 -39.5 98.499 -39.5zM562 552
l-0.000976562 -514.999c0 -84.667 -24.167 -148.334 -72.5 -191.001s-111.833 -64 -190.5 -64c-72 0 -132 17.5 -180 52.5s-75.333 86.167 -82 153.5h129c10.667 -62.667 55.334 -94 134.001 -94c89.333 0 134 43 134 129v92c-28.667 -64.667 -83 -97 -163 -97
c-67.333 0 -124.333 23.333 -171 70s-70 114 -70 202s23.333 155.333 70 202s103.667 70 171 70c77.334 0 131.667 -29 163 -87v77h128zM208.999 804.001h150v-154h-150v154z" />
    <glyph glyph-name="uni0122" unicode="&#x122;" horiz-adv-x="804" 
d="M481 -71l0.000976562 -120.999c0 -35.333 -5.66699 -66.333 -17 -93s-26.833 -47.667 -46.5 -63s-40.334 -27 -62 -35c-21.667 -8 -44.834 -13.333 -69.501 -16l-14 71c38.667 6 68.167 19.167 88.5 39.5c20.335 20.333 31.168 46.166 32.5 77.499h-65v140h153z
M734.001 402.001l0.000976562 -402h-130v83c-15.333 -27.333 -41.5 -51.166 -78.5 -71.499s-82.833 -30.5 -137.5 -30.5c-104 0 -188 37.833 -252 113.5s-96 169.167 -96 280.5c0 51.333 7.5 100 22.5 146s37 87.667 66 125s67.5 66.833 115.5 88.5s102.333 32.5 163 32.5
c90 0 164.667 -23.333 224 -70s93.666 -112.334 102.999 -197.001h-142c-4.66699 42 -24.667 75.333 -60 100s-78.333 37 -129 37c-72.667 0 -128.167 -24.833 -166.5 -74.5s-57.5 -112.167 -57.5 -187.5c0 -79.333 20.5 -143 61.5 -191s96.833 -72 167.5 -72
c52 0 96.333 13.667 133 41s58 67 64 119h-220v130h349z" />
    <glyph glyph-name="uni0123" unicode="&#x123;" horiz-adv-x="622" 
d="M299 137c38 0 69.167 13.167 93.5 39.5s36.5 64.5 36.5 114.5s-12.167 88.167 -36.5 114.5s-55.5 39.5 -93.5 39.5c-39.333 0 -72.166 -13.167 -98.499 -39.5s-39.5 -64.5 -39.5 -114.5s13.167 -88.167 39.5 -114.5s59.166 -39.5 98.499 -39.5zM562 552
l-0.000976562 -514.999c0 -84.667 -24.167 -148.334 -72.5 -191.001s-111.833 -64 -190.5 -64c-72 0 -132 17.5 -180 52.5s-75.333 86.167 -82 153.5h129c10.667 -62.667 55.334 -94 134.001 -94c89.333 0 134 43 134 129v92c-28.667 -64.667 -83 -97 -163 -97
c-67.333 0 -124.333 23.333 -171 70s-70 114 -70 202s23.333 155.333 70 202s103.667 70 171 70c77.334 0 131.667 -29 163 -87v77h128zM207.999 627.001l-0.00292969 121c0 35.333 5.66699 66.333 17 93s26.833 47.667 46.5 63s40.334 27 62.001 35
s44.834 13.333 69.501 16l14 -71c-38.667 -6 -68.167 -19.167 -88.5 -39.5c-20.333 -20.335 -31.166 -46.168 -32.499 -77.5h65v-140h-153z" />
    <glyph glyph-name="Hcircumflex" unicode="&#x124;" horiz-adv-x="768" 
d="M693 0h-139v313h-340v-313h-139v750h139v-307h340v307h139v-750zM384 910l-62 -78h-129l155 196h73l155 -196h-129z" />
    <glyph glyph-name="hcircumflex" unicode="&#x125;" horiz-adv-x="602" 
d="M362 562c60 0 104.998 -17.668 134.998 -53.001s45 -86.333 45 -153v-356h-133v344c0 30.667 -8.16699 54.834 -24.5 72.501s-39.166 26.5 -68.499 26.5c-36 0 -64.667 -13 -86 -39s-32 -61.333 -32 -106v-298h-133v750h133v-276c36.667 58.667 91.334 88 164.001 88z
M408.998 727.999l-62 -78h-129l155 196h73l155 -196h-129z" />
    <glyph glyph-name="Hbar" unicode="&#x126;" horiz-adv-x="800" 
d="M579 528h-340v-85h340v85zM795 528h-77v-528h-139v313h-340v-313h-139v528h-95v53h95v169h139v-169h340v169h139v-169h77v-53z" />
    <glyph glyph-name="hbar" unicode="&#x127;" horiz-adv-x="610" 
d="M370 562c60 0 104.998 -17.668 134.998 -53.001s45 -86.333 45 -153v-356h-133v344c0 30.667 -8.16699 54.834 -24.5 72.501s-39.166 26.5 -68.499 26.5c-36 0 -64.667 -13 -86 -39s-32 -61.333 -32 -106v-298h-133v620h-63v57h63v73h133v-73h83v-57h-83v-146
c36.667 58.667 91.334 88 164.001 88z" />
    <glyph glyph-name="Itilde" unicode="&#x128;" horiz-adv-x="300" 
d="M219 0h-139v750h139v-750zM261 988h78.002c-0.667969 -51.335 -11.335 -91.168 -32 -119.5c-20.667 -28.333 -46.334 -42.5 -77 -42.5c-17.333 0 -34.5 5 -51.5 15s-32 20.167 -45 30.5s-23.833 15.5 -32.5 15.5c-20.667 0 -32 -18.333 -34 -55h-78
c0 49.333 10.333 88.333 31 117s46.667 43 78 43c23.333 0 48.666 -10.333 75.999 -31s45 -31 53 -31c19.333 0 30.666 19.333 33.999 58z" />
    <glyph glyph-name="itilde" unicode="&#x129;" horiz-adv-x="253" 
d="M60 552h133v-552h-133v552zM231 806h78.0029c-0.666992 -51.334 -11.334 -91.167 -32 -119.5c-20.667 -28.333 -46.334 -42.5 -77.001 -42.5c-17.333 0 -34.5 5 -51.5 15s-32 20.167 -45 30.5s-23.833 15.5 -32.5 15.5c-20.667 0 -32 -18.333 -34 -55h-78
c0 49.333 10.333 88.333 31 117s46.667 43 78 43c23.333 0 48.666 -10.333 75.999 -31s45 -31 53 -31c19.333 0 30.666 19.333 33.999 58z" />
    <glyph glyph-name="Imacron" unicode="&#x12a;" horiz-adv-x="300" 
d="M220 0h-139v750h139v-750zM-9 834v100h319v-100h-319z" />
    <glyph glyph-name="imacron" unicode="&#x12b;" horiz-adv-x="253" 
d="M60 552h133v-552h-133v552zM-33 650v100h319v-100h-319z" />
    <glyph glyph-name="Iogonek" unicode="&#x12e;" horiz-adv-x="300" 
d="M219 0l-85 -0.000976562c-14 -14 -21 -30 -21 -48c0 -20.667 8.5 -36.5 25.5 -47.5s37.167 -17.5 60.5 -19.5v-66c-41.333 4 -76.5 17.333 -105.5 40s-43.5 49.667 -43.5 81c0 26.667 10 48.334 30 65.001v745h139v-750z" />
    <glyph glyph-name="iogonek" unicode="&#x12f;" horiz-adv-x="261" 
d="M65 552h133v-552h-77c-14 -14 -21 -30 -21 -48c0 -20.667 8.5 -36.5 25.5 -47.5s37.167 -17.5 60.5 -19.5v-66c-41.333 4 -76.5 17.333 -105.5 40s-43.5 49.667 -43.5 81c0 26.667 9.33301 47.667 28 63v549zM202 776v-151h-141v151h141z" />
    <glyph glyph-name="Idotaccent" unicode="&#x130;" horiz-adv-x="300" 
d="M219 0h-139v750h139v-750zM75 986h150v-154h-150v154z" />
    <glyph glyph-name="dotlessi" unicode="&#x131;" horiz-adv-x="253" 
d="M60 552h133v-552h-133v552z" />
    <glyph glyph-name="IJ" unicode="&#x132;" horiz-adv-x="839" 
d="M774 750v-519c0 -82 -21.5 -144.333 -64.5 -187s-98.5 -64 -166.5 -64c-67.333 0 -122.333 20.5 -165 61.5s-64 98.833 -64 173.5v61h139v-65c0 -31.334 7.83301 -55.167 23.5 -71.5s38.167 -24.5 67.5 -24.5c60.667 0 91 34 91 102v533h139zM219 0h-139v750h139v-750z
" />
    <glyph glyph-name="ij" unicode="&#x133;" horiz-adv-x="544" 
d="M485 552v-578.001c0 -69.333 -14 -116.666 -42 -141.999s-70.333 -38 -127 -38h-65v118h45c22 0 36.833 4.66699 44.5 14s11.5 23.333 11.5 42v584h133zM64 551.999h133v-552h-133v552zM489 624.999h-141v151h141v-151zM60 624.999v151h141v-151h-141z" />
    <glyph glyph-name="Jcircumflex" unicode="&#x134;" horiz-adv-x="540" 
d="M475 750v-519c0 -82 -21.5 -144.333 -64.5 -187s-98.5 -64 -166.5 -64c-67.333 0 -122.333 20.5 -165 61.5s-64 98.833 -64 173.5v61h139v-65c0 -31.334 7.83301 -55.167 23.5 -71.5s38.167 -24.5 67.5 -24.5c60.667 0 91 34 91 102v533h139zM417 910l-62 -78h-129
l155 196h73l155 -196h-129z" />
    <glyph glyph-name="jcircumflex" unicode="&#x135;" horiz-adv-x="279" 
d="M224 552v-578.001c0 -69.333 -14 -116.666 -42 -141.999s-70.333 -38 -127 -38h-65v118h45c22 0 36.833 4.66699 44.5 14s11.5 23.333 11.5 42v584h133zM171 727.999l-62 -78h-129l155 196h73l155 -196h-129z" />
    <glyph glyph-name="uni0136" unicode="&#x136;" horiz-adv-x="711" 
d="M291 -71l153.002 0.000976562v-121c0 -35.333 -5.66699 -66.333 -17 -93s-26.833 -47.667 -46.5 -63s-40.334 -27 -62.001 -35s-44.834 -13.333 -69.501 -16l-14 71c38.667 6 68.167 19.167 88.5 39.5c20.335 20.333 31.168 46.166 32.5 77.499h-65v140z
M706.002 0.000976562h-180l-233 333l-79 -81v-252h-139v750h139v-316l294 316h187l-300 -310z" />
    <glyph glyph-name="uni0137" unicode="&#x137;" horiz-adv-x="587" 
d="M223 -71l153.001 0.000976562v-121c0 -35.333 -5.66699 -66.333 -17 -93s-26.833 -47.667 -46.5 -63s-40.334 -27 -62 -35c-21.667 -8 -44.834 -13.333 -69.501 -16l-14 71c38.667 6 68.167 19.167 88.5 39.5c20.334 20.333 31.167 46.166 32.5 77.499h-65v140z
M577.001 0.000976562h-164l-152 215l-63 -68v-147h-133v762h133v-433l197 223h173l-216 -237z" />
    <glyph glyph-name="kgreenlandic" unicode="&#x138;" horiz-adv-x="587" 
d="M260 215l-62 -68v-147h-133v552h133v-223l197 223h173l-216 -237l225 -315h-162z" />
    <glyph glyph-name="Lacute" unicode="&#x139;" horiz-adv-x="590" 
d="M570 0h-495v750h139v-619h356v-131zM139 832l152 237l104 -79l-144 -158h-112z" />
    <glyph glyph-name="lacute" unicode="&#x13a;" horiz-adv-x="398" 
d="M198 0h-133v762h133v-762zM77 832l152 237l104 -79l-144 -158h-112z" />
    <glyph glyph-name="uni013B" unicode="&#x13b;" horiz-adv-x="590" 
d="M397 -71l0.000976562 -120.999c0 -35.333 -5.66699 -66.333 -17 -93s-26.833 -47.667 -46.5 -63s-40.334 -27 -62 -35c-21.667 -8 -44.834 -13.333 -69.501 -16l-14 71c38.667 6 68.167 19.167 88.5 39.5c20.335 20.333 31.168 46.166 32.5 77.499h-65v140h153z
M570.001 0.000976562h-495v750h139v-619h356v-131z" />
    <glyph glyph-name="uni013C" unicode="&#x13c;" horiz-adv-x="263" 
d="M210 -71l0.00292969 -120.999c0 -35.333 -5.66699 -66.333 -17 -93s-26.833 -47.667 -46.5 -63s-40.334 -27 -62.001 -35s-44.834 -13.333 -69.501 -16l-14 71c38.667 6 68.167 19.167 88.5 39.5s31.166 46.166 32.499 77.499h-65v140h153zM198.003 0.000976562h-133v762
h133v-762z" />
    <glyph glyph-name="Lcaron" unicode="&#x13d;" horiz-adv-x="698" 
d="M570 0h-495v750h139v-619h356v-131zM688 762l0.00292969 -120.999c0 -35.333 -5.66699 -66.333 -17 -93s-26.833 -47.667 -46.5 -63s-40.334 -27 -62.001 -35s-44.834 -13.333 -69.501 -16l-14 71c38.667 6 68.167 19.167 88.5 39.5s31.166 46.166 32.499 77.499h-65v140
h153z" />
    <glyph glyph-name="lcaron" unicode="&#x13e;" horiz-adv-x="502" 
d="M472 762v-120.999c0 -35.333 -5.66699 -66.333 -17 -93s-26.833 -47.667 -46.5 -63s-40.334 -27 -62 -35c-21.667 -8 -44.834 -13.333 -69.5 -16l-14 71c38.667 6 68.167 19.167 88.5 39.5c20.334 20.333 31.167 46.166 32.5 77.499h-65v140h153zM198 0.000976562h-133
v762h133v-762z" />
    <glyph glyph-name="Ldot" unicode="&#x13f;" horiz-adv-x="590" 
d="M440 604h150v-154h-150v154zM570 0h-495v750h139v-619h356v-131z" />
    <glyph glyph-name="ldot" unicode="&#x140;" horiz-adv-x="446" 
d="M266 538h150v-154h-150v154zM198 0h-133v762h133v-762z" />
    <glyph glyph-name="Lslash" unicode="&#x141;" horiz-adv-x="690" 
d="M670 131v-131h-495v270l-100 -53v67l100 53v413h139v-341l180 95v-67l-180 -95v-211h356z" />
    <glyph glyph-name="lslash" unicode="&#x142;" horiz-adv-x="386" 
d="M321 392l-62 -32v-360h-133v290l-61 -32v67l61 32v405h133v-335l62 32v-67z" />
    <glyph glyph-name="Nacute" unicode="&#x143;" horiz-adv-x="769" 
d="M694 0h-148l-334 529v-529h-137v750h161l321 -515v515h137v-750zM342 832l152 237l104 -79l-144 -158h-112z" />
    <glyph glyph-name="nacute" unicode="&#x144;" horiz-adv-x="602" 
d="M362 562c60 0 104.999 -17.668 134.999 -53.001s45 -86.333 45 -153v-356h-133v344c0 30.667 -8.16699 54.834 -24.5 72.501s-39.166 26.5 -68.499 26.5c-36 0 -64.667 -13 -86 -39s-32 -61.333 -32 -106v-298h-133v552h132v-80c36.667 60 91.667 90 165 90z
M302.999 649.999l152 237l104 -79l-144 -158h-112z" />
    <glyph glyph-name="uni0145" unicode="&#x145;" horiz-adv-x="769" 
d="M452 -71v-120.999c0 -35.333 -5.66699 -66.333 -17 -93s-26.833 -47.667 -46.5 -63s-40.334 -27 -62 -35c-21.667 -8 -44.834 -13.333 -69.5 -16l-14 71c38.667 6 68.167 19.167 88.5 39.5c20.335 20.333 31.168 46.166 32.5 77.499h-65v140h153zM694 0.000976562h-148
l-334 529v-529h-137v750h161l321 -515v515h137v-750z" />
    <glyph glyph-name="uni0146" unicode="&#x146;" horiz-adv-x="602" 
d="M370 -71l0.00195312 -120.999c0 -35.333 -5.66699 -66.333 -17 -93s-26.833 -47.667 -46.5 -63s-40.334 -27 -62 -35c-21.667 -8 -44.834 -13.333 -69.501 -16l-14 71c38.667 6 68.167 19.167 88.5 39.5c20.334 20.333 31.167 46.166 32.499 77.499h-65v140h153z
M362.002 562.001c60 0 104.999 -17.668 134.999 -53.001s45 -86.333 45 -153v-356h-133v344c0 30.667 -8.16699 54.834 -24.5 72.501s-39.166 26.5 -68.499 26.5c-36 0 -64.667 -13 -86 -39s-32 -61.333 -32 -106v-298h-133v552h132v-80c36.667 60 91.667 90 165 90z" />
    <glyph glyph-name="Ncaron" unicode="&#x147;" horiz-adv-x="769" 
d="M694 0h-148l-334 529v-529h-137v750h161l321 -515v515h137v-750zM600 1029l-155 -196h-73l-155 196h129l62 -78l63 78h129z" />
    <glyph glyph-name="ncaron" unicode="&#x148;" horiz-adv-x="602" 
d="M362 562c60 0 104.999 -17.668 134.999 -53.001s45 -86.333 45 -153v-356h-133v344c0 30.667 -8.16699 54.834 -24.5 72.501s-39.166 26.5 -68.499 26.5c-36 0 -64.667 -13 -86 -39s-32 -61.333 -32 -106v-298h-133v552h132v-80c36.667 60 91.667 90 165 90z
M341.999 768.999l62 78h129l-155 -196h-73l-155 196h129z" />
    <glyph glyph-name="napostrophe" unicode="&#x149;" horiz-adv-x="840" 
d="M600 562c60 0 105 -17.668 135 -53.001s45 -86.333 45 -153v-356h-133v344c0 30.667 -8.16699 54.834 -24.5 72.501c-16.335 17.667 -39.168 26.5 -68.5 26.5c-36 0 -64.667 -13 -86 -39s-32 -61.333 -32 -106v-298h-133v552h132v-80c36.667 60 91.667 90 165 90z
M249 751.999l0.00292969 -120.999c0 -35.333 -5.66699 -66.333 -17 -93s-26.833 -47.667 -46.5 -63s-40.334 -27 -62.001 -35s-44.834 -13.333 -69.501 -16l-14 71c38.667 6 68.167 19.167 88.5 39.5s31.166 46.166 32.499 77.499h-65v140h153z" />
    <glyph glyph-name="Eng" unicode="&#x14a;" horiz-adv-x="769" 
d="M694 750v-776.001c0 -69.333 -14 -116.666 -42 -141.999s-70.333 -38 -127 -38h-65v118h45c22 0 36.833 4.66699 44.5 14s11.5 23.333 11.5 42v31l-349 521v-520h-137v750h161l321 -515v515h137z" />
    <glyph glyph-name="eng" unicode="&#x14b;" horiz-adv-x="597" 
d="M362 562c60 0 104.999 -17.6689 134.999 -53.002s45 -86.333 45 -153v-382c0 -69.333 -14 -116.666 -42 -141.999s-70.333 -38 -127 -38h-65v118h45c22 0 36.833 4.66699 44.5 14s11.5 23.333 11.5 42v376c0 30.667 -8.16699 54.834 -24.5 72.501
s-39.166 26.5 -68.499 26.5c-36 0 -64.667 -13 -86 -39s-32 -61.333 -32 -106v-298h-133v552h132v-80c36.667 60 91.667 90 165 90z" />
    <glyph glyph-name="Omacron" unicode="&#x14c;" horiz-adv-x="831" 
d="M418 634c-72 0 -129.499 -24.499 -172.499 -73.499s-64.5 -111.833 -64.5 -188.5c0 -74 21.333 -135.333 64 -184s99.667 -73 171 -73s128.166 24.667 170.499 74s63.5 112 63.5 188c0 74 -20.833 135.333 -62.5 183.999c-41.667 48.667 -98.167 73 -169.5 73z
M418.001 -18.999c-110.667 0 -201.333 38.167 -272 114.5s-106 169.5 -106 279.5s35 203 105 279s160.333 114 271 114s200.834 -38 270.5 -114c69.667 -76 104.5 -169 104.5 -279s-34.667 -203.167 -104 -279.5s-159 -114.5 -269 -114.5zM256.002 834.001v100h319v-100
h-319z" />
    <glyph glyph-name="omacron" unicode="&#x14d;" horiz-adv-x="599" 
d="M298 438c-40 0 -71.999 -14.5 -95.999 -43.5s-36 -70.167 -36 -123.5c0 -50.667 12.667 -89.834 38 -117.501s57.666 -41.5 96.999 -41.5c40 0 72 14.5 96 43.5s36 70.167 36 123.5c0 50.667 -12.833 89.834 -38.5 117.501s-57.834 41.5 -96.5 41.5zM299.001 562
c79.334 0 144.166 -25.833 194.499 -77.5s75.5 -121.5 75.5 -209.5s-25.167 -157.833 -75.5 -209.5s-115.166 -77.5 -194.499 -77.5c-78.667 0 -143.167 25.833 -193.5 77.5s-75.5 121.5 -75.5 209.5s25.167 157.833 75.5 209.5s114.833 77.5 193.5 77.5zM140 650v100h319
v-100h-319z" />
    <glyph glyph-name="Obreve" unicode="&#x14e;" horiz-adv-x="831" 
d="M418 634c-72 0 -129.499 -24.499 -172.499 -73.499s-64.5 -111.833 -64.5 -188.5c0 -74 21.333 -135.333 64 -184s99.667 -73 171 -73s128.166 24.667 170.499 74s63.5 112 63.5 188c0 74 -20.833 135.333 -62.5 183.999c-41.667 48.667 -98.167 73 -169.5 73z
M418.001 -18.999c-110.667 0 -201.333 38.167 -272 114.5s-106 169.5 -106 279.5s35 203 105 279s160.333 114 271 114s200.834 -38 270.5 -114c69.667 -76 104.5 -169 104.5 -279s-34.667 -203.167 -104 -279.5s-159 -114.5 -269 -114.5zM463.002 1012h83.998
c6.66699 -13.333 10 -31 10 -53c0 -34 -11.167 -63.667 -33.5 -89s-56.166 -38 -101.499 -38s-79.166 12.667 -101.499 38s-33.5 55 -33.5 89c0 22 3.33301 39.667 10 53h84c-5.33301 -11.3369 -8 -25.6699 -8 -42.999c0 -15.333 4 -28 12 -38s20.333 -15 37 -15s29 5 37 15
s12 22.667 12 38c0 17.333 -2.66699 31.666 -8 42.999z" />
    <glyph glyph-name="obreve" unicode="&#x14f;" horiz-adv-x="599" 
d="M298 438c-40 0 -71.999 -14.5 -95.999 -43.5s-36 -70.167 -36 -123.5c0 -50.667 12.667 -89.834 38 -117.501s57.666 -41.5 96.999 -41.5c40 0 72 14.5 96 43.5s36 70.167 36 123.5c0 50.667 -12.833 89.834 -38.5 117.501s-57.834 41.5 -96.5 41.5zM299.001 562
c79.334 0 144.166 -25.833 194.499 -77.5s75.5 -121.5 75.5 -209.5s-25.167 -157.833 -75.5 -209.5s-115.166 -77.5 -194.499 -77.5c-78.667 0 -143.167 25.833 -193.5 77.5s-75.5 121.5 -75.5 209.5s25.167 157.833 75.5 209.5s114.833 77.5 193.5 77.5zM347 817h83.998
c6.66699 -13.333 10 -31 10 -53c0 -34 -11.167 -63.667 -33.5 -89s-56.166 -38 -101.499 -38s-79.166 12.667 -101.499 38s-33.5 55 -33.5 89c0 22 3.33301 39.667 10 53h84c-5.33301 -11.3359 -8 -25.6689 -8 -42.999c0 -15.333 4 -28 12 -38s20.333 -15 37 -15s29 5 37 15
s12 22.667 12 38c0 17.333 -2.66699 31.666 -8 42.999z" />
    <glyph glyph-name="Ohungarumlaut" unicode="&#x150;" horiz-adv-x="831" 
d="M418 634c-72 0 -129.499 -24.499 -172.499 -73.499s-64.5 -111.833 -64.5 -188.5c0 -74 21.333 -135.333 64 -184s99.667 -73 171 -73s128.166 24.667 170.499 74s63.5 112 63.5 188c0 74 -20.833 135.333 -62.5 183.999c-41.667 48.667 -98.167 73 -169.5 73z
M418.001 -18.999c-110.667 0 -201.333 38.167 -272 114.5s-106 169.5 -106 279.5s35 203 105 279s160.333 114 271 114s200.834 -38 270.5 -114c69.667 -76 104.5 -169 104.5 -279s-34.667 -203.167 -104 -279.5s-159 -114.5 -269 -114.5zM522.002 832.001h-72l45 168h84z
M385.002 832.001h-71l45 168h84z" />
    <glyph glyph-name="ohungarumlaut" unicode="&#x151;" horiz-adv-x="599" 
d="M298 438c-40 0 -71.999 -14.5 -95.999 -43.5s-36 -70.167 -36 -123.5c0 -50.667 12.667 -89.834 38 -117.501s57.666 -41.5 96.999 -41.5c40 0 72 14.5 96 43.5s36 70.167 36 123.5c0 50.667 -12.833 89.834 -38.5 117.501s-57.834 41.5 -96.5 41.5zM299.001 562
c79.334 0 144.166 -25.833 194.499 -77.5s75.5 -121.5 75.5 -209.5s-25.167 -157.833 -75.5 -209.5s-115.166 -77.5 -194.499 -77.5c-78.667 0 -143.167 25.833 -193.5 77.5s-75.5 121.5 -75.5 209.5s25.167 157.833 75.5 209.5s114.833 77.5 193.5 77.5zM424 650h-72
l45 168h84zM287 650h-71l45 168h84z" />
    <glyph glyph-name="Racute" unicode="&#x154;" horiz-adv-x="687" 
d="M213 427l150 -0.000976562c36.667 0 65.167 9.83301 85.5 29.5s30.5 42.834 30.5 69.501s-8.5 49 -25.5 67s-43.5 27 -79.5 27h-161v-193zM522 -0.000976562l-197 298.998h-112v-299h-138v750h293c80 0 141.667 -21.5 185 -64.5s65 -94.167 65 -153.5
c0 -45.333 -12.667 -87.166 -38 -125.499s-61 -65.166 -107 -80.499l214 -326h-165zM274 831.997l152 237l104 -79l-144 -158h-112z" />
    <glyph glyph-name="racute" unicode="&#x155;" horiz-adv-x="397" 
d="M377 429h-35c-96 0 -144 -53 -144 -159v-270h-133v552h132v-79c26.667 56.667 74.667 85 144 85h36v-129zM187 650l152 237l104 -79l-144 -158h-112z" />
    <glyph glyph-name="uni0156" unicode="&#x156;" horiz-adv-x="687" 
d="M419 -71l0.000976562 -120.999c0 -35.333 -5.66699 -66.333 -17 -93s-26.833 -47.667 -46.5 -63s-40.334 -27 -62 -35c-21.667 -8 -44.834 -13.333 -69.501 -16l-14 71c38.667 6 68.167 19.167 88.5 39.5c20.335 20.333 31.168 46.166 32.5 77.499h-65v140h153z
M213.001 427.001l150 -0.000976562c36.667 0 65.167 9.83301 85.5 29.5s30.5 42.834 30.5 69.501s-8.5 49 -25.5 67s-43.5 27 -79.5 27h-161v-193zM522.001 0l-197 298.998h-112v-299h-138v750h293c80 0 141.667 -21.5 185 -64.5s65 -94.167 65 -153.5
c0 -45.333 -12.667 -87.166 -38 -125.499s-61 -65.166 -107 -80.499l214 -326h-165z" />
    <glyph glyph-name="uni0157" unicode="&#x157;" horiz-adv-x="397" 
d="M212 -71l0.00292969 -120.999c0 -35.333 -5.66699 -66.333 -17 -93s-26.833 -47.667 -46.5 -63s-40.334 -27 -62.001 -35s-44.834 -13.333 -69.501 -16l-14 71c38.667 6 68.167 19.167 88.5 39.5s31.166 46.166 32.499 77.499h-65v140h153zM377.003 429.001h-35
c-96 0 -144 -53 -144 -159v-270h-133v552h132v-79c26.667 56.667 74.667 85 144 85h36v-129z" />
    <glyph glyph-name="Rcaron" unicode="&#x158;" horiz-adv-x="687" 
d="M213 427l150 -0.000976562c36.667 0 65.167 9.83301 85.5 29.5s30.5 42.834 30.5 69.501s-8.5 49 -25.5 67s-43.5 27 -79.5 27h-161v-193zM522 -0.000976562l-197 298.998h-112v-299h-138v750h293c80 0 141.667 -21.5 185 -64.5s65 -94.167 65 -153.5
c0 -45.333 -12.667 -87.166 -38 -125.499s-61 -65.166 -107 -80.499l214 -326h-165zM529 1029l-155 -196h-73l-155 196h129l62 -78l63 78h129z" />
    <glyph glyph-name="rcaron" unicode="&#x159;" horiz-adv-x="397" 
d="M377 429h-35c-96 0 -144 -53 -144 -159v-270h-133v552h132v-79c26.667 56.667 74.667 85 144 85h36v-129zM241 769l62 78h129l-155 -196h-73l-155 196h129z" />
    <glyph glyph-name="Sacute" unicode="&#x15a;" horiz-adv-x="654" 
d="M619 210c0 -72 -26.3359 -128.166 -79.0029 -168.499s-118 -60.5 -196 -60.5c-39.333 0 -77.166 5.66699 -113.499 17s-69.166 27.833 -98.499 49.5s-52.833 50.334 -70.5 86.001s-26.5 76.167 -26.5 121.5h140c2 -52 19.167 -90.833 51.5 -116.5
c32.334 -25.667 71.167 -38.5 116.5 -38.5c38 0 70.333 9.16699 97 27.5s40 42.833 40 73.5c0 17.333 -4.16699 32.166 -12.5 44.499s-21 22.333 -38 30s-33.667 14 -50 19s-36.833 10.167 -61.5 15.5c-4.66699 0.666992 -8 1.33398 -10 2.00098
c-35.333 8.66699 -65 17.167 -89 25.5s-49.5 20.833 -76.5 37.5s-47.5 38.5 -61.5 65.5s-21 59.167 -21 96.5c0 74 26 131 78 171s116.333 60 193 60s141.834 -19.833 195.501 -59.5s80.5 -95.834 80.5 -168.501h-141c-2 36 -16.167 62.667 -42.5 80s-58.833 26 -97.5 26
s-69.834 -8.16699 -93.5 -24.5c-23.667 -16.333 -35.5 -40.5 -35.5 -72.5c0 -32.667 12.833 -56.834 38.5 -72.501s64.167 -29.167 115.5 -40.5c77.334 -16.667 132.667 -34.334 166 -53c68 -38 102 -95.667 102 -173zM283.997 832.001l152 237l104 -79l-144 -158h-112z" />
    <glyph glyph-name="sacute" unicode="&#x15b;" horiz-adv-x="531" 
d="M287 329c71.333 -10.667 119.999 -22.665 145.999 -35.998c48.667 -24.667 73 -65.334 73 -122.001c0 -58.667 -22.333 -103.834 -67 -135.501s-100.334 -47.5 -167 -47.5c-30.667 0 -59.667 3.5 -87 10.5s-53 17.833 -77 32.5s-43.5 35 -58.5 61
s-23.167 56.333 -24.5 91h134c5.33301 -56.667 45.333 -85 120 -85c64 0 96 20 96 60c0 16 -6.83301 27.5 -20.5 34.5s-40.834 13.833 -81.5 20.5c-19.334 3.33301 -31.667 5.5 -37 6.5s-17 3.33301 -35 7s-30.167 6.83398 -36.5 9.5
c-6.33301 2.66699 -16.833 6.66699 -31.5 12s-25 10.666 -31 15.999c-6 5.33398 -13.833 12.167 -23.5 20.499c-9.66699 8.33301 -16.5 17.333 -20.5 27s-7.66699 20.834 -11 33.501s-5 26.334 -5 41.001c0 58.667 20.833 102.667 62.5 132s93.834 44 156.501 44
c66.667 0 121 -16.167 163 -48.5s65 -78.5 69 -138.5h-130c-4.66699 50.667 -38 76 -100 76c-30.667 0 -53.667 -5.83301 -69 -17.5s-23 -26.167 -23 -43.5c0 -19.333 9 -32.833 27 -40.5s47.667 -14.5 89 -20.5zM231.999 650.002l152 237l104 -79l-144 -158h-112z" />
    <glyph glyph-name="Scircumflex" unicode="&#x15c;" horiz-adv-x="654" 
d="M619 210c0 -72 -26.3359 -128.166 -79.0029 -168.499s-118 -60.5 -196 -60.5c-39.333 0 -77.166 5.66699 -113.499 17s-69.166 27.833 -98.499 49.5s-52.833 50.334 -70.5 86.001s-26.5 76.167 -26.5 121.5h140c2 -52 19.167 -90.833 51.5 -116.5
c32.334 -25.667 71.167 -38.5 116.5 -38.5c38 0 70.333 9.16699 97 27.5s40 42.833 40 73.5c0 17.333 -4.16699 32.166 -12.5 44.499s-21 22.333 -38 30s-33.667 14 -50 19s-36.833 10.167 -61.5 15.5c-4.66699 0.666992 -8 1.33398 -10 2.00098
c-35.333 8.66699 -65 17.167 -89 25.5s-49.5 20.833 -76.5 37.5s-47.5 38.5 -61.5 65.5s-21 59.167 -21 96.5c0 74 26 131 78 171s116.333 60 193 60s141.834 -19.833 195.501 -59.5s80.5 -95.834 80.5 -168.501h-141c-2 36 -16.167 62.667 -42.5 80s-58.833 26 -97.5 26
s-69.834 -8.16699 -93.5 -24.5c-23.667 -16.333 -35.5 -40.5 -35.5 -72.5c0 -32.667 12.833 -56.834 38.5 -72.501s64.167 -29.167 115.5 -40.5c77.334 -16.667 132.667 -34.334 166 -53c68 -38 102 -95.667 102 -173zM348.997 910.001l-62 -78h-129l155 196h73l155 -196
h-129z" />
    <glyph glyph-name="scircumflex" unicode="&#x15d;" horiz-adv-x="531" 
d="M287 329c71.333 -10.667 119.999 -22.665 145.999 -35.998c48.667 -24.667 73 -65.334 73 -122.001c0 -58.667 -22.333 -103.834 -67 -135.501s-100.334 -47.5 -167 -47.5c-30.667 0 -59.667 3.5 -87 10.5s-53 17.833 -77 32.5s-43.5 35 -58.5 61
s-23.167 56.333 -24.5 91h134c5.33301 -56.667 45.333 -85 120 -85c64 0 96 20 96 60c0 16 -6.83301 27.5 -20.5 34.5s-40.834 13.833 -81.5 20.5c-19.334 3.33301 -31.667 5.5 -37 6.5s-17 3.33301 -35 7s-30.167 6.83398 -36.5 9.5
c-6.33301 2.66699 -16.833 6.66699 -31.5 12s-25 10.666 -31 15.999c-6 5.33398 -13.833 12.167 -23.5 20.499c-9.66699 8.33301 -16.5 17.333 -20.5 27s-7.66699 20.834 -11 33.501s-5 26.334 -5 41.001c0 58.667 20.833 102.667 62.5 132s93.834 44 156.501 44
c66.667 0 121 -16.167 163 -48.5s65 -78.5 69 -138.5h-130c-4.66699 50.667 -38 76 -100 76c-30.667 0 -53.667 -5.83301 -69 -17.5s-23 -26.167 -23 -43.5c0 -19.333 9 -32.833 27 -40.5s47.667 -14.5 89 -20.5zM285.999 728.002l-62 -78h-129l155 196h73l155 -196h-129z
" />
    <glyph glyph-name="Scedilla" unicode="&#x15e;" horiz-adv-x="654" 
d="M619 210c0 -70.667 -25.168 -125.999 -75.501 -165.999s-113.5 -61 -189.5 -63v-25c32.667 -2 58.667 -10.333 78 -25s29 -34.334 29 -59.001c0 -26 -10.333 -47.5 -31 -64.5s-48.667 -25.5 -84 -25.5c-44 0 -81.333 13.333 -112 40l34 52
c25.334 -20.667 49.667 -31 73 -31c15.335 0 27.168 3 35.5 9c8.33301 6 12.5 13.667 12.5 23c0 12.667 -8 23.334 -24 32.001s-40 13 -72 13l10 63c-76 7.33301 -139.667 34.333 -191 81s-77 110.334 -77 191.001h140c2 -52 19.167 -90.833 51.5 -116.5
c32.334 -25.667 71.167 -38.5 116.5 -38.5c38 0 70.333 9.16699 97 27.5s40 42.833 40 73.5c0 17.333 -4.16699 32.166 -12.5 44.499s-21 22.333 -38 30s-33.667 14 -50 19s-36.833 10.167 -61.5 15.5c-4.66699 0.666992 -8 1.33398 -10 2.00098
c-35.333 8.66699 -65 17.167 -89 25.5s-49.5 20.833 -76.5 37.5s-47.5 38.5 -61.5 65.5s-21 59.167 -21 96.5c0 74 26 131 78 171s116.333 60 193 60s141.834 -19.833 195.501 -59.5s80.5 -95.834 80.5 -168.501h-141c-2 36 -16.167 62.667 -42.5 80s-58.833 26 -97.5 26
s-69.834 -8.16699 -93.5 -24.5c-23.667 -16.333 -35.5 -40.5 -35.5 -72.5c0 -32.667 12.833 -56.834 38.5 -72.501s64.167 -29.167 115.5 -40.5c77.334 -16.667 132.667 -34.334 166 -53c68 -38 102 -95.667 102 -173z" />
    <glyph glyph-name="scedilla" unicode="&#x15f;" horiz-adv-x="531" 
d="M506 171c0 -54 -19.167 -96.667 -57.5 -128s-87.5 -49.333 -147.5 -54v-33c32.667 -2 58.667 -10.333 78 -25s29 -34.334 29 -59.001c0 -26 -10.333 -47.5 -31 -64.5s-48.667 -25.5 -84 -25.5c-44 0 -81.333 13.333 -112 40l34 52c25.333 -20.667 49.666 -31 72.999 -31
c15.335 0 27.168 3 35.5 9c8.33301 6 12.5 13.667 12.5 23c0 12.667 -8 23.334 -24 32.001s-40 13 -72 13l10 69c-61.333 3.33301 -113.5 20.833 -156.5 52.5s-65.833 78.834 -68.5 141.501h134c5.33301 -56.667 45.333 -85 120 -85c64 0 96 20 96 60
c0 16 -6.83301 27.5 -20.5 34.5s-40.834 13.833 -81.5 20.5c-19.334 3.33301 -31.667 5.5 -37 6.5s-17 3.33301 -35 7s-30.167 6.83398 -36.5 9.5c-6.33301 2.66699 -16.833 6.66699 -31.5 12s-25 10.666 -31 15.999c-6 5.33398 -13.833 12.167 -23.5 20.499
c-9.66699 8.33301 -16.5 17.333 -20.5 27s-7.66699 20.834 -11 33.501s-5 26.334 -5 41.001c0 58.667 20.833 102.667 62.5 132s93.834 44 156.501 44c66.667 0 121 -16.167 163 -48.5s65 -78.5 69 -138.5h-130c-4.66699 50.667 -38 76 -100 76
c-30.667 0 -53.667 -5.83301 -69 -17.5s-23 -26.167 -23 -43.5c0 -19.333 9 -32.833 27 -40.5s47.667 -14.5 89 -20.5c71.333 -10.667 120 -22.667 146 -36c48.667 -24.667 73 -65.334 73 -122.001z" />
    <glyph glyph-name="uni0162" unicode="&#x162;" horiz-adv-x="655" 
d="M638 750v-130h-246v-620h-86c-14 -14 -21 -30 -21 -48c0 -20.667 8.5 -36.5 25.5 -47.5s37.167 -17.5 60.5 -19.5v-66c-41.333 4 -76.5 17.333 -105.5 40s-43.5 49.667 -43.5 81c0 26.667 10.333 48.667 31 66v614h-243v130h628z" />
    <glyph glyph-name="uni0163" unicode="&#x163;" horiz-adv-x="382" 
d="M280 0l0.00195312 -44c32.667 -2 58.667 -10.333 78 -25s29 -34.334 29 -59.001c0 -26 -10.333 -47.5 -31 -64.5s-48.667 -25.5 -84 -25.5c-44 0 -81.333 13.333 -112 40l34 52c25.333 -20.667 49.666 -31 72.999 -31c15.333 0 27.166 3 35.499 9s12.5 13.667 12.5 23
c0 12.667 -8 23.334 -24 32.001s-40 13 -72 13l12 82c-41.333 5.33301 -72.5 21.333 -93.5 48s-31.5 70 -31.5 130v252h-101v120h101v124l133 37v-161h110v-120h-110v-258c0 -18.667 3.83301 -32.667 11.5 -42s22.5 -14 44.5 -14h67v-118h-82z" />
    <glyph glyph-name="Tcaron" unicode="&#x164;" horiz-adv-x="655" 
d="M638 620h-246v-620h-139v620h-243v130h628v-130zM509 1029l-155 -196h-73l-155 196h129l62 -78l63 78h129z" />
    <glyph glyph-name="tcaron" unicode="&#x165;" horiz-adv-x="642" 
d="M362 0l-87 0.000976562c-56.667 0 -99 12.667 -127 38s-42 72.666 -42 141.999v252h-101v120h101v124l133 37v-161h110v-120h-110v-258c0 -18.667 3.83301 -32.667 11.5 -42s22.5 -14 44.5 -14h67v-118zM612 762.001l0.00292969 -120.999
c0 -35.333 -5.66699 -66.333 -17 -93s-26.833 -47.667 -46.5 -63s-40.334 -27 -62.001 -35c-21.668 -8 -44.835 -13.333 -69.501 -16l-14 71c38.667 6 68.167 19.167 88.5 39.5s31.166 46.166 32.499 77.499h-65v140h153z" />
    <glyph glyph-name="Tbar" unicode="&#x166;" horiz-adv-x="655" 
d="M392 620v-139h158v-53h-158v-428h-139v428h-167v53h167v139h-243v130h628v-130h-246z" />
    <glyph glyph-name="tbar" unicode="&#x167;" horiz-adv-x="382" 
d="M362 118v-117.999h-87c-56.667 0 -99 12.667 -127 38s-42 72.666 -42 141.999v52h-101v120h101v80h-101v120h101v124l133 37v-161h110v-120h-110v-80h110v-120h-110v-58c0 -18.667 3.83301 -32.667 11.5 -42s22.5 -14 44.5 -14h67z" />
    <glyph glyph-name="Utilde" unicode="&#x168;" horiz-adv-x="735" 
d="M670 750v-463c0 -100 -27 -175.833 -81 -227.5s-127.333 -77.5 -220 -77.5s-166.5 25.833 -221.5 77.5s-82.5 127.5 -82.5 227.5v463h139v-456c0 -58 15 -102.333 45 -133s71.333 -46 124 -46c50 0 89.167 13.833 117.5 41.5s42.5 69.167 42.5 124.5v469h137zM491 988
h78.001c-0.666992 -51.335 -11.5 -91.168 -32.5 -119.5c-21 -28.333 -46.5 -42.5 -76.5 -42.5c-17.333 0 -34.5 5 -51.5 15s-32 20.167 -45 30.5s-23.833 15.5 -32.5 15.5c-20.667 0 -32 -18.333 -34 -55h-78c0 49.333 10.333 88.333 31 117s46.667 43 78 43
c23.334 0 48.667 -10.333 76 -31s45 -31 53 -31c19.335 0 30.668 19.333 33.999 58z" />
    <glyph glyph-name="utilde" unicode="&#x169;" horiz-adv-x="613" 
d="M548 0h-130v78c-35.333 -56 -88 -84 -158 -84c-60 0 -108.333 18.667 -145 56s-55 90.333 -55 159v343h133v-333c0 -71.333 31.333 -107 94 -107c38.667 0 69.667 14.667 93 44s35 72.333 35 129v267h133v-552zM410 806h78c-0.666992 -51.334 -11.5 -91.167 -32.5 -119.5
s-46.5 -42.5 -76.5 -42.5c-17.333 0 -34.5 5 -51.5 15s-32 20.167 -45 30.5s-23.833 15.5 -32.5 15.5c-20.667 0 -32 -18.333 -34 -55h-78c0 49.333 10.333 88.333 31 117s46.667 43 78 43c23.334 0 48.667 -10.333 76 -31s45 -31 53 -31c19.334 0 30.667 19.333 34 58z" />
    <glyph glyph-name="Umacron" unicode="&#x16a;" horiz-adv-x="735" 
d="M670 750v-463c0 -100 -27 -175.833 -81 -227.5s-127.333 -77.5 -220 -77.5s-166.5 25.833 -221.5 77.5s-82.5 127.5 -82.5 227.5v463h139v-456c0 -58 15 -102.333 45 -133s71.333 -46 124 -46c50 0 89.167 13.833 117.5 41.5s42.5 69.167 42.5 124.5v469h137zM208 834
v100h319v-100h-319z" />
    <glyph glyph-name="umacron" unicode="&#x16b;" horiz-adv-x="613" 
d="M548 0h-130v78c-35.333 -56 -88 -84 -158 -84c-60 0 -108.333 18.667 -145 56s-55 90.333 -55 159v343h133v-333c0 -71.333 31.333 -107 94 -107c38.667 0 69.667 14.667 93 44s35 72.333 35 129v267h133v-552zM144 650v100h319v-100h-319z" />
    <glyph glyph-name="Ubreve" unicode="&#x16c;" horiz-adv-x="735" 
d="M670 750v-463c0 -100 -27 -175.833 -81 -227.5s-127.333 -77.5 -220 -77.5s-166.5 25.833 -221.5 77.5s-82.5 127.5 -82.5 227.5v463h139v-456c0 -58 15 -102.333 45 -133s71.333 -46 124 -46c50 0 89.167 13.833 117.5 41.5s42.5 69.167 42.5 124.5v469h137zM415 1012
h83.998c6.66699 -13.333 10 -31 10 -53c0 -34 -11.167 -63.667 -33.5 -89s-56.166 -38 -101.499 -38s-79.166 12.667 -101.499 38s-33.5 55 -33.5 89c0 22 3.33301 39.667 10 53h84c-5.33301 -11.3369 -8 -25.6699 -8 -42.999c0 -15.333 4 -28 12 -38s20.333 -15 37 -15
s29 5 37 15s12 22.667 12 38c0 17.333 -2.66699 31.666 -8 42.999z" />
    <glyph glyph-name="ubreve" unicode="&#x16d;" horiz-adv-x="613" 
d="M548 0h-130v78c-35.333 -56 -88 -84 -158 -84c-60 0 -108.333 18.667 -145 56s-55 90.333 -55 159v343h133v-333c0 -71.333 31.333 -107 94 -107c38.667 0 69.667 14.667 93 44s35 72.333 35 129v267h133v-552zM353 817h83.998c6.66699 -13.333 10 -31 10 -53
c0 -34 -11.167 -63.667 -33.5 -89s-56.166 -38 -101.499 -38s-79.166 12.667 -101.499 38s-33.5 55 -33.5 89c0 22 3.33301 39.667 10 53h84c-5.33301 -11.3359 -8 -25.6689 -8 -42.999c0 -15.333 4 -28 12 -38s20.333 -15 37 -15s29 5 37 15s12 22.667 12 38
c0 17.333 -2.66699 31.666 -8 42.999z" />
    <glyph glyph-name="Uring" unicode="&#x16e;" horiz-adv-x="735" 
d="M670 750v-463c0 -100 -27 -175.833 -81 -227.5s-127.333 -77.5 -220 -77.5s-166.5 25.833 -221.5 77.5s-82.5 127.5 -82.5 227.5v463h139v-456c0 -58 15 -102.333 45 -133s71.333 -46 124 -46c50 0 89.167 13.833 117.5 41.5s42.5 69.167 42.5 124.5v469h137zM419 949
c0 15.333 -4.66699 27.833 -14 37.5s-22 14.5 -38 14.5s-28.5 -4.83301 -37.5 -14.5s-13.5 -22.167 -13.5 -37.5c0 -15.334 4.66699 -28.167 14 -38.499c9.33398 -10.333 21.667 -15.5 37 -15.5s27.833 5.16699 37.5 15.5s14.5 23.166 14.5 38.499zM246 949
c0 36 11.332 65.333 33.999 88s51.334 34 86.001 34c36 0 65.5 -11.333 88.5 -34s34.5 -52 34.5 -88c0 -35.333 -11.5 -64.5 -34.5 -87.5s-52.5 -34.5 -88.5 -34.5c-34.667 0 -63.334 11.5 -86 34.5c-22.667 23 -34 52.167 -34 87.5z" />
    <glyph glyph-name="uring" unicode="&#x16f;" horiz-adv-x="613" 
d="M548 0h-130v78c-35.333 -56 -88 -84 -158 -84c-60 0 -108.333 18.667 -145 56s-55 90.333 -55 159v343h133v-333c0 -71.333 31.333 -107 94 -107c38.667 0 69.667 14.667 93 44s35 72.333 35 129v267h133v-552zM357 769c0 16 -4.83301 28.833 -14.5 38.5
s-22.5 14.5 -38.5 14.5s-28.667 -4.83301 -38 -14.5s-14 -22.5 -14 -38.5c0.000976562 -15.333 4.66797 -28.333 14 -39c9.33301 -10.667 22 -16 38 -16s28.833 5.33301 38.5 16s14.5 23.667 14.5 39zM181 769c0 37.333 11.5 67.5 34.5 90.5s52.167 34.5 87.5 34.5
c36.667 0 66.667 -11.5 90 -34.5s35 -53.167 35 -90.5c0 -36 -11.667 -65.667 -35 -89s-53.333 -35 -90 -35c-35.333 0 -64.5 11.667 -87.5 35s-34.5 53 -34.5 89z" />
    <glyph glyph-name="Uhungarumlaut" unicode="&#x170;" horiz-adv-x="735" 
d="M670 750v-463c0 -100 -27 -175.833 -81 -227.5s-127.333 -77.5 -220 -77.5s-166.5 25.833 -221.5 77.5s-82.5 127.5 -82.5 227.5v463h139v-456c0 -58 15 -102.333 45 -133s71.333 -46 124 -46c50 0 89.167 13.833 117.5 41.5s42.5 69.167 42.5 124.5v469h137zM472 832
h-72l45 168h84zM335 832h-71l45 168h84z" />
    <glyph glyph-name="uhungarumlaut" unicode="&#x171;" horiz-adv-x="613" 
d="M548 0h-130v78c-35.333 -56 -88 -84 -158 -84c-60 0 -108.333 18.667 -145 56s-55 90.333 -55 159v343h133v-333c0 -71.333 31.333 -107 94 -107c38.667 0 69.667 14.667 93 44s35 72.333 35 129v267h133v-552zM406 650h-72l45 168h84zM269 650h-71l45 168h84z" />
    <glyph glyph-name="Uogonek" unicode="&#x172;" horiz-adv-x="735" 
d="M670 750l0.000976562 -463.002c0 -94.667 -24.333 -167.667 -73 -219s-115.334 -79.666 -200.001 -84.999c-5.33301 -9.33301 -8 -19.666 -8 -30.999c0 -20.667 8.5 -36.5 25.5 -47.5s37.167 -17.5 60.5 -19.5v-66c-41.333 4 -76.5 17.333 -105.5 40
s-43.5 49.667 -43.5 81c0 16 3.66699 30.333 11 43c-84 6 -150.333 34.5 -199 85.5s-73 123.833 -73 218.5v463h139v-456c0 -58 15 -102.333 45 -133s71.333 -46 124 -46c50 0 89.167 13.833 117.5 41.5s42.5 69.167 42.5 124.5v469h137z" />
    <glyph glyph-name="uogonek" unicode="&#x173;" horiz-adv-x="613" 
d="M548 0l-72 0.000976562c-14 -14 -21 -30 -21 -48c0 -20.667 8.5 -36.5 25.5 -47.5s37.167 -17.5 60.5 -19.5v-66c-41.333 4 -76.5 17.333 -105.5 40s-43.5 49.667 -43.5 81c0 25.333 8.66699 45.666 26 60.999v77c-35.333 -56 -88 -84 -158 -84
c-60 0 -108.333 18.667 -145 56s-55 90.333 -55 159v343h133v-333c0 -71.333 31.333 -107 94 -107c38.667 0 69.667 14.667 93 44s35 72.333 35 129v267h133v-552z" />
    <glyph glyph-name="Wcircumflex" unicode="&#x174;" horiz-adv-x="1011" 
d="M800 0h-138l-156 537l-157 -537h-138l-196 750h148l123 -524l153 524h138l153 -525l123 525h143zM505 910l-62 -78h-129l155 196h73l155 -196h-129z" />
    <glyph glyph-name="wcircumflex" unicode="&#x175;" horiz-adv-x="868" 
d="M674 0h-128l-112 353l-112 -353h-128l-184 552h142l109 -368l111 368h129l112 -368l108 368h137zM450 728l-62 -78h-129l155 196h73l155 -196h-129z" />
    <glyph glyph-name="Ycircumflex" unicode="&#x176;" horiz-adv-x="700" 
d="M421 285v-285h-142v285l-269 465h159l183 -336l183 336h155zM350 910l-62 -78h-129l155 196h73l155 -196h-129z" />
    <glyph glyph-name="ycircumflex" unicode="&#x177;" horiz-adv-x="538" 
d="M538 552l-240 -635c-23.333 -62 -75.333 -93 -156 -93h-83v118h58c40.667 0 67 18 79 54l9 26l-205 530h141l130 -360l130 360h137zM286 728l-62 -78h-129l155 196h73l155 -196h-129z" />
    <glyph glyph-name="Zacute" unicode="&#x179;" horiz-adv-x="672" 
d="M642 0h-602v131l408 489h-395v130h568v-130l-407 -489h428v-131zM285 832l152 237l104 -79l-144 -158h-112z" />
    <glyph glyph-name="zacute" unicode="&#x17a;" horiz-adv-x="557" 
d="M511 0h-476v116l306 320h-291v116h462v-116l-307 -320h306v-116zM233 650l152 237l104 -79l-144 -158h-112z" />
    <glyph glyph-name="Zdotaccent" unicode="&#x17b;" horiz-adv-x="672" 
d="M642 0h-602v131l408 489h-395v130h568v-130l-407 -489h428v-131zM278 986h150v-154h-150v154z" />
    <glyph glyph-name="zdotaccent" unicode="&#x17c;" horiz-adv-x="557" 
d="M511 0h-476v116l306 320h-291v116h462v-116l-307 -320h306v-116zM209 804h150v-154h-150v154z" />
    <glyph glyph-name="longs" unicode="&#x17f;" horiz-adv-x="311" 
d="M341 644l-60 0.000976562c-22 0 -36.833 -4.66699 -44.5 -14s-11.5 -23.333 -11.5 -42v-588h-133v432h-82v120h82v30c0 69.333 14 116.666 42 141.999s70.333 38 127 38h80v-118z" />
    <glyph glyph-name="florin" unicode="&#x192;" horiz-adv-x="361" 
d="M361 644l-55 -0.000976562c-24 0 -40.167 -4 -48.5 -12s-12.5 -22 -12.5 -42v-38h102v-120h-102v-472c0 -29.333 -4 -54.833 -12 -76.5s-17.667 -38.167 -29 -49.5c-11.334 -11.333 -25.167 -20.166 -41.5 -26.5c-16.334 -6.33301 -30.167 -10.166 -41.5 -11.5
c-11.333 -1.33301 -24 -2 -38 -2h-73v120h45c21.333 0 36 3.33301 44 10s12 21.334 12 44.001v464h-81v120h82v32c0 118.667 59 178 177 178h72v-118z" />
    <glyph glyph-name="uni0218" unicode="&#x218;" horiz-adv-x="654" 
d="M406 -71l0.000976562 -120.999c0 -35.333 -5.66699 -66.333 -17 -93s-26.833 -47.667 -46.5 -63s-40.334 -27 -62 -35c-21.667 -8 -44.834 -13.333 -69.501 -16l-14 71c38.667 6 68.167 19.167 88.5 39.5c20.334 20.333 31.167 46.166 32.5 77.499h-65v140h153z
M619.001 210.001c0 -72 -26.3359 -128.166 -79.0029 -168.499s-118 -60.5 -196 -60.5c-39.333 0 -77.166 5.66699 -113.499 17s-69.166 27.833 -98.499 49.5s-52.833 50.334 -70.5 86.001s-26.5 76.167 -26.5 121.5h140c2 -52 19.167 -90.833 51.5 -116.5
c32.334 -25.667 71.167 -38.5 116.5 -38.5c38 0 70.333 9.16699 97 27.5s40 42.833 40 73.5c0 17.333 -4.16699 32.166 -12.5 44.499s-21 22.333 -38 30s-33.667 14 -50 19s-36.833 10.167 -61.5 15.5c-4.66699 0.666992 -8 1.33398 -10 2.00098
c-35.333 8.66699 -65 17.167 -89 25.5s-49.5 20.833 -76.5 37.5s-47.5 38.5 -61.5 65.5s-21 59.167 -21 96.5c0 74 26 131 78 171s116.333 60 193 60s141.834 -19.833 195.501 -59.5s80.5 -95.834 80.5 -168.501h-141c-2 36 -16.167 62.667 -42.5 80s-58.833 26 -97.5 26
s-69.834 -8.16699 -93.5 -24.5c-23.667 -16.333 -35.5 -40.5 -35.5 -72.5c0 -32.667 12.833 -56.834 38.5 -72.501s64.167 -29.167 115.5 -40.5c77.334 -16.667 132.667 -34.334 166 -53c68 -38 102 -95.667 102 -173z" />
    <glyph glyph-name="uni0219" unicode="&#x219;" horiz-adv-x="531" 
d="M336 -71l0.00292969 -120.999c0 -35.333 -5.66699 -66.333 -17 -93s-26.833 -47.667 -46.5 -63s-40.334 -27 -62.001 -35s-44.834 -13.333 -69.501 -16l-14 71c38.667 6 68.167 19.167 88.5 39.5s31.166 46.166 32.499 77.499h-65v140h153zM287.003 329.001
c71.333 -10.667 119.999 -22.665 145.999 -35.998c48.667 -24.667 73 -65.334 73 -122.001c0 -58.667 -22.333 -103.834 -67 -135.501s-100.334 -47.5 -167 -47.5c-30.667 0 -59.667 3.5 -87 10.5s-53 17.833 -77 32.5s-43.5 35 -58.5 61s-23.167 56.333 -24.5 91h134
c5.33301 -56.667 45.333 -85 120 -85c64 0 96 20 96 60c0 16 -6.83301 27.5 -20.5 34.5s-40.834 13.833 -81.5 20.5c-19.334 3.33301 -31.667 5.5 -37 6.5s-17 3.33301 -35 7s-30.167 6.83398 -36.5 9.5c-6.33301 2.66699 -16.833 6.66699 -31.5 12s-25 10.666 -31 15.999
c-6 5.33398 -13.833 12.167 -23.5 20.499c-9.66699 8.33301 -16.5 17.333 -20.5 27s-7.66699 20.834 -11 33.501s-5 26.334 -5 41.001c0 58.667 20.833 102.667 62.5 132s93.834 44 156.501 44c66.667 0 121 -16.167 163 -48.5s65 -78.5 69 -138.5h-130
c-4.66699 50.667 -38 76 -100 76c-30.667 0 -53.667 -5.83301 -69 -17.5s-23 -26.167 -23 -43.5c0 -19.333 9 -32.833 27 -40.5s47.667 -14.5 89 -20.5z" />
    <glyph glyph-name="uni021A" unicode="&#x21a;" horiz-adv-x="655" 
d="M396 -71l0.000976562 -120.999c0 -35.333 -5.66699 -66.333 -17 -93s-26.833 -47.667 -46.5 -63s-40.334 -27 -62 -35c-21.667 -8 -44.834 -13.333 -69.501 -16l-14 71c38.667 6 68.167 19.167 88.5 39.5c20.335 20.333 31.168 46.166 32.5 77.499h-65v140h153z
M638.001 620.001h-246v-620h-139v620h-243v130h628v-130z" />
    <glyph glyph-name="uni021B" unicode="&#x21b;" horiz-adv-x="382" 
d="M337 -71l0.00292969 -120.999c0 -35.333 -5.66699 -66.333 -17 -93s-26.833 -47.667 -46.5 -63s-40.334 -27 -62.001 -35s-44.834 -13.333 -69.501 -16l-14 71c38.667 6 68.167 19.167 88.5 39.5s31.166 46.166 32.499 77.499h-65v140h153zM362.003 0.000976562
l-87 0.000976562c-56.667 0 -99 12.667 -127 38s-42 72.666 -42 141.999v252h-101v120h101v124l133 37v-161h110v-120h-110v-258c0 -18.667 3.83301 -32.667 11.5 -42s22.5 -14 44.5 -14h67v-118z" />
    <glyph glyph-name="circumflex" unicode="&#x2c6;" horiz-adv-x="383" 
d="M191 728l-62 -78h-129l155 196h73l155 -196h-129z" />
    <glyph glyph-name="caron" unicode="&#x2c7;" horiz-adv-x="383" 
d="M192 769l62 78h129l-155 -196h-73l-155 196h129z" />
    <glyph glyph-name="uni02C9" unicode="&#x2c9;" horiz-adv-x="319" 
d="M0 832v100h319v-100h-319z" />
    <glyph glyph-name="breve" unicode="&#x2d8;" horiz-adv-x="270" 
d="M176 817h83.998c6.66699 -13.333 10 -31 10 -53c0 -34 -11.167 -63.667 -33.5 -89s-56.166 -38 -101.499 -38s-79.166 12.667 -101.499 38s-33.5 55 -33.5 89c-0 22 3.33301 39.667 10 53h84c-5.33301 -11.3359 -8 -25.6689 -8 -42.999c0 -15.333 4 -28 12 -38
s20.333 -15 37 -15s29 5 37 15s12 22.667 12 38c0 17.333 -2.66699 31.666 -8 42.999z" />
    <glyph glyph-name="dotaccent" unicode="&#x2d9;" horiz-adv-x="150" 
d="M0 804h150v-154h-150v154z" />
    <glyph glyph-name="ring" unicode="&#x2da;" horiz-adv-x="247" 
d="M176 769c0 16 -4.83301 28.833 -14.5 38.5s-22.5 14.5 -38.5 14.5s-28.667 -4.83301 -38 -14.5s-14 -22.5 -14 -38.5c0 -15.333 4.66699 -28.333 14 -39s22 -16 38 -16s28.833 5.33301 38.5 16s14.5 23.667 14.5 39zM0 769c0 37.333 11.5 67.5 34.5 90.5
s52.167 34.5 87.5 34.5c36.667 0 66.667 -11.5 90 -34.5s35 -53.167 35 -90.5c0 -36 -11.667 -65.667 -35 -89s-53.333 -35 -90 -35c-35.333 0 -64.5 11.667 -87.5 35s-34.5 53 -34.5 89z" />
    <glyph glyph-name="ogonek" unicode="&#x2db;" horiz-adv-x="149" 
d="M149 -115v-66c-41.333 4 -76.5 17.333 -105.5 40s-43.5 49.667 -43.5 81c-0 32 13.333 56 40 72h58c-23.333 -17.333 -35 -37.333 -35 -60c0 -20.667 8.5 -36.5 25.5 -47.5s37.167 -17.5 60.5 -19.5z" />
    <glyph glyph-name="tilde" unicode="&#x2dc;" horiz-adv-x="350" 
d="M272 806h78.001c-0.666992 -51.334 -11.5 -91.167 -32.5 -119.5s-46.5 -42.5 -76.5 -42.5c-17.333 0 -34.5 5 -51.5 15s-32 20.167 -45 30.5s-23.833 15.5 -32.5 15.5c-20.667 0 -32 -18.333 -34 -55h-78c0 49.333 10.333 88.333 31 117s46.667 43 78 43
c23.333 0 48.666 -10.333 75.999 -31s45 -31 53 -31c19.334 0 30.667 19.333 34 58z" />
    <glyph glyph-name="hungarumlaut" unicode="&#x2dd;" horiz-adv-x="265" 
d="M208 650h-72l45 168h84zM71 650h-71l45 168h84z" />
    <glyph glyph-name="Delta" unicode="&#x394;" horiz-adv-x="746" 
d="M583 131l-211 465l-211 -465h422zM726 0h-706v131l283 619h140l283 -619v-131z" />
    <glyph glyph-name="Omega" unicode="&#x3a9;" horiz-adv-x="810" 
d="M691 112l0.00195312 -112h-250v237c58 12.667 103.333 38.5 136 77.5s49 84.833 49 137.5c0 62.667 -21.333 111.5 -64 146.5s-95 52.5 -157 52.5s-114.333 -17.5 -157 -52.5s-64 -83.833 -64 -146.5c0 -52.667 16.333 -98.5 49 -137.5s78 -64.833 136 -77.5v-237h-250
v112h153v40c-67.333 20 -122.833 55.5 -166.5 106.5s-65.5 114.833 -65.5 191.5c0 41.333 7.16699 80.5 21.5 117.5s35.666 70.667 63.999 101s66.5 54.5 114.5 72.5s103 27 165 27s117 -9 165 -27s86.167 -42.167 114.5 -72.5s49.666 -64 63.999 -101
s21.5 -76.167 21.5 -117.5c0 -76.667 -21.833 -140.5 -65.5 -191.5s-99.167 -86.5 -166.5 -106.5v-40h153z" />
    <glyph glyph-name="mu" unicode="&#x3bc;" horiz-adv-x="638" 
d="M598 0h-62c-24.668 -0 -46.335 5.83301 -65.001 17.5c-18.667 11.667 -31 26.5 -37 44.5c-39.333 -49.333 -91 -74 -155 -74c-28.667 0 -55.667 6.33301 -81 19v-213h-133v758h133v-324c0 -40.667 8.33301 -71.167 25 -91.5s39.334 -30.5 68.001 -30.5
c32.667 0 59 12.167 79 36.5s30 59.5 30 105.5v304h131v-392c0 -30 12.667 -45 38 -45h29v-115z" />
    <glyph glyph-name="pi" unicode="&#x3c0;" horiz-adv-x="655" 
d="M635 591v-115c-30 -16.667 -75.333 -27 -136 -31v-250c0 -32 7.5 -54.333 22.5 -67s37.167 -19 66.5 -19h47v-109h-90c-16.667 -0 -31.5 0.833008 -44.5 2.5s-28.5 6.16699 -46.5 13.5s-32.833 17.5 -44.5 30.5s-21.834 31.833 -30.5 56.5c-8.66699 24.667 -13 54 -13 88
v253h-109v-444h-140v444h-97v108h414c93.333 0 160.333 13 201 39z" />
    <glyph glyph-name="uni1E02" unicode="&#x1e02;" horiz-adv-x="670" 
d="M213 131l156 0.000976562c39.333 0 69.833 10.167 91.5 30.5s32.5 44.166 32.5 71.499c0 26.667 -10.167 49.5 -30.5 68.5s-48.5 28.5 -84.5 28.5h-165v-199zM213 449.001h144c32 0 57.167 9 75.5 27s27.5 38.667 27.5 62c0 22.667 -8.66699 42 -26 58s-41.333 24 -72 24
h-149v-171zM635 217.001c0 -58.667 -22.835 -109.501 -68.502 -152.501s-107.167 -64.5 -184.5 -64.5h-307v750h320c64.667 0 115.334 -18.333 152.001 -55s55 -79.667 55 -129c0 -33.333 -9 -64.666 -27 -93.999s-45 -52.333 -81 -69
c46.668 -17.333 81.835 -42.833 105.501 -76.5c23.667 -33.667 35.5 -70.167 35.5 -109.5zM230.998 986h150v-154h-150v154z" />
    <glyph glyph-name="uni1E03" unicode="&#x1e03;" horiz-adv-x="637" 
d="M334 106c38.667 0 71.333 14.5 98 43.5s40 70.167 40 123.5s-13.333 94.5 -40 123.5s-59.334 43.5 -98 43.5c-38.667 0 -71.667 -14.5 -99 -43.5s-41 -70.167 -41 -123.5s13.667 -94.5 41 -123.5s60.333 -43.5 99 -43.5zM366.999 562
c68.667 0 125.833 -24.833 171.5 -74.5s68.5 -120.5 68.5 -212.5c0 -91.333 -23.167 -162 -69.5 -212s-103.833 -75 -172.5 -75c-37.333 0 -71 7.66699 -101 23s-53 37 -69 65v-76h-130v762h133v-291c32 60.667 88.333 91 169 91zM290.998 804h150v-154h-150v154z" />
    <glyph glyph-name="uni1E0A" unicode="&#x1e0a;" horiz-adv-x="745" 
d="M214 131h92.999c80.667 0 143.834 25.833 189.501 77.5s68.5 112.167 68.5 181.5c0 64 -20.5 118.333 -61.5 163s-99.5 67 -175.5 67h-114v-489zM74.999 750l248 0.00195312c61.334 0 116.667 -10 166 -30s89.5 -46.833 120.5 -80.5s54.667 -71.834 71 -114.501
s24.5 -87.667 24.5 -135c0 -48.667 -8.5 -95.834 -25.5 -141.501s-41.5 -87.167 -73.5 -124.5s-74 -67.333 -126 -90s-110.333 -34 -175 -34h-230v750zM210.999 986.002h150v-154h-150v154z" />
    <glyph glyph-name="uni1E0B" unicode="&#x1e0b;" horiz-adv-x="637" 
d="M303 110c38.667 0 71.667 14.5 99 43.5s41 70.167 41 123.5s-13.667 94.5 -41 123.5s-60.333 43.5 -99 43.5s-71.334 -14.5 -98.001 -43.5s-40 -70.167 -40 -123.5s13.333 -94.5 40 -123.5s59.334 -43.5 98.001 -43.5zM572 0h-130.001v85
c-14.667 -30.667 -36.834 -54.5 -66.5 -71.5c-29.667 -17 -64.167 -25.5 -103.5 -25.5c-68.667 0 -126.167 25 -172.5 75s-69.5 120.667 -69.5 212c0 92 22.833 162.833 68.5 212.5s102.834 74.5 171.501 74.5c36.667 0 70 -7.16699 100 -21.5s53 -34.833 69 -61.5v283h133
v-762zM194.999 804h150v-154h-150v154z" />
    <glyph glyph-name="uni1E1E" unicode="&#x1e1e;" horiz-adv-x="589" 
d="M214 0h-139v750h504v-130h-365v-175h347v-131h-347v-314zM262 986h150v-154h-150v154z" />
    <glyph glyph-name="uni1E1F" unicode="&#x1e1f;" horiz-adv-x="341" 
d="M341 644l-60 0.000976562c-22 0 -36.833 -4.66699 -44.5 -14s-11.5 -23.333 -11.5 -42v-36h102v-120h-102v-432h-133v432h-82v120h82v30c0 69.333 14 116.666 42 141.999s70.333 38 127 38h80v-118zM181 986.001h150v-154h-150v154z" />
    <glyph glyph-name="uni1E40" unicode="&#x1e40;" horiz-adv-x="920" 
d="M845 0h-131v518l-193 -518h-125l-193 518v-518h-128v750h177l208 -552l208 552h177v-750zM385 986h150v-154h-150v154z" />
    <glyph glyph-name="uni1E41" unicode="&#x1e41;" horiz-adv-x="892" 
d="M643 562c57.333 0 103.167 -17 137.5 -51s51.5 -80.333 51.5 -139v-372h-133v346c0 64 -27.667 96 -83 96c-31.333 0 -56 -10.833 -74 -32.5s-27 -54.834 -27 -99.5v-310h-133v346c0 64 -28 96 -84 96c-30.667 0 -55 -10.833 -73 -32.5s-27 -54.5 -27 -98.5v-311h-133
v552h131v-81c10 25.334 26.5 46.834 49.5 64.5c23 17.667 53.167 26.5 90.5 26.5c34 0 64 -8 90 -24s45.667 -38.333 59 -67c32.667 60.667 85.334 91 158 91zM403.001 804h150v-154h-150v154z" />
    <glyph glyph-name="uni1E56" unicode="&#x1e56;" horiz-adv-x="656" 
d="M213 417h158c38 0 66.667 9.5 86 28.5s29 43.5 29 73.5c0 29.333 -9.33301 53.5 -28 72.5s-46 28.5 -82 28.5h-163v-203zM75 750h305c78 0 138.5 -21.667 181.5 -65s64.5 -96.333 64.5 -159c0 -66 -22.833 -122.333 -68.5 -169s-109.167 -70 -190.5 -70h-154v-287h-138
v750zM231 986h150v-154h-150v154z" />
    <glyph glyph-name="uni1E57" unicode="&#x1e57;" horiz-adv-x="637" 
d="M334 114c38.667 0 71.333 14 98 42s40 68.333 40 121s-13.333 93 -40 121s-59.334 42 -98 42c-39.333 0 -72.5 -13.833 -99.5 -41.5s-40.5 -68.167 -40.5 -121.5s13.5 -93.833 40.5 -121.5s60.167 -41.5 99.5 -41.5zM366.999 562c68.667 0 125.832 -24.333 171.499 -73
s68.5 -118.334 68.5 -209c0 -92 -23.167 -162.333 -69.5 -211s-104.166 -73 -173.499 -73c-76 0 -131.333 28.333 -166 85v-287h-133v758h130v-88c14.667 31.333 37.167 55.5 67.5 72.5c30.334 17 65.167 25.5 104.5 25.5zM271.997 804h150v-154h-150v154z" />
    <glyph glyph-name="uni1E60" unicode="&#x1e60;" horiz-adv-x="654" 
d="M619 210c0 -72 -26.3359 -128.166 -79.0029 -168.499s-118 -60.5 -196 -60.5c-39.333 0 -77.166 5.66699 -113.499 17s-69.166 27.833 -98.499 49.5s-52.833 50.334 -70.5 86.001s-26.5 76.167 -26.5 121.5h140c2 -52 19.167 -90.833 51.5 -116.5
c32.334 -25.667 71.167 -38.5 116.5 -38.5c38 0 70.333 9.16699 97 27.5s40 42.833 40 73.5c0 17.333 -4.16699 32.166 -12.5 44.499s-21 22.333 -38 30s-33.667 14 -50 19s-36.833 10.167 -61.5 15.5c-4.66699 0.666992 -8 1.33398 -10 2.00098
c-35.333 8.66699 -65 17.167 -89 25.5s-49.5 20.833 -76.5 37.5s-47.5 38.5 -61.5 65.5s-21 59.167 -21 96.5c0 74 26 131 78 171s116.333 60 193 60s141.834 -19.833 195.501 -59.5s80.5 -95.834 80.5 -168.501h-141c-2 36 -16.167 62.667 -42.5 80s-58.833 26 -97.5 26
s-69.834 -8.16699 -93.5 -24.5c-23.667 -16.333 -35.5 -40.5 -35.5 -72.5c0 -32.667 12.833 -56.834 38.5 -72.501s64.167 -29.167 115.5 -40.5c77.334 -16.667 132.667 -34.334 166 -53c68 -38 102 -95.667 102 -173zM257.997 986.001h150v-154h-150v154z" />
    <glyph glyph-name="uni1E61" unicode="&#x1e61;" horiz-adv-x="531" 
d="M287 329c71.333 -10.667 119.999 -22.665 145.999 -35.998c48.667 -24.667 73 -65.334 73 -122.001c0 -58.667 -22.333 -103.834 -67 -135.501s-100.334 -47.5 -167 -47.5c-30.667 0 -59.667 3.5 -87 10.5s-53 17.833 -77 32.5s-43.5 35 -58.5 61
s-23.167 56.333 -24.5 91h134c5.33301 -56.667 45.333 -85 120 -85c64 0 96 20 96 60c0 16 -6.83301 27.5 -20.5 34.5s-40.834 13.833 -81.5 20.5c-19.334 3.33301 -31.667 5.5 -37 6.5s-17 3.33301 -35 7s-30.167 6.83398 -36.5 9.5
c-6.33301 2.66699 -16.833 6.66699 -31.5 12s-25 10.666 -31 15.999c-6 5.33398 -13.833 12.167 -23.5 20.499c-9.66699 8.33301 -16.5 17.333 -20.5 27s-7.66699 20.834 -11 33.501s-5 26.334 -5 41.001c0 58.667 20.833 102.667 62.5 132s93.834 44 156.501 44
c66.667 0 121 -16.167 163 -48.5s65 -78.5 69 -138.5h-130c-4.66699 50.667 -38 76 -100 76c-30.667 0 -53.667 -5.83301 -69 -17.5s-23 -26.167 -23 -43.5c0 -19.333 9 -32.833 27 -40.5s47.667 -14.5 89 -20.5zM187.999 804.002h150v-154h-150v154z" />
    <glyph glyph-name="uni1E6A" unicode="&#x1e6a;" horiz-adv-x="655" 
d="M638 620h-246v-620h-139v620h-243v130h628v-130zM243 986h150v-154h-150v154z" />
    <glyph glyph-name="uni1E6B" unicode="&#x1e6b;" horiz-adv-x="382" 
d="M362 0l-87 0.000976562c-56.667 0 -99 12.667 -127 38s-42 72.666 -42 141.999v252h-101v120h101v124l133 37v-161h110v-120h-110v-258c0 -18.667 3.83301 -32.667 11.5 -42s22.5 -14 44.5 -14h67v-118zM104 904.001h150v-154h-150v154z" />
    <glyph glyph-name="Wgrave" unicode="&#x1e80;" horiz-adv-x="1011" 
d="M800 0h-138l-156 537l-157 -537h-138l-196 750h148l123 -524l153 524h138l153 -525l123 525h143zM322 990l104 79l152 -237h-112z" />
    <glyph glyph-name="wgrave" unicode="&#x1e81;" horiz-adv-x="868" 
d="M674 0h-128l-112 353l-112 -353h-128l-184 552h142l109 -368l111 368h129l112 -368l108 368h137zM248 808l104 79l152 -237h-112z" />
    <glyph glyph-name="Wacute" unicode="&#x1e82;" horiz-adv-x="1011" 
d="M800 0h-138l-156 537l-157 -537h-138l-196 750h148l123 -524l153 524h138l153 -525l123 525h143zM461 832l152 237l104 -79l-144 -158h-112z" />
    <glyph glyph-name="wacute" unicode="&#x1e83;" horiz-adv-x="868" 
d="M674 0h-128l-112 353l-112 -353h-128l-184 552h142l109 -368l111 368h129l112 -368l108 368h137zM393 650l152 237l104 -79l-144 -158h-112z" />
    <glyph glyph-name="Wdieresis" unicode="&#x1e84;" horiz-adv-x="1011" 
d="M800 0h-138l-156 537l-157 -537h-138l-196 750h148l123 -524l153 524h138l153 -525l123 525h143zM551 952h116v-120h-116v120zM344 952h116v-120h-116v120z" />
    <glyph glyph-name="wdieresis" unicode="&#x1e85;" horiz-adv-x="868" 
d="M674 0h-128l-112 353l-112 -353h-128l-184 552h142l109 -368l111 368h129l112 -368l108 368h137zM484 770h116v-120h-116v120zM277 770h116v-120h-116v120z" />
    <glyph glyph-name="Ygrave" unicode="&#x1ef2;" horiz-adv-x="700" 
d="M421 285v-285h-142v285l-269 465h159l183 -336l183 336h155zM186 990l104 79l152 -237h-112z" />
    <glyph glyph-name="ygrave" unicode="&#x1ef3;" horiz-adv-x="538" 
d="M538 552l-240 -635c-23.333 -62 -75.333 -93 -156 -93h-83v118h58c40.667 0 67 18 79 54l9 26l-205 530h141l130 -360l130 360h137zM106 808l104 79l152 -237h-112z" />
    <glyph glyph-name="endash" unicode="&#x2013;" 
d="M50 207v118h500v-118h-500z" />
    <glyph glyph-name="emdash" unicode="&#x2014;" horiz-adv-x="1100" 
d="M50 207v118h1000v-118h-1000z" />
    <glyph glyph-name="quoteleft" unicode="&#x2018;" horiz-adv-x="279" 
d="M40 471l-0.00195312 121c0 35.333 5.66699 66.333 17 93s26.833 47.667 46.5 63s40.334 27 62.001 35s44.834 13.333 69.5 16l14 -71c-38.667 -6 -68.167 -19.167 -88.5 -39.5c-20.333 -20.335 -31.166 -46.168 -32.499 -77.5h65v-140h-153z" />
    <glyph glyph-name="quoteright" unicode="&#x2019;" horiz-adv-x="259" 
d="M229 793l0.00292969 -120.999c0 -35.333 -5.66699 -66.333 -17 -93s-26.833 -47.667 -46.5 -63s-40.334 -27 -62.001 -35s-44.834 -13.333 -69.501 -16l-14 71c38.667 6 68.167 19.167 88.5 39.5s31.166 46.166 32.499 77.499h-65v140h153z" />
    <glyph glyph-name="quotesinglbase" unicode="&#x201a;" horiz-adv-x="259" 
d="M229 149l0.00292969 -120.999c0 -35.333 -5.66699 -66.333 -17 -93s-26.833 -47.667 -46.5 -63s-40.334 -27 -62.001 -35s-44.834 -13.333 -69.501 -16l-14 71c38.667 6 68.167 19.167 88.5 39.5s31.166 46.166 32.499 77.499h-65v140h153z" />
    <glyph glyph-name="quotedblleft" unicode="&#x201c;" horiz-adv-x="509" 
d="M280 471l-0.00292969 121c0 35.333 5.66699 66.333 17 93s26.833 47.667 46.5 63s40.334 27 62.001 35s44.834 13.333 69.501 16l14 -71c-38.667 -6 -68.167 -19.167 -88.5 -39.5c-20.333 -20.335 -31.166 -46.168 -32.499 -77.5h65v-140h-153zM29.9971 471
l-0.00292969 121c0 35.333 5.66699 66.333 17 93s26.833 47.667 46.5 63s40.334 27 62.001 35s44.834 13.333 69.501 16l14 -71c-38.667 -6 -68.167 -19.167 -88.5 -39.5c-20.333 -20.335 -31.166 -46.168 -32.499 -77.5h65v-140h-153z" />
    <glyph glyph-name="quotedblright" unicode="&#x201d;" horiz-adv-x="509" 
d="M479 793l0.00292969 -120.999c0 -35.333 -5.66699 -66.333 -17 -93s-26.833 -47.667 -46.5 -63s-40.334 -27 -62.001 -35s-44.834 -13.333 -69.501 -16l-14 71c38.667 6 68.167 19.167 88.5 39.5s31.166 46.166 32.499 77.499h-65v140h153zM229.003 793.001
l0.00292969 -120.999c0 -35.333 -5.66699 -66.333 -17 -93s-26.833 -47.667 -46.5 -63s-40.334 -27 -62.001 -35s-44.834 -13.333 -69.501 -16l-14 71c38.667 6 68.167 19.167 88.5 39.5s31.166 46.166 32.499 77.499h-65v140h153z" />
    <glyph glyph-name="quotedblbase" unicode="&#x201e;" horiz-adv-x="509" 
d="M479 149l0.00292969 -120.999c0 -35.333 -5.66699 -66.333 -17 -93s-26.833 -47.667 -46.5 -63s-40.334 -27 -62.001 -35s-44.834 -13.333 -69.501 -16l-14 71c38.667 6 68.167 19.167 88.5 39.5s31.166 46.166 32.499 77.499h-65v140h153zM229.003 149.001
l0.00292969 -120.999c0 -35.333 -5.66699 -66.333 -17 -93s-26.833 -47.667 -46.5 -63s-40.334 -27 -62.001 -35s-44.834 -13.333 -69.501 -16l-14 71c38.667 6 68.167 19.167 88.5 39.5s31.166 46.166 32.499 77.499h-65v140h153z" />
    <glyph glyph-name="dagger" unicode="&#x2020;" horiz-adv-x="548" 
d="M40 423v109h180v218h108v-218h180v-109h-180v-523h-108v523h-180z" />
    <glyph glyph-name="daggerdbl" unicode="&#x2021;" horiz-adv-x="548" 
d="M328 187h180v-109h-180v-178h-108v178h-180v109h180v276h-180v109h180v178h108v-178h180v-109h-180v-276z" />
    <glyph glyph-name="bullet" unicode="&#x2022;" horiz-adv-x="244" 
d="M40 374h164v-168h-164v168z" />
    <glyph glyph-name="ellipsis" unicode="&#x2026;" horiz-adv-x="1039" 
d="M799 154h150v-154h-150v154zM430 154h150v-154h-150v154zM80 154h150v-154h-150v154z" />
    <glyph glyph-name="perthousand" unicode="&#x2030;" horiz-adv-x="1340" 
d="M1225 163c0 30.667 -9.33398 55.667 -28.001 75s-42.667 29 -72 29s-53.166 -9.66699 -71.499 -29s-27.5 -44.333 -27.5 -75c0 -31.333 9.16699 -56.833 27.5 -76.5c18.3418 -19.667 42.1748 -29.5 71.5 -29.5c29.333 0 53.333 9.83301 72 29.5s28 45.167 28 76.5z
M812.999 163c0 30.667 -9.33203 55.667 -27.999 75s-42.667 29 -72 29c-29.334 0 -53.167 -9.66699 -71.5 -29s-27.5 -44.333 -27.5 -75c0 -31.333 9.16699 -56.833 27.5 -76.5s42.166 -29.5 71.499 -29.5s53.333 9.83301 72 29.5s28 45.167 28 76.5zM935 162
c0 56 17.833 101.667 53.5 137s80.5 53 134.5 53c56 0 102.167 -17.5 138.5 -52.5s54.5 -80.833 54.5 -137.5c0 -56 -18.167 -101.833 -54.5 -137.5s-82.5 -53.5 -138.5 -53.5c-53.333 0 -98 18 -134 54s-54 81.667 -54 137zM523 162c0 56 17.833 101.667 53.5 137
s80.5 53 134.5 53c56 0 102.167 -17.5 138.5 -52.5s54.5 -80.833 54.5 -137.5c0 -56 -18.167 -101.833 -54.5 -137.5s-82.5 -53.5 -138.5 -53.5c-53.333 0 -98 18 -134 54s-54 81.667 -54 137zM330 586c0 30.667 -9.33301 55.667 -28 75s-42.667 29 -72 29
s-53.166 -9.66699 -71.499 -29s-27.5 -44.333 -27.5 -75c0 -31.333 9.16699 -56.833 27.5 -76.5s42.166 -29.5 71.499 -29.5s53.333 9.83301 72 29.5s28 45.167 28 76.5zM257 0h-80l473 750h80zM40 585c0 56 17.833 101.667 53.5 137s80.5 53 134.5 53
c56 0 102.167 -17.5 138.5 -52.5s54.5 -80.833 54.5 -137.5c0 -56 -18.167 -101.833 -54.5 -137.5s-82.5 -53.5 -138.5 -53.5c-53.333 0 -98 18 -134 54s-54 81.667 -54 137z" />
    <glyph glyph-name="guilsinglleft" unicode="&#x2039;" horiz-adv-x="309" 
d="M279 152l-74 -69l-195 221l195 221l74 -69l-135 -152z" />
    <glyph glyph-name="guilsinglright" unicode="&#x203a;" horiz-adv-x="309" 
d="M30 456l74 69l195 -221l-195 -221l-74 69l135 152z" />
    <glyph glyph-name="fraction" unicode="&#x2044;" horiz-adv-x="653" 
d="M130 0h-80l473 750h80z" />
    <glyph glyph-name="uni2113" unicode="&#x2113;" horiz-adv-x="427" 
d="M236 514l8.99805 5c40.667 22.667 69.834 45 87.501 67s26.5 46 26.5 72c0 36 -12.667 54 -38 54s-42.666 -19.667 -51.999 -59zM223.998 457l-72.001 -314c-4 -18 -6 -32.667 -6 -44c0 -24.667 9.33301 -37 28 -37c29.333 0 66.666 30 111.999 90l24 -20
c-63.333 -96 -129.666 -144 -198.999 -144c-32 0 -56.833 8.83301 -74.5 26.5s-26.5 40.834 -26.5 69.501c0 12.667 2.33301 28.334 7 47.001l61 264l-66 -35l13 56l64 33l35 148c12.667 55.333 36.834 96.666 72.501 123.999s73.5 41 113.5 41
c29.333 0 54.5 -7.83301 75.5 -23.5s31.5 -40.167 31.5 -73.5c0 -66.667 -45.333 -125.334 -136 -176.001z" />
    <glyph glyph-name="afii61352" unicode="&#x2116;" horiz-adv-x="1195" 
d="M1080 598c0 30.667 -9.33203 55.667 -27.999 75c-18.6709 19.333 -42.6709 29 -72 29c-29.3369 0 -53.1699 -9.66699 -71.5 -29c-18.333 -19.333 -27.5 -44.333 -27.5 -75c0 -31.333 9.16699 -56.833 27.5 -76.5s42.166 -29.5 71.499 -29.5s53.333 9.83301 72 29.5
s28 45.167 28 76.5zM694.001 0h-148l-334 529v-529h-137v750h161l321 -515v515h137v-750zM790.001 597c0 56 17.833 101.667 53.5 137s80.5 53 134.5 53c56 0 102.167 -17.5 138.5 -52.5s54.5 -80.833 54.5 -137.5c0 -56 -18.167 -101.833 -54.5 -137.5
s-82.5 -53.5 -138.5 -53.5c-53.333 0 -98 18 -134 54s-54 81.667 -54 137z" />
    <glyph glyph-name="trademark" unicode="&#x2122;" horiz-adv-x="761" 
d="M731 702v-312h-65v243l-96 -243h-52l-96 243v-243h-63v312h102l84 -225l84 225h102zM30 702h297v-61h-116v-251h-65v251h-116v61z" />
    <glyph glyph-name="estimated" unicode="&#x212e;" horiz-adv-x="490" 
d="M369 293l-0.000976562 120c-27.333 37.333 -66 56 -116 56c-29.333 0 -56.666 -6.83301 -81.999 -20.5s-45.333 -32.5 -60 -56.5v-99h258zM259.999 31c84 0 133.667 40 149 120h46c-7.33301 -53.333 -29.5 -93.833 -66.5 -121.5s-81.167 -41.5 -132.5 -41.5
c-64.667 0 -118.5 21.667 -161.5 65s-64.5 108 -64.5 194s21.333 151.667 64 197s95.667 68 159 68c58 0 107 -18.5 147 -55.5s60 -89.833 60 -158.5c0 -22.667 -1 -40 -3 -52h-346v-129c30 -57.333 79.667 -86 149 -86z" />
    <glyph glyph-name="onethird" unicode="&#x2153;" horiz-adv-x="1000" 
d="M889 241c52.667 -22 79 -57.0039 79 -105.004c0 -37.333 -14 -68.833 -42 -94.5s-67 -38.5 -117 -38.5c-49.333 0 -90 13.167 -122 39.5s-48.333 62.5 -49 108.5h82c0.666992 -24.667 9 -43.167 25 -55.5s37 -18.5 63 -18.5c24.667 0 43.5 5.5 56.5 16.5
s19.5 25.5 19.5 43.5c0 40 -30.667 60 -92 60h-28v73h25c26.667 0 47.667 5.83301 63 17.5s23 26.834 23 45.501s-7 32.834 -21 42.501s-31.333 14.5 -52 14.5c-28 0 -49.667 -8.66699 -65 -26s-23 -39.666 -23 -66.999h-82c0 52.667 16 93.667 48 123s74 44 126 44
c45.333 0 82 -11 110 -33s42 -51 42 -87c0 -24.667 -6.5 -46.167 -19.5 -64.5s-29.5 -31.166 -49.5 -38.499zM338 369.996v-76h-287v76h103v269c-32 -19.333 -68.333 -31 -109 -35v79c48 6 88.333 26.333 121 61h69v-374h103zM309 -0.00390625h-80l473 750h80z" />
    <glyph glyph-name="twothirds" unicode="&#x2154;" horiz-adv-x="1000" 
d="M898 241c52.667 -22 79 -57.0039 79 -105.004c0 -37.333 -14 -68.833 -42 -94.5s-67 -38.5 -117 -38.5c-49.333 0 -90 13.167 -122 39.5s-48.333 62.5 -49 108.5h82c0.666992 -24.667 9 -43.167 25 -55.5s37 -18.5 63 -18.5c24.667 0 43.5 5.5 56.5 16.5
s19.5 25.5 19.5 43.5c0 40 -30.667 60 -92 60h-28v73h25c26.667 0 47.667 5.83301 63 17.5s23 26.834 23 45.501s-7 32.834 -21 42.501s-31.333 14.5 -52 14.5c-28 0 -49.667 -8.66699 -65 -26s-23 -39.666 -23 -66.999h-82c0 52.667 16 93.667 48 123s74 44 126 44
c45.333 0 82 -11 110 -33s42 -51 42 -87c0 -24.667 -6.5 -46.167 -19.5 -64.5s-29.5 -31.166 -49.5 -38.499zM323 -0.00390625h-80l473 750h80zM360 294.996h-327.001v76l109 89c48 39.333 80.167 68.333 96.5 87s24.5 39 24.5 61c0 19.333 -7 34.833 -21 46.5
s-31.333 17.5 -52 17.5c-24.667 0 -44.667 -7.83301 -60 -23.5s-22.666 -37.5 -21.999 -65.5h-82v7c0 50.667 16.667 90 50 118s72 42 116 42c41.333 0 77.5 -12.333 108.5 -37s46.5 -57.667 46.5 -99c0 -34 -11.5 -65.5 -34.5 -94.5s-57.167 -61.5 -102.5 -97.5l-64 -51
h214v-76z" />
    <glyph glyph-name="onefifth" unicode="&#x2155;" horiz-adv-x="1000" 
d="M804 310c44.667 0 79.667 -14.665 105 -43.998s38 -64.333 38 -105c0 -42.667 -14.167 -79.834 -42.5 -111.501s-67.833 -47.5 -118.5 -47.5c-44 0 -81.333 12.667 -112 38s-47.667 61.666 -51 108.999h82c1.33301 -26 9.5 -45.333 24.5 -58s33.833 -19 56.5 -19
c26.667 0 47.167 7.83301 61.5 23.5s21.5 35.167 21.5 58.5c0 22.667 -6.83301 42.167 -20.5 58.5s-33.167 24.5 -58.5 24.5c-26 0 -48.667 -8.66699 -68 -26h-83l41 248h245v-75h-183l-15 -92c24.668 12 50.335 18 77 18zM354 370.002v-76h-287v76h103v269
c-32 -19.333 -68.333 -31 -109 -35v79c48 6 88.333 26.333 121 61h69v-374h103zM325 0.00195312h-80l473 750h80z" />
    <glyph glyph-name="twofifths" unicode="&#x2156;" horiz-adv-x="1000" 
d="M816 310c44.667 0 79.666 -14.665 104.999 -43.998s38 -64.333 38 -105c0 -42.667 -14.167 -79.834 -42.5 -111.501s-67.833 -47.5 -118.5 -47.5c-44 0 -81.333 12.667 -112 38s-47.667 61.666 -51 108.999h82c1.33301 -26 9.5 -45.333 24.5 -58s33.833 -19 56.5 -19
c26.667 0 47.167 7.83301 61.5 23.5s21.5 35.167 21.5 58.5c0 22.667 -6.83301 42.167 -20.5 58.5s-33.167 24.5 -58.5 24.5c-26 0 -48.667 -8.66699 -68 -26h-83l41 248h245v-75h-183l-15 -92c24.6699 12 50.3369 18 77.001 18zM336.999 0.00195312h-80l473 750h80z
M373.999 295.002h-327.001v76l109 89c48 39.333 80.167 68.333 96.5 87s24.5 39 24.5 61c0 19.333 -7 34.833 -21 46.5s-31.333 17.5 -52 17.5c-24.667 0 -44.667 -7.83301 -60 -23.5s-22.666 -37.5 -21.999 -65.5h-82v7c0 50.667 16.667 90 50 118s72 42 116 42
c41.333 0 77.5 -12.333 108.5 -37s46.5 -57.667 46.5 -99c0 -34 -11.5 -65.5 -34.5 -94.5s-57.167 -61.5 -102.5 -97.5l-64 -51h214v-76z" />
    <glyph glyph-name="threefifths" unicode="&#x2157;" horiz-adv-x="1000" 
d="M801 310c44.667 0 79.667 -14.665 105 -43.998s38 -64.333 38 -105c0 -42.667 -14.167 -79.834 -42.5 -111.501s-67.833 -47.5 -118.5 -47.5c-44 0 -81.333 12.667 -112 38s-47.667 61.666 -51 108.999h82c1.33301 -26 9.5 -45.333 24.5 -58s33.833 -19 56.5 -19
c26.667 0 47.167 7.83301 61.5 23.5s21.5 35.167 21.5 58.5c0 22.667 -6.83301 42.167 -20.5 58.5s-33.167 24.5 -58.5 24.5c-26 0 -48.667 -8.66699 -68 -26h-83l41 248h245v-75h-183l-15 -92c25.333 12 51 18 77 18zM322 0.00195312h-80l473 750h80zM302 527.002
c52.667 -22 79 -57.001 79 -105.001c0 -37.333 -14 -68.833 -42 -94.5s-67 -38.5 -117 -38.5c-49.333 0 -90 13.167 -122 39.5s-48.333 62.5 -49 108.5h82c0.666992 -24.667 9 -43.167 25 -55.5s37 -18.5 63 -18.5c24.667 0 43.5 5.5 56.5 16.5s19.5 25.5 19.5 43.5
c0 40 -30.667 60 -92 60h-28v73h25c26.667 0 47.667 5.83301 63 17.5c15.333 11.6689 23 26.8359 23 45.5c0 18.6719 -7 32.8389 -21 42.501c-14 9.66699 -31.333 14.5 -52 14.5c-28 0 -49.667 -8.66699 -65 -26c-15.333 -17.335 -23 -39.668 -23 -67h-82
c0 52.667 16 93.667 48 123s74 44 126 44c45.333 0 82 -11 110 -33s42 -51 42 -87c0 -24.667 -6.5 -46.167 -19.5 -64.5c-13 -18.3379 -29.5 -31.1709 -49.5 -38.5z" />
    <glyph glyph-name="fourfifths" unicode="&#x2158;" horiz-adv-x="1000" 
d="M834 310c44.667 0 79.666 -14.665 104.999 -43.998s38 -64.333 38 -105c0 -42.667 -14.167 -79.834 -42.5 -111.501s-67.833 -47.5 -118.5 -47.5c-44 0 -81.333 12.667 -112 38s-47.667 61.666 -51 108.999h82c1.33301 -26 9.5 -45.333 24.5 -58s33.833 -19 56.5 -19
c26.667 0 47.167 7.83301 61.5 23.5s21.5 35.167 21.5 58.5c0 22.667 -6.83301 42.167 -20.5 58.5s-33.167 24.5 -58.5 24.5c-26 0 -48.667 -8.66699 -68 -26h-83l41 248h245v-75h-183l-15 -92c24.6699 12 50.3369 18 77.001 18zM247.999 457.002v182l-120 -182h120z
M327.999 382.002v-87h-80v88h-207v65l199 297h88v-288h61v-75h-61zM354.999 0.00195312h-80l473 750h80z" />
    <glyph glyph-name="onesixth" unicode="&#x2159;" horiz-adv-x="1000" 
d="M803 77c23.333 0 42.167 6.83301 56.5 20.5s21.5 32.5 21.5 56.5s-7.66699 43 -23 57c-15.334 14 -34.667 21 -58 21s-42.5 -6.83301 -57.5 -20.5s-22.5 -32.167 -22.5 -55.5c0 -24.667 8 -44 24 -58s35.667 -21 59 -21zM810.001 309
c42 0 77.834 -13.668 107.501 -41.001s44.5 -63.666 44.5 -108.999c0 -46.667 -15.167 -84.5 -45.5 -113.5s-68.5 -43.5 -114.5 -43.5c-50 0 -91.833 18.833 -125.5 56.5s-50.5 96.167 -50.5 175.5c0 37.333 4.16699 70.166 12.5 98.499s18.833 50.5 31.5 66.5
s27.667 29.167 45 39.5c17.333 10.335 33.666 17.168 48.999 20.5c15.333 3.33301 31 5 47 5c40 0 72.167 -10.667 96.5 -32s38.5 -51.666 42.5 -90.999h-81c-0.666992 18 -7.16699 31.667 -19.5 41s-27.5 14 -45.5 14c-27.333 0 -49.833 -11.167 -67.5 -33.5
s-27.5 -56.5 -29.5 -102.5c26 32.667 60.333 49 103 49zM337.002 369.999v-76h-287v76h103v269c-32 -19.333 -68.333 -31 -109 -35v79c48 6 88.333 26.333 121 61h69v-374h103zM308.002 -0.000976562h-80l473 750h80z" />
    <glyph glyph-name="fivesixths" unicode="&#x215a;" horiz-adv-x="1000" 
d="M798 77c23.333 0 42.167 6.83301 56.5 20.5s21.5 32.5 21.5 56.5s-7.66699 43 -23 57c-15.3369 14 -34.6699 21 -58 21c-23.333 0 -42.5 -6.83301 -57.5 -20.5s-22.5 -32.167 -22.5 -55.5c0 -24.667 8 -44 24 -58s35.667 -21 59 -21zM805.001 309
c42 0 77.834 -13.668 107.501 -41.001s44.5 -63.666 44.5 -108.999c0 -46.667 -15.167 -84.5 -45.5 -113.5s-68.5 -43.5 -114.5 -43.5c-50 0 -91.833 18.833 -125.5 56.5s-50.5 96.167 -50.5 175.5c0 37.333 4.16699 70.166 12.5 98.499s18.833 50.5 31.5 66.5
s27.667 29.167 45 39.5c17.333 10.335 33.666 17.168 48.999 20.5c15.333 3.33301 31 5 47 5c40 0 72.167 -10.667 96.5 -32s38.5 -51.666 42.5 -90.999h-81c-0.666992 18 -7.16699 31.667 -19.5 41s-27.5 14 -45.5 14c-27.333 0 -49.833 -11.167 -67.5 -33.5
s-27.5 -56.5 -29.5 -102.5c26 32.667 60.333 49 103 49zM222.002 595.999c44.667 0 79.667 -14.666 105 -43.999c25.333 -29.334 38 -64.334 38 -105c0 -42.667 -14.167 -79.834 -42.5 -111.501s-67.833 -47.5 -118.5 -47.5c-44 0 -81.333 12.667 -112 38
c-30.667 25.334 -47.667 61.667 -51 109h82c1.33301 -26 9.5 -45.333 24.5 -58s33.833 -19 56.5 -19c26.667 0 47.167 7.83301 61.5 23.5s21.5 35.167 21.5 58.5c0 22.667 -6.83301 42.167 -20.5 58.5s-33.167 24.5 -58.5 24.5c-26 0 -48.667 -8.66699 -68 -26h-83l41 248
h245v-75h-183l-15 -92c25.333 12 51 18 77 18zM303.002 0h-80l473 750h80z" />
    <glyph glyph-name="oneeighth" unicode="&#x215b;" horiz-adv-x="1000" 
d="M802 79c23.333 0 41.333 5.16895 54 15.502s19 24.166 19 41.499c0 18.667 -6.66699 34.5 -20 47.5s-31.333 19.5 -54 19.5s-40.5 -6.33301 -53.5 -19s-19.5 -28.334 -19.5 -47.001c0 -18 6.33301 -32.167 19 -42.5s31 -15.5 55 -15.5zM801 392.002
c-44 0 -66 -17.667 -66 -53c0 -17.333 6.16699 -31.5 18.5 -42.5s28.5 -16.5 48.5 -16.5s36 5.5 48 16.5s18 25.167 18 42.5c0 15.333 -5.66699 28 -17 38s-28 15 -50 15zM883 242.002c22.667 -7.33398 41.5 -21.1689 56.5 -41.502c15 -20.334 22.5 -44.167 22.5 -71.5
c0 -38.667 -14.667 -69.5 -44 -92.5s-68 -34.5 -116 -34.5c-47.334 0 -86.167 11.5 -116.5 34.5s-45.5 53.833 -45.5 92.5c0 28.667 7.83301 53.167 23.5 73.5s34.5 33.5 56.5 39.5c-45.333 18 -68 51 -68 99c0 37.334 14.333 67.167 43 89.5s63.667 33.5 105 33.5
c42 0 77.667 -11.167 107 -33.5s44 -52.166 44 -89.499c0 -26 -6.83301 -47.167 -20.5 -63.5s-29.5 -28.166 -47.5 -35.499zM330 370v-76h-287v76h103v269c-32 -19.333 -68.333 -31 -109 -35v79c48 6 88.333 26.333 121 61h69v-374h103zM301 0h-80l473 750h80z" />
    <glyph glyph-name="threeeighths" unicode="&#x215c;" horiz-adv-x="1000" 
d="M788 79c23.333 0 41.333 5.16895 54 15.502s19 24.166 19 41.499c0 18.667 -6.66699 34.5 -20 47.5s-31.333 19.5 -54 19.5s-40.5 -6.33301 -53.5 -19s-19.5 -28.334 -19.5 -47.001c0 -18 6.33301 -32.167 19 -42.5s31 -15.5 55 -15.5zM787 392.002
c-44 0 -66 -17.667 -66 -53c0 -17.333 6.16699 -31.5 18.5 -42.5s28.5 -16.5 48.5 -16.5s36 5.5 48 16.5s18 25.167 18 42.5c0 15.333 -5.66699 28 -17 38s-28 15 -50 15zM869 242.002c22.667 -7.33398 41.5 -21.1689 56.5 -41.502c15 -20.334 22.5 -44.167 22.5 -71.5
c0 -38.667 -14.667 -69.5 -44 -92.5s-68 -34.5 -116 -34.5c-47.335 0 -86.168 11.5 -116.5 34.5c-30.333 23 -45.5 53.833 -45.5 92.5c0 28.667 7.83301 53.167 23.5 73.5s34.5 33.5 56.5 39.5c-45.333 18 -68 51 -68 99c0 37.334 14.333 67.167 43 89.5
s63.667 33.5 105 33.5c42 0 77.667 -11.167 107 -33.5s44 -52.166 44 -89.499c0 -26 -6.83301 -47.167 -20.5 -63.5s-29.5 -28.166 -47.5 -35.499zM287 0h-80l473 750h80zM288 527c52.667 -22 79 -57.001 79 -105.001c0 -37.333 -14 -68.833 -42 -94.5s-67 -38.5 -117 -38.5
c-49.333 0 -90 13.167 -122 39.5s-48.333 62.5 -49 108.5h82c0.666992 -24.667 9 -43.167 25 -55.5s37 -18.5 63 -18.5c24.667 0 43.5 5.5 56.5 16.5s19.5 25.5 19.5 43.5c0 40 -30.667 60 -92 60h-28v73h25c26.667 0 47.667 5.83301 63 17.5
c15.333 11.6689 23 26.8359 23 45.5c0 18.6719 -7 32.8389 -21 42.501c-14 9.66699 -31.333 14.5 -52 14.5c-28 0 -49.667 -8.66699 -65 -26c-15.333 -17.335 -23 -39.668 -23 -67h-82c0 52.667 16 93.667 48 123s74 44 126 44c45.333 0 82 -11 110 -33s42 -51 42 -87
c0 -24.667 -6.5 -46.167 -19.5 -64.5c-13 -18.3379 -29.5 -31.1709 -49.5 -38.5z" />
    <glyph glyph-name="fiveeighths" unicode="&#x215d;" horiz-adv-x="1000" 
d="M796 79c23.333 0 41.333 5.16895 54 15.502s19 24.166 19 41.499c0 18.667 -6.66699 34.5 -20 47.5s-31.333 19.5 -54 19.5s-40.5 -6.33301 -53.5 -19s-19.5 -28.334 -19.5 -47.001c0 -18 6.33301 -32.167 19 -42.5s31 -15.5 55 -15.5zM795 392.002
c-44 0 -66 -17.667 -66 -53c0 -17.333 6.16699 -31.5 18.5 -42.5s28.5 -16.5 48.5 -16.5s36 5.5 48 16.5s18 25.167 18 42.5c0 15.333 -5.66699 28 -17 38s-28 15 -50 15zM877 242.002c22.667 -7.33398 41.5 -21.1689 56.5 -41.502c15 -20.334 22.5 -44.167 22.5 -71.5
c0 -38.667 -14.667 -69.5 -44 -92.5s-68 -34.5 -116 -34.5c-47.335 0 -86.168 11.5 -116.5 34.5c-30.333 23 -45.5 53.833 -45.5 92.5c0 28.667 7.83301 53.167 23.5 73.5s34.5 33.5 56.5 39.5c-45.333 18 -68 51 -68 99c0 37.334 14.333 67.167 43 89.5
s63.667 33.5 105 33.5c42 0 77.667 -11.167 107 -33.5s44 -52.166 44 -89.499c0 -26 -6.83301 -47.167 -20.5 -63.5s-29.5 -28.166 -47.5 -35.499zM214 596c44.667 0 79.667 -14.666 105 -43.999c25.333 -29.334 38 -64.334 38 -105
c0 -42.667 -14.167 -79.834 -42.5 -111.501s-67.833 -47.5 -118.5 -47.5c-44 0 -81.333 12.667 -112 38c-30.667 25.334 -47.667 61.667 -51 109h82c1.33301 -26 9.5 -45.333 24.5 -58s33.833 -19 56.5 -19c26.667 0 47.167 7.83301 61.5 23.5s21.5 35.167 21.5 58.5
c0 22.667 -6.83301 42.167 -20.5 58.5s-33.167 24.5 -58.5 24.5c-26 0 -48.667 -8.66699 -68 -26h-83l41 248h245v-75h-183l-15 -92c25.333 12 51 18 77 18zM295 0.000976562h-80l473 750h80z" />
    <glyph glyph-name="seveneighths" unicode="&#x215e;" horiz-adv-x="1000" 
d="M793 79c23.333 0 41.333 5.16895 54 15.502s19 24.166 19 41.499c0 18.667 -6.66699 34.5 -20 47.5s-31.333 19.5 -54 19.5s-40.5 -6.33301 -53.5 -19s-19.5 -28.334 -19.5 -47.001c0 -18 6.33301 -32.167 19 -42.5s31 -15.5 55 -15.5zM792 392.002
c-44 0 -66 -17.667 -66 -53c0 -17.333 6.16699 -31.5 18.5 -42.5s28.5 -16.5 48.5 -16.5s36 5.5 48 16.5s18 25.167 18 42.5c0 15.333 -5.66699 28 -17 38s-28 15 -50 15zM874 242.002c22.667 -7.33398 41.5 -21.1689 56.5 -41.502c15 -20.334 22.5 -44.167 22.5 -71.5
c0 -38.667 -14.667 -69.5 -44 -92.5s-68 -34.5 -116 -34.5c-47.335 0 -86.168 11.5 -116.5 34.5c-30.333 23 -45.5 53.833 -45.5 92.5c0 28.667 7.83301 53.167 23.5 73.5s34.5 33.5 56.5 39.5c-45.333 18 -68 51 -68 99c0 37.334 14.333 67.167 43 89.5
s63.667 33.5 105 33.5c42 0 77.667 -11.167 107 -33.5s44 -52.166 44 -89.499c0 -26 -6.83301 -47.167 -20.5 -63.5s-29.5 -28.166 -47.5 -35.499zM367 666l-177 -371h-83l176 369h-233v81h317v-79zM292 0h-80l473 750h80z" />
    <glyph glyph-name="partialdiff" unicode="&#x2202;" 
d="M288 110c37.334 0 69.168 11.167 95.501 33.5s39.5 54.5 39.5 96.5c0 40.667 -13.167 72.5 -39.5 95.5s-57.5 34.5 -93.5 34.5c-36.667 0 -68.167 -11.333 -94.5 -34s-39.5 -54.667 -39.5 -96c0 -40.667 13.167 -72.5 39.5 -95.5s57.166 -34.5 92.499 -34.5zM267.001 497
c36 0 69.999 -7.83008 101.999 -23.4971s57 -37.167 75 -64.5c-2.66699 77.333 -18.5 134.666 -47.5 171.999s-66.5 56 -112.5 56c-32 0 -58.167 -8.5 -78.5 -25.5c-20.334 -17 -30.167 -41.833 -29.5 -74.5h-133c4.66699 68 27 120.5 67 157.5s94 55.5 162 55.5
c26.667 0 52.5 -2.83301 77.5 -8.5s51.833 -16.834 80.5 -33.501s53.334 -38.334 74.001 -65.001s38 -63.5 52 -110.5s21 -100.833 21 -161.5c0 -67.333 -8.16699 -126.5 -24.5 -177.5s-38.5 -91 -66.5 -120s-58.667 -50.5 -92 -64.5s-69.333 -21 -108 -21
c-75.333 0 -138 24 -188 72s-75 110 -75 186c0 79.333 24.333 141 73 185s105.667 66 171 66z" />
    <glyph glyph-name="product" unicode="&#x220f;" horiz-adv-x="820" 
d="M649 0h-129v634h-220v-634h-129v634h-96v116h670v-116h-96v-634z" />
    <glyph glyph-name="summation" unicode="&#x2211;" horiz-adv-x="705" 
d="M675 131v-131h-635v132l264 242l-244 246v130h583v-130h-383l236 -246l-257 -243h436z" />
    <glyph glyph-name="minus" unicode="&#x2212;" horiz-adv-x="500" 
d="M40 257v69h420v-69h-420z" />
    <glyph glyph-name="radical" unicode="&#x221a;" horiz-adv-x="631" 
d="M349 0h-113l-236 552h142l148 -363l198 561h133z" />
    <glyph glyph-name="infinity" unicode="&#x221e;" horiz-adv-x="752" 
d="M536 188c26 0 47.167 8.83203 63.5 26.499s24.5 44.834 24.5 81.501c0 37.334 -8.33301 65.167 -25 83.5s-38 27.5 -64 27.5c-28.667 0 -52 -9.83301 -70 -29.5s-27 -46.167 -27 -79.5s9.16699 -60 27.5 -80s41.833 -30 70.5 -30zM216 187.999
c28.667 0 52.167 10 70.5 30s27.5 46.667 27.5 80s-9 59.833 -27 79.5s-41.333 29.5 -70 29.5c-26 0 -47.333 -9.16699 -64 -27.5s-25 -46.166 -25 -83.499c0 -36.667 8.16699 -63.834 24.5 -81.501s37.5 -26.5 63.5 -26.5zM542 543.999c61.333 0 110 -24.168 146 -72.501
s54 -107.166 54 -176.499c0 -68.667 -17.833 -126.667 -53.5 -174s-84.167 -71 -145.5 -71c-42 0 -77.333 11 -106 33s-49 48.333 -61 79c-12 -30.667 -32.333 -57 -61 -79s-64 -33 -106 -33c-61.333 0 -109.833 23.667 -145.5 71s-53.5 105.333 -53.5 174
c0 69.334 18 128.167 54 176.5s84.667 72.5 146 72.5c42.667 0 78.167 -11.333 106.5 -34c28.334 -22.667 48.167 -49 59.5 -79c11.334 30 31.167 56.333 59.5 79s63.833 34 106.5 34z" />
    <glyph glyph-name="integral" unicode="&#x222b;" horiz-adv-x="334" 
d="M334 630h-45c-21.333 0 -36 -3.33301 -44 -10s-12 -21.334 -12 -44.001v-24h1v-592c0 -36.667 -5.5 -67 -16.5 -91s-26 -41 -45 -51s-35.833 -16.5 -50.5 -19.5s-31 -4.5 -49 -4.5h-73v120h45c21.333 0 36 3.33301 44 10s12 21.334 12 44.001v616
c0 36.667 5.33301 67 16 91s25.5 41 44.5 51s35.833 16.5 50.5 19.5s31 4.5 49 4.5h73v-120z" />
    <glyph glyph-name="approxequal" unicode="&#x2248;" horiz-adv-x="499" 
d="M459 158c-29.333 -14.667 -63.001 -22 -101.001 -22c-26 0 -59.333 7.66699 -100 23s-74.334 23 -101.001 23c-50 0 -89 -12 -117 -36v96c30.667 20.667 68.334 31 113.001 31c26 0 59.333 -7.83301 100 -23.5s75.334 -23.5 104.001 -23.5c46.667 0 80.667 10.333 102 31
v-99zM458.999 328c-29.333 -14.667 -63.001 -22 -101.001 -22c-26 0 -59.333 7.66699 -100 23s-74.334 23 -101.001 23c-50 0 -89 -12 -117 -36v96c30.667 20.667 68.334 31 113.001 31c26 0 59.333 -7.83301 100 -23.5s75.334 -23.5 104.001 -23.5
c46.667 0 80.667 10.333 102 31v-99z" />
    <glyph glyph-name="notequal" unicode="&#x2260;" horiz-adv-x="500" 
d="M297 331l-34 -79h197v-79h-230l-54 -128h-64l54 128h-126v79h159l34 79h-193v79h226l56 132h64l-56 -132h130v-79h-163z" />
    <glyph glyph-name="lessequal" unicode="&#x2264;" horiz-adv-x="500" 
d="M68 65h384v-65h-384v65zM52 349v65l364 213l33 -68l-321 -177l321 -177l-33 -68z" />
    <glyph glyph-name="greaterequal" unicode="&#x2265;" horiz-adv-x="500" 
d="M47 0v65h384v-65h-384zM50 205l321 177l-321 177l33 68l364 -213v-65l-364 -212z" />
    <glyph glyph-name="lozenge" unicode="&#x25ca;" horiz-adv-x="583" 
d="M292 560l-145 -200l145 -201l144 201zM292 -12l-272 372l272 371l271 -371z" />
    <glyph glyph-name="zero.osf" horiz-adv-x="658" 
d="M329 111c46 0 83.166 16.167 111.499 48.5s42.5 76.833 42.5 133.5c0 57.333 -14.833 102.833 -44.5 136.5s-68.5 50.5 -116.5 50.5c-45.333 0 -82.166 -16 -110.499 -48s-42.5 -76 -42.5 -132c0 -58 14.833 -104 44.5 -138s68.167 -51 115.5 -51zM324.999 604
c84.667 0 153.335 -27.668 206.002 -83.001s79 -130 79 -224s-26.333 -169 -79 -225s-121.334 -84 -206 -84c-84.667 0 -153.334 27.833 -206.001 83.5s-79 130.834 -79 225.501c0 94 26.167 168.667 78.5 224s121.166 83 206.499 83z" />
    <glyph glyph-name="one.osf" horiz-adv-x="563" 
d="M518 124v-124h-473v124h170v343h-170v124h473v-124h-170v-343h170z" />
    <glyph glyph-name="two.osf" horiz-adv-x="553" 
d="M515 0h-472.002v109l165 114c58.667 40.667 99.334 73.667 122.001 99s34 52 34 80c0 26.667 -8 47.167 -24 61.5s-36 21.5 -60 21.5c-32.667 0 -60.5 -11.333 -83.5 -34s-34.5 -54.667 -34.5 -96v-11h-133v16c0 77.333 24 137.333 72 180s107 64 177 64
c62.667 0 115 -17 157 -51s63 -80.333 63 -139c0 -23.333 -3.66699 -45.833 -11 -67.5s-14.666 -38.834 -21.999 -51.5c-7.33301 -12.667 -20.333 -27.667 -39 -45s-31.334 -28.5 -38 -33.5c-6.66699 -5 -21.334 -15.833 -44 -32.5l-81 -60h252v-124z" />
    <glyph glyph-name="three.osf" 
d="M435 232c91.333 -32.667 137 -89.668 137 -171.001c0 -70 -25.5 -124.167 -76.5 -162.5s-113.167 -57.5 -186.5 -57.5c-78.667 0 -145.667 22.333 -201 67s-83 107.667 -83 189h138v-11c0 -39.333 13.667 -70 41 -92s61.333 -33 102 -33c36 0 66.167 8.83301 90.5 26.5
s36.5 42.834 36.5 75.501c0 31.333 -13.167 55.333 -39.5 72s-63.833 25 -112.5 25h-56v120h52c44 0 78.5 9.83301 103.5 29.5s37.5 45.834 37.5 78.501c0 30 -10.833 53.167 -32.5 69.5s-50.5 24.5 -86.5 24.5c-38 0 -68.833 -11.833 -92.5 -35.5
s-35.5 -58.167 -35.5 -103.5h-138c0 84 26 148.333 78 193s116.333 67 193 67c72 0 132 -17.333 180 -52s72 -83.334 72 -146.001c0 -44 -11.5 -81 -34.5 -111s-51.833 -50.667 -86.5 -62z" />
    <glyph glyph-name="four.osf" 
d="M354 117v290l-198 -290h198zM487 -7v-142h-133v144h-341v107l328 486h146v-471h100v-124h-100z" />
    <glyph glyph-name="five.osf" 
d="M327 346c73.333 0 130.999 -24.332 172.999 -72.999s63 -106.334 63 -173.001c0 -70.667 -23.5 -132 -70.5 -184s-112.167 -78 -195.5 -78c-75.333 0 -138.666 22.167 -189.999 66.5s-77 107.5 -77 189.5h131c0 -47.333 12.667 -82.5 38 -105.5s58 -34.5 98 -34.5
c44 0 77.833 13 101.5 39s35.5 58 35.5 96c0 37.333 -11.333 69.333 -34 96s-55 40 -97 40c-44.667 0 -81.667 -14.333 -111 -43h-137l66 405h405v-124h-302l-26 -162c32.667 30 75.667 45 129 45z" />
    <glyph glyph-name="six.osf" 
d="M312 110c35.334 0 66.168 11.5 92.501 34.5s39.5 54.833 39.5 95.5c0 41.333 -13.167 73.333 -39.5 96s-57.833 34 -94.5 34c-36 0 -67.167 -11.5 -93.5 -34.5s-39.5 -54.833 -39.5 -95.5c0 -42 13.167 -74.167 39.5 -96.5s58.166 -33.5 95.499 -33.5zM333.001 497
c65.333 0 122.331 -22.001 170.998 -66.001s73 -105.667 73 -185c0 -76 -25 -138 -75 -186s-112.667 -72 -188 -72c-38.667 0 -74.667 7 -108 21s-64 35.5 -92 64.5s-50.167 69 -66.5 120s-24.5 110.167 -24.5 177.5c0 60.667 7 114.5 21 161.5s31.333 83.833 52 110.5
c20.667 26.6689 45.334 48.3359 74.001 65c28.667 16.6719 55.5 27.8389 80.5 33.5c25 5.66699 50.833 8.5 77.5 8.5c68 0 122 -18.5 162 -55.5s62.333 -89.5 67 -157.5h-133c0.666992 32.667 -9.16602 57.5 -29.499 74.5s-46.5 25.5 -78.5 25.5
c-46 0 -83.5 -18.667 -112.5 -56s-44.833 -94.666 -47.5 -171.999c18 27.333 43 48.833 75 64.5s66 23.5 102 23.5z" />
    <glyph glyph-name="seven.osf" 
d="M558 458l-294 -610h-137l292 608h-397v132h536v-130z" />
    <glyph glyph-name="eight.osf" 
d="M301 103c38.667 0 68.668 9.5 90.001 28.5s32 44.167 32 75.5c0 32 -11.167 58.667 -33.5 80s-52.5 32 -90.5 32s-67.667 -10.5 -89 -31.5s-32 -47.5 -32 -79.5s10.667 -57.5 32 -76.5s51.666 -28.5 90.999 -28.5zM299.001 632c-37.333 0 -64.832 -8.16699 -82.499 -24.5
s-26.5 -37.5 -26.5 -63.5c0 -28.667 10.167 -52.167 30.5 -70.5s47.166 -27.5 80.499 -27.5s60 9.16699 80 27.5s30 41.5 30 69.5c0 26 -9.33301 47.333 -28 64s-46.667 25 -84 25zM434.002 384c40 -12 72.001 -33.168 96.001 -63.501s36 -69.833 36 -118.5
c0 -64 -24.333 -115.667 -73 -155s-112.334 -59 -191 -59c-78.667 0 -143 19.667 -193 59s-75 91.333 -75 156c0 50 12.667 90.333 38 121s56.666 50.334 93.999 59.001c-30.667 10 -57.167 29.5 -79.5 58.5s-33.5 65.5 -33.5 109.5c0 61.333 23.667 109.833 71 145.5
s105.333 53.5 174 53.5c69.334 0 128.167 -18 176.5 -54s72.5 -84.667 72.5 -146c0 -44 -11.5 -80.5 -34.5 -109.5s-49.167 -47.833 -78.5 -56.5z" />
    <glyph glyph-name="nine.osf" 
d="M298 221c33.333 0 62 11.167 86 33.5s36 52.833 36 91.5c0 42.667 -13.667 76 -41 100s-59.666 36 -96.999 36c-34.667 0 -64.834 -11.833 -90.501 -35.5s-38.5 -55.834 -38.5 -96.5c0 -42.667 14.167 -74.834 42.5 -96.5c28.333 -21.667 62.5 -32.5 102.5 -32.5z
M286 604c38.667 0 74.667 -6.99805 108 -20.998s64 -35.5 92 -64.5s50.167 -69 66.5 -120s24.5 -110.167 24.5 -177.5c0 -60.667 -6.66699 -114.5 -20 -161.5c-13.335 -47 -30.168 -83.833 -50.499 -110.5c-20.333 -26.667 -44.333 -48.334 -72 -65.001
s-53.834 -27.834 -78.5 -33.501c-24.667 -5.66699 -50 -8.5 -76 -8.5c-68.667 0 -125 19 -169 57s-69.333 90 -76 156h134c1.33301 -32 14.166 -56.667 38.499 -74s52.5 -26 84.5 -26c44 0 80.833 17.167 110.5 51.5s44.5 84.833 44.5 151.5v22c-40 -54 -101 -81 -183 -81
c-64.667 0 -121 22.167 -169 66.5s-72 104.5 -72 180.5s25 138 75 186s112.667 72 188 72z" />
    <glyph glyph-name="zero.pnum" horiz-adv-x="604" 
d="M303 105c42.667 0 74.667 23.5 96 70.5s32 109.833 32 188.5c0 79.333 -10.833 143.833 -32.5 193.5s-54.834 74.5 -99.5 74.5c-42 0 -73.5 -22.5 -94.5 -67.5s-31.5 -108.5 -31.5 -190.5c0 -84.667 11 -150.667 33 -198s54.333 -71 97 -71zM300 -12
c-87.333 0 -152.5 33.5 -195.5 100.5s-64.5 159.833 -64.5 278.5c0 120 21.667 213.833 65 281.5s109 101.5 197 101.5s153.667 -33.833 197 -101.5s65 -160.834 65 -279.501c0 -119.333 -22 -212.666 -66 -279.999s-110 -101 -198 -101z" />
    <glyph glyph-name="one.pnum" horiz-adv-x="469" 
d="M486 124l-0.000976562 -124h-473v124h170v439c-51.333 -31.333 -111.333 -50.333 -180 -57v130c78.667 10.668 145.334 44.335 200.001 101h113v-613h170z" />
    <glyph glyph-name="two.pnum" 
d="M565 0l-540.001 0.000976562v124l180 148c76.667 62.667 129 110.167 157 142.5c28 32.334 42 66.167 42 101.5c0 34 -11 60.167 -33 78.5s-51.333 27.5 -88 27.5c-39.333 0 -71 -11.333 -95 -34s-37 -55.334 -39 -98.001h-133c0 82 26.333 145.833 79 191.5
s118 68.5 196 68.5c72 0 132 -19.5 180 -58.5s72 -92.833 72 -161.5c0 -31.333 -5.16699 -61 -15.5 -89s-26.666 -55.5 -48.999 -82.5s-45.333 -51.5 -69 -73.5s-54.167 -47.667 -91.5 -77l-106 -84h353v-124z" />
    <glyph glyph-name="three.pnum" horiz-adv-x="585" 
d="M428 379c91.333 -32.667 137 -89.667 137 -171c0 -70 -25.5 -124.167 -76.5 -162.5s-113.167 -57.5 -186.5 -57.5c-78.667 0 -145.667 22.333 -201 67s-83 107.667 -83 189h138v-11c0 -39.333 13.667 -70 41 -92s61.333 -33 102 -33c36 0 66.167 8.83301 90.5 26.5
s36.5 42.834 36.5 75.5c0 31.333 -13.167 55.333 -39.5 72s-63.833 25 -112.5 25h-56v120h52c44 0 78.5 9.83301 103.5 29.5s37.5 45.834 37.5 78.501c0 30 -10.833 53.167 -32.5 69.5s-50.5 24.5 -86.5 24.5c-38 0 -68.833 -11.833 -92.5 -35.5s-35.5 -58.167 -35.5 -103.5
h-138c0 84 26 148.333 78 193s116.333 67 193 67c72 0 132 -17.333 180 -52s72 -83.334 72 -146.001c0 -44 -11.5 -81 -34.5 -111s-51.833 -50.667 -86.5 -62z" />
    <glyph glyph-name="four.pnum" horiz-adv-x="634" 
d="M371 266v290l-198 -290h198zM504 142v-142h-133v144h-341v107l328 486h146v-471h100v-124h-100z" />
    <glyph glyph-name="five.pnum" horiz-adv-x="585" 
d="M319 496c73.333 0 130.999 -24.333 172.999 -73s63 -106.334 63 -173c0 -70.667 -23.5 -132 -70.5 -184s-112.167 -78 -195.5 -78c-75.333 0 -138.666 22.167 -189.999 66.5s-77 107.5 -77 189.5h131c0 -47.333 12.667 -82.5 38 -105.5s58 -34.5 98 -34.5
c44 0 77.833 13 101.5 39s35.5 58 35.5 96c0 37.333 -11.333 69.333 -34 96s-55 40 -97 40c-44.667 0 -81.667 -14.333 -111 -43h-137l66 405h405v-124h-302l-26 -162c32.667 30 75.667 45 129 45z" />
    <glyph glyph-name="six.pnum" horiz-adv-x="594" 
d="M314 110c35.334 0 66.168 11.5 92.501 34.5s39.5 54.833 39.5 95.5c0 41.333 -13.167 73.333 -39.5 96s-57.833 34 -94.5 34c-36 0 -67.167 -11.5 -93.5 -34.5s-39.5 -54.833 -39.5 -95.5c0 -42 13.167 -74.167 39.5 -96.5s58.166 -33.5 95.499 -33.5zM335.001 497
c65.333 0 122.331 -22.001 170.998 -66.001s73 -105.667 73 -185c0 -76 -25 -138 -75 -186s-112.667 -72 -188 -72c-38.667 0 -74.667 7 -108 21s-64 35.5 -92 64.5s-50.167 69 -66.5 120s-24.5 110.167 -24.5 177.5c0 60.667 7 114.5 21 161.5s31.333 83.833 52 110.5
c20.667 26.6689 45.334 48.3359 74.001 65c28.667 16.6719 55.5 27.8389 80.5 33.5c25 5.66699 50.833 8.5 77.5 8.5c68 0 122 -18.5 162 -55.5s62.333 -89.5 67 -157.5h-133c0.666992 32.667 -9.16602 57.5 -29.499 74.5s-46.5 25.5 -78.5 25.5
c-46 0 -83.5 -18.667 -112.5 -56s-44.833 -94.666 -47.5 -171.999c18 27.333 43 48.833 75 64.5s66 23.5 102 23.5z" />
    <glyph glyph-name="seven.pnum" horiz-adv-x="516" 
d="M516 610l-294 -610h-137l292 608h-397v132h536v-130z" />
    <glyph glyph-name="eight.pnum" horiz-adv-x="572" 
d="M287 103c38.667 0 68.668 9.5 90.001 28.5s32 44.167 32 75.5c0 32 -11.167 58.667 -33.5 80s-52.5 32 -90.5 32s-67.667 -10.5 -89 -31.5s-32 -47.5 -32 -79.5s10.667 -57.5 32 -76.5s51.666 -28.5 90.999 -28.5zM285.001 632c-37.333 0 -64.832 -8.16699 -82.499 -24.5
s-26.5 -37.5 -26.5 -63.5c0 -28.667 10.167 -52.167 30.5 -70.5s47.166 -27.5 80.499 -27.5s60 9.16699 80 27.5s30 41.5 30 69.5c0 26 -9.33301 47.333 -28 64s-46.667 25 -84 25zM420.002 384c40 -12 72.002 -33.168 96.002 -63.501s36 -69.833 36 -118.5
c0 -64 -24.333 -115.667 -73 -155s-112.334 -59 -191 -59c-78.667 0 -143 19.667 -193 59s-75 91.333 -75 156c0 50 12.667 90.333 38 121s56.666 50.334 93.999 59.001c-30.667 10 -57.167 29.5 -79.5 58.5s-33.5 65.5 -33.5 109.5c0 61.333 23.667 109.833 71 145.5
s105.333 53.5 174 53.5c69.333 0 128.166 -18 176.499 -54s72.5 -84.667 72.5 -146c0 -44 -11.5 -80.5 -34.5 -109.5s-49.167 -47.833 -78.5 -56.5z" />
    <glyph glyph-name="nine.pnum" horiz-adv-x="594" 
d="M295 367c33.333 0 62 11.168 86 33.501s36 52.833 36 91.5c0 42.667 -13.667 76 -41 100s-59.666 36 -96.999 36c-34.667 0 -64.834 -11.833 -90.501 -35.5s-38.5 -55.834 -38.5 -96.501c0 -42.667 14.167 -74.834 42.5 -96.5c28.333 -21.667 62.5 -32.5 102.5 -32.5z
M283 750.001c38.667 0 74.667 -6.99805 108 -20.998s64 -35.5 92 -64.5s50.167 -69 66.5 -120s24.5 -110.167 24.5 -177.5c0 -60.667 -6.66699 -114.5 -20 -161.5c-13.335 -47 -30.168 -83.833 -50.499 -110.5c-20.333 -26.667 -44.333 -48.334 -72 -65.001
s-53.834 -27.834 -78.5 -33.501c-24.667 -5.66699 -50 -8.5 -76 -8.5c-68.667 0 -125 19 -169 57s-69.333 90 -76 156h134c1.33301 -32 14.166 -56.667 38.499 -74s52.5 -26 84.5 -26c44 0 80.833 17.167 110.5 51.5s44.5 84.833 44.5 151.5v22c-40 -54 -101 -81 -183 -81
c-64.667 0 -121 22.167 -169 66.5s-72 104.5 -72 180.5s25 138 75 186s112.667 72 188 72z" />
    <glyph glyph-name="zero.dnom" horiz-adv-x="380" 
d="M188 379c-50.667 0 -75.999 -51.998 -75.999 -155.998c0 -50.667 6.66699 -90.334 20 -119.001s32.666 -43 57.999 -43c26 0 45.5 14.167 58.5 42.5s19.5 66.166 19.5 113.499c0 48 -6.5 87 -19.5 117s-33.167 45 -60.5 45zM189.001 -9.99805
c-53.333 0 -93.001 20.167 -119.001 60.5s-39 96.5 -39 168.5c0 72.667 13 129.5 39 170.5s66 61.5 120 61.5c52.667 0 92.334 -20.5 119.001 -61.5s40 -97.5 40 -169.5s-13.333 -128.333 -40 -169s-66.667 -61 -120 -61z" />
    <glyph glyph-name="one.dnom" horiz-adv-x="380" 
d="M337 77v-76h-287v76h103v269c-32 -19.333 -68.333 -31 -109 -35v79c48 6 88.333 26.333 121 61h69v-374h103z" />
    <glyph glyph-name="two.dnom" horiz-adv-x="380" 
d="M357 1h-327.001v76l109 89c48 39.333 80.167 68.333 96.5 87s24.5 39 24.5 61c0 19.333 -7 34.833 -21 46.5s-31.333 17.5 -52 17.5c-24.667 0 -44.667 -7.83301 -60 -23.5s-22.666 -37.5 -21.999 -65.5h-82v7c0 50.667 16.667 90 50 118s72 42 116 42
c41.333 0 77.5 -12.333 108.5 -37s46.5 -57.667 46.5 -99c0 -34 -11.5 -65.5 -34.5 -94.5s-57.167 -61.5 -102.5 -97.5l-64 -51h214v-76z" />
    <glyph glyph-name="three.dnom" horiz-adv-x="380" 
d="M276 241c52.667 -22 79 -57.0039 79 -105.004c0 -37.333 -14 -68.833 -42 -94.5s-67 -38.5 -117 -38.5c-49.333 0 -90 13.167 -122 39.5s-48.333 62.5 -49 108.5h82c0.666992 -24.667 9 -43.167 25 -55.5s37 -18.5 63 -18.5c24.667 0 43.5 5.5 56.5 16.5
s19.5 25.5 19.5 43.5c0 40 -30.667 60 -92 60h-28v73h25c26.667 0 47.667 5.83301 63 17.5s23 26.834 23 45.501s-7 32.834 -21 42.501s-31.333 14.5 -52 14.5c-28 0 -49.667 -8.66699 -65 -26s-23 -39.666 -23 -66.999h-82c0 52.667 16 93.667 48 123s74 44 126 44
c45.333 0 82 -11 110 -33s42 -51 42 -87c0 -24.667 -6.5 -46.167 -19.5 -64.5s-29.5 -31.166 -49.5 -38.499z" />
    <glyph glyph-name="four.dnom" horiz-adv-x="380" 
d="M223 163v182l-120 -182h120zM303 88v-87h-80v88h-207v65l199 297h88v-288h61v-75h-61z" />
    <glyph glyph-name="five.dnom" horiz-adv-x="380" 
d="M209 310c44.667 0 79.667 -14.665 105 -43.998s38 -64.333 38 -105c0 -42.667 -14.167 -79.834 -42.5 -111.501s-67.833 -47.5 -118.5 -47.5c-44 0 -81.333 12.667 -112 38s-47.667 61.666 -51 108.999h82c1.33301 -26 9.5 -45.333 24.5 -58s33.833 -19 56.5 -19
c26.667 0 47.167 7.83301 61.5 23.5s21.5 35.167 21.5 58.5c0 22.667 -6.83301 42.167 -20.5 58.5s-33.167 24.5 -58.5 24.5c-26 0 -48.667 -8.66699 -68 -26h-83l41 248h245v-75h-183l-15 -92c25.333 12 51 18 77 18z" />
    <glyph glyph-name="six.dnom" horiz-adv-x="380" 
d="M199 77c23.333 0 42.167 6.83301 56.5 20.5s21.5 32.5 21.5 56.5s-7.66699 43 -23 57c-15.334 14 -34.667 21 -58 21s-42.5 -6.83301 -57.5 -20.5s-22.5 -32.167 -22.5 -55.5c0 -24.667 8 -44 24 -58s35.667 -21 59 -21zM206.001 309
c42 0 77.834 -13.668 107.501 -41.001s44.5 -63.666 44.5 -108.999c0 -46.667 -15.167 -84.5 -45.5 -113.5s-68.5 -43.5 -114.5 -43.5c-50 0 -91.833 18.833 -125.5 56.5s-50.5 96.167 -50.5 175.5c0 37.333 4.16699 70.166 12.5 98.499s18.833 50.5 31.5 66.5
s27.667 29.167 45 39.5c17.333 10.335 33.666 17.168 48.999 20.5c15.333 3.33301 31 5 47 5c40 0 72.167 -10.667 96.5 -32s38.5 -51.666 42.5 -90.999h-81c-0.666992 18 -7.16699 31.667 -19.5 41s-27.5 14 -45.5 14c-27.333 0 -49.833 -11.167 -67.5 -33.5
s-27.5 -56.5 -29.5 -102.5c26 32.667 60.333 49 103 49z" />
    <glyph glyph-name="seven.dnom" horiz-adv-x="380" 
d="M350 372l-177 -371h-83l176 369h-233v81h317v-79z" />
    <glyph glyph-name="eight.dnom" horiz-adv-x="380" 
d="M191 79c23.333 0 41.333 5.16895 54 15.502s19 24.166 19 41.499c0 18.667 -6.66699 34.5 -20 47.5s-31.333 19.5 -54 19.5s-40.5 -6.33301 -53.5 -19s-19.5 -28.334 -19.5 -47.001c0 -18 6.33301 -32.167 19 -42.5s31 -15.5 55 -15.5zM190 392.002
c-44 0 -66 -17.667 -66 -53c0 -17.333 6.16699 -31.5 18.5 -42.5s28.5 -16.5 48.5 -16.5s36 5.5 48 16.5s18 25.167 18 42.5c0 15.333 -5.66699 28 -17 38s-28 15 -50 15zM272 242.002c22.667 -7.33398 41.499 -21.1689 56.499 -41.502c15 -20.334 22.5 -44.167 22.5 -71.5
c0 -38.667 -14.667 -69.5 -44 -92.5s-68 -34.5 -116 -34.5c-47.333 0 -86.166 11.5 -116.499 34.5s-45.5 53.833 -45.5 92.5c0 28.667 7.83301 53.167 23.5 73.5s34.5 33.5 56.5 39.5c-45.333 18 -68 51 -68 99c0 37.334 14.333 67.167 43 89.5s63.667 33.5 105 33.5
c42 0 77.667 -11.167 107 -33.5s44 -52.166 44 -89.499c0 -26 -6.83301 -47.167 -20.5 -63.5s-29.5 -28.166 -47.5 -35.499z" />
    <glyph glyph-name="nine.dnom" horiz-adv-x="380" 
d="M184 234c23.333 0 42.5 6.83301 57.5 20.5s22.5 32.167 22.5 55.5c0 24.667 -8 44 -24 58s-35.667 21 -59 21s-42.166 -6.83301 -56.499 -20.5s-21.5 -32.5 -21.5 -56.5s7.66699 -43 23 -57s34.666 -21 57.999 -21zM181 464c50 0 92 -18.834 126 -56.501
s51 -96.167 51 -175.5c0 -45.333 -6 -84.166 -18 -116.499s-27.833 -56 -47.5 -71s-39 -25.667 -58 -32s-38.833 -9.5 -59.5 -9.5c-40.667 0 -73.667 10.833 -99 32.5s-40.666 51.5 -45.999 89.5h81c2 -17.333 9.83301 -30.5 23.5 -39.5s29.5 -13.5 47.5 -13.5
c26.667 0 49.5 10.833 68.5 32.5s28.5 53.167 28.5 94.5v5c-29.333 -31.333 -64.333 -47 -105 -47c-42 0 -77.833 13.667 -107.5 41s-44.5 64 -44.5 110s15.167 83.5 45.5 112.5s68.166 43.5 113.499 43.5z" />
    <glyph glyph-name="zero.numr" horiz-adv-x="380" 
d="M188 678c-50.667 0 -75.999 -51.998 -75.999 -155.998c0 -50.667 6.66699 -90.334 20 -119.001s32.666 -43 57.999 -43c26 0 45.5 14.167 58.5 42.5s19.5 66.166 19.5 113.499c0 48 -6.5 87 -19.5 117s-33.167 45 -60.5 45zM189.001 289.002
c-53.333 0 -93.001 20.167 -119.001 60.5s-39 96.5 -39 168.5c0 72.667 13 129.5 39 170.5s66 61.5 120 61.5c52.667 0 92.334 -20.5 119.001 -61.5s40 -97.5 40 -169.5s-13.333 -128.333 -40 -169s-66.667 -61 -120 -61z" />
    <glyph glyph-name="one.numr" horiz-adv-x="380" 
d="M337 371v-76h-287v76h103v269c-32 -19.333 -68.333 -31 -109 -35v79c48 6 88.333 26.333 121 61h69v-374h103z" />
    <glyph glyph-name="two.numr" horiz-adv-x="380" 
d="M357 295h-327.001v76l109 89c48 39.333 80.167 68.333 96.5 87s24.5 39 24.5 61c0 19.333 -7 34.833 -21 46.5s-31.333 17.5 -52 17.5c-24.667 0 -44.667 -7.83301 -60 -23.5s-22.666 -37.5 -21.999 -65.5h-82v7c0 50.667 16.667 90 50 118s72 42 116 42
c41.333 0 77.5 -12.333 108.5 -37s46.5 -57.667 46.5 -99c0 -34 -11.5 -65.5 -34.5 -94.5s-57.167 -61.5 -102.5 -97.5l-64 -51h214v-76z" />
    <glyph glyph-name="three.numr" horiz-adv-x="380" 
d="M276 527c52.667 -22 79 -57.001 79 -105.001c0 -37.333 -14 -68.833 -42 -94.5s-67 -38.5 -117 -38.5c-49.333 0 -90 13.167 -122 39.5s-48.333 62.5 -49 108.5h82c0.666992 -24.667 9 -43.167 25 -55.5s37 -18.5 63 -18.5c24.667 0 43.5 5.5 56.5 16.5
s19.5 25.5 19.5 43.5c0 40 -30.667 60 -92 60h-28v73h25c26.667 0 47.667 5.83301 63 17.5c15.333 11.6689 23 26.8359 23 45.5c0 18.6719 -7 32.8389 -21 42.501c-14 9.66699 -31.333 14.5 -52 14.5c-28 0 -49.667 -8.66699 -65 -26c-15.333 -17.335 -23 -39.668 -23 -67
h-82c0 52.667 16 93.667 48 123s74 44 126 44c45.333 0 82 -11 110 -33s42 -51 42 -87c0 -24.667 -6.5 -46.167 -19.5 -64.5c-13 -18.3379 -29.5 -31.1709 -49.5 -38.5z" />
    <glyph glyph-name="four.numr" horiz-adv-x="380" 
d="M223 457v182l-120 -182h120zM303 382v-87h-80v88h-207v65l199 297h88v-288h61v-75h-61z" />
    </font>
</defs>
</svg>
