<?xml version="1.0" standalone="no"?>
<!DOCTYPE svg PUBLIC "-//W3C//DTD SVG 1.1//EN" "http://www.w3.org/Graphics/SVG/1.1/DTD/svg11.dtd" >
<svg xmlns="http://www.w3.org/2000/svg" xmlns:xlink="http://www.w3.org/1999/xlink" version="1.1">
<metadata>
Created by FontForge 20190801 at Tue Aug 25 19:02:57 2015
 By Jimmy Wärting
Copyright (c) 2015 by Luzi Type. All rights reserved.
</metadata>
<defs>
<font id="MessinaSans-Light" horiz-adv-x="600" >
  <font-face 
    font-family="MessinaSans"
    font-weight="300"
    font-stretch="normal"
    units-per-em="1000"
    panose-1="0 0 4 0 0 0 0 0 0 0"
    ascent="800"
    descent="-200"
    x-height="532"
    cap-height="750"
    bbox="-51 -344 1286 1020"
    underline-thickness="50"
    underline-position="-100"
    unicode-range="U+000D-FB04"
  />
<missing-glyph horiz-adv-x="500" 
 />
    <glyph glyph-name="ff" unicode="ff" horiz-adv-x="686" 
d="M666 710h-59c-28.667 0 -48.5 -6 -59.5 -18s-16.5 -31.667 -16.5 -59v-101h121v-52h-121v-480h-57v480h-306v-480h-57v480h-91v52h91v99c0 50.667 10.667 85.167 32 103.5s50.333 27.5 87 27.5h73v-52h-59c-28.667 0 -48.5 -6 -59.5 -18s-16.5 -31.667 -16.5 -59v-101
h306v99c0 50.667 10.667 85.167 32 103.5s50.333 27.5 87 27.5h73v-52z" />
    <glyph glyph-name="fi" unicode="fi" horiz-adv-x="602" 
d="M522 532v-532h-57v480h-297v-480h-57v480h-91v52h91v99c0 50.667 10.667 85.167 32 103.5s50.333 27.5 87 27.5h73v-52h-59c-28.667 0 -48.5 -6 -59.5 -18s-16.5 -31.667 -16.5 -59v-101h354z" />
    <glyph glyph-name="fl" unicode="fl" horiz-adv-x="607" 
d="M522 0h-57v480h-297v-480h-57v480h-91v52h91v99c0 50.667 10.667 85.167 32 103.5s50.333 27.5 87 27.5h73v-52h-59c-28.667 0 -48.5 -6 -59.5 -18s-16.5 -31.667 -16.5 -59v-101h297v230h57v-762z" />
    <glyph glyph-name="ffi" unicode="ffi" horiz-adv-x="965" 
d="M885 532v-532h-57v480h-297v-480h-57v480h-306v-480h-57v480h-91v52h91v99c0 50.667 10.667 85.167 32 103.5s50.333 27.5 87 27.5h73v-52h-59c-28.667 0 -48.5 -6 -59.5 -18s-16.5 -31.667 -16.5 -59v-101h306v99c0 50.667 10.667 85.167 32 103.5s50.333 27.5 87 27.5
h73v-52h-59c-28.667 0 -48.5 -6 -59.5 -18s-16.5 -31.667 -16.5 -59v-101h354z" />
    <glyph glyph-name="ffl" unicode="ffl" horiz-adv-x="970" 
d="M885 0h-57v480h-297v-480h-57v480h-306v-480h-57v480h-91v52h91v99c0 50.667 10.667 85.167 32 103.5s50.333 27.5 87 27.5h73v-52h-59c-28.667 0 -48.5 -6 -59.5 -18s-16.5 -31.667 -16.5 -59v-101h306v99c0 50.667 10.667 85.167 32 103.5s50.333 27.5 87 27.5h73v-52
h-59c-28.667 0 -48.5 -6 -59.5 -18s-16.5 -31.667 -16.5 -59v-101h297v230h57v-762z" />
    <glyph glyph-name="T_h" unicode="Th" horiz-adv-x="1201" 
d="M596 697h-258v-697h-60v697h-258v53h576v-53zM947 542c53.333 0 95.667 -14.6689 127 -44.002s47 -72.666 47 -129.999v-368h-57v359c0 42.667 -11.5 75.167 -34.5 97.5s-52.833 33.5 -89.5 33.5c-48.667 0 -91.167 -18.167 -127.5 -54.5s-54.5 -86.166 -54.5 -149.499
v-286h-57v762h57v-330c37.333 73.333 100.333 110 189 110z" />
    <glyph glyph-name="f_f_j" unicode="ffj" horiz-adv-x="959" 
d="M884 532v-607c0 -50.667 -10.667 -85.167 -32 -103.5s-50.333 -27.5 -87 -27.5h-41v52h27c28.667 0 48.5 6 59.5 18s16.5 31.667 16.5 59v557h-296v-480h-57v480h-306v-480h-57v480h-91v52h91v99c0 50.667 10.667 85.167 32 103.5s50.333 27.5 87 27.5h73v-52h-59
c-28.667 0 -48.5 -6 -59.5 -18s-16.5 -31.667 -16.5 -59v-101h306v99c0 50.667 10.667 85.167 32 103.5s50.333 27.5 87 27.5h73v-52h-59c-28.667 0 -48.5 -6 -59.5 -18s-16.5 -31.667 -16.5 -59v-101h353z" />
    <glyph glyph-name="f_f_t" unicode="fft" horiz-adv-x="1053" 
d="M1028 0h-81c-36.667 0 -65.667 9.16699 -87 27.5s-32 52.833 -32 103.5v349h-297v-480h-57v480h-306v-480h-57v480h-91v52h91v99c0 50.667 10.667 85.167 32 103.5s50.333 27.5 87 27.5h73v-52h-59c-28.667 0 -48.5 -6 -59.5 -18s-16.5 -31.667 -16.5 -59v-101h306v99
c0 50.667 10.667 85.167 32 103.5s50.333 27.5 87 27.5h73v-52h-59c-28.667 0 -48.5 -6 -59.5 -18s-16.5 -31.667 -16.5 -59v-101h297v159l57 16v-175h132v-52h-132v-351c0 -27.333 5.5 -47 16.5 -59s30.833 -18 59.5 -18h67v-52z" />
    <glyph glyph-name="f_j" unicode="fj" horiz-adv-x="595" 
d="M520 532v-607c0 -50.667 -10.667 -85.167 -32 -103.5s-50.333 -27.5 -87 -27.5h-41v52h27c28.667 0 48.5 6 59.5 18s16.5 31.667 16.5 59v557h-295v-480h-57v480h-91v52h91v99c0 50.667 10.667 85.167 32 103.5s50.333 27.5 87 27.5h73v-52h-59
c-28.667 0 -48.5 -6 -59.5 -18s-16.5 -31.667 -16.5 -59v-101h352z" />
    <glyph glyph-name="f_t" unicode="ft" horiz-adv-x="690" 
d="M665 0h-81c-36.667 0 -65.667 9.16699 -87 27.5s-32 52.833 -32 103.5v349h-297v-480h-57v480h-91v52h91v99c0 50.667 10.667 85.167 32 103.5s50.333 27.5 87 27.5h73v-52h-59c-28.667 0 -48.5 -6 -59.5 -18s-16.5 -31.667 -16.5 -59v-101h297v159l57 16v-175h132v-52
h-132v-351c0 -27.333 5.5 -47 16.5 -59s30.833 -18 59.5 -18h67v-52z" />
    <glyph glyph-name="t_t" unicode="tt" horiz-adv-x="697" 
d="M672 0h-81c-36.667 0 -65.667 9.16699 -87 27.5s-32 52.833 -32 103.5v349h-297v-351c0 -27.333 5.5 -47 16.5 -59s30.833 -18 59.5 -18h67v-52h-81c-36.667 0 -65.667 9.16699 -87 27.5s-32 52.833 -32 103.5v349h-108v52h108v159l57 16v-175h297v159l57 16v-175h132
v-52h-132v-351c0 -27.333 5.5 -47 16.5 -59s30.833 -18 59.5 -18h67v-52z" />
    <glyph glyph-name=".notdef" horiz-adv-x="500" 
 />
    <glyph glyph-name="CR" unicode="&#xd;" horiz-adv-x="500" 
 />
    <glyph glyph-name="space" unicode=" " horiz-adv-x="220" 
 />
    <glyph glyph-name="exclam" unicode="!" horiz-adv-x="264" 
d="M90 88h84v-88h-84v88zM164 402l-12 -190h-42l-12 190v348h66v-348z" />
    <glyph glyph-name="quotedbl" unicode="&#x22;" horiz-adv-x="370" 
d="M220 788h80l-14 -292h-51zM60 788h80l-14 -292h-51z" />
    <glyph glyph-name="numbersign" unicode="#" horiz-adv-x="635" 
d="M390 459h-141l-25 -161h141zM442 459l-24 -161h161v-43h-168l-39 -255h-53l39 255h-141l-39 -255h-53l39 255h-134v43h141l25 161h-150v43h156l37 238h52l-36 -238h141l37 238h52l-36 -238h146v-43h-153z" />
    <glyph glyph-name="dollar" unicode="$" horiz-adv-x="640" 
d="M337 34c55.334 0 100.666 13.1689 135.999 39.502s53 62.166 53 107.499c0 20.667 -4.16699 39.167 -12.5 55.5s-18 29.666 -29 39.999s-26.167 20 -45.5 29s-36.166 15.667 -50.499 20s-32.5 9.5 -54.5 15.5l-21 -306c5.33301 -0.666992 13.333 -1 24 -1z
M136.999 570.002c0 -44 13.5 -77.499 40.5 -100.499s66.167 -42.5 117.5 -58.5l21 306h-3c-52 0 -94.333 -12.333 -127 -37s-49 -61.334 -49 -110.001zM359.999 713.003l-20.9971 -315.001c34.667 -10 61 -17.833 79 -23.5s39.667 -14.5 65 -26.5s44.333 -24.5 57 -37.5
s23.667 -30 33 -51s14 -45.167 14 -72.5c0 -66.667 -23.333 -117.667 -70 -153s-106.334 -53 -179 -53c-12.667 0 -22.334 0.333008 -29.001 1l-8 -118h-44l9 124c-65.333 12.667 -117.333 41 -156 85s-58.667 97 -60 159h63c2.66699 -52 18.167 -94 46.5 -126
s64.833 -53.333 109.5 -64l22 311c-30.667 8.66699 -57 17.834 -79 27.501s-44.333 22.5 -67 38.5s-39.834 36.5 -51.501 61.5s-17.5 53.833 -17.5 86.5c0 63.333 21.5 112.666 64.5 147.999s101.167 53 174.5 53h5l6 91h44l-7 -94
c60 -7.33594 109.333 -27.6689 148 -60.999c38.667 -33.333 59.667 -80 63 -140h-63c-2.66797 43.333 -17.835 77.333 -45.501 102c-27.667 24.6689 -62.834 40.3359 -105.5 47z" />
    <glyph glyph-name="percent" unicode="%" horiz-adv-x="914" 
d="M817 163c0 36.667 -11.333 66.5 -34 89.5s-51 34.5 -85 34.5s-62.167 -11.5 -84.5 -34.5s-33.5 -52.833 -33.5 -89.5c0 -37.333 11.167 -67.666 33.5 -90.999s50.5 -35 84.5 -35s62.333 11.667 85 35s34 53.666 34 90.999zM523 162c0 51.333 16.667 93.333 50 126
s74.333 49 123 49c51.333 0 93.833 -16.167 127.5 -48.5s50.5 -74.5 50.5 -126.5c0 -50.667 -17 -92.667 -51 -126s-76.333 -50 -127 -50c-48.667 0 -89.667 16.667 -123 50s-50 75.333 -50 126zM334 586c0 36.667 -11.333 66.5 -34 89.5s-51 34.5 -85 34.5
s-62.167 -11.5 -84.5 -34.5s-33.5 -52.833 -33.5 -89.5c0 -37.334 11.167 -67.667 33.5 -90.999c22.333 -23.333 50.5 -35 84.5 -35s62.333 11.667 85 35s34 53.666 34 90.999zM252 0h-55l478 750h55zM40 585c0 51.333 16.667 93.333 50 126s74.333 49 123 49
c51.333 0 93.833 -16.167 127.5 -48.5s50.5 -74.5 50.5 -126.5c0 -50.667 -17 -92.667 -51 -126s-76.333 -50 -127 -50c-48.667 0 -89.667 16.667 -123 50c-33.333 33.334 -50 75.334 -50 126z" />
    <glyph glyph-name="ampersand" unicode="&#x26;" horiz-adv-x="754" 
d="M320 40c36 0 71 7.16602 105 21.499s62 34.833 84 61.5l-235 237c-94.667 -27.333 -142 -80 -142 -158c0 -51.333 18.333 -91.166 55 -119.499s81 -42.5 133 -42.5zM193 581.999c0 -44.667 19.333 -86.333 58 -125l41 -41c50 12 88.333 32.667 115 62s40 63 40 101
c0 37.333 -12.333 67 -37 89s-54.667 33 -90 33s-65.333 -10.5 -90 -31.5s-37 -50.167 -37 -87.5zM629 0l-83 84c-59.333 -64 -136.333 -96 -231 -96c-67.333 0 -125 18.5 -173 55.5s-72 87.833 -72 152.5c0 46.667 14 87.167 42 121.5s69.667 59.5 125 75.5l-38 41
c-42 44.667 -63 93 -63 145c0 54 18.333 96 55 126s81 45 133 45c50 0 92.5 -14.667 127.5 -44s52.5 -70.333 52.5 -123c0 -92 -58.333 -160 -175 -204l211 -211c27.333 37.333 41 95.333 41 174v32h56v-32c0 -84 -20 -155.333 -60 -214l127 -128h-75z" />
    <glyph glyph-name="quotesingle" unicode="'" horiz-adv-x="200" 
d="M60 788h80l-14 -292h-51z" />
    <glyph glyph-name="parenleft" unicode="(" horiz-adv-x="355" 
d="M93 341c0 -104 22.833 -199 68.5 -285s106.834 -155 183.501 -207l-26 -36c-83.333 50 -150.666 121.5 -201.999 214.5s-77 197.5 -77 313.5s25.667 220.5 77 313.5s118.666 164.5 201.999 214.5l26 -36c-76.667 -52 -137.834 -121 -183.501 -207s-68.5 -181 -68.5 -285z
" />
    <glyph glyph-name="parenright" unicode=")" horiz-adv-x="355" 
d="M262 341c0 104 -22.833 199 -68.5 285s-106.834 155 -183.501 207l26 36c83.333 -50 150.666 -121.5 201.999 -214.5s77 -197.5 77 -313.5s-25.667 -220.5 -77 -313.5s-118.666 -164.5 -201.999 -214.5l-26 36c76.667 52 137.834 121 183.501 207s68.5 181 68.5 285z" />
    <glyph glyph-name="asterisk" unicode="*" horiz-adv-x="395" 
d="M57 710l116 -42l-5 125h60l-7 -125l116 41l18 -50l-118 -39l75 -94l-45 -32l-69 98l-69 -100l-46 33l74 95l-117 37z" />
    <glyph glyph-name="plus" unicode="+" horiz-adv-x="500" 
d="M460 266h-182v-193h-55v193h-183v53h183v193h55v-193h182v-53z" />
    <glyph glyph-name="comma" unicode="," horiz-adv-x="223" 
d="M183 91v-96c0 -93.333 -44 -146.333 -132 -159l-11 38c38.667 9.33301 64 24.5 76 45.5s18 50.167 18 87.5h-43v84h92z" />
    <glyph glyph-name="hyphen" unicode="-" horiz-adv-x="428" 
d="M368 349v-52h-308v52h308z" />
    <glyph glyph-name="period" unicode="." horiz-adv-x="187" 
d="M50 91h87v-91h-87v91z" />
    <glyph glyph-name="slash" unicode="/" horiz-adv-x="448" 
d="M408 830l-331 -922h-57l331 922h57z" />
    <glyph glyph-name="zero" unicode="0" 
d="M302 46c59.333 0 103.666 28.667 132.999 86s44.333 134.666 45 231.999v5c0 96.667 -14.833 174.667 -44.5 234s-75.5 89 -137.5 89c-59.333 0 -103.666 -28.667 -132.999 -86s-44.333 -134.666 -45 -231.999v-5c0 -96 14.667 -173.833 44 -233.5
s74.333 -89.5 135 -89.5h3zM299 -12c-81.333 0 -141.333 33.5 -180 100.5s-58 160.5 -58 280.5s19.5 213.5 58.5 280.5s99.5 100.5 181.5 100.5c81.333 0 141.333 -33.5 180 -100.5s58 -160.5 58 -280.5s-19.5 -213.5 -58.5 -280.5s-99.5 -100.5 -181.5 -100.5z" />
    <glyph glyph-name="one" unicode="1" 
d="M503 0h-397v55h171v605c-46 -38.667 -106.333 -63.667 -181 -75v54c72.667 14 135 46.667 187 98h50v-682h170v-55z" />
    <glyph glyph-name="two" unicode="2" 
d="M554 0l-502 0.00195312v59l188 172c9.33301 8.66699 23.666 21.667 42.999 39c19.333 17.334 33 29.667 41 36.999c8 7.33301 19.5 18.166 34.5 32.499s25.667 25.333 32 33s14.833 17.667 25.5 30s18.167 23 22.5 32c4.33691 9 9.16992 19.333 14.5 31
c5.33301 11.667 8.83301 23.167 10.5 34.5s2.5 23 2.5 35c0 50 -15.667 89 -47 117s-71.666 42 -120.999 42c-50.667 0 -94 -15.333 -130 -46s-56 -75.334 -60 -134.001h-61c4.66699 75.333 31.334 133.5 80.001 174.5s106.667 61.5 174 61.5c64 0 117.667 -18.5 161 -55.5
s65 -87.833 65 -152.5c0 -29.333 -4.33301 -56.666 -13 -81.999c-8.66797 -25.333 -24.335 -52 -47.001 -80c-22.667 -28 -44 -52 -64 -72s-50.333 -48.333 -91 -85l-185 -168h427v-55z" />
    <glyph glyph-name="three" unicode="3" 
d="M395 382c50 -11.333 88.998 -33.999 116.998 -67.999s42 -74 42 -120c0 -57.333 -21.833 -106 -65.5 -146s-104.834 -60 -183.5 -60c-78 0 -140.833 20.833 -188.5 62.5s-71.5 99.5 -71.5 173.5h63v-8c0 -54.667 18.5 -97.5 55.5 -128.5s84.5 -46.5 142.5 -46.5
c56 0 100.333 14 133 42s49 63.333 49 106c0 45.333 -18.667 83.5 -56 114.5s-89.333 46.5 -156 46.5h-18v51h15c62 0 111 15.5 147 46.5s54 68.5 54 112.5c0 43.333 -16.833 76.666 -50.5 99.999s-74.834 35 -123.5 35c-51.333 0 -94.666 -15.667 -129.999 -47
s-53 -76 -53 -134h-60c0 74.667 23.833 132.667 71.5 174s107.167 62 178.5 62c68.667 0 124.334 -16.667 167.001 -50c42.667 -33.334 64 -78.667 64 -136c0 -44 -13 -82.167 -39 -114.5s-60.667 -54.833 -104 -67.5z" />
    <glyph glyph-name="four" unicode="4" 
d="M390 688l-304 -450h304v450zM572 185h-127v-185h-55v187h-362v63l328 487h89v-499h127v-53z" />
    <glyph glyph-name="five" unicode="5" 
d="M323 475c70.667 0 125.999 -21.998 165.999 -65.998s60 -100 60 -168c0 -72.667 -22 -133 -66 -181s-105.333 -72 -184 -72c-70 0 -128.667 19.667 -176 59s-71 94.666 -71 165.999v11h62v-15c0 -54.667 17.833 -96.334 53.5 -125.001s79.5 -43 131.5 -43
c58.667 0 105.167 18.167 139.5 54.5s51.5 80.5 51.5 132.5c0 59.333 -16 106.333 -48 141s-78.333 52 -139 52c-59.333 0 -111.666 -20 -156.999 -60h-59l61 376h354v-50h-312l-44 -267c46 36.667 105 55 177 55z" />
    <glyph glyph-name="six" unicode="6" 
d="M311 44c58 0 103.166 19 135.499 57s48.5 82.667 48.5 134c0 49.333 -15.5 91.333 -46.5 126s-74.5 52 -130.5 52c-57.333 0 -102.666 -18.167 -135.999 -54.5s-50 -79.833 -50 -130.5c0 -50 15.667 -93.167 47 -129.5s75.333 -54.5 132 -54.5zM325.999 474
c72.667 0 129.834 -23.167 171.501 -69.5s62.5 -101.5 62.5 -165.5c0 -66.667 -22 -125.167 -66 -175.5s-104 -75.5 -180 -75.5c-36 0 -69.5 6.5 -100.5 19.5s-60 33.5 -87 61.5s-48.167 67.333 -63.5 118s-23 110.667 -23 180c0 62 6.5 116.667 19.5 164
s29.167 84.5 48.5 111.5s42.333 48.833 69 65.5c26.667 16.6719 51.5 27.8389 74.5 33.5c23 5.66699 46.833 8.5 71.5 8.5c60 0 110.5 -16.333 151.5 -49s62.833 -80.667 65.5 -144h-64c-0.667969 42 -15.835 75.167 -45.5 99.5c-29.667 24.333 -66.834 36.5 -111.501 36.5
c-20 0 -39.167 -2.5 -57.5 -7.5s-37.833 -15 -58.5 -30s-38.5 -34.5 -53.5 -58.5s-27.333 -56.333 -37 -97s-14.5 -87.667 -14.5 -141v-32c20.667 49.334 51.5 86.167 92.5 110.5s86.167 36.5 135.5 36.5z" />
    <glyph glyph-name="seven" unicode="7" 
d="M551 678l-311 -678h-59l311 677h-463v60h522v-59z" />
    <glyph glyph-name="eight" unicode="8" 
d="M300 39c60 0 105.667 14.833 137 44.5s47 68.167 47 115.5c0 44.667 -16 81 -48 109s-77.333 42 -136 42s-104 -14 -136 -42s-48 -64.333 -48 -109c0 -47.333 15.667 -85.833 47 -115.5s77 -44.5 137 -44.5zM136 559c0 -40 14.5 -72.833 43.5 -98.5
s69.167 -38.5 120.5 -38.5s91.5 12.833 120.5 38.5s43.5 58.5 43.5 98.5c0 38 -13.5 70.667 -40.5 98s-68.167 41 -123.5 41s-96.5 -13.667 -123.5 -41s-40.5 -60 -40.5 -98zM393 383c47.333 -13.333 85.001 -36.833 113.001 -70.5s42 -74.167 42 -121.5
c0 -60 -22.167 -108.833 -66.5 -146.5s-104.833 -56.5 -181.5 -56.5s-137.167 18.833 -181.5 56.5s-66.5 86.5 -66.5 146.5c0 47.333 14 87.833 42 121.5s65.667 57.167 113 70.5c-90 34.667 -135 94.334 -135 179.001c0 59.333 21.667 105.5 65 138.5
s97.666 49.5 162.999 49.5c65.334 0 119.667 -16.5 163 -49.5s65 -79.167 65 -138.5c0 -84.667 -45 -144.334 -135 -179.001z" />
    <glyph glyph-name="nine" unicode="9" 
d="M283 323c60 0 106.332 18.333 138.999 55s49 80.667 49 132c0 49.333 -16.833 92 -50.5 128s-80.167 54 -139.5 54c-57.333 0 -102.166 -18.333 -134.499 -55s-48.5 -80 -48.5 -130c0 -50.667 16.167 -94 48.5 -130s77.833 -54 136.5 -54zM286.999 750
c28 0 54.4971 -3.83496 79.4971 -11.502s49.5 -20.667 73.5 -39s44.667 -41.833 62 -70.5s31.333 -65.5 42 -110.5s16 -95.833 16 -152.5c0 -60.667 -6.33301 -114.167 -19 -160.5s-28.667 -82.833 -48 -109.5s-42 -48.5 -68 -65.5s-50.667 -28.333 -74 -34
s-47.333 -8.5 -72 -8.5c-59.333 0 -109.166 16.333 -149.499 49s-63.5 80.667 -69.5 144h63c4 -42.667 20.667 -76 50 -100s66.666 -36 111.999 -36c20 0 39.167 2.66699 57.5 8c18.334 5.33301 37.667 15.333 58 30s37.833 33.834 52.5 57.501s26.834 55.667 36.501 96
s14.5 86.833 14.5 139.5c0 6 -0.666992 14.333 -2 25c-13.333 -31.333 -32.666 -57.666 -57.999 -78.999s-51.666 -36.333 -78.999 -45s-55 -13 -83 -13c-76.667 0 -136.167 23.5 -178.5 70.5s-63.5 103.167 -63.5 168.5c0 66.667 21.833 124.5 65.5 173.5
s104.167 73.5 181.5 73.5z" />
    <glyph glyph-name="colon" unicode=":" horiz-adv-x="217" 
d="M70 91h87v-91h-87v91zM70 511h87v-91h-87v91z" />
    <glyph glyph-name="semicolon" unicode=";" horiz-adv-x="276" 
d="M213 91v-96c0 -93.333 -44 -146.333 -132 -159l-11 38c38.667 9.33301 64 24.5 76 45.5s18 50.167 18 87.5h-43v84h92zM126 511h87v-91h-87v91z" />
    <glyph glyph-name="less" unicode="&#x3c;" horiz-adv-x="500" 
d="M54 254v55l364 218l25 -42l-338 -203l338 -202l-25 -43z" />
    <glyph glyph-name="equal" unicode="=" horiz-adv-x="500" 
d="M40 188v53h420v-53h-420zM40 342v53h420v-53h-420z" />
    <glyph glyph-name="greater" unicode="&#x3e;" horiz-adv-x="500" 
d="M52 80l338 202l-338 203l25 42l364 -218v-55l-364 -217z" />
    <glyph glyph-name="question" unicode="?" horiz-adv-x="563" 
d="M292 88v-88h-84v88h84zM294 762c62.667 0 113.166 -15.167 151.499 -45.5c38.333 -30.335 57.5 -74.168 57.5 -131.5c0 -13.333 -1.33301 -26 -4 -38c-2.67383 -12 -5.34082 -22.5 -8 -31.5c-2.66992 -9 -7.83691 -18.5 -15.5 -28.5
c-7.66699 -10 -13.5 -17.833 -17.5 -23.5s-11.667 -13 -23 -22s-19 -15 -23 -18s-12.833 -9.33301 -26.5 -19c-13.668 -9.66699 -21.835 -15.5 -24.5 -17.5c-35.333 -25.333 -58.833 -47.5 -70.5 -66.5s-17.5 -42.5 -17.5 -70.5v-57h-50v72c0 9.33301 0.666992 18.333 2 27
s2.5 16.334 3.5 23.001s3.66699 13.667 8 21s7.16602 13 8.49902 17s5.5 9.5 12.5 16.5s11.333 11.5 13 13.5s7.33398 6.83301 17.001 14.5s15.167 12 16.5 13s8 5.66699 20 14s18.667 12.833 20 13.5c33.334 23.333 58.167 45.333 74.5 66s24.5 46.667 24.5 78
c0 44 -15.5 76.833 -46.5 98.5s-67.833 32.5 -110.5 32.5c-46 0 -85.167 -12.667 -117.5 -38s-49.833 -62.333 -52.5 -111h-56c0 65.333 22.333 114.666 67 147.999s100.334 50 167.001 50z" />
    <glyph glyph-name="at" unicode="@" horiz-adv-x="873" 
d="M382 98c44.667 0 81.167 21.5 109.5 64.5s42.5 90.833 42.5 143.5c0 39.333 -8.83301 70.5 -26.5 93.5s-43.834 34.5 -78.5 34.5c-48 0 -86 -20.667 -114 -62s-42 -88 -42 -140c0 -42.667 10.167 -75.667 30.5 -99s46.5 -35 78.5 -35zM480 660
c43.333 0 84.998 -6.16797 124.998 -18.501s77.5 -30.833 112.5 -55.5s63 -59.167 84 -103.5s31.5 -95.5 31.5 -153.5c0 -76.667 -16.667 -142.834 -50 -198.501s-77.333 -83.5 -132 -83.5c-28.667 0 -54 8 -76 24s-36 39 -42 69c-18 -32 -41.5 -56 -70.5 -72
s-58.833 -24 -89.5 -24c-46 0 -83.5 17.5 -112.5 52.5s-43.5 80.5 -43.5 136.5c0 66 19 124.667 57 176s89.333 77 154 77c33.333 0 61.833 -7.5 85.5 -22.5c23.6689 -15 39.8359 -36.833 48.501 -65.5l16 78h60l-40 -181c-11.333 -50.667 -17 -88.667 -17 -114
c0 -56 23.667 -84 71 -84c29.333 0 54.166 12.667 74.499 38s34.5 54.333 42.5 87s12 66.334 12 101.001c0 62 -14.667 115.667 -44 161c-29.335 45.333 -66.668 78.5 -112 99.5c-45.334 21 -95.667 31.5 -150.999 31.5c-72.667 0 -138.667 -19 -198 -57
s-104.666 -86.5 -135.999 -145.5s-47 -121.167 -47 -186.5c0 -93.333 31.167 -167.666 93.5 -222.999s136.5 -83 222.5 -83c44.667 0 86.667 8.33301 126 25l13 -43c-46 -20.667 -96.333 -31 -151 -31c-46 0 -90 7.5 -132 22.5s-79.833 36.667 -113.5 65
s-60.667 65.5 -81 111.5s-30.5 97.333 -30.5 154c0 82 20.167 156.667 60.5 224s94 119.5 161 156.5s139.833 55.5 218.5 55.5z" />
    <glyph glyph-name="A" unicode="A" horiz-adv-x="763" 
d="M377 687l-163 -414h331zM194 220l-88 -220h-66l302 750h69l312 -750h-68l-89 220h-372z" />
    <glyph glyph-name="B" unicode="B" horiz-adv-x="666" 
d="M155 54h217.001c55.333 0 98.166 15.833 128.499 47.5s45.5 69.5 45.5 113.5c0 42 -14.833 78.333 -44.5 109s-70.167 46 -121.5 46h-225v-316zM155.001 423h193.999c53.333 0 94.833 14.5 124.5 43.5s44.5 63.167 44.5 102.5c-0.666992 35.333 -13.667 65.5 -39 90.5
s-60.666 37.5 -105.999 37.5h-218v-274zM471 402c45.333 -14.667 80 -39.501 104 -74.501s36 -73.5 36 -115.5c0 -57.333 -20.833 -107.166 -62.5 -149.499s-98.834 -63.5 -171.5 -63.5h-2l-280 1v750h292c60 0 106.667 -17 140 -51s50 -75.333 50 -124
c0 -35.333 -9 -68.5 -27 -99.5s-44.333 -55.5 -79 -73.5z" />
    <glyph glyph-name="C" unicode="C" horiz-adv-x="779" 
d="M415 38c67.334 0 123.835 17.8311 169.501 53.498c45.667 35.667 71.167 85.834 76.5 150.501h63c-6 -81.333 -38.333 -145.166 -97 -191.499s-130.667 -69.5 -216 -69.5c-75.333 0 -140 18.667 -194 56s-93.667 85.833 -119 145.5s-38 126.167 -38 199.5
c0 63.334 10 120.167 30 170.5s46.667 90.833 80 121.5s70.5 54 111.5 70s84.167 24 129.5 24c77.333 0 145.833 -21 205.5 -63s93.167 -98.333 100.5 -169h-63c-7.33301 52.667 -34.833 95 -82.5 127s-101.834 48 -162.501 48c-78 0 -145.333 -28 -202 -84
s-85 -137 -85 -243c0 -98.667 25.5 -181 76.5 -247s123.167 -99 216.5 -99z" />
    <glyph glyph-name="D" unicode="D" horiz-adv-x="736" 
d="M155 54l146.999 -0.000976562c50 0 95.333 9.5 136 28.5s73.334 44.333 98.001 76s43.667 66.834 57 105.501s20 79 20 121c0 86 -26.333 159.5 -79 220.5s-126.667 91.5 -222 91.5h-157v-643zM94.999 749.999l224 -0.000976562c57.334 0 109.167 -10 155.5 -30
s83.833 -47 112.5 -81s50.667 -72.333 66 -115s23 -87.667 23 -135c0 -48.667 -8 -95.667 -24 -141s-39 -86.666 -69 -123.999s-69.5 -67.333 -118.5 -90s-104.167 -34 -165.5 -34h-204v750z" />
    <glyph glyph-name="E" unicode="E" horiz-adv-x="623" 
d="M95 0v750h458v-53h-398v-291h370v-54h-370v-298h418v-54h-478z" />
    <glyph glyph-name="F" unicode="F" horiz-adv-x="573" 
d="M155 0h-60v750h458v-53h-398v-291h370v-54h-370v-352z" />
    <glyph glyph-name="G" unicode="G" horiz-adv-x="807" 
d="M717 371l0.00195312 -370.999h-55v122c-21.335 -42 -55.168 -76 -101.5 -102c-46.334 -26 -100.501 -39 -162.501 -39c-106 0 -188.833 38.5 -248.5 115.5s-89.5 172.167 -89.5 285.5c0 63.334 10 120.167 30 170.5s46.667 90.833 80 121.5s70.5 54 111.5 70
s84.167 24 129.5 24c77.333 0 145.833 -21 205.5 -63s93.167 -98.333 100.5 -169h-63c-7.33301 52.667 -34.833 95 -82.5 127s-101.834 48 -162.501 48c-78.667 0 -146.167 -28.167 -202.5 -84.5s-84.5 -137.833 -84.5 -244.5c0 -98.667 25 -181.167 75 -247.5
s119.667 -99.5 209 -99.5c78.667 0 141 25.667 187 77s68.667 119.666 68 204.999h-256v54h312z" />
    <glyph glyph-name="H" unicode="H" horiz-adv-x="736" 
d="M641 0h-60v351h-426v-351h-60v750h60v-345h426v345h60v-750z" />
    <glyph glyph-name="I" unicode="I" horiz-adv-x="260" 
d="M160 0h-60v750h60v-750z" />
    <glyph glyph-name="J" unicode="J" horiz-adv-x="523" 
d="M438 750v-547c0 -73.333 -18.5 -128.666 -55.5 -165.999s-85.5 -56 -145.5 -56s-109.5 17.667 -148.5 53s-58.5 84.666 -58.5 147.999v60h60v-55c0 -50 13.5 -88 40.5 -114s62.5 -39 106.5 -39s78.5 13.5 103.5 40.5s37.5 67.167 37.5 120.5v555h60z" />
    <glyph glyph-name="K" unicode="K" horiz-adv-x="675" 
d="M285 388l-130 -143v-245h-60v750h60v-425l385 425h77l-289 -316l322 -434h-75z" />
    <glyph glyph-name="L" unicode="L" horiz-adv-x="569" 
d="M534 0h-439v750h60v-696h379v-54z" />
    <glyph glyph-name="M" unicode="M" horiz-adv-x="890" 
d="M795 0h-59v687l-269 -687h-49l-265 685v-685h-58v750h96l253 -666l254 666h97v-750z" />
    <glyph glyph-name="N" unicode="N" horiz-adv-x="739" 
d="M644 0h-70l-421 680v-680h-58v750h85l406 -664v664h58v-750z" />
    <glyph glyph-name="O" unicode="O" horiz-adv-x="844" 
d="M423 714c-63.333 0 -118.497 -16.667 -165.497 -50s-81.333 -75 -103 -125s-32.5 -104 -32.5 -162c0 -42.667 6.5 -84 19.5 -124s31.5 -76.333 55.5 -109s55.667 -58.834 95 -78.501s83.333 -29.5 132 -29.5c63.333 0 118.166 16.5 164.499 49.5
s80.166 74.667 101.499 125s32 104.833 32 163.5c0 43.333 -6.33301 84.833 -19 124.5c-12.667 39.668 -31 75.835 -55 108.501c-24 32.667 -55.333 58.667 -94 78s-82.334 29 -131.001 29zM423.003 -19c-58 0 -110.667 11.1699 -158 33.5029s-85.5 52.166 -114.5 89.499
s-51.333 79.166 -67 125.499s-23.5 94.5 -23.5 144.5s7.83301 98.167 23.5 144.5s38.167 88.333 67.5 126s67.5 67.667 114.5 90s99.833 33.5 158.5 33.5c58 0 110.5 -11.167 157.5 -33.5s84.833 -52 113.5 -89s50.667 -78.667 66 -125s23 -94.5 23 -144.5
s-7.5 -98.167 -22.5 -144.5s-37 -88.333 -66 -126s-67 -67.834 -114 -90.501s-99.833 -34 -158.5 -34z" />
    <glyph glyph-name="P" unicode="P" horiz-adv-x="622" 
d="M155 374l193 -0.000976562c54.667 0 97.167 15.833 127.5 47.5s45.5 70.167 45.5 115.5c0 44.668 -15 82.835 -45 114.501c-30 31.667 -72 47.5 -126 47.5h-195v-325zM95 749.999h265.999c70 0 124.333 -20.333 163 -61s58 -89.667 58 -147
c0 -60 -20.667 -111.5 -62 -154.5s-98.666 -64.5 -171.999 -64.5h-193v-323h-60v750z" />
    <glyph glyph-name="Q" unicode="Q" horiz-adv-x="844" 
d="M122 377c0 -42.667 6.50098 -84 19.501 -124s31.5 -76.333 55.5 -109s55.667 -58.834 95 -78.501s83.333 -29.5 132 -29.5c43.333 0 83 8 119 24l-153 226h70l133 -197c42 30 74 70.5 96 121.5s33 105.5 33 163.5c0 43.333 -6.33301 84.833 -19 124.5
c-12.667 39.668 -31 75.835 -55 108.501c-24 32.667 -55.333 58.667 -94 78s-82.334 29 -131.001 29c-63.333 0 -118.5 -16.667 -165.5 -50s-81.333 -75 -103 -125s-32.5 -104 -32.5 -162zM784.001 376c0 -67.333 -13.333 -130.998 -40 -190.998s-65.667 -108 -117 -144
l117 -174h-68l-99 146c-46.667 -21.333 -98 -32 -154 -32c-58 0 -110.667 11.167 -158 33.5s-85.5 52.166 -114.5 89.499s-51.333 79.166 -67 125.499s-23.5 94.5 -23.5 144.5s7.83301 98.167 23.5 144.5s38.167 88.333 67.5 126s67.5 67.667 114.5 90
s99.833 33.5 158.5 33.5c58 0 110.5 -11.167 157.5 -33.5s84.833 -52 113.5 -89s50.667 -78.667 66 -125s23 -94.5 23 -144.5z" />
    <glyph glyph-name="R" unicode="R" horiz-adv-x="650" 
d="M155 382l192 0.000976562c53.333 0 95 15.667 125 47s45 69.333 45 114c0 43.333 -14.333 80.166 -43 110.499s-69 45.5 -121 45.5h-198v-317zM559 0.000976562l-218 331h-186v-331h-60v750h256c72 0 127.833 -19.667 167.5 -59s59.5 -87 59.5 -143
c0 -48.667 -14.833 -92.667 -44.5 -132s-71.5 -65.333 -125.5 -78l222 -338h-71z" />
    <glyph glyph-name="S" unicode="S" horiz-adv-x="645" 
d="M590 189c0 -66.667 -23.5 -117.999 -70.5 -153.999s-106.833 -54 -179.5 -54c-84 0 -152 23.333 -204 70s-79 107 -81 181h64c4 -65.333 26.833 -114.333 68.5 -147s92.5 -49 152.5 -49c55.333 0 100.5 13.333 135.5 40s52.5 63 52.5 109
c0 32.667 -11.333 60.167 -34 82.5c-22.668 22.334 -43.835 37.167 -63.501 44.5c-19.667 7.33301 -51.834 17 -96.5 29c-6 2 -10.333 3.33301 -13 4c-30 8 -53 14.5 -69 19.5s-36.667 13.5 -62 25.5s-44.666 24.667 -57.999 38s-25.166 31.333 -35.499 54
s-15.5 48.334 -15.5 77.001c0 64 22.167 114.833 66.5 152.5s103.5 56.5 177.5 56.5c68.667 0 127 -16.833 175 -50.5s73.667 -84.834 77 -153.501h-64c-2.66699 51.333 -22.5 89.333 -59.5 114s-80.833 37 -131.5 37c-53.333 0 -96.666 -13.667 -129.999 -41
c-33.333 -27.335 -50 -65.668 -50 -115c0 -17.333 2 -33 6 -47s11.333 -26.167 22 -36.5s20.5 -19 29.5 -26s23.333 -14 43 -21s35.5 -12.333 47.5 -16c12 -3.66992 30.667 -8.83691 56 -15.501c33.333 -8.66699 59.333 -16 78 -22s40.167 -14.833 64.5 -26.5
s42.666 -24 54.999 -37s23.166 -30 32.499 -51s14 -44.833 14 -71.5z" />
    <glyph glyph-name="T" unicode="T" horiz-adv-x="616" 
d="M596 697h-258v-697h-60v697h-258v53h576v-53z" />
    <glyph glyph-name="U" unicode="U" horiz-adv-x="727" 
d="M642 750v-491.001c0 -88 -25 -156.167 -75 -204.5s-117.333 -72.5 -202 -72.5s-152.5 24.167 -203.5 72.5s-76.5 116.5 -76.5 204.5v491h60v-484c0 -75.333 20.333 -132.666 61 -171.999s94.667 -59 162 -59c65.333 0 117.5 18.5 156.5 55.5s58.5 91.167 58.5 162.5v497
h59z" />
    <glyph glyph-name="V" unicode="V" horiz-adv-x="641" 
d="M357 0h-68l-259 750h64l228 -682l230 682h59z" />
    <glyph glyph-name="W" unicode="W" horiz-adv-x="977" 
d="M749 0h-66l-194 664l-195 -664h-66l-193 750h61l166 -672l194 672h68l193 -676l165 676h60z" />
    <glyph glyph-name="X" unicode="X" horiz-adv-x="683" 
d="M342 335l-228 -335h-74l264 387l-248 363h72l212 -313l212 313h73l-247 -362l265 -388h-72z" />
    <glyph glyph-name="Y" unicode="Y" horiz-adv-x="645" 
d="M30 750h71l223 -400l222 400h69l-261 -453v-297h-62v297z" />
    <glyph glyph-name="Z" unicode="Z" horiz-adv-x="664" 
d="M60 0v53l478 644h-465v53h535v-53l-478 -643h484v-54h-554z" />
    <glyph glyph-name="bracketleft" unicode="[" horiz-adv-x="331" 
d="M80 843h194v-40h-143v-925h143v-40h-194v1005z" />
    <glyph glyph-name="backslash" unicode="\" horiz-adv-x="448" 
d="M87 830l331 -922h-57l-331 922h57z" />
    <glyph glyph-name="bracketright" unicode="]" horiz-adv-x="331" 
d="M57 -162v40h143v925h-143v40h194v-1005h-194z" />
    <glyph glyph-name="asciicircum" unicode="^" horiz-adv-x="481" 
d="M240 694l-130 -227h-60l162 283h57l162 -283h-60z" />
    <glyph glyph-name="underscore" unicode="_" 
d="M50 -73v52h500v-52h-500z" />
    <glyph glyph-name="grave" unicode="`" horiz-adv-x="170" 
d="M53 820l117 -180h-48l-122 141z" />
    <glyph glyph-name="a" unicode="a" horiz-adv-x="549" 
d="M414 235v57.001c-16.667 -12 -49.334 -21.333 -98 -28l-86 -11c-84 -10.667 -126 -46 -126 -106c0 -34 11.5 -59.833 34.5 -77.5s51.167 -26.5 84.5 -26.5c49.333 0 93.5 17.167 132.5 51.5s58.5 81.166 58.5 140.499zM281 542.001
c61.333 0 108.832 -14.335 142.499 -43.002s50.5 -71.667 50.5 -129v-370h-57v104c-19.333 -35.333 -47.5 -63.5 -84.5 -84.5s-76.167 -31.5 -117.5 -31.5c-48 0 -88.333 13.833 -121 41.5s-49 65.834 -49 114.501c0 44.667 14.333 79.667 43 105s67.334 41.333 116.001 48
l134 19c24.667 3.33301 44 10 58 20s21 27.333 21 52c0 32.667 -13 58.334 -39 77.001s-60.333 28 -103 28s-77.167 -9.5 -103.5 -28.5s-42.166 -44.833 -47.499 -77.5h-57c8.66699 50 31.667 88.333 69 115s85.666 40 144.999 40z" />
    <glyph glyph-name="b" unicode="b" horiz-adv-x="622" 
d="M327 37c50.667 0 94.332 19.167 130.999 57.5s55 94.5 55 168.5s-18.167 129.5 -54.5 166.5s-80.166 55.5 -131.499 55.5c-50.667 0 -94.334 -18.5 -131.001 -55.5s-55 -92.5 -55 -166.5c0 -74.667 18.333 -131 55 -169s80.334 -57 131.001 -57zM340.998 542
c63.334 0 117.668 -23.168 163.001 -69.501s68 -114.833 68 -205.5c0 -91.333 -23.333 -160.666 -70 -207.999s-103 -71 -169 -71c-46 0 -86.167 11.167 -120.5 33.5s-58.833 49.833 -73.5 82.5v-104h-54v762h57v-342c13.333 34.667 38.666 63.667 75.999 87
s78.333 35 123 35z" />
    <glyph glyph-name="c" unicode="c" horiz-adv-x="568" 
d="M298 43c45.333 0 82.8311 12 112.498 36s46.834 58.333 51.501 103h56c-4.66699 -60 -27.5 -107.333 -68.5 -142s-92.5 -52 -154.5 -52c-78 0 -138.333 26.667 -181 80s-64 119.666 -64 198.999c0 78 22 143.333 66 196s105.667 79 185 79
c58.667 0 107.834 -15.5 147.501 -46.5s62.5 -75.167 68.5 -132.5h-56c-5.33301 40 -22.5 71 -51.5 93s-64.833 33 -107.5 33c-62 0 -109.833 -20.667 -143.5 -62s-50.5 -93.666 -50.5 -156.999c0 -65.333 16.333 -119.5 49 -162.5s79.667 -64.5 141 -64.5z" />
    <glyph glyph-name="d" unicode="d" horiz-adv-x="622" 
d="M296 41c50.667 0 94.166 18.999 130.499 56.999s54.5 94.333 54.5 169s-18.333 130.334 -55 167.001s-80.334 55 -131 55c-51.333 0 -95.166 -18.5 -131.499 -55.5s-54.5 -92.5 -54.5 -166.5s18.333 -130.167 55 -168.5s80.667 -57.5 132 -57.5zM536.999 -0.000976562
h-54.001v101c-14.667 -30.667 -39.667 -57.167 -75 -79.5s-75.666 -33.5 -120.999 -33.5c-64.667 0 -120.334 23.833 -167.001 71.5s-70 117.167 -70 208.5c0 90.667 23.333 159 70 205s102.334 69 167.001 69c43.333 0 82.5 -10 117.5 -30s60.167 -44.667 75.5 -74v324h57
v-762z" />
    <glyph glyph-name="e" unicode="e" horiz-adv-x="571" 
d="M294 489c-48.667 0 -90.667 -16 -126 -48s-55 -77.333 -59 -136h354c-0.666992 58.667 -17 104 -49 136s-72 48 -120 48zM521 253l-414.003 0.000976562c0 -68.667 18.333 -121.167 55 -157.5s81.334 -54.5 134.001 -54.5c38.667 0 74.334 10.167 107.001 30.5
s53 50.166 61 89.499h53c-12 -58 -39.167 -101.333 -81.5 -130s-90.166 -43 -143.499 -43c-68 0 -125.333 23.5 -172 70.5s-70 115.5 -70 205.5s23.833 158.833 71.5 206.5s106.167 71.5 175.5 71.5c66 0 119.833 -21.833 161.5 -65.5s62.5 -107.834 62.5 -192.5v-31z" />
    <glyph glyph-name="f" unicode="f" horiz-adv-x="323" 
d="M303 710h-59c-28.667 0 -48.5 -6 -59.5 -18s-16.5 -31.667 -16.5 -59v-101h121v-52h-121v-480h-57v480h-91v52h91v99c0 50.667 10.667 85.167 32 103.5s50.333 27.5 87 27.5h73v-52z" />
    <glyph glyph-name="g" unicode="g" horiz-adv-x="614" 
d="M292 70c48.667 0 90.667 17.167 126 51.5s53 86.833 53 157.5c0 68 -16.833 120.333 -50.5 157s-75.5 55 -125.5 55c-50.667 0 -94.667 -18 -132 -54s-56 -88 -56 -156c0 -66.667 18 -118.5 54 -155.5s79.667 -55.5 131 -55.5zM534 532l-0.000976562 -518
c0 -74 -21.667 -131.167 -65 -171.5s-100 -60.5 -170 -60.5c-63.333 0 -116.333 16.5 -159 49.5s-67.334 77.167 -74.001 132.5h57c6.66699 -40 24.334 -72 53.001 -96s69 -36 121 -36c54.667 0 98.834 14.5 132.501 43.5s50.5 74.167 50.5 135.5v120
c-19.333 -39.333 -47.5 -68 -84.5 -86s-75.5 -27 -115.5 -27c-66 0 -120.833 23.167 -164.5 69.5s-65.5 110.5 -65.5 192.5c0 85.333 23.333 150.333 70 195s104 67 172 67c85.333 0 147 -33.333 185 -100v90h57z" />
    <glyph glyph-name="h" unicode="h" horiz-adv-x="585" 
d="M331 542c53.334 0 95.667 -14.6689 127 -44.002s47 -72.666 47 -129.999v-368h-57v359c0 42.667 -11.5 75.167 -34.5 97.5s-52.833 33.5 -89.5 33.5c-48.667 0 -91.167 -18.167 -127.5 -54.5s-54.5 -86.166 -54.5 -149.499v-286h-57v762h57v-330
c37.333 73.333 100.333 110 189 110z" />
    <glyph glyph-name="i" unicode="i" horiz-adv-x="227" 
d="M142 0h-57v532h57v-532zM147 750v-73h-67v73h67z" />
    <glyph glyph-name="j" unicode="j" horiz-adv-x="250" 
d="M170 532v-607c0 -50.667 -10.667 -85.167 -32 -103.5s-50.333 -27.5 -87 -27.5h-41v52h27c28.667 0 48.5 6 59.5 18s16.5 31.667 16.5 59v609h57zM175 677h-67v73h67v-73z" />
    <glyph glyph-name="k" unicode="k" horiz-adv-x="546" 
d="M244 273l-102 -106v-167h-57v762h57v-519l277 289h74l-210 -218l233 -314h-70z" />
    <glyph glyph-name="l" unicode="l" horiz-adv-x="227" 
d="M142 0h-57v762h57v-762z" />
    <glyph glyph-name="m" unicode="m" horiz-adv-x="879" 
d="M799 388l0.000976562 -388h-57v364c0 42 -11.167 73.833 -33.5 95.5c-22.334 21.667 -50.167 32.5 -83.5 32.5c-40.667 0 -76.667 -15.5 -108 -46.5s-47 -72.833 -47 -125.5v-320h-56v364c0 41.333 -10.833 73 -32.5 95s-49.5 33 -83.5 33
c-40.667 0 -76.834 -15.333 -108.501 -46s-47.5 -72.667 -47.5 -126v-320h-57v532h56v-90c14 31.333 35.5 55.833 64.5 73.5s61.167 26.5 96.5 26.5c37.333 0 70.5 -9.33301 99.5 -28s48.167 -45.667 57.5 -81c14 35.333 37.5 62.333 70.5 81s68.5 28 106.5 28
c46 0 84.667 -13.333 116 -40s47 -64.667 47 -114z" />
    <glyph glyph-name="n" unicode="n" horiz-adv-x="585" 
d="M331 542c53.334 0 95.667 -14.6689 127 -44.002s47 -72.666 47 -129.999v-368h-57v359c0 42.667 -11.5 75.167 -34.5 97.5s-52.833 33.5 -89.5 33.5c-48.667 0 -91.167 -18.167 -127.5 -54.5s-54.5 -86.166 -54.5 -149.499v-286h-57v532h57v-100
c37.333 73.333 100.333 110 189 110z" />
    <glyph glyph-name="o" unicode="o" horiz-adv-x="603" 
d="M304 43c55.333 0 100.835 20.165 136.502 60.498s53.5 94.5 53.5 162.5v5c-1.33301 67.334 -20.333 120.167 -57 158.5s-82.334 57.5 -137.001 57.5c-56 0 -101.833 -19.667 -137.5 -59s-53.5 -92.666 -53.5 -159.999c0 -69.333 18.667 -124.166 56 -164.499
s83.666 -60.5 138.999 -60.5zM300.002 541.998c74.667 0 135.501 -25 182.501 -75s70.5 -117.333 70.5 -202c0 -85.333 -23.167 -152.833 -69.5 -202.5s-106.833 -74.5 -181.5 -74.5s-135.334 24.833 -182.001 74.5s-70 117.167 -70 202.5c0 84.667 23.167 152 69.5 202
s106.5 75 180.5 75z" />
    <glyph glyph-name="p" unicode="p" horiz-adv-x="621" 
d="M326 44c51.334 0 95.168 18.5 131.501 55.5s54.5 91.5 54.5 163.5c0 74 -18 129.5 -54 166.5s-79.667 55.5 -131 55.5c-50.667 0 -94.334 -18.5 -131.001 -55.5s-55 -92.5 -55 -166.5c0 -72 18.333 -126.5 55 -163.5s80 -55.5 130 -55.5zM341.001 542
c63.333 0 117.499 -23.167 162.499 -69.5s67.5 -114.833 67.5 -205.5c0 -46 -6.66699 -87 -20 -123s-31.5 -64.5 -54.5 -85.5s-48.333 -36.833 -76 -47.5s-56.834 -16 -87.5 -16c-87.333 0 -151 33 -191 99v-300h-57v738h56v-115c12.667 35.333 37.834 65 75.501 89
s79.167 36 124.5 36z" />
    <glyph glyph-name="q" unicode="q" horiz-adv-x="616" 
d="M295 46c50.667 0 94.168 18.499 130.501 55.499s54.5 92.5 54.5 166.5s-18.333 129.333 -55 166s-80.334 55 -131 55c-51.333 0 -95 -18.5 -131 -55.5s-54 -92.167 -54 -165.5s18.167 -128.666 54.5 -165.999s80.166 -56 131.499 -56zM479.001 -206.001v306.999
c-16 -31.333 -41.5 -56.833 -76.5 -76.5s-73.833 -29.5 -116.5 -29.5c-64.667 0 -120.167 23.167 -166.5 69.5s-69.5 114.833 -69.5 205.5c0 90 22.833 157.833 68.5 203.5s101.167 68.5 166.5 68.5c43.333 0 83 -9.66699 119 -29s61.333 -43.666 76 -72.999v92h56v-738h-57
z" />
    <glyph glyph-name="r" unicode="r" horiz-adv-x="360" 
d="M340 485h-7.99902c-61.333 0 -108.333 -16.833 -141 -50.5s-49 -82.5 -49 -146.5v-288h-57v532h56v-104c10 36 31.167 63.333 63.5 82s71.166 28 116.499 28h19v-53z" />
    <glyph glyph-name="s" unicode="s" horiz-adv-x="513" 
d="M267 291c25.333 -4 45.3271 -7.50195 59.9941 -10.502s32.167 -8.16699 52.5 -15.5s36 -15.833 47 -25.5s20.667 -22.667 29 -39s12.5 -35.166 12.5 -56.499c0 -50.667 -19 -89.334 -57 -116.001s-84.333 -40 -139 -40c-59.333 0 -110.666 15.167 -153.999 45.5
s-67.666 72.833 -72.999 127.5h62c6.66699 -41.333 24.834 -71.666 54.501 -90.999s64.834 -29 105.501 -29c39.333 0 72.833 8.33301 100.5 25s41.5 40.667 41.5 72c0 16.667 -4 31 -12 43s-20.167 21.5 -36.5 28.5s-31.166 12.333 -44.499 16
s-30.666 7.16699 -51.999 10.5c-26 4.66699 -46.833 8.66699 -62.5 12s-33.834 9 -54.501 17s-36.667 16.833 -48 26.5s-21.166 22.834 -29.499 39.501s-12.5 35.667 -12.5 57c0 50 18.667 88.167 56 114.5s84 39.5 140 39.5c56.667 0 103 -13.5 139 -40.5
s56.667 -64.167 62 -111.5h-60c-4.66699 33.333 -20.334 58.333 -47 75c-26.667 16.667 -59.667 25 -99 25c-42 0 -74.333 -9.16699 -97 -27.5s-34 -42.5 -34 -72.5c0 -32 12 -54.333 36 -67s62 -23.334 114 -32z" />
    <glyph glyph-name="t" unicode="t" horiz-adv-x="343" 
d="M318 0h-81c-36.667 0 -65.667 9.16699 -87 27.5s-32 52.833 -32 103.5v349h-108v52h108v159l57 16v-175h132v-52h-132v-351c0 -27.333 5.5 -47 16.5 -59s30.833 -18 59.5 -18h67v-52z" />
    <glyph glyph-name="u" unicode="u" horiz-adv-x="587" 
d="M438 0v108.999c-36.667 -76.667 -97.667 -115 -183 -115c-52 0 -94.167 15.333 -126.5 46s-48.5 75.667 -48.5 135v357h57v-354c0 -43.333 11.333 -76.666 34 -99.999s53 -35 91 -35c48.667 0 89.667 18 123 54s50 86.667 50 152v283h57v-532h-54z" />
    <glyph glyph-name="v" unicode="v" horiz-adv-x="498" 
d="M282 0h-67l-195 532h62l168 -480l168 481h60z" />
    <glyph glyph-name="w" unicode="w" horiz-adv-x="799" 
d="M603 0h-62l-142 444l-142 -444h-62l-170 532h57l146 -461l141 461h59l146 -461l141 461h59z" />
    <glyph glyph-name="x" unicode="x" horiz-adv-x="537" 
d="M30 0l207 277l-191 255h70l155 -216l157 216h67l-191 -260l203 -272h-71l-168 233l-169 -233h-69z" />
    <glyph glyph-name="y" unicode="y" horiz-adv-x="485" 
d="M465 532l-243 -640c-17.333 -45.333 -55 -68 -113 -68h-49v52h50c19.333 0 35 5.5 47 16.5s22 27.5 30 49.5l30 82l-197 508h60l164 -441l165 441h56z" />
    <glyph glyph-name="z" unicode="z" horiz-adv-x="530" 
d="M123 52h350v-52h-418v52l347 428h-329v52h402v-52z" />
    <glyph glyph-name="braceleft" unicode="{" horiz-adv-x="336" 
d="M170 749v-318.003c0 -53.333 -26.667 -86.666 -80 -99.999c25.333 -7.33301 45 -18.333 59 -33s21 -37.334 21 -68v-318c0 -30.667 5.66699 -51 17 -61s31.333 -15 60 -15h49v-42h-71c-12.667 0 -24 1 -34 3s-21.167 6.33301 -33.5 13s-22 18.167 -29 34.5
s-10.5 36.833 -10.5 61.5v304c0 32.667 -6 55.334 -18 68.001s-35.333 22.667 -70 30v45c34.667 7.33301 58 17.333 70 30s18 35.334 18 68.001v304c0 24.667 3.5 45.167 10.5 61.5s16.667 27.833 29 34.5s23.5 11 33.5 13s21.333 3 34 3h71v-42h-49
c-28.667 0 -48.667 -5 -60 -15s-17 -30.333 -17 -61z" />
    <glyph glyph-name="bar" unicode="|" horiz-adv-x="219" 
d="M139 -120h-59v990h59v-990z" />
    <glyph glyph-name="braceright" unicode="}" horiz-adv-x="336" 
d="M166 431v318c0 30.667 -5.66699 51 -17 61s-31.333 15 -60 15h-49v42h71c12.667 0 24 -1 34 -3s21.167 -6.33301 33.5 -13s22 -18.167 29 -34.5s10.5 -36.833 10.5 -61.5v-304c0 -32.667 6 -55.334 18 -68c12 -12.667 35.333 -22.667 70 -30v-45
c-34.667 -7.33301 -58 -17.333 -70 -30s-18 -35.334 -18 -68.001v-304c0 -24.667 -3.5 -45.167 -10.5 -61.5s-16.667 -27.833 -29 -34.5s-23.5 -11 -33.5 -13s-21.333 -3 -34 -3h-71v42h49c28.667 0 48.667 5 60 15s17 30.333 17 61v318c0 30.667 7 53.334 21 68.001
s33.667 25.667 59 33c-53.333 13.334 -80 46.667 -80 100z" />
    <glyph glyph-name="asciitilde" unicode="~" horiz-adv-x="545" 
d="M438 433h46.998c-1.33301 -47.333 -12.666 -83.5 -33.999 -108.5s-47.333 -37.5 -78 -37.5c-24.667 0 -59 13 -103 39s-75.667 39 -95 39c-35.333 0 -58.666 -24.333 -69.999 -73h-45c4 40 16.167 71.833 36.5 95.5s44.833 35.5 73.5 35.5
c23.333 0 57.5 -13.333 102.5 -40s77.167 -40 96.5 -40c42 0 65 30 69 90z" />
    <glyph glyph-name="exclamdown" unicode="&#xa1;" horiz-adv-x="244" 
d="M98 -233v348l12 190h42l12 -190v-348h-66zM174 517v-88h-84v88h84z" />
    <glyph glyph-name="cent" unicode="&#xa2;" horiz-adv-x="640" 
d="M154 268c0 -62 12.5 -111.334 37.5 -148.001s57.5 -60.334 97.5 -71.001l29 440c-48 -5.33301 -87.333 -26.666 -118 -63.999s-46 -89.666 -46 -156.999zM496 181.999l55.999 0.000976562c-4 -60 -26 -107.333 -66 -142s-90.333 -52 -151 -52h-7l-8 -124h-44l9 129
c-56.667 10.667 -102.334 39 -137.001 85s-52 108.667 -52 188c0 85.333 21 151.666 63 198.999s96.333 73 163 77l6 91h44l-6 -92c50.667 -5.33301 92.834 -23.333 126.501 -54s53.167 -72 58.5 -124h-56c-4.66895 37.333 -18.8359 66.833 -42.501 88.5
c-23.667 21.667 -53.834 34.167 -90.5 37.5l-30 -446h7c42.667 0 78.334 12.167 107.001 36.5s45.334 58.5 50.001 102.5z" />
    <glyph glyph-name="sterling" unicode="&#xa3;" horiz-adv-x="640" 
d="M146 38c18 0 35.501 5.66797 52.501 17.001s28.833 28 35.5 50c-26 28 -55 42 -87 42c-17.333 0 -30.833 -5.33301 -40.5 -16s-14.5 -23.667 -14.5 -39c0 -14.667 4.66699 -27.334 14 -38.001s22.666 -16 39.999 -16zM542.001 167.001l57.001 0.000976562
c-0.666992 -61.333 -14 -106.5 -40 -135.5s-61.667 -43.5 -107 -43.5c-22 0 -44 4.16699 -66 12.5s-39.5 16.666 -52.5 24.999s-32.833 22.5 -59.5 42.5c-10 -15.333 -19.167 -27.833 -27.5 -37.5c-8.33398 -9.66699 -21.167 -19.167 -38.5 -28.5
c-17.334 -9.33301 -36.667 -14 -58 -14c-34.667 0 -61.334 10 -80.001 30s-28 44 -28 72c0 28.667 9.5 53.667 28.5 75s44.5 32 76.5 32c31.333 0 66 -14.333 104 -43c8.66699 40.667 13 95.667 13 165v81h-113v50h113v137c0 52.667 15 93 45 121s66 42 108 42
c40 0 74.167 -12.333 102.5 -37s42.5 -58.667 42.5 -102h-57c0 28 -8.33301 49.5 -25 64.5s-37.667 22.5 -63 22.5c-26.667 0 -49.334 -9 -68 -27c-18.667 -18 -28 -44.333 -28 -79v-142h169v-50h-169v-62c0 -64.667 -1.5 -113.167 -4.5 -145.5
s-9.83301 -58.833 -20.5 -79.5c62 -50 113.333 -75 154 -75c61.333 0 92 43 92 129z" />
    <glyph glyph-name="Euro" unicode="&#x20ac;" horiz-adv-x="640" 
d="M562 243l58 0.000976562c-0.666992 -82.667 -23.5 -145.834 -68.5 -189.501s-105.833 -65.5 -182.5 -65.5c-71.333 0 -131 24 -179 72s-78 120 -90 216h-90v45h86c-1.33301 22.667 -2 40 -2 52s0.666992 29.333 2 52h-86v45h90c12.667 94.667 43 165 91 211
s108.667 69 182 69c76 0 135.333 -19.833 178 -59.5s64.667 -101.167 66 -184.5h-57c0 126.667 -63 190 -189 190c-57.333 0 -104.333 -18.667 -141 -56s-60.667 -94 -72 -170h285v-45h-289c-1.33301 -22.667 -2 -40 -2 -52s0.666992 -29.333 2 -52h289v-45h-285
c10.667 -77.333 34.667 -136 72 -176s85.333 -60 144 -60c126 0 188.667 67.667 188 203z" />
    <glyph glyph-name="yen" unicode="&#xa5;" horiz-adv-x="640" 
d="M351 351h184v-45h-184v-95h184v-45h-184v-166h-62v166h-183v45h183v95h-183v45h183v33l-211 366h70l176 -319l177 319h62l-212 -366v-33z" />
    <glyph glyph-name="Scaron" unicode="&#x160;" horiz-adv-x="645" 
d="M590 189c0 -66.667 -23.5 -117.999 -70.5 -153.999s-106.833 -54 -179.5 -54c-84 0 -152 23.333 -204 70s-79 107 -81 181h64c4 -65.333 26.833 -114.333 68.5 -147s92.5 -49 152.5 -49c55.333 0 100.5 13.333 135.5 40s52.5 63 52.5 109
c0 32.667 -11.333 60.167 -34 82.5c-22.668 22.334 -43.835 37.167 -63.501 44.5c-19.667 7.33301 -51.834 17 -96.5 29c-6 2 -10.333 3.33301 -13 4c-30 8 -53 14.5 -69 19.5s-36.667 13.5 -62 25.5s-44.666 24.667 -57.999 38s-25.166 31.333 -35.499 54
s-15.5 48.334 -15.5 77.001c0 64 22.167 114.833 66.5 152.5s103.5 56.5 177.5 56.5c68.667 0 127 -16.833 175 -50.5s73.667 -84.834 77 -153.501h-64c-2.66699 51.333 -22.5 89.333 -59.5 114s-80.833 37 -131.5 37c-53.333 0 -96.666 -13.667 -129.999 -41
c-33.333 -27.335 -50 -65.668 -50 -115c0 -17.333 2 -33 6 -47s11.333 -26.167 22 -36.5s20.5 -19 29.5 -26s23.333 -14 43 -21s35.5 -12.333 47.5 -16c12 -3.66992 30.667 -8.83691 56 -15.501c33.333 -8.66699 59.333 -16 78 -22s40.167 -14.833 64.5 -26.5
s42.666 -24 54.999 -37s23.166 -30 32.499 -51s14 -44.833 14 -71.5zM480 995.001l-129 -163h-39l-129 163h64l84 -106l85 106h64z" />
    <glyph glyph-name="section" unicode="&#xa7;" horiz-adv-x="540" 
d="M128 372c0 -21.333 6.66602 -39.334 19.999 -54.001c13.333 -14.668 30.5 -24.835 51.5 -30.5c21 -5.66699 38.5 -9.33398 52.5 -11c14 -1.66699 27.667 -2.5 41 -2.5c45.334 0 80.667 8.66699 106 26c25.333 17.334 38 40.667 38 70
c0 21.334 -7.16699 39.167 -21.5 53.5s-32.666 24.333 -54.999 30s-40.833 9.33398 -55.5 11.001s-28.667 2.5 -42 2.5c-42 0 -75 -8.33301 -99 -25s-36 -40 -36 -70zM381.999 249.999c68 -22.667 102.002 -62.666 102.002 -119.999c0 -48 -20 -85.667 -60 -113
s-89 -41 -147 -41c-60.667 0 -112.667 14.667 -156 44s-67 71 -71 125h59c5.33301 -42 25 -73.167 59 -93.5s72.333 -30.5 115 -30.5c40 0 74 8.83301 102 26.5s42 43.167 42 76.5c0 16.667 -4 31.167 -12 43.5s-20 22 -36 29s-30.833 12.333 -44.5 16s-31.5 7.5 -53.5 11.5
c-26 4.66797 -45.833 8.33496 -59.5 11.001c-13.667 2.66699 -31.334 7.66699 -53.001 15s-38 15.5 -49 24.5s-21 21.667 -30 38c-9 16.334 -13.5 35.167 -13.5 56.5c0 64 32.333 104.667 97 122c-24.667 6.66699 -45.834 20.5 -63.501 41.5s-26.5 47.5 -26.5 79.5
c0 47.333 19.333 84.166 58 110.499s85.667 39.5 141 39.5c56 0 104.333 -13.333 145 -40s60.667 -63.334 60 -110.001h-59c-0.666992 34.667 -15.5 60.667 -44.5 78s-64.167 26 -105.5 26c-43.333 0 -77.333 -9.16699 -102 -27.5s-37 -43.833 -37 -76.5
c0 -18 4 -33.167 12 -45.5s21.167 -21.833 39.5 -28.5s33.333 -11.167 45 -13.5c11.667 -2.34961 30.167 -5.18262 55.5 -8.5c3.33789 -0.666992 5.6709 -1 7 -1c28.667 -4 53.167 -8.5 73.5 -13.5c20.334 -5 40.167 -12.333 59.5 -22s34 -22.834 44 -39.5
c10 -16.667 15 -36.667 15 -60c0 -34 -9.83301 -62 -29.5 -84s-45.834 -37.333 -78.5 -46z" />
    <glyph glyph-name="scaron" unicode="&#x161;" horiz-adv-x="513" 
d="M267 291c25.333 -4 45.3271 -7.50195 59.9941 -10.502s32.167 -8.16699 52.5 -15.5s36 -15.833 47 -25.5s20.667 -22.667 29 -39s12.5 -35.166 12.5 -56.499c0 -50.667 -19 -89.334 -57 -116.001s-84.333 -40 -139 -40c-59.333 0 -110.666 15.167 -153.999 45.5
s-67.666 72.833 -72.999 127.5h62c6.66699 -41.333 24.834 -71.666 54.501 -90.999s64.834 -29 105.501 -29c39.333 0 72.833 8.33301 100.5 25s41.5 40.667 41.5 72c0 16.667 -4 31 -12 43s-20.167 21.5 -36.5 28.5s-31.166 12.333 -44.499 16
s-30.666 7.16699 -51.999 10.5c-26 4.66699 -46.833 8.66699 -62.5 12s-33.834 9 -54.501 17s-36.667 16.833 -48 26.5s-21.166 22.834 -29.499 39.501s-12.5 35.667 -12.5 57c0 50 18.667 88.167 56 114.5s84 39.5 140 39.5c56.667 0 103 -13.5 139 -40.5
s56.667 -64.167 62 -111.5h-60c-4.66699 33.333 -20.334 58.333 -47 75c-26.667 16.667 -59.667 25 -99 25c-42 0 -74.333 -9.16699 -97 -27.5s-34 -42.5 -34 -72.5c0 -32 12 -54.333 36 -67s62 -23.334 114 -32zM257.994 696.998l84 106h64l-129 -163h-39l-129 163h64z" />
    <glyph glyph-name="copyright" unicode="&#xa9;" horiz-adv-x="889" 
d="M445 196c35.334 0 64.665 11.168 87.998 33.501s35 52.166 35 89.499h56c0 -54 -17.5 -96.5 -52.5 -127.5s-78.167 -46.5 -129.5 -46.5c-55.333 0 -102.166 19.833 -140.499 59.5s-57.5 97.5 -57.5 173.5c0 77.333 19.333 135.5 58 174.5s85.334 58.5 140.001 58.5
c50 0 92.167 -15 126.5 -45s51.5 -70.667 51.5 -122h-56c0 34.667 -11.5 62.667 -34.5 84s-51.5 32 -85.5 32c-39.333 0 -73.333 -15.333 -102 -46s-43 -75.334 -43 -134c0 -58 14.167 -103.167 42.5 -135.5s62.833 -48.5 103.5 -48.5zM444.998 33.001
c94.667 0 174 32.001 238 96.001s96 146 96 246s-32 182 -96 246s-143.333 96 -238 96s-174.167 -32 -238.5 -96s-96.5 -146 -96.5 -246c0 -100.667 32.167 -182.834 96.5 -246.501s143.833 -95.5 238.5 -95.5zM444.998 762.002c109.333 0 200.667 -36.333 274 -109
s110 -165.334 110 -278.001s-36.667 -205.334 -110 -278.001c-73.334 -72.667 -164.667 -109 -274 -109s-200.833 36.333 -274.5 109s-110.5 165.334 -110.5 278.001s36.833 205.334 110.5 278.001s165.167 109 274.5 109z" />
    <glyph glyph-name="ordfeminine" unicode="&#xaa;" horiz-adv-x="427" 
d="M187 376c36.667 0 69.5 12.833 98.5 38.5s43.5 60.5 43.5 104.5v39c-12.667 -6.66699 -36 -13 -70 -19l-66 -9c-30 -4.66699 -53.167 -12.667 -69.5 -24s-24.5 -29 -24.5 -53c0 -25.333 8.5 -44.5 25.5 -57.5s37.833 -19.5 62.5 -19.5zM232 753
c46 0 81.6641 -10.999 106.997 -32.999s38 -55 38 -99v-280h-48v72c-16 -24.667 -37.5 -44.334 -64.5 -59c-27 -14.667 -54.5 -22 -82.5 -22c-37.333 0 -68.666 10.5 -93.999 31.5s-38 50.167 -38 87.5c0 67.333 40.667 106.666 122 117.999l100 15
c18 2.66699 32 7.5 42 14.5s15 18.833 15 35.5c0 24.667 -9.33301 43.667 -28 57s-43.334 20 -74 20c-33.333 0 -60.166 -7.66699 -80.499 -23s-31.166 -35.333 -32.499 -60h-49c2.66699 38.667 19.167 69.167 49.5 91.5s69.5 33.5 117.5 33.5z" />
    <glyph glyph-name="guillemotleft" unicode="&#xab;" horiz-adv-x="499" 
d="M449 140l-41 -38l-178 202l178 202l41 -38l-145 -164zM249 140l-41 -38l-178 202l178 202l41 -38l-145 -164z" />
    <glyph glyph-name="logicalnot" unicode="&#xac;" horiz-adv-x="500" 
d="M405 112v156h-365v53h420v-209h-55z" />
    <glyph glyph-name="registered" unicode="&#xae;" horiz-adv-x="539" 
d="M232 536l52.999 0.000976562c13.334 0 23.667 3.66699 31 11s11 16.666 11 27.999c0 12 -3.66699 21.667 -11 29s-17.666 11 -30.999 11h-53v-79zM370.999 575.001c0 -36 -16 -60.333 -48 -73l55 -87h-50l-52 80h-44v-80h-44v242h95c28.667 0 50.5 -8 65.5 -24
s22.5 -35.333 22.5 -58zM269.999 331.001c55.334 0 101.666 18.667 138.999 56s56 85.333 56 144c0 58 -18.667 105.833 -56 143.5s-83.666 56.5 -138.999 56.5s-101.833 -18.833 -139.5 -56.5s-56.5 -85.5 -56.5 -143.5c0 -58.667 18.833 -106.667 56.5 -144
s84.167 -56 139.5 -56zM269.998 762.001c65.333 0 119.833 -21.667 163.5 -65c43.667 -43.335 65.5 -98.668 65.5 -166c0 -67.333 -21.833 -122.666 -65.5 -165.999s-98.167 -65 -163.5 -65s-120 21.667 -164 65c-44 43.334 -66 98.667 -66 166s22 122.666 66 165.999
s98.667 65 164 65z" />
    <glyph glyph-name="macron" unicode="&#xaf;" horiz-adv-x="319" 
d="M0 640v47h319v-47h-319z" />
    <glyph glyph-name="degree" unicode="&#xb0;" horiz-adv-x="445" 
d="M334 632c0 36.667 -11.333 66.5 -34 89.5s-51 34.5 -85 34.5s-62.167 -11.5 -84.5 -34.5s-33.5 -52.833 -33.5 -89.5c0 -37.334 11.167 -67.667 33.5 -90.999c22.333 -23.335 50.5 -35.002 84.5 -35c34 0 62.333 11.667 85 35s34 53.666 34 90.999zM40 631
c0 51.333 16.667 93.333 50 126s74.333 49 123 49c51.333 0 93.833 -16.167 127.5 -48.5s50.5 -74.5 50.5 -126.5c0 -50.667 -17 -92.667 -51 -126s-76.333 -50 -127 -50c-48.667 0 -89.667 16.667 -123 50s-50 75.333 -50 126z" />
    <glyph glyph-name="plusminus" unicode="&#xb1;" horiz-adv-x="500" 
d="M40 187h420v-53h-420v53zM460 512v-53h-182v-193h-55v193h-183v53h183v193h55v-193h182z" />
    <glyph glyph-name="Zcaron" unicode="&#x17d;" horiz-adv-x="664" 
d="M60 0v53l478 644h-465v53h535v-53l-478 -643h484v-54h-554zM498 995l-129 -163h-39l-129 163h64l84 -106l85 106h64z" />
    <glyph glyph-name="paragraph" unicode="&#xb6;" horiz-adv-x="626" 
d="M378 700h-109.001c-54 0 -95.667 -15.833 -125 -47.5s-44 -70.167 -44 -115.5s14.833 -84 44.5 -116s71.834 -48 126.501 -48h107v327zM545.999 -140h-53v890h53v-890zM39.999 542c0 59.333 18.668 108.833 56.001 148.5s92 59.5 164 59.5h171v-890h-53v463h-107
c-74.667 0 -131.834 21.167 -171.501 63.5c-39.667 42.334 -59.5 94.167 -59.5 155.5z" />
    <glyph glyph-name="periodcentered" unicode="&#xb7;" horiz-adv-x="216" 
d="M50 414h116v-120h-116v120z" />
    <glyph glyph-name="zcaron" unicode="&#x17e;" horiz-adv-x="530" 
d="M123 52h350v-52h-418v52l347 428h-329v52h402v-52zM287 697l84 106h64l-129 -163h-39l-129 163h64z" />
    <glyph glyph-name="ordmasculine" unicode="&#xba;" horiz-adv-x="489" 
d="M246 380c42.667 0 77.334 14.167 104.001 42.5s40 67.5 40 117.5c0 50.667 -13.833 90 -41.5 118s-62.834 42 -105.5 42c-42.667 0 -77.334 -13.667 -104.001 -41c-26.667 -27.335 -40 -65.668 -40 -115c0 -51.333 14 -91.5 42 -120.5s63 -43.5 105 -43.5zM243 750
c58 0 105.167 -18.832 141.5 -56.499s54.5 -88.834 54.5 -153.501s-18 -115.667 -54 -153s-82.667 -56 -140 -56c-58 0 -105 18.667 -141 56s-54 88.333 -54 153c0 64.668 17.833 115.835 53.5 153.5c35.667 37.667 82.167 56.5 139.5 56.5z" />
    <glyph glyph-name="guillemotright" unicode="&#xbb;" horiz-adv-x="499" 
d="M250 468l41 38l178 -202l-178 -202l-41 38l145 164zM50 468l41 38l178 -202l-178 -202l-41 38l145 164z" />
    <glyph glyph-name="OE" unicode="&#x152;" horiz-adv-x="1153" 
d="M122 377c0 -42.667 6.50293 -84 19.5029 -124s31.5 -76.333 55.5 -109s55.667 -58.834 95 -78.501s83.333 -29.5 132 -29.5c63.333 0 118.166 16.5 164.499 49.5s80.166 74.667 101.499 125s32 104.833 32 163.5c0 43.333 -6.33301 84.833 -19 124.5
c-12.667 39.668 -31 75.835 -55 108.501c-24 32.667 -55.333 58.667 -94 78s-82.334 29 -131.001 29c-63.333 0 -118.5 -16.667 -165.5 -50s-81.333 -75 -103 -125s-32.5 -104 -32.5 -162zM1103 0l-557.997 0.00390625c-39.333 -12.667 -80 -19 -122 -19
c-58 0 -110.667 11.167 -158 33.5s-85.5 52.166 -114.5 89.499s-51.333 79.166 -67 125.499s-23.5 94.5 -23.5 144.5s7.83301 98.167 23.5 144.5s38.167 88.333 67.5 126s67.5 67.667 114.5 90s99.833 33.5 158.5 33.5c43.333 0 83 -6 119 -18h540v-53h-441
c42 -33.333 75.167 -75.5 99.5 -126.5s38.166 -105.833 41.499 -164.5h272v-54h-272c-2.66699 -58.667 -15.834 -114.334 -39.501 -167.001s-56.834 -96.334 -99.501 -131.001h459v-54z" />
    <glyph glyph-name="oe" unicode="&#x153;" horiz-adv-x="1019" 
d="M304 43c55.333 0 100.835 20.165 136.502 60.498s53.5 94.5 53.5 162.5v5c-1.33301 67.334 -20.333 120.167 -57 158.5s-82.334 57.5 -137.001 57.5c-56 0 -101.833 -19.667 -137.5 -59s-53.5 -92.666 -53.5 -159.999c0 -69.333 18.667 -124.166 56 -164.499
s83.666 -60.5 138.999 -60.5zM557.002 304.998h354c-0.666992 58.667 -17 104 -49 136s-72 48 -120 48c-48.667 0 -90.667 -16 -126 -48s-55 -77.333 -59 -136zM969.002 252.998l-413.999 0.000976562c0 -68.667 18.333 -121.167 55 -157.5s81.334 -54.5 134 -54.5
c38.667 0 74.334 10.167 107 30.5c32.667 20.333 53 50.166 61 89.499h53c-12 -58 -39.167 -101.333 -81.5 -130c-42.335 -28.667 -90.168 -43 -143.5 -43c-46.667 0 -89.167 11.5 -127.5 34.5s-67.5 56.833 -87.5 101.5c-20.667 -43.333 -50.334 -76.833 -89 -100.5
c-38.667 -23.667 -83.334 -35.5 -134 -35.5c-74.667 0 -135.334 24.833 -182.001 74.5s-70 117.167 -70 202.5c0 84.667 23.167 152 69.5 202s106.5 75 180.5 75c51.333 0 96.5 -12 135.5 -36s68.833 -58.333 89.5 -103c20 45.333 49.667 79.833 89 103.5s83 35.5 131 35.5
c66 0 119.833 -21.833 161.5 -65.5s62.5 -107.834 62.5 -192.5v-31z" />
    <glyph glyph-name="Ydieresis" unicode="&#x178;" horiz-adv-x="645" 
d="M30 750h71l223 -400l222 400h69l-261 -453v-297h-62v297zM459 917v-85h-83v85h83zM270 917v-85h-83v85h83z" />
    <glyph glyph-name="questiondown" unicode="&#xbf;" horiz-adv-x="513" 
d="M254 -245c-62.667 0 -113.17 15.168 -151.503 45.501s-57.5 74.166 -57.5 131.499c0 13.333 1.33301 26 4 38s5.33398 22.5 8.00098 31.5s7.83398 18.5 15.501 28.5s13.5 17.833 17.5 23.5s11.667 13 23 22s19 15 23 18s12.833 9.33301 26.5 19s21.834 15.5 24.5 17.5
c35.333 25.333 58.833 47.5 70.5 66.5s17.5 42.5 17.5 70.5v57h50v-72c0 -9.33301 -0.666992 -18.333 -2 -27s-2.5 -16.334 -3.5 -23.001s-3.66699 -13.667 -8 -21s-7.16602 -13 -8.49902 -17s-5.5 -9.5 -12.5 -16.5s-11.333 -11.5 -13 -13.5
c-1.66895 -2 -7.33594 -6.83301 -17.001 -14.5c-9.66699 -7.66699 -15.167 -12 -16.5 -13s-8 -5.66699 -20 -14s-18.667 -12.833 -20 -13.5c-33.333 -23.333 -58.166 -45.333 -74.499 -66s-24.5 -46.667 -24.5 -78c0 -44 15.5 -76.833 46.5 -98.5s67.833 -32.5 110.5 -32.5
c46 0 85.167 12.667 117.5 38s49.833 62.333 52.5 111h56c0 -65.333 -22.333 -114.666 -67 -147.999s-100.334 -50 -167 -50zM255.997 429.001v88h84v-88h-84z" />
    <glyph glyph-name="Agrave" unicode="&#xc0;" horiz-adv-x="763" 
d="M377 687l-163 -414h331zM194 220l-88 -220h-66l302 750h69l312 -750h-68l-89 220h-372zM289 1012l117 -180h-48l-122 141z" />
    <glyph glyph-name="Aacute" unicode="&#xc1;" horiz-adv-x="763" 
d="M377 687l-163 -414h331zM194 220l-88 -220h-66l302 750h69l312 -750h-68l-89 220h-372zM405 832h-48l117 180l53 -39z" />
    <glyph glyph-name="Acircumflex" unicode="&#xc2;" horiz-adv-x="763" 
d="M377 687l-163 -414h331zM194 220l-88 -220h-66l302 750h69l312 -750h-68l-89 220h-372zM381 938l-84 -106h-64l129 163h39l129 -163h-64z" />
    <glyph glyph-name="Atilde" unicode="&#xc3;" horiz-adv-x="763" 
d="M377 687l-163 -414h331zM194 220l-88 -220h-66l302 750h69l312 -750h-68l-89 220h-372zM501 958l38.002 0.000976562c0 -40 -8.5 -71.667 -25.5 -95s-37.833 -35 -62.5 -35c-18.667 0 -42.667 11.833 -72 35.5s-49 35.5 -59 35.5c-26 0 -43.333 -22.333 -52 -67h-44
c4 39.333 14.5 70.166 31.5 92.499s37.5 33.5 61.5 33.5c19.333 0 43.666 -12.167 72.999 -36.5c29.334 -24.333 49.667 -36.5 60.999 -36.5c27.333 0 44 24.333 50 73z" />
    <glyph glyph-name="Adieresis" unicode="&#xc4;" horiz-adv-x="763" 
d="M377 687l-163 -414h331zM194 220l-88 -220h-66l302 750h69l312 -750h-68l-89 220h-372zM518 917v-85h-83v85h83zM329 917v-85h-83v85h83z" />
    <glyph glyph-name="Aring" unicode="&#xc5;" horiz-adv-x="763" 
d="M377 687l-163 -414h331zM194 220l-88 -220h-66l302 750h69l312 -750h-68l-89 220h-372zM439 924c0 16 -5.5 29.667 -16.5 41s-24.167 17 -39.5 17s-28.333 -5.66699 -39 -17s-16 -25 -16 -41c0 -16.667 5.33301 -30.834 16 -42.501s23.667 -17.5 39 -17.5
s28.5 5.83301 39.5 17.5c11 11.6738 16.5 25.8408 16.5 42.501zM287 924c0 28 9.33105 51 27.998 69s41.334 27 68.001 27c27.333 0 50.333 -9 69 -27s28 -41 28 -69s-9.33301 -51.167 -28 -69.5s-41.667 -27.5 -69 -27.5s-50.166 9.16699 -68.499 27.5
s-27.5 41.5 -27.5 69.5z" />
    <glyph glyph-name="AE" unicode="&#xc6;" horiz-adv-x="1062" 
d="M534 289v409h-56l-217 -409h273zM1012 54v-54h-478v236h-301l-126 -236h-67l402 750h550v-53h-398v-291h370v-54h-370v-298h418z" />
    <glyph glyph-name="Ccedilla" unicode="&#xc7;" horiz-adv-x="779" 
d="M410 -19l0.000976562 -44.002h5c28.667 0 51.334 -7 68.001 -21s25 -31.667 25 -53s-8.33301 -40.166 -25 -56.5c-16.667 -16.333 -40.667 -24.5 -72 -24.5c-38 0 -72.333 13.333 -103 40l23 34c26.667 -24.667 53.667 -37 81 -37c36.667 0 55 14 55 42
c0 35.333 -34.333 53 -103 53l11 69c-100.667 8.66699 -178.334 50.5 -233.001 125.5s-82 166.167 -82 273.5c0 63.334 10 120.167 30 170.5s46.667 90.833 80 121.5s70.5 54 111.5 70s84.167 24 129.5 24c77.333 0 145.833 -21 205.5 -63s93.167 -98.333 100.5 -169h-63
c-7.33301 52.667 -34.833 95 -82.5 127s-101.834 48 -162.501 48c-78 0 -145.333 -28 -202 -84s-85 -137 -85 -243c0 -98.667 25.5 -181 76.5 -247s123.167 -99 216.5 -99c67.334 0 123.834 17.833 169.5 53.5c45.667 35.667 71.167 85.834 76.5 150.501h63
c-6 -81.333 -38.333 -145.166 -97 -191.499s-131 -69.5 -217 -69.5z" />
    <glyph glyph-name="Egrave" unicode="&#xc8;" horiz-adv-x="623" 
d="M95 0v750h458v-53h-398v-291h370v-54h-370v-298h418v-54h-478zM237 1012l117 -180h-48l-122 141z" />
    <glyph glyph-name="Eacute" unicode="&#xc9;" horiz-adv-x="623" 
d="M95 0v750h458v-53h-398v-291h370v-54h-370v-298h418v-54h-478zM339 832h-48l117 180l53 -39z" />
    <glyph glyph-name="Ecircumflex" unicode="&#xca;" horiz-adv-x="623" 
d="M95 0v750h458v-53h-398v-291h370v-54h-370v-298h418v-54h-478zM326 938l-84 -106h-64l129 163h39l129 -163h-64z" />
    <glyph glyph-name="Edieresis" unicode="&#xcb;" horiz-adv-x="623" 
d="M95 0v750h458v-53h-398v-291h370v-54h-370v-298h418v-54h-478zM468 917v-85h-83v85h83zM279 917v-85h-83v85h83z" />
    <glyph glyph-name="Igrave" unicode="&#xcc;" horiz-adv-x="260" 
d="M160 0h-60v750h60v-750zM31 1012l117 -180h-48l-122 141z" />
    <glyph glyph-name="Iacute" unicode="&#xcd;" horiz-adv-x="260" 
d="M160 0h-60v750h60v-750zM159 832h-48l117 180l53 -39z" />
    <glyph glyph-name="Icircumflex" unicode="&#xce;" horiz-adv-x="260" 
d="M158 0h-60v750h60v-750zM128 938l-84 -106h-64l129 163h39l129 -163h-64z" />
    <glyph glyph-name="Idieresis" unicode="&#xcf;" horiz-adv-x="472" 
d="M266 0h-60v750h60v-750zM372 917v-85h-83v85h83zM183 917v-85h-83v85h83z" />
    <glyph glyph-name="Eth" unicode="&#xd0;" horiz-adv-x="736" 
d="M155 54l146.999 -0.000976562c50 0 95.333 9.5 136 28.5s73.334 44.333 98.001 76s43.667 66.834 57 105.501s20 79 20 121c0 86 -26.333 159.5 -79 220.5s-126.667 91.5 -222 91.5h-157v-287h214v-57h-214v-299zM94.999 749.999l224 -0.000976562
c57.334 0 109.167 -10 155.5 -30s83.833 -47 112.5 -81s50.667 -72.333 66 -115s23 -87.667 23 -135c0 -48.667 -8 -95.667 -24 -141s-39 -86.666 -69 -123.999s-69.5 -67.333 -118.5 -90s-104.167 -34 -165.5 -34h-204v353h-105v57h105v340z" />
    <glyph glyph-name="Ntilde" unicode="&#xd1;" horiz-adv-x="739" 
d="M644 0h-70l-421 680v-680h-58v750h85l406 -664v664h58v-750zM509 958l38.001 0.000976562c0 -40 -8.5 -71.667 -25.5 -95s-37.833 -35 -62.5 -35c-18.667 0 -42.667 11.833 -72 35.5s-49 35.5 -59 35.5c-26 0 -43.333 -22.333 -52 -67h-44
c4 39.333 14.5 70.166 31.5 92.499s37.5 33.5 61.5 33.5c19.334 0 43.667 -12.167 73 -36.5c29.334 -24.333 49.667 -36.5 60.999 -36.5c27.333 0 44 24.333 50 73z" />
    <glyph glyph-name="Ograve" unicode="&#xd2;" horiz-adv-x="844" 
d="M423 714c-63.333 0 -118.497 -16.667 -165.497 -50s-81.333 -75 -103 -125s-32.5 -104 -32.5 -162c0 -42.667 6.5 -84 19.5 -124s31.5 -76.333 55.5 -109s55.667 -58.834 95 -78.501s83.333 -29.5 132 -29.5c63.333 0 118.166 16.5 164.499 49.5
s80.166 74.667 101.499 125s32 104.833 32 163.5c0 43.333 -6.33301 84.833 -19 124.5c-12.667 39.668 -31 75.835 -55 108.501c-24 32.667 -55.333 58.667 -94 78s-82.334 29 -131.001 29zM423.003 -19c-58 0 -110.667 11.1699 -158 33.5029s-85.5 52.166 -114.5 89.499
s-51.333 79.166 -67 125.499s-23.5 94.5 -23.5 144.5s7.83301 98.167 23.5 144.5s38.167 88.333 67.5 126s67.5 67.667 114.5 90s99.833 33.5 158.5 33.5c58 0 110.5 -11.167 157.5 -33.5s84.833 -52 113.5 -89s50.667 -78.667 66 -125s23 -94.5 23 -144.5
s-7.5 -98.167 -22.5 -144.5s-37 -88.333 -66 -126s-67 -67.834 -114 -90.501s-99.833 -34 -158.5 -34zM350.003 1012l117 -180h-48l-122 141z" />
    <glyph glyph-name="Oacute" unicode="&#xd3;" horiz-adv-x="844" 
d="M423 714c-63.333 0 -118.497 -16.667 -165.497 -50s-81.333 -75 -103 -125s-32.5 -104 -32.5 -162c0 -42.667 6.5 -84 19.5 -124s31.5 -76.333 55.5 -109s55.667 -58.834 95 -78.501s83.333 -29.5 132 -29.5c63.333 0 118.166 16.5 164.499 49.5
s80.166 74.667 101.499 125s32 104.833 32 163.5c0 43.333 -6.33301 84.833 -19 124.5c-12.667 39.668 -31 75.835 -55 108.501c-24 32.667 -55.333 58.667 -94 78s-82.334 29 -131.001 29zM423.003 -19c-58 0 -110.667 11.1699 -158 33.5029s-85.5 52.166 -114.5 89.499
s-51.333 79.166 -67 125.499s-23.5 94.5 -23.5 144.5s7.83301 98.167 23.5 144.5s38.167 88.333 67.5 126s67.5 67.667 114.5 90s99.833 33.5 158.5 33.5c58 0 110.5 -11.167 157.5 -33.5s84.833 -52 113.5 -89s50.667 -78.667 66 -125s23 -94.5 23 -144.5
s-7.5 -98.167 -22.5 -144.5s-37 -88.333 -66 -126s-67 -67.834 -114 -90.501s-99.833 -34 -158.5 -34zM459.003 832.003h-48l117 180l53 -39z" />
    <glyph glyph-name="Ocircumflex" unicode="&#xd4;" horiz-adv-x="844" 
d="M423 714c-63.333 0 -118.497 -16.667 -165.497 -50s-81.333 -75 -103 -125s-32.5 -104 -32.5 -162c0 -42.667 6.5 -84 19.5 -124s31.5 -76.333 55.5 -109s55.667 -58.834 95 -78.501s83.333 -29.5 132 -29.5c63.333 0 118.166 16.5 164.499 49.5
s80.166 74.667 101.499 125s32 104.833 32 163.5c0 43.333 -6.33301 84.833 -19 124.5c-12.667 39.668 -31 75.835 -55 108.501c-24 32.667 -55.333 58.667 -94 78s-82.334 29 -131.001 29zM423.003 -19c-58 0 -110.667 11.1699 -158 33.5029s-85.5 52.166 -114.5 89.499
s-51.333 79.166 -67 125.499s-23.5 94.5 -23.5 144.5s7.83301 98.167 23.5 144.5s38.167 88.333 67.5 126s67.5 67.667 114.5 90s99.833 33.5 158.5 33.5c58 0 110.5 -11.167 157.5 -33.5s84.833 -52 113.5 -89s50.667 -78.667 66 -125s23 -94.5 23 -144.5
s-7.5 -98.167 -22.5 -144.5s-37 -88.333 -66 -126s-67 -67.834 -114 -90.501s-99.833 -34 -158.5 -34zM422.003 938.003l-84 -106h-64l129 163h39l129 -163h-64z" />
    <glyph glyph-name="Otilde" unicode="&#xd5;" horiz-adv-x="844" 
d="M423 714c-63.333 0 -118.497 -16.667 -165.497 -50s-81.333 -75 -103 -125s-32.5 -104 -32.5 -162c0 -42.667 6.5 -84 19.5 -124s31.5 -76.333 55.5 -109s55.667 -58.834 95 -78.501s83.333 -29.5 132 -29.5c63.333 0 118.166 16.5 164.499 49.5
s80.166 74.667 101.499 125s32 104.833 32 163.5c0 43.333 -6.33301 84.833 -19 124.5c-12.667 39.668 -31 75.835 -55 108.501c-24 32.667 -55.333 58.667 -94 78s-82.334 29 -131.001 29zM423.003 -19c-58 0 -110.667 11.1699 -158 33.5029s-85.5 52.166 -114.5 89.499
s-51.333 79.166 -67 125.499s-23.5 94.5 -23.5 144.5s7.83301 98.167 23.5 144.5s38.167 88.333 67.5 126s67.5 67.667 114.5 90s99.833 33.5 158.5 33.5c58 0 110.5 -11.167 157.5 -33.5s84.833 -52 113.5 -89s50.667 -78.667 66 -125s23 -94.5 23 -144.5
s-7.5 -98.167 -22.5 -144.5s-37 -88.333 -66 -126s-67 -67.834 -114 -90.501s-99.833 -34 -158.5 -34zM551.003 958.003l38 0.000976562c0 -40 -8.5 -71.667 -25.5 -95s-37.833 -35 -62.5 -35c-18.667 0 -42.667 11.833 -72 35.5s-49 35.5 -59 35.5
c-26 0 -43.333 -22.333 -52 -67h-44c4 39.333 14.5 70.166 31.5 92.499s37.5 33.5 61.5 33.5c19.334 0 43.667 -12.167 73 -36.5c29.334 -24.333 49.667 -36.5 61 -36.5c27.333 0 44 24.333 50 73z" />
    <glyph glyph-name="Odieresis" unicode="&#xd6;" horiz-adv-x="844" 
d="M423 714c-63.333 0 -118.497 -16.667 -165.497 -50s-81.333 -75 -103 -125s-32.5 -104 -32.5 -162c0 -42.667 6.5 -84 19.5 -124s31.5 -76.333 55.5 -109s55.667 -58.834 95 -78.501s83.333 -29.5 132 -29.5c63.333 0 118.166 16.5 164.499 49.5
s80.166 74.667 101.499 125s32 104.833 32 163.5c0 43.333 -6.33301 84.833 -19 124.5c-12.667 39.668 -31 75.835 -55 108.501c-24 32.667 -55.333 58.667 -94 78s-82.334 29 -131.001 29zM423.003 -19c-58 0 -110.667 11.1699 -158 33.5029s-85.5 52.166 -114.5 89.499
s-51.333 79.166 -67 125.499s-23.5 94.5 -23.5 144.5s7.83301 98.167 23.5 144.5s38.167 88.333 67.5 126s67.5 67.667 114.5 90s99.833 33.5 158.5 33.5c58 0 110.5 -11.167 157.5 -33.5s84.833 -52 113.5 -89s50.667 -78.667 66 -125s23 -94.5 23 -144.5
s-7.5 -98.167 -22.5 -144.5s-37 -88.333 -66 -126s-67 -67.834 -114 -90.501s-99.833 -34 -158.5 -34zM558.003 917.003v-85h-83v85h83zM369.003 917.003v-85h-83v85h83z" />
    <glyph glyph-name="multiply" unicode="&#xd7;" horiz-adv-x="500" 
d="M287 299l157 -158l-36 -37l-158 158l-158 -158l-36 37l158 158l-164 163l36 37l164 -164l164 164l36 -37z" />
    <glyph glyph-name="Oslash" unicode="&#xd8;" horiz-adv-x="844" 
d="M424 36c63.333 0 118.168 16.501 164.501 49.501s80.166 74.667 101.499 125s32 104.833 32 163.5c0 65.334 -14 126.167 -42 182.5s-68 98.166 -120 125.499l-230 -632c29.334 -9.33301 60.667 -14 94 -14zM122.002 377.001c0 -64 14 -124.167 42 -180.5
s68 -98.5 120 -126.5l230 631c-30 8.66699 -60.333 13 -91 13c-63.333 0 -118.5 -16.667 -165.5 -50s-81.333 -75 -103 -125s-32.5 -104 -32.5 -162zM620.002 848.001l-41.001 -111.999c66 -30.667 116.667 -78.834 152 -144.501s53 -137.5 53 -215.5
c0 -50 -7.5 -98.167 -22.5 -144.5s-37 -88.333 -66 -126s-67 -67.834 -114 -90.501s-99.833 -34 -158.5 -34c-38.667 0 -76 5.33301 -112 16l-34 -93h-53l40 111c-65.333 30.667 -115.666 78.834 -150.999 144.501s-53 137.167 -53 214.5c0 50 7.83301 98.167 23.5 144.5
s38.167 88.333 67.5 126s67.5 67.667 114.5 90s99.833 33.5 158.5 33.5c40 0 76.333 -5 109 -15l34 95h53z" />
    <glyph glyph-name="Ugrave" unicode="&#xd9;" horiz-adv-x="727" 
d="M642 750v-491.001c0 -88 -25 -156.167 -75 -204.5s-117.333 -72.5 -202 -72.5s-152.5 24.167 -203.5 72.5s-76.5 116.5 -76.5 204.5v491h60v-484c0 -75.333 20.333 -132.666 61 -171.999s94.667 -59 162 -59c65.333 0 117.5 18.5 156.5 55.5s58.5 91.167 58.5 162.5v497
h59zM292 1012l117 -180h-48l-122 141z" />
    <glyph glyph-name="Uacute" unicode="&#xda;" horiz-adv-x="727" 
d="M642 750v-491.001c0 -88 -25 -156.167 -75 -204.5s-117.333 -72.5 -202 -72.5s-152.5 24.167 -203.5 72.5s-76.5 116.5 -76.5 204.5v491h60v-484c0 -75.333 20.333 -132.666 61 -171.999s94.667 -59 162 -59c65.333 0 117.5 18.5 156.5 55.5s58.5 91.167 58.5 162.5v497
h59zM377 831.999h-48l117 180l53 -39z" />
    <glyph glyph-name="Ucircumflex" unicode="&#xdb;" horiz-adv-x="727" 
d="M642 750v-491.001c0 -88 -25 -156.167 -75 -204.5s-117.333 -72.5 -202 -72.5s-152.5 24.167 -203.5 72.5s-76.5 116.5 -76.5 204.5v491h60v-484c0 -75.333 20.333 -132.666 61 -171.999s94.667 -59 162 -59c65.333 0 117.5 18.5 156.5 55.5s58.5 91.167 58.5 162.5v497
h59zM363 937.999l-84 -106h-64l129 163h39l129 -163h-64z" />
    <glyph glyph-name="Udieresis" unicode="&#xdc;" horiz-adv-x="727" 
d="M642 750v-491.001c0 -88 -25 -156.167 -75 -204.5s-117.333 -72.5 -202 -72.5s-152.5 24.167 -203.5 72.5s-76.5 116.5 -76.5 204.5v491h60v-484c0 -75.333 20.333 -132.666 61 -171.999s94.667 -59 162 -59c65.333 0 117.5 18.5 156.5 55.5s58.5 91.167 58.5 162.5v497
h59zM500 916.999v-85h-83v85h83zM311 916.999v-85h-83v85h83z" />
    <glyph glyph-name="Yacute" unicode="&#xdd;" horiz-adv-x="645" 
d="M30 750h71l223 -400l222 400h69l-261 -453v-297h-62v297zM356 832h-48l117 180l53 -39z" />
    <glyph glyph-name="Thorn" unicode="&#xde;" horiz-adv-x="622" 
d="M155 220l193 -0.000976562c54.667 0 97.167 15.833 127.5 47.5s45.5 70.167 45.5 115.5c0 44.667 -15 82.834 -45 114.501s-72 47.5 -126 47.5h-195v-325zM155 595.999h205.999c70 0 124.333 -20.333 163 -61s58 -89.667 58 -147c0 -60 -20.667 -111.5 -62 -154.5
s-98.666 -64.5 -171.999 -64.5h-193v-169h-60v750h60v-154z" />
    <glyph glyph-name="germandbls" unicode="&#xdf;" horiz-adv-x="613" 
d="M364 393c60.667 -9.33301 108.998 -30.5 144.998 -63.5s54 -77.167 54 -132.5c0 -62 -21.833 -110.333 -65.5 -145s-101.167 -52 -172.5 -52h-68v51h77c47.334 0 87.667 12.333 121 37s50 59.667 50 105c0 48 -20.333 87.333 -61 118s-101 46 -181 46h-7v56
c63.333 5.33301 111.833 22.5 145.5 51.5s50.5 65.167 50.5 108.5c0 40.668 -14.5 72.835 -43.5 96.5c-29 23.667 -65.833 35.5 -110.5 35.5c-48 0 -86.833 -13.833 -116.5 -41.5s-44.5 -66.834 -44.5 -117.501v-546h-57v546c0 69.333 20.333 122.666 61 159.999
s92.334 56 155.001 56c60.667 0 111.334 -17 152.001 -51s61 -80.333 61 -139c0 -47.333 -13.333 -85.666 -40 -114.999s-61.667 -50.666 -105 -63.999z" />
    <glyph glyph-name="agrave" unicode="&#xe0;" horiz-adv-x="549" 
d="M414 235v57.001c-16.667 -12 -49.334 -21.333 -98 -28l-86 -11c-84 -10.667 -126 -46 -126 -106c0 -34 11.5 -59.833 34.5 -77.5s51.167 -26.5 84.5 -26.5c49.333 0 93.5 17.167 132.5 51.5s58.5 81.166 58.5 140.499zM281 542.001
c61.333 0 108.832 -14.335 142.499 -43.002s50.5 -71.667 50.5 -129v-370h-57v104c-19.333 -35.333 -47.5 -63.5 -84.5 -84.5s-76.167 -31.5 -117.5 -31.5c-48 0 -88.333 13.833 -121 41.5s-49 65.834 -49 114.501c0 44.667 14.333 79.667 43 105s67.334 41.333 116.001 48
l134 19c24.667 3.33301 44 10 58 20s21 27.333 21 52c0 32.667 -13 58.334 -39 77.001s-60.333 28 -103 28s-77.167 -9.5 -103.5 -28.5s-42.166 -44.833 -47.499 -77.5h-57c8.66699 50 31.667 88.333 69 115s85.666 40 144.999 40zM210.999 819.999l117 -180h-48l-122 141z
" />
    <glyph glyph-name="aacute" unicode="&#xe1;" horiz-adv-x="549" 
d="M414 235v57.001c-16.667 -12 -49.334 -21.333 -98 -28l-86 -11c-84 -10.667 -126 -46 -126 -106c0 -34 11.5 -59.833 34.5 -77.5s51.167 -26.5 84.5 -26.5c49.333 0 93.5 17.167 132.5 51.5s58.5 81.166 58.5 140.499zM281 542.001
c61.333 0 108.832 -14.335 142.499 -43.002s50.5 -71.667 50.5 -129v-370h-57v104c-19.333 -35.333 -47.5 -63.5 -84.5 -84.5s-76.167 -31.5 -117.5 -31.5c-48 0 -88.333 13.833 -121 41.5s-49 65.834 -49 114.501c0 44.667 14.333 79.667 43 105s67.334 41.333 116.001 48
l134 19c24.667 3.33301 44 10 58 20s21 27.333 21 52c0 32.667 -13 58.334 -39 77.001s-60.333 28 -103 28s-77.167 -9.5 -103.5 -28.5s-42.166 -44.833 -47.499 -77.5h-57c8.66699 50 31.667 88.333 69 115s85.666 40 144.999 40zM304.999 639.999h-48l117 180l53 -39z" />
    <glyph glyph-name="acircumflex" unicode="&#xe2;" horiz-adv-x="549" 
d="M414 235v57.001c-16.667 -12 -49.334 -21.333 -98 -28l-86 -11c-84 -10.667 -126 -46 -126 -106c0 -34 11.5 -59.833 34.5 -77.5s51.167 -26.5 84.5 -26.5c49.333 0 93.5 17.167 132.5 51.5s58.5 81.166 58.5 140.499zM281 542.001
c61.333 0 108.832 -14.335 142.499 -43.002s50.5 -71.667 50.5 -129v-370h-57v104c-19.333 -35.333 -47.5 -63.5 -84.5 -84.5s-76.167 -31.5 -117.5 -31.5c-48 0 -88.333 13.833 -121 41.5s-49 65.834 -49 114.501c0 44.667 14.333 79.667 43 105s67.334 41.333 116.001 48
l134 19c24.667 3.33301 44 10 58 20s21 27.333 21 52c0 32.667 -13 58.334 -39 77.001s-60.333 28 -103 28s-77.167 -9.5 -103.5 -28.5s-42.166 -44.833 -47.499 -77.5h-57c8.66699 50 31.667 88.333 69 115s85.666 40 144.999 40zM281.999 745.999l-84 -106h-64l129 163h39
l129 -163h-64z" />
    <glyph glyph-name="atilde" unicode="&#xe3;" horiz-adv-x="549" 
d="M414 235v57.001c-16.667 -12 -49.334 -21.333 -98 -28l-86 -11c-84 -10.667 -126 -46 -126 -106c0 -34 11.5 -59.833 34.5 -77.5s51.167 -26.5 84.5 -26.5c49.333 0 93.5 17.167 132.5 51.5s58.5 81.166 58.5 140.499zM281 542.001
c61.333 0 108.832 -14.335 142.499 -43.002s50.5 -71.667 50.5 -129v-370h-57v104c-19.333 -35.333 -47.5 -63.5 -84.5 -84.5s-76.167 -31.5 -117.5 -31.5c-48 0 -88.333 13.833 -121 41.5s-49 65.834 -49 114.501c0 44.667 14.333 79.667 43 105s67.334 41.333 116.001 48
l134 19c24.667 3.33301 44 10 58 20s21 27.333 21 52c0 32.667 -13 58.334 -39 77.001s-60.333 28 -103 28s-77.167 -9.5 -103.5 -28.5s-42.166 -44.833 -47.499 -77.5h-57c8.66699 50 31.667 88.333 69 115s85.666 40 144.999 40zM398.999 765.999l38 0.000976562
c0 -40 -8.5 -71.667 -25.5 -95s-37.833 -35 -62.5 -35c-18.667 0 -42.667 11.833 -72 35.5s-49 35.5 -59 35.5c-26 0 -43.333 -22.333 -52 -67h-44c4 39.333 14.5 70.166 31.5 92.499s37.5 33.5 61.5 33.5c15.333 0 31.5 -6 48.5 -18s33 -24.167 48 -36.5
s27.5 -18.5 37.5 -18.5c27.333 0 44 24.333 50 73z" />
    <glyph glyph-name="adieresis" unicode="&#xe4;" horiz-adv-x="549" 
d="M414 235v57.001c-16.667 -12 -49.334 -21.333 -98 -28l-86 -11c-84 -10.667 -126 -46 -126 -106c0 -34 11.5 -59.833 34.5 -77.5s51.167 -26.5 84.5 -26.5c49.333 0 93.5 17.167 132.5 51.5s58.5 81.166 58.5 140.499zM281 542.001
c61.333 0 108.832 -14.335 142.499 -43.002s50.5 -71.667 50.5 -129v-370h-57v104c-19.333 -35.333 -47.5 -63.5 -84.5 -84.5s-76.167 -31.5 -117.5 -31.5c-48 0 -88.333 13.833 -121 41.5s-49 65.834 -49 114.501c0 44.667 14.333 79.667 43 105s67.334 41.333 116.001 48
l134 19c24.667 3.33301 44 10 58 20s21 27.333 21 52c0 32.667 -13 58.334 -39 77.001s-60.333 28 -103 28s-77.167 -9.5 -103.5 -28.5s-42.166 -44.833 -47.499 -77.5h-57c8.66699 50 31.667 88.333 69 115s85.666 40 144.999 40zM414.999 720.999v-81h-79v81h79z
M227.999 720.999v-81h-79v81h79z" />
    <glyph glyph-name="aring" unicode="&#xe5;" horiz-adv-x="549" 
d="M414 235v57.001c-16.667 -12 -49.334 -21.333 -98 -28l-86 -11c-84 -10.667 -126 -46 -126 -106c0 -34 11.5 -59.833 34.5 -77.5s51.167 -26.5 84.5 -26.5c49.333 0 93.5 17.167 132.5 51.5s58.5 81.166 58.5 140.499zM281 542.001
c61.333 0 108.832 -14.335 142.499 -43.002s50.5 -71.667 50.5 -129v-370h-57v104c-19.333 -35.333 -47.5 -63.5 -84.5 -84.5s-76.167 -31.5 -117.5 -31.5c-48 0 -88.333 13.833 -121 41.5s-49 65.834 -49 114.501c0 44.667 14.333 79.667 43 105s67.334 41.333 116.001 48
l134 19c24.667 3.33301 44 10 58 20s21 27.333 21 52c0 32.667 -13 58.334 -39 77.001s-60.333 28 -103 28s-77.167 -9.5 -103.5 -28.5s-42.166 -44.833 -47.499 -77.5h-57c8.66699 50 31.667 88.333 69 115s85.666 40 144.999 40zM338.999 731.999
c0 16 -5.5 29.668 -16.5 41.001s-24.167 17 -39.5 17s-28.333 -5.66699 -39 -17s-16 -25 -16 -41c0 -16.667 5.33301 -30.834 16 -42.501s23.667 -17.5 39 -17.5s28.5 5.83301 39.5 17.5c11 11.6719 16.5 25.8389 16.5 42.5zM186.999 732c0 28 9.33203 51 27.999 69
s41.334 27 68.001 27c27.333 0 50.333 -9 69 -27s28 -41 28 -69s-9.33301 -51.167 -28 -69.5s-41.667 -27.5 -69 -27.5c-27.334 0 -50.167 9.16699 -68.5 27.5s-27.5 41.5 -27.5 69.5z" />
    <glyph glyph-name="ae" unicode="&#xe6;" horiz-adv-x="938" 
d="M414 235v57.001c-16.667 -12 -49.334 -21.333 -98 -28l-86 -11c-84 -10.667 -126 -46 -126 -106c0 -34 11.5 -59.833 34.5 -77.5s51.167 -26.5 84.5 -26.5c49.333 0 93.5 17.167 132.5 51.5s58.5 81.166 58.5 140.499zM476 305.001h354c-0.666992 58.667 -17 104 -49 136
s-72 48 -120 48c-48.667 0 -90.667 -16 -126 -48s-55 -77.333 -59 -136zM888 253.001l-414.001 -0.000976562c0 -68.667 18.333 -121.167 55 -157.5c36.668 -36.333 81.335 -54.5 134 -54.5c38.668 0 74.335 10.167 107 30.5c32.667 20.333 53 50.166 61 89.499h53
c-12 -58 -39.167 -101.333 -81.5 -130c-42.334 -28.667 -90.167 -43 -143.5 -43c-48.667 0 -92.667 12.333 -132 37s-68.333 61 -87 109c-18.667 -48.667 -49.334 -85.167 -92 -109.5c-42.667 -24.333 -87 -36.5 -133 -36.5c-48 0 -88.333 13.833 -121 41.5
s-49 65.834 -49 114.501c0 44.667 14.333 79.667 43 105s67.334 41.333 116.001 48l134 19c24.667 3.33301 44 10 58 20s21 27.333 21 52c0 32.667 -13 58.334 -39 77.001s-60.333 28 -103 28s-77.167 -9.5 -103.5 -28.5s-42.166 -44.833 -47.499 -77.5h-57
c8.66699 50 31.667 88.333 69 115s85.666 40 144.999 40c98 0 158.667 -34.333 182 -103c46 68.667 113 103 201 103c66 0 119.833 -21.833 161.5 -65.5s62.5 -107.834 62.5 -192.5v-31z" />
    <glyph glyph-name="ccedilla" unicode="&#xe7;" horiz-adv-x="568" 
d="M462 182l55.9971 -0.00390625c-4.66699 -59.333 -27 -106.166 -67 -140.499s-90 -52.166 -150 -53.499v-51h5c28.667 0 51.334 -7 68.001 -21s25 -31.667 25 -53s-8.33301 -40.166 -25 -56.499s-40.667 -24.5 -72 -24.5c-38 0 -72.333 13.333 -103 40l23 34
c26.667 -24.667 53.667 -37 81 -37c36.667 0 55 14 55 42c0 35.333 -34.333 53 -103 53l12 75c-69.333 6.66699 -122.833 36.167 -160.5 88.5s-56.5 115.5 -56.5 189.5c0 78 22 143.333 66 196s105.667 79 185 79c58.667 0 107.834 -15.5 147.501 -46.5
s62.5 -75.167 68.5 -132.5h-56c-5.33301 40 -22.5 71 -51.5 93s-64.833 33 -107.5 33c-62 0 -109.833 -20.667 -143.5 -62s-50.5 -93.666 -50.5 -156.999c0 -65.333 16.333 -119.5 49 -162.5s79.667 -64.5 141 -64.5c45.333 0 82.833 12 112.5 36s46.834 58.333 51.501 103z
" />
    <glyph glyph-name="egrave" unicode="&#xe8;" horiz-adv-x="571" 
d="M294 489c-48.667 0 -90.667 -16 -126 -48s-55 -77.333 -59 -136h354c-0.666992 58.667 -17 104 -49 136s-72 48 -120 48zM521 253l-414.003 0.000976562c0 -68.667 18.333 -121.167 55 -157.5s81.334 -54.5 134.001 -54.5c38.667 0 74.334 10.167 107.001 30.5
s53 50.166 61 89.499h53c-12 -58 -39.167 -101.333 -81.5 -130s-90.166 -43 -143.499 -43c-68 0 -125.333 23.5 -172 70.5s-70 115.5 -70 205.5s23.833 158.833 71.5 206.5s106.167 71.5 175.5 71.5c66 0 119.833 -21.833 161.5 -65.5s62.5 -107.834 62.5 -192.5v-31z
M205.997 820.001l117 -180h-48l-122 141z" />
    <glyph glyph-name="eacute" unicode="&#xe9;" horiz-adv-x="571" 
d="M294 489c-48.667 0 -90.667 -16 -126 -48s-55 -77.333 -59 -136h354c-0.666992 58.667 -17 104 -49 136s-72 48 -120 48zM521 253l-414.003 0.000976562c0 -68.667 18.333 -121.167 55 -157.5s81.334 -54.5 134.001 -54.5c38.667 0 74.334 10.167 107.001 30.5
s53 50.166 61 89.499h53c-12 -58 -39.167 -101.333 -81.5 -130s-90.166 -43 -143.499 -43c-68 0 -125.333 23.5 -172 70.5s-70 115.5 -70 205.5s23.833 158.833 71.5 206.5s106.167 71.5 175.5 71.5c66 0 119.833 -21.833 161.5 -65.5s62.5 -107.834 62.5 -192.5v-31z
M329.997 640.001h-48l117 180l53 -39z" />
    <glyph glyph-name="ecircumflex" unicode="&#xea;" horiz-adv-x="571" 
d="M294 489c-48.667 0 -90.667 -16 -126 -48s-55 -77.333 -59 -136h354c-0.666992 58.667 -17 104 -49 136s-72 48 -120 48zM521 253l-414.003 0.000976562c0 -68.667 18.333 -121.167 55 -157.5s81.334 -54.5 134.001 -54.5c38.667 0 74.334 10.167 107.001 30.5
s53 50.166 61 89.499h53c-12 -58 -39.167 -101.333 -81.5 -130s-90.166 -43 -143.499 -43c-68 0 -125.333 23.5 -172 70.5s-70 115.5 -70 205.5s23.833 158.833 71.5 206.5s106.167 71.5 175.5 71.5c66 0 119.833 -21.833 161.5 -65.5s62.5 -107.834 62.5 -192.5v-31z
M292.997 746.001l-84 -106h-64l129 163h39l129 -163h-64z" />
    <glyph glyph-name="edieresis" unicode="&#xeb;" horiz-adv-x="571" 
d="M294 489c-48.667 0 -90.667 -16 -126 -48s-55 -77.333 -59 -136h354c-0.666992 58.667 -17 104 -49 136s-72 48 -120 48zM521 253l-414.003 0.000976562c0 -68.667 18.333 -121.167 55 -157.5s81.334 -54.5 134.001 -54.5c38.667 0 74.334 10.167 107.001 30.5
s53 50.166 61 89.499h53c-12 -58 -39.167 -101.333 -81.5 -130s-90.166 -43 -143.499 -43c-68 0 -125.333 23.5 -172 70.5s-70 115.5 -70 205.5s23.833 158.833 71.5 206.5s106.167 71.5 175.5 71.5c66 0 119.833 -21.833 161.5 -65.5s62.5 -107.834 62.5 -192.5v-31z
M436.997 721.001v-81h-79v81h79zM249.997 721.001v-81h-79v81h79z" />
    <glyph glyph-name="igrave" unicode="&#xec;" horiz-adv-x="217" 
d="M137 0h-57v532h57v-532zM11 820l117 -180h-48l-122 141z" />
    <glyph glyph-name="iacute" unicode="&#xed;" horiz-adv-x="217" 
d="M137 0h-57v532h57v-532zM139 640h-48l117 180l53 -39z" />
    <glyph glyph-name="icircumflex" unicode="&#xee;" horiz-adv-x="217" 
d="M137 0h-57v532h57v-532zM108 746l-84 -106h-64l129 163h39l129 -163h-64z" />
    <glyph glyph-name="idieresis" unicode="&#xef;" horiz-adv-x="217" 
d="M137 0h-57v532h57v-532zM244 721v-81h-79v81h79zM57 721v-81h-79v81h79z" />
    <glyph glyph-name="eth" unicode="&#xf0;" horiz-adv-x="597" 
d="M281 41c51.333 0 96.332 16.499 134.999 49.499s58 79.167 58 138.5c0 57.334 -18.5 102.667 -55.5 136s-81.5 50 -133.5 50c-50 0 -93.167 -15.667 -129.5 -47s-54.5 -77.333 -54.5 -138c0 -59.333 17.333 -105.666 52 -138.999s77.334 -50 128.001 -50z
M498.999 696.999l-30.9971 -26.001c60.667 -66.667 91 -167.667 91 -303c0 -69.333 -7.83301 -129.5 -23.5 -180.5s-36.834 -90.5 -63.501 -118.5s-55.5 -48.5 -86.5 -61.5s-64.167 -19.5 -99.5 -19.5c-70 0 -128.167 22.5 -174.5 67.5s-69.5 105.167 -69.5 180.5
c0 74 22.5 131.833 67.5 173.5s100.5 62.5 166.5 62.5c47.333 0 92.5 -11.167 135.5 -33.5s74.167 -57.166 93.5 -104.499v25c-0.666992 126.667 -27.334 218.667 -80 276l-109 -91l-39 46l100 83c-28.667 15.333 -60.334 23 -95 23c-43.333 0 -80 -11.5 -110 -34.5
s-46.667 -54.167 -50 -93.5h-60c5.33301 59.333 28.166 104.5 68.499 135.5s89.166 46.5 146.499 46.5c54.667 0 102.667 -13.333 144 -40l78 64v-77z" />
    <glyph glyph-name="ntilde" unicode="&#xf1;" horiz-adv-x="585" 
d="M331 542c53.334 0 95.667 -14.6689 127 -44.002s47 -72.666 47 -129.999v-368h-57v359c0 42.667 -11.5 75.167 -34.5 97.5s-52.833 33.5 -89.5 33.5c-48.667 0 -91.167 -18.167 -127.5 -54.5s-54.5 -86.166 -54.5 -149.499v-286h-57v532h57v-100
c37.333 73.333 100.333 110 189 110zM419 765.998l38.001 0.000976562c0 -40 -8.5 -71.667 -25.5 -95s-37.833 -35 -62.5 -35c-18.667 0 -42.667 11.833 -72 35.5s-49 35.5 -59 35.5c-26 0 -43.333 -22.333 -52 -67h-44c4 39.333 14.5 70.166 31.5 92.499
s37.5 33.5 61.5 33.5c19.333 0 43.666 -12.167 72.999 -36.5c29.334 -24.333 49.667 -36.5 61 -36.5c27.333 0 44 24.333 50 73z" />
    <glyph glyph-name="ograve" unicode="&#xf2;" horiz-adv-x="603" 
d="M304 43c55.333 0 100.835 20.165 136.502 60.498s53.5 94.5 53.5 162.5v5c-1.33301 67.334 -20.333 120.167 -57 158.5s-82.334 57.5 -137.001 57.5c-56 0 -101.833 -19.667 -137.5 -59s-53.5 -92.666 -53.5 -159.999c0 -69.333 18.667 -124.166 56 -164.499
s83.666 -60.5 138.999 -60.5zM300.002 541.998c74.667 0 135.501 -25 182.501 -75s70.5 -117.333 70.5 -202c0 -85.333 -23.167 -152.833 -69.5 -202.5s-106.833 -74.5 -181.5 -74.5s-135.334 24.833 -182.001 74.5s-70 117.167 -70 202.5c0 84.667 23.167 152 69.5 202
s106.5 75 180.5 75zM214.003 819.998l117 -180h-48l-122 141z" />
    <glyph glyph-name="oacute" unicode="&#xf3;" horiz-adv-x="603" 
d="M304 43c55.333 0 100.835 20.165 136.502 60.498s53.5 94.5 53.5 162.5v5c-1.33301 67.334 -20.333 120.167 -57 158.5s-82.334 57.5 -137.001 57.5c-56 0 -101.833 -19.667 -137.5 -59s-53.5 -92.666 -53.5 -159.999c0 -69.333 18.667 -124.166 56 -164.499
s83.666 -60.5 138.999 -60.5zM300.002 541.998c74.667 0 135.501 -25 182.501 -75s70.5 -117.333 70.5 -202c0 -85.333 -23.167 -152.833 -69.5 -202.5s-106.833 -74.5 -181.5 -74.5s-135.334 24.833 -182.001 74.5s-70 117.167 -70 202.5c0 84.667 23.167 152 69.5 202
s106.5 75 180.5 75zM334.003 639.998h-48l117 180l53 -39z" />
    <glyph glyph-name="ocircumflex" unicode="&#xf4;" horiz-adv-x="603" 
d="M304 43c55.333 0 100.835 20.165 136.502 60.498s53.5 94.5 53.5 162.5v5c-1.33301 67.334 -20.333 120.167 -57 158.5s-82.334 57.5 -137.001 57.5c-56 0 -101.833 -19.667 -137.5 -59s-53.5 -92.666 -53.5 -159.999c0 -69.333 18.667 -124.166 56 -164.499
s83.666 -60.5 138.999 -60.5zM300.002 541.998c74.667 0 135.501 -25 182.501 -75s70.5 -117.333 70.5 -202c0 -85.333 -23.167 -152.833 -69.5 -202.5s-106.833 -74.5 -181.5 -74.5s-135.334 24.833 -182.001 74.5s-70 117.167 -70 202.5c0 84.667 23.167 152 69.5 202
s106.5 75 180.5 75zM296.003 745.998l-84 -106h-64l129 163h39l129 -163h-64z" />
    <glyph glyph-name="otilde" unicode="&#xf5;" horiz-adv-x="603" 
d="M304 43c55.333 0 100.835 20.165 136.502 60.498s53.5 94.5 53.5 162.5v5c-1.33301 67.334 -20.333 120.167 -57 158.5s-82.334 57.5 -137.001 57.5c-56 0 -101.833 -19.667 -137.5 -59s-53.5 -92.666 -53.5 -159.999c0 -69.333 18.667 -124.166 56 -164.499
s83.666 -60.5 138.999 -60.5zM300.002 541.998c74.667 0 135.501 -25 182.501 -75s70.5 -117.333 70.5 -202c0 -85.333 -23.167 -152.833 -69.5 -202.5s-106.833 -74.5 -181.5 -74.5s-135.334 24.833 -182.001 74.5s-70 117.167 -70 202.5c0 84.667 23.167 152 69.5 202
s106.5 75 180.5 75zM414.003 765.998l38 0.000976562c0 -40 -8.5 -71.667 -25.5 -95s-37.833 -35 -62.5 -35c-18.667 0 -42.667 11.833 -72 35.5s-49 35.5 -59 35.5c-26 0 -43.333 -22.333 -52 -67h-44c4 39.333 14.5 70.166 31.5 92.499s37.5 33.5 61.5 33.5
c18.667 0 43 -12.167 73 -36.5s50.333 -36.5 61 -36.5c27.333 0 44 24.333 50 73z" />
    <glyph glyph-name="odieresis" unicode="&#xf6;" horiz-adv-x="603" 
d="M304 43c55.333 0 100.835 20.165 136.502 60.498s53.5 94.5 53.5 162.5v5c-1.33301 67.334 -20.333 120.167 -57 158.5s-82.334 57.5 -137.001 57.5c-56 0 -101.833 -19.667 -137.5 -59s-53.5 -92.666 -53.5 -159.999c0 -69.333 18.667 -124.166 56 -164.499
s83.666 -60.5 138.999 -60.5zM300.002 541.998c74.667 0 135.501 -25 182.501 -75s70.5 -117.333 70.5 -202c0 -85.333 -23.167 -152.833 -69.5 -202.5s-106.833 -74.5 -181.5 -74.5s-135.334 24.833 -182.001 74.5s-70 117.167 -70 202.5c0 84.667 23.167 152 69.5 202
s106.5 75 180.5 75zM430.003 720.998v-81h-79v81h79zM243.003 720.998v-81h-79v81h79z" />
    <glyph glyph-name="divide" unicode="&#xf7;" horiz-adv-x="500" 
d="M212 171h78v-82h-78v82zM40 268v53h420v-53h-420zM212 503h78v-82h-78v82z" />
    <glyph glyph-name="oslash" unicode="&#xf8;" horiz-adv-x="603" 
d="M304 43c55.333 0 100.833 20.167 136.5 60.5s53.5 94.5 53.5 162.5v5c-2 88.667 -34 152 -96 190l-149 -410c18 -5.33301 36.333 -8 55 -8zM204 71l148 408.999c-14.667 4.66699 -32 7 -52 7c-56 0 -101.833 -19.667 -137.5 -59s-53.5 -92.666 -53.5 -159.999
c0 -91.333 31.667 -157 95 -197zM457 622.999l-39 -108.001c42 -20.667 75 -52.667 99 -96s36 -94.666 36 -153.999c0 -85.333 -23.167 -152.833 -69.5 -202.5s-106.833 -74.5 -181.5 -74.5c-26 0 -50 3 -72 9l-34 -93h-53l40 111c-41.333 20.667 -73.833 52.5 -97.5 95.5
s-35.5 94.5 -35.5 154.5c0 84.667 23.167 152 69.5 202s106.5 75 180.5 75c25.333 0 49 -3 71 -9l33 90h53z" />
    <glyph glyph-name="ugrave" unicode="&#xf9;" horiz-adv-x="587" 
d="M438 0v108.999c-36.667 -76.667 -97.667 -115 -183 -115c-52 0 -94.167 15.333 -126.5 46s-48.5 75.667 -48.5 135v357h57v-354c0 -43.333 11.333 -76.666 34 -99.999s53 -35 91 -35c48.667 0 89.667 18 123 54s50 86.667 50 152v283h57v-532h-54zM206 819.999l117 -180
h-48l-122 141z" />
    <glyph glyph-name="uacute" unicode="&#xfa;" horiz-adv-x="587" 
d="M438 0v108.999c-36.667 -76.667 -97.667 -115 -183 -115c-52 0 -94.167 15.333 -126.5 46s-48.5 75.667 -48.5 135v357h57v-354c0 -43.333 11.333 -76.666 34 -99.999s53 -35 91 -35c48.667 0 89.667 18 123 54s50 86.667 50 152v283h57v-532h-54zM300 639.999h-48
l117 180l53 -39z" />
    <glyph glyph-name="ucircumflex" unicode="&#xfb;" horiz-adv-x="587" 
d="M438 0v108.999c-36.667 -76.667 -97.667 -115 -183 -115c-52 0 -94.167 15.333 -126.5 46s-48.5 75.667 -48.5 135v357h57v-354c0 -43.333 11.333 -76.666 34 -99.999s53 -35 91 -35c48.667 0 89.667 18 123 54s50 86.667 50 152v283h57v-532h-54zM285 745.999l-84 -106
h-64l129 163h39l129 -163h-64z" />
    <glyph glyph-name="udieresis" unicode="&#xfc;" horiz-adv-x="587" 
d="M438 0v108.999c-36.667 -76.667 -97.667 -115 -183 -115c-52 0 -94.167 15.333 -126.5 46s-48.5 75.667 -48.5 135v357h57v-354c0 -43.333 11.333 -76.666 34 -99.999s53 -35 91 -35c48.667 0 89.667 18 123 54s50 86.667 50 152v283h57v-532h-54zM417 720.999v-81h-79
v81h79zM230 720.999v-81h-79v81h79z" />
    <glyph glyph-name="yacute" unicode="&#xfd;" horiz-adv-x="485" 
d="M465 532l-243 -640c-17.333 -45.333 -55 -68 -113 -68h-49v52h50c19.333 0 35 5.5 47 16.5s22 27.5 30 49.5l30 82l-197 508h60l164 -441l165 441h56zM267 640h-48l117 180l53 -39z" />
    <glyph glyph-name="thorn" unicode="&#xfe;" horiz-adv-x="621" 
d="M326 44c51.334 0 95.168 18.5 131.501 55.5s54.5 91.5 54.5 163.5c0 74 -18 129.5 -54 166.5s-79.667 55.5 -131 55.5c-50.667 0 -94.334 -18.5 -131.001 -55.5s-55 -92.5 -55 -166.5c0 -72 18.333 -126.5 55 -163.5s80 -55.5 130 -55.5zM341.001 542
c63.333 0 117.501 -23.167 162.501 -69.5s67.5 -114.833 67.5 -205.5c0 -46 -6.66699 -87 -20 -123s-31.5 -64.5 -54.5 -85.5s-48.333 -36.833 -76 -47.5s-56.834 -16 -87.5 -16c-87.333 0 -151 33 -191 99v-300h-57v968h57v-343c13.333 35.334 38.666 64.667 75.999 88
s78.333 35 123 35z" />
    <glyph glyph-name="ydieresis" unicode="&#xff;" horiz-adv-x="485" 
d="M465 532l-243 -640c-17.333 -45.333 -55 -68 -113 -68h-49v52h50c19.333 0 35 5.5 47 16.5s22 27.5 30 49.5l30 82l-197 508h60l164 -441l165 441h56zM365 721v-81h-79v81h79zM178 721v-81h-79v81h79z" />
    <glyph glyph-name=".null" horiz-adv-x="0" 
 />
    <glyph glyph-name="nonmarkingreturn" horiz-adv-x="333" 
 />
    <glyph glyph-name="currency" unicode="&#xa4;" horiz-adv-x="640" 
d="M166 302c0 -43.333 14.833 -80 44.5 -110s66.167 -45 109.5 -45s79.833 15 109.5 45s44.5 66.667 44.5 110c0 42.667 -15 79 -45 109s-66.333 45 -109 45s-79 -15 -109 -45s-45 -66.333 -45 -109zM527 302c0 -54.667 -17.667 -101.332 -53 -139.999l101 -126l-47 -36
l-100 124c-33.333 -19.333 -69.333 -29 -108 -29s-74.334 10 -107.001 30l-101 -125l-47 36l102 127c-35.333 38.667 -53 85 -53 139c0 55.333 18.667 102.666 56 141.999l-105 130l47 36l104 -129c32.667 18 67.334 27 104.001 27c37.333 0 72 -9 104 -27l104 129l47 -36
l-105 -129c38 -39.333 57 -87 57 -143z" />
    <glyph glyph-name="brokenbar" unicode="&#xa6;" horiz-adv-x="219" 
d="M139 -120h-59v417h59v-417zM139 453h-59v417h59v-417z" />
    <glyph glyph-name="dieresis" unicode="&#xa8;" horiz-adv-x="266" 
d="M266 721v-81h-79v81h79zM79 721v-81h-79v81h79z" />
    <glyph glyph-name="acute" unicode="&#xb4;" horiz-adv-x="170" 
d="M48 640h-48l117 180l53 -39z" />
    <glyph glyph-name="cedilla" unicode="&#xb8;" horiz-adv-x="200" 
d="M102 6l-0.000976562 -69h5c28.667 0 51.334 -7 68.001 -21s25 -31.667 25 -53s-8.33301 -40.166 -25 -56.5c-16.667 -16.333 -40.667 -24.5 -72 -24.5c-38 0 -72.333 13.333 -103 40l23 34c26.667 -24.667 53.667 -37 81 -37c36.667 0 55 14 55 42
c0 35.333 -34.333 53 -103 53l15 92h31z" />
    <glyph glyph-name="onequarter" unicode="&#xbc;" horiz-adv-x="1000" 
d="M795 401l-166 -253h166v253zM914 106h-74v-105h-45v106h-215v44l198 300h62v-303h74v-42zM352 294h-240.001v44h103v349c-26.667 -22.667 -63 -38 -109 -46v44c44.667 8.66699 82.334 28.334 113.001 59h40v-406h93v-44zM331.999 0h-55l478 750h55z" />
    <glyph glyph-name="onehalf" unicode="&#xbd;" horiz-adv-x="1000" 
d="M934 1l-308 -0.000976562v43l113 102c54.668 49.333 88.335 82 101 98c20.667 26 31 52.667 31 80c0 28 -8.83301 49.833 -26.5 65.5s-40.5 23.5 -68.5 23.5c-31.333 0 -57 -9.66699 -77 -29s-30.333 -47.666 -31 -84.999h-46c0 49.333 15.5 87.833 46.5 115.5
s67.833 41.5 110.5 41.5c38.667 0 71.5 -11.5 98.5 -34.5s40.5 -54.5 40.5 -94.5c0 -32.667 -9.66699 -62 -29 -88s-53 -60.667 -101 -104l-100 -90h246v-44zM333 293.999h-240.001v44h103v349c-26.667 -22.667 -63 -38 -109 -46v44
c44.667 8.66699 82.334 28.334 113.001 59h40v-406h93v-44zM312.999 -0.000976562h-55l478 750h55z" />
    <glyph glyph-name="threequarters" unicode="&#xbe;" horiz-adv-x="1000" 
d="M812 401l-166 -253h166v253zM931 106h-74v-105h-45v106h-215v44l198 300h62v-303h74v-42zM318 0h-55l478 750h55zM284 527c28.667 -8 50.998 -22 66.998 -42s24 -43.333 24 -70c0 -34.667 -13.667 -64.334 -41 -89c-27.333 -24.667 -64.666 -37 -111.999 -37
c-46.667 0 -84.667 12.333 -114 37s-44.333 59 -45 103h47c0 -32 10.333 -56.5 31 -73.5s48 -25.5 82 -25.5c32.667 0 58 7.66699 76 23s27 35 27 59c0 26 -10.5 47.5 -31.5 64.5s-51.167 25.5 -90.5 25.5h-15v43h13c36 0 64 8.5 84 25.5s30 37.833 30 62.5
c0 24.6689 -9.5 43.3359 -28.5 56c-19 12.667 -42.5 19 -70.5 19c-30.667 0 -55.5 -9.83301 -74.5 -29.5s-28.5 -48.167 -28.5 -85.5h-46c0 50 14.333 88.667 43 116s65.334 41 110.001 41c41.333 0 75.5 -10.333 102.5 -31s40.5 -48.667 40.5 -84
c0 -26 -7.33301 -48.5 -22 -67.5s-34 -32.5 -58 -40.5z" />
    <glyph glyph-name="Amacron" unicode="&#x100;" horiz-adv-x="763" 
d="M377 687l-163 -414h331zM194 220l-88 -220h-66l302 750h69l312 -750h-68l-89 220h-372zM222 833v47h319v-47h-319z" />
    <glyph glyph-name="amacron" unicode="&#x101;" horiz-adv-x="549" 
d="M414 235v57.001c-16.667 -12 -49.334 -21.333 -98 -28l-86 -11c-84 -10.667 -126 -46 -126 -106c0 -34 11.5 -59.833 34.5 -77.5s51.167 -26.5 84.5 -26.5c49.333 0 93.5 17.167 132.5 51.5s58.5 81.166 58.5 140.499zM281 542.001
c61.333 0 108.832 -14.335 142.499 -43.002s50.5 -71.667 50.5 -129v-370h-57v104c-19.333 -35.333 -47.5 -63.5 -84.5 -84.5s-76.167 -31.5 -117.5 -31.5c-48 0 -88.333 13.833 -121 41.5s-49 65.834 -49 114.501c0 44.667 14.333 79.667 43 105s67.334 41.333 116.001 48
l134 19c24.667 3.33301 44 10 58 20s21 27.333 21 52c0 32.667 -13 58.334 -39 77.001s-60.333 28 -103 28s-77.167 -9.5 -103.5 -28.5s-42.166 -44.833 -47.499 -77.5h-57c8.66699 50 31.667 88.333 69 115s85.666 40 144.999 40zM115.999 639.999v47h319v-47h-319z" />
    <glyph glyph-name="Abreve" unicode="&#x102;" horiz-adv-x="763" 
d="M377 687l-163 -414h331zM194 220l-88 -220h-66l302 750h69l312 -750h-68l-89 220h-372zM442 970h49c4 -12 6 -25.333 6 -40c0 -29.333 -9.33301 -53.833 -28 -73.5s-47.667 -29.5 -87 -29.5s-68.333 9.83301 -87 29.5s-28 44.167 -28 73.5c0 14.667 2 28 6 40h49
c-3.33301 -10 -5 -20.333 -5 -31c0 -47.333 21.667 -71 65 -71s65 23.667 65 71c0 10.667 -1.66699 21 -5 31z" />
    <glyph glyph-name="abreve" unicode="&#x103;" horiz-adv-x="549" 
d="M414 235v57.001c-16.667 -12 -49.334 -21.333 -98 -28l-86 -11c-84 -10.667 -126 -46 -126 -106c0 -34 11.5 -59.833 34.5 -77.5s51.167 -26.5 84.5 -26.5c49.333 0 93.5 17.167 132.5 51.5s58.5 81.166 58.5 140.499zM281 542.001
c61.333 0 108.832 -14.335 142.499 -43.002s50.5 -71.667 50.5 -129v-370h-57v104c-19.333 -35.333 -47.5 -63.5 -84.5 -84.5s-76.167 -31.5 -117.5 -31.5c-48 0 -88.333 13.833 -121 41.5s-49 65.834 -49 114.501c0 44.667 14.333 79.667 43 105s67.334 41.333 116.001 48
l134 19c24.667 3.33301 44 10 58 20s21 27.333 21 52c0 32.667 -13 58.334 -39 77.001s-60.333 28 -103 28s-77.167 -9.5 -103.5 -28.5s-42.166 -44.833 -47.499 -77.5h-57c8.66699 50 31.667 88.333 69 115s85.666 40 144.999 40zM350.999 777.999h49
c4 -12 6 -25.333 6 -40c0 -29.333 -9.33301 -53.833 -28 -73.5s-47.667 -29.5 -87 -29.5s-68.333 9.83301 -87 29.5s-28 44.167 -28 73.5c0 14.667 2 28 6 40h49c-3.33301 -10 -5 -20.333 -5 -31c0 -47.333 21.667 -71 65 -71s65 23.667 65 71c0 10.667 -1.66699 21 -5 31z
" />
    <glyph glyph-name="Aogonek" unicode="&#x104;" horiz-adv-x="763" 
d="M545 273l-168 414l-163 -414h331zM675 -50c0 -21.333 9.50098 -38.832 28.501 -52.499s39.833 -20.834 62.5 -21.501v-52c-38.667 3.33301 -71.834 15.833 -99.501 37.5s-41.5 47.5 -41.5 77.5c0 26 10 46.667 30 62l-89 219h-372l-88 -220h-66l302 750h69l312 -750h-24
c-16 -14 -24 -30.667 -24 -50z" />
    <glyph glyph-name="aogonek" unicode="&#x105;" horiz-adv-x="549" 
d="M414 235v57.001c-16.667 -12 -49.334 -21.333 -98 -28l-86 -11c-84 -10.667 -126 -46 -126 -106c0 -34 11.5 -59.833 34.5 -77.5s51.167 -26.5 84.5 -26.5c49.333 0 93.5 17.167 132.5 51.5s58.5 81.166 58.5 140.499zM443 -49.999
c0 -21.333 9.49902 -38.833 28.499 -52.5s39.833 -20.834 62.5 -21.501v-52c-38.667 3.33301 -71.834 15.833 -99.5 37.5c-27.667 21.667 -41.5 47.5 -41.5 77.5c0 25.333 9.33301 45.666 28 60.999h-4v104c-19.333 -35.333 -47.5 -63.5 -84.5 -84.5
s-76.167 -31.5 -117.5 -31.5c-48 0 -88.333 13.833 -121 41.5s-49 65.834 -49 114.501c0 44.667 14.333 79.667 43 105s67.334 41.333 116.001 48l134 19c24.667 3.33301 44 10 58 20s21 27.333 21 52c0 32.667 -13 58.334 -39 77.001s-60.333 28 -103 28
s-77.167 -9.5 -103.5 -28.5s-42.166 -44.833 -47.499 -77.5h-57c8.66699 50 31.667 88.333 69 115s85.666 40 144.999 40c61.333 0 108.833 -14.333 142.5 -43s50.5 -71.667 50.5 -129v-363h2l-2 -1v-6h-7c-16 -14 -24 -30.667 -24 -50z" />
    <glyph glyph-name="Cacute" unicode="&#x106;" horiz-adv-x="779" 
d="M415 38c67.334 0 123.835 17.8311 169.501 53.498c45.667 35.667 71.167 85.834 76.5 150.501h63c-6 -81.333 -38.333 -145.166 -97 -191.499s-130.667 -69.5 -216 -69.5c-75.333 0 -140 18.667 -194 56s-93.667 85.833 -119 145.5s-38 126.167 -38 199.5
c0 63.334 10 120.167 30 170.5s46.667 90.833 80 121.5s70.5 54 111.5 70s84.167 24 129.5 24c77.333 0 145.833 -21 205.5 -63s93.167 -98.333 100.5 -169h-63c-7.33301 52.667 -34.833 95 -82.5 127s-101.834 48 -162.501 48c-78 0 -145.333 -28 -202 -84
s-85 -137 -85 -243c0 -98.667 25.5 -181 76.5 -247s123.167 -99 216.5 -99zM441.001 831.998h-48l117 180l53 -39z" />
    <glyph glyph-name="cacute" unicode="&#x107;" horiz-adv-x="568" 
d="M298 43c45.333 0 82.8311 12 112.498 36s46.834 58.333 51.501 103h56c-4.66699 -60 -27.5 -107.333 -68.5 -142s-92.5 -52 -154.5 -52c-78 0 -138.333 26.667 -181 80s-64 119.666 -64 198.999c0 78 22 143.333 66 196s105.667 79 185 79
c58.667 0 107.834 -15.5 147.501 -46.5s62.5 -75.167 68.5 -132.5h-56c-5.33301 40 -22.5 71 -51.5 93s-64.833 33 -107.5 33c-62 0 -109.833 -20.667 -143.5 -62s-50.5 -93.666 -50.5 -156.999c0 -65.333 16.333 -119.5 49 -162.5s79.667 -64.5 141 -64.5zM318.998 640h-48
l117 180l53 -39z" />
    <glyph glyph-name="Ccircumflex" unicode="&#x108;" horiz-adv-x="779" 
d="M415 38c67.334 0 123.835 17.8311 169.501 53.498c45.667 35.667 71.167 85.834 76.5 150.501h63c-6 -81.333 -38.333 -145.166 -97 -191.499s-130.667 -69.5 -216 -69.5c-75.333 0 -140 18.667 -194 56s-93.667 85.833 -119 145.5s-38 126.167 -38 199.5
c0 63.334 10 120.167 30 170.5s46.667 90.833 80 121.5s70.5 54 111.5 70s84.167 24 129.5 24c77.333 0 145.833 -21 205.5 -63s93.167 -98.333 100.5 -169h-63c-7.33301 52.667 -34.833 95 -82.5 127s-101.834 48 -162.501 48c-78 0 -145.333 -28 -202 -84
s-85 -137 -85 -243c0 -98.667 25.5 -181 76.5 -247s123.167 -99 216.5 -99zM424.001 937.998l-84 -106h-64l129 163h39l129 -163h-64z" />
    <glyph glyph-name="ccircumflex" unicode="&#x109;" horiz-adv-x="568" 
d="M298 43c45.333 0 82.8311 12 112.498 36s46.834 58.333 51.501 103h56c-4.66699 -60 -27.5 -107.333 -68.5 -142s-92.5 -52 -154.5 -52c-78 0 -138.333 26.667 -181 80s-64 119.666 -64 198.999c0 78 22 143.333 66 196s105.667 79 185 79
c58.667 0 107.834 -15.5 147.501 -46.5s62.5 -75.167 68.5 -132.5h-56c-5.33301 40 -22.5 71 -51.5 93s-64.833 33 -107.5 33c-62 0 -109.833 -20.667 -143.5 -62s-50.5 -93.666 -50.5 -156.999c0 -65.333 16.333 -119.5 49 -162.5s79.667 -64.5 141 -64.5zM299.998 746
l-84 -106h-64l129 163h39l129 -163h-64z" />
    <glyph glyph-name="Cdotaccent" unicode="&#x10a;" horiz-adv-x="779" 
d="M415 38c67.334 0 123.835 17.8311 169.501 53.498c45.667 35.667 71.167 85.834 76.5 150.501h63c-6 -81.333 -38.333 -145.166 -97 -191.499s-130.667 -69.5 -216 -69.5c-75.333 0 -140 18.667 -194 56s-93.667 85.833 -119 145.5s-38 126.167 -38 199.5
c0 63.334 10 120.167 30 170.5s46.667 90.833 80 121.5s70.5 54 111.5 70s84.167 24 129.5 24c77.333 0 145.833 -21 205.5 -63s93.167 -98.333 100.5 -169h-63c-7.33301 52.667 -34.833 95 -82.5 127s-101.834 48 -162.501 48c-78 0 -145.333 -28 -202 -84
s-85 -137 -85 -243c0 -98.667 25.5 -181 76.5 -247s123.167 -99 216.5 -99zM376.001 922.998h87v-91h-87v91z" />
    <glyph glyph-name="cdotaccent" unicode="&#x10b;" horiz-adv-x="568" 
d="M298 43c45.333 0 82.8311 12 112.498 36s46.834 58.333 51.501 103h56c-4.66699 -60 -27.5 -107.333 -68.5 -142s-92.5 -52 -154.5 -52c-78 0 -138.333 26.667 -181 80s-64 119.666 -64 198.999c0 78 22 143.333 66 196s105.667 79 185 79
c58.667 0 107.834 -15.5 147.501 -46.5s62.5 -75.167 68.5 -132.5h-56c-5.33301 40 -22.5 71 -51.5 93s-64.833 33 -107.5 33c-62 0 -109.833 -20.667 -143.5 -62s-50.5 -93.666 -50.5 -156.999c0 -65.333 16.333 -119.5 49 -162.5s79.667 -64.5 141 -64.5zM241.998 731h87
v-91h-87v91z" />
    <glyph glyph-name="Ccaron" unicode="&#x10c;" horiz-adv-x="779" 
d="M415 38c67.334 0 123.835 17.8311 169.501 53.498c45.667 35.667 71.167 85.834 76.5 150.501h63c-6 -81.333 -38.333 -145.166 -97 -191.499s-130.667 -69.5 -216 -69.5c-75.333 0 -140 18.667 -194 56s-93.667 85.833 -119 145.5s-38 126.167 -38 199.5
c0 63.334 10 120.167 30 170.5s46.667 90.833 80 121.5s70.5 54 111.5 70s84.167 24 129.5 24c77.333 0 145.833 -21 205.5 -63s93.167 -98.333 100.5 -169h-63c-7.33301 52.667 -34.833 95 -82.5 127s-101.834 48 -162.501 48c-78 0 -145.333 -28 -202 -84
s-85 -137 -85 -243c0 -98.667 25.5 -181 76.5 -247s123.167 -99 216.5 -99zM567.001 994.998l-129 -163h-39l-129 163h64l84 -106l85 106h64z" />
    <glyph glyph-name="ccaron" unicode="&#x10d;" horiz-adv-x="568" 
d="M298 43c45.333 0 82.8311 12 112.498 36s46.834 58.333 51.501 103h56c-4.66699 -60 -27.5 -107.333 -68.5 -142s-92.5 -52 -154.5 -52c-78 0 -138.333 26.667 -181 80s-64 119.666 -64 198.999c0 78 22 143.333 66 196s105.667 79 185 79
c58.667 0 107.834 -15.5 147.501 -46.5s62.5 -75.167 68.5 -132.5h-56c-5.33301 40 -22.5 71 -51.5 93s-64.833 33 -107.5 33c-62 0 -109.833 -20.667 -143.5 -62s-50.5 -93.666 -50.5 -156.999c0 -65.333 16.333 -119.5 49 -162.5s79.667 -64.5 141 -64.5zM295.998 697
l84 106h64l-129 -163h-39l-129 163h64z" />
    <glyph glyph-name="Dcaron" unicode="&#x10e;" horiz-adv-x="736" 
d="M155 54l146.999 -0.000976562c50 0 95.333 9.5 136 28.5s73.334 44.333 98.001 76s43.667 66.834 57 105.501s20 79 20 121c0 86 -26.333 159.5 -79 220.5s-126.667 91.5 -222 91.5h-157v-643zM94.999 749.999l224 -0.000976562c57.334 0 109.167 -10 155.5 -30
s83.833 -47 112.5 -81s50.667 -72.333 66 -115s23 -87.667 23 -135c0 -48.667 -8 -95.667 -24 -141s-39 -86.666 -69 -123.999s-69.5 -67.333 -118.5 -90s-104.167 -34 -165.5 -34h-204v750zM445.999 994.998l-129 -163h-39l-129 163h64l84 -106l85 106h64z" />
    <glyph glyph-name="dcaron" unicode="&#x10f;" horiz-adv-x="788" 
d="M296 41c50.667 0 94.166 18.999 130.499 56.999s54.5 94.333 54.5 169s-18.333 130.334 -55 167.001s-80.334 55 -131 55c-51.333 0 -95.166 -18.5 -131.499 -55.5s-54.5 -92.5 -54.5 -166.5s18.333 -130.167 55 -168.5s80.667 -57.5 132 -57.5zM747.999 761.999v-96
c0 -93.333 -44 -146.333 -132 -159l-11 38c38.667 9.33301 64 24.5 76 45.5s18 50.167 18 87.5h-43v84h92zM536.999 -0.000976562h-54.001v101c-14.667 -30.667 -39.667 -57.167 -75 -79.5s-75.666 -33.5 -120.999 -33.5c-64.667 0 -120.334 23.833 -167.001 71.5
s-70 117.167 -70 208.5c0 90.667 23.333 159 70 205s102.334 69 167.001 69c43.333 0 82.5 -10 117.5 -30s60.167 -44.667 75.5 -74v324h57v-762z" />
    <glyph glyph-name="Dcroat" unicode="&#x110;" horiz-adv-x="736" 
d="M155 54l146.999 -0.000976562c50 0 95.333 9.5 136 28.5s73.334 44.333 98.001 76s43.667 66.834 57 105.501s20 79 20 121c0 86 -26.333 159.5 -79 220.5s-126.667 91.5 -222 91.5h-157v-287h214v-57h-214v-299zM94.999 749.999l224 -0.000976562
c57.334 0 109.167 -10 155.5 -30s83.833 -47 112.5 -81s50.667 -72.333 66 -115s23 -87.667 23 -135c0 -48.667 -8 -95.667 -24 -141s-39 -86.666 -69 -123.999s-69.5 -67.333 -118.5 -90s-104.167 -34 -165.5 -34h-204v353h-105v57h105v340z" />
    <glyph glyph-name="dcroat" unicode="&#x111;" horiz-adv-x="643" 
d="M296 41c50.667 0 94.166 18.999 130.499 56.999s54.5 94.333 54.5 169s-18.333 130.334 -55 167.001s-80.334 55 -131 55c-51.333 0 -95.166 -18.5 -131.499 -55.5s-54.5 -92.5 -54.5 -166.5s18.333 -130.167 55 -168.5s80.667 -57.5 132 -57.5zM612.999 623.999h-76.001
v-624h-54v101c-14.667 -30.667 -39.667 -57.167 -75 -79.5s-75.666 -33.5 -120.999 -33.5c-64.667 0 -120.334 23.833 -167.001 71.5s-70 117.167 -70 208.5c0 90.667 23.333 159 70 205s102.334 69 167.001 69c43.333 0 82.5 -10 117.5 -30s60.167 -44.667 75.5 -74v186
h-146v53h146v85h57v-85h76v-53z" />
    <glyph glyph-name="Emacron" unicode="&#x112;" horiz-adv-x="623" 
d="M95 0v750h458v-53h-398v-291h370v-54h-370v-298h418v-54h-478zM165 833v47h319v-47h-319z" />
    <glyph glyph-name="emacron" unicode="&#x113;" horiz-adv-x="571" 
d="M294 489c-48.667 0 -90.667 -16 -126 -48s-55 -77.333 -59 -136h354c-0.666992 58.667 -17 104 -49 136s-72 48 -120 48zM521 253l-414.003 0.000976562c0 -68.667 18.333 -121.167 55 -157.5s81.334 -54.5 134.001 -54.5c38.667 0 74.334 10.167 107.001 30.5
s53 50.166 61 89.499h53c-12 -58 -39.167 -101.333 -81.5 -130s-90.166 -43 -143.499 -43c-68 0 -125.333 23.5 -172 70.5s-70 115.5 -70 205.5s23.833 158.833 71.5 206.5s106.167 71.5 175.5 71.5c66 0 119.833 -21.833 161.5 -65.5s62.5 -107.834 62.5 -192.5v-31z
M131.997 640.001v47h319v-47h-319z" />
    <glyph glyph-name="Ebreve" unicode="&#x114;" horiz-adv-x="623" 
d="M95 0v750h458v-53h-398v-291h370v-54h-370v-298h418v-54h-478zM394 970h49c4 -12 6 -25.333 6 -40c0 -29.333 -9.33301 -53.833 -28 -73.5s-47.667 -29.5 -87 -29.5s-68.333 9.83301 -87 29.5s-28 44.167 -28 73.5c0 14.667 2 28 6 40h49c-3.33301 -10 -5 -20.333 -5 -31
c0 -47.333 21.667 -71 65 -71s65 23.667 65 71c0 10.667 -1.66699 21 -5 31z" />
    <glyph glyph-name="ebreve" unicode="&#x115;" horiz-adv-x="571" 
d="M294 489c-48.667 0 -90.667 -16 -126 -48s-55 -77.333 -59 -136h354c-0.666992 58.667 -17 104 -49 136s-72 48 -120 48zM521 253l-414.003 0.000976562c0 -68.667 18.333 -121.167 55 -157.5s81.334 -54.5 134.001 -54.5c38.667 0 74.334 10.167 107.001 30.5
s53 50.166 61 89.499h53c-12 -58 -39.167 -101.333 -81.5 -130s-90.166 -43 -143.499 -43c-68 0 -125.333 23.5 -172 70.5s-70 115.5 -70 205.5s23.833 158.833 71.5 206.5s106.167 71.5 175.5 71.5c66 0 119.833 -21.833 161.5 -65.5s62.5 -107.834 62.5 -192.5v-31z
M355.997 778.001h49c4 -12 6 -25.333 6 -40c0 -29.333 -9.33301 -53.833 -28 -73.5s-47.667 -29.5 -87 -29.5s-68.333 9.83301 -87 29.5s-28 44.167 -28 73.5c0 14.667 2 28 6 40h49c-3.33301 -10 -5 -20.333 -5 -31c0 -47.333 21.667 -71 65 -71s65 23.667 65 71
c0 10.667 -1.66699 21 -5 31z" />
    <glyph glyph-name="Edotaccent" unicode="&#x116;" horiz-adv-x="623" 
d="M95 0v750h458v-53h-398v-291h370v-54h-370v-298h418v-54h-478zM275 923h87v-91h-87v91z" />
    <glyph glyph-name="edotaccent" unicode="&#x117;" horiz-adv-x="571" 
d="M294 489c-48.667 0 -90.667 -16 -126 -48s-55 -77.333 -59 -136h354c-0.666992 58.667 -17 104 -49 136s-72 48 -120 48zM521 253l-414.003 0.000976562c0 -68.667 18.333 -121.167 55 -157.5s81.334 -54.5 134.001 -54.5c38.667 0 74.334 10.167 107.001 30.5
s53 50.166 61 89.499h53c-12 -58 -39.167 -101.333 -81.5 -130s-90.166 -43 -143.499 -43c-68 0 -125.333 23.5 -172 70.5s-70 115.5 -70 205.5s23.833 158.833 71.5 206.5s106.167 71.5 175.5 71.5c66 0 119.833 -21.833 161.5 -65.5s62.5 -107.834 62.5 -192.5v-31z
M250.997 731.001h87v-91h-87v91z" />
    <glyph glyph-name="Eogonek" unicode="&#x118;" horiz-adv-x="623" 
d="M530 -50c0 -21.333 9.50098 -38.8311 28.501 -52.498s39.833 -20.834 62.5 -21.501v-52c-38.667 3.33301 -71.834 15.833 -99.501 37.5s-41.5 47.5 -41.5 77.5c0 25.333 9.33301 45.666 28 60.999h-413v750h458v-53h-398v-291h370v-54h-370v-298h418v-54h-19
c-16 -14 -24 -30.667 -24 -50z" />
    <glyph glyph-name="eogonek" unicode="&#x119;" horiz-adv-x="571" 
d="M109 305h354c-0.666992 58.667 -17 104 -49 136s-72 48 -120 48c-48.667 0 -90.667 -16 -126 -48s-55 -77.333 -59 -136zM521 253l-414.002 0.00292969c0 -68.667 18.333 -121.167 55 -157.5s81.334 -54.5 134.001 -54.5c38.667 0 74.334 10.167 107.001 30.5
s53 50.166 61 89.499h53c-12 -58 -39 -101.333 -81 -130s-89.667 -43 -143 -43c-8.66699 -10.667 -13 -23.334 -13 -38.001c0 -21.333 9.5 -38.833 28.5 -52.5s39.833 -20.834 62.5 -21.501v-52c-38.667 3.33301 -71.834 15.833 -99.5 37.5
c-27.667 21.667 -41.5 47.5 -41.5 77.5c0 20.667 6.33301 38 19 52c-58 10 -105.667 38 -143 84s-56 109 -56 189c0 90 23.833 158.833 71.5 206.5s106.167 71.5 175.5 71.5c66 0 119.833 -21.833 161.5 -65.5s62.5 -107.834 62.5 -192.5v-31z" />
    <glyph glyph-name="Ecaron" unicode="&#x11a;" horiz-adv-x="623" 
d="M95 0v750h458v-53h-398v-291h370v-54h-370v-298h418v-54h-478zM466 995l-129 -163h-39l-129 163h64l84 -106l85 106h64z" />
    <glyph glyph-name="ecaron" unicode="&#x11b;" horiz-adv-x="571" 
d="M294 489c-48.667 0 -90.667 -16 -126 -48s-55 -77.333 -59 -136h354c-0.666992 58.667 -17 104 -49 136s-72 48 -120 48zM521 253l-414.003 0.000976562c0 -68.667 18.333 -121.167 55 -157.5s81.334 -54.5 134.001 -54.5c38.667 0 74.334 10.167 107.001 30.5
s53 50.166 61 89.499h53c-12 -58 -39.167 -101.333 -81.5 -130s-90.166 -43 -143.499 -43c-68 0 -125.333 23.5 -172 70.5s-70 115.5 -70 205.5s23.833 158.833 71.5 206.5s106.167 71.5 175.5 71.5c66 0 119.833 -21.833 161.5 -65.5s62.5 -107.834 62.5 -192.5v-31z
M298.997 697.001l84 106h64l-129 -163h-39l-129 163h64z" />
    <glyph glyph-name="Gcircumflex" unicode="&#x11c;" horiz-adv-x="807" 
d="M717 371l0.00195312 -370.999h-55v122c-21.335 -42 -55.168 -76 -101.5 -102c-46.334 -26 -100.501 -39 -162.501 -39c-106 0 -188.833 38.5 -248.5 115.5s-89.5 172.167 -89.5 285.5c0 63.334 10 120.167 30 170.5s46.667 90.833 80 121.5s70.5 54 111.5 70
s84.167 24 129.5 24c77.333 0 145.833 -21 205.5 -63s93.167 -98.333 100.5 -169h-63c-7.33301 52.667 -34.833 95 -82.5 127s-101.834 48 -162.501 48c-78.667 0 -146.167 -28.167 -202.5 -84.5s-84.5 -137.833 -84.5 -244.5c0 -98.667 25 -181.167 75 -247.5
s119.667 -99.5 209 -99.5c78.667 0 141 25.667 187 77s68.667 119.666 68 204.999h-256v54h312zM415.002 938.001l-84 -106h-64l129 163h39l129 -163h-64z" />
    <glyph glyph-name="gcircumflex" unicode="&#x11d;" horiz-adv-x="614" 
d="M292 70c48.667 0 90.667 17.167 126 51.5s53 86.833 53 157.5c0 68 -16.833 120.333 -50.5 157s-75.5 55 -125.5 55c-50.667 0 -94.667 -18 -132 -54s-56 -88 -56 -156c0 -66.667 18 -118.5 54 -155.5s79.667 -55.5 131 -55.5zM534 532l-0.000976562 -518
c0 -74 -21.667 -131.167 -65 -171.5s-100 -60.5 -170 -60.5c-63.333 0 -116.333 16.5 -159 49.5s-67.334 77.167 -74.001 132.5h57c6.66699 -40 24.334 -72 53.001 -96s69 -36 121 -36c54.667 0 98.834 14.5 132.501 43.5s50.5 74.167 50.5 135.5v120
c-19.333 -39.333 -47.5 -68 -84.5 -86s-75.5 -27 -115.5 -27c-66 0 -120.833 23.167 -164.5 69.5s-65.5 110.5 -65.5 192.5c0 85.333 23.333 150.333 70 195s104 67 172 67c85.333 0 147 -33.333 185 -100v90h57zM291.999 746l-84 -106h-64l129 163h39l129 -163h-64z" />
    <glyph glyph-name="Gbreve" unicode="&#x11e;" horiz-adv-x="807" 
d="M717 371l0.00195312 -370.999h-55v122c-21.335 -42 -55.168 -76 -101.5 -102c-46.334 -26 -100.501 -39 -162.501 -39c-106 0 -188.833 38.5 -248.5 115.5s-89.5 172.167 -89.5 285.5c0 63.334 10 120.167 30 170.5s46.667 90.833 80 121.5s70.5 54 111.5 70
s84.167 24 129.5 24c77.333 0 145.833 -21 205.5 -63s93.167 -98.333 100.5 -169h-63c-7.33301 52.667 -34.833 95 -82.5 127s-101.834 48 -162.501 48c-78.667 0 -146.167 -28.167 -202.5 -84.5s-84.5 -137.833 -84.5 -244.5c0 -98.667 25 -181.167 75 -247.5
s119.667 -99.5 209 -99.5c78.667 0 141 25.667 187 77s68.667 119.666 68 204.999h-256v54h312zM469.002 970.001h49c4 -12 6 -25.333 6 -40c0 -29.333 -9.33301 -53.833 -28 -73.5s-47.667 -29.5 -87 -29.5s-68.333 9.83301 -87 29.5s-28 44.167 -28 73.5
c0 14.667 2 28 6 40h49c-3.33301 -10 -5 -20.333 -5 -31c0 -47.333 21.667 -71 65 -71s65 23.667 65 71c0 10.667 -1.66699 21 -5 31z" />
    <glyph glyph-name="gbreve" unicode="&#x11f;" horiz-adv-x="614" 
d="M292 70c48.667 0 90.667 17.167 126 51.5s53 86.833 53 157.5c0 68 -16.833 120.333 -50.5 157s-75.5 55 -125.5 55c-50.667 0 -94.667 -18 -132 -54s-56 -88 -56 -156c0 -66.667 18 -118.5 54 -155.5s79.667 -55.5 131 -55.5zM534 532l-0.000976562 -518
c0 -74 -21.667 -131.167 -65 -171.5s-100 -60.5 -170 -60.5c-63.333 0 -116.333 16.5 -159 49.5s-67.334 77.167 -74.001 132.5h57c6.66699 -40 24.334 -72 53.001 -96s69 -36 121 -36c54.667 0 98.834 14.5 132.501 43.5s50.5 74.167 50.5 135.5v120
c-19.333 -39.333 -47.5 -68 -84.5 -86s-75.5 -27 -115.5 -27c-66 0 -120.833 23.167 -164.5 69.5s-65.5 110.5 -65.5 192.5c0 85.333 23.333 150.333 70 195s104 67 172 67c85.333 0 147 -33.333 185 -100v90h57zM350.999 778h49c4 -12 6 -25.333 6 -40
c0 -29.333 -9.33301 -53.833 -28 -73.5s-47.667 -29.5 -87 -29.5s-68.333 9.83301 -87 29.5s-28 44.167 -28 73.5c0 14.667 2 28 6 40h49c-3.33301 -10 -5 -20.333 -5 -31c0 -47.333 21.667 -71 65 -71s65 23.667 65 71c0 10.667 -1.66699 21 -5 31z" />
    <glyph glyph-name="Gdotaccent" unicode="&#x120;" horiz-adv-x="807" 
d="M717 371l0.00195312 -370.999h-55v122c-21.335 -42 -55.168 -76 -101.5 -102c-46.334 -26 -100.501 -39 -162.501 -39c-106 0 -188.833 38.5 -248.5 115.5s-89.5 172.167 -89.5 285.5c0 63.334 10 120.167 30 170.5s46.667 90.833 80 121.5s70.5 54 111.5 70
s84.167 24 129.5 24c77.333 0 145.833 -21 205.5 -63s93.167 -98.333 100.5 -169h-63c-7.33301 52.667 -34.833 95 -82.5 127s-101.834 48 -162.501 48c-78.667 0 -146.167 -28.167 -202.5 -84.5s-84.5 -137.833 -84.5 -244.5c0 -98.667 25 -181.167 75 -247.5
s119.667 -99.5 209 -99.5c78.667 0 141 25.667 187 77s68.667 119.666 68 204.999h-256v54h312zM361.002 923.001h87v-91h-87v91z" />
    <glyph glyph-name="gdotaccent" unicode="&#x121;" horiz-adv-x="614" 
d="M292 70c48.667 0 90.667 17.167 126 51.5s53 86.833 53 157.5c0 68 -16.833 120.333 -50.5 157s-75.5 55 -125.5 55c-50.667 0 -94.667 -18 -132 -54s-56 -88 -56 -156c0 -66.667 18 -118.5 54 -155.5s79.667 -55.5 131 -55.5zM534 532l-0.000976562 -518
c0 -74 -21.667 -131.167 -65 -171.5s-100 -60.5 -170 -60.5c-63.333 0 -116.333 16.5 -159 49.5s-67.334 77.167 -74.001 132.5h57c6.66699 -40 24.334 -72 53.001 -96s69 -36 121 -36c54.667 0 98.834 14.5 132.501 43.5s50.5 74.167 50.5 135.5v120
c-19.333 -39.333 -47.5 -68 -84.5 -86s-75.5 -27 -115.5 -27c-66 0 -120.833 23.167 -164.5 69.5s-65.5 110.5 -65.5 192.5c0 85.333 23.333 150.333 70 195s104 67 172 67c85.333 0 147 -33.333 185 -100v90h57zM238.999 731h87v-91h-87v91z" />
    <glyph glyph-name="uni0122" unicode="&#x122;" horiz-adv-x="807" 
d="M440 -89v-96c0 -93.333 -44 -146.333 -132 -159l-11 38c38.667 9.33301 64 24.5 76 45.5s18 50.167 18 87.5h-43v84h92zM717 371l0.00195312 -370.999h-55v122c-21.335 -42 -55.168 -76 -101.5 -102c-46.334 -26 -100.501 -39 -162.501 -39
c-106 0 -188.833 38.5 -248.5 115.5s-89.5 172.167 -89.5 285.5c0 63.334 10 120.167 30 170.5s46.667 90.833 80 121.5s70.5 54 111.5 70s84.167 24 129.5 24c77.333 0 145.833 -21 205.5 -63s93.167 -98.333 100.5 -169h-63c-7.33301 52.667 -34.833 95 -82.5 127
s-101.834 48 -162.501 48c-78.667 0 -146.167 -28.167 -202.5 -84.5s-84.5 -137.833 -84.5 -244.5c0 -98.667 25 -181.167 75 -247.5s119.667 -99.5 209 -99.5c78.667 0 141 25.667 187 77s68.667 119.666 68 204.999h-256v54h312z" />
    <glyph glyph-name="uni0123" unicode="&#x123;" horiz-adv-x="614" 
d="M292 70c48.667 0 90.667 17.167 126 51.5s53 86.833 53 157.5c0 68 -16.833 120.333 -50.5 157s-75.5 55 -125.5 55c-50.667 0 -94.667 -18 -132 -54s-56 -88 -56 -156c0 -66.667 18 -118.5 54 -155.5s79.667 -55.5 131 -55.5zM534 532l-0.000976562 -518
c0 -74 -21.667 -131.167 -65 -171.5s-100 -60.5 -170 -60.5c-63.333 0 -116.333 16.5 -159 49.5s-67.334 77.167 -74.001 132.5h57c6.66699 -40 24.334 -72 53.001 -96s69 -36 121 -36c54.667 0 98.834 14.5 132.501 43.5s50.5 74.167 50.5 135.5v120
c-19.333 -39.333 -47.5 -68 -84.5 -86s-75.5 -27 -115.5 -27c-66 0 -120.833 23.167 -164.5 69.5s-65.5 110.5 -65.5 192.5c0 85.333 23.333 150.333 70 195s104 67 172 67c85.333 0 147 -33.333 185 -100v90h57zM237.999 645v96c0 93.333 44 146.333 132 159l11 -38
c-38.667 -9.33301 -64 -24.5 -76 -45.5s-18 -50.167 -18 -87.5h43v-84h-92z" />
    <glyph glyph-name="Hcircumflex" unicode="&#x124;" horiz-adv-x="736" 
d="M641 0h-60v351h-426v-351h-60v750h60v-345h426v345h60v-750zM368 938l-84 -106h-64l129 163h39l129 -163h-64z" />
    <glyph glyph-name="hcircumflex" unicode="&#x125;" horiz-adv-x="585" 
d="M331 542c53.334 0 95.667 -14.6689 127 -44.002s47 -72.666 47 -129.999v-368h-57v359c0 42.667 -11.5 75.167 -34.5 97.5s-52.833 33.5 -89.5 33.5c-48.667 0 -91.167 -18.167 -127.5 -54.5s-54.5 -86.166 -54.5 -149.499v-286h-57v762h57v-330
c37.333 73.333 100.333 110 189 110zM366 745.998l-84 -106h-64l129 163h39l129 -163h-64z" />
    <glyph glyph-name="Hbar" unicode="&#x126;" horiz-adv-x="830" 
d="M621 528h-426v-123h426v123zM810 528h-129v-528h-60v351h-426v-351h-60v528h-115v53h115v169h60v-169h426v169h60v-169h129v-53z" />
    <glyph glyph-name="hbar" unicode="&#x127;" horiz-adv-x="613" 
d="M359 542c53.334 0 95.667 -14.6689 127 -44.002s47 -72.666 47 -129.999v-368h-57v359c0 42.667 -11.5 75.167 -34.5 97.5s-52.833 33.5 -89.5 33.5c-48.667 0 -91.167 -18.167 -127.5 -54.5s-54.5 -86.166 -54.5 -149.499v-286h-57v624h-83v53h83v85h57v-85h139v-53
h-139v-192c37.333 73.333 100.333 110 189 110z" />
    <glyph glyph-name="Itilde" unicode="&#x128;" horiz-adv-x="260" 
d="M160 0h-60v750h60v-750zM267 958l38.002 0.000976562c0 -40 -8.5 -71.667 -25.5 -95s-37.833 -35 -62.5 -35c-18.667 0 -42.667 11.833 -72 35.5s-49 35.5 -59 35.5c-26 0 -43.333 -22.333 -52 -67h-44c4 39.333 14.5 70.166 31.5 92.499s37.5 33.5 61.5 33.5
c19.333 0 43.666 -12.167 72.999 -36.5s49.666 -36.5 60.999 -36.5c27.333 0 44 24.333 50 73z" />
    <glyph glyph-name="itilde" unicode="&#x129;" horiz-adv-x="217" 
d="M137 0h-57v532h57v-532zM241 766l38.002 0.000976562c0 -40 -8.5 -71.667 -25.5 -95s-37.833 -35 -62.5 -35c-18.667 0 -42.667 11.833 -72 35.5s-49 35.5 -59 35.5c-26 0 -43.333 -22.333 -52 -67h-44c4 39.333 14.5 70.166 31.5 92.499s37.5 33.5 61.5 33.5
c19.333 0 43.666 -12.167 72.999 -36.5s49.666 -36.5 60.999 -36.5c27.333 0 44 24.333 50 73z" />
    <glyph glyph-name="Imacron" unicode="&#x12a;" horiz-adv-x="260" 
d="M171 0h-60v750h60v-750zM-19 833v47h319v-47h-319z" />
    <glyph glyph-name="imacron" unicode="&#x12b;" horiz-adv-x="217" 
d="M137 0h-57v532h57v-532zM-51 640v47h319v-47h-319z" />
    <glyph glyph-name="Iogonek" unicode="&#x12e;" horiz-adv-x="260" 
d="M120 -50c0 -21.333 9.50098 -38.832 28.501 -52.499s39.833 -20.834 62.5 -21.501v-52c-38.667 3.33301 -71.834 15.833 -99.501 37.5s-41.5 47.5 -41.5 77.5c0 26.667 10 47.667 30 63v748h60v-750h-16c-16 -14 -24 -30.667 -24 -50z" />
    <glyph glyph-name="iogonek" unicode="&#x12f;" horiz-adv-x="227" 
d="M98 -50c0 -21.333 9.50098 -38.833 28.501 -52.5s39.833 -20.834 62.5 -21.501v-52c-38.667 3.33301 -71.834 15.833 -99.501 37.5s-41.5 47.5 -41.5 77.5c0 30.667 12.667 53.334 38 68.001h1v525h57v-532h-22c-16 -14 -24 -30.667 -24 -50zM149.001 677h-67v73h67v-73z
" />
    <glyph glyph-name="Idotaccent" unicode="&#x130;" horiz-adv-x="260" 
d="M161 0h-60v750h60v-750zM87 923h87v-91h-87v91z" />
    <glyph glyph-name="dotlessi" unicode="&#x131;" horiz-adv-x="217" 
d="M137 0h-57v532h57v-532z" />
    <glyph glyph-name="IJ" unicode="&#x132;" horiz-adv-x="783" 
d="M698 750v-547c0 -73.333 -18.5 -128.666 -55.5 -165.999s-85.5 -56 -145.5 -56s-109.5 17.667 -148.5 53s-58.5 84.666 -58.5 147.999v60h60v-55c0 -50 13.5 -88 40.5 -114s62.5 -39 106.5 -39s78.5 13.5 103.5 40.5s37.5 67.167 37.5 120.5v555h60zM160 0h-60v750h60
v-750z" />
    <glyph glyph-name="ij" unicode="&#x133;" horiz-adv-x="477" 
d="M397 532v-607c0 -50.667 -10.667 -85.167 -32 -103.5s-50.333 -27.5 -87 -27.5h-41v52h27c28.667 0 48.5 6 59.5 18s16.5 31.667 16.5 59v609h57zM142 0h-57v532h57v-532zM402 677h-67v73h67v-73zM147 750v-73h-67v73h67z" />
    <glyph glyph-name="Jcircumflex" unicode="&#x134;" horiz-adv-x="523" 
d="M438 750v-547c0 -73.333 -18.5 -128.666 -55.5 -165.999s-85.5 -56 -145.5 -56s-109.5 17.667 -148.5 53s-58.5 84.666 -58.5 147.999v60h60v-55c0 -50 13.5 -88 40.5 -114s62.5 -39 106.5 -39s78.5 13.5 103.5 40.5s37.5 67.167 37.5 120.5v555h60zM374 938l-84 -106
h-64l129 163h39l129 -163h-64z" />
    <glyph glyph-name="jcircumflex" unicode="&#x135;" horiz-adv-x="245" 
d="M170 532v-607c0 -50.667 -10.667 -85.167 -32 -103.5s-50.333 -27.5 -87 -27.5h-41v52h27c28.667 0 48.5 6 59.5 18s16.5 31.667 16.5 59v609h57zM143 746l-84 -106h-64l129 163h39l129 -163h-64z" />
    <glyph glyph-name="uni0136" unicode="&#x136;" horiz-adv-x="675" 
d="M291 -89h92v-96c0 -93.333 -44 -146.333 -132 -159l-11 38c38.667 9.33301 64 24.5 76 45.5s18 50.167 18 87.5h-43v84zM650 0h-75l-290 388l-130 -143v-245h-60v750h60v-425l385 425h77l-289 -316z" />
    <glyph glyph-name="uni0137" unicode="&#x137;" horiz-adv-x="546" 
d="M225 -89h92v-96c0 -93.333 -44 -146.333 -132 -159l-11 38c38.667 9.33301 64 24.5 76 45.5s18 50.167 18 87.5h-43v84zM516 0h-70l-202 273l-102 -106v-167h-57v762h57v-519l277 289h74l-210 -218z" />
    <glyph glyph-name="kgreenlandic" unicode="&#x138;" horiz-adv-x="546" 
d="M244 273l-102 -106v-167h-57v532h57v-289l277 289h74l-210 -218l233 -314h-70z" />
    <glyph glyph-name="Lacute" unicode="&#x139;" horiz-adv-x="569" 
d="M534 0h-439v750h60v-696h379v-54zM197 832h-48l117 180l53 -39z" />
    <glyph glyph-name="lacute" unicode="&#x13a;" horiz-adv-x="227" 
d="M142 0h-57v762h57v-762zM141 832h-48l117 180l53 -39z" />
    <glyph glyph-name="uni013B" unicode="&#x13b;" horiz-adv-x="569" 
d="M353 -89v-96c0 -93.333 -44 -146.333 -132 -159l-11 38c38.667 9.33301 64 24.5 76 45.5s18 50.167 18 87.5h-43v84h92zM534 0h-439v750h60v-696h379v-54z" />
    <glyph glyph-name="uni013C" unicode="&#x13c;" horiz-adv-x="227" 
d="M159 -89v-96c0 -93.333 -44 -146.333 -132 -159l-11 38c38.667 9.33301 64 24.5 76 45.5s18 50.167 18 87.5h-43v84h92zM142 0h-57v762h57v-762z" />
    <glyph glyph-name="Lcaron" unicode="&#x13d;" horiz-adv-x="667" 
d="M534 0h-439v750h60v-696h379v-54zM637 765v-96c0 -93.333 -44 -146.333 -132 -159l-11 38c38.667 9.33301 64 24.5 76 45.5s18 50.167 18 87.5h-43v84h92z" />
    <glyph glyph-name="lcaron" unicode="&#x13e;" horiz-adv-x="431" 
d="M142 0h-57v762h57v-762zM391 765v-96c0 -93.333 -44 -146.333 -132 -159l-11 38c38.667 9.33301 64 24.5 76 45.5s18 50.167 18 87.5h-43v84h92z" />
    <glyph glyph-name="Ldot" unicode="&#x13f;" horiz-adv-x="569" 
d="M440 531h87v-91h-87v91zM534 0h-439v750h60v-696h379v-54z" />
    <glyph glyph-name="ldot" unicode="&#x140;" horiz-adv-x="403" 
d="M266 465h87v-91h-87v91zM142 0h-57v762h57v-762z" />
    <glyph glyph-name="Lslash" unicode="&#x141;" horiz-adv-x="684" 
d="M649 54v-54h-439v287l-115 -60v57l115 60v406h60v-374l244 128v-57l-244 -128v-265h379z" />
    <glyph glyph-name="lslash" unicode="&#x142;" horiz-adv-x="426" 
d="M341 402l-114 -60v-342h-57v312l-85 -44v57l85 44v393h57v-363l114 60v-57z" />
    <glyph glyph-name="Nacute" unicode="&#x143;" horiz-adv-x="739" 
d="M644 0h-70l-421 680v-680h-58v750h85l406 -664v664h58v-750zM381 832h-48l117 180l53 -39z" />
    <glyph glyph-name="nacute" unicode="&#x144;" horiz-adv-x="585" 
d="M331 542c53.334 0 95.667 -14.6689 127 -44.002s47 -72.666 47 -129.999v-368h-57v359c0 42.667 -11.5 75.167 -34.5 97.5s-52.833 33.5 -89.5 33.5c-48.667 0 -91.167 -18.167 -127.5 -54.5s-54.5 -86.166 -54.5 -149.499v-286h-57v532h57v-100
c37.333 73.333 100.333 110 189 110zM336 639.998h-48l117 180l53 -39z" />
    <glyph glyph-name="uni0145" unicode="&#x145;" horiz-adv-x="739" 
d="M401 -89v-96c0 -93.333 -44 -146.333 -132 -159l-11 38c38.667 9.33301 64 24.5 76 45.5s18 50.167 18 87.5h-43v84h92zM644 0h-70l-421 680v-680h-58v750h85l406 -664v664h58v-750z" />
    <glyph glyph-name="uni0146" unicode="&#x146;" horiz-adv-x="585" 
d="M324 -89v-96c0 -93.333 -44 -146.333 -132 -159l-11 38c38.667 9.33301 64 24.5 76 45.5s18 50.167 18 87.5h-43v84h92zM331 542c53.334 0 95.667 -14.6689 127 -44.002s47 -72.666 47 -129.999v-368h-57v359c0 42.667 -11.5 75.167 -34.5 97.5s-52.833 33.5 -89.5 33.5
c-48.667 0 -91.167 -18.167 -127.5 -54.5s-54.5 -86.166 -54.5 -149.499v-286h-57v532h57v-100c37.333 73.333 100.333 110 189 110z" />
    <glyph glyph-name="Ncaron" unicode="&#x147;" horiz-adv-x="739" 
d="M644 0h-70l-421 680v-680h-58v750h85l406 -664v664h58v-750zM528 995l-129 -163h-39l-129 163h64l84 -106l85 106h64z" />
    <glyph glyph-name="ncaron" unicode="&#x148;" horiz-adv-x="585" 
d="M331 542c53.334 0 95.667 -14.6689 127 -44.002s47 -72.666 47 -129.999v-368h-57v359c0 42.667 -11.5 75.167 -34.5 97.5s-52.833 33.5 -89.5 33.5c-48.667 0 -91.167 -18.167 -127.5 -54.5s-54.5 -86.166 -54.5 -149.499v-286h-57v532h57v-100
c37.333 73.333 100.333 110 189 110zM311 696.998l84 106h64l-129 -163h-39l-129 163h64z" />
    <glyph glyph-name="napostrophe" unicode="&#x149;" horiz-adv-x="757" 
d="M503 542c53.333 0 95.667 -14.6689 127 -44.002s47 -72.666 47 -129.999v-368h-57v359c0 42.667 -11.5 75.167 -34.5 97.5s-52.833 33.5 -89.5 33.5c-48.667 0 -91.167 -18.167 -127.5 -54.5s-54.5 -86.166 -54.5 -149.499v-286h-57v532h57v-100
c37.333 73.333 100.333 110 189 110zM193.001 764.998v-96c0 -93.333 -44 -146.333 -132 -159l-11 38c38.667 9.33301 64 24.5 76 45.5s18 50.167 18 87.5h-43v84h92z" />
    <glyph glyph-name="Eng" unicode="&#x14a;" horiz-adv-x="739" 
d="M644 750v-825c0 -50.667 -10.667 -85.167 -32 -103.5s-50.333 -27.5 -87 -27.5h-41v52h27c28.667 0 48.5 6 59.5 18s16.5 31.667 16.5 59v77l-435 675v-675h-57v750h85l407 -664v664h57z" />
    <glyph glyph-name="eng" unicode="&#x14b;" horiz-adv-x="580" 
d="M331 542c53.334 0 95.667 -14.6689 127 -44.002s47 -72.666 47 -129.999v-443c0 -50.667 -10.667 -85.167 -32 -103.5s-50.333 -27.5 -87 -27.5h-41v52h27c28.667 0 48.5 6 59.5 18s16.5 31.667 16.5 59v436c0 42.667 -11.5 75.167 -34.5 97.5s-52.833 33.5 -89.5 33.5
c-48.667 0 -91.167 -18.167 -127.5 -54.5s-54.5 -86.166 -54.5 -149.499v-286h-57v532h57v-100c37.333 73.333 100.333 110 189 110z" />
    <glyph glyph-name="Omacron" unicode="&#x14c;" horiz-adv-x="844" 
d="M423 714c-63.333 0 -118.497 -16.667 -165.497 -50s-81.333 -75 -103 -125s-32.5 -104 -32.5 -162c0 -42.667 6.5 -84 19.5 -124s31.5 -76.333 55.5 -109s55.667 -58.834 95 -78.501s83.333 -29.5 132 -29.5c63.333 0 118.166 16.5 164.499 49.5
s80.166 74.667 101.499 125s32 104.833 32 163.5c0 43.333 -6.33301 84.833 -19 124.5c-12.667 39.668 -31 75.835 -55 108.501c-24 32.667 -55.333 58.667 -94 78s-82.334 29 -131.001 29zM423.003 -19c-58 0 -110.667 11.1699 -158 33.5029s-85.5 52.166 -114.5 89.499
s-51.333 79.166 -67 125.499s-23.5 94.5 -23.5 144.5s7.83301 98.167 23.5 144.5s38.167 88.333 67.5 126s67.5 67.667 114.5 90s99.833 33.5 158.5 33.5c58 0 110.5 -11.167 157.5 -33.5s84.833 -52 113.5 -89s50.667 -78.667 66 -125s23 -94.5 23 -144.5
s-7.5 -98.167 -22.5 -144.5s-37 -88.333 -66 -126s-67 -67.834 -114 -90.501s-99.833 -34 -158.5 -34zM263.003 833.003v47h319v-47h-319z" />
    <glyph glyph-name="omacron" unicode="&#x14d;" horiz-adv-x="603" 
d="M304 43c55.333 0 100.835 20.165 136.502 60.498s53.5 94.5 53.5 162.5v5c-1.33301 67.334 -20.333 120.167 -57 158.5s-82.334 57.5 -137.001 57.5c-56 0 -101.833 -19.667 -137.5 -59s-53.5 -92.666 -53.5 -159.999c0 -69.333 18.667 -124.166 56 -164.499
s83.666 -60.5 138.999 -60.5zM300.002 541.998c74.667 0 135.501 -25 182.501 -75s70.5 -117.333 70.5 -202c0 -85.333 -23.167 -152.833 -69.5 -202.5s-106.833 -74.5 -181.5 -74.5s-135.334 24.833 -182.001 74.5s-70 117.167 -70 202.5c0 84.667 23.167 152 69.5 202
s106.5 75 180.5 75zM137.003 639.998v47h319v-47h-319z" />
    <glyph glyph-name="Obreve" unicode="&#x14e;" horiz-adv-x="844" 
d="M423 714c-63.333 0 -118.497 -16.667 -165.497 -50s-81.333 -75 -103 -125s-32.5 -104 -32.5 -162c0 -42.667 6.5 -84 19.5 -124s31.5 -76.333 55.5 -109s55.667 -58.834 95 -78.501s83.333 -29.5 132 -29.5c63.333 0 118.166 16.5 164.499 49.5
s80.166 74.667 101.499 125s32 104.833 32 163.5c0 43.333 -6.33301 84.833 -19 124.5c-12.667 39.668 -31 75.835 -55 108.501c-24 32.667 -55.333 58.667 -94 78s-82.334 29 -131.001 29zM423.003 -19c-58 0 -110.667 11.1699 -158 33.5029s-85.5 52.166 -114.5 89.499
s-51.333 79.166 -67 125.499s-23.5 94.5 -23.5 144.5s7.83301 98.167 23.5 144.5s38.167 88.333 67.5 126s67.5 67.667 114.5 90s99.833 33.5 158.5 33.5c58 0 110.5 -11.167 157.5 -33.5s84.833 -52 113.5 -89s50.667 -78.667 66 -125s23 -94.5 23 -144.5
s-7.5 -98.167 -22.5 -144.5s-37 -88.333 -66 -126s-67 -67.834 -114 -90.501s-99.833 -34 -158.5 -34zM482.003 970.003h49c4 -12 6 -25.333 6 -40c0 -29.333 -9.33301 -53.833 -28 -73.5s-47.667 -29.5 -87 -29.5s-68.333 9.83301 -87 29.5s-28 44.167 -28 73.5
c0 14.667 2 28 6 40h49c-3.33301 -10 -5 -20.333 -5 -31c0 -47.333 21.667 -71 65 -71s65 23.667 65 71c0 10.667 -1.66699 21 -5 31z" />
    <glyph glyph-name="obreve" unicode="&#x14f;" horiz-adv-x="603" 
d="M304 43c55.333 0 100.835 20.165 136.502 60.498s53.5 94.5 53.5 162.5v5c-1.33301 67.334 -20.333 120.167 -57 158.5s-82.334 57.5 -137.001 57.5c-56 0 -101.833 -19.667 -137.5 -59s-53.5 -92.666 -53.5 -159.999c0 -69.333 18.667 -124.166 56 -164.499
s83.666 -60.5 138.999 -60.5zM300.002 541.998c74.667 0 135.501 -25 182.501 -75s70.5 -117.333 70.5 -202c0 -85.333 -23.167 -152.833 -69.5 -202.5s-106.833 -74.5 -181.5 -74.5s-135.334 24.833 -182.001 74.5s-70 117.167 -70 202.5c0 84.667 23.167 152 69.5 202
s106.5 75 180.5 75zM357.003 777.998h49c4 -12 6 -25.333 6 -40c0 -29.333 -9.33301 -53.833 -28 -73.5s-47.667 -29.5 -87 -29.5s-68.333 9.83301 -87 29.5s-28 44.167 -28 73.5c0 14.667 2 28 6 40h49c-3.33301 -10 -5 -20.333 -5 -31c0 -47.333 21.667 -71 65 -71
s65 23.667 65 71c0 10.667 -1.66699 21 -5 31z" />
    <glyph glyph-name="Ohungarumlaut" unicode="&#x150;" horiz-adv-x="844" 
d="M423 714c-63.333 0 -118.497 -16.667 -165.497 -50s-81.333 -75 -103 -125s-32.5 -104 -32.5 -162c0 -42.667 6.5 -84 19.5 -124s31.5 -76.333 55.5 -109s55.667 -58.834 95 -78.501s83.333 -29.5 132 -29.5c63.333 0 118.166 16.5 164.499 49.5
s80.166 74.667 101.499 125s32 104.833 32 163.5c0 43.333 -6.33301 84.833 -19 124.5c-12.667 39.668 -31 75.835 -55 108.501c-24 32.667 -55.333 58.667 -94 78s-82.334 29 -131.001 29zM423.003 -19c-58 0 -110.667 11.1699 -158 33.5029s-85.5 52.166 -114.5 89.499
s-51.333 79.166 -67 125.499s-23.5 94.5 -23.5 144.5s7.83301 98.167 23.5 144.5s38.167 88.333 67.5 126s67.5 67.667 114.5 90s99.833 33.5 158.5 33.5c58 0 110.5 -11.167 157.5 -33.5s84.833 -52 113.5 -89s50.667 -78.667 66 -125s23 -94.5 23 -144.5
s-7.5 -98.167 -22.5 -144.5s-37 -88.333 -66 -126s-67 -67.834 -114 -90.501s-99.833 -34 -158.5 -34zM517.003 832.003h-43l42 157h54zM387.003 832.003h-43l43 159h54z" />
    <glyph glyph-name="ohungarumlaut" unicode="&#x151;" horiz-adv-x="603" 
d="M304 43c55.333 0 100.835 20.165 136.502 60.498s53.5 94.5 53.5 162.5v5c-1.33301 67.334 -20.333 120.167 -57 158.5s-82.334 57.5 -137.001 57.5c-56 0 -101.833 -19.667 -137.5 -59s-53.5 -92.666 -53.5 -159.999c0 -69.333 18.667 -124.166 56 -164.499
s83.666 -60.5 138.999 -60.5zM300.002 541.998c74.667 0 135.501 -25 182.501 -75s70.5 -117.333 70.5 -202c0 -85.333 -23.167 -152.833 -69.5 -202.5s-106.833 -74.5 -181.5 -74.5s-135.334 24.833 -182.001 74.5s-70 117.167 -70 202.5c0 84.667 23.167 152 69.5 202
s106.5 75 180.5 75zM388.003 639.998h-43l43 159h54zM259.003 639.998h-43l43 159h54z" />
    <glyph glyph-name="Racute" unicode="&#x154;" horiz-adv-x="650" 
d="M155 382l192 0.000976562c53.333 0 95 15.667 125 47s45 69.333 45 114c0 43.333 -14.333 80.166 -43 110.499s-69 45.5 -121 45.5h-198v-317zM559 0.000976562l-218 331h-186v-331h-60v750h256c72 0 127.833 -19.667 167.5 -59s59.5 -87 59.5 -143
c0 -48.667 -14.833 -92.667 -44.5 -132s-71.5 -65.333 -125.5 -78l222 -338h-71zM302 832.001h-48l117 180l53 -39z" />
    <glyph glyph-name="racute" unicode="&#x155;" horiz-adv-x="360" 
d="M340 485h-7.99902c-61.333 0 -108.333 -16.833 -141 -50.5s-49 -82.5 -49 -146.5v-288h-57v532h56v-104c10 36 31.167 63.333 63.5 82s71.166 28 116.499 28h19v-53zM235.001 640h-48l117 180l53 -39z" />
    <glyph glyph-name="uni0156" unicode="&#x156;" horiz-adv-x="650" 
d="M287 -89h92v-96c0 -93.333 -44 -146.333 -132 -159l-11 38c38.667 9.33301 64 24.5 76 45.5s18 50.167 18 87.5h-43v84zM155 382l192 0.000976562c53.333 0 95 15.667 125 47s45 69.333 45 114c0 43.333 -14.333 80.166 -43 110.499s-69 45.5 -121 45.5h-198v-317z
M630 0.000976562h-71l-218 331h-186v-331h-60v750h256c72 0 127.833 -19.667 167.5 -59s59.5 -87 59.5 -143c0 -48.667 -14.833 -92.667 -44.5 -132s-71.5 -65.333 -125.5 -78z" />
    <glyph glyph-name="uni0157" unicode="&#x157;" horiz-adv-x="360" 
d="M164 -89v-96c0 -93.333 -44 -146.333 -132 -159l-11 38c38.667 9.33301 64 24.5 76 45.5s18 50.167 18 87.5h-43v84h92zM340 485h-7.99902c-61.333 0 -108.333 -16.833 -141 -50.5s-49 -82.5 -49 -146.5v-288h-57v532h56v-104c10 36 31.167 63.333 63.5 82
s71.166 28 116.499 28h19v-53z" />
    <glyph glyph-name="Rcaron" unicode="&#x158;" horiz-adv-x="650" 
d="M155 382l192 0.000976562c53.333 0 95 15.667 125 47s45 69.333 45 114c0 43.333 -14.333 80.166 -43 110.499s-69 45.5 -121 45.5h-198v-317zM559 0.000976562l-218 331h-186v-331h-60v750h256c72 0 127.833 -19.667 167.5 -59s59.5 -87 59.5 -143
c0 -48.667 -14.833 -92.667 -44.5 -132s-71.5 -65.333 -125.5 -78l222 -338h-71zM295 832.001l-129 163h64l84 -106l85 106h64l-129 -163h-39z" />
    <glyph glyph-name="rcaron" unicode="&#x159;" horiz-adv-x="360" 
d="M340 485h-7.99902c-61.333 0 -108.333 -16.833 -141 -50.5s-49 -82.5 -49 -146.5v-288h-57v532h56v-104c10 36 31.167 63.333 63.5 82s71.166 28 116.499 28h19v-53zM208.001 697l84 106h64l-129 -163h-39l-129 163h64z" />
    <glyph glyph-name="Sacute" unicode="&#x15a;" horiz-adv-x="645" 
d="M590 189c0 -66.667 -23.5 -117.999 -70.5 -153.999s-106.833 -54 -179.5 -54c-84 0 -152 23.333 -204 70s-79 107 -81 181h64c4 -65.333 26.833 -114.333 68.5 -147s92.5 -49 152.5 -49c55.333 0 100.5 13.333 135.5 40s52.5 63 52.5 109
c0 32.667 -11.333 60.167 -34 82.5c-22.668 22.334 -43.835 37.167 -63.501 44.5c-19.667 7.33301 -51.834 17 -96.5 29c-6 2 -10.333 3.33301 -13 4c-30 8 -53 14.5 -69 19.5s-36.667 13.5 -62 25.5s-44.666 24.667 -57.999 38s-25.166 31.333 -35.499 54
s-15.5 48.334 -15.5 77.001c0 64 22.167 114.833 66.5 152.5s103.5 56.5 177.5 56.5c68.667 0 127 -16.833 175 -50.5s73.667 -84.834 77 -153.501h-64c-2.66699 51.333 -22.5 89.333 -59.5 114s-80.833 37 -131.5 37c-53.333 0 -96.666 -13.667 -129.999 -41
c-33.333 -27.335 -50 -65.668 -50 -115c0 -17.333 2 -33 6 -47s11.333 -26.167 22 -36.5s20.5 -19 29.5 -26s23.333 -14 43 -21s35.5 -12.333 47.5 -16c12 -3.66992 30.667 -8.83691 56 -15.501c33.333 -8.66699 59.333 -16 78 -22s40.167 -14.833 64.5 -26.5
s42.666 -24 54.999 -37s23.166 -30 32.499 -51s14 -44.833 14 -71.5zM341 832.001h-48l117 180l53 -39z" />
    <glyph glyph-name="sacute" unicode="&#x15b;" horiz-adv-x="513" 
d="M267 291c25.333 -4 45.3271 -7.50195 59.9941 -10.502s32.167 -8.16699 52.5 -15.5s36 -15.833 47 -25.5s20.667 -22.667 29 -39s12.5 -35.166 12.5 -56.499c0 -50.667 -19 -89.334 -57 -116.001s-84.333 -40 -139 -40c-59.333 0 -110.666 15.167 -153.999 45.5
s-67.666 72.833 -72.999 127.5h62c6.66699 -41.333 24.834 -71.666 54.501 -90.999s64.834 -29 105.501 -29c39.333 0 72.833 8.33301 100.5 25s41.5 40.667 41.5 72c0 16.667 -4 31 -12 43s-20.167 21.5 -36.5 28.5s-31.166 12.333 -44.499 16
s-30.666 7.16699 -51.999 10.5c-26 4.66699 -46.833 8.66699 -62.5 12s-33.834 9 -54.501 17s-36.667 16.833 -48 26.5s-21.166 22.834 -29.499 39.501s-12.5 35.667 -12.5 57c0 50 18.667 88.167 56 114.5s84 39.5 140 39.5c56.667 0 103 -13.5 139 -40.5
s56.667 -64.167 62 -111.5h-60c-4.66699 33.333 -20.334 58.333 -47 75c-26.667 16.667 -59.667 25 -99 25c-42 0 -74.333 -9.16699 -97 -27.5s-34 -42.5 -34 -72.5c0 -32 12 -54.333 36 -67s62 -23.334 114 -32zM265.994 639.998h-48l117 180l53 -39z" />
    <glyph glyph-name="Scircumflex" unicode="&#x15c;" horiz-adv-x="645" 
d="M590 189c0 -66.667 -23.5 -117.999 -70.5 -153.999s-106.833 -54 -179.5 -54c-84 0 -152 23.333 -204 70s-79 107 -81 181h64c4 -65.333 26.833 -114.333 68.5 -147s92.5 -49 152.5 -49c55.333 0 100.5 13.333 135.5 40s52.5 63 52.5 109
c0 32.667 -11.333 60.167 -34 82.5c-22.668 22.334 -43.835 37.167 -63.501 44.5c-19.667 7.33301 -51.834 17 -96.5 29c-6 2 -10.333 3.33301 -13 4c-30 8 -53 14.5 -69 19.5s-36.667 13.5 -62 25.5s-44.666 24.667 -57.999 38s-25.166 31.333 -35.499 54
s-15.5 48.334 -15.5 77.001c0 64 22.167 114.833 66.5 152.5s103.5 56.5 177.5 56.5c68.667 0 127 -16.833 175 -50.5s73.667 -84.834 77 -153.501h-64c-2.66699 51.333 -22.5 89.333 -59.5 114s-80.833 37 -131.5 37c-53.333 0 -96.666 -13.667 -129.999 -41
c-33.333 -27.335 -50 -65.668 -50 -115c0 -17.333 2 -33 6 -47s11.333 -26.167 22 -36.5s20.5 -19 29.5 -26s23.333 -14 43 -21s35.5 -12.333 47.5 -16c12 -3.66992 30.667 -8.83691 56 -15.501c33.333 -8.66699 59.333 -16 78 -22s40.167 -14.833 64.5 -26.5
s42.666 -24 54.999 -37s23.166 -30 32.499 -51s14 -44.833 14 -71.5zM326 938.001l-84 -106h-64l129 163h39l129 -163h-64z" />
    <glyph glyph-name="scircumflex" unicode="&#x15d;" horiz-adv-x="513" 
d="M267 291c25.333 -4 45.3271 -7.50195 59.9941 -10.502s32.167 -8.16699 52.5 -15.5s36 -15.833 47 -25.5s20.667 -22.667 29 -39s12.5 -35.166 12.5 -56.499c0 -50.667 -19 -89.334 -57 -116.001s-84.333 -40 -139 -40c-59.333 0 -110.666 15.167 -153.999 45.5
s-67.666 72.833 -72.999 127.5h62c6.66699 -41.333 24.834 -71.666 54.501 -90.999s64.834 -29 105.501 -29c39.333 0 72.833 8.33301 100.5 25s41.5 40.667 41.5 72c0 16.667 -4 31 -12 43s-20.167 21.5 -36.5 28.5s-31.166 12.333 -44.499 16
s-30.666 7.16699 -51.999 10.5c-26 4.66699 -46.833 8.66699 -62.5 12s-33.834 9 -54.501 17s-36.667 16.833 -48 26.5s-21.166 22.834 -29.499 39.501s-12.5 35.667 -12.5 57c0 50 18.667 88.167 56 114.5s84 39.5 140 39.5c56.667 0 103 -13.5 139 -40.5
s56.667 -64.167 62 -111.5h-60c-4.66699 33.333 -20.334 58.333 -47 75c-26.667 16.667 -59.667 25 -99 25c-42 0 -74.333 -9.16699 -97 -27.5s-34 -42.5 -34 -72.5c0 -32 12 -54.333 36 -67s62 -23.334 114 -32zM252.994 745.998l-84 -106h-64l129 163h39l129 -163h-64z
" />
    <glyph glyph-name="Scedilla" unicode="&#x15e;" horiz-adv-x="645" 
d="M340 -19h-2.00098v-44h5c28.667 0 51.334 -7 68.001 -21s25 -31.667 25 -53s-8.33301 -40.166 -25 -56.5c-16.667 -16.333 -40.667 -24.5 -72 -24.5c-38 0 -72.333 13.333 -103 40l23 34c26.667 -24.667 53.667 -37 81 -37c36.667 0 55 14 55 42
c0 35.333 -34.333 53 -103 53l11 69c-73.333 6.66699 -132.5 32.834 -177.5 78.501s-68.5 102.5 -70.5 170.5h64c4 -65.333 26.833 -114.333 68.5 -147s92.5 -49 152.5 -49c55.333 0 100.5 13.333 135.5 40s52.5 63 52.5 109c0 32.667 -11.333 60.167 -34 82.5
c-22.668 22.334 -43.835 37.167 -63.501 44.5c-19.667 7.33301 -51.834 17 -96.5 29c-6 2 -10.333 3.33301 -13 4c-30 8 -53 14.5 -69 19.5s-36.667 13.5 -62 25.5s-44.666 24.667 -57.999 38s-25.166 31.333 -35.499 54s-15.5 48.334 -15.5 77.001
c0 64 22.167 114.833 66.5 152.5s103.5 56.5 177.5 56.5c68.667 0 127 -16.833 175 -50.5s73.667 -84.834 77 -153.501h-64c-2.66699 51.333 -22.5 89.333 -59.5 114s-80.833 37 -131.5 37c-53.333 0 -96.666 -13.667 -129.999 -41c-33.333 -27.335 -50 -65.668 -50 -115
c0 -17.333 2 -33 6 -47s11.333 -26.167 22 -36.5s20.5 -19 29.5 -26s23.333 -14 43 -21s35.5 -12.333 47.5 -16c12 -3.66992 30.667 -8.83691 56 -15.501c33.333 -8.66699 59.333 -16 78 -22s40.167 -14.833 64.5 -26.5s42.666 -24 54.999 -37s23.166 -30 32.499 -51
s14 -44.833 14 -71.5c0 -66.667 -23.5 -118 -70.5 -154s-106.833 -54 -179.5 -54z" />
    <glyph glyph-name="scedilla" unicode="&#x15f;" horiz-adv-x="513" 
d="M468 144c0 -50.667 -18.8369 -89.335 -56.5039 -116.002s-83.834 -40 -138.501 -40v-51h5c28.667 0 51.334 -7 68.001 -21s25 -31.667 25 -53s-8.33301 -40.166 -25 -56.5c-16.667 -16.333 -40.667 -24.5 -72 -24.5c-38 0 -72.333 13.333 -103 40l23 34
c26.667 -24.667 53.667 -37 81 -37c36.667 0 55 14 55 42c0 35.333 -34.333 53 -103 53l12 76c-52.667 5.33301 -97 22.666 -133 51.999s-56.333 69 -61 119h62c6.66699 -41.333 24.834 -71.666 54.501 -90.999s64.834 -29 105.501 -29c39.333 0 72.833 8.33301 100.5 25
s41.5 40.667 41.5 72c0 16.667 -4 31 -12 43s-20.167 21.5 -36.5 28.5s-31.166 12.333 -44.499 16s-30.666 7.16699 -51.999 10.5c-26 4.66699 -46.833 8.66699 -62.5 12s-33.834 9 -54.501 17s-36.667 16.833 -48 26.5s-21.166 22.834 -29.499 39.501
s-12.5 35.667 -12.5 57c0 50 18.667 88.167 56 114.5s84 39.5 140 39.5c56.667 0 103 -13.5 139 -40.5s56.667 -64.167 62 -111.5h-60c-4.66699 33.333 -20.334 58.333 -47 75c-26.667 16.667 -59.667 25 -99 25c-42 0 -74.333 -9.16699 -97 -27.5s-34 -42.5 -34 -72.5
c0 -32 12 -54.333 36 -67s62 -23.334 114 -32c25.333 -4 45.333 -7.5 60 -10.5s32.167 -8.16699 52.5 -15.5s36 -15.833 47 -25.5s20.667 -22.667 29 -39s12.5 -35.166 12.5 -56.499z" />
    <glyph glyph-name="uni0162" unicode="&#x162;" horiz-adv-x="616" 
d="M338 0l-22 0.000976562c-16 -14 -24 -30.667 -24 -50c0 -21.333 9.5 -38.833 28.5 -52.5s39.833 -20.834 62.5 -21.501v-52c-38.667 3.33301 -71.834 15.833 -99.5 37.5c-27.667 21.667 -41.5 47.5 -41.5 77.5s12 52.333 36 67v691h-258v53h576v-53h-258v-697z" />
    <glyph glyph-name="uni0163" unicode="&#x163;" horiz-adv-x="343" 
d="M242 0l-0.000976562 -63h5c28.667 0 51.334 -7 68.001 -21s25 -31.667 25 -53s-8.33301 -40.166 -25 -56.5c-16.667 -16.333 -40.667 -24.5 -72 -24.5c-38 0 -72.333 13.333 -103 40l23 34c26.667 -24.667 53.667 -37 81 -37c36.667 0 55 14 55 42
c0 35.333 -34.333 53 -103 53l14 87c-28.667 4 -51.167 15.667 -67.5 35s-24.5 51 -24.5 95v349h-108v52h108v159l57 16v-175h132v-52h-132v-351c0 -27.333 5.5 -47 16.5 -59s30.833 -18 59.5 -18h67v-52h-76z" />
    <glyph glyph-name="Tcaron" unicode="&#x164;" horiz-adv-x="616" 
d="M596 697h-258v-697h-60v697h-258v53h576v-53zM462 995l-129 -163h-39l-129 163h64l84 -106l85 106h64z" />
    <glyph glyph-name="tcaron" unicode="&#x165;" horiz-adv-x="551" 
d="M318 0h-81c-36.667 0 -65.667 9.16699 -87 27.5s-32 52.833 -32 103.5v349h-108v52h108v159l57 16v-175h132v-52h-132v-351c0 -27.333 5.5 -47 16.5 -59s30.833 -18 59.5 -18h67v-52zM511 762v-96c0 -93.333 -44 -146.333 -132 -159l-11 38
c38.667 9.33301 64 24.5 76 45.5s18 50.167 18 87.5h-43v84h92z" />
    <glyph glyph-name="Tbar" unicode="&#x166;" horiz-adv-x="616" 
d="M338 697v-216h207v-53h-207v-428h-60v428h-197v53h197v216h-258v53h576v-53h-258z" />
    <glyph glyph-name="tbar" unicode="&#x167;" horiz-adv-x="348" 
d="M323 52v-52h-81c-36.667 0 -65.667 9.16699 -87 27.5s-32 52.833 -32 103.5v168h-113v52h113v129h-108v52h108v159l57 16v-175h132v-52h-132v-129h127v-52h-127v-170c0 -27.333 5.5 -47 16.5 -59s30.833 -18 59.5 -18h67z" />
    <glyph glyph-name="Utilde" unicode="&#x168;" horiz-adv-x="727" 
d="M642 750v-491.001c0 -88 -25 -156.167 -75 -204.5s-117.333 -72.5 -202 -72.5s-152.5 24.167 -203.5 72.5s-76.5 116.5 -76.5 204.5v491h60v-484c0 -75.333 20.333 -132.666 61 -171.999s94.667 -59 162 -59c65.333 0 117.5 18.5 156.5 55.5s58.5 91.167 58.5 162.5v497
h59zM496 957.999l38 0.000976562c0 -40 -8.5 -71.667 -25.5 -95s-37.833 -35 -62.5 -35c-18.667 0 -42.667 11.833 -72 35.5s-49 35.5 -59 35.5c-26 0 -43.333 -22.333 -52 -67h-44c4 39.333 14.5 70.166 31.5 92.499s37.5 33.5 61.5 33.5c18.667 0 43 -12.167 73 -36.5
s50.333 -36.5 61 -36.5c27.333 0 44 24.333 50 73z" />
    <glyph glyph-name="utilde" unicode="&#x169;" horiz-adv-x="587" 
d="M438 0v108.999c-36.667 -76.667 -97.667 -115 -183 -115c-52 0 -94.167 15.333 -126.5 46s-48.5 75.667 -48.5 135v357h57v-354c0 -43.333 11.333 -76.666 34 -99.999s53 -35 91 -35c48.667 0 89.667 18 123 54s50 86.667 50 152v283h57v-532h-54zM415 765.999
l38 0.000976562c0 -40 -8.5 -71.667 -25.5 -95s-37.833 -35 -62.5 -35c-18.667 0 -42.667 11.833 -72 35.5s-49 35.5 -59 35.5c-26 0 -43.333 -22.333 -52 -67h-44c4 39.333 14.5 70.166 31.5 92.499s37.5 33.5 61.5 33.5c15.333 0 31.5 -6 48.5 -18s33 -24.167 48 -36.5
s27.5 -18.5 37.5 -18.5c27.333 0 44 24.333 50 73z" />
    <glyph glyph-name="Umacron" unicode="&#x16a;" horiz-adv-x="727" 
d="M642 750v-491.001c0 -88 -25 -156.167 -75 -204.5s-117.333 -72.5 -202 -72.5s-152.5 24.167 -203.5 72.5s-76.5 116.5 -76.5 204.5v491h60v-484c0 -75.333 20.333 -132.666 61 -171.999s94.667 -59 162 -59c65.333 0 117.5 18.5 156.5 55.5s58.5 91.167 58.5 162.5v497
h59zM204 832.999v47h319v-47h-319z" />
    <glyph glyph-name="umacron" unicode="&#x16b;" horiz-adv-x="587" 
d="M438 0v108.999c-36.667 -76.667 -97.667 -115 -183 -115c-52 0 -94.167 15.333 -126.5 46s-48.5 75.667 -48.5 135v357h57v-354c0 -43.333 11.333 -76.666 34 -99.999s53 -35 91 -35c48.667 0 89.667 18 123 54s50 86.667 50 152v283h57v-532h-54zM134 639.999v47h319
v-47h-319z" />
    <glyph glyph-name="Ubreve" unicode="&#x16c;" horiz-adv-x="727" 
d="M642 750v-491.001c0 -88 -25 -156.167 -75 -204.5s-117.333 -72.5 -202 -72.5s-152.5 24.167 -203.5 72.5s-76.5 116.5 -76.5 204.5v491h60v-484c0 -75.333 20.333 -132.666 61 -171.999s94.667 -59 162 -59c65.333 0 117.5 18.5 156.5 55.5s58.5 91.167 58.5 162.5v497
h59zM424 969.999h49c4 -12 6 -25.333 6 -40c0 -29.333 -9.33301 -53.833 -28 -73.5s-47.667 -29.5 -87 -29.5s-68.333 9.83301 -87 29.5s-28 44.167 -28 73.5c0 14.667 2 28 6 40h49c-3.33301 -10 -5 -20.333 -5 -31c0 -47.333 21.667 -71 65 -71s65 23.667 65 71
c0 10.667 -1.66699 21 -5 31z" />
    <glyph glyph-name="ubreve" unicode="&#x16d;" horiz-adv-x="587" 
d="M438 0v108.999c-36.667 -76.667 -97.667 -115 -183 -115c-52 0 -94.167 15.333 -126.5 46s-48.5 75.667 -48.5 135v357h57v-354c0 -43.333 11.333 -76.666 34 -99.999s53 -35 91 -35c48.667 0 89.667 18 123 54s50 86.667 50 152v283h57v-532h-54zM337 777.999h49
c4 -12 6 -25.333 6 -40c0 -29.333 -9.33301 -53.833 -28 -73.5s-47.667 -29.5 -87 -29.5s-68.333 9.83301 -87 29.5s-28 44.167 -28 73.5c0 14.667 2 28 6 40h49c-3.33301 -10 -5 -20.333 -5 -31c0 -47.333 21.667 -71 65 -71s65 23.667 65 71c0 10.667 -1.66699 21 -5 31z
" />
    <glyph glyph-name="Uring" unicode="&#x16e;" horiz-adv-x="727" 
d="M642 750v-491.001c0 -88 -25 -156.167 -75 -204.5s-117.333 -72.5 -202 -72.5s-152.5 24.167 -203.5 72.5s-76.5 116.5 -76.5 204.5v491h60v-484c0 -75.333 20.333 -132.666 61 -171.999s94.667 -59 162 -59c65.333 0 117.5 18.5 156.5 55.5s58.5 91.167 58.5 162.5v497
h59zM419 923.999c0 16 -5.5 29.667 -16.5 41s-24.167 17 -39.5 17s-28.333 -5.66699 -39 -17s-16 -25 -16 -41c0 -16.667 5.33301 -30.834 16 -42.501s23.667 -17.5 39 -17.5s28.5 5.83301 39.5 17.5c11 11.6738 16.5 25.8408 16.5 42.501zM267 923.999
c0 28 9.33105 51 27.998 69s41.334 27 68.001 27c27.333 0 50.333 -9 69 -27s28 -41 28 -69s-9.33301 -51.167 -28 -69.5s-41.667 -27.5 -69 -27.5s-50.166 9.16699 -68.499 27.5s-27.5 41.5 -27.5 69.5z" />
    <glyph glyph-name="uring" unicode="&#x16f;" horiz-adv-x="587" 
d="M438 0v108.999c-36.667 -76.667 -97.667 -115 -183 -115c-52 0 -94.167 15.333 -126.5 46s-48.5 75.667 -48.5 135v357h57v-354c0 -43.333 11.333 -76.666 34 -99.999s53 -35 91 -35c48.667 0 89.667 18 123 54s50 86.667 50 152v283h57v-532h-54zM342 731.999
c0 16 -5.5 29.668 -16.5 41.001s-24.167 17 -39.5 17s-28.333 -5.66699 -39 -17s-16 -25 -16 -41c0 -16.667 5.33301 -30.834 16 -42.501s23.667 -17.5 39 -17.5s28.5 5.83301 39.5 17.5c11 11.6719 16.5 25.8389 16.5 42.5zM190 732c0 28 9.33105 51 27.998 69
s41.334 27 68.001 27c27.333 0 50.333 -9 69 -27s28 -41 28 -69s-9.33301 -51.167 -28 -69.5s-41.667 -27.5 -69 -27.5s-50.166 9.16699 -68.499 27.5s-27.5 41.5 -27.5 69.5z" />
    <glyph glyph-name="Uhungarumlaut" unicode="&#x170;" horiz-adv-x="727" 
d="M642 750v-491.001c0 -88 -25 -156.167 -75 -204.5s-117.333 -72.5 -202 -72.5s-152.5 24.167 -203.5 72.5s-76.5 116.5 -76.5 204.5v491h60v-484c0 -75.333 20.333 -132.666 61 -171.999s94.667 -59 162 -59c65.333 0 117.5 18.5 156.5 55.5s58.5 91.167 58.5 162.5v497
h59zM447 831.999h-43l42 157h54zM317 831.999h-43l43 159h54z" />
    <glyph glyph-name="uhungarumlaut" unicode="&#x171;" horiz-adv-x="587" 
d="M438 0v108.999c-36.667 -76.667 -97.667 -115 -183 -115c-52 0 -94.167 15.333 -126.5 46s-48.5 75.667 -48.5 135v357h57v-354c0 -43.333 11.333 -76.666 34 -99.999s53 -35 91 -35c48.667 0 89.667 18 123 54s50 86.667 50 152v283h57v-532h-54zM370 639.999h-43
l43 159h54zM241 639.999h-43l43 159h54z" />
    <glyph glyph-name="Uogonek" unicode="&#x172;" horiz-adv-x="727" 
d="M642 750v-491.001c0 -84.667 -23.167 -151 -69.5 -199c-46.334 -48 -108.834 -74 -187.5 -78c-6 -8 -9 -18.667 -9 -32c0 -21.333 9.5 -38.833 28.5 -52.5s39.833 -20.834 62.5 -21.501v-52c-38.667 3.33301 -71.834 15.833 -99.5 37.5
c-27.667 21.667 -41.5 47.5 -41.5 77.5c0 16.667 4.33301 31.334 13 44.001c-77.333 5.33301 -139 31.833 -185 79.5s-69 113.167 -69 196.5v491h60v-484c0 -75.333 20.333 -132.666 61 -171.999s94.667 -59 162 -59c65.333 0 117.5 18.5 156.5 55.5s58.5 91.167 58.5 162.5
v497h59z" />
    <glyph glyph-name="uogonek" unicode="&#x173;" horiz-adv-x="587" 
d="M449 -50c0 -21.333 9.5 -38.834 28.5 -52.501c19.001 -13.667 39.834 -20.834 62.5 -21.501v-52c-38.667 3.33301 -71.834 15.833 -99.5 37.5c-27.667 21.667 -41.5 47.5 -41.5 77.5c0 30.667 12.667 53.334 38 68.001h1v102c-36.667 -76.667 -97.667 -115 -183 -115
c-52 0 -94.167 15.333 -126.5 46s-48.5 75.667 -48.5 135v357h57v-354c0 -43.333 11.333 -76.666 34 -99.999s53 -35 91 -35c48.667 0 89.667 18 123 54s50 86.667 50 152v283h57v-532h-19c-16 -14 -24 -30.667 -24 -50z" />
    <glyph glyph-name="Wcircumflex" unicode="&#x174;" horiz-adv-x="977" 
d="M749 0h-66l-194 664l-195 -664h-66l-193 750h61l166 -672l194 672h68l193 -676l165 676h60zM488 938l-84 -106h-64l129 163h39l129 -163h-64z" />
    <glyph glyph-name="wcircumflex" unicode="&#x175;" horiz-adv-x="799" 
d="M603 0h-62l-142 444l-142 -444h-62l-170 532h57l146 -461l141 461h59l146 -461l141 461h59zM410 746l-84 -106h-64l129 163h39l129 -163h-64z" />
    <glyph glyph-name="Ycircumflex" unicode="&#x176;" horiz-adv-x="645" 
d="M30 750h71l223 -400l222 400h69l-261 -453v-297h-62v297zM322 938l-84 -106h-64l129 163h39l129 -163h-64z" />
    <glyph glyph-name="ycircumflex" unicode="&#x177;" horiz-adv-x="485" 
d="M465 532l-243 -640c-17.333 -45.333 -55 -68 -113 -68h-49v52h50c19.333 0 35 5.5 47 16.5s22 27.5 30 49.5l30 82l-197 508h60l164 -441l165 441h56zM235 746l-84 -106h-64l129 163h39l129 -163h-64z" />
    <glyph glyph-name="Zacute" unicode="&#x179;" horiz-adv-x="664" 
d="M60 0v53l478 644h-465v53h535v-53l-478 -643h484v-54h-554zM345 832h-48l117 180l53 -39z" />
    <glyph glyph-name="zacute" unicode="&#x17a;" horiz-adv-x="530" 
d="M123 52h350v-52h-418v52l347 428h-329v52h402v-52zM281 640h-48l117 180l53 -39z" />
    <glyph glyph-name="Zdotaccent" unicode="&#x17b;" horiz-adv-x="664" 
d="M60 0v53l478 644h-465v53h535v-53l-478 -643h484v-54h-554zM300 923h87v-91h-87v91z" />
    <glyph glyph-name="zdotaccent" unicode="&#x17c;" horiz-adv-x="530" 
d="M123 52h350v-52h-418v52l347 428h-329v52h402v-52zM239 731h87v-91h-87v91z" />
    <glyph glyph-name="longs" unicode="&#x17f;" horiz-adv-x="293" 
d="M303 710h-59c-28.667 0 -48.5 -6 -59.5 -18s-16.5 -31.667 -16.5 -59v-633h-57v480h-91v52h91v99c0 50.667 10.667 85.167 32 103.5s50.333 27.5 87 27.5h73v-52z" />
    <glyph glyph-name="florin" unicode="&#x192;" horiz-adv-x="337" 
d="M317 710h-55.999c-28.667 0 -49 -5.83301 -61 -17.5s-18 -33.5 -18 -65.5v-95h121v-52h-121v-570c0 -22 -2.83301 -40.833 -8.5 -56.5s-12 -27.167 -19 -34.5s-17.167 -13 -30.5 -17s-23.833 -6.33301 -31.5 -7s-18.834 -1 -33.501 -1h-39v47h41c22.667 0 39 5 49 15
s15 32.333 15 67v557h-91v52h91v99c0 28.667 3.5 52.5 10.5 71.5s17 32.5 30 40.5s25.167 13.167 36.5 15.5s25.333 3.5 42 3.5h73v-52z" />
    <glyph glyph-name="uni0218" unicode="&#x218;" horiz-adv-x="645" 
d="M380 -89v-96c0 -93.333 -44 -146.333 -132 -159l-11 38c38.667 9.33301 64 24.5 76 45.5s18 50.167 18 87.5h-43v84h92zM590 189c0 -66.667 -23.5 -117.999 -70.5 -153.999s-106.833 -54 -179.5 -54c-84 0 -152 23.333 -204 70s-79 107 -81 181h64
c4 -65.333 26.833 -114.333 68.5 -147s92.5 -49 152.5 -49c55.333 0 100.5 13.333 135.5 40s52.5 63 52.5 109c0 32.667 -11.333 60.167 -34 82.5c-22.668 22.334 -43.835 37.167 -63.501 44.5c-19.667 7.33301 -51.834 17 -96.5 29c-6 2 -10.333 3.33301 -13 4
c-30 8 -53 14.5 -69 19.5s-36.667 13.5 -62 25.5s-44.666 24.667 -57.999 38s-25.166 31.333 -35.499 54s-15.5 48.334 -15.5 77.001c0 64 22.167 114.833 66.5 152.5s103.5 56.5 177.5 56.5c68.667 0 127 -16.833 175 -50.5s73.667 -84.834 77 -153.501h-64
c-2.66699 51.333 -22.5 89.333 -59.5 114s-80.833 37 -131.5 37c-53.333 0 -96.666 -13.667 -129.999 -41c-33.333 -27.335 -50 -65.668 -50 -115c0 -17.333 2 -33 6 -47s11.333 -26.167 22 -36.5s20.5 -19 29.5 -26s23.333 -14 43 -21s35.5 -12.333 47.5 -16
c12 -3.66992 30.667 -8.83691 56 -15.501c33.333 -8.66699 59.333 -16 78 -22s40.167 -14.833 64.5 -26.5s42.666 -24 54.999 -37s23.166 -30 32.499 -51s14 -44.833 14 -71.5z" />
    <glyph glyph-name="uni0219" unicode="&#x219;" horiz-adv-x="513" 
d="M302 -89v-96c0 -93.333 -44 -146.333 -132 -159l-11 38c38.667 9.33301 64 24.5 76 45.5s18 50.167 18 87.5h-43v84h92zM267 291c25.333 -4 45.3271 -7.50195 59.9941 -10.502s32.167 -8.16699 52.5 -15.5s36 -15.833 47 -25.5s20.667 -22.667 29 -39
s12.5 -35.166 12.5 -56.499c0 -50.667 -19 -89.334 -57 -116.001s-84.333 -40 -139 -40c-59.333 0 -110.666 15.167 -153.999 45.5s-67.666 72.833 -72.999 127.5h62c6.66699 -41.333 24.834 -71.666 54.501 -90.999s64.834 -29 105.501 -29
c39.333 0 72.833 8.33301 100.5 25s41.5 40.667 41.5 72c0 16.667 -4 31 -12 43s-20.167 21.5 -36.5 28.5s-31.166 12.333 -44.499 16s-30.666 7.16699 -51.999 10.5c-26 4.66699 -46.833 8.66699 -62.5 12s-33.834 9 -54.501 17s-36.667 16.833 -48 26.5
s-21.166 22.834 -29.499 39.501s-12.5 35.667 -12.5 57c0 50 18.667 88.167 56 114.5s84 39.5 140 39.5c56.667 0 103 -13.5 139 -40.5s56.667 -64.167 62 -111.5h-60c-4.66699 33.333 -20.334 58.333 -47 75c-26.667 16.667 -59.667 25 -99 25
c-42 0 -74.333 -9.16699 -97 -27.5s-34 -42.5 -34 -72.5c0 -32 12 -54.333 36 -67s62 -23.334 114 -32z" />
    <glyph glyph-name="uni021A" unicode="&#x21a;" horiz-adv-x="616" 
d="M357 -89v-96c0 -93.333 -44 -146.333 -132 -159l-11 38c38.667 9.33301 64 24.5 76 45.5s18 50.167 18 87.5h-43v84h92zM596 697h-258v-697h-60v697h-258v53h576v-53z" />
    <glyph glyph-name="uni021B" unicode="&#x21b;" horiz-adv-x="343" 
d="M294 -89v-96c0 -93.333 -44 -146.333 -132 -159l-11 38c38.667 9.33301 64 24.5 76 45.5s18 50.167 18 87.5h-43v84h92zM318 0h-81c-36.667 0 -65.667 9.16699 -87 27.5s-32 52.833 -32 103.5v349h-108v52h108v159l57 16v-175h132v-52h-132v-351
c0 -27.333 5.5 -47 16.5 -59s30.833 -18 59.5 -18h67v-52z" />
    <glyph glyph-name="circumflex" unicode="&#x2c6;" horiz-adv-x="297" 
d="M148 746l-84 -106h-64l129 163h39l129 -163h-64z" />
    <glyph glyph-name="caron" unicode="&#x2c7;" horiz-adv-x="297" 
d="M149 697l84 106h64l-129 -163h-39l-129 163h64z" />
    <glyph glyph-name="uni02C9" unicode="&#x2c9;" horiz-adv-x="319" 
d="M0 832v47h319v-47h-319z" />
    <glyph glyph-name="breve" unicode="&#x2d8;" horiz-adv-x="230" 
d="M175 778h49c4 -12 6 -25.333 6 -40c0 -29.333 -9.33301 -53.833 -28 -73.5s-47.667 -29.5 -87 -29.5s-68.333 9.83301 -87 29.5s-28 44.167 -28 73.5c0 14.667 2 28 6 40h49c-3.33301 -10 -5 -20.333 -5 -31c0 -47.333 21.667 -71 65 -71s65 23.667 65 71
c0 10.667 -1.66699 21 -5 31z" />
    <glyph glyph-name="dotaccent" unicode="&#x2d9;" horiz-adv-x="87" 
d="M0 731h87v-91h-87v91z" />
    <glyph glyph-name="ring" unicode="&#x2da;" horiz-adv-x="193" 
d="M152 732c0 16 -5.5 29.668 -16.5 41.001s-24.167 17 -39.5 17s-28.333 -5.66699 -39 -17s-16 -25 -16 -41c0 -16.667 5.33301 -30.834 16 -42.501s23.667 -17.5 39 -17.5s28.5 5.83301 39.5 17.5c11 11.6719 16.5 25.8389 16.5 42.5zM0 732.001
c0 28 9.33105 51 27.998 69s41.334 27 68.001 27c27.333 0 50.333 -9 69 -27s28 -41 28 -69s-9.33301 -51.167 -28 -69.5s-41.667 -27.5 -69 -27.5s-50.166 9.16699 -68.499 27.5s-27.5 41.5 -27.5 69.5z" />
    <glyph glyph-name="ogonek" unicode="&#x2db;" horiz-adv-x="141" 
d="M50 -50c0 -21.333 9.50098 -38.833 28.501 -52.5s39.833 -20.834 62.5 -21.501v-52c-38.667 3.33301 -71.834 15.833 -99.501 37.5s-41.5 47.5 -41.5 77.5c0 30.667 12.667 53.334 38 68.001h45c-22 -16 -33 -35 -33 -57z" />
    <glyph glyph-name="tilde" unicode="&#x2dc;" horiz-adv-x="315" 
d="M277 766l38.002 0.000976562c0 -40 -8.5 -71.667 -25.5 -95s-37.833 -35 -62.5 -35c-18.667 0 -42.667 11.833 -72 35.5s-49 35.5 -59 35.5c-26 0 -43.333 -22.333 -52 -67h-44c4 39.333 14.5 70.166 31.5 92.499s37.5 33.5 61.5 33.5
c19.333 0 43.666 -12.167 72.999 -36.5s49.666 -36.5 60.999 -36.5c27.333 0 44 24.333 50 73z" />
    <glyph glyph-name="hungarumlaut" unicode="&#x2dd;" horiz-adv-x="226" 
d="M172 640h-43l43 159h54zM43 640h-43l43 159h54z" />
    <glyph glyph-name="Delta" unicode="&#x394;" horiz-adv-x="738" 
d="M638 53l-270 623l-270 -623h540zM698 0h-658v53l301 697h56l301 -697v-53z" />
    <glyph glyph-name="Omega" unicode="&#x3a9;" horiz-adv-x="802" 
d="M663 53l0.000976562 -52.999h-226v176c80 12 141.833 44.167 185.5 96.5s65.5 111.5 65.5 177.5c0 72.667 -25.167 135.334 -75.5 188c-50.333 52.667 -120.833 79 -211.5 79s-161.167 -26.333 -211.5 -79s-75.5 -115.334 -75.5 -188.001
c0 -66 21.833 -125.167 65.5 -177.5s105.5 -84.5 185.5 -96.5v-176h-226v53h169v88c-78.667 16 -139.667 53.167 -183 111.5c-43.333 58.334 -65 124.167 -65 197.5c0 56 12.167 107.5 36.5 154.5s62.833 86 115.5 117s115.667 46.5 189 46.5
c108 0 191.833 -31.333 251.5 -94s89.5 -137 89.5 -223c0.666992 -73.333 -20.833 -139.333 -64.5 -198s-104.834 -96 -183.501 -112v-88h169z" />
    <glyph glyph-name="mu" unicode="&#x3bc;" horiz-adv-x="641" 
d="M581 0h-38c-56 -0 -88.333 26.333 -97 79c-32.667 -60.667 -88 -91 -166 -91c-62.667 0 -108.667 19.333 -138 58v-252h-57v738h57v-332c0 -51.333 12.5 -90.833 37.5 -118.5s60.167 -41.5 105.5 -41.5c47.333 0 85.833 15.333 115.5 46s44.5 78.667 44.5 144v302h57
v-420c0 -22 3.5 -37.333 10.5 -46s18.833 -13 35.5 -13h33v-53z" />
    <glyph glyph-name="pi" unicode="&#x3c0;" horiz-adv-x="682" 
d="M489 485v-370.999c0 -24.667 4.66699 -40.834 14 -48.501s25 -11.5 47 -11.5h32v-54h-50c-33.333 -0 -58.333 7.83301 -75 23.5s-25 42.5 -25 80.5v381h-191v-485h-57v485h-164v48h441c93.333 0 160.333 13 201 39v-55c-38.667 -21.333 -94 -32 -166 -32h-7z" />
    <glyph glyph-name="uni1E02" unicode="&#x1e02;" horiz-adv-x="666" 
d="M155 54h217.001c55.333 0 98.166 15.833 128.499 47.5s45.5 69.5 45.5 113.5c0 42 -14.833 78.333 -44.5 109s-70.167 46 -121.5 46h-225v-316zM155.001 423h193.999c53.333 0 94.833 14.5 124.5 43.5s44.5 63.167 44.5 102.5c-0.666992 35.333 -13.667 65.5 -39 90.5
s-60.666 37.5 -105.999 37.5h-218v-274zM471 402c45.333 -14.667 80 -39.501 104 -74.501s36 -73.5 36 -115.5c0 -57.333 -20.833 -107.166 -62.5 -149.499s-98.834 -63.5 -171.5 -63.5h-2l-280 1v750h292c60 0 106.667 -17 140 -51s50 -75.333 50 -124
c0 -35.333 -9 -68.5 -27 -99.5s-44.333 -55.5 -79 -73.5zM252 922.999h87v-91h-87v91z" />
    <glyph glyph-name="uni1E03" unicode="&#x1e03;" horiz-adv-x="622" 
d="M327 37c50.667 0 94.332 19.167 130.999 57.5s55 94.5 55 168.5s-18.167 129.5 -54.5 166.5s-80.166 55.5 -131.499 55.5c-50.667 0 -94.334 -18.5 -131.001 -55.5s-55 -92.5 -55 -166.5c0 -74.667 18.333 -131 55 -169s80.334 -57 131.001 -57zM283.998 731h87v-91h-87
v91zM340.998 542c63.334 0 117.668 -23.168 163.001 -69.501s68 -114.833 68 -205.5c0 -91.333 -23.333 -160.666 -70 -207.999s-103 -71 -169 -71c-46 0 -86.167 11.167 -120.5 33.5s-58.833 49.833 -73.5 82.5v-104h-54v762h57v-342
c13.333 34.667 38.666 63.667 75.999 87s78.333 35 123 35z" />
    <glyph glyph-name="uni1E0A" unicode="&#x1e0a;" horiz-adv-x="736" 
d="M155 54l146.999 -0.000976562c50 0 95.333 9.5 136 28.5s73.334 44.333 98.001 76s43.667 66.834 57 105.501s20 79 20 121c0 86 -26.333 159.5 -79 220.5s-126.667 91.5 -222 91.5h-157v-643zM94.999 749.999l224 -0.000976562c57.334 0 109.167 -10 155.5 -30
s83.833 -47 112.5 -81s50.667 -72.333 66 -115s23 -87.667 23 -135c0 -48.667 -8 -95.667 -24 -141s-39 -86.666 -69 -123.999s-69.5 -67.333 -118.5 -90s-104.167 -34 -165.5 -34h-204v750zM220.999 922.998h87v-91h-87v91z" />
    <glyph glyph-name="uni1E0B" unicode="&#x1e0b;" horiz-adv-x="622" 
d="M296 41c50.667 0 94.166 18.999 130.499 56.999s54.5 94.333 54.5 169s-18.333 130.334 -55 167.001s-80.334 55 -131 55c-51.333 0 -95.166 -18.5 -131.499 -55.5s-54.5 -92.5 -54.5 -166.5s18.333 -130.167 55 -168.5s80.667 -57.5 132 -57.5zM216.999 730.999h87v-91
h-87v91zM536.999 -0.000976562h-54.001v101c-14.667 -30.667 -39.667 -57.167 -75 -79.5s-75.666 -33.5 -120.999 -33.5c-64.667 0 -120.334 23.833 -167.001 71.5s-70 117.167 -70 208.5c0 90.667 23.333 159 70 205s102.334 69 167.001 69c43.333 0 82.5 -10 117.5 -30
s60.167 -44.667 75.5 -74v324h57v-762z" />
    <glyph glyph-name="uni1E1E" unicode="&#x1e1e;" horiz-adv-x="573" 
d="M155 0h-60v750h458v-53h-398v-291h370v-54h-370v-352zM271 923h87v-91h-87v91z" />
    <glyph glyph-name="uni1E1F" unicode="&#x1e1f;" horiz-adv-x="323" 
d="M303 710h-59c-28.667 0 -48.5 -6 -59.5 -18s-16.5 -31.667 -16.5 -59v-101h121v-52h-121v-480h-57v480h-91v52h91v99c0 50.667 10.667 85.167 32 103.5s50.333 27.5 87 27.5h73v-52zM219 923h87v-91h-87v91z" />
    <glyph glyph-name="uni1E40" unicode="&#x1e40;" horiz-adv-x="890" 
d="M795 0h-59v687l-269 -687h-49l-265 685v-685h-58v750h96l253 -666l254 666h97v-750zM402 923h87v-91h-87v91z" />
    <glyph glyph-name="uni1E41" unicode="&#x1e41;" horiz-adv-x="879" 
d="M799 388l0.000976562 -388h-57v364c0 42 -11.167 73.833 -33.5 95.5c-22.334 21.667 -50.167 32.5 -83.5 32.5c-40.667 0 -76.667 -15.5 -108 -46.5s-47 -72.833 -47 -125.5v-320h-56v364c0 41.333 -10.833 73 -32.5 95s-49.5 33 -83.5 33
c-40.667 0 -76.834 -15.333 -108.501 -46s-47.5 -72.667 -47.5 -126v-320h-57v532h56v-90c14 31.333 35.5 55.833 64.5 73.5s61.167 26.5 96.5 26.5c37.333 0 70.5 -9.33301 99.5 -28s48.167 -45.667 57.5 -81c14 35.333 37.5 62.333 70.5 81s68.5 28 106.5 28
c46 0 84.667 -13.333 116 -40s47 -64.667 47 -114zM403.001 731h87v-91h-87v91z" />
    <glyph glyph-name="uni1E56" unicode="&#x1e56;" horiz-adv-x="622" 
d="M155 374l193 -0.000976562c54.667 0 97.167 15.833 127.5 47.5s45.5 70.167 45.5 115.5c0 44.668 -15 82.835 -45 114.501c-30 31.667 -72 47.5 -126 47.5h-195v-325zM95 749.999h265.999c70 0 124.333 -20.333 163 -61s58 -89.667 58 -147
c0 -60 -20.667 -111.5 -62 -154.5s-98.666 -64.5 -171.999 -64.5h-193v-323h-60v750zM230.999 922.999h87v-91h-87v91z" />
    <glyph glyph-name="uni1E57" unicode="&#x1e57;" horiz-adv-x="621" 
d="M326 44c51.334 0 95.168 18.5 131.501 55.5s54.5 91.5 54.5 163.5c0 74 -18 129.5 -54 166.5s-79.667 55.5 -131 55.5c-50.667 0 -94.334 -18.5 -131.001 -55.5s-55 -92.5 -55 -166.5c0 -72 18.333 -126.5 55 -163.5s80 -55.5 130 -55.5zM341.001 542
c63.333 0 117.499 -23.167 162.499 -69.5s67.5 -114.833 67.5 -205.5c0 -46 -6.66699 -87 -20 -123s-31.5 -64.5 -54.5 -85.5s-48.333 -36.833 -76 -47.5s-56.834 -16 -87.5 -16c-87.333 0 -151 33 -191 99v-300h-57v738h56v-115c12.667 35.333 37.834 65 75.501 89
s79.167 36 124.5 36zM282 731h87v-91h-87v91z" />
    <glyph glyph-name="uni1E60" unicode="&#x1e60;" horiz-adv-x="645" 
d="M590 189c0 -66.667 -23.5 -117.999 -70.5 -153.999s-106.833 -54 -179.5 -54c-84 0 -152 23.333 -204 70s-79 107 -81 181h64c4 -65.333 26.833 -114.333 68.5 -147s92.5 -49 152.5 -49c55.333 0 100.5 13.333 135.5 40s52.5 63 52.5 109
c0 32.667 -11.333 60.167 -34 82.5c-22.668 22.334 -43.835 37.167 -63.501 44.5c-19.667 7.33301 -51.834 17 -96.5 29c-6 2 -10.333 3.33301 -13 4c-30 8 -53 14.5 -69 19.5s-36.667 13.5 -62 25.5s-44.666 24.667 -57.999 38s-25.166 31.333 -35.499 54
s-15.5 48.334 -15.5 77.001c0 64 22.167 114.833 66.5 152.5s103.5 56.5 177.5 56.5c68.667 0 127 -16.833 175 -50.5s73.667 -84.834 77 -153.501h-64c-2.66699 51.333 -22.5 89.333 -59.5 114s-80.833 37 -131.5 37c-53.333 0 -96.666 -13.667 -129.999 -41
c-33.333 -27.335 -50 -65.668 -50 -115c0 -17.333 2 -33 6 -47s11.333 -26.167 22 -36.5s20.5 -19 29.5 -26s23.333 -14 43 -21s35.5 -12.333 47.5 -16c12 -3.66992 30.667 -8.83691 56 -15.501c33.333 -8.66699 59.333 -16 78 -22s40.167 -14.833 64.5 -26.5
s42.666 -24 54.999 -37s23.166 -30 32.499 -51s14 -44.833 14 -71.5zM268 923.001h87v-91h-87v91z" />
    <glyph glyph-name="uni1E61" unicode="&#x1e61;" horiz-adv-x="513" 
d="M267 291c25.333 -4 45.3271 -7.50195 59.9941 -10.502s32.167 -8.16699 52.5 -15.5s36 -15.833 47 -25.5s20.667 -22.667 29 -39s12.5 -35.166 12.5 -56.499c0 -50.667 -19 -89.334 -57 -116.001s-84.333 -40 -139 -40c-59.333 0 -110.666 15.167 -153.999 45.5
s-67.666 72.833 -72.999 127.5h62c6.66699 -41.333 24.834 -71.666 54.501 -90.999s64.834 -29 105.501 -29c39.333 0 72.833 8.33301 100.5 25s41.5 40.667 41.5 72c0 16.667 -4 31 -12 43s-20.167 21.5 -36.5 28.5s-31.166 12.333 -44.499 16
s-30.666 7.16699 -51.999 10.5c-26 4.66699 -46.833 8.66699 -62.5 12s-33.834 9 -54.501 17s-36.667 16.833 -48 26.5s-21.166 22.834 -29.499 39.501s-12.5 35.667 -12.5 57c0 50 18.667 88.167 56 114.5s84 39.5 140 39.5c56.667 0 103 -13.5 139 -40.5
s56.667 -64.167 62 -111.5h-60c-4.66699 33.333 -20.334 58.333 -47 75c-26.667 16.667 -59.667 25 -99 25c-42 0 -74.333 -9.16699 -97 -27.5s-34 -42.5 -34 -72.5c0 -32 12 -54.333 36 -67s62 -23.334 114 -32zM217.994 730.998h87v-91h-87v91z" />
    <glyph glyph-name="uni1E6A" unicode="&#x1e6a;" horiz-adv-x="616" 
d="M596 697h-258v-697h-60v697h-258v53h576v-53zM270 923h87v-91h-87v91z" />
    <glyph glyph-name="uni1E6B" unicode="&#x1e6b;" horiz-adv-x="343" 
d="M318 0h-81c-36.667 0 -65.667 9.16699 -87 27.5s-32 52.833 -32 103.5v349h-108v52h108v159l57 16v-175h132v-52h-132v-351c0 -27.333 5.5 -47 16.5 -59s30.833 -18 59.5 -18h67v-52zM119 841h87v-91h-87v91z" />
    <glyph glyph-name="Wgrave" unicode="&#x1e80;" horiz-adv-x="977" 
d="M749 0h-66l-194 664l-195 -664h-66l-193 750h61l166 -672l194 672h68l193 -676l165 676h60zM392 1012l117 -180h-48l-122 141z" />
    <glyph glyph-name="wgrave" unicode="&#x1e81;" horiz-adv-x="799" 
d="M603 0h-62l-142 444l-142 -444h-62l-170 532h57l146 -461l141 461h59l146 -461l141 461h59zM319 820l117 -180h-48l-122 141z" />
    <glyph glyph-name="Wacute" unicode="&#x1e82;" horiz-adv-x="977" 
d="M749 0h-66l-194 664l-195 -664h-66l-193 750h61l166 -672l194 672h68l193 -676l165 676h60zM507 832h-48l117 180l53 -39z" />
    <glyph glyph-name="wacute" unicode="&#x1e83;" horiz-adv-x="799" 
d="M603 0h-62l-142 444l-142 -444h-62l-170 532h57l146 -461l141 461h59l146 -461l141 461h59zM421 640h-48l117 180l53 -39z" />
    <glyph glyph-name="Wdieresis" unicode="&#x1e84;" horiz-adv-x="977" 
d="M749 0h-66l-194 664l-195 -664h-66l-193 750h61l166 -672l194 672h68l193 -676l165 676h60zM625 917v-85h-83v85h83zM436 917v-85h-83v85h83z" />
    <glyph glyph-name="wdieresis" unicode="&#x1e85;" horiz-adv-x="799" 
d="M603 0h-62l-142 444l-142 -444h-62l-170 532h57l146 -461l141 461h59l146 -461l141 461h59zM540 721v-81h-79v81h79zM353 721v-81h-79v81h79z" />
    <glyph glyph-name="Ygrave" unicode="&#x1ef2;" horiz-adv-x="645" 
d="M30 750h71l223 -400l222 400h69l-261 -453v-297h-62v297zM251 1012l117 -180h-48l-122 141z" />
    <glyph glyph-name="ygrave" unicode="&#x1ef3;" horiz-adv-x="485" 
d="M465 532l-243 -640c-17.333 -45.333 -55 -68 -113 -68h-49v52h50c19.333 0 35 5.5 47 16.5s22 27.5 30 49.5l30 82l-197 508h60l164 -441l165 441h56zM159 820l117 -180h-48l-122 141z" />
    <glyph glyph-name="endash" unicode="&#x2013;" 
d="M50 273v52h500v-52h-500z" />
    <glyph glyph-name="emdash" unicode="&#x2014;" horiz-adv-x="1100" 
d="M50 273v52h1000v-52h-1000z" />
    <glyph glyph-name="quoteleft" unicode="&#x2018;" horiz-adv-x="233" 
d="M50 529v96c0 93.333 44 146.333 132 159l11 -38c-38.667 -9.33301 -64 -24.5 -76 -45.5s-18 -50.167 -18 -87.5h43v-84h-92z" />
    <glyph glyph-name="quoteright" unicode="&#x2019;" horiz-adv-x="233" 
d="M183 750v-96c0 -93.333 -44 -146.333 -132 -159l-11 38c38.667 9.33301 64 24.5 76 45.5s18 50.167 18 87.5h-43v84h92z" />
    <glyph glyph-name="quotesinglbase" unicode="&#x201a;" horiz-adv-x="233" 
d="M183 91v-96c0 -93.333 -44 -146.333 -132 -159l-11 38c38.667 9.33301 64 24.5 76 45.5s18 50.167 18 87.5h-43v84h92z" />
    <glyph glyph-name="quotedblleft" unicode="&#x201c;" horiz-adv-x="413" 
d="M230 529v96c0 93.333 44 146.333 132 159l11 -38c-38.667 -9.33301 -64 -24.5 -76 -45.5s-18 -50.167 -18 -87.5h43v-84h-92zM50 529v96c0 93.333 44 146.333 132 159l11 -38c-38.667 -9.33301 -64 -24.5 -76 -45.5s-18 -50.167 -18 -87.5h43v-84h-92z" />
    <glyph glyph-name="quotedblright" unicode="&#x201d;" horiz-adv-x="413" 
d="M363 762v-96c0 -93.333 -44 -146.333 -132 -159l-11 38c38.667 9.33301 64 24.5 76 45.5s18 50.167 18 87.5h-43v84h92zM183 762v-96c0 -93.333 -44 -146.333 -132 -159l-11 38c38.667 9.33301 64 24.5 76 45.5s18 50.167 18 87.5h-43v84h92z" />
    <glyph glyph-name="quotedblbase" unicode="&#x201e;" horiz-adv-x="413" 
d="M363 91v-96c0 -93.333 -44 -146.333 -132 -159l-11 38c38.667 9.33301 64 24.5 76 45.5s18 50.167 18 87.5h-43v84h92zM183 91v-96c0 -93.333 -44 -146.333 -132 -159l-11 38c38.667 9.33301 64 24.5 76 45.5s18 50.167 18 87.5h-43v84h92z" />
    <glyph glyph-name="dagger" unicode="&#x2020;" horiz-adv-x="559" 
d="M60 459v52h192v239h55v-239h192v-52h-192v-559h-55v559h-192z" />
    <glyph glyph-name="daggerdbl" unicode="&#x2021;" horiz-adv-x="559" 
d="M307 161h192v-52h-192v-209h-55v209h-192v52h192v328h-192v52h192v209h55v-209h192v-52h-192v-328z" />
    <glyph glyph-name="bullet" unicode="&#x2022;" horiz-adv-x="225" 
d="M60 373h105v-106h-105v106z" />
    <glyph glyph-name="ellipsis" unicode="&#x2026;" horiz-adv-x="977" 
d="M776 88h84v-88h-84v88zM437 88h84v-88h-84v88zM117 88h84v-88h-84v88z" />
    <glyph glyph-name="perthousand" unicode="&#x2030;" horiz-adv-x="1326" 
d="M1229 163c0 36.667 -11.333 66.5 -34 89.5s-51 34.5 -85 34.5s-62.167 -11.5 -84.5 -34.5s-33.5 -52.833 -33.5 -89.5c0 -37.333 11.167 -67.666 33.5 -90.999s50.5 -35 84.5 -35s62.333 11.667 85 35s34 53.666 34 90.999zM817 163c0 36.667 -11.333 66.5 -34 89.5
s-51 34.5 -85 34.5s-62.167 -11.5 -84.5 -34.5s-33.5 -52.833 -33.5 -89.5c0 -37.333 11.167 -67.666 33.5 -90.999s50.5 -35 84.5 -35s62.333 11.667 85 35s34 53.666 34 90.999zM935 162c0 51.333 16.667 93.333 50 126s74.333 49 123 49
c51.333 0 93.833 -16.167 127.5 -48.5s50.5 -74.5 50.5 -126.5c0 -50.667 -17 -92.667 -51 -126s-76.333 -50 -127 -50c-48.667 0 -89.667 16.667 -123 50s-50 75.333 -50 126zM523 162c0 51.333 16.667 93.333 50 126s74.333 49 123 49
c51.333 0 93.833 -16.167 127.5 -48.5s50.5 -74.5 50.5 -126.5c0 -50.667 -17 -92.667 -51 -126s-76.333 -50 -127 -50c-48.667 0 -89.667 16.667 -123 50s-50 75.333 -50 126zM334 586c0 36.667 -11.333 66.5 -34 89.5s-51 34.5 -85 34.5s-62.167 -11.5 -84.5 -34.5
s-33.5 -52.833 -33.5 -89.5c0 -37.334 11.167 -67.667 33.5 -90.999c22.333 -23.333 50.5 -35 84.5 -35s62.333 11.667 85 35s34 53.666 34 90.999zM252 0h-55l478 750h55zM40 585c0 51.333 16.667 93.333 50 126s74.333 49 123 49c51.333 0 93.833 -16.167 127.5 -48.5
s50.5 -74.5 50.5 -126.5c0 -50.667 -17 -92.667 -51 -126s-76.333 -50 -127 -50c-48.667 0 -89.667 16.667 -123 50c-33.333 33.334 -50 75.334 -50 126z" />
    <glyph glyph-name="guilsinglleft" unicode="&#x2039;" horiz-adv-x="299" 
d="M249 140l-41 -38l-178 202l178 202l41 -38l-145 -164z" />
    <glyph glyph-name="guilsinglright" unicode="&#x203a;" horiz-adv-x="299" 
d="M50 468l41 38l178 -202l-178 -202l-41 38l145 164z" />
    <glyph glyph-name="fraction" unicode="&#x2044;" horiz-adv-x="673" 
d="M125 0h-55l478 750h55z" />
    <glyph glyph-name="uni2113" unicode="&#x2113;" horiz-adv-x="465" 
d="M195 485l68 34c76 38 114 83.667 114 137c0 19.333 -4.83301 34 -14.5 44s-22.834 15 -39.5 15c-24 0 -44.667 -9.66699 -62 -29c-17.334 -19.335 -29.667 -44.668 -37 -76zM182 428l-73 -317.001c-2 -10 -3 -18.667 -3 -26c0 -16 4.16699 -28.167 12.5 -36.5
s18.833 -12.5 31.5 -12.5c21.333 0 46 11 74 33s54.667 49.667 80 83l23 -20c-64 -96 -129.333 -144 -196 -144c-26 0 -46.5 8 -61.5 24s-22.5 38 -22.5 66c0 16.667 2.33301 34.334 7 53.001l64 275l-88 -46l13 56l87 44l31 137c12.667 55.333 34.834 96.666 66.5 123.999
c31.667 27.333 65.5 41 101.5 41c28 0 52.667 -7.83301 74 -23.5s32 -39.167 32 -70.5c0 -31.335 -11.333 -63.168 -34 -95.5c-22.667 -32.334 -56.667 -60.167 -102 -83.499z" />
    <glyph glyph-name="afii61352" unicode="&#x2116;" horiz-adv-x="1195" 
d="M1084 598c0 36.667 -11.333 66.5 -34 89.5c-22.6689 23 -51.002 34.5 -85 34.5c-34 0 -62.167 -11.5 -84.5 -34.5s-33.5 -52.833 -33.5 -89.5c0 -37.334 11.167 -67.667 33.5 -90.999c22.333 -23.333 50.5 -35 84.5 -35s62.333 11.667 85 35s34 53.666 34 90.999zM644 0
h-70l-421 680v-680h-58v750h85l406 -664v664h58v-750zM790 597c0 51.333 16.667 93.333 50 126s74.333 49 123 49c51.333 0 93.833 -16.167 127.5 -48.5s50.5 -74.5 50.5 -126.5c0 -50.667 -17 -92.667 -51 -126s-76.333 -50 -127 -50c-48.667 0 -89.667 16.667 -123 50
s-50 75.333 -50 126z" />
    <glyph glyph-name="trademark" unicode="&#x2122;" horiz-adv-x="731" 
d="M691 390h-45v263l-96 -263h-52l-96 263v-263h-45v312h74l94 -268l94 268h72v-312zM317 702v-41h-116v-271h-45v271h-116v41h277z" />
    <glyph glyph-name="estimated" unicode="&#x212e;" horiz-adv-x="530" 
d="M389 293v120c-27.333 37.333 -66 56 -116 56c-29.334 0 -56.667 -6.83301 -82 -20.5s-45.333 -32.5 -60 -56.5v-99h258zM280 31c84 0 133.667 40 149 120h46c-7.33301 -53.333 -29.5 -93.833 -66.5 -121.5s-81.167 -41.5 -132.5 -41.5c-64.667 0 -118.5 21.667 -161.5 65
s-64.5 108 -64.5 194s21.333 151.667 64 197s95.667 68 159 68c58 0 107 -18.5 147 -55.5s60 -89.833 60 -158.5c0 -22.667 -1 -40 -3 -52h-346v-129c30 -57.333 79.667 -86 149 -86z" />
    <glyph glyph-name="onethird" unicode="&#x2153;" horiz-adv-x="1000" 
d="M868 241c28.667 -8 51 -22 67 -42s24 -43.333 24 -70c0 -34.667 -13.667 -64.334 -41 -89.001c-27.335 -24.667 -64.668 -37 -112 -37c-46.667 0 -84.667 12.333 -114 37s-44.333 59 -45 103h47c0 -32 10.333 -56.5 31 -73.5s48 -25.5 82 -25.5
c32.667 0 58 7.66699 76 23s27 35 27 59c0 26 -10.5 47.5 -31.5 64.5s-51.167 25.5 -90.5 25.5h-15v43h13c36 0 64 8.5 84 25.5s30 37.833 30 62.5s-9.5 43.334 -28.5 56.001s-42.5 19 -70.5 19c-30.667 0 -55.5 -9.83301 -74.5 -29.5s-28.5 -48.167 -28.5 -85.5h-46
c0 50 14.333 88.667 43 116c28.668 27.333 65.335 41 110 41c41.333 0 75.5 -10.333 102.5 -31s40.5 -48.667 40.5 -84c0 -26 -7.33301 -48.5 -22 -67.5s-34 -32.5 -58 -40.5zM314 294h-240.001v44h103v349c-26.667 -22.667 -63 -38 -109 -46v44
c44.667 8.66699 82.334 28.334 113.001 59h40v-406h93v-44zM303.999 0h-55l478 750h55z" />
    <glyph glyph-name="twothirds" unicode="&#x2154;" horiz-adv-x="1000" 
d="M877 241c28.667 -8 51 -22 67 -42s24 -43.333 24 -70c0 -34.667 -13.667 -64.334 -41 -89.001c-27.335 -24.667 -64.668 -37 -112 -37c-46.667 0 -84.667 12.333 -114 37s-44.333 59 -45 103h47c0 -32 10.333 -56.5 31 -73.5s48 -25.5 82 -25.5
c32.667 0 58 7.66699 76 23s27 35 27 59c0 26 -10.5 47.5 -31.5 64.5s-51.167 25.5 -90.5 25.5h-15v43h13c36 0 64 8.5 84 25.5s30 37.833 30 62.5s-9.5 43.334 -28.5 56.001s-42.5 19 -70.5 19c-30.667 0 -55.5 -9.83301 -74.5 -29.5s-28.5 -48.167 -28.5 -85.5h-46
c0 50 14.333 88.667 43 116c28.668 27.333 65.335 41 110 41c41.333 0 75.5 -10.333 102.5 -31s40.5 -48.667 40.5 -84c0 -26 -7.33301 -48.5 -22 -67.5s-34 -32.5 -58 -40.5zM318 0h-55l478 750h55zM349 295h-308.001v43l113 102c54.667 49.333 88.334 82 101.001 98
c20.667 26 31 52.667 31 80c0 28 -8.83301 49.833 -26.5 65.5s-40.5 23.5 -68.5 23.5c-31.333 0 -57 -9.66699 -77 -29c-20 -19.335 -30.333 -47.668 -31 -85h-46c0 49.333 15.5 87.833 46.5 115.5s67.833 41.5 110.5 41.5c38.667 0 71.5 -11.5 98.5 -34.5
s40.5 -54.5 40.5 -94.5c0 -32.667 -9.66699 -62 -29 -88s-53 -60.667 -101 -104l-100 -90h246v-44z" />
    <glyph glyph-name="onefifth" unicode="&#x2155;" horiz-adv-x="1000" 
d="M795 297c44.667 0 79.5 -13.666 104.5 -40.999s37.5 -62 37.5 -104c0 -44 -13.5 -80.667 -40.5 -110s-64.5 -44 -112.5 -44c-41.335 0 -76.668 11.667 -106 35c-29.3359 23.333 -44.6689 55.666 -46 96.999h47c0.671875 -29.333 10.8389 -51.833 30.5 -67.5
c19.667 -15.667 44.5 -23.5 74.5 -23.5c34 0 60.5 10 79.5 30s28.5 46.333 28.5 79c0 32 -9 57.667 -27 77s-44 29 -78 29c-36 0 -66.667 -11.667 -92 -35h-43l39 240h219v-39h-186l-24 -150c26 18 57.667 27 95 27zM330 294.001h-240.001v44h103v349
c-26.667 -22.667 -63 -38 -109 -46v44c44.667 8.66699 82.334 28.334 113.001 59h40v-406h93v-44zM319.999 0.000976562h-55l478 750h55z" />
    <glyph glyph-name="twofifths" unicode="&#x2156;" horiz-adv-x="1000" 
d="M807 297c44.667 0 79.5 -13.666 104.5 -40.999s37.5 -62 37.5 -104c0 -44 -13.5 -80.667 -40.5 -110s-64.5 -44 -112.5 -44c-41.334 0 -76.667 11.667 -106 35c-29.3359 23.333 -44.6689 55.666 -46 96.999h47c0.668945 -29.333 10.8359 -51.833 30.5 -67.5
c19.667 -15.667 44.5 -23.5 74.5 -23.5c34 0 60.5 10 79.5 30s28.5 46.333 28.5 79c0 32 -9 57.667 -27 77s-44 29 -78 29c-36 0 -66.667 -11.667 -92 -35h-43l39 240h219v-39h-186l-24 -150c26 18 57.667 27 95 27zM332 0.000976562h-55l478 750h55zM363 295.001h-308.001
v43l113 102c54.667 49.333 88.334 82 101.001 98c20.667 26 31 52.667 31 80c0 28 -8.83301 49.833 -26.5 65.5s-40.5 23.5 -68.5 23.5c-31.333 0 -57 -9.66699 -77 -29c-20 -19.335 -30.333 -47.668 -31 -85h-46c0 49.333 15.5 87.833 46.5 115.5s67.833 41.5 110.5 41.5
c38.667 0 71.5 -11.5 98.5 -34.5s40.5 -54.5 40.5 -94.5c0 -32.667 -9.66699 -62 -29 -88s-53 -60.667 -101 -104l-100 -90h246v-44z" />
    <glyph glyph-name="threefifths" unicode="&#x2157;" horiz-adv-x="1000" 
d="M792 297c44.667 0 79.5 -13.666 104.5 -40.999s37.5 -62 37.5 -104c0 -44 -13.5 -80.667 -40.5 -110s-64.5 -44 -112.5 -44c-41.335 0 -76.668 11.667 -106 35c-29.3359 23.333 -44.6689 55.666 -46 96.999h47c0.671875 -29.333 10.8389 -51.833 30.5 -67.5
c19.667 -15.667 44.5 -23.5 74.5 -23.5c34 0 60.5 10 79.5 30s28.5 46.333 28.5 79c0 32 -9 57.667 -27 77s-44 29 -78 29c-36 0 -66.667 -11.667 -92 -35h-43l39 240h219v-39h-186l-24 -150c26 18 57.667 27 95 27zM317 0.000976562h-55l478 750h55zM281 527.001
c28.667 -8 50.998 -22 66.998 -42s24 -43.333 24 -70c0 -34.667 -13.667 -64.334 -41 -89c-27.333 -24.667 -64.666 -37 -111.999 -37c-46.667 0 -84.667 12.333 -114 37s-44.333 59 -45 103h47c0 -32 10.333 -56.5 31 -73.5s48 -25.5 82 -25.5c32.667 0 58 7.66699 76 23
s27 35 27 59c0 26 -10.5 47.5 -31.5 64.5s-51.167 25.5 -90.5 25.5h-15v43h13c36 0 64 8.5 84 25.5s30 37.833 30 62.5c0 24.6689 -9.5 43.3359 -28.5 56c-19 12.667 -42.5 19 -70.5 19c-30.667 0 -55.5 -9.83301 -74.5 -29.5s-28.5 -48.167 -28.5 -85.5h-46
c0 50 14.333 88.667 43 116s65.334 41 110.001 41c41.333 0 75.5 -10.333 102.5 -31s40.5 -48.667 40.5 -84c0 -26 -7.33301 -48.5 -22 -67.5s-34 -32.5 -58 -40.5z" />
    <glyph glyph-name="fourfifths" unicode="&#x2158;" horiz-adv-x="1000" 
d="M825 297c44.667 0 79.5 -13.666 104.5 -40.999s37.5 -62 37.5 -104c0 -44 -13.5 -80.667 -40.5 -110s-64.5 -44 -112.5 -44c-41.335 0 -76.668 11.667 -106 35c-29.3359 23.333 -44.6689 55.666 -46 96.999h47c0.671875 -29.333 10.8389 -51.833 30.5 -67.5
c19.667 -15.667 44.5 -23.5 74.5 -23.5c34 0 60.5 10 79.5 30s28.5 46.333 28.5 79c0 32 -9 57.667 -27 77s-44 29 -78 29c-36 0 -66.667 -11.667 -92 -35h-43l39 240h219v-39h-186l-24 -150c26 18 57.667 27 95 27zM263 695.001l-166 -253h166v253zM382 400.001h-74v-105
h-45v106h-215v44l198 300h62v-303h74v-42zM350 0.000976562h-55l478 750h55z" />
    <glyph glyph-name="onesixth" unicode="&#x2159;" horiz-adv-x="1000" 
d="M805 44c29.333 0 53.834 9.5 73.501 28.5s29.5 45.167 29.5 78.5c0 34.667 -10.333 60.834 -31 78.5c-20.667 17.667 -45.334 26.5 -74.001 26.5c-30 0 -55.333 -9.33301 -76 -28s-31 -44.667 -31 -78s10.833 -59.333 32.5 -78s47.167 -28 76.5 -28zM809.001 300
c39.333 0 73.001 -13.002 101.001 -39.002s42 -61.667 42 -107s-14.333 -81.833 -43 -109.5s-64.334 -41.5 -107.001 -41.5c-46.667 0 -86.167 18.167 -118.5 54.5s-48.5 94.5 -48.5 174.5c0 46 5.66699 85.333 17 118s26.5 56.667 45.5 72c19 15.335 37.333 26.168 55 32.5
c17.667 6.33301 36.167 9.5 55.5 9.5c35.333 0 65.833 -10.167 91.5 -30.5s39.167 -49.166 40.5 -86.499h-45c-0.666992 22.667 -9.5 40.834 -26.5 54.501s-38.167 20.5 -63.5 20.5c-14.667 0 -28.667 -2.5 -42 -7.5s-26.833 -13.833 -40.5 -26.5s-24.5 -32.334 -32.5 -59
c-8 -26.667 -12.333 -59 -13 -97c13.333 22.667 32.333 39.667 57 51s49.667 17 75 17zM313.002 293.998h-240.001v44h103v349c-26.667 -22.667 -63 -38 -109 -46v44c44.667 8.66699 82.334 28.334 113.001 59h40v-406h93v-44zM303.001 -0.00195312h-55l478 750h55z" />
    <glyph glyph-name="fivesixths" unicode="&#x215a;" horiz-adv-x="1000" 
d="M800 44c29.333 0 53.834 9.5 73.501 28.5s29.5 45.167 29.5 78.5c0 34.667 -10.333 60.834 -31 78.5c-20.667 17.667 -45.334 26.5 -74.001 26.5c-30 0 -55.333 -9.33301 -76 -28s-31 -44.667 -31 -78s10.833 -59.333 32.5 -78s47.167 -28 76.5 -28zM804.001 300
c39.333 0 73.001 -13.002 101.001 -39.002s42 -61.667 42 -107s-14.333 -81.833 -43 -109.5s-64.334 -41.5 -107.001 -41.5c-46.667 0 -86.167 18.167 -118.5 54.5s-48.5 94.5 -48.5 174.5c0 46 5.66699 85.333 17 118s26.5 56.667 45.5 72c19 15.335 37.333 26.168 55 32.5
c17.667 6.33301 36.167 9.5 55.5 9.5c35.333 0 65.833 -10.167 91.5 -30.5s39.167 -49.166 40.5 -86.499h-45c-0.666992 22.667 -9.5 40.834 -26.5 54.501s-38.167 20.5 -63.5 20.5c-14.667 0 -28.667 -2.5 -42 -7.5s-26.833 -13.833 -40.5 -26.5s-24.5 -32.334 -32.5 -59
c-8 -26.667 -12.333 -59 -13 -97c13.333 22.667 32.333 39.667 57 51s49.667 17 75 17zM213.002 582.998c44.667 0 79.4971 -13.666 104.497 -40.999c25 -27.334 37.5 -62.001 37.5 -104.001c0 -44 -13.5 -80.667 -40.5 -110s-64.5 -44 -112.5 -44
c-41.333 0 -76.666 11.667 -105.999 35c-29.333 23.334 -44.666 55.667 -45.999 97h47c0.666992 -29.333 10.834 -51.833 30.501 -67.5s44.5 -23.5 74.5 -23.5c34 0 60.5 10 79.5 30s28.5 46.333 28.5 79c0 32 -9 57.667 -27 77s-44 29 -78 29
c-36 0 -66.667 -11.667 -92 -35h-43l39 240h219v-39h-186l-24 -150c26 18 57.667 27 95 27zM297.999 -0.000976562h-55l478 750h55z" />
    <glyph glyph-name="oneeighth" unicode="&#x215b;" horiz-adv-x="1000" 
d="M800 45c34.667 0 61 8.16699 79 24.5s27 37.166 27 62.499c0 26 -9.16699 46.833 -27.5 62.5s-44.5 23.5 -78.5 23.5c-33.335 0 -59.168 -7.83301 -77.5 -23.5c-18.333 -15.667 -27.5 -36.5 -27.5 -62.5c0 -25.333 8.83301 -46.166 26.5 -62.499
c17.668 -16.333 43.835 -24.5 78.5 -24.5zM707 346c0 -23.333 7.99902 -42 23.999 -56s39 -21 69 -21s53.167 7 69.5 21s24.5 32.667 24.5 56c0 22 -7.66699 40.5 -23 55.5s-39 22.5 -71 22.5c-31.3359 0 -54.6689 -7.5 -69.999 -22.5c-15.333 -15 -23 -33.5 -23 -55.5z
M869.999 242c25.333 -9.33398 45.501 -24.166 60.501 -44.499s22.5 -43.833 22.5 -70.5c0 -36.667 -13.833 -66.667 -41.5 -90s-64.834 -35 -111.501 -35c-46 0 -82.833 11.667 -110.5 35s-41.5 53.333 -41.5 90c0 26.667 7.5 50.167 22.5 70.5s35.167 35.166 60.5 44.499
c-47.333 22.667 -71 58 -71 106c0 36.667 13.5 65.167 40.5 85.5s60.167 30.5 99.5 30.5s72.5 -10.167 99.5 -30.5s40.5 -48.833 40.5 -85.5c0 -48 -23.333 -83.333 -70 -106zM306 294.001h-240.001v44h103v349c-26.667 -22.667 -63 -38 -109 -46v44
c44.667 8.66699 82.334 28.334 113.001 59h40v-406h93v-44zM295.999 0.000976562h-55l478 750h55z" />
    <glyph glyph-name="threeeighths" unicode="&#x215c;" horiz-adv-x="1000" 
d="M786 45c34.667 0 61 8.16699 79 24.5s27 37.166 27 62.499c0 26 -9.16699 46.833 -27.5 62.5s-44.5 23.5 -78.5 23.5c-33.335 0 -59.168 -7.83301 -77.5 -23.5c-18.333 -15.667 -27.5 -36.5 -27.5 -62.5c0 -25.333 8.83301 -46.166 26.5 -62.499s43.834 -24.5 78.5 -24.5
zM693 346c0 -23.333 7.99902 -42 23.999 -56s39 -21 69 -21s53.167 7 69.5 21s24.5 32.667 24.5 56c0 22 -7.66699 40.5 -23 55.5s-39 22.5 -71 22.5c-31.3359 0 -54.6689 -7.5 -69.999 -22.5c-15.333 -15 -23 -33.5 -23 -55.5zM855.999 242
c25.333 -9.33398 45.501 -24.166 60.501 -44.499s22.5 -43.833 22.5 -70.5c0 -36.667 -13.833 -66.667 -41.5 -90s-64.834 -35 -111.501 -35c-46 0 -82.833 11.667 -110.5 35s-41.5 53.333 -41.5 90c0 26.667 7.5 50.167 22.5 70.5s35.167 35.166 60.5 44.499
c-47.333 22.667 -71 58 -71 106c0 36.667 13.5 65.167 40.5 85.5s60.167 30.5 99.5 30.5s72.5 -10.167 99.5 -30.5s40.5 -48.833 40.5 -85.5c0 -48 -23.333 -83.333 -70 -106zM282 0.000976562h-55l478 750h55zM267 527.001c28.667 -8 50.998 -22 66.998 -42
s24 -43.333 24 -70c0 -34.667 -13.667 -64.334 -41 -89c-27.333 -24.667 -64.666 -37 -111.999 -37c-46.667 0 -84.667 12.333 -114 37s-44.333 59 -45 103h47c0 -32 10.333 -56.5 31 -73.5s48 -25.5 82 -25.5c32.667 0 58 7.66699 76 23s27 35 27 59
c0 26 -10.5 47.5 -31.5 64.5s-51.167 25.5 -90.5 25.5h-15v43h13c36 0 64 8.5 84 25.5s30 37.833 30 62.5c0 24.6689 -9.5 43.3359 -28.5 56c-19 12.667 -42.5 19 -70.5 19c-30.667 0 -55.5 -9.83301 -74.5 -29.5s-28.5 -48.167 -28.5 -85.5h-46c0 50 14.333 88.667 43 116
s65.334 41 110.001 41c41.333 0 75.5 -10.333 102.5 -31s40.5 -48.667 40.5 -84c0 -26 -7.33301 -48.5 -22 -67.5s-34 -32.5 -58 -40.5z" />
    <glyph glyph-name="fiveeighths" unicode="&#x215d;" horiz-adv-x="1000" 
d="M794 45c34.667 0 60.999 8.16699 78.999 24.5s27 37.166 27 62.499c0 26 -9.16699 46.833 -27.5 62.5s-44.5 23.5 -78.5 23.5c-33.335 0 -59.168 -7.83301 -77.5 -23.5c-18.333 -15.667 -27.5 -36.5 -27.5 -62.5c0 -25.333 8.83301 -46.166 26.5 -62.499
c17.6699 -16.333 43.8369 -24.5 78.501 -24.5zM700.999 346c0 -23.333 8 -42 24 -56s39 -21 69 -21s53.167 7 69.5 21s24.5 32.667 24.5 56c0 22 -7.66699 40.5 -23 55.5s-39 22.5 -71 22.5c-31.335 0 -54.668 -7.5 -70 -22.5c-15.333 -15 -23 -33.5 -23 -55.5zM863.999 242
c25.333 -9.33398 45.501 -24.166 60.501 -44.499s22.5 -43.833 22.5 -70.5c0 -36.667 -13.833 -66.667 -41.5 -90s-64.834 -35 -111.501 -35c-46 0 -82.833 11.667 -110.5 35s-41.5 53.333 -41.5 90c0 26.667 7.5 50.167 22.5 70.5s35.167 35.166 60.5 44.499
c-47.333 22.667 -71 58 -71 106c0 36.667 13.5 65.167 40.5 85.5s60.167 30.5 99.5 30.5s72.5 -10.167 99.5 -30.5s40.5 -48.833 40.5 -85.5c0 -48 -23.333 -83.333 -70 -106zM205 583.001c44.667 0 79.4971 -13.666 104.497 -40.999c25 -27.334 37.5 -62.001 37.5 -104.001
c0 -44 -13.5 -80.667 -40.5 -110s-64.5 -44 -112.5 -44c-41.333 0 -76.666 11.667 -105.999 35c-29.333 23.334 -44.666 55.667 -45.999 97h47c0.666992 -29.333 10.834 -51.833 30.501 -67.5s44.5 -23.5 74.5 -23.5c34 0 60.5 10 79.5 30s28.5 46.333 28.5 79
c0 32 -9 57.667 -27 77s-44 29 -78 29c-36 0 -66.667 -11.667 -92 -35h-43l39 240h219v-39h-186l-24 -150c26 18 57.667 27 95 27zM289.997 0.00195312h-55l478 750h55z" />
    <glyph glyph-name="seveneighths" unicode="&#x215e;" horiz-adv-x="1000" 
d="M791 45c34.667 0 60.998 8.16699 78.998 24.5s27 37.166 27 62.499c0 26 -9.16699 46.833 -27.5 62.5s-44.5 23.5 -78.5 23.5c-33.3359 0 -59.1689 -7.83301 -77.499 -23.5c-18.333 -15.667 -27.5 -36.5 -27.5 -62.5c0 -25.333 8.83301 -46.166 26.5 -62.499
c17.6699 -16.333 43.8369 -24.5 78.501 -24.5zM697.998 346c0 -23.333 7.99902 -42 23.999 -56s39 -21 69 -21s53.167 7 69.5 21s24.5 32.667 24.5 56c0 22 -7.66699 40.5 -23 55.5s-39 22.5 -71 22.5c-31.3359 0 -54.6689 -7.5 -69.999 -22.5
c-15.333 -15 -23 -33.5 -23 -55.5zM860.997 242c25.333 -9.33398 45.501 -24.166 60.501 -44.499s22.5 -43.833 22.5 -70.5c0 -36.667 -13.833 -66.667 -41.5 -90s-64.834 -35 -111.501 -35c-46 0 -82.833 11.667 -110.5 35s-41.5 53.333 -41.5 90
c0 26.667 7.5 50.167 22.5 70.5s35.167 35.166 60.5 44.499c-47.333 22.667 -71 58 -71 106c0 36.667 13.5 65.167 40.5 85.5s60.167 30.5 99.5 30.5s72.5 -10.167 99.5 -30.5s40.5 -48.833 40.5 -85.5c0 -48 -23.333 -83.333 -70 -106zM172.998 294.001h-46l187 406h-261
v45h308v-43zM286.998 0.000976562h-55l478 750h55z" />
    <glyph glyph-name="partialdiff" unicode="&#x2202;" 
d="M289 44c56.667 0 100.666 18.167 131.999 54.5s47 79.5 47 129.5c0 50.667 -16.667 94.167 -50 130.5s-78.666 54.5 -135.999 54.5c-56 0 -99.5 -17.333 -130.5 -52s-46.5 -76.667 -46.5 -126c0 -51.333 16.167 -96 48.5 -134s77.5 -57 135.5 -57zM273.999 474
c49.333 0 94.501 -12.167 135.501 -36.5s71.833 -61.166 92.5 -110.499v32c0 53.333 -4.83301 100.333 -14.5 141s-22 73 -37 97s-32.833 43.5 -53.5 58.5s-40.167 25 -58.5 30s-37.5 7.5 -57.5 7.5c-44.667 0 -81.834 -12.167 -111.501 -36.5s-44.834 -57.5 -45.501 -99.5
h-64c2.66699 63.333 24.5 111.333 65.5 144s91.5 49 151.5 49c24.667 0 48.5 -2.83301 71.5 -8.5s47.833 -16.834 74.5 -33.501s49.667 -38.5 69 -65.5s35.5 -64.167 48.5 -111.5s19.5 -102 19.5 -164c0 -69.333 -7.66699 -129.333 -23 -180
c-15.334 -50.667 -36.501 -90 -63.5 -118c-27 -28 -56 -48.5 -87 -61.5s-64.5 -19.5 -100.5 -19.5c-76 0 -136 25.167 -180 75.5s-66 108.833 -66 175.5c0 64 20.833 119.167 62.5 165.5s98.834 69.5 171.501 69.5z" />
    <glyph glyph-name="product" unicode="&#x220f;" horiz-adv-x="860" 
d="M647 0h-57v700h-320v-700h-57v700h-118v50h670v-50h-118v-700z" />
    <glyph glyph-name="summation" unicode="&#x2211;" horiz-adv-x="697" 
d="M647 53v-53h-587v54l334 320l-314 324v52h535v-52h-453l309 -324l-332 -321h508z" />
    <glyph glyph-name="minus" unicode="&#x2212;" horiz-adv-x="500" 
d="M40 268v53h420v-53h-420z" />
    <glyph glyph-name="radical" unicode="&#x221a;" horiz-adv-x="609" 
d="M307 0h-59l-228 532h67l189 -466l242 684h61z" />
    <glyph glyph-name="infinity" unicode="&#x221e;" horiz-adv-x="779" 
d="M561 131c37.333 0 69 13.5 95 40.5s39 68.167 39 123.5s-13 96.5 -39 123.5s-57.667 40.5 -95 40.5c-39.334 0 -71.334 -14.5 -96 -43.5c-24.667 -29 -37 -69.167 -37 -120.5s12.333 -91.5 37 -120.5s56.667 -43.5 96 -43.5zM218 131c39.333 0 71.333 14.5 96 43.5
s37 69.167 37 120.5s-12.333 91.5 -37 120.5s-56.667 43.5 -96 43.5c-37.333 0 -69 -13.5 -95 -40.5s-39 -68.167 -39 -123.5s13 -96.5 39 -123.5s57.667 -40.5 95 -40.5zM565 523c58 0 103.166 -21.667 135.499 -65s48.5 -97.666 48.5 -162.999
s-16.167 -119.666 -48.5 -162.999s-77.5 -65 -135.5 -65c-82.667 0 -141.334 45 -176 135c-33.333 -90 -91.666 -135 -174.999 -135c-58.667 0 -104 21.667 -136 65s-48 97.666 -48 162.999s16 119.666 48 162.999s77.333 65 136 65c83.333 0 141.666 -45 174.999 -135
c34.667 90 93.334 135 176.001 135z" />
    <glyph glyph-name="integral" unicode="&#x222b;" horiz-adv-x="267" 
d="M267 703h-41c-22.667 0 -39 -5 -49 -15s-15 -32.333 -15 -67v-711c0 -22 -2.83301 -40.833 -8.5 -56.5s-12 -27.167 -19 -34.5s-17.167 -13 -30.5 -17s-23.833 -6.33301 -31.5 -7s-18.834 -1 -33.501 -1h-39v47h41c22.667 0 39 5 49 15s15 32.333 15 67v711
c0 22 2.83301 40.833 8.5 56.5s12 27.167 19 34.5s17.167 13 30.5 17s23.833 6.33301 31.5 7s18.834 1 33.501 1h39v-47z" />
    <glyph glyph-name="approxequal" unicode="&#x2248;" horiz-adv-x="499" 
d="M459 188c-29.333 -14.667 -63.001 -22 -101.001 -22c-26 0 -59.333 7.66699 -100 23s-74.334 23 -101.001 23c-50 0 -89 -12 -117 -36v56c30.667 20.667 68.334 31 113.001 31c26 0 59.333 -7.83301 100 -23.5s75.334 -23.5 104.001 -23.5c46.667 0 80.667 10.333 102 31
v-59zM458.999 338c-29.333 -14.667 -63.001 -22 -101.001 -22c-26 0 -59.333 7.66699 -100 23s-74.334 23 -101.001 23c-50 0 -89 -12 -117 -36v56c30.667 20.667 68.334 31 113.001 31c26 0 59.333 -7.83301 100 -23.5s75.334 -23.5 104.001 -23.5
c46.667 0 80.667 10.333 102 31v-59z" />
    <glyph glyph-name="notequal" unicode="&#x2260;" horiz-adv-x="500" 
d="M296 342l-42 -101h206v-53h-229l-60 -143h-54l60 143h-137v53h160l42 101h-202v53h225l62 147h54l-62 -147h141v-53h-164z" />
    <glyph glyph-name="lessequal" unicode="&#x2264;" horiz-adv-x="500" 
d="M69 50h377v-50h-377v50zM55 354v55l364 218l25 -42l-338 -203l338 -202l-25 -43z" />
    <glyph glyph-name="greaterequal" unicode="&#x2265;" horiz-adv-x="500" 
d="M53 0v50h377v-50h-377zM55 180l338 202l-338 203l25 42l364 -218v-55l-364 -217z" />
    <glyph glyph-name="lozenge" unicode="&#x25ca;" horiz-adv-x="583" 
d="M292 630l-196 -270l196 -271l195 271zM292 -12l-272 372l272 371l271 -371z" />
    <glyph glyph-name="zero.osf" horiz-adv-x="658" 
d="M330 45c60 0.666992 109.832 21.999 149.499 63.999s59.5 102.667 59.5 182c0 80.667 -20.833 143.334 -62.5 188.001s-93.834 67 -156.5 67c-59.333 0 -108.666 -21.167 -147.999 -63.5s-59 -102.833 -59 -181.5c0 -81.333 20.5 -144.333 61.5 -189
s92.167 -67 153.5 -67h2zM324.999 603.999c80.667 0 146.333 -27.167 197 -81.5s76 -129.833 76 -226.5c0 -97.333 -25 -173 -75 -227s-115.333 -81 -196 -81h-2c-81.333 0.666992 -147.166 27.667 -197.499 81s-75.5 129 -75.5 227c0 97.333 25.167 173 75.5 227
s116.166 81 197.499 81z" />
    <glyph glyph-name="one.osf" horiz-adv-x="529" 
d="M463 50v-50h-397v50h171v492h-171v50h397v-50h-171v-492h171z" />
    <glyph glyph-name="two.osf" horiz-adv-x="553" 
d="M490 0l-423 0.000976562v52l178 136c64 49.333 108.667 91.833 134 127.5s38 73.167 38 112.5c0 38.667 -13.167 68.834 -39.5 90.501s-57.833 32.5 -94.5 32.5c-48 0 -88.167 -13.833 -120.5 -41.5s-48.5 -67.167 -48.5 -118.5c0 -10 0.333008 -17.667 1 -23h-58v10
c0 72.667 22 128.5 66 167.5s98.333 58.5 163 58.5c52 0 96.5 -15.333 133.5 -46s55.5 -72.334 55.5 -125.001c0 -50 -11.5 -92.333 -34.5 -127s-67.833 -78.334 -134.5 -131.001l-157 -125h341v-50z" />
    <glyph glyph-name="three.osf" 
d="M395 235c50 -11.333 88.998 -34.001 116.998 -68.001s42 -74 42 -120c0 -57.333 -21.833 -106 -65.5 -146s-104.834 -60 -183.5 -60c-78 0 -140.833 20.833 -188.5 62.5s-71.5 99.5 -71.5 173.5h63v-8c0 -54.667 18.5 -97.5 55.5 -128.5s84.5 -46.5 142.5 -46.5
c56 0 100.333 14 133 42s49 63.333 49 106c0 45.333 -18.667 83.5 -56 114.5s-89.333 46.5 -156 46.5h-18v51h15c62 0 111 15.5 147 46.5s54 68.5 54 112.5c0 43.334 -16.833 76.667 -50.5 100s-74.834 35 -123.5 35c-51.333 0 -94.666 -15.667 -129.999 -47
s-53 -76 -53 -134h-60c0 74.667 23.833 132.667 71.5 174s107.167 62 178.5 62c68.667 0 124.334 -16.667 167.001 -50s64 -78.666 64 -135.999c0 -44 -13 -82.167 -39 -114.5s-60.667 -54.833 -104 -67.5z" />
    <glyph glyph-name="four.osf" 
d="M390 539l-304 -450h304v450zM572 36h-127v-185h-55v187h-362v63l328 487h89v-499h127v-53z" />
    <glyph glyph-name="five.osf" 
d="M319 325c70.667 0 125.999 -21.998 165.999 -65.998s60 -100 60 -168c0 -72.667 -22 -133 -66 -181s-105.333 -72 -184 -72c-70 0 -128.667 19.667 -176 59s-71 94.666 -71 165.999v11h62v-15c0 -54.667 17.833 -96.334 53.5 -125.001s79.5 -43 131.5 -43
c58.667 0 105.167 18.167 139.5 54.5s51.5 80.5 51.5 132.5c0 59.333 -16 106.333 -48 141s-78.333 52 -139 52c-59.333 0 -111.666 -20 -156.999 -60h-59l61 376h354v-50h-312l-44 -267c46 36.667 105 55 177 55z" />
    <glyph glyph-name="six.osf" 
d="M311 44c58 0 103.166 19 135.499 57s48.5 82.667 48.5 134c0 49.333 -15.5 91.333 -46.5 126s-74.5 52 -130.5 52c-57.333 0 -102.666 -18.167 -135.999 -54.5s-50 -79.833 -50 -130.5c0 -50 15.667 -93.167 47 -129.5s75.333 -54.5 132 -54.5zM325.999 474
c72.667 0 129.834 -23.167 171.501 -69.5s62.5 -101.5 62.5 -165.5c0 -66.667 -22 -125.167 -66 -175.5s-104 -75.5 -180 -75.5c-36 0 -69.5 6.5 -100.5 19.5s-60 33.5 -87 61.5s-48.167 67.333 -63.5 118s-23 110.667 -23 180c0 62 6.5 116.667 19.5 164
s29.167 84.5 48.5 111.5s42.333 48.833 69 65.5c26.667 16.6719 51.5 27.8389 74.5 33.5c23 5.66699 46.833 8.5 71.5 8.5c60 0 110.5 -16.333 151.5 -49s62.833 -80.667 65.5 -144h-64c-0.667969 42 -15.835 75.167 -45.5 99.5c-29.667 24.333 -66.834 36.5 -111.501 36.5
c-20 0 -39.167 -2.5 -57.5 -7.5s-37.833 -15 -58.5 -30s-38.5 -34.5 -53.5 -58.5s-27.333 -56.333 -37 -97s-14.5 -87.667 -14.5 -141v-32c20.667 49.334 51.5 86.167 92.5 110.5s86.167 36.5 135.5 36.5z" />
    <glyph glyph-name="seven.osf" 
d="M551 529l-311 -678h-59l311 677h-463v60h522v-59z" />
    <glyph glyph-name="eight.osf" 
d="M300 39c60 0 105.667 14.833 137 44.5s47 68.167 47 115.5c0 44.667 -16 81 -48 109s-77.333 42 -136 42s-104 -14 -136 -42s-48 -64.333 -48 -109c0 -47.333 15.667 -85.833 47 -115.5s77 -44.5 137 -44.5zM136 559c0 -40 14.5 -72.833 43.5 -98.5
s69.167 -38.5 120.5 -38.5s91.5 12.833 120.5 38.5s43.5 58.5 43.5 98.5c0 38 -13.5 70.667 -40.5 98s-68.167 41 -123.5 41s-96.5 -13.667 -123.5 -41s-40.5 -60 -40.5 -98zM393 383c47.333 -13.333 85.001 -36.833 113.001 -70.5s42 -74.167 42 -121.5
c0 -60 -22.167 -108.833 -66.5 -146.5s-104.833 -56.5 -181.5 -56.5s-137.167 18.833 -181.5 56.5s-66.5 86.5 -66.5 146.5c0 47.333 14 87.833 42 121.5s65.667 57.167 113 70.5c-90 34.667 -135 94.334 -135 179.001c0 59.333 21.667 105.5 65 138.5
s97.666 49.5 162.999 49.5c65.334 0 119.667 -16.5 163 -49.5s65 -79.167 65 -138.5c0 -84.667 -45 -144.334 -135 -179.001z" />
    <glyph glyph-name="nine.osf" 
d="M283 177c60 0 106.332 18.333 138.999 55s49 80.667 49 132c0 49.333 -16.833 92 -50.5 128s-80.167 54 -139.5 54c-57.333 0 -102.166 -18.333 -134.499 -55s-48.5 -80 -48.5 -130c0 -50.667 16.167 -94 48.5 -130s77.833 -54 136.5 -54zM286.999 604
c28 0 54.4971 -3.83496 79.4971 -11.502s49.5 -20.667 73.5 -39s44.667 -41.833 62 -70.5s31.333 -65.5 42 -110.5s16 -95.833 16 -152.5c0 -60.667 -6.33301 -114.167 -19 -160.5s-28.667 -82.833 -48 -109.5s-42 -48.5 -68 -65.5s-50.667 -28.333 -74 -34
s-47.333 -8.5 -72 -8.5c-59.333 0 -109.166 16.333 -149.499 49s-63.5 80.667 -69.5 144h63c4 -42.667 20.667 -76 50 -100s66.666 -36 111.999 -36c20 0 39.167 2.66699 57.5 8c18.334 5.33301 37.667 15.333 58 30s37.833 33.834 52.5 57.501s26.834 55.667 36.501 96
s14.5 86.833 14.5 139.5c0 6 -0.666992 14.333 -2 25c-13.333 -31.333 -32.666 -57.666 -57.999 -78.999s-51.666 -36.333 -78.999 -45s-55 -13 -83 -13c-76.667 0 -136.167 23.5 -178.5 70.5s-63.5 103.167 -63.5 168.5c0 66.667 21.833 124.5 65.5 173.5
s104.167 73.5 181.5 73.5z" />
    <glyph glyph-name="zero.pnum" 
d="M301 46c59.333 0 103.666 28.667 132.999 86s44.333 134.666 45 231.999v5c0 96.667 -14.833 174.667 -44.5 234s-75.5 89 -137.5 89c-59.333 0 -103.666 -28.667 -132.999 -86s-44.333 -134.666 -45 -231.999v-5c0 -96 14.667 -173.833 44 -233.5
s74.333 -89.5 135 -89.5h3zM298 -12c-81.333 0 -141.333 33.5 -180 100.5s-58 160.5 -58 280.5s19.5 213.5 58.5 280.5s99.5 100.5 181.5 100.5c81.333 0 141.333 -33.5 180 -100.5s58 -160.5 58 -280.5s-19.5 -213.5 -58.5 -280.5s-99.5 -100.5 -181.5 -100.5z" />
    <glyph glyph-name="one.pnum" horiz-adv-x="469" 
d="M448 0h-397v55h171v605c-46 -38.667 -106.333 -63.667 -181 -75v54c72.667 14 135 46.667 187 98h50v-682h170v-55z" />
    <glyph glyph-name="two.pnum" 
d="M544 0l-502 0.00195312v59l188 172c9.33301 8.66699 23.666 21.667 42.999 39c19.333 17.334 33 29.667 41 36.999c8 7.33301 19.5 18.166 34.5 32.499s25.667 25.333 32 33s14.833 17.667 25.5 30s18.167 23 22.5 32c4.33691 9 9.16992 19.333 14.5 31
c5.33301 11.667 8.83301 23.167 10.5 34.5s2.5 23 2.5 35c0 50 -15.667 89 -47 117s-71.666 42 -120.999 42c-50.667 0 -94 -15.333 -130 -46s-56 -75.334 -60 -134.001h-61c4.66699 75.333 31.334 133.5 80.001 174.5s106.667 61.5 174 61.5c64 0 117.667 -18.5 161 -55.5
s65 -87.833 65 -152.5c0 -29.333 -4.33301 -56.666 -13 -81.999c-8.66797 -25.333 -24.335 -52 -47.001 -80c-22.667 -28 -44 -52 -64 -72s-50.333 -48.333 -91 -85l-185 -168h427v-55z" />
    <glyph glyph-name="three.pnum" horiz-adv-x="569" 
d="M380 382c50 -11.333 88.998 -33.999 116.998 -67.999s42 -74 42 -120c0 -57.333 -21.833 -106 -65.5 -146s-104.834 -60 -183.5 -60c-78 0 -140.833 20.833 -188.5 62.5s-71.5 99.5 -71.5 173.5h63v-8c0 -54.667 18.5 -97.5 55.5 -128.5s84.5 -46.5 142.5 -46.5
c56 0 100.333 14 133 42s49 63.333 49 106c0 45.333 -18.667 83.5 -56 114.5s-89.333 46.5 -156 46.5h-18v51h15c62 0 111 15.5 147 46.5s54 68.5 54 112.5c0 43.333 -16.833 76.666 -50.5 99.999s-74.834 35 -123.5 35c-51.333 0 -94.666 -15.667 -129.999 -47
s-53 -76 -53 -134h-60c0 74.667 23.833 132.667 71.5 174s107.167 62 178.5 62c68.667 0 124.334 -16.667 167.001 -50c42.667 -33.334 64 -78.667 64 -136c0 -44 -13 -82.167 -39 -114.5s-60.667 -54.833 -104 -67.5z" />
    <glyph glyph-name="four.pnum" horiz-adv-x="624" 
d="M402 688l-304 -450h304v450zM584 185h-127v-185h-55v187h-362v63l328 487h89v-499h127v-53z" />
    <glyph glyph-name="five.pnum" horiz-adv-x="587" 
d="M311 475c70.667 0 125.999 -21.998 165.999 -65.998s60 -100 60 -168c0 -72.667 -22 -133 -66 -181s-105.333 -72 -184 -72c-70 0 -128.667 19.667 -176 59s-71 94.666 -71 165.999v11h62v-15c0 -54.667 17.833 -96.334 53.5 -125.001s79.5 -43 131.5 -43
c58.667 0 105.167 18.167 139.5 54.5s51.5 80.5 51.5 132.5c0 59.333 -16 106.333 -48 141s-78.333 52 -139 52c-59.333 0 -111.666 -20 -156.999 -60h-59l61 376h354v-50h-312l-44 -267c46 36.667 105 55 177 55z" />
    <glyph glyph-name="six.pnum" horiz-adv-x="603" 
d="M320 44c58 0 103.166 19 135.499 57s48.5 82.667 48.5 134c0 49.333 -15.5 91.333 -46.5 126s-74.5 52 -130.5 52c-57.333 0 -102.666 -18.167 -135.999 -54.5s-50 -79.833 -50 -130.5c0 -50 15.667 -93.167 47 -129.5s75.333 -54.5 132 -54.5zM334.999 474
c72.667 0 129.834 -23.167 171.501 -69.5s62.5 -101.5 62.5 -165.5c0 -66.667 -22 -125.167 -66 -175.5s-104 -75.5 -180 -75.5c-36 0 -69.5 6.5 -100.5 19.5s-60 33.5 -87 61.5s-48.167 67.333 -63.5 118s-23 110.667 -23 180c0 62 6.5 116.667 19.5 164
s29.167 84.5 48.5 111.5s42.333 48.833 69 65.5c26.667 16.6719 51.5 27.8389 74.5 33.5c23 5.66699 46.833 8.5 71.5 8.5c60 0 110.5 -16.333 151.5 -49s62.833 -80.667 65.5 -144h-64c-0.667969 42 -15.835 75.167 -45.501 99.5c-29.667 24.333 -66.834 36.5 -111.5 36.5
c-20 0 -39.167 -2.5 -57.5 -7.5s-37.833 -15 -58.5 -30s-38.5 -34.5 -53.5 -58.5s-27.333 -56.333 -37 -97s-14.5 -87.667 -14.5 -141v-32c20.667 49.334 51.5 86.167 92.5 110.5s86.167 36.5 135.5 36.5z" />
    <glyph glyph-name="seven.pnum" horiz-adv-x="522" 
d="M512 678l-311 -678h-59l311 677h-463v60h522v-59z" />
    <glyph glyph-name="eight.pnum" horiz-adv-x="576" 
d="M288 39c60 0 105.667 14.833 137 44.5s47 68.167 47 115.5c0 44.667 -16 81 -48 109s-77.333 42 -136 42s-104 -14 -136 -42s-48 -64.333 -48 -109c0 -47.333 15.667 -85.833 47 -115.5s77 -44.5 137 -44.5zM124 559c0 -40 14.5 -72.833 43.5 -98.5
s69.167 -38.5 120.5 -38.5s91.5 12.833 120.5 38.5s43.5 58.5 43.5 98.5c0 38 -13.5 70.667 -40.5 98s-68.167 41 -123.5 41s-96.5 -13.667 -123.5 -41s-40.5 -60 -40.5 -98zM381 383c47.333 -13.333 85.002 -36.833 113.002 -70.5s42 -74.167 42 -121.5
c0 -60 -22.167 -108.833 -66.5 -146.5s-104.833 -56.5 -181.5 -56.5s-137.167 18.833 -181.5 56.5s-66.5 86.5 -66.5 146.5c0 47.333 14 87.833 42 121.5s65.667 57.167 113 70.5c-90 34.667 -135 94.334 -135 179.001c0 59.333 21.667 105.5 65 138.5
s97.666 49.5 162.999 49.5s119.666 -16.5 162.999 -49.5s65 -79.167 65 -138.5c0 -84.667 -45 -144.334 -135 -179.001z" />
    <glyph glyph-name="nine.pnum" horiz-adv-x="598" 
d="M282 323c60 0 106.332 18.333 138.999 55s49 80.667 49 132c0 49.333 -16.833 92 -50.5 128s-80.167 54 -139.5 54c-57.333 0 -102.166 -18.333 -134.499 -55s-48.5 -80 -48.5 -130c0 -50.667 16.167 -94 48.5 -130s77.833 -54 136.5 -54zM285.999 750
c28 0 54.4971 -3.83496 79.4971 -11.502s49.5 -20.667 73.5 -39s44.667 -41.833 62 -70.5s31.333 -65.5 42 -110.5s16 -95.833 16 -152.5c0 -60.667 -6.33301 -114.167 -19 -160.5s-28.667 -82.833 -48 -109.5s-42 -48.5 -68 -65.5s-50.667 -28.333 -74 -34
s-47.333 -8.5 -72 -8.5c-59.333 0 -109.166 16.333 -149.499 49s-63.5 80.667 -69.5 144h63c4 -42.667 20.667 -76 50 -100s66.666 -36 111.999 -36c20 0 39.167 2.66699 57.5 8c18.334 5.33301 37.667 15.333 58 30s37.833 33.834 52.5 57.501s26.834 55.667 36.501 96
s14.5 86.833 14.5 139.5c0 6 -0.666992 14.333 -2 25c-13.333 -31.333 -32.666 -57.666 -57.999 -78.999s-51.666 -36.333 -78.999 -45s-55 -13 -83 -13c-76.667 0 -136.167 23.5 -178.5 70.5s-63.5 103.167 -63.5 168.5c0 66.667 21.833 124.5 65.5 173.5
s104.167 73.5 181.5 73.5z" />
    <glyph glyph-name="zero.dnom" horiz-adv-x="380" 
d="M191 33c67.334 0 101.667 61.667 103 185v5c0 55.333 -8.5 100 -25.5 134s-43.5 51 -79.5 51c-34.667 0 -60.5 -16.5 -77.5 -49.5s-25.5 -77.833 -25.5 -134.5c0 -57.333 8.33301 -103.5 25 -138.5s43 -52.5 79 -52.5h1zM190 451c96.667 0 145 -76.667 145 -230
c0 -154 -48.667 -231 -146 -231c-96 0 -144 77 -144 231c0 153.333 48.333 230 145 230z" />
    <glyph glyph-name="one.dnom" horiz-adv-x="380" 
d="M313 1l-240.001 -0.000976562v44h103v349c-26.667 -22.667 -63 -38 -109 -46v44c44.667 8.66699 82.334 28.334 113.001 59.001h40v-406h93v-44z" />
    <glyph glyph-name="two.dnom" horiz-adv-x="380" 
d="M346 1l-308.001 -0.000976562v43l113 102c54.667 49.333 88.334 82 101.001 98c20.667 26 31 52.667 31 80c0 28 -8.83301 49.833 -26.5 65.5s-40.5 23.5 -68.5 23.5c-31.333 0 -57 -9.66699 -77 -29s-30.333 -47.666 -31 -84.999h-46c0 49.333 15.5 87.833 46.5 115.5
s67.833 41.5 110.5 41.5c38.667 0 71.5 -11.5 98.5 -34.5s40.5 -54.5 40.5 -94.5c0 -32.667 -9.66699 -62 -29 -88s-53 -60.667 -101 -104l-100 -90h246v-44z" />
    <glyph glyph-name="three.dnom" horiz-adv-x="380" 
d="M255 241c28.667 -8 50.998 -22 66.998 -42s24 -43.333 24 -70c0 -34.667 -13.667 -64.334 -41 -89.001s-64.666 -37 -111.999 -37c-46.667 0 -84.667 12.333 -114 37s-44.333 59 -45 103h47c0 -32 10.333 -56.5 31 -73.5s48 -25.5 82 -25.5c32.667 0 58 7.66699 76 23
s27 35 27 59c0 26 -10.5 47.5 -31.5 64.5s-51.167 25.5 -90.5 25.5h-15v43h13c36 0 64 8.5 84 25.5s30 37.833 30 62.5s-9.5 43.334 -28.5 56.001s-42.5 19 -70.5 19c-30.667 0 -55.5 -9.83301 -74.5 -29.5s-28.5 -48.167 -28.5 -85.5h-46c0 50 14.333 88.667 43 116
s65.334 41 110.001 41c41.333 0 75.5 -10.333 102.5 -31s40.5 -48.667 40.5 -84c0 -26 -7.33301 -48.5 -22 -67.5s-34 -32.5 -58 -40.5z" />
    <glyph glyph-name="four.dnom" horiz-adv-x="380" 
d="M238 401l-166 -253h166v253zM357 106h-74v-105h-45v106h-215v44l198 300h62v-303h74v-42z" />
    <glyph glyph-name="five.dnom" horiz-adv-x="380" 
d="M200 297c44.667 0 79.4971 -13.666 104.497 -40.999s37.5 -62 37.5 -104c0 -44 -13.5 -80.667 -40.5 -110s-64.5 -44 -112.5 -44c-41.333 0 -76.666 11.667 -105.999 35s-44.666 55.666 -45.999 96.999h47c0.666992 -29.333 10.834 -51.833 30.501 -67.5
s44.5 -23.5 74.5 -23.5c34 0 60.5 10 79.5 30s28.5 46.333 28.5 79c0 32 -9 57.667 -27 77s-44 29 -78 29c-36 0 -66.667 -11.667 -92 -35h-43l39 240h219v-39h-186l-24 -150c26 18 57.667 27 95 27z" />
    </font>
</defs>
</svg>
